999
"DXF R12 Output" (www.mydxf.blogspot.com)
 0 
SECTION
 2 
HEADER
 9 
$ACADVER
 1 
AC1009
 9 
$EXTMIN
 10 
 0 
 20 
 0 
 9 
$EXTMAX
 10 
 8.5 
 20 
 11 
 0 
ENDSEC
 0 
SECTION
 2 
ENTITIES
0
LINE
8
Layer 1
10
136.525000
20
211.455000
11
133.103050
21
210.749444
0
LINE
8
Layer 1
10
133.103050
20
210.749444
11
130.823221
21
210.396666
0
LINE
8
Layer 1
10
130.823221
20
210.396666
11
128.940270
21
210.255555
0
LINE
8
Layer 1
10
128.940270
20
210.255555
11
127.480651
21
210.092395
0
LINE
8
Layer 1
10
127.480651
20
210.092395
11
126.259160
21
209.691110
0
LINE
8
Layer 1
10
126.259160
20
209.691110
11
124.980341
21
209.254548
0
LINE
8
Layer 1
10
124.980341
20
209.254548
11
123.436940
21
208.950276
0
LINE
8
Layer 1
10
123.436940
20
208.950276
11
121.796523
21
208.619547
0
LINE
8
Layer 1
10
121.796523
20
208.619547
11
120.367770
21
208.103609
0
LINE
8
Layer 1
10
120.367770
20
208.103609
11
119.190375
21
207.622949
0
LINE
8
Layer 1
10
119.190375
20
207.622949
11
118.145270
21
207.433331
0
LINE
8
Layer 1
10
118.145270
20
207.433331
11
117.355929
21
207.292220
0
LINE
8
Layer 1
10
117.355929
20
207.292220
11
116.804710
21
206.939442
0
LINE
8
Layer 1
10
116.804710
20
206.939442
11
116.160890
21
206.502880
0
LINE
8
Layer 1
10
116.160890
20
206.502880
11
115.252490
21
206.198608
0
LINE
8
Layer 1
10
115.252490
20
206.198608
11
114.128010
21
205.819372
0
LINE
8
Layer 1
10
114.128010
20
205.819372
11
113.029990
21
205.281385
0
LINE
8
Layer 1
10
113.029990
20
205.281385
11
112.099536
21
204.813954
0
LINE
8
Layer 1
10
112.099536
20
204.813954
11
111.407210
21
204.611107
0
LINE
8
Layer 1
10
111.407210
20
204.611107
11
110.750161
21
204.403850
0
LINE
8
Layer 1
10
110.750161
20
204.403850
11
109.960820
21
203.905551
0
LINE
8
Layer 1
10
109.960820
20
203.905551
11
108.726100
21
203.199995
0
LINE
8
Layer 1
10
108.726100
20
203.199995
11
108.362849
21
203.113454
0
LINE
8
Layer 1
10
108.362849
20
203.113454
11
107.539884
21
202.666419
0
LINE
8
Layer 1
10
107.539884
20
202.666419
11
102.623040
21
199.566385
0
LINE
8
Layer 1
10
102.623040
20
199.566385
11
99.855110
21
197.643400
0
LINE
8
Layer 1
10
99.855110
20
197.643400
11
97.082216
21
195.473607
0
LINE
8
Layer 1
10
97.082216
20
195.473607
11
94.345701
21
193.097934
0
LINE
8
Layer 1
10
94.345701
20
193.097934
11
91.686910
21
190.557310
0
LINE
8
Layer 1
10
91.686910
20
190.557310
11
89.147185
21
187.892664
0
LINE
8
Layer 1
10
89.147185
20
187.892664
11
86.767869
21
185.144926
0
LINE
8
Layer 1
10
86.767869
20
185.144926
11
84.590307
21
182.355023
0
LINE
8
Layer 1
10
84.590307
20
182.355023
11
82.655840
21
179.563885
0
LINE
8
Layer 1
10
82.655840
20
179.563885
11
79.569034
21
174.704367
0
LINE
8
Layer 1
10
79.569034
20
174.704367
11
79.113731
21
173.868724
0
LINE
8
Layer 1
10
79.113731
20
173.868724
11
79.022230
21
173.496105
0
LINE
8
Layer 1
10
79.022230
20
173.496105
11
78.316674
21
172.261385
0
LINE
8
Layer 1
10
78.316674
20
172.261385
11
77.818375
21
171.472044
0
LINE
8
Layer 1
10
77.818375
20
171.472044
11
77.611118
21
170.814995
0
LINE
8
Layer 1
10
77.611118
20
170.814995
11
77.408271
21
170.122667
0
LINE
8
Layer 1
10
77.408271
20
170.122667
11
76.940840
21
169.192215
0
LINE
8
Layer 1
10
76.940840
20
169.192215
11
76.402853
21
168.094194
0
LINE
8
Layer 1
10
76.402853
20
168.094194
11
76.023617
21
166.969715
0
LINE
8
Layer 1
10
76.023617
20
166.969715
11
75.719346
21
166.061311
0
LINE
8
Layer 1
10
75.719346
20
166.061311
11
75.282783
21
165.417495
0
LINE
8
Layer 1
10
75.282783
20
165.417495
11
74.930005
21
164.866279
0
LINE
8
Layer 1
10
74.930005
20
164.866279
11
74.788894
21
164.076935
0
LINE
8
Layer 1
10
74.788894
20
164.076935
11
74.599276
21
163.031829
0
LINE
8
Layer 1
10
74.599276
20
163.031829
11
74.118616
21
161.854435
0
LINE
8
Layer 1
10
74.118616
20
161.854435
11
73.602678
21
160.425684
0
LINE
8
Layer 1
10
73.602678
20
160.425684
11
73.271949
21
158.785265
0
LINE
8
Layer 1
10
73.271949
20
158.785265
11
72.967678
21
157.241862
0
LINE
8
Layer 1
10
72.967678
20
157.241862
11
72.531115
21
155.963045
0
LINE
8
Layer 1
10
72.531115
20
155.963045
11
72.129830
21
154.741551
0
LINE
8
Layer 1
10
72.129830
20
154.741551
11
71.966670
21
153.281935
0
LINE
8
Layer 1
10
71.966670
20
153.281935
11
71.785871
21
151.337247
0
LINE
8
Layer 1
10
71.785871
20
151.337247
11
71.366947
21
148.942765
0
LINE
8
Layer 1
10
71.366947
20
148.942765
11
70.877468
21
145.520817
0
LINE
8
Layer 1
10
70.877468
20
145.520817
11
70.731947
21
140.405535
0
LINE
8
Layer 1
10
70.731947
20
140.405535
11
70.877468
21
135.290252
0
LINE
8
Layer 1
10
70.877468
20
135.290252
11
71.366947
21
131.868305
0
LINE
8
Layer 1
10
71.366947
20
131.868305
11
71.785871
21
129.473825
0
LINE
8
Layer 1
10
71.785871
20
129.473825
11
71.966670
21
127.529135
0
LINE
8
Layer 1
10
71.966670
20
127.529135
11
72.129830
21
126.069516
0
LINE
8
Layer 1
10
72.129830
20
126.069516
11
72.531115
21
124.848025
0
LINE
8
Layer 1
10
72.531115
20
124.848025
11
72.967677
21
123.569206
0
LINE
8
Layer 1
10
72.967677
20
123.569206
11
73.271949
21
122.025805
0
LINE
8
Layer 1
10
73.271949
20
122.025805
11
73.602678
21
120.385388
0
LINE
8
Layer 1
10
73.602678
20
120.385388
11
74.118616
21
118.956635
0
LINE
8
Layer 1
10
74.118616
20
118.956635
11
74.599276
21
117.779240
0
LINE
8
Layer 1
10
74.599276
20
117.779240
11
74.788894
21
116.734135
0
LINE
8
Layer 1
10
74.788894
20
116.734135
11
74.930005
21
115.944794
0
LINE
8
Layer 1
10
74.930005
20
115.944794
11
75.282783
21
115.393575
0
LINE
8
Layer 1
10
75.282783
20
115.393575
11
75.719345
21
114.749755
0
LINE
8
Layer 1
10
75.719345
20
114.749755
11
76.023617
21
113.841355
0
LINE
8
Layer 1
10
76.023617
20
113.841355
11
76.402853
21
112.716875
0
LINE
8
Layer 1
10
76.402853
20
112.716875
11
76.940840
21
111.618855
0
LINE
8
Layer 1
10
76.940840
20
111.618855
11
77.408271
21
110.688401
0
LINE
8
Layer 1
10
77.408271
20
110.688401
11
77.611118
21
109.996075
0
LINE
8
Layer 1
10
77.611118
20
109.996075
11
77.818375
21
109.339026
0
LINE
8
Layer 1
10
77.818375
20
109.339026
11
78.316674
21
108.549685
0
LINE
8
Layer 1
10
78.316674
20
108.549685
11
79.022230
21
107.314965
0
LINE
8
Layer 1
10
79.022230
20
107.314965
11
79.604314
21
106.044964
0
LINE
8
Layer 1
10
79.604314
20
106.044964
11
82.091400
21
102.129125
0
LINE
8
Layer 1
10
82.091400
20
102.129125
11
83.167375
21
100.396102
0
LINE
8
Layer 1
10
83.167375
20
100.396102
11
83.608350
21
99.483295
0
LINE
8
Layer 1
10
83.608350
20
99.483295
11
83.525943
21
99.191840
0
LINE
8
Layer 1
10
83.525943
20
99.191840
11
83.266597
21
98.950821
0
LINE
8
Layer 1
10
83.266597
20
98.950821
11
82.144323
21
98.610170
0
LINE
8
Layer 1
10
82.144323
20
98.610170
11
80.096004
21
98.441499
0
LINE
8
Layer 1
10
80.096004
20
98.441499
11
76.976120
21
98.424965
0
LINE
8
Layer 1
10
76.976120
20
98.424965
11
71.366950
21
98.460243
0
LINE
8
Layer 1
10
71.366950
20
98.460243
11
71.167065
21
95.992933
0
LINE
8
Layer 1
10
71.167065
20
95.992933
11
71.018030
21
89.510157
0
LINE
8
Layer 1
10
71.018030
20
89.510157
11
70.877471
21
69.854364
0
LINE
8
Layer 1
10
70.877471
20
69.854364
11
70.955192
21
50.205185
0
LINE
8
Layer 1
10
70.955192
20
50.205185
11
71.079009
21
43.730677
0
LINE
8
Layer 1
10
71.079009
20
43.730677
11
71.261117
21
41.274943
0
LINE
8
Layer 1
10
71.261117
20
41.274943
11
141.816717
21
41.274943
0
LINE
8
Layer 1
10
141.816717
20
41.274943
11
212.372317
21
41.274943
0
LINE
8
Layer 1
10
212.372317
20
41.274943
11
212.554494
21
43.730676
0
LINE
8
Layer 1
10
212.554494
20
43.730676
11
212.678793
21
50.205182
0
LINE
8
Layer 1
10
212.678793
20
50.205182
11
212.760373
21
69.854355
0
LINE
8
Layer 1
10
212.760373
20
69.854355
11
212.630286
21
89.510147
0
LINE
8
Layer 1
10
212.630286
20
89.510147
11
212.490001
21
95.992927
0
LINE
8
Layer 1
10
212.490001
20
95.992927
11
212.301761
21
98.460243
0
LINE
8
Layer 1
10
212.301761
20
98.460243
11
206.657311
21
98.424965
0
LINE
8
Layer 1
10
206.657311
20
98.424965
11
203.537431
21
98.441501
0
LINE
8
Layer 1
10
203.537431
20
98.441501
11
201.489113
21
98.610173
0
LINE
8
Layer 1
10
201.489113
20
98.610173
11
200.366836
21
98.950823
0
LINE
8
Layer 1
10
200.366836
20
98.950823
11
200.107488
21
99.191841
0
LINE
8
Layer 1
10
200.107488
20
99.191841
11
200.025081
21
99.483295
0
LINE
8
Layer 1
10
200.025081
20
99.483295
11
200.466054
21
100.396106
0
LINE
8
Layer 1
10
200.466054
20
100.396106
11
201.542031
21
102.129125
0
LINE
8
Layer 1
10
201.542031
20
102.129125
11
204.029116
21
106.044963
0
LINE
8
Layer 1
10
204.029116
20
106.044963
11
204.611201
21
107.314965
0
LINE
8
Layer 1
10
204.611201
20
107.314965
11
205.316757
21
108.549685
0
LINE
8
Layer 1
10
205.316757
20
108.549685
11
205.815056
21
109.339026
0
LINE
8
Layer 1
10
205.815056
20
109.339026
11
206.022313
21
109.996075
0
LINE
8
Layer 1
10
206.022313
20
109.996075
11
206.225161
21
110.688403
0
LINE
8
Layer 1
10
206.225161
20
110.688403
11
206.692591
21
111.618855
0
LINE
8
Layer 1
10
206.692591
20
111.618855
11
207.230578
21
112.716876
0
LINE
8
Layer 1
10
207.230578
20
112.716876
11
207.609814
21
113.841355
0
LINE
8
Layer 1
10
207.609814
20
113.841355
11
207.914085
21
114.749759
0
LINE
8
Layer 1
10
207.914085
20
114.749759
11
208.350648
21
115.393575
0
LINE
8
Layer 1
10
208.350648
20
115.393575
11
208.703426
21
115.944791
0
LINE
8
Layer 1
10
208.703426
20
115.944791
11
208.844537
21
116.734135
0
LINE
8
Layer 1
10
208.844537
20
116.734135
11
209.034155
21
117.779241
0
LINE
8
Layer 1
10
209.034155
20
117.779241
11
209.514815
21
118.956635
0
LINE
8
Layer 1
10
209.514815
20
118.956635
11
210.030753
21
120.385386
0
LINE
8
Layer 1
10
210.030753
20
120.385386
11
210.361482
21
122.025805
0
LINE
8
Layer 1
10
210.361482
20
122.025805
11
210.665753
21
123.569208
0
LINE
8
Layer 1
10
210.665753
20
123.569208
11
211.102316
21
124.848025
0
LINE
8
Layer 1
10
211.102316
20
124.848025
11
211.503601
21
126.069519
0
LINE
8
Layer 1
10
211.503601
20
126.069519
11
211.666761
21
127.529135
0
LINE
8
Layer 1
10
211.666761
20
127.529135
11
211.847560
21
129.473823
0
LINE
8
Layer 1
10
211.847560
20
129.473823
11
212.266484
21
131.868305
0
LINE
8
Layer 1
10
212.266484
20
131.868305
11
212.755964
21
135.290252
0
LINE
8
Layer 1
10
212.755964
20
135.290252
11
212.901484
21
140.405535
0
LINE
8
Layer 1
10
212.901484
20
140.405535
11
212.755964
21
145.520817
0
LINE
8
Layer 1
10
212.755964
20
145.520817
11
212.266484
21
148.942765
0
LINE
8
Layer 1
10
212.266484
20
148.942765
11
211.847560
21
151.337245
0
LINE
8
Layer 1
10
211.847560
20
151.337245
11
211.666761
21
153.281935
0
LINE
8
Layer 1
10
211.666761
20
153.281935
11
211.503601
21
154.741554
0
LINE
8
Layer 1
10
211.503601
20
154.741554
11
211.102316
21
155.963045
0
LINE
8
Layer 1
10
211.102316
20
155.963045
11
210.665754
21
157.241864
0
LINE
8
Layer 1
10
210.665754
20
157.241864
11
210.361482
21
158.785265
0
LINE
8
Layer 1
10
210.361482
20
158.785265
11
210.030753
21
160.425682
0
LINE
8
Layer 1
10
210.030753
20
160.425682
11
209.514815
21
161.854435
0
LINE
8
Layer 1
10
209.514815
20
161.854435
11
209.034155
21
163.031830
0
LINE
8
Layer 1
10
209.034155
20
163.031830
11
208.844537
21
164.076935
0
LINE
8
Layer 1
10
208.844537
20
164.076935
11
208.703426
21
164.866276
0
LINE
8
Layer 1
10
208.703426
20
164.866276
11
208.350648
21
165.417495
0
LINE
8
Layer 1
10
208.350648
20
165.417495
11
207.914086
21
166.061315
0
LINE
8
Layer 1
10
207.914086
20
166.061315
11
207.609814
21
166.969715
0
LINE
8
Layer 1
10
207.609814
20
166.969715
11
207.230578
21
168.094195
0
LINE
8
Layer 1
10
207.230578
20
168.094195
11
206.692591
21
169.192215
0
LINE
8
Layer 1
10
206.692591
20
169.192215
11
206.225161
21
170.122669
0
LINE
8
Layer 1
10
206.225161
20
170.122669
11
206.022313
21
170.814995
0
LINE
8
Layer 1
10
206.022313
20
170.814995
11
205.815056
21
171.472044
0
LINE
8
Layer 1
10
205.815056
20
171.472044
11
205.316757
21
172.261385
0
LINE
8
Layer 1
10
205.316757
20
172.261385
11
204.611201
21
173.496105
0
LINE
8
Layer 1
10
204.611201
20
173.496105
11
204.519700
21
173.868727
0
LINE
8
Layer 1
10
204.519700
20
173.868727
11
204.064396
21
174.704369
0
LINE
8
Layer 1
10
204.064396
20
174.704369
11
200.977591
21
179.563885
0
LINE
8
Layer 1
10
200.977591
20
179.563885
11
199.046063
21
182.363647
0
LINE
8
Layer 1
10
199.046063
20
182.363647
11
196.875995
21
185.154311
0
LINE
8
Layer 1
10
196.875995
20
185.154311
11
194.506662
21
187.897017
0
LINE
8
Layer 1
10
194.506662
20
187.897017
11
191.977336
21
190.552905
0
LINE
8
Layer 1
10
191.977336
20
190.552905
11
189.327293
21
193.083116
0
LINE
8
Layer 1
10
189.327293
20
193.083116
11
186.595805
21
195.448789
0
LINE
8
Layer 1
10
186.595805
20
195.448789
11
183.822147
21
197.611066
0
LINE
8
Layer 1
10
183.822147
20
197.611066
11
181.045591
21
199.531085
0
LINE
8
Layer 1
10
181.045591
20
199.531085
11
176.097881
21
202.661988
0
LINE
8
Layer 1
10
176.097881
20
202.661988
11
175.271056
21
203.112882
0
LINE
8
Layer 1
10
175.271056
20
203.112882
11
174.907251
21
203.199975
0
LINE
8
Layer 1
10
174.907251
20
203.199975
11
173.672531
21
203.905531
0
LINE
8
Layer 1
10
173.672531
20
203.905531
11
172.883191
21
204.403830
0
LINE
8
Layer 1
10
172.883191
20
204.403830
11
172.226141
21
204.611087
0
LINE
8
Layer 1
10
172.226141
20
204.611087
11
171.533813
21
204.813934
0
LINE
8
Layer 1
10
171.533813
20
204.813934
11
170.603361
21
205.281365
0
LINE
8
Layer 1
10
170.603361
20
205.281365
11
169.505340
21
205.819352
0
LINE
8
Layer 1
10
169.505340
20
205.819352
11
168.380861
21
206.198588
0
LINE
8
Layer 1
10
168.380861
20
206.198588
11
167.472458
21
206.502859
0
LINE
8
Layer 1
10
167.472458
20
206.502859
11
166.828641
21
206.939422
0
LINE
8
Layer 1
10
166.828641
20
206.939422
11
166.277425
21
207.292200
0
LINE
8
Layer 1
10
166.277425
20
207.292200
11
165.488081
21
207.433311
0
LINE
8
Layer 1
10
165.488081
20
207.433311
11
164.442975
21
207.622929
0
LINE
8
Layer 1
10
164.442975
20
207.622929
11
163.265581
21
208.103589
0
LINE
8
Layer 1
10
163.265581
20
208.103589
11
161.836830
21
208.619527
0
LINE
8
Layer 1
10
161.836830
20
208.619527
11
160.196411
21
208.950256
0
LINE
8
Layer 1
10
160.196411
20
208.950256
11
158.653009
21
209.254527
0
LINE
8
Layer 1
10
158.653009
20
209.254527
11
157.374191
21
209.691090
0
LINE
8
Layer 1
10
157.374191
20
209.691090
11
156.130647
21
210.092375
0
LINE
8
Layer 1
10
156.130647
20
210.092375
11
154.622521
21
210.255535
0
LINE
8
Layer 1
10
154.622521
20
210.255535
11
152.761618
21
210.418695
0
LINE
8
Layer 1
10
152.761618
20
210.418695
11
150.636131
21
210.819980
0
LINE
8
Layer 1
10
150.636131
20
210.819980
11
147.726820
21
211.172207
0
LINE
8
Layer 1
10
147.726820
20
211.172207
11
143.395376
21
211.441751
0
LINE
8
Layer 1
10
143.395376
20
211.441751
11
139.156536
21
211.559160
0
LINE
8
Layer 1
10
139.156536
20
211.559160
11
136.525031
21
211.454980
0
LINE
8
Layer 1
10
136.525031
20
211.454980
11
136.525000
21
211.455000
 0 
ENDSEC
 0 
EOF