999
"DXF R12 Output" (www.mydxf.blogspot.com)
 0 
SECTION
 2 
HEADER
 9 
$ACADVER
 1 
AC1009
 9 
$EXTMIN
 10 
 0 
 20 
 0 
 9 
$EXTMAX
 10 
 8.5 
 20 
 11 
 0 
ENDSEC
 0 
SECTION
 2 
ENTITIES
0
LINE
8
Layer 1
10
1.805970
20
50.554000
11
0.000000
21
50.474617
0
LINE
8
Layer 1
10
0.000000
20
50.474617
11
30.000300
21
50.408464
0
LINE
8
Layer 1
10
30.000300
20
50.408464
11
60.000600
21
50.494462
0
LINE
8
Layer 1
10
60.000600
20
50.494462
11
31.799600
21
50.573846
0
LINE
8
Layer 1
10
31.799600
20
50.573846
11
1.805900
21
50.554000
0
LINE
8
Layer 1
10
1.805900
20
50.554000
11
1.805970
21
50.554000
0
LINE
8
Layer 1
10
0.000000
20
46.836200
11
0.000000
21
46.637741
0
LINE
8
Layer 1
10
0.000000
20
46.637741
11
28.975000
21
46.637741
0
LINE
8
Layer 1
10
28.975000
20
46.637741
11
57.950000
21
46.637741
0
LINE
8
Layer 1
10
57.950000
20
46.637741
11
57.950000
21
37.521871
0
LINE
8
Layer 1
10
57.950000
20
37.521871
11
57.950000
21
28.412621
0
LINE
8
Layer 1
10
57.950000
20
28.412621
11
50.097650
21
28.425852
0
LINE
8
Layer 1
10
50.097650
20
28.425852
11
41.947610
21
28.492004
0
LINE
8
Layer 1
10
41.947610
20
28.492004
11
41.630076
21
28.617695
0
LINE
8
Layer 1
10
41.630076
20
28.617695
11
42.198991
21
29.616604
0
LINE
8
Layer 1
10
42.198991
20
29.616604
11
43.697353
21
32.331353
0
LINE
8
Layer 1
10
43.697353
20
32.331353
11
44.719421
21
34.783144
0
LINE
8
Layer 1
10
44.719421
20
34.783144
11
44.822578
21
35.271332
0
LINE
8
Layer 1
10
44.822578
20
35.271332
11
44.711152
21
35.592691
0
LINE
8
Layer 1
10
44.711152
20
35.592691
11
44.304517
21
35.833427
0
LINE
8
Layer 1
10
44.304517
20
35.833427
11
43.522051
21
36.079744
0
LINE
8
Layer 1
10
43.522051
20
36.079744
11
41.103336
21
36.637083
0
LINE
8
Layer 1
10
41.103336
20
36.637083
11
38.997191
21
36.807426
0
LINE
8
Layer 1
10
38.997191
20
36.807426
11
38.050376
21
36.786754
0
LINE
8
Layer 1
10
38.050376
20
36.786754
11
37.574901
21
36.661890
0
LINE
8
Layer 1
10
37.574901
20
36.661890
11
37.204445
21
36.516354
0
LINE
8
Layer 1
10
37.204445
20
36.516354
11
37.330136
21
36.900042
0
LINE
8
Layer 1
10
37.330136
20
36.900042
11
37.469057
21
37.938642
0
LINE
8
Layer 1
10
37.469057
20
37.938642
11
37.393808
21
38.722554
0
LINE
8
Layer 1
10
37.393808
20
38.722554
11
37.005987
21
39.248472
0
LINE
8
Layer 1
10
37.005987
20
39.248472
11
34.689811
21
40.707143
0
LINE
8
Layer 1
10
34.689811
20
40.707143
11
30.860387
21
42.820732
0
LINE
8
Layer 1
10
30.860387
20
42.820732
11
29.537327
21
43.627797
0
LINE
8
Layer 1
10
29.537327
20
43.627797
11
28.455727
21
44.190923
0
LINE
8
Layer 1
10
28.455727
20
44.190923
11
28.097262
21
44.136657
0
LINE
8
Layer 1
10
28.097262
20
44.136657
11
27.671817
21
43.885793
0
LINE
8
Layer 1
10
27.671817
20
43.885793
11
25.898400
21
42.511778
0
LINE
8
Layer 1
10
25.898400
20
42.511778
11
23.978001
21
40.792320
0
LINE
8
Layer 1
10
23.978001
20
40.792320
11
22.351570
21
39.146044
0
LINE
8
Layer 1
10
22.351570
20
39.146044
11
21.460057
21
37.991573
0
LINE
8
Layer 1
10
21.460057
20
37.991573
11
21.315348
21
37.431754
0
LINE
8
Layer 1
10
21.315348
20
37.431754
11
21.493133
21
36.827283
0
LINE
8
Layer 1
10
21.493133
20
36.827283
11
22.148047
21
35.952410
0
LINE
8
Layer 1
10
22.148047
20
35.952410
11
23.160183
21
34.968383
0
LINE
8
Layer 1
10
23.160183
20
34.968383
11
23.748944
21
34.478852
0
LINE
8
Layer 1
10
23.748944
20
34.478852
11
23.259413
21
34.214240
0
LINE
8
Layer 1
10
23.259413
20
34.214240
11
21.295498
21
32.906067
0
LINE
8
Layer 1
10
21.295498
20
32.906067
11
19.316703
21
31.111670
0
LINE
8
Layer 1
10
19.316703
20
31.111670
11
17.279193
21
28.750010
0
LINE
8
Layer 1
10
17.279193
20
28.750010
11
15.373993
21
25.898820
0
LINE
8
Layer 1
10
15.373993
20
25.898820
11
15.155688
21
25.534979
0
LINE
8
Layer 1
10
15.155688
20
25.534979
11
14.791847
21
24.542686
0
LINE
8
Layer 1
10
14.791847
20
24.542686
11
14.090626
21
21.962726
0
LINE
8
Layer 1
10
14.090626
20
21.962726
11
13.405944
21
19.278573
0
LINE
8
Layer 1
10
13.405944
20
19.278573
11
13.381757
21
18.814675
0
LINE
8
Layer 1
10
13.381757
20
18.814675
11
13.515096
21
18.628616
0
LINE
8
Layer 1
10
13.515096
20
18.628616
11
14.929528
21
18.495793
0
LINE
8
Layer 1
10
14.929528
20
18.495793
11
17.795189
21
18.439253
0
LINE
8
Layer 1
10
17.795189
20
18.439253
11
22.769886
21
18.582309
0
LINE
8
Layer 1
10
22.769886
20
18.582309
11
23.260245
21
18.715441
0
LINE
8
Layer 1
10
23.260245
20
18.715441
11
23.576951
21
18.992457
0
LINE
8
Layer 1
10
23.576951
20
18.992457
11
23.742334
21
19.422450
0
LINE
8
Layer 1
10
23.742334
20
19.422450
11
23.649720
21
20.408127
0
LINE
8
Layer 1
10
23.649720
20
20.408127
11
23.590182
21
22.948397
0
LINE
8
Layer 1
10
23.590182
20
22.948397
11
23.861409
21
23.213009
0
LINE
8
Layer 1
10
23.861409
20
23.213009
11
24.317864
21
23.451159
0
LINE
8
Layer 1
10
24.317864
20
23.451159
11
24.556015
21
23.537985
0
LINE
8
Layer 1
10
24.556015
20
23.537985
11
24.675090
21
22.895475
0
LINE
8
Layer 1
10
24.675090
20
22.895475
11
25.296927
21
20.606585
0
LINE
8
Layer 1
10
25.296927
20
20.606585
11
26.679527
21
17.993545
0
LINE
8
Layer 1
10
26.679527
20
17.993545
11
27.698283
21
16.626559
0
LINE
8
Layer 1
10
27.698283
20
16.626559
11
28.801383
21
15.392910
0
LINE
8
Layer 1
10
28.801383
20
15.392910
11
29.782925
21
14.500360
0
LINE
8
Layer 1
10
29.782925
20
14.500360
11
30.437007
21
14.156675
0
LINE
8
Layer 1
10
30.437007
20
14.156675
11
30.948038
21
14.327845
0
LINE
8
Layer 1
10
30.948038
20
14.327845
11
31.885757
21
14.990202
0
LINE
8
Layer 1
10
31.885757
20
14.990202
11
34.238318
21
16.969828
0
LINE
8
Layer 1
10
34.238318
20
16.969828
11
36.695077
21
19.316602
0
LINE
8
Layer 1
10
36.695077
20
19.316602
11
37.364566
21
20.134313
0
LINE
8
Layer 1
10
37.364566
20
20.134313
11
37.674968
21
20.881944
0
LINE
8
Layer 1
10
37.674968
20
20.881944
11
37.639308
21
21.620894
0
LINE
8
Layer 1
10
37.639308
20
21.620894
11
37.270607
21
22.412562
0
LINE
8
Layer 1
10
37.270607
20
22.412562
11
36.406486
21
23.358547
0
LINE
8
Layer 1
10
36.406486
20
23.358547
11
35.458017
21
24.026692
0
LINE
8
Layer 1
10
35.458017
20
24.026692
11
35.399306
21
24.113517
0
LINE
8
Layer 1
10
35.399306
20
24.113517
11
35.821858
21
24.304534
0
LINE
8
Layer 1
10
35.821858
20
24.304534
11
38.145480
21
25.545727
0
LINE
8
Layer 1
10
38.145480
20
25.545727
11
40.280568
21
27.347563
0
LINE
8
Layer 1
10
40.280568
20
27.347563
11
41.100864
21
28.174474
0
LINE
8
Layer 1
10
41.100864
20
28.174474
11
41.305938
21
28.062015
0
LINE
8
Layer 1
10
41.305938
20
28.062015
11
42.753860
21
27.963612
0
LINE
8
Layer 1
10
42.753860
20
27.963612
11
49.733818
21
27.929709
0
LINE
8
Layer 1
10
49.733818
20
27.929709
11
57.950008
21
27.909863
0
LINE
8
Layer 1
10
57.950008
20
27.909863
11
57.950008
21
18.588923
0
LINE
8
Layer 1
10
57.950008
20
18.588923
11
57.950008
21
9.261363
0
LINE
8
Layer 1
10
57.950008
20
9.261363
11
28.975008
21
9.261363
0
LINE
8
Layer 1
10
28.975008
20
9.261363
11
0.000008
21
9.261363
0
LINE
8
Layer 1
10
0.000008
20
9.261363
11
0.000008
21
9.029828
0
LINE
8
Layer 1
10
0.000008
20
9.029828
11
0.000008
21
8.798293
0
LINE
8
Layer 1
10
0.000008
20
8.798293
11
29.173408
21
8.798293
0
LINE
8
Layer 1
10
29.173408
20
8.798293
11
58.346808
21
8.798293
0
LINE
8
Layer 1
10
58.346808
20
8.798293
11
58.353423
21
9.009982
0
LINE
8
Layer 1
10
58.353423
20
9.009982
11
58.366654
21
28.128182
0
LINE
8
Layer 1
10
58.366654
20
28.128182
11
58.379884
21
47.034682
0
LINE
8
Layer 1
10
58.379884
20
47.034682
11
29.193184
21
47.034682
0
LINE
8
Layer 1
10
29.193184
20
47.034682
11
-0.000116
21
47.034682
0
LINE
8
Layer 1
10
-0.000116
20
47.034682
11
-0.000116
21
46.836223
0
LINE
8
Layer 1
10
-0.000116
20
46.836223
11
0.000000
21
46.836200
0
LINE
8
Layer 1
10
28.644200
20
43.528550
11
28.809582
21
43.396244
0
LINE
8
Layer 1
10
28.809582
20
43.396244
11
28.637584
21
43.396244
0
LINE
8
Layer 1
10
28.637584
20
43.396244
11
28.212862
21
43.223936
0
LINE
8
Layer 1
10
28.212862
20
43.223936
11
27.621311
21
42.742157
0
LINE
8
Layer 1
10
27.621311
20
42.742157
11
26.163464
21
41.061044
0
LINE
8
Layer 1
10
26.163464
20
41.061044
11
25.321668
21
39.833906
0
LINE
8
Layer 1
10
25.321668
20
39.833906
11
24.668404
21
38.606774
0
LINE
8
Layer 1
10
24.668404
20
38.606774
11
24.007702
21
36.780130
0
LINE
8
Layer 1
10
24.007702
20
36.780130
11
23.908369
21
36.034567
0
LINE
8
Layer 1
10
23.908369
20
36.034567
11
23.967183
21
35.424824
0
LINE
8
Layer 1
10
23.967183
20
35.424824
11
24.053182
21
35.014676
0
LINE
8
Layer 1
10
24.053182
20
35.014676
11
23.490882
21
35.431439
0
LINE
8
Layer 1
10
23.490882
20
35.431439
11
22.582105
21
36.304659
0
LINE
8
Layer 1
10
22.582105
20
36.304659
11
22.015672
21
37.098489
0
LINE
8
Layer 1
10
22.015672
20
37.098489
11
21.926365
21
37.569001
0
LINE
8
Layer 1
10
21.926365
20
37.569001
11
22.154593
21
38.064321
0
LINE
8
Layer 1
10
22.154593
20
38.064321
11
23.363535
21
39.413840
0
LINE
8
Layer 1
10
23.363535
20
39.413840
11
25.336543
21
41.319041
0
LINE
8
Layer 1
10
25.336543
20
41.319041
11
28.042193
21
43.475621
0
LINE
8
Layer 1
10
28.042193
20
43.475621
11
28.392803
21
43.648446
0
LINE
8
Layer 1
10
28.392803
20
43.648446
11
28.644184
21
43.528543
0
LINE
8
Layer 1
10
28.644184
20
43.528543
11
28.644200
21
43.528550
0
LINE
8
Layer 1
10
29.404958
20
42.622255
11
30.602635
21
41.773224
0
LINE
8
Layer 1
10
30.602635
20
41.773224
11
31.896442
21
40.439210
0
LINE
8
Layer 1
10
31.896442
20
40.439210
11
33.082337
21
38.862083
0
LINE
8
Layer 1
10
33.082337
20
38.862083
11
33.956278
21
37.283715
0
LINE
8
Layer 1
10
33.956278
20
37.283715
11
34.375522
21
35.985465
0
LINE
8
Layer 1
10
34.375522
20
35.985465
11
34.432579
21
34.597905
0
LINE
8
Layer 1
10
34.432579
20
34.597905
11
34.379657
21
33.393925
0
LINE
8
Layer 1
10
34.379657
20
33.393925
11
34.485501
21
33.031738
0
LINE
8
Layer 1
10
34.485501
20
33.031738
11
34.750113
21
32.877932
0
LINE
8
Layer 1
10
34.750113
20
32.877932
11
35.056794
21
32.998247
0
LINE
8
Layer 1
10
35.056794
20
32.998247
11
35.437277
21
33.354232
0
LINE
8
Layer 1
10
35.437277
20
33.354232
11
36.397323
21
34.743442
0
LINE
8
Layer 1
10
36.397323
20
34.743442
11
37.005103
21
35.632372
0
LINE
8
Layer 1
10
37.005103
20
35.632372
11
37.607923
21
36.099572
0
LINE
8
Layer 1
10
37.607923
20
36.099572
11
38.034609
21
36.258339
0
LINE
8
Layer 1
10
38.034609
20
36.258339
11
38.997133
21
36.278185
0
LINE
8
Layer 1
10
38.997133
20
36.278185
11
40.915563
21
36.126033
0
LINE
8
Layer 1
10
40.915563
20
36.126033
11
43.879213
21
35.391736
0
LINE
8
Layer 1
10
43.879213
20
35.391736
11
44.213285
21
35.170951
0
LINE
8
Layer 1
10
44.213285
20
35.170951
11
43.951981
21
34.339906
0
LINE
8
Layer 1
10
43.951981
20
34.339906
11
43.232362
21
32.630681
0
LINE
8
Layer 1
10
43.232362
20
32.630681
11
42.377542
21
30.995878
0
LINE
8
Layer 1
10
42.377542
20
30.995878
11
41.438377
21
29.524805
0
LINE
8
Layer 1
10
41.438377
20
29.524805
11
40.465721
21
28.306766
0
LINE
8
Layer 1
10
40.465721
20
28.306766
11
39.327272
21
27.167904
0
LINE
8
Layer 1
10
39.327272
20
27.167904
11
38.175177
21
26.231220
0
LINE
8
Layer 1
10
38.175177
20
26.231220
11
36.966024
21
25.465706
0
LINE
8
Layer 1
10
36.966024
20
25.465706
11
35.656401
21
24.840356
0
LINE
8
Layer 1
10
35.656401
20
24.840356
11
34.624417
21
24.366536
0
LINE
8
Layer 1
10
34.624417
20
24.366536
11
34.465651
21
24.006829
0
LINE
8
Layer 1
10
34.465651
20
24.006829
11
34.651706
21
23.415587
0
LINE
8
Layer 1
10
34.651706
20
23.415587
11
35.457944
21
22.392699
0
LINE
8
Layer 1
10
35.457944
20
22.392699
11
36.315450
21
21.253217
0
LINE
8
Layer 1
10
36.315450
20
21.253217
11
36.622234
21
20.401499
0
LINE
8
Layer 1
10
36.622234
20
20.401499
11
36.661926
21
20.077350
0
LINE
8
Layer 1
10
36.661926
20
20.077350
11
35.577016
21
19.012290
0
LINE
8
Layer 1
10
35.577016
20
19.012290
11
31.839376
21
15.658340
0
LINE
8
Layer 1
10
31.839376
20
15.658340
11
30.641179
21
14.761141
0
LINE
8
Layer 1
10
30.641179
20
14.761141
11
30.418842
21
14.742019
0
LINE
8
Layer 1
10
30.418842
20
14.742019
11
30.192166
21
14.890966
0
LINE
8
Layer 1
10
30.192166
20
14.890966
11
29.206488
21
15.777415
0
LINE
8
Layer 1
10
29.206488
20
15.777415
11
27.792470
21
17.404675
0
LINE
8
Layer 1
10
27.792470
20
17.404675
11
26.646371
21
19.145427
0
LINE
8
Layer 1
10
26.646371
20
19.145427
11
25.797961
21
20.946956
0
LINE
8
Layer 1
10
25.797961
20
20.946956
11
25.277008
21
22.756545
0
LINE
8
Layer 1
10
25.277008
20
22.756545
11
25.023146
21
23.958872
0
LINE
8
Layer 1
10
25.023146
20
23.958872
11
24.833784
21
24.337595
0
LINE
8
Layer 1
10
24.833784
20
24.337595
11
24.485344
21
24.600656
0
LINE
8
Layer 1
10
24.485344
20
24.600656
11
24.105275
21
24.621226
0
LINE
8
Layer 1
10
24.105275
20
24.621226
11
23.723965
21
24.407366
0
LINE
8
Layer 1
10
23.723965
20
24.407366
11
23.371804
21
23.967139
0
LINE
8
Layer 1
10
23.371804
20
23.967139
11
23.206422
21
23.682682
0
LINE
8
Layer 1
10
23.206422
20
23.682682
11
22.670584
21
23.682682
0
LINE
8
Layer 1
10
22.670584
20
23.682682
11
20.447847
21
23.924140
0
LINE
8
Layer 1
10
20.447847
20
23.924140
11
18.106034
21
24.542670
0
LINE
8
Layer 1
10
18.106034
20
24.542670
11
15.936214
21
25.581270
0
LINE
8
Layer 1
10
15.936214
20
25.581270
11
16.026347
21
25.932707
0
LINE
8
Layer 1
10
16.026347
20
25.932707
11
16.776356
21
27.122630
0
LINE
8
Layer 1
10
16.776356
20
27.122630
11
18.992477
21
29.938264
0
LINE
8
Layer 1
10
18.992477
20
29.938264
11
21.585676
21
32.441320
0
LINE
8
Layer 1
10
21.585676
20
32.441320
11
23.867956
21
33.936380
0
LINE
8
Layer 1
10
23.867956
20
33.936380
11
24.610522
21
34.497853
0
LINE
8
Layer 1
10
24.610522
20
34.497853
11
24.667992
21
34.835956
0
LINE
8
Layer 1
10
24.667992
20
34.835956
11
24.569177
21
35.312360
0
LINE
8
Layer 1
10
24.569177
20
35.312360
11
24.482868
21
35.963140
0
LINE
8
Layer 1
10
24.482868
20
35.963140
11
24.573311
21
36.723072
0
LINE
8
Layer 1
10
24.573311
20
36.723072
11
25.296859
21
38.620010
0
LINE
8
Layer 1
10
25.296859
20
38.620010
11
26.671187
21
40.834476
0
LINE
8
Layer 1
10
26.671187
20
40.834476
11
28.174509
21
42.503190
0
LINE
8
Layer 1
10
28.174509
20
42.503190
11
28.750038
21
42.798397
0
LINE
8
Layer 1
10
28.750038
20
42.798397
11
29.404949
21
42.622265
0
LINE
8
Layer 1
10
29.404949
20
42.622265
11
29.404958
21
42.622255
0
LINE
8
Layer 1
10
33.929818
20
40.505365
11
35.897040
21
39.331152
0
LINE
8
Layer 1
10
35.897040
20
39.331152
11
36.767778
21
38.633235
0
LINE
8
Layer 1
10
36.767778
20
38.633235
11
36.908353
21
37.892529
0
LINE
8
Layer 1
10
36.908353
20
37.892529
11
36.691702
21
36.790876
0
LINE
8
Layer 1
10
36.691702
20
36.790876
11
36.172402
21
35.505650
0
LINE
8
Layer 1
10
36.172402
20
35.505650
11
35.405028
21
34.214225
0
LINE
8
Layer 1
10
35.405028
20
34.214225
11
34.955188
21
33.618849
0
LINE
8
Layer 1
10
34.955188
20
33.618849
11
34.994880
21
33.936383
0
LINE
8
Layer 1
10
34.994880
20
33.936383
11
35.057002
21
34.804743
0
LINE
8
Layer 1
10
35.057002
20
34.804743
11
34.956015
21
35.807683
0
LINE
8
Layer 1
10
34.956015
20
35.807683
11
34.326736
21
37.832793
0
LINE
8
Layer 1
10
34.326736
20
37.832793
11
33.308810
21
39.515558
0
LINE
8
Layer 1
10
33.308810
20
39.515558
11
31.938616
21
41.252893
0
LINE
8
Layer 1
10
31.938616
20
41.252893
11
31.462315
21
41.788731
0
LINE
8
Layer 1
10
31.462315
20
41.788731
11
31.481333
21
41.830077
0
LINE
8
Layer 1
10
31.481333
20
41.830077
11
31.817886
21
41.672963
0
LINE
8
Layer 1
10
31.817886
20
41.672963
11
33.929815
21
40.505361
0
LINE
8
Layer 1
10
33.929815
20
40.505361
11
33.929818
21
40.505365
0
LINE
8
Layer 1
10
18.231718
20
23.934065
11
20.165863
21
23.425514
0
LINE
8
Layer 1
10
20.165863
20
23.425514
11
22.333198
21
23.179922
0
LINE
8
Layer 1
10
22.333198
20
23.179922
11
23.060880
21
23.133615
0
LINE
8
Layer 1
10
23.060880
20
23.133615
11
23.007958
21
22.697006
0
LINE
8
Layer 1
10
23.007958
20
22.697006
11
23.127033
21
20.249346
0
LINE
8
Layer 1
10
23.127033
20
20.249346
11
23.189051
21
19.465434
0
LINE
8
Layer 1
10
23.189051
20
19.465434
11
22.988112
21
19.197516
0
LINE
8
Layer 1
10
22.988112
20
19.197516
11
20.491666
21
18.961846
0
LINE
8
Layer 1
10
20.491666
20
18.961846
11
16.075132
21
18.979211
0
LINE
8
Layer 1
10
16.075132
20
18.979211
11
13.964852
21
19.091671
0
LINE
8
Layer 1
10
13.964852
20
19.091671
11
15.347452
21
24.337591
0
LINE
8
Layer 1
10
15.347452
20
24.337591
11
15.545911
21
25.032196
0
LINE
8
Layer 1
10
15.545911
20
25.032196
11
16.425745
21
24.674970
0
LINE
8
Layer 1
10
16.425745
20
24.674970
11
18.231715
21
23.934058
0
LINE
8
Layer 1
10
18.231715
20
23.934058
11
18.231718
21
23.934065
0
LINE
8
Layer 1
10
36.351018
20
22.644085
11
36.847165
21
21.999920
0
LINE
8
Layer 1
10
36.847165
20
21.999920
11
37.085315
21
21.360715
0
LINE
8
Layer 1
10
37.085315
20
21.360715
11
37.125007
21
21.069642
0
LINE
8
Layer 1
10
37.125007
20
21.069642
11
36.979471
21
21.334254
0
LINE
8
Layer 1
10
36.979471
20
21.334254
11
36.053330
21
22.591164
0
LINE
8
Layer 1
10
36.053330
20
22.591164
11
35.457954
21
23.318846
0
LINE
8
Layer 1
10
35.457954
20
23.318846
11
35.475629
21
23.359468
0
LINE
8
Layer 1
10
35.475629
20
23.359468
11
35.708508
21
23.202251
0
LINE
8
Layer 1
10
35.708508
20
23.202251
11
36.351018
21
22.644086
0
LINE
8
Layer 1
10
36.351018
20
22.644086
11
36.351018
21
22.644085
0
LINE
8
Layer 1
10
28.829400
20
34.002500
11
27.709348
21
33.686000
0
LINE
8
Layer 1
10
27.709348
20
33.686000
11
26.730699
21
33.147474
0
LINE
8
Layer 1
10
26.730699
20
33.147474
11
25.923220
21
32.408009
0
LINE
8
Layer 1
10
25.923220
20
32.408009
11
25.316680
21
31.488690
0
LINE
8
Layer 1
10
25.316680
20
31.488690
11
24.884206
21
30.374012
0
LINE
8
Layer 1
10
24.884206
20
30.374012
11
24.774226
21
29.140260
0
LINE
8
Layer 1
10
24.774226
20
29.140260
11
24.926378
21
27.784130
0
LINE
8
Layer 1
10
24.926378
20
27.784130
11
25.291873
21
26.895200
0
LINE
8
Layer 1
10
25.291873
20
26.895200
11
25.845903
21
26.031080
0
LINE
8
Layer 1
10
25.845903
20
26.031080
11
26.586609
21
25.202720
0
LINE
8
Layer 1
10
26.586609
20
25.202720
11
27.405458
21
24.613754
0
LINE
8
Layer 1
10
27.405458
20
24.613754
11
28.326017
21
24.250535
0
LINE
8
Layer 1
10
28.326017
20
24.250535
11
29.371853
21
24.099420
0
LINE
8
Layer 1
10
29.371853
20
24.099420
11
31.020300
21
24.266043
0
LINE
8
Layer 1
10
31.020300
20
24.266043
11
32.443000
21
24.891603
0
LINE
8
Layer 1
10
32.443000
20
24.891603
11
33.565532
21
25.926484
0
LINE
8
Layer 1
10
33.565532
20
25.926484
11
34.313473
21
27.321070
0
LINE
8
Layer 1
10
34.313473
20
27.321070
11
34.559337
21
28.317951
0
LINE
8
Layer 1
10
34.559337
20
28.317951
11
34.618293
21
29.300181
0
LINE
8
Layer 1
10
34.618293
20
29.300181
11
34.499411
21
30.246904
0
LINE
8
Layer 1
10
34.499411
20
30.246904
11
34.211762
21
31.137269
0
LINE
8
Layer 1
10
34.211762
20
31.137269
11
33.764416
21
31.950420
0
LINE
8
Layer 1
10
33.764416
20
31.950420
11
33.166442
21
32.665505
0
LINE
8
Layer 1
10
33.166442
20
32.665505
11
32.426911
21
33.261669
0
LINE
8
Layer 1
10
32.426911
20
33.261669
11
31.554893
21
33.718060
0
LINE
8
Layer 1
10
31.554893
20
33.718060
11
30.219432
21
34.033940
0
LINE
8
Layer 1
10
30.219432
20
34.033940
11
28.829393
21
34.002517
0
LINE
8
Layer 1
10
28.829393
20
34.002517
11
28.829400
21
34.002500
0
LINE
8
Layer 1
10
30.727990
20
33.407124
11
31.693825
21
33.026745
0
LINE
8
Layer 1
10
31.693825
20
33.026745
11
32.560430
21
32.467753
0
LINE
8
Layer 1
10
32.560430
20
32.467753
11
33.288940
21
31.620996
0
LINE
8
Layer 1
10
33.288940
20
31.620996
11
33.764410
21
30.694853
0
LINE
8
Layer 1
10
33.764410
20
30.694853
11
33.532875
21
31.045463
0
LINE
8
Layer 1
10
33.532875
20
31.045463
11
33.059262
21
31.749165
0
LINE
8
Layer 1
10
33.059262
20
31.749165
11
32.457891
21
32.368522
0
LINE
8
Layer 1
10
32.457891
20
32.368522
11
31.767215
21
32.868804
0
LINE
8
Layer 1
10
31.767215
20
32.868804
11
31.025685
21
33.215283
0
LINE
8
Layer 1
10
31.025685
20
33.215283
11
29.844856
21
33.396377
0
LINE
8
Layer 1
10
29.844856
20
33.396377
11
28.624335
21
33.314512
0
LINE
8
Layer 1
10
28.624335
20
33.314512
11
27.777889
21
33.005764
0
LINE
8
Layer 1
10
27.777889
20
33.005764
11
26.997802
21
32.511581
0
LINE
8
Layer 1
10
26.997802
20
32.511581
11
26.333070
21
31.869793
0
LINE
8
Layer 1
10
26.333070
20
31.869793
11
25.832685
21
31.118232
0
LINE
8
Layer 1
10
25.832685
20
31.118232
11
25.632573
21
30.770930
0
LINE
8
Layer 1
10
25.632573
20
30.770930
11
25.700379
21
30.999157
0
LINE
8
Layer 1
10
25.700379
20
30.999157
11
26.289140
21
31.964990
0
LINE
8
Layer 1
10
26.289140
20
31.964990
11
27.096209
21
32.732367
0
LINE
8
Layer 1
10
27.096209
20
32.732367
11
28.511879
21
33.393896
0
LINE
8
Layer 1
10
28.511879
20
33.393896
11
29.634825
21
33.531991
0
LINE
8
Layer 1
10
29.634825
20
33.531991
11
30.727999
21
33.407127
0
LINE
8
Layer 1
10
30.727999
20
33.407127
11
30.727990
21
33.407124
0
LINE
8
Layer 1
10
30.661837
20
32.719134
11
31.466937
21
32.388576
0
LINE
8
Layer 1
10
31.466937
20
32.388576
11
32.180871
21
31.865761
0
LINE
8
Layer 1
10
32.180871
20
31.865761
11
32.767048
21
31.184180
0
LINE
8
Layer 1
10
32.767048
20
31.184180
11
33.188877
21
30.377324
0
LINE
8
Layer 1
10
33.188877
20
30.377324
11
33.388990
21
29.324667
0
LINE
8
Layer 1
10
33.388990
20
29.324667
11
33.341029
21
28.227354
0
LINE
8
Layer 1
10
33.341029
20
28.227354
11
33.079725
21
27.463394
0
LINE
8
Layer 1
10
33.079725
20
27.463394
11
32.634846
21
26.739743
0
LINE
8
Layer 1
10
32.634846
20
26.739743
11
32.053527
21
26.116560
0
LINE
8
Layer 1
10
32.053527
20
26.116560
11
31.382899
21
25.654004
0
LINE
8
Layer 1
10
31.382899
20
25.654004
11
30.568391
21
25.343912
0
LINE
8
Layer 1
10
30.568391
20
25.343912
11
29.649689
21
25.257087
0
LINE
8
Layer 1
10
29.649689
20
25.257087
11
28.219132
21
25.529140
0
LINE
8
Layer 1
10
28.219132
20
25.529140
11
27.016799
21
26.361837
0
LINE
8
Layer 1
10
27.016799
20
26.361837
11
26.176657
21
27.568301
0
LINE
8
Layer 1
10
26.176657
20
27.568301
11
25.974892
21
28.253088
0
LINE
8
Layer 1
10
25.974892
20
28.253088
11
25.912049
21
29.007957
0
LINE
8
Layer 1
10
25.912049
20
29.007957
11
26.173353
21
30.471587
0
LINE
8
Layer 1
10
26.173353
20
30.471587
11
27.010189
21
31.726837
0
LINE
8
Layer 1
10
27.010189
20
31.726837
11
28.002482
21
32.480980
0
LINE
8
Layer 1
10
28.002482
20
32.480980
11
28.908777
21
32.805129
0
LINE
8
Layer 1
10
28.908777
20
32.805129
11
29.782821
21
32.839032
0
LINE
8
Layer 1
10
29.782821
20
32.839032
11
30.661827
21
32.719130
0
LINE
8
Layer 1
10
30.661827
20
32.719130
11
30.661837
21
32.719134
0
LINE
8
Layer 1
10
33.599027
20
27.043214
11
32.699348
21
25.786304
0
LINE
8
Layer 1
10
32.699348
20
25.786304
11
31.455678
21
25.005700
0
LINE
8
Layer 1
10
31.455678
20
25.005700
11
31.819519
21
25.257081
0
LINE
8
Layer 1
10
31.819519
20
25.257081
11
32.724162
21
25.983937
0
LINE
8
Layer 1
10
32.724162
20
25.983937
11
33.440269
21
26.904291
0
LINE
8
Layer 1
10
33.440269
20
26.904291
11
33.715630
21
27.340900
0
LINE
8
Layer 1
10
33.715630
20
27.340900
11
33.599036
21
27.043212
0
LINE
8
Layer 1
10
33.599036
20
27.043212
11
33.599027
21
27.043214
0
LINE
8
Layer 1
10
0.000000
20
7.012120
11
0.000000
21
6.813661
0
LINE
8
Layer 1
10
0.000000
20
6.813661
11
30.000300
21
6.813661
0
LINE
8
Layer 1
10
30.000300
20
6.813661
11
60.000600
21
6.813661
0
LINE
8
Layer 1
10
60.000600
20
6.813661
11
60.000600
21
7.012120
0
LINE
8
Layer 1
10
60.000600
20
7.012120
11
60.000600
21
7.210579
0
LINE
8
Layer 1
10
60.000600
20
7.210579
11
30.000300
21
7.210579
0
LINE
8
Layer 1
10
30.000300
20
7.210579
11
0.000000
21
7.210579
0
LINE
8
Layer 1
10
0.000000
20
7.210579
11
0.000000
21
7.012120
0
LINE
8
Layer 1
10
0.000000
20
7.012120
11
0.000000
21
7.012120
0
LINE
8
Layer 1
10
0.039692
20
6.171970
11
0.000000
21
6.072741
0
LINE
8
Layer 1
10
0.000000
20
6.072741
11
30.000300
21
6.019818
0
LINE
8
Layer 1
10
30.000300
20
6.019818
11
60.000600
21
6.079356
0
LINE
8
Layer 1
10
60.000600
20
6.079356
11
59.855064
21
6.171970
0
LINE
8
Layer 1
10
59.855064
20
6.171970
11
0.039564
21
6.171970
0
LINE
8
Layer 1
10
0.039564
20
6.171970
11
0.039692
21
6.171970
 0 
ENDSEC
 0 
EOF