<?xml version="1.0" standalone="no"?>
<!DOCTYPE svg PUBLIC "-//W3C//DTD SVG 20010904//EN"
 "http://www.w3.org/TR/2001/REC-SVG-20010904/DTD/svg10.dtd">
<svg version="1.0" xmlns="http://www.w3.org/2000/svg"
 width="170.078740pt" height="170.078740pt" viewBox="0 0 170.078740 170.078740"
 preserveAspectRatio="xMidYMid meet">
<metadata>
Created by potrace 1.16, written by Peter Selinger 2001-2019
</metadata>
<g transform="translate(0.000000,170.078740) scale(0.018752,-0.018752)"
fill="#000000" stroke="none">
<path d="M273 7642 c-171 -1 -273 -6 -273 -12 0 -7 1568 -10 4535 -10 3709 0
4535 2 4535 13 0 11 -776 13 -4263 12 -2344 0 -4385 -1 -4534 -3z"/>
<path d="M0 7080 l0 -30 4380 0 4380 0 0 -1378 0 -1377 -1187 2 c-654 1 -1208
5 -1232 10 -24 4 -46 13 -48 19 -2 5 37 74 86 151 154 244 323 590 381 781 37
121 20 140 -181 196 -280 79 -467 109 -684 110 -144 1 -166 -2 -215 -22 -30
-12 -55 -22 -56 -22 0 0 8 26 19 58 14 41 20 85 21 157 1 113 -8 137 -70 198
-58 56 -566 352 -929 540 -38 20 -128 75 -200 122 -162 106 -180 108 -282 39
-313 -214 -863 -736 -939 -891 -31 -62 -29 -105 5 -176 31 -64 149 -195 252
-281 l89 -74 -74 -40 c-193 -104 -400 -267 -596 -469 -111 -113 -141 -148
-308 -357 -95 -119 -257 -362 -288 -431 -13 -30 -28 -55 -33 -55 -12 0 -25
-37 -55 -150 -13 -52 -61 -228 -106 -390 -120 -435 -127 -479 -87 -504 53 -34
1206 -40 1399 -7 69 12 88 21 122 62 31 36 32 66 11 214 -15 102 -20 328 -9
384 5 24 13 33 41 40 19 6 50 22 69 36 40 30 38 33 54 -84 12 -90 52 -234 94
-346 35 -92 145 -300 209 -395 183 -275 483 -580 568 -580 43 0 90 27 219 126
203 155 503 425 727 654 172 176 194 299 87 468 -54 84 -203 216 -274 244 -23
9 -19 12 55 42 253 103 459 244 674 460 l124 125 31 -17 c29 -16 130 -17 1274
-20 l1242 -3 0 -1409 0 -1410 -4380 0 -4380 0 0 -35 0 -35 4410 0 4410 0 1 32
c0 18 1 1319 2 2890 l2 2858 -4412 0 -4413 0 0 -30z m4330 -500 l25 -20 -26 0
c-65 0 -220 -146 -374 -353 -107 -145 -157 -226 -226 -371 -97 -203 -134 -373
-106 -481 8 -33 14 -61 13 -62 -1 -2 -39 27 -85 63 -96 78 -196 190 -223 252
-24 54 -19 87 21 146 52 76 275 304 481 492 73 67 353 290 409 326 53 33 58
34 91 8z m115 -137 c218 -106 557 -505 688 -807 65 -152 80 -236 72 -406 -3
-80 -7 -162 -8 -182 -1 -42 25 -78 56 -78 54 0 140 98 249 282 75 126 109 164
183 205 49 27 53 28 210 27 119 0 193 -6 290 -23 149 -26 363 -79 448 -111 66
-25 65 -11 11 -159 -128 -346 -331 -698 -527 -912 -231 -252 -450 -410 -727
-524 -176 -73 -180 -76 -180 -126 0 -58 25 -99 150 -244 120 -139 167 -220
176 -301 l6 -49 -164 -161 c-221 -217 -381 -361 -565 -507 -210 -166 -190
-157 -249 -116 -27 18 -94 78 -149 134 -310 313 -524 693 -594 1055 -38 195
-42 210 -67 239 -65 78 -155 55 -221 -56 l-25 -43 -81 0 c-195 1 -471 53 -690
130 -118 42 -309 133 -328 157 -13 14 7 50 127 233 180 272 471 595 727 804
88 72 240 171 345 226 125 64 139 93 106 208 -35 121 0 281 110 500 113 224
296 473 435 587 65 55 105 58 186 18z m684 -320 c250 -140 400 -239 429 -283
68 -101 -30 -419 -206 -668 -36 -50 -66 -91 -68 -90 -1 2 2 23 6 48 30 155
-12 403 -101 589 -66 140 -224 366 -361 517 -29 33 -61 69 -72 81 -20 24 39
-6 373 -194z m-2373 -2505 c201 -68 372 -99 620 -114 l110 -7 -8 -66 c-10 -77
-3 -223 18 -370 18 -120 14 -143 -21 -159 -74 -34 -584 -50 -1045 -33 -173 7
-317 14 -319 17 -10 10 141 584 209 793 16 52 30 99 30 105 0 6 60 -18 133
-54 74 -36 196 -87 273 -112z m2739 -195 c61 -62 102 -133 111 -194 l6 -44
-22 40 c-34 60 -57 91 -140 190 -41 50 -82 99 -90 110 -26 34 82 -47 135 -102z"/>
<path d="M4358 5140 c-238 -40 -431 -178 -531 -380 -66 -133 -81 -198 -82
-355 0 -109 4 -142 23 -205 32 -100 69 -170 139 -265 143 -192 308 -282 533
-292 350 -16 639 173 747 487 138 402 -40 814 -417 967 -121 48 -280 65 -412
43z m287 -90 c90 -23 207 -83 277 -142 71 -59 162 -193 182 -268 4 -14 -12 10
-35 53 -80 148 -227 276 -379 328 -88 30 -267 38 -363 15 -174 -41 -341 -172
-422 -332 -31 -62 -43 -72 -20 -18 41 98 126 204 211 262 49 34 166 88 214
100 107 27 234 28 335 2z m-10 -104 c169 -45 316 -181 382 -354 31 -81 42
-235 23 -325 -31 -154 -155 -316 -296 -389 -88 -45 -153 -60 -262 -60 -162 2
-282 52 -398 167 -115 113 -168 240 -167 400 1 167 49 286 166 411 55 59 86
82 150 114 45 22 107 44 137 49 67 12 197 6 265 -13z m444 -858 c-33 -66 -93
-149 -136 -190 -37 -36 -168 -118 -188 -118 -5 0 20 17 55 38 87 50 196 160
245 249 43 77 60 92 24 21z"/>
<path d="M0 1060 l0 -30 4535 0 4535 0 0 30 0 30 -4535 0 -4535 0 0 -30z"/>
<path d="M6 933 c-3 -4 -6 -10 -6 -15 0 -4 2041 -8 4535 -8 2649 0 4535 4
4535 9 0 5 -10 11 -22 14 -32 8 -9034 7 -9042 0z"/>
</g>
</svg>
