<?xml version="1.0" standalone="no"?>
<!DOCTYPE svg PUBLIC "-//W3C//DTD SVG 20010904//EN"
 "http://www.w3.org/TR/2001/REC-SVG-20010904/DTD/svg10.dtd">
<svg version="1.0" xmlns="http://www.w3.org/2000/svg"
 width="100" height="100" viewBox="0 0 100 100"
 preserveAspectRatio="xMidYMid meet">
<metadata>
Created by potrace 1.16, written by Peter Selinger 2001-2019
</metadata>
<g transform="translate(0.000000,400.000000) scale(0.100000,-0.100000)"
fill="#000000" stroke="none">
<path d="M0 3973 c0 -5 900 -8 2000 -9 1100 0 2000 3 2000 8 0 4 -900 8 -2000
8 -1100 0 -2000 -3 -2000 -7z"/>
<path d="M1345 2518 c-3 -7 -4 -256 -3 -553 l3 -540 660 0 660 0 3 553 2 552
-660 0 c-519 0 -662 -3 -665 -12z m1295 -543 l0 -525 -635 0 -635 0 0 525 0
525 635 0 635 0 0 -525z"/>
<path d="M1507 2219 c-4 -46 -7 -123 -7 -170 l0 -86 58 -17 c73 -20 171 -21
219 -1 20 8 38 13 41 10 3 -2 0 -44 -7 -93 -6 -49 -11 -95 -11 -103 0 -8 43
-39 95 -69 89 -52 95 -57 95 -87 0 -26 -4 -33 -19 -33 -45 0 -131 23 -190 50
-73 35 -71 34 -71 16 0 -17 99 -62 169 -77 84 -18 264 -7 333 20 61 24 107 55
96 66 -3 3 -29 -5 -57 -19 -53 -28 -157 -56 -204 -56 -26 0 -28 3 -25 32 3 29
12 37 96 86 104 61 100 52 81 187 -6 42 -9 79 -7 81 2 1 22 -3 43 -11 54 -19
158 -18 225 3 l55 18 -3 99 c-1 55 -5 130 -8 168 l-6 67 -82 0 c-46 0 -107 -7
-137 -16 -67 -20 -149 -71 -149 -93 0 -9 14 -108 30 -221 16 -112 26 -207 22
-211 -4 -4 -41 -27 -82 -52 l-75 -46 -3 270 c-2 209 -5 270 -15 266 -9 -3 -13
-69 -15 -269 l-2 -266 -84 50 -84 49 5 42 c3 23 18 122 33 220 l26 179 -31 24
c-66 50 -124 68 -236 72 l-106 4 -6 -83z m265 24 c88 -39 90 -42 73 -152 -8
-51 -16 -95 -18 -97 -2 -3 -31 -14 -63 -25 -63 -23 -123 -22 -203 2 l-42 12 6
136 c4 75 9 142 11 150 7 23 166 6 236 -26z m711 -60 c4 -54 7 -121 7 -149 0
-51 0 -51 -40 -63 -82 -24 -134 -25 -204 -1 -36 12 -66 27 -66 33 0 7 -6 52
-14 100 l-13 88 28 20 c60 43 142 66 240 68 l56 1 6 -97z"/>
<path d="M1611 2232 c-87 -47 -95 -178 -15 -241 59 -46 141 -35 195 26 29 34
31 40 27 94 -3 45 -10 65 -29 85 -52 56 -117 69 -178 36z m142 -33 c37 -28 53
-86 37 -133 -21 -66 -104 -95 -169 -61 -30 15 -61 69 -61 105 0 29 26 76 52
94 33 23 109 21 141 -5z"/>
<path d="M2274 2236 c-91 -41 -110 -159 -38 -231 43 -44 90 -53 149 -30 142
54 113 258 -38 271 -23 3 -56 -2 -73 -10z m142 -50 c29 -29 34 -41 34 -81 0
-40 -5 -52 -34 -81 -29 -29 -41 -34 -81 -34 -40 0 -52 5 -81 34 -28 28 -34 41
-34 78 1 78 40 117 119 118 36 0 49 -6 77 -34z"/>
</g>
</svg>
