<?xml version="1.0" standalone="no"?>
<!DOCTYPE svg PUBLIC "-//W3C//DTD SVG 20010904//EN"
 "http://www.w3.org/TR/2001/REC-SVG-20010904/DTD/svg10.dtd">
<svg version="1.0" xmlns="http://www.w3.org/2000/svg"
 width="800.000000pt" height="800.000000pt" viewBox="0 0 800.000000 800.000000"
 preserveAspectRatio="xMidYMid meet">
<metadata>
Created by potrace 1.16, written by Peter Selinger 2001-2019
</metadata>
<g transform="translate(0.000000,800.000000) scale(0.100000,-0.100000)"
fill="#000000" stroke="none">
<path d="M6470 6250 c-251 -54 -444 -163 -651 -370 -169 -169 -266 -315 -344
-519 -40 -106 -59 -215 -50 -287 6 -48 3 -60 -29 -126 -53 -108 -77 -212 -83
-363 -13 -314 77 -615 270 -905 225 -336 609 -660 901 -759 l51 -18 3 -347 2
-346 -1122 0 c-618 1 -1171 4 -1230 7 l-108 6 1 186 0 186 152 75 c425 209
827 573 989 894 100 199 132 408 93 627 -25 144 -136 447 -273 742 -23 49 -46
116 -53 150 -30 167 -149 453 -262 632 -255 402 -563 591 -790 486 -259 -120
-645 -495 -900 -875 -236 -352 -424 -748 -458 -968 -16 -102 -6 -321 20 -435
67 -294 213 -535 496 -818 255 -256 547 -459 788 -550 l47 -18 -2 -171 -3
-170 -180 -28 c-553 -85 -773 -109 -1270 -143 -126 -8 -363 -24 -525 -35 -162
-11 -343 -20 -402 -20 l-108 0 0 234 c0 129 -2 241 -5 248 -4 10 40 49 132
119 326 246 679 572 811 748 122 162 169 291 158 436 -17 230 -105 570 -195
755 -71 145 -290 409 -581 701 -231 231 -378 356 -478 406 -73 37 -74 37 -140
25 -108 -18 -200 -70 -300 -171 -137 -137 -329 -394 -472 -631 -119 -197 -278
-546 -325 -715 -21 -76 -31 -327 -16 -408 43 -232 190 -402 686 -797 99 -78
253 -197 342 -264 l162 -121 1 -282 0 -283 -610 0 -610 0 0 -30 0 -30 610 0
610 0 0 -250 c0 -244 0 -250 -20 -250 -36 0 -1103 -79 -1152 -86 -43 -5 -48
-8 -48 -31 l0 -26 88 7 c48 3 240 17 427 31 554 41 726 51 803 47 l73 -4 -3
-76 -3 -77 -693 1 -692 1 0 -29 0 -28 718 2 717 3 3 104 3 104 107 -7 c59 -3
226 -11 372 -16 146 -6 400 -17 565 -25 341 -17 632 -30 980 -45 132 -6 321
-14 420 -20 99 -5 275 -12 390 -15 116 -3 373 -10 572 -16 415 -13 329 -21
1013 92 553 92 623 111 644 171 22 63 -22 106 -135 132 -87 21 -387 32 -2034
74 l-250 7 -3 238 -2 237 1230 0 1230 0 -2 -228 -3 -227 -32 -3 c-41 -4 -62
-27 -42 -47 8 -8 28 -16 44 -18 l30 -4 5 -200 c4 -175 7 -204 23 -221 18 -20
16 -20 -480 -26 -852 -12 -1763 -43 -1898 -66 -106 -18 -204 -59 -251 -105
-40 -37 -44 -46 -44 -88 0 -41 5 -52 39 -86 23 -23 63 -48 97 -61 57 -21 468
-99 528 -100 70 0 6 -11 -189 -30 -702 -69 -881 -91 -962 -122 -32 -11 -72
-37 -94 -59 -34 -34 -39 -45 -39 -84 0 -81 75 -137 220 -166 82 -16 373 -16
535 0 326 33 1865 222 2200 271 77 11 383 54 680 95 1213 170 1095 150 1095
181 0 16 -6 24 -17 24 -17 0 -507 -68 -1347 -186 l-339 -48 -186 18 c-102 10
-276 26 -386 36 -110 11 -306 29 -435 40 -321 28 -530 54 -892 110 -291 46
-373 67 -424 112 -87 77 3 153 231 194 75 13 164 18 817 44 335 13 1619 29
2375 30 314 0 578 3 587 6 9 3 16 18 16 31 l0 26 -670 -5 c-662 -4 -670 -4
-652 15 15 17 17 40 13 223 l-3 204 523 2 c288 1 584 1 657 -1 l132 -4 0 32 0
31 -552 2 -553 3 305 38 c168 21 397 49 510 62 312 36 290 32 290 64 l0 27
-67 -8 c-259 -31 -979 -121 -1073 -133 -63 -8 -126 -16 -140 -18 l-25 -2 0
210 0 210 85 3 c70 3 407 -13 1123 -53 l97 -5 0 30 0 30 -88 0 c-49 0 -189 7
-313 15 -298 19 -636 35 -784 38 l-120 2 0 374 c0 322 2 375 15 382 8 4 87 44
175 87 199 98 288 153 485 300 244 182 380 331 474 518 112 221 141 490 85
769 -49 243 -185 563 -333 784 -62 92 -76 120 -76 151 0 25 -13 63 -35 106
-148 284 -483 521 -805 570 -114 17 -104 17 -210 -6z m66 -57 c-29 -99 -59
-271 -72 -413 -9 -98 -12 -104 -79 -178 -103 -112 -297 -263 -455 -354 -134
-77 -392 -188 -436 -188 -27 0 -14 165 21 260 107 296 360 596 633 750 89 50
199 95 295 120 91 24 100 24 93 3z m279 -25 c173 -58 374 -190 492 -325 84
-95 163 -218 163 -253 0 -14 -153 89 -310 208 -97 74 -413 337 -475 395 -14
13 57 0 130 -25z m-2591 -31 c265 -127 530 -485 671 -910 26 -76 45 -140 43
-142 -2 -2 -120 61 -263 141 -143 80 -330 183 -415 229 -85 47 -160 88 -167
93 -8 5 -8 21 3 62 31 121 13 431 -32 539 l-14 34 52 -6 c28 -4 83 -22 122
-40z m2571 -107 c175 -158 490 -402 633 -490 45 -27 52 -36 52 -63 0 -54 88
-406 193 -778 l11 -37 -94 -88 c-195 -186 -449 -506 -641 -809 -83 -132 -190
-348 -228 -460 l-31 -90 0 780 c0 1233 -11 1832 -37 2094 l-6 65 29 -22 c16
-11 70 -58 119 -102z m-2844 15 c8 -43 10 -241 5 -685 -3 -344 -7 -858 -9
-1142 -1 -285 -5 -518 -8 -518 -3 0 -19 23 -34 52 -16 29 -48 71 -72 94 -38
37 -43 47 -43 86 0 51 -43 312 -100 603 -22 110 -46 243 -55 295 -20 118 -84
442 -88 446 -2 2 -27 -3 -55 -11 -52 -13 -53 -13 -46 7 10 32 206 423 317 631
84 159 104 190 131 201 17 7 34 10 38 7 5 -4 13 -34 19 -66z m104 -215 c3
-119 1 -156 -4 -115 -13 94 -20 356 -9 320 5 -16 11 -109 13 -205z m2509 168
c-6 -75 -34 -212 -41 -205 -8 9 33 267 43 267 2 0 1 -28 -2 -62z m-2837 -50
c-25 -46 -117 -227 -206 -403 l-161 -320 -72 -29 c-40 -16 -135 -56 -212 -88
-76 -32 -141 -57 -143 -54 -7 7 193 313 265 405 106 137 262 310 353 392 118
107 203 178 212 179 5 0 -12 -37 -36 -82z m2825 -1398 l-7 -1015 -43 80 c-106
195 -271 361 -469 471 -124 70 -343 353 -452 586 -81 171 -121 323 -88 332
346 97 692 306 928 561 75 81 129 149 131 166 7 46 7 -283 0 -1181z m84 -960
c-5 -508 -8 -596 -21 -609 -8 -8 -17 -12 -20 -10 -6 7 13 2087 22 2439 7 224
9 165 16 -485 4 -407 6 -1008 3 -1335z m-5456 1992 c0 -51 -120 -928 -151
-1099 l-11 -62 -134 114 c-365 309 -413 351 -413 360 -1 6 33 60 75 120 249
358 390 503 545 560 78 29 89 30 89 7z m163 -124 c38 -70 66 -147 96 -258 21
-82 116 -493 126 -551 4 -19 10 -41 14 -48 8 -13 234 -50 305 -51 64 0 35 -10
-75 -26 -149 -20 -244 -41 -345 -74 -49 -16 -89 -28 -90 -27 -1 1 -7 117 -13
257 -11 245 -44 709 -57 798 -3 23 -4 42 -1 42 3 0 21 -28 40 -62z m3187 -215
c223 -124 408 -228 413 -232 4 -4 50 -100 101 -214 l95 -208 -44 -52 c-55 -66
-217 -270 -322 -407 -210 -276 -587 -825 -656 -957 -21 -40 -39 -73 -40 -73
-1 0 -2 48 -2 107 0 453 -17 2209 -22 2252 l-6 55 39 -23 c22 -13 221 -125
444 -248z m-2804 -78 c176 -176 291 -300 386 -420 75 -93 136 -171 135 -172
-8 -7 -614 60 -622 69 -2 2 -33 134 -69 293 -70 304 -102 417 -143 499 l-25
49 44 -34 c23 -18 156 -146 294 -284z m-487 -414 c1 -380 0 -403 -16 -396 -10
3 -45 14 -78 22 -33 9 -64 19 -68 23 -4 4 -1 48 8 98 12 73 95 644 131 907 8
54 9 43 15 -95 3 -85 7 -337 8 -559z m6435 439 c155 -300 228 -560 229 -810 0
-288 -85 -512 -278 -733 -37 -43 -69 -77 -71 -75 -2 2 19 47 47 100 125 244
185 552 160 822 -9 97 -26 175 -72 343 -75 273 -139 527 -139 550 1 24 55 -64
124 -197z m-4150 -57 c9 -43 36 -188 60 -323 24 -135 69 -378 100 -540 30
-162 56 -310 58 -329 4 -48 -18 -59 -68 -35 -143 70 -245 481 -261 1054 l-6
226 39 11 c21 6 44 11 50 12 6 0 19 -34 28 -76z m-164 -115 c0 -378 63 -793
149 -983 17 -37 31 -69 31 -72 0 -2 -28 19 -62 45 -35 27 -124 91 -198 142
-481 332 -582 404 -587 417 -3 8 37 102 91 208 l97 193 102 42 c211 89 362
150 370 150 4 0 7 -64 7 -142z m2178 -380 c60 -124 166 -285 256 -390 37 -43
65 -78 63 -78 -2 0 -39 9 -82 20 -88 23 -165 26 -183 8 -27 -27 0 -131 60
-236 50 -89 203 -234 354 -335 195 -130 436 -247 511 -247 l23 0 0 -211 0
-210 -22 7 c-53 16 -169 74 -248 124 -361 226 -669 580 -809 932 -112 280
-130 624 -45 838 l18 44 27 -81 c15 -45 50 -128 77 -185z m-4935 65 c329 -278
392 -335 403 -367 22 -59 218 -946 211 -952 -1 -1 -47 36 -102 82 -191 161
-546 405 -872 600 -73 43 -133 84 -133 90 0 55 299 684 326 684 2 0 77 -62
167 -137z m716 -773 c6 -459 13 -965 17 -1124 l6 -289 -34 21 c-30 20 -33 25
-32 69 1 26 5 538 10 1138 4 600 11 1074 15 1055 4 -19 12 -411 18 -870z
m2696 -216 c7 -1051 7 -1101 -10 -1108 -10 -3 -20 -4 -23 -2 -2 3 1 211 7 463
6 252 11 750 11 1107 0 357 2 647 4 645 2 -2 7 -499 11 -1105z m3690 800 c10
-105 0 -321 -19 -429 -34 -184 -122 -398 -229 -556 -42 -62 -72 -91 -157 -155
-58 -43 -151 -107 -208 -141 -126 -78 -369 -200 -378 -190 -11 11 36 195 77
302 96 248 365 665 616 955 104 120 270 290 283 290 4 0 11 -34 15 -76z
m-5447 -24 c-2 -6 -201 -208 -443 -450 l-440 -440 -5 372 c-3 242 -1 377 5
385 28 32 316 102 525 127 140 17 363 20 358 6z m634 -138 c117 -81 296 -206
398 -277 102 -71 209 -145 239 -165 42 -28 91 -84 234 -269 l180 -234 -8 -401
c-4 -221 -9 -403 -11 -406 -10 -9 -263 125 -369 195 -285 189 -521 415 -692
662 -167 241 -253 524 -240 787 6 123 33 256 52 256 2 0 100 -67 217 -148z
m2316 37 c17 -47 40 -135 53 -194 51 -251 -5 -505 -162 -737 -134 -197 -374
-423 -619 -584 -105 -69 -338 -199 -345 -193 -2 3 1 25 7 49 9 42 5 161 -8
223 -5 20 -2 27 8 27 26 0 210 96 303 157 273 180 495 404 591 595 83 165 108
288 120 591 4 92 11 164 15 160 4 -4 21 -47 37 -94z m-2823 -149 c44 -147 92
-379 101 -488 l7 -82 -34 -12 c-118 -41 -258 -142 -604 -434 -149 -126 -282
-238 -296 -249 -20 -15 -43 -62 -87 -175 -32 -85 -63 -168 -68 -185 -11 -39
-21 232 -23 622 l-1 292 463 463 462 463 23 -48 c12 -27 38 -102 57 -167z
m2721 78 c-15 -285 -38 -395 -117 -555 -66 -135 -178 -266 -341 -403 -152
-128 -268 -207 -405 -277 -105 -54 -133 -62 -133 -41 0 23 114 212 245 407
287 427 716 1001 747 1001 7 0 8 -42 4 -132z m-3960 3 c40 -10 77 -22 83 -25
13 -8 15 -316 4 -542 l-6 -138 -43 194 c-39 182 -107 472 -120 513 -7 21 -6
21 82 -2z m4585 -175 c131 -28 251 -107 400 -264 124 -131 215 -241 283 -340
59 -87 68 -109 39 -93 -10 5 -70 34 -134 64 -303 142 -564 353 -642 518 -19
41 -38 86 -41 102 -8 32 -2 33 95 13z m-5391 -204 c309 -192 556 -366 774
-547 l119 -99 -6 -240 c-4 -131 -7 -288 -7 -347 l0 -109 -87 67 c-822 629
-981 785 -1043 1029 -23 88 -27 247 -9 337 l12 56 31 -16 c17 -9 114 -68 216
-131z m5994 -171 c50 -62 151 -211 142 -211 -2 0 -37 43 -77 96 -40 53 -118
144 -173 202 l-101 106 77 -63 c43 -35 102 -93 132 -130z m-2514 15 c50 -66
101 -175 107 -229 l4 -42 -31 35 c-42 47 -199 255 -205 272 -4 9 7 13 41 14
43 1 47 -1 84 -50z m-1350 -196 c0 -6 -13 -39 -29 -75 -81 -178 -365 -468
-790 -808 -177 -142 -201 -160 -208 -154 -7 7 47 160 97 277 l37 85 169 144
c445 378 523 439 635 501 79 42 89 46 89 30z m4170 -1019 l0 -358 -25 5 -25 4
0 342 0 341 23 11 c12 7 23 12 25 13 1 0 2 -160 2 -358z m-2543 222 c-3 -10
-5 -2 -5 17 0 19 2 27 5 18 2 -10 2 -26 0 -35z m-67 -574 c-3 -4 -15 -10 -27
-14 l-23 -6 0 169 c0 166 0 169 23 179 l22 10 5 -166 c3 -91 3 -169 0 -172z
m-2696 239 c21 -15 42 -25 47 -22 5 3 9 -98 9 -230 l0 -236 -60 0 -60 0 0 266
c0 209 3 264 13 258 6 -5 29 -20 51 -36z m2696 -533 l0 -235 -25 0 -25 0 0
229 0 230 23 4 c12 2 23 5 25 6 1 0 2 -105 2 -234z m2610 10 l0 -215 -25 0
-25 0 0 215 0 215 25 0 25 0 0 -215z m-2710 -16 l0 -221 -27 6 c-16 3 -82 10
-148 16 -66 6 -367 40 -670 76 -302 35 -689 80 -859 99 -170 19 -310 36 -312
38 -3 2 49 7 113 10 162 8 538 34 778 53 283 22 500 48 810 98 149 24 280 44
293 45 l22 1 0 -221z m-2540 -249 l0 -240 -22 -4 c-13 -3 -40 -7 -60 -10 l-38
-5 0 250 0 249 60 0 60 0 0 -240z m700 186 c217 -26 645 -76 950 -112 305 -36
589 -69 630 -73 41 -4 68 -10 60 -13 -13 -5 -398 -43 -1595 -159 -456 -44
-606 -59 -652 -65 l-43 -6 0 242 0 243 128 -6 c70 -3 305 -26 522 -51z m1940
-380 c0 -85 -4 -157 -9 -161 -5 -3 -17 2 -25 11 -13 12 -16 41 -16 153 0 76 3
141 7 144 3 4 15 7 25 7 17 0 18 -11 18 -154z m695 134 c209 -6 558 -15 775
-20 523 -14 817 -27 879 -41 76 -16 105 -55 61 -79 -33 -18 -173 -45 -555
-109 -652 -110 -643 -109 -870 -100 -110 4 -368 10 -573 14 l-374 8 6 21 c3
11 6 90 6 174 l0 153 133 -6 c72 -3 303 -10 512 -15z m1915 -176 l0 -195 -22
3 c-23 3 -23 4 -26 196 l-2 192 25 0 25 0 0 -196z m-2710 45 c0 -81 5 -149 11
-161 6 -11 9 -21 7 -22 -2 -1 -61 1 -133 5 -71 4 -308 15 -525 24 -217 9 -564
24 -770 35 -206 10 -473 22 -592 26 -120 4 -215 11 -212 15 3 5 26 9 52 9 26
0 155 11 287 25 132 13 362 36 510 50 149 15 502 50 785 79 283 30 530 54 548
55 l32 1 0 -141z m1450 -893 c261 -25 520 -49 575 -53 128 -9 111 -13 -205
-52 -872 -109 -1524 -186 -1734 -206 -296 -28 -527 -15 -632 35 -118 57 -66
150 103 185 75 16 484 63 828 95 121 11 279 27 350 35 153 16 113 18 715 -39z"/>
<path d="M0 1067 l0 -25 173 -6 c94 -3 507 -12 917 -21 410 -9 858 -20 995
-25 138 -5 396 -14 575 -20 390 -13 560 -25 632 -46 176 -52 220 -162 85 -212
-65 -25 -495 -94 -1338 -217 -365 -54 -451 -56 -754 -20 -427 50 -905 106
-1092 128 l-193 23 0 -27 c0 -32 -23 -27 285 -64 1208 -145 1325 -156 1480
-136 149 20 1092 160 1215 181 63 11 170 29 236 40 216 35 289 78 289 170 0
58 -21 91 -86 136 -97 65 -187 79 -606 94 -164 6 -422 15 -573 20 -313 12
-1290 36 -1857 46 l-383 7 0 -26z"/>
</g>
</svg>
