<?xml version="1.0" standalone="no"?>
<!DOCTYPE svg PUBLIC "-//W3C//DTD SVG 20010904//EN"
 "http://www.w3.org/TR/2001/REC-SVG-20010904/DTD/svg10.dtd">
<svg version="1.0" xmlns="http://www.w3.org/2000/svg"
 width="170.078740pt" height="170.078740pt" viewBox="0 0 170.078740 170.078740"
 preserveAspectRatio="xMidYMid meet">
<metadata>
Created by potrace 1.16, written by Peter Selinger 2001-2019
</metadata>
<g transform="translate(0.000000,170.078740) scale(0.018752,-0.018752)"
fill="#000000" stroke="none">
<path d="M4460 7854 c0 -647 3 -973 10 -969 7 4 10 340 10 976 0 639 -3 969
-10 969 -7 0 -10 -332 -10 -976z"/>
<path d="M3472 6676 c-244 -47 -419 -141 -584 -315 -258 -271 -408 -667 -433
-1143 -5 -104 -4 -131 9 -157 19 -37 53 -61 84 -61 52 0 79 27 138 137 101
190 179 299 299 418 124 124 207 177 350 226 199 67 422 76 650 25 96 -21 113
-23 141 -11 63 26 82 91 44 152 -23 39 -77 57 -236 78 -411 55 -764 -36 -1041
-267 -54 -44 -173 -181 -173 -198 0 -6 -4 -10 -9 -10 -10 0 57 227 95 320 60
149 193 336 306 429 91 75 243 147 364 173 87 18 120 19 270 14 l172 -6 30 25
c55 46 48 121 -14 162 -35 23 -355 29 -462 9z"/>
<path d="M5090 6683 c-14 -2 -40 -6 -59 -9 -75 -12 -107 -102 -57 -161 l24
-28 219 0 c249 -1 292 -9 459 -90 162 -78 327 -257 424 -460 46 -96 137 -361
127 -371 -3 -3 -14 10 -25 28 -30 48 -187 198 -257 245 -139 93 -319 163 -481
188 -244 37 -632 -3 -691 -71 -33 -37 -32 -106 3 -141 23 -23 31 -25 87 -20
34 3 103 13 152 23 65 13 133 18 245 18 135 -1 168 -4 253 -27 119 -32 261
-98 344 -161 136 -103 282 -292 393 -506 69 -135 108 -162 180 -125 56 29 61
55 50 242 -18 310 -84 559 -215 812 -108 207 -237 351 -415 463 -180 113 -354
159 -592 157 -78 -1 -154 -3 -168 -6z"/>
<path d="M3497 5635 c-131 -36 -229 -110 -279 -213 -29 -59 -33 -76 -33 -152
0 -162 69 -248 314 -394 220 -131 270 -185 312 -342 19 -70 22 -117 28 -404
l6 -325 27 -51 c56 -106 138 -153 273 -155 50 0 101 -4 115 -8 28 -7 60 -62
60 -101 0 -80 -63 -171 -150 -215 -149 -76 -515 -145 -765 -145 -339 0 -626
124 -805 348 -152 191 -236 450 -264 817 -11 148 -15 167 -35 189 -42 44 -118
37 -155 -15 -19 -28 -22 -203 -6 -339 13 -101 60 -301 96 -408 60 -176 193
-386 311 -493 154 -138 385 -247 607 -285 126 -22 451 -14 625 15 218 38 420
94 527 149 49 25 119 94 143 141 l18 35 16 -31 c25 -47 100 -119 154 -146 135
-69 415 -141 645 -166 145 -16 389 -14 499 5 260 44 477 151 645 318 154 154
254 350 324 638 55 224 77 497 45 558 -34 65 -113 74 -159 19 -26 -31 -30 -53
-41 -258 -3 -57 -15 -147 -26 -200 -109 -537 -391 -821 -873 -881 -289 -37
-860 61 -981 167 -66 57 -104 148 -91 216 10 54 36 66 166 77 90 7 120 14 153
34 58 34 102 82 129 141 22 48 23 64 29 380 6 361 9 380 72 498 41 78 100 128
247 211 218 123 278 181 322 304 59 166 -51 371 -238 447 -81 32 -240 45 -339
26 -142 -27 -268 -119 -329 -242 -42 -84 -63 -193 -46 -244 21 -65 83 -91 145
-63 35 16 53 53 61 125 8 70 23 101 71 149 48 48 105 72 190 80 93 9 164 -12
226 -66 83 -73 85 -153 7 -223 -21 -20 -82 -61 -137 -92 -230 -133 -312 -207
-376 -337 -70 -142 -79 -195 -87 -543 -5 -170 -11 -323 -15 -338 -9 -34 -23
-41 -55 -29 -24 9 -24 9 -3 20 11 6 23 17 26 24 3 10 -72 13 -379 14 -211 1
-384 -1 -384 -4 0 -3 12 -19 27 -34 l27 -28 -27 0 c-46 0 -50 28 -58 360 -6
284 -8 312 -32 402 -58 218 -151 332 -376 458 -190 107 -251 165 -251 240 0
122 191 213 351 167 116 -34 181 -110 198 -232 9 -59 15 -74 41 -97 53 -49
132 -30 165 38 17 36 17 42 1 113 -21 101 -57 170 -122 240 -59 64 -141 113
-229 136 -72 18 -231 18 -298 0z"/>
<path d="M100 4531 c58 -3 528 -4 1045 -1 l940 5 -1045 1 c-575 0 -998 -2
-940 -5z"/>
<path d="M6850 4533 c0 -7 1852 -7 2115 0 61 1 -391 4 -1002 5 -612 1 -1113
-1 -1113 -5z"/>
<path d="M5233 4422 c224 -259 351 -459 406 -635 47 -154 48 -335 2 -438 -30
-65 -27 -114 8 -150 50 -49 128 -33 170 35 61 98 79 333 41 514 -40 187 -138
386 -243 493 -65 65 -143 108 -301 163 -74 26 -95 31 -83 18z"/>
<path d="M3610 4400 c-52 -16 -127 -45 -167 -65 -155 -77 -290 -286 -364 -565
-32 -121 -33 -355 -2 -448 37 -110 77 -152 144 -152 39 0 99 56 99 92 0 14
-12 53 -27 89 -25 59 -28 75 -28 194 0 106 5 145 24 215 54 193 159 367 359
598 34 39 61 72 60 71 -2 0 -46 -13 -98 -29z"/>
<path d="M3626 2799 c-42 -49 -39 -87 15 -187 105 -198 256 -316 474 -372 162
-42 488 -44 680 -5 241 50 402 178 511 408 32 69 35 80 25 109 -19 53 -49 78
-96 78 -51 0 -76 -24 -131 -128 -48 -92 -126 -179 -190 -214 -27 -15 -87 -37
-134 -49 -77 -21 -107 -24 -305 -24 -176 0 -235 4 -295 18 -168 39 -259 109
-346 264 -65 117 -82 133 -138 133 -37 0 -48 -5 -70 -31z"/>
<path d="M4460 1030 c0 -520 3 -790 10 -790 7 0 10 270 10 790 0 520 -3 790
-10 790 -7 0 -10 -270 -10 -790z"/>
</g>
</svg>
