<?xml version="1.0" standalone="no"?>
<!DOCTYPE svg PUBLIC "-//W3C//DTD SVG 20010904//EN"
 "http://www.w3.org/TR/2001/REC-SVG-20010904/DTD/svg10.dtd">
<svg version="1.0" xmlns="http://www.w3.org/2000/svg"
 width="170.078740pt" height="170.078740pt" viewBox="0 0 170.078740 170.078740"
 preserveAspectRatio="xMidYMid meet">
<metadata>
Created by potrace 1.16, written by Peter Selinger 2001-2019
</metadata>
<g transform="translate(0.000000,170.078740) scale(0.018752,-0.018752)"
fill="#000000" stroke="none">
<path d="M0 8808 c0 -156 4 -257 9 -249 16 25 44 4 39 -29 -5 -33 6 -40 21
-12 9 15 11 15 20 -8 l10 -25 0 28 c1 18 -4 27 -14 27 -17 0 -20 16 -5 25 5 3
10 15 10 26 0 12 5 19 13 17 15 -6 23 -118 7 -119 -5 -1 -21 -1 -35 -1 -55 0
-65 3 -65 16 0 8 6 16 12 19 7 2 9 8 5 13 -20 21 -27 -37 -27 -243 l0 -223 28
0 c15 0 37 -3 50 -6 25 -7 27 -26 15 -171 -6 -87 -23 -115 -23 -39 0 47 -15
62 -51 51 -16 -5 -19 -16 -19 -61 l0 -54 4535 0 c2959 0 4535 4 4535 10 0 6
-4 10 -10 10 -5 0 -9 23 -9 50 1 28 -1 54 -5 57 -3 3 -6 -19 -6 -50 0 -31 -4
-57 -10 -57 -6 0 -10 29 -10 68 -1 51 -3 63 -11 49 -6 -10 -8 -38 -6 -62 3
-25 1 -48 -4 -51 -5 -3 -9 16 -9 41 0 30 -4 44 -11 40 -6 -4 -9 -22 -7 -40 1
-19 -1 -37 -5 -41 -4 -4 -7 14 -7 40 0 31 -4 45 -11 41 -6 -4 -9 -22 -7 -40 1
-19 -1 -37 -5 -41 -4 -4 -8 15 -9 42 -1 47 -2 47 -5 9 -6 -56 -23 -69 -23 -18
0 23 -4 45 -10 48 -6 4 -10 -12 -10 -40 0 -25 -4 -44 -9 -41 -5 3 -7 24 -4 46
4 26 2 40 -6 40 -6 0 -11 -18 -11 -46 0 -27 -4 -43 -10 -39 -6 4 -10 58 -10
131 l0 124 120 0 120 0 0 500 0 500 -4535 0 -4535 0 0 -262z m4040 158 c0 -11
-19 -15 -25 -6 -3 5 1 10 9 10 9 0 16 -2 16 -4z m769 -61 c0 -64 0 -65 -27
-65 -58 0 -74 63 -22 83 18 7 30 19 30 29 0 10 4 18 9 18 5 0 9 -29 10 -65z
m-1119 34 c0 -5 -11 -9 -25 -9 -18 0 -26 -7 -31 -24 -8 -32 3 -49 27 -43 12 3
19 0 19 -9 0 -19 -29 -18 -52 3 -25 22 -23 68 3 86 21 15 59 12 59 -4z m131 4
c3 -39 -3 -99 -12 -107 -5 -6 -9 16 -9 57 0 38 4 67 10 67 6 0 11 -8 11 -17z
m799 -33 c0 -54 14 -67 23 -21 4 18 14 30 29 34 28 8 35 1 43 -45 l7 -38 -61
0 -61 0 0 60 c0 33 4 60 10 60 6 0 10 -22 10 -50z m279 -10 c1 -46 -2 -60 -13
-60 -9 0 -13 10 -12 32 1 23 -4 33 -16 36 -14 3 -16 -2 -11 -32 4 -24 2 -36
-6 -36 -10 0 -12 11 -15 68 -1 13 6 16 28 14 25 -3 28 -1 23 17 -3 13 0 21 7
21 9 0 14 -19 15 -60z m-773 18 c14 -10 24 -78 12 -78 -9 0 -13 9 -22 53 -9
41 -26 33 -26 -13 0 -33 -3 -40 -20 -40 -17 0 -18 3 -10 26 14 35 13 44 -5 44
-8 0 -16 -10 -17 -22 -2 -42 -3 -47 -10 -53 -3 -4 -8 18 -10 48 l-3 54 50 -5
c28 -2 55 -9 61 -14z m-346 -27 c0 -49 -42 -68 -74 -32 -20 22 -12 49 18 60
34 13 56 2 56 -28z m215 30 c3 -5 -3 -11 -12 -13 -10 -2 -18 -10 -19 -18 -3
-43 -5 -50 -14 -50 -11 0 -14 73 -3 83 9 10 41 8 48 -2z m1001 -30 c3 -14 7
-31 9 -38 2 -7 -2 -10 -10 -7 -8 3 -15 17 -17 32 -5 41 -28 40 -28 -2 0 -20
-4 -36 -10 -36 -15 0 -12 78 3 83 24 8 47 -6 53 -32z m82 30 c21 -13 12 -95
-11 -99 -31 -6 -60 28 -53 62 9 41 34 56 64 37z m-1158 -17 c21 -24 1 -69 -30
-69 -28 0 -57 42 -47 68 8 22 60 22 77 1z m310 -34 c0 -43 -3 -50 -19 -50 -11
0 -26 -2 -34 -5 -10 -5 -14 5 -15 40 -3 58 2 65 39 65 28 0 29 -1 29 -50z
m-2414 -226 c-3 -9 -6 -65 -6 -125 l0 -109 -144 0 -143 0 -7 31 c-3 17 -6 74
-6 125 l0 94 156 0 c138 0 155 -2 150 -16z m604 -109 l0 -125 -156 0 -155 0 3
125 3 125 153 0 152 0 0 -125z m540 0 l0 -125 -125 0 -125 0 0 125 0 125 125
0 125 0 0 -125z m950 0 l0 -125 -365 0 -365 0 0 64 c0 34 -3 91 -6 125 l-7 61
372 0 371 0 0 -125z m1300 0 l0 -125 -190 0 -190 0 0 125 0 125 190 0 190 0 0
-125z m-4063 76 c8 -23 15 -29 32 -24 31 8 69 -5 81 -27 16 -29 -11 -78 -61
-114 -33 -23 -43 -26 -50 -15 -16 26 -22 80 -11 104 9 19 8 31 -3 52 -8 15
-15 34 -15 41 0 22 15 12 27 -17z m3257 -12 c50 -59 23 -140 -49 -152 -50 -8
-79 5 -98 46 -23 48 -22 61 14 102 25 28 38 35 69 35 30 0 44 -6 64 -31z
m-3888 -41 c19 -2 38 0 43 5 13 13 51 -2 51 -20 0 -11 5 -9 18 8 27 32 52 19
52 -27 0 -24 -4 -34 -12 -31 -7 2 -12 16 -11 31 2 35 -25 34 -29 -1 -2 -20 -9
-29 -25 -31 -24 -4 -32 13 -10 21 9 3 9 7 -2 20 -21 26 -33 20 -29 -15 2 -20
-2 -33 -11 -36 -8 -3 -11 0 -7 7 4 6 3 11 -3 11 -5 0 -13 -4 -16 -10 -10 -17
-36 -11 -67 15 -20 17 -24 25 -14 25 10 0 16 9 16 23 0 28 14 46 18 24 2 -9
17 -17 38 -19z m3524 21 c0 -5 -4 -9 -10 -9 -20 0 -10 -29 17 -48 28 -20 25
-42 -7 -42 -22 0 -50 46 -50 82 0 17 6 23 25 24 14 1 25 -2 25 -7z m694 -37
c5 -23 6 -45 3 -49 -4 -3 -22 2 -41 12 l-35 19 -32 -32 c-18 -17 -36 -29 -41
-26 -4 3 -8 27 -8 54 0 41 3 50 22 56 16 5 27 1 39 -15 l18 -22 17 26 c24 37
47 28 58 -23z m-3360 28 c32 -12 33 -27 5 -56 -20 -21 -23 -22 -45 -7 -26 17
-31 42 -12 61 15 15 19 15 52 2z m-929 -10 c3 -6 -5 -10 -19 -10 -30 0 -34
-20 -10 -45 21 -20 12 -30 -15 -16 -13 7 -22 8 -26 1 -11 -18 -43 -11 -60 13
l-16 22 -16 -22 c-8 -13 -19 -23 -23 -23 -12 0 -52 71 -45 79 6 6 30 -21 38
-43 3 -7 11 -5 23 7 17 16 17 17 1 17 -10 0 -15 5 -12 10 4 6 24 10 46 8 21
-1 41 0 43 3 9 9 85 8 91 -1z m1570 -20 c33 -34 23 -41 -12 -8 l-23 21 -24
-22 c-18 -17 -26 -19 -32 -10 -4 7 -3 14 3 16 6 2 19 10 29 18 26 19 26 19 59
-15z m540 20 c3 -5 22 -10 41 -10 19 0 34 -4 34 -9 0 -5 -11 -8 -25 -8 -14 0
-34 -8 -44 -17 -26 -23 -31 -20 -31 19 0 34 12 46 25 25z m-1605 -40 c0 -6 -9
-5 -20 2 -11 7 -20 16 -20 21 0 4 9 3 20 -3 11 -6 20 -15 20 -20z m2116 6 c10
-8 16 -18 12 -22 -10 -9 -58 12 -58 26 0 14 23 12 46 -4z m-2608 -588 c-1
-100 -3 -119 -8 -78 l-7 55 -2 -55 c-1 -45 -4 -51 -12 -37 -6 11 -9 32 -5 48
3 15 1 31 -4 34 -6 4 -10 -14 -10 -44 0 -28 -4 -51 -10 -51 -5 0 -10 20 -10
45 0 25 -4 45 -9 45 -5 0 -6 -20 -3 -45 3 -30 1 -45 -7 -45 -6 0 -11 17 -11
40 0 22 -4 41 -10 42 -33 4 -35 2 -32 -39 2 -24 -1 -43 -6 -43 -6 0 -13 44
-17 98 -10 153 -12 156 -15 22 -2 -69 -5 -104 -7 -77 -2 26 -9 47 -14 47 -6 0
-9 -18 -8 -42 3 -28 -1 -43 -10 -46 -11 -4 -13 5 -9 42 4 35 2 46 -8 46 -10 0
-14 -15 -16 -47 l-1 -48 -7 45 -7 45 -1 -43 c-1 -24 -6 -41 -11 -38 -5 3 -7
24 -4 46 4 26 2 40 -6 40 -6 0 -11 -18 -11 -46 0 -29 -4 -43 -11 -39 -6 5 -8
22 -4 47 5 29 4 39 -4 34 -6 -4 -11 -25 -11 -47 0 -21 -4 -39 -10 -39 -11 0
-13 92 -3 193 l6 67 168 0 169 0 -2 -132z m1000 0 c-1 -73 -3 -112 -5 -85 -3
39 -8 47 -24 47 -16 0 -19 -8 -21 -47 l-2 -48 -3 48 c-2 26 -8 47 -14 47 -5 0
-10 -21 -11 -47 l-2 -48 -3 48 c-2 26 -8 47 -14 47 -5 0 -10 -21 -11 -47 l-2
-48 -3 48 c-4 42 -7 47 -28 47 -21 0 -24 -5 -28 -47 -2 -36 -4 -27 -6 32 -3
60 -5 73 -11 50 -4 -16 -8 -52 -9 -78 0 -27 -5 -46 -10 -42 -5 3 -8 23 -6 45
2 22 -1 40 -6 40 -5 0 -9 -21 -9 -47 0 -56 -17 -47 -23 12 -4 40 -4 40 -5 -7
-1 -27 -6 -48 -12 -48 -5 0 -11 21 -12 48 l-2 47 -3 -47 c-5 -61 -23 -63 -23
-2 0 29 -4 43 -11 39 -6 -4 -9 -22 -7 -40 1 -19 0 -37 -4 -40 -3 -4 -10 34
-13 83 -7 87 -20 132 -32 105 -2 -7 -11 -13 -19 -13 -8 0 -14 -4 -14 -10 0 -5
11 -10 25 -10 25 0 25 -1 25 -80 0 -47 -4 -80 -10 -80 -5 0 -10 20 -10 45 0
26 -5 45 -11 45 -7 0 -8 -14 -4 -39 4 -24 2 -42 -4 -46 -7 -4 -11 10 -11 39 0
39 -3 46 -20 46 -17 0 -20 -7 -20 -45 0 -25 -4 -45 -10 -45 -5 0 -10 23 -10
50 0 31 -4 50 -11 50 -8 0 -10 -15 -7 -45 3 -25 2 -48 -3 -51 -5 -3 -9 15 -9
40 0 25 -4 46 -10 46 -5 0 -10 -21 -10 -46 0 -27 -4 -43 -10 -39 -5 3 -10 24
-10 46 0 21 -4 39 -9 39 -5 0 -6 -20 -3 -45 3 -30 1 -45 -7 -45 -6 0 -12 20
-13 48 -1 47 -1 47 -5 7 -6 -59 -23 -68 -23 -13 0 31 -5 48 -15 51 -19 8 -25
-4 -18 -33 6 -22 7 -23 14 -4 6 15 8 13 8 -12 1 -19 -5 -34 -13 -37 -18 -7
-24 29 -26 143 0 46 -3 86 -5 89 -3 2 -5 -51 -5 -118 0 -79 -4 -120 -10 -116
-5 3 -10 24 -10 46 0 32 -3 39 -20 39 -17 0 -20 -7 -20 -45 0 -27 -5 -45 -11
-45 -8 0 -10 14 -6 40 3 22 1 43 -4 46 -5 3 -9 -15 -9 -40 0 -25 -4 -46 -10
-46 -5 0 -10 20 -10 45 0 25 -5 45 -11 45 -7 0 -8 -16 -3 -46 5 -37 4 -46 -7
-42 -19 6 -36 158 -19 168 15 10 4 30 -16 30 -11 0 -14 -11 -12 -47 4 -82 -2
-153 -12 -153 -5 0 -10 20 -10 45 0 26 -5 45 -11 45 -7 0 -8 -14 -4 -39 4 -24
2 -42 -4 -46 -7 -4 -11 11 -11 45 0 32 -4 49 -10 45 -5 -3 -10 -27 -10 -52 0
-26 -3 -43 -7 -39 -4 4 -6 22 -4 41 2 25 -3 36 -18 44 -30 16 -31 15 -31 -41
0 -28 -3 -48 -7 -44 -4 4 -9 63 -10 132 l-2 124 494 0 495 0 -2 -132z m582 47
c0 -50 -4 -85 -10 -85 -5 0 -10 -20 -10 -45 0 -25 -4 -45 -10 -45 -5 0 -10 20
-10 45 0 25 -4 45 -9 45 -5 0 -7 -17 -4 -39 3 -23 1 -41 -6 -45 -8 -5 -11 9
-11 46 0 39 -3 49 -10 38 -6 -8 -7 -32 -4 -54 5 -29 3 -37 -7 -34 -9 3 -13 18
-10 46 1 25 -2 42 -8 42 -6 0 -11 -20 -11 -45 0 -60 -20 -58 -22 3 l-2 47 -3
-47 c-5 -64 -25 -62 -22 2 2 27 0 53 -4 57 -4 3 -7 -19 -7 -50 0 -31 -4 -57
-10 -57 -5 0 -10 20 -10 45 0 25 -5 45 -11 45 -6 0 -9 -16 -8 -40 2 -21 0 -42
-4 -46 -4 -4 -7 16 -7 45 0 32 -4 50 -10 46 -5 -3 -10 -26 -10 -51 0 -24 -4
-44 -10 -44 -5 0 -10 18 -10 41 0 22 -4 38 -8 35 -5 -3 -7 -18 -4 -34 2 -16
-1 -33 -7 -36 -7 -5 -11 8 -11 38 0 25 -3 46 -8 46 -4 0 -6 -17 -4 -39 2 -21
-1 -42 -7 -45 -7 -5 -11 9 -11 40 0 57 -17 49 -23 -11 -2 -27 -4 -18 -5 28 -2
87 -22 88 -22 1 0 -69 -14 -82 -18 -18 -3 45 -6 49 -28 40 -13 -5 -15 -14 -11
-41 3 -19 1 -37 -4 -40 -5 -4 -9 14 -9 39 0 26 -5 46 -11 46 -6 0 -9 -16 -8
-37 4 -54 -15 -57 -22 -3 l-6 45 -1 -48 c-1 -27 -6 -46 -11 -43 -5 3 -7 24 -4
46 5 36 3 40 -16 40 -17 0 -21 -6 -21 -36 0 -21 4 -33 10 -29 6 3 10 2 10 -3
0 -6 -6 -12 -14 -15 -14 -6 -26 86 -26 200 l0 53 285 0 285 -1 0 -84z m1659
-42 c0 -75 -4 -120 -8 -108 -8 19 -9 18 -13 -5 -3 -15 -6 -7 -7 23 0 26 -6 47
-12 47 -7 0 -8 -14 -4 -39 4 -24 2 -42 -4 -46 -7 -4 -11 10 -11 39 0 61 -19
59 -22 -1 l-2 -48 -3 48 c-2 26 -8 47 -14 47 -5 0 -10 -21 -11 -47 l-2 -48 -3
48 c-5 61 -23 61 -23 0 0 -59 -17 -46 -23 17 l-4 45 -1 -52 c-3 -68 -22 -69
-22 -1 0 28 -3 48 -7 44 -4 -4 -6 -27 -4 -51 1 -27 -2 -45 -8 -45 -6 0 -11 18
-11 39 0 59 -20 62 -22 4 l-2 -48 -3 48 c-5 60 -23 62 -23 1 0 -30 -4 -43 -11
-38 -6 4 -8 20 -4 40 3 21 2 34 -5 34 -5 0 -10 -18 -10 -40 0 -22 -4 -40 -10
-40 -5 0 -10 22 -10 49 0 28 -4 53 -10 56 -6 4 -10 -15 -10 -50 0 -35 -4 -54
-10 -50 -5 3 -10 33 -10 66 0 39 -4 58 -10 54 -7 -4 -8 -29 -4 -67 5 -45 4
-59 -5 -54 -6 4 -11 19 -11 34 0 15 -5 34 -11 42 -8 11 -9 4 -5 -27 4 -25 2
-43 -3 -43 -6 0 -11 17 -13 37 -2 27 -8 39 -20 41 -15 3 -18 -4 -18 -38 0 -25
-4 -39 -10 -35 -6 4 -8 11 -4 16 8 13 -4 59 -16 59 -5 0 -8 -17 -7 -37 1 -21
-2 -38 -8 -38 -5 0 -10 17 -9 38 0 20 -3 37 -8 37 -4 0 -8 -21 -8 -47 0 -88
-19 -30 -29 87 l-10 115 4 -123 c3 -78 1 -120 -6 -117 -5 4 -9 12 -8 18 4 37
-2 68 -13 64 -9 -2 -12 -18 -10 -45 2 -26 -1 -42 -7 -42 -6 0 -12 21 -13 48
l-1 47 -7 -50 -7 -50 -3 45 -3 45 -4 -42 c-5 -58 -23 -55 -23 4 0 25 -3 43 -7
39 -4 -4 -6 -25 -4 -46 1 -24 -2 -40 -8 -40 -6 0 -11 20 -11 45 0 60 -20 58
-22 -2 l-2 -48 -3 48 c-5 60 -23 62 -23 1 0 -29 -4 -43 -11 -39 -6 4 -8 22 -4
46 4 25 3 39 -4 39 -6 0 -12 -21 -13 -47 l-2 -48 -3 48 c-5 60 -23 62 -23 1 0
-30 -4 -43 -11 -38 -6 3 -8 16 -6 28 3 11 1 30 -3 41 -6 15 -9 8 -9 -27 -1
-27 -5 -48 -11 -48 -5 0 -10 20 -10 45 0 41 -2 45 -22 41 -20 -3 -23 -8 -20
-45 2 -25 -1 -41 -7 -41 -7 0 -11 25 -11 65 0 87 -19 84 -22 -2 -1 -57 -2 -60
-5 -20 -5 60 -23 62 -23 2 0 -25 -4 -45 -10 -45 -5 0 -10 20 -10 44 0 25 -4
48 -10 51 -5 3 -10 1 -10 -5 0 -6 -4 -8 -10 -5 -6 4 -11 -13 -12 -42 l-2 -48
-3 48 c-3 32 -8 47 -16 44 -7 -3 -11 -8 -10 -13 8 -45 6 -68 -4 -71 -9 -3 -13
11 -14 49 0 29 -4 73 -8 98 -7 38 -9 29 -10 -54 -1 -99 -9 -123 -15 -50 -5 49
-26 58 -26 11 0 -20 5 -37 12 -39 7 -3 6 -7 -5 -11 -15 -5 -17 1 -17 44 0 31
-4 48 -10 44 -5 -3 -10 -26 -10 -51 0 -59 -20 -57 -22 4 l-2 47 -3 -47 c-2
-27 -8 -48 -14 -48 -5 0 -10 21 -11 48 l-1 47 -6 -50 c-4 -32 -9 -45 -14 -37
-5 7 -6 26 -2 42 4 16 2 37 -4 47 -12 21 -13 15 -11 -51 1 -34 -2 -46 -10 -41
-8 5 -9 20 -5 41 3 21 2 34 -5 34 -5 0 -10 -18 -10 -40 0 -22 -4 -40 -10 -40
-5 0 -10 23 -10 51 0 31 -4 48 -10 44 -6 -4 -7 -23 -4 -44 4 -24 2 -41 -5 -45
-7 -5 -11 8 -11 38 0 25 -4 46 -10 46 -5 0 -10 -20 -10 -45 0 -48 0 -48 -24
-39 -11 4 -16 19 -16 47 0 22 -3 37 -7 33 -4 -4 -6 -25 -4 -46 1 -24 -2 -40
-8 -40 -6 0 -11 20 -11 45 0 26 -5 45 -11 45 -8 0 -9 -15 -5 -45 5 -29 4 -45
-3 -45 -7 0 -11 24 -11 60 0 33 -4 60 -10 60 -6 0 -10 -27 -10 -60 0 -33 -4
-60 -10 -60 -5 0 -10 20 -10 45 0 38 -3 45 -20 45 -17 0 -20 -7 -22 -47 l-1
-48 -7 50 c-4 28 -8 46 -8 41 -1 -5 -9 -3 -17 4 -13 11 -15 5 -17 -41 l-2 -54
-3 48 c-5 61 -23 61 -23 0 0 -51 -14 -51 -16 0 0 18 -2 70 -3 117 -1 47 -2 88
-2 92 1 4 370 7 821 8 l820 0 -1 -127z m171 58 c0 -37 3 -96 7 -131 4 -47 3
-61 -5 -56 -7 4 -12 25 -12 47 0 28 -4 39 -15 39 -11 0 -15 -11 -15 -40 0 -22
-3 -40 -8 -40 -4 0 -7 19 -5 43 2 39 -1 35 -13 -20 -8 -40 -32 -27 -37 20 l-4
42 -1 -48 c-1 -31 -6 -46 -13 -42 -6 4 -8 22 -4 46 4 25 3 39 -4 39 -6 0 -11
-19 -11 -46 0 -25 -3 -43 -8 -40 -6 3 -9 241 -3 254 0 1 35 2 76 2 l75 0 0
-69z m348 -63 c-1 -73 -3 -112 -5 -85 -3 37 -8 47 -22 47 -16 0 -18 -6 -14
-47 4 -34 2 -45 -5 -38 -6 6 -12 28 -15 50 -4 40 -4 40 -5 -7 -2 -58 -22 -65
-22 -9 0 22 -4 43 -10 46 -6 4 -10 -12 -10 -40 0 -28 -4 -44 -10 -40 -6 4 -7
23 -4 47 6 32 4 40 -7 36 -9 -3 -13 -18 -10 -47 2 -29 -1 -41 -8 -37 -14 9
-15 156 -1 156 20 0 10 27 -14 38 -21 9 -24 8 -29 -13 -2 -14 0 -26 5 -27 11
-4 17 -148 6 -154 -4 -3 -8 15 -8 40 0 25 -4 46 -9 46 -5 0 -7 -17 -4 -39 3
-23 1 -41 -6 -45 -7 -5 -11 8 -11 40 0 26 -3 44 -7 40 -4 -4 -6 -22 -5 -41 2
-18 -1 -36 -7 -40 -7 -4 -11 10 -11 39 0 28 -5 46 -11 46 -8 0 -9 -13 -5 -39
3 -23 2 -42 -4 -46 -6 -4 -10 11 -10 39 0 39 -3 46 -20 46 -16 0 -20 -6 -19
-32 1 -31 1 -32 9 -8 7 22 8 21 9 -12 1 -29 -2 -36 -14 -32 -12 5 -15 29 -15
130 l0 124 165 0 165 0 -2 -132z m712 1 c0 -93 -3 -128 -11 -123 -7 4 -9 21
-5 45 4 24 2 39 -4 39 -5 0 -10 -20 -10 -45 0 -63 -20 -56 -22 8 l-2 52 -3
-52 c-5 -65 -23 -71 -23 -8 0 25 -4 45 -10 45 -5 0 -10 -20 -10 -45 0 -25 -4
-45 -10 -45 -5 0 -10 20 -10 45 0 27 -5 45 -11 45 -8 0 -10 -15 -7 -45 3 -25
2 -45 -3 -45 -5 0 -9 20 -9 45 0 57 -18 59 -23 3 -2 -24 -2 9 -1 72 2 106 1
109 -7 45 -4 -38 -8 -91 -8 -117 0 -27 -5 -48 -11 -48 -5 0 -10 20 -10 44 0
65 -20 69 -22 4 l-2 -53 -3 48 c-2 26 -8 47 -14 47 -5 0 -10 -21 -11 -47 l-2
-48 -3 48 c-2 26 -9 47 -14 47 -6 0 -9 -18 -8 -40 2 -22 -1 -40 -6 -40 -6 0
-10 8 -11 18 -1 9 -2 27 -3 40 0 13 -5 21 -10 18 -5 -3 -7 -25 -4 -49 3 -31 2
-38 -6 -27 -17 24 -14 131 5 152 14 15 15 20 4 33 -12 15 -15 14 -25 -6 l-12
-21 -6 22 c-7 27 -31 22 -35 -8 -3 -18 2 -22 22 -22 26 0 26 0 24 -82 -1 -66
-2 -74 -7 -38 -6 42 -8 45 -36 45 -28 0 -30 -3 -33 -42 -4 -57 -22 -55 -22 3
0 25 -4 43 -9 40 -5 -3 -7 -24 -4 -46 4 -26 2 -40 -6 -40 -6 0 -11 18 -11 45
0 25 -4 45 -9 45 -5 0 -6 -20 -3 -45 3 -28 1 -45 -6 -45 -6 0 -13 41 -17 98
-9 150 -14 159 -11 24 2 -68 0 -120 -5 -115 -4 4 -9 26 -12 48 -4 40 -4 40 -5
-7 -1 -27 -7 -48 -13 -48 -6 0 -9 16 -8 40 2 21 0 42 -4 46 -4 4 -7 -14 -7
-39 0 -26 -4 -47 -10 -47 -5 0 -10 18 -10 40 0 53 -18 51 -23 -2 l-4 -43 -1
48 c-1 26 -7 47 -13 47 -6 0 -9 -16 -8 -40 2 -21 0 -42 -4 -46 -4 -4 -7 14 -7
40 0 32 -4 45 -11 40 -7 -4 -9 -22 -6 -45 3 -22 1 -39 -4 -39 -5 0 -9 48 -9
108 0 59 -3 117 -6 130 l-6 22 351 0 351 0 0 -131z m418 -1 c-1 -73 -3 -112
-5 -85 -2 26 -8 47 -12 47 -5 0 -6 -21 -3 -46 3 -34 2 -45 -7 -40 -6 4 -11 25
-11 46 0 21 -4 42 -10 45 -6 4 -10 -14 -10 -46 0 -64 -17 -55 -23 11 l-4 45
-1 -53 c-1 -36 -6 -51 -13 -46 -7 4 -9 22 -6 45 3 22 1 42 -4 45 -5 3 -9 -18
-9 -45 0 -67 -19 -66 -22 2 l-2 52 -3 -52 c-5 -67 -23 -69 -23 -3 0 28 -5 50
-10 50 -7 0 -8 -18 -4 -50 5 -34 3 -50 -5 -50 -7 0 -11 22 -12 58 0 48 -2 53
-10 32 -6 -14 -9 -38 -6 -53 2 -15 0 -30 -5 -33 -4 -3 -8 25 -8 63 0 49 -3 64
-10 53 -6 -8 -9 -36 -8 -62 1 -26 -1 -51 -5 -54 -4 -4 -7 14 -7 39 0 27 -5 47
-11 47 -6 0 -9 -17 -7 -42 4 -57 -15 -55 -23 2 l-6 45 -1 -48 c-1 -27 -6 -46
-11 -43 -5 3 -7 24 -4 46 4 26 2 40 -6 40 -6 0 -12 -20 -13 -47 l-2 -48 -3 48
c-3 39 -8 47 -24 47 -16 0 -19 -7 -18 -37 1 -38 1 -38 9 -8 l8 30 1 -27 c0
-16 1 -31 1 -35 0 -5 -6 -8 -12 -8 -10 0 -15 33 -18 120 -3 66 -4 123 -2 128
2 4 93 7 203 7 l199 0 -2 -132z m713 32 c4 -52 10 -110 14 -127 5 -22 4 -33
-4 -33 -6 0 -11 18 -11 45 0 25 -4 45 -9 45 -5 0 -6 -20 -3 -45 3 -30 1 -45
-7 -45 -6 0 -12 20 -13 48 l-2 47 -3 -47 c-2 -27 -9 -48 -15 -48 -7 0 -9 16
-6 45 3 25 2 45 -3 45 -5 0 -9 -21 -9 -46 0 -32 -4 -44 -12 -41 -8 2 -12 17
-10 39 2 20 -1 39 -7 43 -7 4 -11 -10 -11 -40 0 -28 -4 -44 -10 -40 -5 3 -10
24 -10 46 0 24 -4 38 -10 34 -6 -4 -7 -23 -4 -46 4 -25 3 -39 -4 -39 -6 0 -12
25 -14 58 -2 43 -7 57 -18 57 -11 0 -16 -16 -20 -60 -6 -60 -6 -60 -10 -16 -7
60 -26 65 -21 5 2 -32 0 -44 -8 -40 -6 4 -11 25 -11 47 0 21 -4 39 -10 39 -6
0 -7 -18 -3 -45 4 -31 2 -45 -6 -45 -6 0 -11 17 -11 39 0 22 -5 43 -11 47 -9
5 -10 -6 -7 -40 3 -25 2 -46 -3 -46 -5 0 -9 20 -9 45 0 25 -5 45 -10 45 -6 0
-9 -18 -8 -41 4 -60 -18 -61 -28 -2 -6 33 -15 49 -27 51 -14 3 -17 -4 -17 -48
0 -58 -14 -61 -18 -4 -4 55 -12 55 -12 0 0 -30 -4 -45 -10 -41 -6 4 -10 16 -9
28 3 36 0 57 -10 57 -5 0 -6 -20 -3 -45 3 -30 1 -45 -7 -45 -6 0 -11 18 -11
45 0 26 -5 45 -11 45 -7 0 -8 -14 -4 -39 4 -22 2 -42 -3 -45 -6 -4 -13 32 -17
91 -10 153 -12 157 -14 26 -1 -84 -5 -123 -12 -123 -8 0 -9 13 -5 39 3 23 2
42 -4 46 -6 4 -10 -12 -10 -40 0 -28 -4 -44 -10 -40 -5 3 -10 24 -10 46 0 22
-4 38 -9 35 -5 -3 -7 -24 -4 -46 4 -26 2 -40 -6 -40 -6 0 -11 18 -11 46 0 30
-4 43 -11 38 -7 -4 -9 -21 -6 -40 3 -19 1 -36 -4 -39 -5 -4 -9 14 -9 39 0 61
-19 59 -22 -1 l-2 -48 -3 48 c-2 26 -9 47 -15 47 -7 0 -9 -15 -5 -40 3 -22 1
-40 -4 -40 -5 0 -9 56 -9 125 l0 125 348 -2 347 -3 6 -95z m319 -24 c0 -73 -4
-127 -10 -131 -6 -4 -10 12 -10 39 0 27 -5 46 -11 46 -7 0 -8 -14 -4 -39 4
-24 2 -42 -4 -46 -7 -4 -11 8 -11 34 0 54 -20 53 -22 -1 l-1 -43 -4 43 c-2 23
-9 42 -15 42 -7 0 -8 -13 -5 -35 3 -19 1 -37 -4 -40 -5 -4 -9 14 -9 39 0 25
-4 46 -10 46 -5 0 -10 -21 -10 -46 0 -27 -4 -43 -10 -39 -5 3 -10 25 -10 47 0
23 -3 38 -7 34 -4 -4 -6 -25 -4 -46 1 -24 -2 -40 -8 -40 -6 0 -11 18 -11 39 0
22 -5 43 -11 47 -7 4 -10 -7 -8 -34 2 -23 0 -44 -4 -48 -4 -4 -7 11 -7 34 0
22 -4 44 -10 47 -6 4 -10 -12 -10 -39 0 -25 -4 -46 -10 -46 -5 0 -10 20 -10
45 0 40 -2 45 -22 45 -21 -1 -22 -2 -5 -14 20 -16 24 -80 5 -74 -13 4 -36 142
-37 221 l-1 37 155 0 155 0 0 -124z m760 61 c0 -94 -12 -197 -22 -197 -5 0 -8
21 -7 47 2 31 -1 48 -10 51 -9 3 -12 -8 -10 -42 2 -25 0 -48 -4 -52 -4 -4 -7
14 -7 39 0 26 -4 47 -10 47 -5 0 -10 -21 -10 -47 0 -56 -17 -47 -23 12 -4 39
-4 39 -5 -8 -1 -32 -6 -46 -13 -41 -6 3 -9 24 -7 45 2 25 -1 39 -8 39 -8 0
-10 -15 -6 -45 3 -30 1 -45 -7 -45 -6 0 -12 18 -12 43 -1 23 -5 56 -9 72 -6
23 -8 13 -11 -45 -2 -57 -3 -64 -6 -30 -6 67 -23 75 -23 10 0 -29 -3 -50 -7
-46 -4 4 -6 25 -4 46 1 24 -2 40 -8 40 -6 0 -11 -20 -11 -46 0 -29 -4 -43 -11
-39 -6 4 -9 24 -8 46 2 21 0 41 -4 45 -4 4 -7 -16 -7 -44 0 -29 -4 -52 -10
-52 -5 0 -10 20 -10 45 0 25 -3 45 -8 45 -4 0 -6 -20 -4 -45 3 -28 0 -45 -7
-45 -6 0 -11 19 -11 46 0 57 -20 49 -21 -9 -1 -45 -4 -38 -14 36 -5 38 -10 47
-26 47 -17 0 -19 -7 -19 -61 0 -40 -4 -58 -11 -54 -6 4 -8 22 -4 45 4 23 2 41
-4 45 -7 4 -12 -12 -13 -47 l-1 -53 -4 45 c-6 67 -23 74 -23 10 0 -62 -16 -58
-23 5 -4 40 -4 40 -5 -7 -2 -61 -22 -63 -22 -2 0 38 -3 45 -17 42 -13 -2 -19
-14 -20 -38 -1 -19 1 -26 4 -15 9 36 23 41 23 8 0 -18 -4 -34 -8 -37 -21 -13
-31 15 -35 94 l-3 85 -2 -93 c-1 -59 -6 -91 -12 -87 -5 3 -10 24 -10 46 0 21
-5 39 -11 39 -7 0 -8 -16 -3 -45 4 -30 3 -45 -5 -45 -7 0 -11 20 -11 51 0 27
-4 48 -9 45 -5 -3 -6 -26 -3 -51 3 -30 1 -45 -7 -45 -6 0 -11 17 -11 39 0 59
-20 62 -22 4 l-2 -48 -3 48 c-4 42 -7 47 -29 47 -22 0 -24 -4 -24 -47 0 -26
-3 -43 -7 -37 -5 5 -7 64 -5 131 l3 122 370 0 369 1 0 -63z m180 10 c0 -30 2
-90 4 -133 3 -43 3 -68 0 -54 -11 61 -15 70 -29 70 -11 0 -15 -12 -15 -46 0
-27 -4 -43 -10 -39 -5 3 -10 27 -10 53 0 31 -3 42 -9 33 -5 -7 -6 -31 -4 -52
4 -25 2 -39 -6 -39 -6 0 -11 18 -11 45 0 25 -5 45 -10 45 -6 0 -8 -15 -4 -39
4 -24 2 -41 -5 -45 -7 -5 -11 8 -11 39 0 39 -3 46 -17 43 -13 -2 -20 -16 -24
-48 -4 -25 -6 15 -5 87 l1 133 83 0 82 0 0 -53z m952 -77 c-2 -72 -7 -128 -12
-125 -5 3 -7 23 -6 45 2 26 -1 39 -8 37 -6 -2 -9 -21 -7 -45 1 -25 -2 -42 -8
-42 -7 0 -11 21 -11 51 0 31 -4 48 -10 44 -5 -3 -10 -26 -10 -51 0 -29 -4 -43
-10 -39 -6 4 -8 21 -4 40 3 19 1 35 -5 39 -7 5 -11 -8 -11 -38 0 -28 -5 -46
-11 -46 -8 0 -10 14 -6 45 4 27 3 45 -3 45 -6 0 -10 -20 -10 -45 0 -25 -4 -45
-10 -45 -12 0 -10 -8 -20 135 l-7 110 0 -118 c-1 -65 -3 -121 -7 -124 -3 -4
-6 16 -6 42 0 58 -17 50 -23 -10 -3 -35 -4 -34 -5 13 -2 65 -22 61 -22 -4 0
-24 -4 -44 -10 -44 -5 0 -10 21 -10 46 0 25 -4 43 -9 40 -5 -3 -7 -25 -4 -49
4 -29 2 -39 -5 -32 -6 6 -12 28 -15 50 -4 39 -4 39 -5 -8 -1 -32 -6 -46 -13
-41 -7 4 -9 22 -4 50 4 26 2 44 -3 44 -16 0 -23 -30 -16 -66 4 -20 2 -34 -4
-34 -5 0 -13 32 -16 71 -9 87 -20 83 -17 -7 1 -46 -2 -64 -9 -59 -6 4 -10 22
-8 40 1 19 -1 37 -5 41 -4 4 -7 -15 -7 -42 -1 -39 -3 -45 -11 -31 -6 10 -7 31
-4 47 4 19 3 30 -4 30 -6 0 -11 -19 -11 -45 0 -25 -4 -45 -10 -45 -5 0 -10 20
-10 45 0 25 -4 45 -10 45 -5 0 -10 -21 -10 -46 0 -25 -4 -43 -9 -40 -5 3 -7
24 -4 46 4 26 2 40 -6 40 -6 0 -11 -18 -11 -45 0 -25 -4 -45 -10 -45 -5 0 -10
20 -10 45 0 25 -3 45 -8 45 -4 0 -6 -20 -4 -45 2 -26 0 -45 -6 -45 -6 0 -13
43 -17 98 -8 118 -13 138 -14 55 -1 -35 -5 -63 -11 -63 -5 0 -10 -20 -10 -45
0 -25 -4 -45 -10 -45 -5 0 -10 20 -10 45 0 25 -4 45 -9 45 -6 0 -9 -18 -8 -40
1 -21 -2 -38 -8 -37 -10 2 -11 5 -13 50 -1 16 -6 26 -11 23 -5 -3 -7 -24 -4
-46 4 -26 2 -40 -6 -40 -6 0 -11 17 -11 40 0 54 -20 51 -22 -2 l-1 -43 -4 40
c-6 61 -23 67 -24 10 l-2 -50 -8 64 c-11 86 -19 89 -19 7 0 -46 -3 -65 -11
-60 -7 4 -8 26 -4 64 4 38 3 60 -4 64 -8 5 -11 -15 -11 -63 0 -41 -4 -71 -10
-71 -5 0 -10 20 -10 45 0 25 -4 45 -9 45 -5 0 -7 -18 -4 -40 4 -25 2 -40 -5
-40 -6 0 -13 19 -15 43 l-4 42 -1 -47 c-2 -59 -20 -63 -24 -5 -3 36 -7 43 -27
45 -23 4 -24 2 -18 -42 4 -27 3 -46 -3 -46 -14 0 -19 32 -22 152 l-3 108 470
0 470 0 -3 -130z m188 46 c0 -46 3 -105 6 -132 5 -35 3 -46 -4 -39 -6 6 -12
30 -15 55 l-4 45 -1 -53 c-2 -62 -22 -63 -22 -1 0 21 -4 39 -9 39 -5 0 -6 -20
-3 -45 3 -30 1 -45 -7 -45 -6 0 -11 18 -11 46 0 29 -4 43 -11 39 -6 -4 -9 -23
-7 -44 4 -52 -16 -45 -23 9 l-6 45 -2 -50 c-3 -47 -3 -48 -12 -20 -5 17 -6 38
-3 48 3 9 1 17 -5 17 -6 0 -11 -20 -11 -45 0 -25 -4 -45 -10 -45 -6 0 -10 50
-10 130 l0 130 85 0 85 0 0 -84z m360 -47 c0 -79 -4 -129 -10 -129 -5 0 -10
20 -10 45 0 25 -5 45 -11 45 -6 0 -9 -16 -8 -40 2 -21 0 -42 -4 -46 -4 -4 -7
14 -7 39 0 27 -5 47 -11 47 -6 0 -9 -16 -7 -40 1 -22 -1 -41 -7 -42 -6 -2 -9
13 -7 33 2 21 -1 40 -7 44 -7 4 -11 -10 -11 -41 0 -57 -17 -49 -23 11 -3 38
-4 38 -6 -10 -1 -41 -4 -47 -12 -32 -6 11 -8 32 -5 49 4 21 2 28 -6 26 -8 -3
-11 -20 -9 -47 2 -29 -1 -41 -8 -37 -6 4 -11 40 -11 86 0 74 1 79 23 83 l22 4
-22 8 c-13 4 -23 16 -23 26 0 11 -5 19 -11 19 -9 0 -10 -31 -7 -110 3 -61 2
-113 -3 -116 -5 -3 -9 15 -9 40 0 25 -5 48 -11 52 -7 4 -10 -9 -8 -40 2 -25 0
-48 -4 -52 -4 -4 -7 16 -7 44 0 68 -20 67 -21 0 -1 -29 -3 -42 -6 -28 -9 62
-14 70 -36 70 -20 0 -22 -4 -19 -47 3 -33 1 -45 -6 -38 -8 8 -18 203 -13 247
1 4 78 7 171 7 l170 -1 0 -129z m-4260 51 c0 -5 -2 -10 -4 -10 -3 0 -8 5 -11
10 -3 6 -1 10 4 10 6 0 11 -4 11 -10z m2210 -132 c0 -33 -4 -48 -9 -42 -9 8
-4 94 5 94 2 0 4 -23 4 -52z m-6720 23 c0 -5 3 -16 6 -24 5 -14 -19 -47 -35
-47 -4 0 -7 18 -6 40 0 31 4 40 18 40 9 0 17 -4 17 -9z m300 -38 c0 -12 -4
-25 -10 -28 -6 -4 -10 11 -10 37 0 31 3 39 10 28 5 -8 10 -25 10 -37z m167
-15 c-3 -20 -4 -21 -11 -5 -5 9 -5 29 0 45 7 25 8 26 11 5 3 -13 3 -33 0 -45z
m805 -11 c-11 -22 -23 14 -16 45 l8 33 6 -35 c3 -19 4 -39 2 -43z m725 11 c-2
-13 -4 -3 -4 22 0 25 2 35 4 23 2 -13 2 -33 0 -45z m143 10 c0 -16 -4 -28 -10
-28 -5 0 -10 19 -10 43 0 31 3 38 10 27 5 -8 10 -27 10 -42z m1067 -10 c-2
-13 -4 -3 -4 22 0 25 2 35 4 23 2 -13 2 -33 0 -45z m1302 4 c1 -13 -3 -20 -9
-17 -5 3 -10 23 -9 43 0 30 2 33 9 17 5 -11 9 -30 9 -43z m1128 -4 c-2 -13 -4
-3 -4 22 0 25 2 35 4 23 2 -13 2 -33 0 -45z m200 10 c-2 -13 -4 -5 -4 17 -1
22 1 32 4 23 2 -10 2 -28 0 -40z m553 10 c0 -25 -4 -38 -9 -32 -8 8 -4 74 5
74 2 0 4 -19 4 -42z m740 -20 c-7 -19 -9 -15 -9 22 0 37 2 41 9 23 6 -14 6
-32 0 -45z m130 15 c0 -13 -4 -23 -10 -23 -5 0 -10 17 -10 38 0 27 3 33 10 22
5 -8 10 -25 10 -37z m90 7 c0 -16 -4 -32 -10 -35 -6 -4 -10 10 -10 35 0 25 4
39 10 35 6 -3 10 -19 10 -35z m320 -2 c0 -25 -4 -38 -9 -32 -8 8 -4 74 5 74 2
0 4 -19 4 -42z m810 1 c0 -24 -4 -38 -10 -34 -5 3 -10 22 -10 41 0 19 5 34 10
34 6 0 10 -18 10 -41z m-7893 -21 c-2 -13 -4 -5 -4 17 -1 22 1 32 4 23 2 -10
2 -28 0 -40z m133 16 c0 -21 -4 -33 -10 -29 -5 3 -10 19 -10 36 0 16 5 29 10
29 6 0 10 -16 10 -36z m262 6 c3 -17 1 -33 -4 -36 -4 -3 -8 11 -8 30 0 44 6
47 12 6z m408 0 c0 -16 -4 -30 -10 -30 -11 0 -14 43 -3 53 11 12 13 8 13 -23z
m187 -22 c-2 -13 -4 -5 -4 17 -1 22 1 32 4 23 2 -10 2 -28 0 -40z m1073 17 c0
-13 -4 -27 -10 -30 -6 -4 -10 8 -10 30 0 22 4 34 10 30 6 -3 10 -17 10 -30z
m117 -17 c-2 -13 -4 -5 -4 17 -1 22 1 32 4 23 2 -10 2 -28 0 -40z m1030 0 c-2
-13 -4 -5 -4 17 -1 22 1 32 4 23 2 -10 2 -28 0 -40z m350 5 c-3 -10 -5 -2 -5
17 0 19 2 27 5 18 2 -10 2 -26 0 -35z m333 11 c0 -21 -4 -33 -10 -29 -5 3 -10
19 -10 36 0 16 5 29 10 29 6 0 10 -16 10 -36z m-2390 -5 c0 -16 -4 -28 -9 -25
-8 5 -3 56 5 56 2 0 4 -14 4 -31z"/>
<path d="M4763 8893 c9 -2 17 -8 17 -13 0 -5 -7 -7 -15 -4 -8 4 -15 2 -15 -4
0 -12 26 -23 34 -15 3 4 6 15 6 25 0 12 -7 18 -22 17 -17 -1 -19 -2 -5 -6z"/>
<path d="M4670 8890 c19 -13 30 -13 30 0 0 6 -10 10 -22 10 -19 0 -20 -2 -8
-10z"/>
<path d="M4660 8860 c0 -5 5 -10 10 -10 6 0 10 5 10 10 0 6 -4 10 -10 10 -5 0
-10 -4 -10 -10z"/>
<path d="M3723 8894 c-7 -18 11 -39 26 -30 17 11 13 46 -4 46 -9 0 -18 -7 -22
-16z"/>
<path d="M5040 8881 c0 -16 6 -31 15 -35 10 -4 15 1 15 15 0 11 -4 17 -10 14
-5 -3 -10 -1 -10 4 0 6 5 11 10 11 6 0 10 5 10 10 0 6 -7 10 -15 10 -10 0 -15
-10 -15 -29z"/>
<path d="M3872 8883 c4 -36 33 -39 33 -3 0 16 -6 26 -18 28 -15 3 -18 -2 -15
-25z"/>
<path d="M4184 8896 c-8 -21 -1 -49 14 -54 8 -2 12 8 12 32 0 36 -16 49 -26
22z"/>
<path d="M1584 8601 c3 -17 8 -43 11 -59 4 -21 17 -32 58 -50 74 -33 107 -39
107 -18 0 9 -4 16 -10 16 -5 0 -10 -4 -10 -10 0 -13 -97 24 -121 46 -12 11
-19 31 -19 55 0 21 -5 41 -11 45 -8 4 -9 -3 -5 -25z"/>
<path d="M2323 8613 c9 -11 17 -24 17 -28 0 -5 -24 -34 -52 -64 -52 -54 -52
-54 -10 -20 74 59 91 111 41 127 -10 4 -9 0 4 -15z"/>
<path d="M2246 8562 l-49 -57 53 52 c30 29 52 54 49 57 -2 3 -26 -21 -53 -52z"/>
<path d="M2187 8493 c-8 -12 30 -49 40 -40 3 4 1 7 -6 7 -6 0 -15 10 -20 22
-4 12 -11 17 -14 11z"/>
<path d="M2760 8593 c0 -5 36 -9 80 -11 49 -1 80 2 80 8 0 6 -33 10 -80 10
-44 0 -80 -3 -80 -7z"/>
<path d="M2788 8553 c7 -3 16 -2 19 1 4 3 -2 6 -13 5 -11 0 -14 -3 -6 -6z"/>
<path d="M2850 8553 c0 -5 16 -8 35 -9 19 0 35 3 35 8 0 4 -16 8 -35 8 -19 0
-35 -3 -35 -7z"/>
<path d="M2788 8513 c7 -3 16 -2 19 1 4 3 -2 6 -13 5 -11 0 -14 -3 -6 -6z"/>
<path d="M2863 8513 c9 -2 23 -2 30 0 6 3 -1 5 -18 5 -16 0 -22 -2 -12 -5z"/>
<path d="M2773 8473 c9 -2 25 -2 35 0 9 3 1 5 -18 5 -19 0 -27 -2 -17 -5z"/>
<path d="M2858 8473 c12 -2 32 -2 45 0 12 2 2 4 -23 4 -25 0 -35 -2 -22 -4z"/>
<path d="M3230 8545 c0 -53 1 -55 28 -55 15 0 41 9 58 19 27 16 34 17 55 5 13
-7 31 -13 39 -13 8 0 4 5 -10 10 -14 6 -38 23 -55 39 -30 28 -73 50 -101 50
-10 0 -14 -14 -14 -55z m78 19 c12 -8 22 -19 22 -24 0 -15 -42 -40 -67 -40
-21 0 -23 5 -23 46 0 42 1 45 23 39 12 -4 32 -13 45 -21z"/>
<path d="M3435 8545 c0 -29 3 -51 8 -48 4 2 7 24 7 48 0 24 -3 46 -7 48 -5 3
-8 -19 -8 -48z"/>
<path d="M3794 8586 c-18 -8 -35 -19 -38 -25 -5 -7 -16 -5 -34 6 l-27 17 19
-22 c15 -18 16 -24 6 -37 -31 -37 -75 -3 -50 39 11 20 11 20 -5 4 -25 -23 -13
-68 18 -68 13 0 32 8 43 18 18 18 20 18 58 -10 58 -42 66 -38 66 32 0 65 -4
68 -56 46z m46 -46 c0 -29 -4 -40 -15 -40 -20 0 -65 29 -65 43 0 15 32 36 58
37 19 0 22 -5 22 -40z"/>
<path d="M1160 8551 c-15 -30 -12 -56 10 -76 16 -15 22 -16 35 -5 26 21 37 50
31 76 -8 31 -60 34 -76 5z m65 -11 c10 -16 -23 -60 -39 -54 -21 8 -28 34 -15
50 14 16 45 18 54 4z"/>
<path d="M1182 8519 c2 -6 8 -10 13 -10 5 0 11 4 13 10 2 6 -4 11 -13 11 -9 0
-15 -5 -13 -11z"/>
<path d="M4281 8584 c-27 -34 -27 -64 1 -99 18 -24 26 -27 60 -22 21 3 45 11
53 17 23 19 19 93 -5 115 -32 29 -50 13 -50 -47 0 -38 -3 -49 -10 -38 -5 8
-10 34 -10 58 0 49 -10 53 -39 16z"/>
<path d="M480 8519 c0 -18 4 -20 27 -14 34 8 37 11 28 24 -3 6 -17 11 -31 11
-18 0 -24 -5 -24 -21z"/>
<path d="M4600 8530 c0 -21 4 -30 13 -27 6 2 12 14 12 27 0 13 -6 25 -12 28
-9 2 -13 -7 -13 -28z"/>
<path d="M4685 8549 c-4 -6 -5 -13 -2 -16 7 -7 27 6 27 18 0 12 -17 12 -25 -2z"/>
<path d="M1350 8550 c-12 -7 -12 -12 -2 -22 9 -9 15 -9 24 0 16 16 -2 34 -22
22z"/>
<path d="M353 8543 c-18 -7 -16 -43 2 -43 18 0 31 28 19 39 -5 5 -15 6 -21 4z"/>
<path d="M1020 7995 c0 -14 5 -25 10 -25 6 0 10 11 10 25 0 14 -4 25 -10 25
-5 0 -10 -11 -10 -25z"/>
<path d="M1111 8003 c0 -11 3 -13 6 -5 2 6 9 10 13 7 5 -3 7 -12 3 -20 -3 -8
0 -15 5 -15 16 0 23 16 16 34 -8 22 -44 21 -43 -1z"/>
<path d="M601 7974 c0 -11 3 -14 6 -6 3 7 2 16 -1 19 -3 4 -6 -2 -5 -13z"/>
<path d="M1611 8011 c-16 -29 8 -54 42 -46 29 8 32 16 17 46 -14 24 -46 25
-59 0z m49 -22 c0 -12 -27 -11 -35 1 -11 17 5 32 21 19 8 -6 14 -15 14 -20z"/>
<path d="M1690 8001 c0 -25 4 -31 21 -31 16 0 20 5 17 27 -2 17 -10 29 -20 31
-14 3 -18 -3 -18 -27z m30 -6 c0 -8 -4 -15 -10 -15 -5 0 -10 7 -10 15 0 8 5
15 10 15 6 0 10 -7 10 -15z"/>
<path d="M2431 7995 c-1 -42 2 -56 9 -45 12 18 12 58 0 85 -6 14 -9 3 -9 -40z"/>
<path d="M2193 8023 c-19 -7 -16 -50 3 -57 21 -8 33 2 15 13 -7 5 -11 17 -9
27 3 16 7 14 21 -11 l16 -30 1 26 c0 16 -7 29 -16 33 -9 3 -16 6 -17 5 -1 0
-8 -3 -14 -6z"/>
<path d="M2250 8005 c0 -29 25 -44 43 -26 14 14 -2 44 -27 49 -11 3 -16 -4
-16 -23z m27 -17 c-3 -8 -6 -5 -6 6 -1 11 2 17 5 13 3 -3 4 -12 1 -19z"/>
<path d="M2690 8001 c0 -26 4 -31 24 -31 19 0 26 6 29 28 l4 27 2 -27 c0 -16
7 -28 15 -28 8 0 13 11 12 28 -1 25 -5 27 -43 30 -42 3 -43 2 -43 -27z m40 -7
c0 -8 -4 -14 -9 -14 -11 0 -22 26 -14 34 9 9 23 -3 23 -20z"/>
<path d="M2797 8024 c-4 -4 -7 -18 -7 -31 0 -20 5 -24 23 -21 16 2 22 10 22
28 0 24 -23 39 -38 24z m19 -41 c-10 -10 -19 5 -10 18 6 11 8 11 12 0 2 -7 1
-15 -2 -18z"/>
<path d="M3274 8004 c-7 -27 7 -50 25 -40 6 4 11 15 10 24 0 11 -3 12 -6 5 -6
-17 -23 -16 -23 1 0 15 24 28 34 19 3 -4 6 -15 6 -25 0 -20 16 -25 23 -5 8 21
-13 47 -38 47 -18 0 -26 -7 -31 -26z"/>
<path d="M3360 8016 c0 -8 -3 -21 -6 -30 -4 -11 0 -16 14 -16 26 0 35 14 27
40 -7 23 -35 27 -35 6z m17 -28 c-3 -8 -6 -5 -6 6 -1 11 2 17 5 13 3 -3 4 -12
1 -19z"/>
<path d="M2630 8014 c0 -4 8 -13 18 -21 16 -14 16 -14 0 -9 -12 3 -18 0 -18
-9 0 -17 26 -20 35 -5 10 16 -5 50 -21 50 -8 0 -14 -3 -14 -6z"/>
<path d="M2310 7858 c0 -23 3 -29 9 -19 8 12 4 51 -5 51 -2 0 -4 -15 -4 -32z"/>
<path d="M3781 7860 c0 -33 1 -34 10 -11 6 16 6 28 -1 35 -7 7 -10 -1 -9 -24z"/>
<path d="M5120 7996 c0 -19 5 -38 10 -41 6 -4 10 8 10 29 0 19 -4 38 -10 41
-6 4 -10 -8 -10 -29z"/>
<path d="M5155 8020 c-12 -20 6 -50 31 -50 24 0 30 13 18 44 -7 18 -39 22 -49
6z m35 -25 c0 -8 -4 -15 -10 -15 -5 0 -10 7 -10 15 0 8 5 15 10 15 6 0 10 -7
10 -15z"/>
<path d="M5070 8002 c0 -22 27 -49 37 -38 4 4 2 11 -5 15 -7 4 -12 14 -10 21
2 7 -3 15 -9 17 -8 3 -13 -3 -13 -15z"/>
<path d="M5883 8033 c-7 -3 -13 -18 -13 -34 0 -24 4 -29 25 -29 14 0 28 7 32
16 7 19 -26 54 -44 47z m27 -39 c0 -8 -4 -14 -10 -14 -5 0 -10 9 -10 21 0 11
5 17 10 14 6 -3 10 -13 10 -21z"/>
<path d="M5814 8016 c-10 -26 0 -51 21 -51 16 0 20 7 20 30 0 33 -30 49 -41
21z m31 -16 c3 -5 3 -15 -1 -21 -6 -11 -23 6 -24 24 0 10 18 9 25 -3z"/>
<path d="M5711 7938 c0 -46 4 -91 7 -101 4 -9 7 24 7 75 0 80 2 93 18 96 13 3
17 -3 17 -22 0 -14 5 -26 10 -26 6 0 10 14 10 30 0 28 -3 30 -35 30 l-35 0 1
-82z"/>
<path d="M6190 8002 c0 -45 14 -62 52 -62 27 0 28 2 28 50 l0 50 -40 0 c-40 0
-40 0 -40 -38z m60 11 c0 -5 3 -18 6 -30 5 -20 2 -23 -20 -23 -22 0 -26 4 -26
30 0 23 4 30 20 30 11 0 20 -3 20 -7z"/>
<path d="M6713 8023 c-17 -6 -16 -24 0 -47 19 -25 47 -10 47 25 0 29 -15 36
-47 22z m37 -29 c0 -16 -16 -19 -25 -4 -8 13 4 32 16 25 5 -4 9 -13 9 -21z"/>
<path d="M6770 8000 c0 -22 5 -26 27 -25 30 0 41 19 23 40 -19 23 -50 14 -50
-15z"/>
<path d="M7442 8018 c-27 -27 5 -66 40 -47 9 5 19 5 22 1 3 -5 19 -7 36 -4 27
4 31 8 28 30 -2 14 -8 27 -14 29 -7 2 -10 -7 -8 -24 l4 -28 -11 28 c-13 33
-46 37 -52 5 l-4 -23 -2 23 c-1 24 -20 29 -39 10z m88 -24 c0 -8 -4 -14 -10
-14 -5 0 -10 9 -10 21 0 11 5 17 10 14 6 -3 10 -13 10 -21z m-60 1 c0 -8 -4
-15 -10 -15 -5 0 -10 7 -10 15 0 8 5 15 10 15 6 0 10 -7 10 -15z"/>
<path d="M7863 8023 c-7 -2 -13 -16 -13 -29 0 -20 5 -24 30 -24 27 0 30 3 30
30 0 30 -14 37 -47 23z m37 -34 c0 -5 -6 -9 -14 -9 -15 0 -28 24 -19 34 7 7
33 -13 33 -25z"/>
<path d="M7924 8016 c-10 -26 4 -46 31 -46 23 0 26 4 23 28 -3 31 -44 45 -54
18z m46 -21 c0 -8 -7 -15 -15 -15 -8 0 -15 7 -15 15 0 8 7 15 15 15 8 0 15 -7
15 -15z"/>
<path d="M8590 7970 c0 -5 5 -10 10 -10 6 0 10 5 10 10 0 6 -4 10 -10 10 -5 0
-10 -4 -10 -10z"/>
<path d="M31 7844 c0 -11 3 -14 6 -6 3 7 2 16 -1 19 -3 4 -6 -2 -5 -13z"/>
<path d="M7 8034 c-4 -4 -7 -20 -7 -35 0 -22 6 -30 26 -35 32 -8 46 6 42 42
-2 23 -9 30 -28 32 -14 2 -29 0 -33 -4z m35 -21 c-10 -4 -10 -8 0 -21 11 -13
11 -14 -2 -10 -23 7 -25 38 -3 37 11 0 13 -3 5 -6z"/>
<path d="M8970 8001 c0 -28 3 -30 35 -29 31 1 34 4 30 27 l-5 26 12 -27 c16
-37 28 -35 28 5 0 22 -3 28 -9 18 -5 -7 -11 -9 -14 -4 -3 5 -22 10 -41 11 -34
2 -36 1 -36 -27z m34 -5 c-3 -9 -10 -16 -15 -16 -14 0 -11 28 4 33 16 6 19 3
11 -17z"/>
<path d="M7156 7543 c-8 -8 -8 -6229 0 -6269 l5 -29 302 2 c166 1 596 2 955 2
l652 1 0 1404 0 1404 -47 16 c-84 27 -293 75 -448 102 -144 25 -168 26 -575
28 -285 2 -439 7 -467 15 -95 26 -188 120 -214 214 -16 59 -7 144 20 198 13
25 61 87 107 137 103 110 124 152 124 247 0 96 -27 148 -133 262 -128 136
-155 204 -122 303 21 62 63 113 119 143 l41 22 798 3 797 3 0 169 0 169 -376
1 c-417 1 -423 1 -443 63 -22 65 19 118 93 119 38 1 45 4 51 25 l5 23 335 0
335 0 0 345 0 345 -408 0 c-450 0 -522 6 -522 45 0 19 -7 24 -41 29 -23 4 -55
14 -73 23 -17 10 -53 20 -80 23 -63 6 -75 30 -16 30 23 0 62 6 88 14 26 8 64
17 85 21 27 4 37 11 37 24 0 13 10 20 31 25 17 3 220 6 449 6 230 0 425 3 434
6 14 5 16 28 16 148 l0 141 -954 2 c-524 2 -956 0 -960 -4z m934 -1193 l0
-300 -375 0 -375 0 0 293 c0 162 3 297 7 300 3 4 172 7 375 7 l368 0 0 -300z
m230 -2373 c63 -29 581 -548 630 -631 53 -90 69 -149 70 -248 0 -92 -9 -138
-65 -343 -45 -164 -68 -285 -100 -525 -48 -359 -92 -531 -162 -637 -49 -75
-126 -140 -213 -182 l-75 -36 -295 0 -296 0 -49 26 c-138 70 -148 218 -24 334
136 127 323 134 474 19 44 -34 44 -29 1 123 -61 211 -74 290 -127 793 -20 189
-62 325 -131 430 -20 30 -84 106 -142 169 -134 144 -161 195 -161 306 0 70 4
89 32 146 18 36 55 89 83 117 141 143 400 209 550 139z"/>
<path d="M7360 6350 l0 -280 355 0 355 0 0 280 0 280 -355 0 -355 0 0 -280z"/>
<path d="M8046 3974 c-199 -48 -344 -183 -376 -351 -23 -115 9 -188 140 -328
120 -128 162 -185 209 -286 49 -106 65 -177 90 -414 48 -437 62 -522 130 -755
22 -74 37 -139 34 -144 -3 -5 -2 -6 4 -3 11 7 84 -65 102 -100 18 -36 14 -73
-8 -73 -36 0 -71 57 -116 186 -7 22 -128 93 -177 105 -196 47 -408 -81 -408
-246 0 -55 18 -93 60 -129 53 -44 84 -47 396 -44 l290 3 75 37 c128 63 211
163 258 312 37 117 55 207 86 438 35 266 52 364 79 470 14 51 41 155 60 231
60 230 45 350 -62 494 -28 38 -167 183 -309 324 -224 222 -265 258 -307 272
-60 21 -168 21 -250 1z"/>
<path d="M8280 1679 c1 -28 65 -144 83 -147 42 -8 2 86 -62 142 -16 14 -21 16
-21 5z"/>
<path d="M1575 7059 c-119 -18 -257 -68 -356 -132 -117 -75 -206 -174 -294
-327 -79 -138 -115 -158 -555 -322 -158 -59 -181 -73 -209 -131 -18 -36 -21
-62 -21 -158 0 -142 19 -230 70 -338 116 -241 422 -396 780 -395 110 0 134 3
204 27 l79 28 60 -58 c89 -88 182 -217 237 -329 121 -247 219 -639 237 -944 7
-123 -16 -236 -87 -425 -91 -247 -131 -364 -147 -438 -11 -54 -16 -173 -21
-477 l-7 -405 -38 -79 c-48 -101 -131 -204 -201 -251 -110 -73 -174 -166 -183
-266 -7 -73 25 -147 96 -222 86 -91 201 -137 341 -137 303 0 510 184 644 568
71 203 77 254 82 667 4 323 7 382 25 463 11 50 24 92 29 92 4 0 21 -35 36 -77
l28 -78 4 -390 c4 -425 -4 -541 -45 -685 -31 -108 -75 -196 -156 -309 -119
-165 -115 -284 14 -425 83 -91 202 -124 329 -92 111 28 168 62 260 155 91 91
153 194 199 328 25 76 63 261 91 448 28 189 47 262 130 520 86 267 110 380
110 512 0 158 -36 287 -110 402 -22 34 -40 63 -40 65 0 2 105 6 233 9 330 8
585 48 821 127 l118 39 -5 -32 c-19 -110 -29 -344 -18 -445 29 -275 108 -415
339 -599 157 -125 207 -216 200 -363 -3 -73 -9 -96 -41 -161 -31 -66 -44 -81
-94 -114 -78 -52 -164 -140 -191 -196 -44 -92 -20 -183 71 -265 63 -57 128
-90 221 -114 154 -39 369 -35 491 11 108 40 190 142 228 284 45 168 68 505 48
706 -12 128 -38 240 -76 337 -14 34 -25 64 -25 67 0 8 315 -236 358 -278 60
-58 96 -119 127 -212 24 -70 27 -91 23 -180 -6 -143 -24 -181 -111 -223 -172
-85 -260 -291 -185 -437 49 -95 137 -158 260 -185 92 -21 305 -8 404 24 91 29
204 102 251 163 96 121 133 310 133 678 0 222 -15 374 -50 510 -57 220 -122
326 -325 529 -122 122 -148 154 -181 221 l-39 79 -6 505 c-3 279 -8 513 -11
521 -25 60 -22 66 55 105 238 122 403 304 493 543 75 199 106 383 107 622 0
245 -33 368 -127 465 -53 55 -110 67 -177 37 -74 -32 -84 -52 -124 -236 -118
-534 -272 -749 -584 -816 -165 -35 -181 -35 -249 -1 -91 46 -299 127 -411 160
-161 48 -468 107 -752 146 -653 88 -1007 156 -1202 230 -88 33 -232 105 -283
143 -38 28 -42 35 -49 89 -4 32 -18 101 -32 153 -95 368 -349 692 -673 859
-191 99 -390 137 -575 110z m340 -243 c420 -141 736 -570 735 -1000 0 -172
-65 -366 -165 -497 -59 -75 -142 -145 -315 -262 -156 -105 -236 -180 -271
-254 -23 -50 -39 -67 -39 -40 0 47 -119 309 -176 390 -19 26 -34 49 -34 52 0
3 44 5 98 5 238 0 462 120 556 299 64 122 85 285 56 426 -48 237 -248 539
-450 684 -61 44 -68 46 -131 46 -58 0 -71 -3 -94 -25 -37 -34 -47 -55 -54
-114 l-6 -51 -28 47 c-31 53 -71 87 -137 117 -54 25 -173 28 -235 6 l-40 -14
52 47 c68 62 145 108 231 138 158 55 283 55 447 0z m-521 -388 c15 -13 29 -37
32 -55 5 -27 1 -37 -24 -63 -17 -16 -41 -30 -54 -30 -38 0 -85 35 -93 69 -7
31 14 85 37 94 32 13 78 6 102 -15z m516 -95 c172 -189 258 -383 248 -565 -6
-106 -34 -172 -98 -232 -89 -83 -188 -117 -345 -117 -126 -1 -305 40 -305 68
0 5 16 17 36 28 20 11 62 47 93 81 123 134 203 348 266 707 12 64 22 97 30 97
7 0 41 -30 75 -67z m-860 5 c1 -99 75 -206 173 -249 100 -43 236 -22 309 48
15 15 30 25 32 22 8 -8 -57 -207 -94 -286 -60 -129 -151 -205 -278 -232 -126
-27 -317 -4 -422 49 -23 12 -68 45 -100 75 -38 35 -71 56 -93 60 -63 12 -121
-18 -147 -78 l-17 -38 -21 53 c-31 76 -43 146 -40 217 l3 62 160 64 c336 133
446 190 498 256 12 15 25 28 30 28 4 1 7 -23 7 -51z m5553 -628 c-1 -392 -117
-705 -321 -865 -47 -37 -198 -125 -215 -125 -2 0 -23 28 -46 63 -22 34 -66 89
-96 121 -30 32 -54 60 -53 61 2 1 39 14 84 29 290 95 489 357 596 782 41 164
51 151 51 -66z m-3702 -111 c170 -100 490 -188 944 -260 72 -11 137 -22 145
-25 8 -3 -31 -23 -88 -44 -228 -86 -431 -214 -610 -385 -179 -170 -260 -276
-447 -585 -138 -228 -215 -315 -333 -378 -88 -47 -139 -55 -220 -36 -37 9 -72
22 -78 28 -11 11 -78 185 -108 281 -42 138 -61 386 -35 479 16 59 78 117 237
223 173 116 301 234 377 347 50 75 112 211 129 281 17 70 27 105 31 105 2 0
28 -14 56 -31z m2018 -433 c152 -31 309 -82 456 -148 279 -125 431 -253 517
-435 61 -129 61 -123 67 -683 l6 -515 27 -68 c46 -113 112 -203 253 -342 143
-141 180 -188 230 -298 70 -155 91 -328 81 -682 -6 -253 -13 -335 -27 -335 -5
0 -9 5 -9 10 0 24 -84 121 -133 153 -29 20 -79 43 -112 53 -33 10 -61 19 -63
20 -2 1 5 39 14 85 14 72 15 97 5 171 -23 176 -85 319 -186 427 -64 68 -232
200 -540 425 -217 159 -287 222 -353 321 -83 126 -130 247 -192 500 -87 354
-115 428 -182 478 -83 62 -176 52 -245 -27 -38 -43 -56 -90 -102 -266 l-36
-142 -119 -49 c-277 -115 -543 -158 -971 -159 -126 0 -248 -5 -269 -10 -52
-12 -87 -38 -110 -84 -30 -61 -17 -107 65 -222 125 -175 146 -241 136 -417 -8
-118 -17 -157 -97 -402 -77 -238 -102 -340 -140 -584 -55 -356 -101 -488 -210
-604 -122 -131 -248 -160 -315 -73 -38 50 -33 81 31 172 109 156 168 301 200
495 13 81 18 193 21 514 4 378 3 417 -15 505 -24 115 -80 262 -201 520 -50
106 -91 195 -91 196 0 1 17 0 38 -3 53 -7 160 21 244 63 164 82 278 207 445
489 172 288 307 456 482 597 208 168 468 291 742 352 160 35 155 35 354 31
145 -3 204 -8 304 -29z m-163 -1393 c87 -341 113 -400 288 -667 338 -513 385
-659 357 -1099 -14 -213 -20 -267 -30 -267 -3 0 -15 16 -26 37 -45 82 -150
162 -236 178 -58 11 -60 14 -37 80 28 79 29 234 4 320 -41 139 -117 237 -279
364 -149 116 -199 190 -234 346 -24 103 -21 332 6 525 20 141 84 451 99 475 8
12 20 -28 88 -292z m-2676 -105 c32 -79 78 -185 102 -236 l44 -92 -42 -84
c-45 -93 -87 -239 -103 -359 -6 -43 -11 -221 -11 -395 0 -334 -5 -387 -46
-528 -25 -87 -101 -264 -113 -264 -4 0 -15 16 -25 35 -43 79 -132 146 -250
189 -18 6 -18 7 1 29 29 31 78 133 98 203 15 49 19 128 25 469 8 461 8 461
101 703 83 218 117 319 135 400 9 45 19 80 22 78 2 -2 30 -69 62 -148z m2995
-1927 c51 -23 74 -49 120 -134 27 -48 34 -72 27 -79 -7 -7 -61 -9 -159 -5
-168 5 -234 21 -289 69 l-35 31 43 44 c86 88 201 117 293 74z m-3517 -1 c63
-14 118 -60 148 -124 39 -83 35 -91 -47 -111 -85 -21 -168 -16 -226 13 -45 23
-103 84 -103 109 0 24 80 97 121 110 45 15 50 15 107 3z m4649 -61 c27 -7 58
-25 78 -45 39 -39 99 -140 92 -157 -14 -36 -218 -74 -313 -58 -115 19 -154 47
-154 111 0 56 54 114 130 140 64 22 104 24 167 9z"/>
<path d="M8286 6237 c-33 -33 -34 -76 -3 -105 23 -22 27 -22 405 -22 l382 0 0
70 0 70 -334 0 c-183 0 -354 3 -379 6 -40 6 -49 3 -71 -19z"/>
<path d="M7490 5731 c-105 -32 -170 -116 -170 -218 1 -70 28 -120 124 -224 47
-51 95 -111 106 -134 43 -89 45 -198 5 -276 -9 -17 -54 -71 -100 -120 -106
-113 -130 -161 -130 -254 1 -112 57 -198 168 -257 41 -23 49 -23 497 -29 433
-5 462 -7 600 -32 140 -25 399 -86 454 -107 l26 -10 0 255 0 255 -508 0 c-592
0 -582 -1 -668 85 -70 69 -88 128 -88 280 0 133 18 194 76 259 22 26 61 59 86
74 l47 27 528 3 527 3 0 214 0 215 -777 -1 c-428 0 -789 -4 -803 -8z"/>
<path d="M8069 5289 c-77 -8 -115 -26 -165 -75 -66 -67 -79 -109 -79 -274 0
-138 2 -148 27 -196 15 -28 44 -66 64 -84 77 -67 55 -65 632 -68 l522 -3 0
353 0 353 -467 1 c-258 0 -498 -3 -534 -7z"/>
</g>
</svg>
