<?xml version="1.0" standalone="no"?>
<!DOCTYPE svg PUBLIC "-//W3C//DTD SVG 20010904//EN"
 "http://www.w3.org/TR/2001/REC-SVG-20010904/DTD/svg10.dtd">
<svg version="1.0" xmlns="http://www.w3.org/2000/svg"
 width="170.078740pt" height="170.078740pt" viewBox="0 0 170.078740 170.078740"
 preserveAspectRatio="xMidYMid meet">
<metadata>
Created by potrace 1.16, written by Peter Selinger 2001-2019
</metadata>
<g transform="translate(0.000000,170.078740) scale(0.018752,-0.018752)"
fill="#000000" stroke="none">
<path d="M2268 7773 c1251 -2 3294 -2 4540 0 1247 1 224 2 -2273 2 -2497 0
-3517 -1 -2267 -2z"/>
<path d="M2792 7138 c-92 -13 -238 -62 -309 -104 -147 -88 -230 -176 -368
-395 -126 -200 -178 -263 -385 -474 -109 -110 -200 -210 -204 -223 -4 -12 -2
-48 4 -80 28 -133 147 -285 274 -347 95 -48 162 -64 282 -72 306 -18 694 94
981 283 45 30 102 77 128 106 67 75 148 246 186 393 66 258 28 443 -114 558
-145 118 -345 141 -476 54 -20 -14 -49 -47 -65 -77 -25 -45 -29 -65 -29 -124
1 -46 8 -90 22 -126 30 -79 134 -257 267 -458 63 -95 112 -177 109 -182 -3 -5
-40 -32 -83 -61 -169 -113 -437 -220 -636 -254 -116 -19 -300 -22 -383 -5
-160 33 -306 154 -338 280 -5 23 5 36 92 112 219 192 351 345 503 583 141 220
206 294 321 362 141 84 387 116 564 74 107 -26 228 -83 308 -147 79 -64 173
-179 517 -635 165 -218 306 -401 314 -409 37 -30 35 -31 -318 -60 -403 -34
-515 -58 -626 -132 -71 -47 -112 -104 -137 -188 -33 -113 -4 -326 181 -1335
30 -165 79 -442 110 -615 42 -242 226 -1202 251 -1314 4 -21 -46 -76 -91 -99
-16 -8 -72 -26 -124 -40 -201 -54 -290 -117 -320 -229 -10 -33 -13 -37 -38
-33 -48 9 -591 54 -773 65 -97 6 -362 11 -590 11 -380 0 -454 -3 -904 -35
-428 -32 -561 -43 -837 -73 l-58 -6 0 -48 0 -48 32 5 c199 27 522 55 913 80
540 33 636 36 1010 30 442 -7 678 -21 1133 -68 l123 -12 42 -41 c87 -83 185
-110 373 -102 202 8 334 56 435 158 78 78 109 148 279 614 28 77 57 156 65
175 8 19 28 71 44 115 16 44 68 184 116 310 120 319 181 493 194 558 14 64 -3
167 -39 236 -23 46 -23 45 45 56 196 31 446 153 634 310 114 95 364 354 510
529 309 369 526 543 783 627 114 37 158 37 58 0 -182 -68 -321 -161 -458 -306
-178 -187 -300 -419 -354 -668 -29 -138 -32 -427 -5 -562 34 -165 98 -344 257
-715 130 -304 169 -437 170 -570 0 -81 -15 -104 -124 -191 -175 -139 -262
-251 -260 -334 2 -83 50 -134 150 -160 146 -38 309 3 485 123 103 69 161 122
239 220 74 91 143 221 184 344 15 42 44 170 66 285 90 466 129 597 302 1003
108 253 127 304 174 454 47 148 63 227 73 371 l6 90 32 -100 c50 -156 90 -325
122 -515 75 -442 79 -824 14 -1288 -30 -215 -29 -225 30 -230 45 -4 48 2 76
148 105 541 115 821 51 1293 -71 510 -206 908 -436 1285 -202 330 -398 537
-595 632 -154 73 -170 75 -564 74 -203 -1 -455 -8 -600 -18 -368 -24 -832 -53
-1060 -66 -110 -6 -207 -13 -215 -15 -9 -3 -25 11 -40 34 -81 125 -752 1000
-826 1077 -212 221 -522 320 -852 272z m298 -364 c90 -29 174 -111 206 -201
27 -78 13 -259 -31 -389 -32 -96 -88 -215 -98 -211 -16 5 -145 198 -248 372
-108 181 -138 265 -120 334 15 59 47 90 108 107 53 15 114 11 183 -12z m3628
-1020 c176 -35 348 -153 504 -345 70 -86 168 -232 168 -250 0 -10 -101 36
-161 73 -232 142 -626 74 -937 -162 -94 -71 -305 -283 -443 -445 -356 -418
-573 -613 -804 -725 -119 -58 -199 -84 -318 -105 l-88 -15 -55 45 c-102 83
-212 125 -334 127 l-72 2 -74 68 c-321 301 -824 1082 -824 1281 0 98 76 195
185 236 110 41 293 69 610 91 83 6 231 17 330 25 210 16 582 41 845 55 102 5
327 19 500 30 434 27 409 26 663 28 173 2 246 -2 305 -14z m626 -712 c31 -38
67 -93 80 -123 35 -75 56 -210 56 -354 0 -238 -34 -355 -275 -935 -156 -379
-204 -540 -270 -910 -42 -235 -64 -319 -114 -425 -90 -191 -300 -391 -471
-448 -44 -15 -102 -21 -168 -18 l-34 1 29 34 c15 19 85 84 155 145 137 120
160 146 184 213 20 53 22 198 5 283 -32 153 -67 253 -212 594 -125 293 -143
340 -179 476 -89 336 -49 655 118 941 182 313 467 510 829 573 60 11 131 20
160 20 l52 1 55 -68z m-3839 -422 c186 -279 400 -550 527 -666 l54 -49 -25
-50 -26 -49 -5 -946 -5 -945 -27 -57 c-35 -75 -104 -141 -173 -167 -91 -34
-225 -45 -327 -28 -47 8 -97 23 -112 32 -26 17 -26 18 -9 37 31 35 95 66 193
94 171 49 233 86 305 185 l38 50 -58 272 c-31 150 -86 405 -122 567 -35 162
-73 336 -83 385 -11 50 -38 171 -60 270 -73 322 -191 901 -234 1155 -14 80
-28 161 -32 180 -5 29 1 22 36 -40 23 -41 88 -145 145 -230z"/>
<path d="M2390 6599 c-40 -16 -79 -60 -86 -95 -13 -69 38 -148 103 -160 75
-14 163 53 163 124 0 91 -100 164 -180 131z"/>
<path d="M0 1140 c0 -13 9057 -12 9065 1 4 5 -1727 9 -4529 9 -2897 0 -4536
-3 -4536 -10z"/>
</g>
</svg>
