999
"DXF R12 Output" (www.mydxf.blogspot.com)
 0 
SECTION
 2 
HEADER
 9 
$ACADVER
 1 
AC1009
 9 
$EXTMIN
 10 
 0 
 20 
 0 
 9 
$EXTMAX
 10 
 8.5 
 20 
 11 
 0 
ENDSEC
 0 
SECTION
 2 
ENTITIES
0
LINE
8
Layer 1
10
15.636000
20
34.134600
11
14.379830
21
33.519739
0
LINE
8
Layer 1
10
14.379830
20
33.519739
11
13.255890
21
32.937935
0
LINE
8
Layer 1
10
13.255890
20
32.937935
11
12.330293
21
32.891655
0
LINE
8
Layer 1
10
12.330293
20
32.891655
11
9.665893
21
32.739593
0
LINE
8
Layer 1
10
9.665893
20
32.739593
11
8.055187
21
32.672652
0
LINE
8
Layer 1
10
8.055187
20
32.672652
11
7.570073
21
32.858598
0
LINE
8
Layer 1
10
7.570073
20
32.858598
11
6.776704
21
33.175946
0
LINE
8
Layer 1
10
6.776704
20
33.175946
11
3.365214
21
34.114766
0
LINE
8
Layer 1
10
3.365214
20
34.114766
11
2.776799
21
33.420568
0
LINE
8
Layer 1
10
2.776799
20
33.420568
11
2.762750
21
33.137930
0
LINE
8
Layer 1
10
2.762750
20
33.137930
11
2.981753
21
32.587530
0
LINE
8
Layer 1
10
2.981753
20
32.587530
11
3.847848
21
30.756170
0
LINE
8
Layer 1
10
3.847848
20
30.756170
11
4.436263
21
29.552890
0
LINE
8
Layer 1
10
4.436263
20
29.552890
11
3.874293
21
28.812412
0
LINE
8
Layer 1
10
3.874293
20
28.812412
11
3.305712
21
27.979374
0
LINE
8
Layer 1
10
3.305712
20
27.979374
11
3.537111
21
26.881884
0
LINE
8
Layer 1
10
3.537111
20
26.881884
11
4.066024
21
24.561284
0
LINE
8
Layer 1
10
4.066024
20
24.561284
11
4.469320
21
22.977853
0
LINE
8
Layer 1
10
4.469320
20
22.977853
11
4.832948
21
22.505134
0
LINE
8
Layer 1
10
4.832948
20
22.505134
11
5.196576
21
22.346460
0
LINE
8
Layer 1
10
5.196576
20
22.346460
11
5.513924
21
22.194398
0
LINE
8
Layer 1
10
5.513924
20
22.194398
11
7.054384
21
21.361360
0
LINE
8
Layer 1
10
7.054384
20
21.361360
11
7.669245
21
21.116738
0
LINE
8
Layer 1
10
7.669245
20
21.116738
11
8.217992
21
20.349814
0
LINE
8
Layer 1
10
8.217992
20
20.349814
11
10.275175
21
17.642752
0
LINE
8
Layer 1
10
10.275175
20
17.642752
11
12.160047
21
15.522659
0
LINE
8
Layer 1
10
12.160047
20
15.522659
11
14.062274
21
13.798011
0
LINE
8
Layer 1
10
14.062274
20
13.798011
11
16.171522
21
12.277284
0
LINE
8
Layer 1
10
16.171522
20
12.277284
11
17.665702
21
11.364909
0
LINE
8
Layer 1
10
17.665702
20
11.364909
11
18.293786
21
10.968224
0
LINE
8
Layer 1
10
18.293786
20
10.968224
11
17.189676
21
10.036015
0
LINE
8
Layer 1
10
17.189676
20
10.036015
11
15.236830
21
8.314571
0
LINE
8
Layer 1
10
15.236830
20
8.314571
11
14.806778
21
7.779562
0
LINE
8
Layer 1
10
14.806778
20
7.779562
11
14.617836
21
7.331945
0
LINE
8
Layer 1
10
14.617836
20
7.331945
11
14.645934
21
6.260071
0
LINE
8
Layer 1
10
14.645934
20
6.260071
11
14.882292
21
5.183235
0
LINE
8
Layer 1
10
14.882292
20
5.183235
11
15.336826
21
4.614654
0
LINE
8
Layer 1
10
15.336826
20
4.614654
11
15.920282
21
4.244415
0
LINE
8
Layer 1
10
15.920282
20
4.244415
11
18.280552
21
4.231192
0
LINE
8
Layer 1
10
18.280552
20
4.231192
11
19.687957
21
4.432841
0
LINE
8
Layer 1
10
19.687957
20
4.432841
11
20.416042
21
4.852665
0
LINE
8
Layer 1
10
20.416042
20
4.852665
11
20.811074
21
5.412983
0
LINE
8
Layer 1
10
20.811074
20
5.412983
11
20.958178
21
6.300565
0
LINE
8
Layer 1
10
20.958178
20
6.300565
11
21.116852
21
7.126991
0
LINE
8
Layer 1
10
21.116852
20
7.126991
11
21.268914
21
7.160048
0
LINE
8
Layer 1
10
21.268914
20
7.160048
11
21.804438
21
6.617912
0
LINE
8
Layer 1
10
21.804438
20
6.617912
11
23.719267
21
6.183212
0
LINE
8
Layer 1
10
23.719267
20
6.183212
11
27.205958
21
5.758429
0
LINE
8
Layer 1
10
27.205958
20
5.758429
11
28.944758
21
5.586532
0
LINE
8
Layer 1
10
28.944758
20
5.586532
11
29.748044
21
5.716281
0
LINE
8
Layer 1
10
29.748044
20
5.716281
11
29.997213
21
5.927743
0
LINE
8
Layer 1
10
29.997213
20
5.927743
11
30.095148
21
6.208005
0
LINE
8
Layer 1
10
30.095148
20
6.208005
11
30.114982
21
6.412959
0
LINE
8
Layer 1
10
30.114982
20
6.412959
11
30.352993
21
6.300565
0
LINE
8
Layer 1
10
30.352993
20
6.300565
11
31.355449
21
6.177428
0
LINE
8
Layer 1
10
31.355449
20
6.177428
11
32.858713
21
6.426182
0
LINE
8
Layer 1
10
32.858713
20
6.426182
11
35.376004
21
7.182362
0
LINE
8
Layer 1
10
35.376004
20
7.182362
11
35.960289
21
7.479565
0
LINE
8
Layer 1
10
35.960289
20
7.479565
11
36.276813
21
7.794742
0
LINE
8
Layer 1
10
36.276813
20
7.794742
11
36.416479
21
8.388943
0
LINE
8
Layer 1
10
36.416479
20
8.388943
11
36.164419
21
9.989732
0
LINE
8
Layer 1
10
36.164419
20
9.989732
11
35.238822
21
15.602822
0
LINE
8
Layer 1
10
35.238822
20
15.602822
11
35.133039
21
18.049042
0
LINE
8
Layer 1
10
35.133039
20
18.049042
11
34.994199
21
20.151472
0
LINE
8
Layer 1
10
34.994199
20
20.151472
11
34.508261
21
20.806829
0
LINE
8
Layer 1
10
34.508261
20
20.806829
11
33.526469
21
21.447312
0
LINE
8
Layer 1
10
33.526469
20
21.447312
11
27.928254
21
23.848081
0
LINE
8
Layer 1
10
27.928254
20
23.848081
11
22.875469
21
25.718282
0
LINE
8
Layer 1
10
22.875469
20
25.718282
11
22.309781
21
25.742662
0
LINE
8
Layer 1
10
22.309781
20
25.742662
11
21.905247
21
25.566220
0
LINE
8
Layer 1
10
21.905247
20
25.566220
11
21.711452
21
25.231104
0
LINE
8
Layer 1
10
21.711452
20
25.231104
11
21.777979
21
24.779462
0
LINE
8
Layer 1
10
21.777979
20
24.779462
11
21.176341
21
25.024084
0
LINE
8
Layer 1
10
21.176341
20
25.024084
11
17.996251
21
26.445534
0
LINE
8
Layer 1
10
17.996251
20
26.445534
11
17.421058
21
26.524871
0
LINE
8
Layer 1
10
17.421058
20
26.524871
11
17.292136
21
26.484376
0
LINE
8
Layer 1
10
17.292136
20
26.484376
11
17.321887
21
26.617431
0
LINE
8
Layer 1
10
17.321887
20
26.617431
11
17.232633
21
27.294275
0
LINE
8
Layer 1
10
17.232633
20
27.294275
11
16.588020
21
28.343011
0
LINE
8
Layer 1
10
16.588020
20
28.343011
11
16.131833
21
28.990929
0
LINE
8
Layer 1
10
16.131833
20
28.990929
11
16.264061
21
29.209106
0
LINE
8
Layer 1
10
16.264061
20
29.209106
11
16.455792
21
30.346266
0
LINE
8
Layer 1
10
16.455792
20
30.346266
11
16.601243
21
32.448696
0
LINE
8
Layer 1
10
16.601243
20
32.448696
11
16.630994
21
33.619740
0
LINE
8
Layer 1
10
16.630994
20
33.619740
11
16.383066
21
34.002376
0
LINE
8
Layer 1
10
16.383066
20
34.002376
11
15.635977
21
34.134604
0
LINE
8
Layer 1
10
15.635977
20
34.134604
11
15.636000
21
34.134600
0
LINE
8
Layer 1
10
16.065742
20
33.599076
11
16.183095
21
33.371808
0
LINE
8
Layer 1
10
16.183095
20
33.371808
11
16.131856
21
32.494966
0
LINE
8
Layer 1
10
16.131856
20
32.494966
11
15.999628
21
30.610716
0
LINE
8
Layer 1
10
15.999628
20
30.610716
11
15.933514
21
29.691730
0
LINE
8
Layer 1
10
15.933514
20
29.691730
11
15.199647
21
30.716500
0
LINE
8
Layer 1
10
15.199647
20
30.716500
11
14.336031
21
31.890025
0
LINE
8
Layer 1
10
14.336031
20
31.890025
11
13.804637
21
32.349520
0
LINE
8
Layer 1
10
13.804637
20
32.349520
11
13.553403
21
32.521417
0
LINE
8
Layer 1
10
13.553403
20
32.521417
11
15.874003
21
33.718087
0
LINE
8
Layer 1
10
15.874003
20
33.718087
11
16.065734
21
33.599082
0
LINE
8
Layer 1
10
16.065734
20
33.599082
11
16.065742
21
33.599076
0
LINE
8
Layer 1
10
5.342042
20
33.096609
11
7.054402
21
32.567696
0
LINE
8
Layer 1
10
7.054402
20
32.567696
11
5.956912
21
31.377646
0
LINE
8
Layer 1
10
5.956912
20
31.377646
11
4.760242
21
30.141316
0
LINE
8
Layer 1
10
4.760242
20
30.141316
11
3.967701
21
31.550373
0
LINE
8
Layer 1
10
3.967701
20
31.550373
11
3.239622
21
33.301566
0
LINE
8
Layer 1
10
3.239622
20
33.301566
11
3.323918
21
33.505693
0
LINE
8
Layer 1
10
3.323918
20
33.505693
11
3.537135
21
33.585857
0
LINE
8
Layer 1
10
3.537135
20
33.585857
11
5.342045
21
33.096613
0
LINE
8
Layer 1
10
5.342045
20
33.096613
11
5.342042
21
33.096609
0
LINE
8
Layer 1
10
10.803062
20
32.038779
11
10.214647
21
31.747877
0
LINE
8
Layer 1
10
10.214647
20
31.747877
11
9.983248
21
31.985888
0
LINE
8
Layer 1
10
9.983248
20
31.985888
11
9.751849
21
32.230510
0
LINE
8
Layer 1
10
9.751849
20
32.230510
11
10.082419
21
32.270178
0
LINE
8
Layer 1
10
10.082419
20
32.270178
11
10.902234
21
32.316458
0
LINE
8
Layer 1
10
10.902234
20
32.316458
11
11.398090
21
32.329681
0
LINE
8
Layer 1
10
11.398090
20
32.329681
11
10.803063
21
32.038779
0
LINE
8
Layer 1
10
10.803063
20
32.038779
11
10.803062
21
32.038779
0
LINE
8
Layer 1
10
8.178332
20
32.137950
11
8.660965
21
32.098282
0
LINE
8
Layer 1
10
8.660965
20
32.098282
11
8.112218
21
31.761100
0
LINE
8
Layer 1
10
8.112218
20
31.761100
11
6.479198
21
30.729720
0
LINE
8
Layer 1
10
6.479198
20
30.729720
11
5.289148
21
29.989242
0
LINE
8
Layer 1
10
5.289148
20
29.989242
11
6.346978
21
31.099962
0
LINE
8
Layer 1
10
6.346978
20
31.099962
11
7.603148
21
32.223902
0
LINE
8
Layer 1
10
7.603148
20
32.223902
11
8.178341
21
32.137953
0
LINE
8
Layer 1
10
8.178341
20
32.137953
11
8.178332
21
32.137950
0
LINE
8
Layer 1
10
12.317072
20
31.979276
11
11.801382
21
31.384249
0
LINE
8
Layer 1
10
11.801382
20
31.384249
11
11.279080
21
30.952028
0
LINE
8
Layer 1
10
11.279080
20
30.952028
11
10.875785
21
31.060290
0
LINE
8
Layer 1
10
10.875785
20
31.060290
11
10.627857
21
31.348713
0
LINE
8
Layer 1
10
10.627857
20
31.348713
11
10.855951
21
31.542923
0
LINE
8
Layer 1
10
10.855951
20
31.542923
11
12.383191
21
32.131338
0
LINE
8
Layer 1
10
12.383191
20
32.131338
11
12.317077
21
31.979276
0
LINE
8
Layer 1
10
12.317077
20
31.979276
11
12.317072
21
31.979276
0
LINE
8
Layer 1
10
13.573242
20
31.919773
11
14.267440
21
31.185906
0
LINE
8
Layer 1
10
14.267440
20
31.185906
11
15.236837
21
29.828088
0
LINE
8
Layer 1
10
15.236837
20
29.828088
11
15.536830
21
29.308266
0
LINE
8
Layer 1
10
15.536830
20
29.308266
11
12.085670
21
30.861946
0
LINE
8
Layer 1
10
12.085670
20
30.861946
11
12.541857
21
31.523087
0
LINE
8
Layer 1
10
12.541857
20
31.523087
11
13.082340
21
32.063570
0
LINE
8
Layer 1
10
13.082340
20
32.063570
11
13.573237
21
31.919772
0
LINE
8
Layer 1
10
13.573237
20
31.919772
11
13.573242
21
31.919773
0
LINE
8
Layer 1
10
9.560112
20
31.728042
11
9.771677
21
31.523088
0
LINE
8
Layer 1
10
9.771677
20
31.523088
11
9.302267
21
31.146238
0
LINE
8
Layer 1
10
9.302267
20
31.146238
11
8.708893
21
30.576831
0
LINE
8
Layer 1
10
8.708893
20
30.576831
11
8.323778
21
29.923128
0
LINE
8
Layer 1
10
8.323778
20
29.923128
11
7.999819
21
28.263668
0
LINE
8
Layer 1
10
7.999819
20
28.263668
11
7.999819
21
27.933097
0
LINE
8
Layer 1
10
7.999819
20
27.933097
11
7.775031
21
28.263668
0
LINE
8
Layer 1
10
7.775031
20
28.263668
11
6.926293
21
29.135549
0
LINE
8
Layer 1
10
6.926293
20
29.135549
11
5.923841
21
29.585948
0
LINE
8
Layer 1
10
5.923841
20
29.585948
11
5.659385
21
29.632228
0
LINE
8
Layer 1
10
5.659385
20
29.632228
11
6.353583
21
30.081804
0
LINE
8
Layer 1
10
6.353583
20
30.081804
11
9.308883
21
31.932994
0
LINE
8
Layer 1
10
9.308883
20
31.932994
11
9.560117
21
31.728040
0
LINE
8
Layer 1
10
9.560117
20
31.728040
11
9.560112
21
31.728042
0
LINE
8
Layer 1
10
10.670832
20
30.650382
11
11.292305
21
30.478485
0
LINE
8
Layer 1
10
11.292305
20
30.478485
11
11.871630
21
30.356174
0
LINE
8
Layer 1
10
11.871630
20
30.356174
11
13.269115
21
29.777676
0
LINE
8
Layer 1
10
13.269115
20
29.777676
11
14.862465
21
29.050421
0
LINE
8
Layer 1
10
14.862465
20
29.050421
11
13.751745
21
28.957862
0
LINE
8
Layer 1
10
13.751745
20
28.957862
11
11.547664
21
28.702496
0
LINE
8
Layer 1
10
11.547664
20
28.702496
11
10.978360
21
28.477191
0
LINE
8
Layer 1
10
10.978360
20
28.477191
11
10.518765
21
28.124824
0
LINE
8
Layer 1
10
10.518765
20
28.124824
11
9.958448
21
27.342197
0
LINE
8
Layer 1
10
9.958448
20
27.342197
11
9.665893
21
25.751324
0
LINE
8
Layer 1
10
9.665893
20
25.751324
11
9.619613
21
25.354639
0
LINE
8
Layer 1
10
9.619613
20
25.354639
11
9.090700
21
25.076960
0
LINE
8
Layer 1
10
9.090700
20
25.076960
11
8.224605
21
24.799281
0
LINE
8
Layer 1
10
8.224605
20
24.799281
11
7.887423
21
24.792669
0
LINE
8
Layer 1
10
7.887423
20
24.792669
11
8.039485
21
25.110017
0
LINE
8
Layer 1
10
8.039485
20
25.110017
11
8.329561
21
26.032309
0
LINE
8
Layer 1
10
8.329561
20
26.032309
11
8.456004
21
27.668637
0
LINE
8
Layer 1
10
8.456004
20
27.668637
11
8.660958
21
29.519827
0
LINE
8
Layer 1
10
8.660958
20
29.519827
11
9.105575
21
30.293362
0
LINE
8
Layer 1
10
9.105575
20
30.293362
11
9.877458
21
30.987557
0
LINE
8
Layer 1
10
9.877458
20
30.987557
11
10.082412
21
31.126397
0
LINE
8
Layer 1
10
10.082412
20
31.126397
11
10.247697
21
30.974335
0
LINE
8
Layer 1
10
10.247697
20
30.974335
11
10.670827
21
30.650376
0
LINE
8
Layer 1
10
10.670827
20
30.650376
11
10.670832
21
30.650382
0
LINE
8
Layer 1
10
6.340362
20
28.931412
11
6.710601
21
28.686790
0
LINE
8
Layer 1
10
6.710601
20
28.686790
11
6.624653
21
28.686790
0
LINE
8
Layer 1
10
6.624653
20
28.686790
11
6.230447
21
28.755384
0
LINE
8
Layer 1
10
6.230447
20
28.755384
11
5.890786
21
28.600842
0
LINE
8
Layer 1
10
5.890786
20
28.600842
11
5.784177
21
28.264487
0
LINE
8
Layer 1
10
5.784177
20
28.264487
11
6.128797
21
27.734747
0
LINE
8
Layer 1
10
6.128797
20
27.734747
11
6.432922
21
27.351285
0
LINE
8
Layer 1
10
6.432922
20
27.351285
11
6.042849
21
27.602519
0
LINE
8
Layer 1
10
6.042849
20
27.602519
11
5.456086
21
28.035567
0
LINE
8
Layer 1
10
5.456086
20
28.035567
11
5.156920
21
28.448779
0
LINE
8
Layer 1
10
5.156920
20
28.448779
11
5.079236
21
28.813233
0
LINE
8
Layer 1
10
5.079236
20
28.813233
11
5.249479
21
29.063640
0
LINE
8
Layer 1
10
5.249479
20
29.063640
11
5.705666
21
29.128928
0
LINE
8
Layer 1
10
5.705666
20
29.128928
11
6.340359
21
28.931412
0
LINE
8
Layer 1
10
6.340359
20
28.931412
11
6.340362
21
28.931412
0
LINE
8
Layer 1
10
4.813122
20
28.045483
11
5.446991
21
27.424837
0
LINE
8
Layer 1
10
5.446991
20
27.424837
11
6.432922
21
26.848813
0
LINE
8
Layer 1
10
6.432922
20
26.848813
11
7.104807
21
26.500061
0
LINE
8
Layer 1
10
7.104807
20
26.500061
11
7.206457
21
26.260398
0
LINE
8
Layer 1
10
7.206457
20
26.260398
11
7.041998
21
25.906688
0
LINE
8
Layer 1
10
7.041998
20
25.906688
11
6.227968
21
25.037288
0
LINE
8
Layer 1
10
6.227968
20
25.037288
11
5.130478
21
23.781118
0
LINE
8
Layer 1
10
5.130478
20
23.781118
11
5.037918
21
23.232371
0
LINE
8
Layer 1
10
5.037918
20
23.232371
11
5.039571
21
23.016674
0
LINE
8
Layer 1
10
5.039571
20
23.016674
11
4.971804
21
23.034029
0
LINE
8
Layer 1
10
4.971804
20
23.034029
11
4.132155
21
26.300069
0
LINE
8
Layer 1
10
4.132155
20
26.300069
11
3.775139
21
27.906639
0
LINE
8
Layer 1
10
3.775139
20
27.906639
11
4.185046
21
28.461997
0
LINE
8
Layer 1
10
4.185046
20
28.461997
11
4.594953
21
29.017355
0
LINE
8
Layer 1
10
4.594953
20
29.017355
11
4.634622
21
28.633893
0
LINE
8
Layer 1
10
4.634622
20
28.633893
11
4.813130
21
28.045478
0
LINE
8
Layer 1
10
4.813130
20
28.045478
11
4.813122
21
28.045483
0
LINE
8
Layer 1
10
16.217822
20
28.065318
11
16.786403
21
27.139721
0
LINE
8
Layer 1
10
16.786403
20
27.139721
11
16.878962
21
26.834769
0
LINE
8
Layer 1
10
16.878962
20
26.834769
11
16.812849
21
26.643865
0
LINE
8
Layer 1
10
16.812849
20
26.643865
11
14.399689
21
23.569555
0
LINE
8
Layer 1
10
14.399689
20
23.569555
11
13.804662
21
22.941471
0
LINE
8
Layer 1
10
13.804662
20
22.941471
11
13.361698
21
23.179482
0
LINE
8
Layer 1
10
13.361698
20
23.179482
11
12.465027
21
23.730708
0
LINE
8
Layer 1
10
12.465027
20
23.730708
11
11.801408
21
24.296812
0
LINE
8
Layer 1
10
11.801408
20
24.296812
11
11.219603
21
25.048859
0
LINE
8
Layer 1
10
11.219603
20
25.048859
11
10.994816
21
25.810822
0
LINE
8
Layer 1
10
10.994816
20
25.810822
11
10.961758
21
26.214118
0
LINE
8
Layer 1
10
10.961758
20
26.214118
11
11.437780
21
26.339735
0
LINE
8
Layer 1
10
11.437780
20
26.339735
11
12.297782
21
26.658631
0
LINE
8
Layer 1
10
12.297782
20
26.658631
11
13.061710
21
27.110790
0
LINE
8
Layer 1
10
13.061710
20
27.110790
11
13.608701
21
27.608815
0
LINE
8
Layer 1
10
13.608701
20
27.608815
11
13.817890
21
28.065315
0
LINE
8
Layer 1
10
13.817890
20
28.065315
11
13.652605
21
28.323160
0
LINE
8
Layer 1
10
13.652605
20
28.323160
11
13.487320
21
28.475222
0
LINE
8
Layer 1
10
13.487320
20
28.475222
11
14.366638
21
28.574393
0
LINE
8
Layer 1
10
14.366638
20
28.574393
11
15.624457
21
28.642160
0
LINE
8
Layer 1
10
15.624457
20
28.642160
11
15.904408
21
28.460965
0
LINE
8
Layer 1
10
15.904408
20
28.460965
11
16.217828
21
28.065314
0
LINE
8
Layer 1
10
16.217828
20
28.065314
11
16.217822
21
28.065318
0
LINE
8
Layer 1
10
6.862672
20
28.038872
11
7.259357
21
27.397565
0
LINE
8
Layer 1
10
7.259357
20
27.397565
11
6.346982
21
28.237214
0
LINE
8
Layer 1
10
6.346982
20
28.237214
11
6.862672
21
28.038872
0
LINE
8
Layer 1
10
6.862672
20
28.038872
11
6.862672
21
28.038872
0
LINE
8
Layer 1
10
11.629502
20
28.104986
11
11.045218
21
27.562024
0
LINE
8
Layer 1
10
11.045218
20
27.562024
11
10.644402
21
26.716586
0
LINE
8
Layer 1
10
10.644402
20
26.716586
11
10.475811
21
26.127344
0
LINE
8
Layer 1
10
10.475811
20
26.127344
11
10.505562
21
25.691816
0
LINE
8
Layer 1
10
10.505562
20
25.691816
11
10.744916
21
24.942764
0
LINE
8
Layer 1
10
10.744916
20
24.942764
11
11.195629
21
24.241439
0
LINE
8
Layer 1
10
11.195629
20
24.241439
11
11.858321
21
23.585979
0
LINE
8
Layer 1
10
11.858321
20
23.585979
11
12.733612
21
22.974526
0
LINE
8
Layer 1
10
12.733612
20
22.974526
11
13.117074
21
22.743127
0
LINE
8
Layer 1
10
13.117074
20
22.743127
11
12.621218
21
22.736516
0
LINE
8
Layer 1
10
12.621218
20
22.736516
11
11.437778
21
22.710070
0
LINE
8
Layer 1
10
11.437778
20
22.710070
11
8.998168
21
22.835687
0
LINE
8
Layer 1
10
8.998168
20
22.835687
11
9.414687
21
23.589388
0
LINE
8
Layer 1
10
9.414687
20
23.589388
11
10.009714
21
24.532342
0
LINE
8
Layer 1
10
10.009714
20
24.532342
11
10.108885
21
25.103398
0
LINE
8
Layer 1
10
10.108885
20
25.103398
11
10.360119
21
27.073598
0
LINE
8
Layer 1
10
10.360119
20
27.073598
11
10.801431
21
27.737219
0
LINE
8
Layer 1
10
10.801431
20
27.737219
11
11.470839
21
28.177708
0
LINE
8
Layer 1
10
11.470839
20
28.177708
11
11.855127
21
28.282664
0
LINE
8
Layer 1
10
11.855127
20
28.282664
11
11.629513
21
28.104983
0
LINE
8
Layer 1
10
11.629513
20
28.104983
11
11.629502
21
28.104986
0
LINE
8
Layer 1
10
13.017902
20
28.144655
11
12.264201
21
27.774416
0
LINE
8
Layer 1
10
12.264201
20
27.774416
11
11.799749
21
27.575247
0
LINE
8
Layer 1
10
11.799749
20
27.575247
11
11.702231
21
27.569462
0
LINE
8
Layer 1
10
11.702231
20
27.569462
11
12.984841
21
28.157877
0
LINE
8
Layer 1
10
12.984841
20
28.157877
11
13.017898
21
28.144654
0
LINE
8
Layer 1
10
13.017898
20
28.144654
11
13.017902
21
28.144655
0
LINE
8
Layer 1
10
12.760057
20
27.470291
11
12.019579
21
27.047161
0
LINE
8
Layer 1
10
12.019579
20
27.047161
11
11.856773
21
27.022368
0
LINE
8
Layer 1
10
11.856773
20
27.022368
11
12.284035
21
27.265338
0
LINE
8
Layer 1
10
12.284035
20
27.265338
11
12.760057
21
27.470292
0
LINE
8
Layer 1
10
12.760057
20
27.470292
11
12.760057
21
27.470291
0
LINE
8
Layer 1
10
7.874227
20
26.114951
11
7.523822
21
25.143074
0
LINE
8
Layer 1
10
7.523822
20
25.143074
11
7.246143
21
24.098474
0
LINE
8
Layer 1
10
7.246143
20
24.098474
11
7.378371
21
23.431547
0
LINE
8
Layer 1
10
7.378371
20
23.431547
11
7.708942
21
22.948084
0
LINE
8
Layer 1
10
7.708942
20
22.948084
11
7.867616
21
22.789410
0
LINE
8
Layer 1
10
7.867616
20
22.789410
11
6.730456
21
22.624125
0
LINE
8
Layer 1
10
6.730456
20
22.624125
11
5.816429
21
22.846433
0
LINE
8
Layer 1
10
5.816429
20
22.846433
11
5.573872
21
23.067606
0
LINE
8
Layer 1
10
5.573872
20
23.067606
11
5.487506
21
23.351380
0
LINE
8
Layer 1
10
5.487506
20
23.351380
11
5.852786
21
23.957151
0
LINE
8
Layer 1
10
5.852786
20
23.957151
11
6.763506
21
24.885230
0
LINE
8
Layer 1
10
6.763506
20
24.885230
11
7.469274
21
25.640583
0
LINE
8
Layer 1
10
7.469274
20
25.640583
11
7.669269
21
26.267010
0
LINE
8
Layer 1
10
7.669269
20
26.267010
11
7.788274
21
26.683529
0
LINE
8
Layer 1
10
7.788274
20
26.683529
11
7.884139
21
26.725676
0
LINE
8
Layer 1
10
7.884139
20
26.725676
11
7.920502
21
26.604192
0
LINE
8
Layer 1
10
7.920502
20
26.604192
11
7.874222
21
26.114948
0
LINE
8
Layer 1
10
7.874222
20
26.114948
11
7.874227
21
26.114951
0
LINE
8
Layer 1
10
16.819467
20
25.605872
11
15.087277
21
22.895192
0
LINE
8
Layer 1
10
15.087277
20
22.895192
11
14.464152
21
22.104302
0
LINE
8
Layer 1
10
14.464152
20
22.104302
11
14.362088
21
22.053786
0
LINE
8
Layer 1
10
14.362088
20
22.053786
11
14.307131
21
22.141491
0
LINE
8
Layer 1
10
14.307131
20
22.141491
11
14.128623
21
22.425782
0
LINE
8
Layer 1
10
14.128623
20
22.425782
11
14.112921
21
22.591893
0
LINE
8
Layer 1
10
14.112921
20
22.591893
11
14.518696
21
23.020809
0
LINE
8
Layer 1
10
14.518696
20
23.020809
11
16.660796
21
25.605869
0
LINE
8
Layer 1
10
16.660796
20
25.605869
11
17.110372
21
26.181062
0
LINE
8
Layer 1
10
17.110372
20
26.181062
11
16.819470
21
25.605869
0
LINE
8
Layer 1
10
16.819470
20
25.605869
11
16.819467
21
25.605872
0
LINE
8
Layer 1
10
18.723557
20
25.645540
11
20.264017
21
24.957953
0
LINE
8
Layer 1
10
20.264017
20
24.957953
11
25.500257
21
21.764643
0
LINE
8
Layer 1
10
25.500257
20
21.764643
11
27.034107
21
20.739873
0
LINE
8
Layer 1
10
27.034107
20
20.739873
11
27.569631
21
19.893613
0
LINE
8
Layer 1
10
27.569631
20
19.893613
11
30.253861
21
16.164773
0
LINE
8
Layer 1
10
30.253861
20
16.164773
11
32.070347
21
13.786321
0
LINE
8
Layer 1
10
32.070347
20
13.786321
11
32.885201
21
12.409493
0
LINE
8
Layer 1
10
32.885201
20
12.409493
11
32.985198
21
11.708684
0
LINE
8
Layer 1
10
32.985198
20
11.708684
11
32.832310
21
10.988043
0
LINE
8
Layer 1
10
32.832310
20
10.988043
11
32.525706
21
10.349216
0
LINE
8
Layer 1
10
32.525706
20
10.349216
11
32.184392
21
9.943443
0
LINE
8
Layer 1
10
32.184392
20
9.943443
11
31.740600
21
9.690557
0
LINE
8
Layer 1
10
31.740600
20
9.690557
11
30.974502
21
9.586427
0
LINE
8
Layer 1
10
30.974502
20
9.586427
11
30.057169
21
9.421969
0
LINE
8
Layer 1
10
30.057169
20
9.421969
11
29.605942
21
9.064126
0
LINE
8
Layer 1
10
29.605942
20
9.064126
11
29.477846
21
8.737688
0
LINE
8
Layer 1
10
29.477846
20
8.737688
11
29.453880
21
8.059196
0
LINE
8
Layer 1
10
29.453880
20
8.059196
11
29.453880
21
7.285661
0
LINE
8
Layer 1
10
29.453880
20
7.285661
11
28.958024
21
7.642677
0
LINE
8
Layer 1
10
28.958024
20
7.642677
11
27.486156
21
8.650918
0
LINE
8
Layer 1
10
27.486156
20
8.650918
11
26.683694
21
9.064127
0
LINE
8
Layer 1
10
26.683694
20
9.064127
11
26.353123
21
9.143464
0
LINE
8
Layer 1
10
26.353123
20
9.143464
11
26.696916
21
9.255858
0
LINE
8
Layer 1
10
26.696916
20
9.255858
11
27.482848
21
9.761631
0
LINE
8
Layer 1
10
27.482848
20
9.761631
11
27.787796
21
10.564918
0
LINE
8
Layer 1
10
27.787796
20
10.564918
11
27.667137
21
11.154986
0
LINE
8
Layer 1
10
27.667137
20
11.154986
11
27.080375
21
11.695468
0
LINE
8
Layer 1
10
27.080375
20
11.695468
11
22.525115
21
14.716878
0
LINE
8
Layer 1
10
22.525115
20
14.716878
11
19.146685
21
16.488738
0
LINE
8
Layer 1
10
19.146685
20
16.488738
11
19.040902
21
16.270561
0
LINE
8
Layer 1
10
19.040902
20
16.270561
11
19.234286
21
16.020980
0
LINE
8
Layer 1
10
19.234286
20
16.020980
11
20.250792
21
15.444135
0
LINE
8
Layer 1
10
20.250792
20
15.444135
11
23.007752
21
13.817725
0
LINE
8
Layer 1
10
23.007752
20
13.817725
11
20.006172
21
11.550015
0
LINE
8
Layer 1
10
20.006172
20
11.550015
11
19.417757
21
11.126885
0
LINE
8
Layer 1
10
19.417757
20
11.126885
11
19.027684
21
11.239279
0
LINE
8
Layer 1
10
19.027684
20
11.239279
11
17.993515
21
11.719846
0
LINE
8
Layer 1
10
17.993515
20
11.719846
11
16.565760
21
12.589660
0
LINE
8
Layer 1
10
16.565760
20
12.589660
11
13.593104
21
14.802829
0
LINE
8
Layer 1
10
13.593104
20
14.802829
11
11.389022
21
17.077153
0
LINE
8
Layer 1
10
11.389022
20
17.077153
11
8.951894
21
20.164679
0
LINE
8
Layer 1
10
8.951894
20
20.164679
11
8.338686
21
21.037387
0
LINE
8
Layer 1
10
8.338686
20
21.037387
11
8.306662
21
21.114865
0
LINE
8
Layer 1
10
8.306662
20
21.114865
11
8.429593
21
20.997717
0
LINE
8
Layer 1
10
8.429593
20
20.997717
11
8.983299
21
20.686154
0
LINE
8
Layer 1
10
8.983299
20
20.686154
11
10.340293
21
20.627478
0
LINE
8
Layer 1
10
10.340293
20
20.627478
11
12.783210
21
20.748136
0
LINE
8
Layer 1
10
12.783210
20
20.748136
11
14.174913
21
21.077054
0
LINE
8
Layer 1
10
14.174913
20
21.077054
11
14.801240
21
21.725385
0
LINE
8
Layer 1
10
14.801240
20
21.725385
11
15.729419
21
22.971221
0
LINE
8
Layer 1
10
15.729419
20
22.971221
11
17.427723
21
25.738094
0
LINE
8
Layer 1
10
17.427723
20
25.738094
11
17.626065
21
26.114944
0
LINE
8
Layer 1
10
17.626065
20
26.114944
11
18.723555
21
25.645534
0
LINE
8
Layer 1
10
18.723555
20
25.645534
11
18.723557
21
25.645540
0
LINE
8
Layer 1
10
24.680437
20
24.600940
11
29.688582
21
22.615036
0
LINE
8
Layer 1
10
29.688582
20
22.615036
11
33.308327
21
21.030780
0
LINE
8
Layer 1
10
33.308327
20
21.030780
11
34.310780
21
20.334929
0
LINE
8
Layer 1
10
34.310780
20
20.334929
11
34.560669
21
19.969028
0
LINE
8
Layer 1
10
34.560669
20
19.969028
11
34.643827
21
19.589490
0
LINE
8
Layer 1
10
34.643827
20
19.589490
11
34.074418
21
15.663965
0
LINE
8
Layer 1
10
34.074418
20
15.663965
11
33.440547
21
12.204550
0
LINE
8
Layer 1
10
33.440547
20
12.204550
11
33.387656
21
12.356612
0
LINE
8
Layer 1
10
33.387656
20
12.356612
11
33.046342
21
13.132626
0
LINE
8
Layer 1
10
33.046342
20
13.132626
11
32.263716
21
14.340032
0
LINE
8
Layer 1
10
32.263716
20
14.340032
11
30.591026
21
16.521802
0
LINE
8
Layer 1
10
30.591026
20
16.521802
11
28.144806
21
19.900232
0
LINE
8
Layer 1
10
28.144806
20
19.900232
11
27.450608
21
20.958062
0
LINE
8
Layer 1
10
27.450608
20
20.958062
11
25.645698
21
22.260512
0
LINE
8
Layer 1
10
25.645698
20
22.260512
11
23.437488
21
23.820802
0
LINE
8
Layer 1
10
23.437488
20
23.820802
11
22.148268
21
25.123252
0
LINE
8
Layer 1
10
22.148268
20
25.123252
11
22.320991
21
25.260439
0
LINE
8
Layer 1
10
22.320991
20
25.260439
11
22.697015
21
25.288537
0
LINE
8
Layer 1
10
22.697015
20
25.288537
11
24.680435
21
24.600950
0
LINE
8
Layer 1
10
24.680435
20
24.600950
11
24.680437
21
24.600940
0
LINE
8
Layer 1
10
8.945237
20
24.184421
11
8.608055
21
23.748068
0
LINE
8
Layer 1
10
8.608055
20
23.748068
11
8.403101
21
23.463777
0
LINE
8
Layer 1
10
8.403101
20
23.463777
11
8.297318
21
23.622451
0
LINE
8
Layer 1
10
8.297318
20
23.622451
11
8.252691
21
23.895998
0
LINE
8
Layer 1
10
8.252691
20
23.895998
11
8.614666
21
24.144752
0
LINE
8
Layer 1
10
8.614666
20
24.144752
11
9.005566
21
24.310864
0
LINE
8
Layer 1
10
9.005566
20
24.310864
11
8.945237
21
24.184421
0
LINE
8
Layer 1
10
8.945237
20
24.184421
11
8.945237
21
24.184421
0
LINE
8
Layer 1
10
7.867577
20
24.237312
11
7.801463
21
24.164587
0
LINE
8
Layer 1
10
7.801463
20
24.164587
11
7.735349
21
24.191033
0
LINE
8
Layer 1
10
7.735349
20
24.191033
11
7.801463
21
24.263758
0
LINE
8
Layer 1
10
7.801463
20
24.263758
11
7.867577
21
24.237312
0
LINE
8
Layer 1
10
7.867577
20
24.237312
11
7.867577
21
24.237312
0
LINE
8
Layer 1
10
8.462604
20
22.518342
11
7.894023
21
21.566299
0
LINE
8
Layer 1
10
7.894023
20
21.566299
11
6.723803
21
21.996041
0
LINE
8
Layer 1
10
6.723803
20
21.996041
11
6.512238
21
22.115046
0
LINE
8
Layer 1
10
6.512238
20
22.115046
11
7.113876
21
22.154715
0
LINE
8
Layer 1
10
7.113876
20
22.154715
11
8.039473
21
22.359669
0
LINE
8
Layer 1
10
8.039473
20
22.359669
11
8.462603
21
22.518343
0
LINE
8
Layer 1
10
8.462603
20
22.518343
11
8.462604
21
22.518342
0
LINE
8
Layer 1
10
13.745124
20
22.134880
11
13.903798
21
21.579522
0
LINE
8
Layer 1
10
13.903798
20
21.579522
11
13.001341
21
21.488616
0
LINE
8
Layer 1
10
13.001341
20
21.488616
11
10.611318
21
21.586134
0
LINE
8
Layer 1
10
10.611318
20
21.586134
11
8.925408
21
21.685305
0
LINE
8
Layer 1
10
8.925408
20
21.685305
11
8.651034
21
21.768774
0
LINE
8
Layer 1
10
8.651034
20
21.768774
11
8.753511
21
22.055544
0
LINE
8
Layer 1
10
8.753511
20
22.055544
11
8.918796
21
22.313389
0
LINE
8
Layer 1
10
8.918796
20
22.313389
11
11.279066
21
22.300166
0
LINE
8
Layer 1
10
11.279066
20
22.300166
11
13.639336
21
22.286944
0
LINE
8
Layer 1
10
13.639336
20
22.286944
11
13.745119
21
22.134882
0
LINE
8
Layer 1
10
13.745119
20
22.134882
11
13.745124
21
22.134880
0
LINE
8
Layer 1
10
11.034444
20
21.116720
11
9.024574
21
21.156389
0
LINE
8
Layer 1
10
9.024574
20
21.156389
11
9.950171
21
21.176223
0
LINE
8
Layer 1
10
9.950171
20
21.176223
11
11.034441
21
21.116720
0
LINE
8
Layer 1
10
11.034441
20
21.116720
11
11.034444
21
21.116720
0
LINE
8
Layer 1
10
34.934644
20
14.379690
11
35.833796
21
9.295520
0
LINE
8
Layer 1
10
35.833796
20
9.295520
11
35.931314
21
8.171579
0
LINE
8
Layer 1
10
35.931314
20
8.171579
11
35.774293
21
7.910222
0
LINE
8
Layer 1
10
35.774293
20
7.910222
11
35.443723
21
7.702170
0
LINE
8
Layer 1
10
35.443723
20
7.702170
11
32.369413
21
6.776573
0
LINE
8
Layer 1
10
32.369413
20
6.776573
11
31.451150
21
6.629573
0
LINE
8
Layer 1
10
31.451150
20
6.629573
11
30.780194
21
6.661700
0
LINE
8
Layer 1
10
30.780194
20
6.661700
11
30.313781
21
6.883492
0
LINE
8
Layer 1
10
30.313781
20
6.883492
11
30.009143
21
7.305486
0
LINE
8
Layer 1
10
30.009143
20
7.305486
11
29.882700
21
8.076542
0
LINE
8
Layer 1
10
29.882700
20
8.076542
11
29.949640
21
8.793056
0
LINE
8
Layer 1
10
29.949640
20
8.793056
11
30.285996
21
9.002969
0
LINE
8
Layer 1
10
30.285996
20
9.002969
11
31.113250
21
9.123627
0
LINE
8
Layer 1
10
31.113250
20
9.123627
11
31.988434
21
9.277343
0
LINE
8
Layer 1
10
31.988434
20
9.277343
11
32.580980
21
9.678985
0
LINE
8
Layer 1
10
32.580980
20
9.678985
11
32.993367
21
10.191370
0
LINE
8
Layer 1
10
32.993367
20
10.191370
11
33.321458
21
10.921935
0
LINE
8
Layer 1
10
33.321458
20
10.921935
11
33.579303
21
11.272340
0
LINE
8
Layer 1
10
33.579303
20
11.272340
11
33.777645
21
11.345066
0
LINE
8
Layer 1
10
33.777645
20
11.345066
11
34.425563
21
14.902006
0
LINE
8
Layer 1
10
34.425563
20
14.902006
11
34.676797
21
16.416016
0
LINE
8
Layer 1
10
34.676797
20
16.416016
11
34.756134
21
15.695372
0
LINE
8
Layer 1
10
34.756134
20
15.695372
11
34.934642
21
14.379702
0
LINE
8
Layer 1
10
34.934642
20
14.379702
11
34.934644
21
14.379690
0
LINE
8
Layer 1
10
24.898544
20
11.887190
11
26.630734
21
10.069050
0
LINE
8
Layer 1
10
26.630734
20
10.069050
11
26.842299
21
9.797982
0
LINE
8
Layer 1
10
26.842299
20
9.797982
11
26.002650
21
9.520303
0
LINE
8
Layer 1
10
26.002650
20
9.520303
11
23.767990
21
8.693877
0
LINE
8
Layer 1
10
23.767990
20
8.693877
11
21.685400
21
7.880674
0
LINE
8
Layer 1
10
21.685400
20
7.880674
11
20.819305
21
7.444321
0
LINE
8
Layer 1
10
20.819305
20
7.444321
11
20.573030
21
7.003836
0
LINE
8
Layer 1
10
20.573030
20
7.003836
11
20.495346
21
6.320381
0
LINE
8
Layer 1
10
20.495346
20
6.320381
11
20.409088
21
5.693538
0
LINE
8
Layer 1
10
20.409088
20
5.693538
11
20.142463
21
5.232807
0
LINE
8
Layer 1
10
20.142463
20
5.232807
11
19.683694
21
4.925790
0
LINE
8
Layer 1
10
19.683694
20
4.925790
11
19.021006
21
4.760091
0
LINE
8
Layer 1
10
19.021006
20
4.760091
11
17.533436
21
4.627863
0
LINE
8
Layer 1
10
17.533436
20
4.627863
11
16.226857
21
4.636128
0
LINE
8
Layer 1
10
16.226857
20
4.636128
11
15.550016
21
5.050993
0
LINE
8
Layer 1
10
15.550016
20
5.050993
11
15.242585
21
5.542717
0
LINE
8
Layer 1
10
15.242585
20
5.542717
11
15.073994
21
6.465833
0
LINE
8
Layer 1
10
15.073994
20
6.465833
11
15.055709
21
7.162823
0
LINE
8
Layer 1
10
15.055709
20
7.162823
11
15.354153
21
7.782332
0
LINE
8
Layer 1
10
15.354153
20
7.782332
11
16.186882
21
8.601422
0
LINE
8
Layer 1
10
16.186882
20
8.601422
11
17.771454
21
9.897153
0
LINE
8
Layer 1
10
17.771454
20
9.897153
11
18.849114
21
10.756636
0
LINE
8
Layer 1
10
18.849114
20
10.756636
11
19.140016
21
10.697134
0
LINE
8
Layer 1
10
19.140016
20
10.697134
11
19.649095
21
10.750025
0
LINE
8
Layer 1
10
19.649095
20
10.750025
11
22.644065
21
12.918565
0
LINE
8
Layer 1
10
22.644065
20
12.918565
11
23.344874
21
13.414421
0
LINE
8
Layer 1
10
23.344874
20
13.414421
11
24.898554
21
11.887181
0
LINE
8
Layer 1
10
24.898554
20
11.887181
11
24.898544
21
11.887190
0
LINE
8
Layer 1
10
26.961304
20
11.179769
11
27.252206
21
10.904570
0
LINE
8
Layer 1
10
27.252206
20
10.904570
11
27.305097
21
10.624411
0
LINE
8
Layer 1
10
27.305097
20
10.624411
11
27.285779
21
10.309027
0
LINE
8
Layer 1
10
27.285779
20
10.309027
11
27.091052
21
10.352518
0
LINE
8
Layer 1
10
27.091052
20
10.352518
11
25.354727
21
12.158261
0
LINE
8
Layer 1
10
25.354727
20
12.158261
11
25.024156
21
12.515277
0
LINE
8
Layer 1
10
25.024156
20
12.515277
11
25.817525
21
11.986364
0
LINE
8
Layer 1
10
25.817525
20
11.986364
11
26.961295
21
11.179772
0
LINE
8
Layer 1
10
26.961295
20
11.179772
11
26.961304
21
11.179769
0
LINE
8
Layer 1
10
27.272040
20
8.250919
11
29.067863
21
6.941863
0
LINE
8
Layer 1
10
29.067863
20
6.941863
11
29.619090
21
6.307169
0
LINE
8
Layer 1
10
29.619090
20
6.307169
11
29.572810
21
6.141471
0
LINE
8
Layer 1
10
29.572810
20
6.141471
11
29.372816
21
6.062547
0
LINE
8
Layer 1
10
29.372816
20
6.062547
11
28.144750
21
6.115438
0
LINE
8
Layer 1
10
28.144750
20
6.115438
11
23.672958
21
6.648483
0
LINE
8
Layer 1
10
23.672958
20
6.648483
11
22.355323
21
6.932670
0
LINE
8
Layer 1
10
22.355323
20
6.932670
11
21.784570
21
7.206318
0
LINE
8
Layer 1
10
21.784570
20
7.206318
11
22.005226
21
7.483171
0
LINE
8
Layer 1
10
22.005226
20
7.483171
11
23.172970
21
7.933573
0
LINE
8
Layer 1
10
23.172970
20
7.933573
11
25.203501
21
8.561658
0
LINE
8
Layer 1
10
25.203501
20
8.561658
11
26.247280
21
8.693885
0
LINE
8
Layer 1
10
26.247280
20
8.693885
11
26.702641
21
8.603805
0
LINE
8
Layer 1
10
26.702641
20
8.603805
11
27.272050
21
8.250921
0
LINE
8
Layer 1
10
27.272050
20
8.250921
11
27.272040
21
8.250919
 0 
ENDSEC
 0 
EOF