999
"DXF R12 Output" (www.mydxf.blogspot.com)
 0 
SECTION
 2 
HEADER
 9 
$ACADVER
 1 
AC1009
 9 
$EXTMIN
 10 
 0 
 20 
 0 
 9 
$EXTMAX
 10 
 8.5 
 20 
 11 
 0 
ENDSEC
 0 
SECTION
 2 
ENTITIES
0
LINE
8
Layer 1
10
29.735700
20
47.749100
11
28.391143
21
46.387176
0
LINE
8
Layer 1
10
28.391143
20
46.387176
11
26.957280
21
44.355460
0
LINE
8
Layer 1
10
26.957280
20
44.355460
11
26.679438
21
43.872544
0
LINE
8
Layer 1
10
26.679438
20
43.872544
11
26.586824
21
43.727008
0
LINE
8
Layer 1
10
26.586824
20
43.727008
11
26.381750
21
43.971774
0
LINE
8
Layer 1
10
26.381750
20
43.971774
11
24.729582
21
45.673558
0
LINE
8
Layer 1
10
24.729582
20
45.673558
11
23.305640
21
46.889114
0
LINE
8
Layer 1
10
23.305640
20
46.889114
11
22.878127
21
46.878364
0
LINE
8
Layer 1
10
22.878127
20
46.878364
11
22.624265
21
46.287123
0
LINE
8
Layer 1
10
22.624265
20
46.287123
11
22.509324
21
43.525238
0
LINE
8
Layer 1
10
22.509324
20
43.525238
11
22.697033
21
40.664123
0
LINE
8
Layer 1
10
22.697033
20
40.664123
11
22.736725
21
40.313513
0
LINE
8
Layer 1
10
22.736725
20
40.313513
11
22.405960
21
40.578125
0
LINE
8
Layer 1
10
22.405960
20
40.578125
11
20.766194
21
41.759782
0
LINE
8
Layer 1
10
20.766194
20
41.759782
11
19.091700
21
42.569325
0
LINE
8
Layer 1
10
19.091700
20
42.569325
11
18.747705
21
42.642920
0
LINE
8
Layer 1
10
18.747705
20
42.642920
11
18.522785
21
42.562710
0
LINE
8
Layer 1
10
18.522785
20
42.562710
11
18.324326
21
42.403943
0
LINE
8
Layer 1
10
18.324326
20
42.403943
11
18.205251
21
42.225330
0
LINE
8
Layer 1
10
18.205251
20
42.225330
11
18.092791
21
42.073178
0
LINE
8
Layer 1
10
18.092791
20
42.073178
11
17.623105
21
42.304713
0
LINE
8
Layer 1
10
17.623105
20
42.304713
11
15.817959
21
42.917454
0
LINE
8
Layer 1
10
15.817959
20
42.917454
11
14.097155
21
43.197777
0
LINE
8
Layer 1
10
14.097155
20
43.197777
11
13.587778
21
43.058856
0
LINE
8
Layer 1
10
13.587778
20
43.058856
11
13.497645
21
42.866185
0
LINE
8
Layer 1
10
13.497645
20
42.866185
11
13.581163
21
42.370866
0
LINE
8
Layer 1
10
13.581163
20
42.370866
11
13.985212
21
41.039951
0
LINE
8
Layer 1
10
13.985212
20
41.039951
11
14.665244
21
39.374138
0
LINE
8
Layer 1
10
14.665244
20
39.374138
11
16.280203
21
36.317876
0
LINE
8
Layer 1
10
16.280203
20
36.317876
11
17.773088
21
34.579811
0
LINE
8
Layer 1
10
17.773088
20
34.579811
11
19.719326
21
33.110286
0
LINE
8
Layer 1
10
19.719326
20
33.110286
11
22.086050
21
31.929765
0
LINE
8
Layer 1
10
22.086050
20
31.929765
11
24.840393
21
31.058716
0
LINE
8
Layer 1
10
24.840393
20
31.058716
11
27.589046
21
30.640299
0
LINE
8
Layer 1
10
27.589046
20
30.640299
11
28.747547
21
30.640092
0
LINE
8
Layer 1
10
28.747547
20
30.640092
11
29.623243
21
30.787489
0
LINE
8
Layer 1
10
29.623243
20
30.787489
11
29.768779
21
30.833796
0
LINE
8
Layer 1
10
29.768779
20
30.833796
11
29.768779
21
27.638606
0
LINE
8
Layer 1
10
29.768779
20
27.638606
11
29.868008
21
22.988056
0
LINE
8
Layer 1
10
29.868008
20
22.988056
11
29.973853
21
21.268076
0
LINE
8
Layer 1
10
29.973853
20
21.268076
11
29.980468
21
21.003464
0
LINE
8
Layer 1
10
29.980468
20
21.003464
11
30.033390
21
21.268076
0
LINE
8
Layer 1
10
30.033390
20
21.268076
11
30.258310
21
27.969366
0
LINE
8
Layer 1
10
30.258310
20
27.969366
11
30.364155
21
30.787476
0
LINE
8
Layer 1
10
30.364155
20
30.787476
11
31.988208
21
30.634497
0
LINE
8
Layer 1
10
31.988208
20
30.634497
11
34.207635
21
30.853629
0
LINE
8
Layer 1
10
34.207635
20
30.853629
11
36.229950
21
31.348535
0
LINE
8
Layer 1
10
36.229950
20
31.348535
11
38.136292
21
32.044380
0
LINE
8
Layer 1
10
38.136292
20
32.044380
11
39.907433
21
32.933722
0
LINE
8
Layer 1
10
39.907433
20
32.933722
11
41.524145
21
34.009119
0
LINE
8
Layer 1
10
41.524145
20
34.009119
11
43.205255
21
35.663768
0
LINE
8
Layer 1
10
43.205255
20
35.663768
11
44.613485
21
37.898909
0
LINE
8
Layer 1
10
44.613485
20
37.898909
11
45.809198
21
40.631852
0
LINE
8
Layer 1
10
45.809198
20
40.631852
11
46.419455
21
42.675149
0
LINE
8
Layer 1
10
46.419455
20
42.675149
11
46.425244
21
43.008394
0
LINE
8
Layer 1
10
46.425244
20
43.008394
11
46.287149
21
43.158065
0
LINE
8
Layer 1
10
46.287149
20
43.158065
11
45.539621
21
43.197756
0
LINE
8
Layer 1
10
45.539621
20
43.197756
11
43.684031
21
42.799186
0
LINE
8
Layer 1
10
43.684031
20
42.799186
11
42.126131
21
42.192236
0
LINE
8
Layer 1
10
42.126131
20
42.192236
11
41.887981
21
42.080604
0
LINE
8
Layer 1
10
41.887981
20
42.080604
11
41.788751
21
42.172390
0
LINE
8
Layer 1
10
41.788751
20
42.172390
11
41.557216
21
42.456847
0
LINE
8
Layer 1
10
41.557216
20
42.456847
11
41.371161
21
42.584192
0
LINE
8
Layer 1
10
41.371161
20
42.584192
11
41.080915
21
42.582538
0
LINE
8
Layer 1
10
41.080915
20
42.582538
11
40.373080
21
42.339944
0
LINE
8
Layer 1
10
40.373080
20
42.339944
11
39.397325
21
41.812686
0
LINE
8
Layer 1
10
39.397325
20
41.812686
11
37.455735
21
40.392878
0
LINE
8
Layer 1
10
37.455735
20
40.392878
11
37.268853
21
40.234111
0
LINE
8
Layer 1
10
37.268853
20
40.234111
11
37.270507
21
40.353187
0
LINE
8
Layer 1
10
37.270507
20
40.353187
11
37.478889
21
42.914131
0
LINE
8
Layer 1
10
37.478889
20
42.914131
11
37.449120
21
45.638807
0
LINE
8
Layer 1
10
37.449120
20
45.638807
11
37.286219
21
46.542620
0
LINE
8
Layer 1
10
37.286219
20
46.542620
11
37.038972
21
46.895717
0
LINE
8
Layer 1
10
37.038972
20
46.895717
11
36.642055
21
46.902332
0
LINE
8
Layer 1
10
36.642055
20
46.902332
11
33.870245
21
44.229752
0
LINE
8
Layer 1
10
33.870245
20
44.229752
11
33.446866
21
43.733605
0
LINE
8
Layer 1
10
33.446866
20
43.733605
11
33.142563
21
44.256213
0
LINE
8
Layer 1
10
33.142563
20
44.256213
11
32.033676
21
45.892669
0
LINE
8
Layer 1
10
32.033676
20
45.892669
11
30.880133
21
47.206633
0
LINE
8
Layer 1
10
30.880133
20
47.206633
11
30.181393
21
47.778029
0
LINE
8
Layer 1
10
30.181393
20
47.778029
11
29.735683
21
47.749087
0
LINE
8
Layer 1
10
29.735683
20
47.749087
11
29.735700
21
47.749100
0
LINE
8
Layer 1
10
30.675071
20
46.598040
11
31.597075
21
45.525537
0
LINE
8
Layer 1
10
31.597075
20
45.525537
11
32.414891
21
44.329000
0
LINE
8
Layer 1
10
32.414891
20
44.329000
11
33.092958
21
43.252363
0
LINE
8
Layer 1
10
33.092958
20
43.252363
11
33.374108
21
43.078710
0
LINE
8
Layer 1
10
33.374108
20
43.078710
11
33.708180
21
43.244092
0
LINE
8
Layer 1
10
33.708180
20
43.244092
11
34.617778
21
44.183460
0
LINE
8
Layer 1
10
34.617778
20
44.183460
11
36.774358
21
46.240820
0
LINE
8
Layer 1
10
36.774358
20
46.240820
11
36.902012
21
45.672008
0
LINE
8
Layer 1
10
36.902012
20
45.672008
11
36.947182
21
44.285174
0
LINE
8
Layer 1
10
36.947182
20
44.285174
11
36.787589
21
40.975050
0
LINE
8
Layer 1
10
36.787589
20
40.975050
11
36.628822
21
39.704910
0
LINE
8
Layer 1
10
36.628822
20
39.704910
11
36.271596
21
39.255070
0
LINE
8
Layer 1
10
36.271596
20
39.255070
11
34.981616
21
37.098490
0
LINE
8
Layer 1
10
34.981616
20
37.098490
11
34.756696
21
36.026810
0
LINE
8
Layer 1
10
34.756696
20
36.026810
11
34.707081
21
35.485183
0
LINE
8
Layer 1
10
34.707081
20
35.485183
11
34.518546
21
35.206514
0
LINE
8
Layer 1
10
34.518546
20
35.206514
11
33.612251
21
34.445756
0
LINE
8
Layer 1
10
33.612251
20
34.445756
11
30.238451
21
31.700406
0
LINE
8
Layer 1
10
30.238451
20
31.700406
11
30.020973
21
31.506082
0
LINE
8
Layer 1
10
30.020973
20
31.506082
11
29.530615
21
31.931941
0
LINE
8
Layer 1
10
29.530615
20
31.931941
11
27.519565
21
33.572531
0
LINE
8
Layer 1
10
27.519565
20
33.572531
11
25.654055
21
35.054351
0
LINE
8
Layer 1
10
25.654055
20
35.054351
11
25.270368
21
35.404961
0
LINE
8
Layer 1
10
25.270368
20
35.404961
11
25.310059
21
35.722495
0
LINE
8
Layer 1
10
25.310059
20
35.722495
11
25.269437
21
36.367899
0
LINE
8
Layer 1
10
25.269437
20
36.367899
11
24.999968
21
37.159667
0
LINE
8
Layer 1
10
24.999968
20
37.159667
11
23.781929
21
39.162445
0
LINE
8
Layer 1
10
23.781929
20
39.162445
11
23.371781
21
39.724745
0
LINE
8
Layer 1
10
23.371781
20
39.724745
11
23.265936
21
40.498734
0
LINE
8
Layer 1
10
23.265936
20
40.498734
11
23.067478
21
42.520532
0
LINE
8
Layer 1
10
23.067478
20
42.520532
11
23.047631
21
44.586984
0
LINE
8
Layer 1
10
23.047631
20
44.586984
11
23.140245
21
46.128344
0
LINE
8
Layer 1
10
23.140245
20
46.128344
11
23.186552
21
46.306957
0
LINE
8
Layer 1
10
23.186552
20
46.306957
11
23.781928
21
45.790964
0
LINE
8
Layer 1
10
23.781928
20
45.790964
11
26.084048
21
43.475614
0
LINE
8
Layer 1
10
26.084048
20
43.475614
11
26.623194
21
43.071255
0
LINE
8
Layer 1
10
26.623194
20
43.071255
11
27.023419
21
43.416076
0
LINE
8
Layer 1
10
27.023419
20
43.416076
11
28.903816
21
46.122556
0
LINE
8
Layer 1
10
28.903816
20
46.122556
11
29.589118
21
46.892515
0
LINE
8
Layer 1
10
29.589118
20
46.892515
11
30.020149
21
47.166946
0
LINE
8
Layer 1
10
30.020149
20
47.166946
11
30.675063
21
46.598031
0
LINE
8
Layer 1
10
30.675063
20
46.598031
11
30.675071
21
46.598040
0
LINE
8
Layer 1
10
14.838071
20
42.536250
11
17.418031
21
41.762261
0
LINE
8
Layer 1
10
17.418031
20
41.762261
11
17.934024
21
41.517495
0
LINE
8
Layer 1
10
17.934024
20
41.517495
11
17.887717
21
41.186730
0
LINE
8
Layer 1
10
17.887717
20
41.186730
11
17.839136
21
40.233301
0
LINE
8
Layer 1
10
17.839136
20
40.233301
11
17.980331
21
39.324527
0
LINE
8
Layer 1
10
17.980331
20
39.324527
11
18.324946
21
38.410792
0
LINE
8
Layer 1
10
18.324946
20
38.410792
11
18.886626
21
37.442480
0
LINE
8
Layer 1
10
18.886626
20
37.442480
11
20.434605
21
35.641465
0
LINE
8
Layer 1
10
20.434605
20
35.641465
11
22.597806
21
33.929760
0
LINE
8
Layer 1
10
22.597806
20
33.929760
11
25.194307
21
32.359454
0
LINE
8
Layer 1
10
25.194307
20
32.359454
11
27.612196
21
31.329950
0
LINE
8
Layer 1
10
27.612196
20
31.329950
11
27.724553
21
31.271859
0
LINE
8
Layer 1
10
27.724553
20
31.271859
11
27.593177
21
31.257182
0
LINE
8
Layer 1
10
27.593177
20
31.257182
11
26.586826
21
31.363026
0
LINE
8
Layer 1
10
26.586826
20
31.363026
11
23.525189
21
32.041300
0
LINE
8
Layer 1
10
23.525189
20
32.041300
11
20.743872
21
33.211999
0
LINE
8
Layer 1
10
20.743872
20
33.211999
11
18.411568
21
34.784577
0
LINE
8
Layer 1
10
18.411568
20
34.784577
11
17.466511
21
35.693275
0
LINE
8
Layer 1
10
17.466511
20
35.693275
11
16.696966
21
36.668486
0
LINE
8
Layer 1
10
16.696966
20
36.668486
11
15.096066
21
39.757826
0
LINE
8
Layer 1
10
15.096066
20
39.757826
11
14.123618
21
42.417176
0
LINE
8
Layer 1
10
14.123618
20
42.417176
11
14.145944
21
42.625558
0
LINE
8
Layer 1
10
14.145944
20
42.625558
11
14.838069
21
42.536251
0
LINE
8
Layer 1
10
14.838069
20
42.536251
11
14.838071
21
42.536250
0
LINE
8
Layer 1
10
45.843971
20
42.549481
11
45.552898
21
41.577033
0
LINE
8
Layer 1
10
45.552898
20
41.577033
11
44.138054
21
38.238790
0
LINE
8
Layer 1
10
44.138054
20
38.238790
11
43.324891
21
36.824256
0
LINE
8
Layer 1
10
43.324891
20
36.824256
11
42.509868
21
35.709273
0
LINE
8
Layer 1
10
42.509868
20
35.709273
11
40.787411
21
34.186931
0
LINE
8
Layer 1
10
40.787411
20
34.186931
11
38.434848
21
32.818393
0
LINE
8
Layer 1
10
38.434848
20
32.818393
11
35.419929
21
31.736792
0
LINE
8
Layer 1
10
35.419929
20
31.736792
11
33.937898
21
31.408095
0
LINE
8
Layer 1
10
33.937898
20
31.408095
11
32.732468
21
31.290263
0
LINE
8
Layer 1
10
32.732468
20
31.290263
11
32.381858
21
31.296878
0
LINE
8
Layer 1
10
32.381858
20
31.296878
11
33.016926
21
31.548259
0
LINE
8
Layer 1
10
33.016926
20
31.548259
11
34.763366
21
32.375170
0
LINE
8
Layer 1
10
34.763366
20
32.375170
11
37.154795
21
33.773578
0
LINE
8
Layer 1
10
37.154795
20
33.773578
11
39.109615
21
35.251991
0
LINE
8
Layer 1
10
39.109615
20
35.251991
11
40.612940
21
36.798626
0
LINE
8
Layer 1
10
40.612940
20
36.798626
11
41.649886
21
38.401700
0
LINE
8
Layer 1
10
41.649886
20
38.401700
11
42.040188
21
39.393993
0
LINE
8
Layer 1
10
42.040188
20
39.393993
11
42.144379
21
40.421015
0
LINE
8
Layer 1
10
42.144379
20
40.421015
11
42.079880
21
41.299193
0
LINE
8
Layer 1
10
42.079880
20
41.299193
11
42.078226
21
41.489382
0
LINE
8
Layer 1
10
42.078226
20
41.489382
11
42.503259
21
41.709341
0
LINE
8
Layer 1
10
42.503259
20
41.709341
11
44.067774
21
42.294794
0
LINE
8
Layer 1
10
44.067774
20
42.294794
11
45.513219
21
42.622251
0
LINE
8
Layer 1
10
45.513219
20
42.622251
11
45.797676
21
42.655327
0
LINE
8
Layer 1
10
45.797676
20
42.655327
11
45.843983
21
42.549482
0
LINE
8
Layer 1
10
45.843983
20
42.549482
11
45.843971
21
42.549481
0
LINE
8
Layer 1
10
19.620971
20
41.735800
11
20.903510
21
40.984136
0
LINE
8
Layer 1
10
20.903510
20
40.984136
11
22.161241
21
40.009210
0
LINE
8
Layer 1
10
22.161241
20
40.009210
11
22.893884
21
39.301374
0
LINE
8
Layer 1
10
22.893884
20
39.301374
11
23.080766
21
38.772150
0
LINE
8
Layer 1
10
23.080766
20
38.772150
11
23.629835
21
37.224170
0
LINE
8
Layer 1
10
23.629835
20
37.224170
11
23.735680
21
37.005865
0
LINE
8
Layer 1
10
23.735680
20
37.005865
11
22.816155
21
38.018005
0
LINE
8
Layer 1
10
22.816155
20
38.018005
11
20.719936
21
40.248187
0
LINE
8
Layer 1
10
20.719936
20
40.248187
11
18.886675
21
41.629955
0
LINE
8
Layer 1
10
18.886675
20
41.629955
11
18.631986
21
41.806087
0
LINE
8
Layer 1
10
18.631986
20
41.806087
11
18.694832
21
41.947489
0
LINE
8
Layer 1
10
18.694832
20
41.947489
11
18.932156
21
42.030180
0
LINE
8
Layer 1
10
18.932156
20
42.030180
11
19.620973
21
41.735800
0
LINE
8
Layer 1
10
19.620973
20
41.735800
11
19.620971
21
41.735800
0
LINE
8
Layer 1
10
41.226471
20
41.960720
11
41.317431
21
41.753165
0
LINE
8
Layer 1
10
41.317431
20
41.753165
11
40.961859
21
41.491034
0
LINE
8
Layer 1
10
40.961859
20
41.491034
11
39.293153
21
40.219245
0
LINE
8
Layer 1
10
39.293153
20
40.219245
11
37.435909
21
38.302464
0
LINE
8
Layer 1
10
37.435909
20
38.302464
11
36.516384
21
37.244014
0
LINE
8
Layer 1
10
36.516384
20
37.244014
11
36.238542
21
36.946326
0
LINE
8
Layer 1
10
36.238542
20
36.946326
11
36.437001
21
37.310167
0
LINE
8
Layer 1
10
36.437001
20
37.310167
11
36.946378
21
38.877987
0
LINE
8
Layer 1
10
36.946378
20
38.877987
11
37.048915
21
39.230251
0
LINE
8
Layer 1
10
37.048915
20
39.230251
11
37.429294
21
39.612284
0
LINE
8
Layer 1
10
37.429294
20
39.612284
11
38.944194
21
40.820400
0
LINE
8
Layer 1
10
38.944194
20
40.820400
11
40.419404
21
41.735794
0
LINE
8
Layer 1
10
40.419404
20
41.735794
11
41.074318
21
42.073174
0
LINE
8
Layer 1
10
41.074318
20
42.073174
11
41.226470
21
41.960714
0
LINE
8
Layer 1
10
41.226470
20
41.960714
11
41.226471
21
41.960720
0
LINE
8
Layer 1
10
18.813871
20
41.001503
11
20.463559
21
39.709868
0
LINE
8
Layer 1
10
20.463559
20
39.709868
11
22.286901
21
37.753393
0
LINE
8
Layer 1
10
22.286901
20
37.753393
11
23.867951
21
35.973883
0
LINE
8
Layer 1
10
23.867951
20
35.973883
11
25.283621
21
34.432523
0
LINE
8
Layer 1
10
25.283621
20
34.432523
11
26.729062
21
32.941601
0
LINE
8
Layer 1
10
26.729062
20
32.941601
11
27.995891
21
31.991483
0
LINE
8
Layer 1
10
27.995891
20
31.991483
11
28.338232
21
31.750025
0
LINE
8
Layer 1
10
28.338232
20
31.750025
11
28.035583
21
31.826101
0
LINE
8
Layer 1
10
28.035583
20
31.826101
11
27.122673
21
32.163481
0
LINE
8
Layer 1
10
27.122673
20
32.163481
11
24.579095
21
33.384003
0
LINE
8
Layer 1
10
24.579095
20
33.384003
11
21.797363
21
35.219741
0
LINE
8
Layer 1
10
21.797363
20
35.219741
11
20.637828
21
36.228570
0
LINE
8
Layer 1
10
20.637828
20
36.228570
11
19.660626
21
37.336632
0
LINE
8
Layer 1
10
19.660626
20
37.336632
11
18.926536
21
38.464540
0
LINE
8
Layer 1
10
18.926536
20
38.464540
11
18.496333
21
39.532911
0
LINE
8
Layer 1
10
18.496333
20
39.532911
11
18.436795
21
41.213191
0
LINE
8
Layer 1
10
18.436795
20
41.213191
11
18.813867
21
41.001502
0
LINE
8
Layer 1
10
18.813867
20
41.001502
11
18.813871
21
41.001503
0
LINE
8
Layer 1
10
41.603571
20
40.452434
11
41.497726
21
39.568465
0
LINE
8
Layer 1
10
41.497726
20
39.568465
11
41.114040
21
38.600154
0
LINE
8
Layer 1
10
41.114040
20
38.600154
11
40.064069
21
37.055586
0
LINE
8
Layer 1
10
40.064069
20
37.055586
11
38.489424
21
35.506679
0
LINE
8
Layer 1
10
38.489424
20
35.506679
11
36.475689
21
34.025991
0
LINE
8
Layer 1
10
36.475689
20
34.025991
11
34.108450
21
32.686084
0
LINE
8
Layer 1
10
34.108450
20
32.686084
11
31.621100
21
31.713636
0
LINE
8
Layer 1
10
31.621100
20
31.713636
11
32.302475
21
32.189937
0
LINE
8
Layer 1
10
32.302475
20
32.189937
11
33.465940
21
33.118560
0
LINE
8
Layer 1
10
33.465940
20
33.118560
11
34.783205
21
34.498677
0
LINE
8
Layer 1
10
34.783205
20
34.498677
11
36.152575
21
35.987117
0
LINE
8
Layer 1
10
36.152575
20
35.987117
11
37.469015
21
37.475557
0
LINE
8
Layer 1
10
37.469015
20
37.475557
11
39.219586
21
39.362565
0
LINE
8
Layer 1
10
39.219586
20
39.362565
11
40.816355
21
40.723667
0
LINE
8
Layer 1
10
40.816355
20
40.723667
11
41.505172
21
41.094123
0
LINE
8
Layer 1
10
41.505172
20
41.094123
11
41.603575
21
40.452440
0
LINE
8
Layer 1
10
41.603575
20
40.452440
11
41.603571
21
40.452434
0
LINE
8
Layer 1
10
35.828421
20
37.336634
11
35.398427
21
36.575876
0
LINE
8
Layer 1
10
35.398427
20
36.575876
11
36.231954
21
38.209856
0
LINE
8
Layer 1
10
36.231954
20
38.209856
11
35.828421
21
37.336638
0
LINE
8
Layer 1
10
35.828421
20
37.336638
11
35.828421
21
37.336634
0
LINE
8
Layer 1
10
24.417021
20
37.098484
11
24.665921
21
36.519646
0
LINE
8
Layer 1
10
24.665921
20
36.519646
11
24.245023
21
37.230790
0
LINE
8
Layer 1
10
24.245023
20
37.230790
11
23.815029
21
38.123854
0
LINE
8
Layer 1
10
23.815029
20
38.123854
11
24.417020
21
37.098484
0
LINE
8
Layer 1
10
24.417020
20
37.098484
11
24.417021
21
37.098484
0
LINE
8
Layer 1
10
11.510600
20
20.375000
11
5.536990
21
19.673779
0
LINE
8
Layer 1
10
5.536990
20
19.673779
11
5.121881
21
19.495166
0
LINE
8
Layer 1
10
5.121881
20
19.495166
11
5.093766
21
19.177632
0
LINE
8
Layer 1
10
5.093766
20
19.177632
11
5.375743
21
19.061865
0
LINE
8
Layer 1
10
5.375743
20
19.061865
11
6.734356
21
19.243785
0
LINE
8
Layer 1
10
6.734356
20
19.243785
11
9.496240
21
19.595222
0
LINE
8
Layer 1
10
9.496240
20
19.595222
11
11.841356
21
19.673779
0
LINE
8
Layer 1
10
11.841356
20
19.673779
11
15.123366
21
19.462090
0
LINE
8
Layer 1
10
15.123366
20
19.462090
11
18.688186
21
18.694716
0
LINE
8
Layer 1
10
18.688186
20
18.694716
11
20.937386
21
18.105955
0
LINE
8
Layer 1
10
20.937386
20
18.105955
11
24.269012
21
17.313773
0
LINE
8
Layer 1
10
24.269012
20
17.313773
11
27.188836
21
16.789515
0
LINE
8
Layer 1
10
27.188836
20
16.789515
11
29.967256
21
16.710131
0
LINE
8
Layer 1
10
29.967256
20
16.710131
11
32.117226
21
16.710131
0
LINE
8
Layer 1
10
32.117226
20
16.710131
11
33.704896
21
16.987973
0
LINE
8
Layer 1
10
33.704896
20
16.987973
11
41.180176
21
18.674873
0
LINE
8
Layer 1
10
41.180176
20
18.674873
11
44.958335
21
19.481939
0
LINE
8
Layer 1
10
44.958335
20
19.481939
11
48.126226
21
19.673782
0
LINE
8
Layer 1
10
48.126226
20
19.673782
11
50.566441
21
19.586130
0
LINE
8
Layer 1
10
50.566441
20
19.586130
11
53.537536
21
19.210712
0
LINE
8
Layer 1
10
53.537536
20
19.210712
11
54.774596
21
19.118098
0
LINE
8
Layer 1
10
54.774596
20
19.118098
11
54.905248
21
19.350460
0
LINE
8
Layer 1
10
54.905248
20
19.350460
11
54.767981
21
19.587784
0
LINE
8
Layer 1
10
54.767981
20
19.587784
11
50.448201
21
20.209621
0
LINE
8
Layer 1
10
50.448201
20
20.209621
11
45.215511
21
20.421310
0
LINE
8
Layer 1
10
45.215511
20
20.421310
11
42.316359
21
20.161659
0
LINE
8
Layer 1
10
42.316359
20
20.161659
11
38.335611
21
19.276860
0
LINE
8
Layer 1
10
38.335611
20
19.276860
11
33.927346
21
18.277949
0
LINE
8
Layer 1
10
33.927346
20
18.277949
11
30.893411
21
18.013340
0
LINE
8
Layer 1
10
30.893411
20
18.013340
11
27.834666
21
18.120012
0
LINE
8
Layer 1
10
27.834666
20
18.120012
11
24.582421
21
18.688100
0
LINE
8
Layer 1
10
24.582421
20
18.688100
11
22.657371
21
19.111479
0
LINE
8
Layer 1
10
22.657371
20
19.111479
11
21.182161
21
19.455474
0
LINE
8
Layer 1
10
21.182161
20
19.455474
11
16.935141
21
20.275770
0
LINE
8
Layer 1
10
16.935141
20
20.275770
11
14.302254
21
20.404769
0
LINE
8
Layer 1
10
14.302254
20
20.404769
11
11.510601
21
20.375000
0
LINE
8
Layer 1
10
11.510601
20
20.375000
11
11.510600
21
20.375000
0
LINE
8
Layer 1
10
19.912020
20
19.124710
11
22.293520
21
18.588872
0
LINE
8
Layer 1
10
22.293520
20
18.588872
11
26.295770
21
17.728884
0
LINE
8
Layer 1
10
26.295770
20
17.728884
11
29.921775
21
17.397293
0
LINE
8
Layer 1
10
29.921775
20
17.397293
11
33.691660
21
17.656116
0
LINE
8
Layer 1
10
33.691660
20
17.656116
11
34.005886
21
17.657770
0
LINE
8
Layer 1
10
34.005886
20
17.657770
11
33.307973
21
17.510580
0
LINE
8
Layer 1
10
33.307973
20
17.510580
11
31.493729
21
17.303852
0
LINE
8
Layer 1
10
31.493729
20
17.303852
11
29.371873
21
17.285660
0
LINE
8
Layer 1
10
29.371873
20
17.285660
11
25.813674
21
17.608983
0
LINE
8
Layer 1
10
25.813674
20
17.608983
11
21.089533
21
18.681490
0
LINE
8
Layer 1
10
21.089533
20
18.681490
11
19.151253
21
19.184252
0
LINE
8
Layer 1
10
19.151253
20
19.184252
11
18.350803
21
19.395114
0
LINE
8
Layer 1
10
18.350803
20
19.395114
11
18.324342
21
19.442248
0
LINE
8
Layer 1
10
18.324342
20
19.442248
11
19.912012
21
19.124714
0
LINE
8
Layer 1
10
19.912012
20
19.124714
11
19.912020
21
19.124710
0
LINE
8
Layer 1
10
41.338920
20
19.356245
11
39.956320
21
18.985789
0
LINE
8
Layer 1
10
39.956320
20
18.985789
11
37.812970
21
18.449951
0
LINE
8
Layer 1
10
37.812970
20
18.449951
11
36.926521
21
18.271338
0
LINE
8
Layer 1
10
36.926521
20
18.271338
11
38.948319
21
18.821233
0
LINE
8
Layer 1
10
38.948319
20
18.821233
11
41.272771
21
19.376088
0
LINE
8
Layer 1
10
41.272771
20
19.376088
11
41.338924
21
19.356242
0
LINE
8
Layer 1
10
41.338924
20
19.356242
11
41.338920
21
19.356245
 0 
ENDSEC
 0 
EOF