<?xml version="1.0" standalone="no"?>
<!DOCTYPE svg PUBLIC "-//W3C//DTD SVG 20010904//EN"
 "http://www.w3.org/TR/2001/REC-SVG-20010904/DTD/svg10.dtd">
<svg version="1.0" xmlns="http://www.w3.org/2000/svg"
 width="170.078740pt" height="170.078740pt" viewBox="0 0 170.078740 170.078740"
 preserveAspectRatio="xMidYMid meet">
<metadata>
Created by potrace 1.16, written by Peter Selinger 2001-2019
</metadata>
<g transform="translate(0.000000,170.078740) scale(0.018752,-0.018752)"
fill="#000000" stroke="none">
<path d="M2501 6616 c-52 -29 -50 24 -50 -1216 -1 -1232 0 -1236 49 -1464 53
-244 171 -486 337 -693 250 -314 637 -544 1118 -668 195 -50 295 -60 600 -60
284 0 348 6 555 52 419 92 846 329 1088 602 267 302 408 632 442 1036 8 88 10
486 8 1235 -3 1011 -4 1108 -20 1136 -18 33 -55 54 -95 54 -22 0 -214 -94
-967 -475 l-118 -60 -887 0 -886 0 -103 48 c-57 27 -303 147 -547 268 -271
134 -454 219 -472 219 -15 -1 -39 -7 -52 -14z m689 -521 c146 -70 271 -133
278 -140 11 -10 -7 -28 -102 -99 -132 -99 -368 -323 -458 -435 -75 -93 -152
-210 -207 -314 l-41 -78 0 660 0 660 133 -63 c72 -35 251 -121 397 -191z
m3245 -400 c0 -360 -3 -655 -6 -655 -4 0 -12 15 -19 33 -62 153 -257 409 -448
586 -87 81 -274 233 -324 265 -10 6 -18 15 -18 19 0 7 794 406 810 407 3 0 5
-295 5 -655z m-968 98 c473 -369 640 -555 803 -895 170 -356 201 -719 89
-1053 -142 -421 -485 -776 -934 -964 -198 -83 -467 -145 -712 -164 l-53 -4 0
366 c0 348 -1 368 -20 399 -36 59 -119 67 -169 17 l-26 -25 -3 -377 -3 -376
-97 7 c-571 42 -1089 305 -1389 703 -33 45 -93 146 -132 225 -139 282 -180
556 -126 860 45 258 214 592 420 828 87 100 295 285 476 422 63 48 123 96 134
107 18 21 24 21 817 21 l799 0 126 -97z"/>
<path d="M3700 4924 c-14 -2 -65 -9 -115 -15 -231 -28 -606 -133 -666 -187
-62 -56 -43 -149 39 -191 22 -11 206 -86 408 -167 400 -160 435 -169 491 -128
32 23 35 29 178 328 60 124 105 231 105 248 0 41 -25 85 -60 103 -23 12 -64
15 -192 14 -90 -1 -174 -3 -188 -5z m180 -198 c0 -13 -143 -276 -151 -276 -8
0 -372 142 -439 171 -24 11 -24 12 20 25 75 23 309 64 420 73 141 11 150 12
150 7z"/>
<path d="M5012 4915 c-34 -25 -55 -73 -49 -114 5 -38 229 -513 256 -545 27
-31 72 -49 110 -43 20 2 122 38 226 80 105 41 283 112 397 157 114 45 218 90
232 101 29 23 46 74 39 113 -11 54 -55 83 -206 131 -295 96 -465 125 -767 132
-189 4 -218 3 -238 -12z m408 -200 c154 -12 421 -68 403 -85 -4 -4 -107 -47
-228 -95 -121 -48 -223 -90 -227 -92 -4 -2 -38 58 -75 134 -37 76 -69 142 -71
146 -2 5 24 6 59 3 35 -3 98 -8 139 -11z"/>
</g>
</svg>
