<?xml version="1.0" standalone="no"?>
<!DOCTYPE svg PUBLIC "-//W3C//DTD SVG 20010904//EN"
 "http://www.w3.org/TR/2001/REC-SVG-20010904/DTD/svg10.dtd">
<svg version="1.0" xmlns="http://www.w3.org/2000/svg"
 width="170.078740pt" height="170.078740pt" viewBox="0 0 170.078740 170.078740"
 preserveAspectRatio="xMidYMid meet">
<metadata>
Created by potrace 1.16, written by Peter Selinger 2001-2019
</metadata>
<g transform="translate(0.000000,170.078740) scale(0.018752,-0.018752)"
fill="#000000" stroke="none">
<path d="M4533 8403 l-23 -4 0 -3708 0 -3708 2010 2 2011 2 222 -236 c122
-130 243 -258 269 -286 l48 -50 0 495 0 496 -55 54 c-30 30 -55 58 -55 62 0 4
25 8 55 8 35 0 55 4 55 11 0 9 -20 10 -67 6 l-67 -7 -65 68 c-36 37 -150 154
-253 259 l-188 191 -157 83 c-145 75 -387 209 -701 386 -111 64 -134 83 -95
83 21 0 185 77 281 132 198 114 403 302 563 518 107 144 152 217 224 361 302
601 355 1330 145 1970 -149 454 -377 811 -695 1087 -290 251 -581 388 -976
457 -120 21 -289 31 -289 16 0 -7 20 -11 53 -11 131 0 369 -43 539 -97 408
-129 780 -421 1055 -828 170 -251 306 -588 373 -920 101 -506 48 -1038 -152
-1519 -106 -254 -271 -510 -463 -715 -164 -176 -446 -362 -652 -430 -61 -20
-82 -21 -818 -21 -497 0 -755 -3 -755 -10 0 -7 253 -10 738 -10 l738 0 91
-152 c50 -84 160 -277 243 -428 84 -151 176 -317 205 -367 l54 -93 -1621 0
c-1473 0 -1620 1 -1614 16 3 9 6 1440 6 3180 l0 3164 2160 0 c1433 0 2160 3
2160 10 0 7 -730 10 -2170 10 l-2170 0 0 -3200 0 -3200 1638 0 1639 0 209
-217 c116 -120 229 -239 253 -266 l44 -47 -1997 0 -1996 0 0 3695 0 3695 2275
0 c1510 0 2275 3 2275 10 0 10 -4487 13 -4537 3z"/>
<path d="M1820 6894 c-8 -1 -75 -12 -148 -24 -215 -34 -484 -120 -675 -216
-400 -201 -742 -521 -954 -893 l-43 -76 1 -335 0 -335 38 115 c111 333 263
594 498 856 240 268 628 495 1016 593 61 16 131 31 155 35 l42 6 0 -1279 0
-1280 -112 -148 c-112 -148 -337 -442 -497 -649 -343 -442 -407 -523 -413
-524 -13 0 -195 188 -270 281 -194 241 -311 454 -399 724 -23 72 -45 139 -50
150 -4 11 -8 -132 -8 -318 -1 -392 -12 -342 126 -552 320 -484 771 -818 1308
-969 119 -33 285 -66 365 -73 78 -7 134 16 172 69 l23 33 0 2355 0 2355 -23
33 c-33 46 -104 77 -152 66z m-70 -3963 c0 -363 -3 -662 -7 -664 -15 -9 -200
35 -317 74 -145 49 -268 104 -387 172 -84 47 -103 67 -79 82 5 3 61 72 123
153 525 682 649 840 660 841 4 1 7 -296 7 -658z"/>
<path d="M2235 6881 c-28 -12 -62 -51 -74 -84 -8 -20 -11 -732 -11 -2359 0
-2574 -5 -2367 61 -2423 58 -48 129 -44 393 22 444 111 753 288 1081 617 379
382 620 889 701 1477 25 182 25 558 1 699 -105 591 -356 1061 -782 1461 -163
152 -340 273 -558 380 -163 80 -396 163 -542 194 -94 20 -242 29 -270 16z
m309 -301 c272 -76 541 -215 771 -398 95 -76 276 -258 359 -362 278 -349 443
-768 464 -1179 24 -465 -47 -835 -233 -1218 -35 -73 -66 -133 -69 -133 -11 0
-592 647 -1338 1492 l-88 98 0 865 c0 712 2 865 13 865 8 0 62 -14 121 -30z
m121 -2391 c266 -299 780 -874 893 -1001 74 -84 111 -132 106 -140 -15 -25
-87 -108 -94 -108 -11 0 -513 558 -922 1024 l-238 271 0 119 0 119 58 -63 c31
-35 120 -134 197 -221z m50 -709 c205 -227 362 -404 593 -667 l72 -82 -68 -56
c-151 -127 -409 -272 -587 -330 -99 -32 -267 -75 -294 -75 l-21 0 0 777 0 777
38 -44 c20 -24 141 -159 267 -300z"/>
</g>
</svg>
