<?xml version="1.0" standalone="no"?>
<!DOCTYPE svg PUBLIC "-//W3C//DTD SVG 20010904//EN"
 "http://www.w3.org/TR/2001/REC-SVG-20010904/DTD/svg10.dtd">
<svg version="1.0" xmlns="http://www.w3.org/2000/svg"
 width="170.078740pt" height="170.078740pt" viewBox="0 0 170.078740 170.078740"
 preserveAspectRatio="xMidYMid meet">
<metadata>
Created by potrace 1.16, written by Peter Selinger 2001-2019
</metadata>
<g transform="translate(0.000000,170.078740) scale(0.018752,-0.018752)"
fill="#000000" stroke="none">
<path d="M1607 7798 c-26 -22 -28 -28 -37 -178 -5 -85 -14 -211 -20 -280 -10
-119 -23 -315 -35 -520 -4 -52 -8 -115 -11 -140 -6 -56 -23 -272 -31 -408 -6
-105 7 -284 33 -452 27 -170 114 -391 216 -544 l39 -59 -35 -87 c-43 -107 -99
-299 -121 -411 -9 -46 -20 -182 -25 -302 -8 -193 -7 -236 11 -379 42 -341 96
-532 230 -804 63 -130 192 -331 287 -448 89 -111 298 -314 407 -397 171 -129
410 -270 580 -341 l90 -37 -1036 -1 c-1028 0 -1037 0 -1062 -20 -38 -30 -45
-82 -19 -135 31 -64 187 -266 325 -421 152 -171 189 -204 227 -204 33 0 70 39
70 74 0 32 -47 100 -136 196 -107 115 -294 339 -294 351 0 7 2495 -6 2505 -13
15 -9 346 -55 495 -69 311 -28 855 20 1267 111 303 68 484 130 748 260 661
323 1119 883 1309 1602 55 204 67 316 71 623 5 324 -7 432 -85 745 -113 458
-193 706 -287 895 -42 83 -185 310 -259 411 -244 331 -643 597 -1059 704 -230
59 -370 71 -690 60 -322 -12 -629 -61 -1010 -161 -108 -28 -198 -49 -201 -46
-3 2 -32 96 -65 208 -33 112 -78 263 -99 334 -21 72 -48 163 -60 202 -24 85
-49 109 -104 99 -26 -5 -46 -22 -91 -79 -31 -39 -134 -166 -229 -280 -153
-187 -174 -208 -196 -203 -14 3 -56 12 -95 20 -132 29 -265 39 -420 33 -147
-7 -201 -14 -415 -57 l-105 -21 -24 28 c-13 15 -68 78 -121 138 -53 61 -140
164 -193 230 -54 66 -110 135 -125 153 -36 44 -80 52 -115 20z m2202 -549 c50
-168 91 -310 91 -315 0 -9 -190 -75 -213 -74 -34 1 -517 -211 -667 -293 -91
-50 -275 -166 -349 -220 -88 -65 -321 -269 -392 -343 -153 -162 -304 -365
-400 -541 -18 -35 -37 -63 -40 -63 -4 0 -24 29 -44 66 -56 99 -112 268 -132
396 -25 162 -24 463 5 813 28 351 28 360 42 590 7 105 15 200 18 212 6 20 12
16 62 -45 134 -163 332 -382 346 -382 9 0 46 9 82 20 213 63 541 95 725 70
103 -14 264 -45 299 -59 53 -20 95 20 362 347 60 73 110 131 112 130 1 -2 43
-141 93 -309z m1916 -224 c592 -272 1085 -917 1320 -1725 73 -251 112 -596
102 -890 -15 -434 -163 -881 -427 -1298 -182 -285 -457 -574 -705 -736 -257
-170 -483 -270 -790 -351 -253 -66 -396 -86 -683 -92 -240 -5 -280 -3 -552 33
-419 56 -788 183 -1131 390 -387 233 -706 572 -899 954 -90 179 -172 449 -207
678 -23 151 -23 571 0 742 16 118 67 354 80 367 4 3 14 -3 24 -15 33 -37 137
-124 211 -174 224 -151 477 -221 797 -220 167 1 248 10 377 43 248 63 439 168
582 319 188 201 291 426 358 784 19 101 23 154 23 326 -1 191 -3 216 -33 365
-18 88 -45 202 -59 252 -15 51 -25 95 -22 97 12 12 383 99 599 141 300 58 471
75 745 71 l160 -2 130 -59z m325 -31 c418 -145 737 -391 965 -744 91 -140 217
-483 340 -924 117 -422 152 -642 149 -941 -5 -556 -157 -1013 -476 -1432 -288
-379 -673 -644 -1194 -822 -115 -40 -166 -50 -82 -16 64 25 208 109 338 196
386 259 747 715 945 1193 141 340 202 616 212 961 6 213 -4 354 -43 563 -59
326 -141 566 -309 907 -223 455 -550 838 -895 1051 -90 55 -87 56 50 8z
m-2117 -181 c39 -130 60 -209 84 -318 26 -121 28 -145 27 -345 0 -193 -3 -228
-27 -341 -87 -412 -271 -685 -562 -832 -83 -41 -273 -102 -365 -117 -95 -15
-341 -12 -445 5 -298 48 -523 167 -696 366 l-51 59 48 87 c125 231 261 408
471 614 152 150 220 207 373 315 196 139 372 234 655 354 151 64 441 169 471
170 7 0 14 -8 17 -17z"/>
</g>
</svg>
