<?xml version="1.0" standalone="no"?>
<!DOCTYPE svg PUBLIC "-//W3C//DTD SVG 20010904//EN"
 "http://www.w3.org/TR/2001/REC-SVG-20010904/DTD/svg10.dtd">
<svg version="1.0" xmlns="http://www.w3.org/2000/svg"
 width="170.078740pt" height="170.078740pt" viewBox="0 0 170.078740 170.078740"
 preserveAspectRatio="xMidYMid meet">
<metadata>
Created by potrace 1.16, written by Peter Selinger 2001-2019
</metadata>
<g transform="translate(0.000000,170.078740) scale(0.018752,-0.018752)"
fill="#000000" stroke="none">
<path d="M4515 7431 c-67 -31 -169 -148 -305 -352 -190 -283 -446 -715 -545
-918 l-50 -103 -45 6 c-72 10 -406 34 -645 47 -253 13 -849 7 -965 -11 -130
-20 -179 -58 -187 -147 -11 -113 117 -378 335 -693 131 -189 552 -740 624
-816 l29 -31 -183 -229 c-383 -478 -681 -900 -744 -1051 -42 -102 -28 -189 37
-227 66 -39 152 -48 485 -53 322 -5 693 10 1034 41 80 7 148 11 152 7 3 -3 32
-64 64 -136 142 -320 412 -816 555 -1021 133 -191 197 -244 294 -244 119 0
215 97 469 472 124 184 333 536 445 751 l83 157 54 0 c31 0 169 -8 307 -17
348 -24 1089 -25 1228 -2 110 19 144 33 173 72 50 68 10 185 -141 412 -146
219 -496 713 -656 925 -48 62 -87 119 -87 125 1 5 11 22 23 36 406 481 739
947 871 1219 l61 125 0 92 c0 77 -3 96 -21 120 -55 74 -144 91 -524 99 -161 4
-411 2 -575 -5 -159 -6 -378 -14 -485 -17 l-195 -6 -29 68 c-53 123 -283 575
-374 734 -116 203 -244 398 -316 482 -88 103 -164 130 -251 89z m136 -92 c111
-79 487 -715 692 -1170 41 -90 76 -171 79 -180 5 -12 20 -15 75 -13 37 2 205
9 373 16 388 16 1057 16 1162 0 182 -28 209 -71 148 -230 -58 -151 -250 -453
-483 -761 -112 -148 -346 -441 -431 -540 -25 -30 -46 -59 -46 -63 0 -5 80
-116 178 -248 392 -527 703 -983 742 -1088 33 -87 14 -104 -130 -122 -225 -27
-660 -24 -1250 10 -91 5 -209 11 -263 14 l-97 5 -36 -72 c-60 -118 -222 -413
-302 -547 -167 -281 -452 -679 -528 -739 -83 -65 -149 -32 -275 139 -159 215
-419 695 -601 1110 -28 63 -54 118 -57 122 -4 4 -60 3 -126 -2 -706 -56 -1355
-65 -1518 -19 -48 13 -71 47 -62 91 14 69 161 296 409 633 109 148 423 546
519 658 27 31 47 63 44 70 -3 6 -31 44 -64 82 -64 76 -199 246 -334 420 -335
430 -555 784 -603 968 -17 64 -10 99 22 116 48 26 215 36 587 35 393 -1 687
-13 999 -44 99 -9 184 -14 188 -11 4 3 42 74 86 156 167 317 467 806 635 1035
144 197 189 225 268 169z"/>
<path d="M4512 7134 c-18 -9 -47 -37 -66 -63 -95 -130 -556 -937 -664 -1164
-33 -69 -39 -77 -60 -72 -39 9 -280 33 -572 56 -199 15 -368 22 -610 23 -372
1 -396 -2 -456 -65 -27 -28 -29 -36 -29 -103 0 -62 4 -81 33 -135 49 -94 141
-236 265 -411 168 -236 271 -373 502 -665 39 -49 75 -96 79 -103 5 -8 -9 -36
-37 -75 -69 -98 -681 -1017 -710 -1068 -21 -35 -27 -59 -27 -102 0 -48 4 -59
30 -86 53 -52 95 -56 530 -42 212 7 502 19 645 27 208 11 262 11 268 1 4 -6
53 -97 109 -202 134 -254 383 -692 474 -836 133 -209 173 -249 256 -249 81 0
129 49 270 275 120 192 368 645 459 838 l84 178 30 -5 c60 -11 680 -28 1060
-30 354 -1 393 1 422 16 17 10 39 28 47 40 23 32 20 101 -5 151 -24 46 -170
283 -334 542 -59 94 -130 206 -158 249 -27 44 -82 130 -122 192 -41 62 -79
122 -85 134 -10 18 1 36 98 158 302 382 654 882 742 1057 77 153 30 248 -136
275 -133 22 -1226 -5 -1475 -36 l-46 -6 -301 605 c-251 503 -309 613 -349 657
-56 60 -104 73 -161 44z m96 -96 c32 -35 161 -284 424 -816 197 -399 241 -482
256 -478 60 18 920 56 1273 56 287 0 369 -20 369 -88 0 -81 -426 -696 -837
-1208 -40 -50 -73 -94 -73 -97 0 -4 42 -71 93 -149 169 -258 208 -320 394
-617 297 -473 285 -451 259 -486 -14 -19 -25 -20 -308 -18 -378 3 -1119 21
-1180 29 l-47 6 -129 -259 c-194 -387 -435 -811 -545 -958 -86 -115 -110 -106
-231 80 -128 195 -435 741 -566 1005 l-72 145 -92 -7 c-139 -10 -897 -39
-1111 -41 -168 -2 -194 0 -218 16 -54 35 -71 4 483 832 118 176 236 348 262
382 26 35 43 65 38 68 -9 6 -83 97 -271 335 -113 142 -311 412 -441 600 -91
132 -185 298 -200 354 -12 44 -11 48 13 71 41 41 112 48 404 41 387 -10 906
-47 1178 -85 l58 -8 66 126 c241 460 611 1103 669 1166 29 31 54 32 82 3z"/>
</g>
</svg>
