999
"DXF R12 Output" (www.mydxf.blogspot.com)
 0 
SECTION
 2 
HEADER
 9 
$ACADVER
 1 
AC1009
 9 
$EXTMIN
 10 
 0 
 20 
 0 
 9 
$EXTMAX
 10 
 8.5 
 20 
 11 
 0 
ENDSEC
 0 
SECTION
 2 
ENTITIES
0
LINE
8
Layer 1
10
24.847000
20
50.203300
11
24.780847
21
49.052240
0
LINE
8
Layer 1
10
24.780847
20
49.052240
11
23.669477
21
48.152561
0
LINE
8
Layer 1
10
23.669477
20
48.152561
11
21.109357
21
46.048901
0
LINE
8
Layer 1
10
21.109357
20
46.048901
11
19.250457
21
44.527381
0
LINE
8
Layer 1
10
19.250457
20
44.527381
11
17.497407
21
43.098481
0
LINE
8
Layer 1
10
17.497407
20
43.098481
11
15.638507
21
41.576961
0
LINE
8
Layer 1
10
15.638507
20
41.576961
11
14.103757
21
40.326671
0
LINE
8
Layer 1
10
14.103757
20
40.326671
11
12.965927
21
39.347608
0
LINE
8
Layer 1
10
12.965927
20
39.347608
11
15.552507
21
34.333218
0
LINE
8
Layer 1
10
15.552507
20
34.333218
11
16.247112
21
32.824928
0
LINE
8
Layer 1
10
16.247112
20
32.824928
11
15.711274
21
32.977080
0
LINE
8
Layer 1
10
15.711274
20
32.977080
11
15.248204
21
33.129232
0
LINE
8
Layer 1
10
15.248204
20
33.129232
11
14.222834
21
29.927432
0
LINE
8
Layer 1
10
14.222834
20
29.927432
11
14.143451
21
29.834818
0
LINE
8
Layer 1
10
14.143451
20
29.834818
11
12.582241
21
30.602192
0
LINE
8
Layer 1
10
12.582241
20
30.602192
11
11.093801
21
31.369566
0
LINE
8
Layer 1
10
11.093801
20
31.369566
11
10.551347
21
30.820497
0
LINE
8
Layer 1
10
10.551347
20
30.820497
11
7.700157
21
27.850227
0
LINE
8
Layer 1
10
7.700157
20
27.850227
11
3.757447
21
23.768597
0
LINE
8
Layer 1
10
3.757447
20
23.768597
11
2.116857
21
22.048617
0
LINE
8
Layer 1
10
2.116857
20
22.048617
11
2.507159
21
21.539240
0
LINE
8
Layer 1
10
2.507159
20
21.539240
11
2.890846
21
21.082785
0
LINE
8
Layer 1
10
2.890846
20
21.082785
11
2.202856
21
19.389275
0
LINE
8
Layer 1
10
2.202856
20
19.389275
11
0.754106
21
15.731015
0
LINE
8
Layer 1
10
0.754106
20
15.731015
11
-0.000037
21
13.772885
0
LINE
8
Layer 1
10
-0.000037
20
13.772885
11
-0.000037
21
11.497225
0
LINE
8
Layer 1
10
-0.000037
20
11.497225
11
-0.000037
21
9.221565
0
LINE
8
Layer 1
10
-0.000037
20
9.221565
11
0.410111
21
8.990030
0
LINE
8
Layer 1
10
0.410111
20
8.990030
11
1.753011
21
8.222656
0
LINE
8
Layer 1
10
1.753011
20
8.222656
11
3.902981
21
6.998826
0
LINE
8
Layer 1
10
3.902981
20
6.998826
11
5.126811
21
6.304221
0
LINE
8
Layer 1
10
5.126811
20
6.304221
11
10.445501
21
6.264529
0
LINE
8
Layer 1
10
10.445501
20
6.264529
11
15.969271
21
6.330682
0
LINE
8
Layer 1
10
15.969271
20
6.330682
11
20.580131
21
8.963572
0
LINE
8
Layer 1
10
20.580131
20
8.963572
11
20.793474
21
9.165338
0
LINE
8
Layer 1
10
20.793474
20
9.165338
11
20.897665
21
9.605255
0
LINE
8
Layer 1
10
20.897665
20
9.605255
11
21.334274
21
12.026455
0
LINE
8
Layer 1
10
21.334274
20
12.026455
11
22.333183
21
12.304297
0
LINE
8
Layer 1
10
22.333183
20
12.304297
11
25.468833
21
13.117978
0
LINE
8
Layer 1
10
25.468833
20
13.117978
11
28.558173
21
13.918428
0
LINE
8
Layer 1
10
28.558173
20
13.918428
11
29.497544
21
14.156578
0
LINE
8
Layer 1
10
29.497544
20
14.156578
11
31.111674
21
14.156578
0
LINE
8
Layer 1
10
31.111674
20
14.156578
11
35.901144
21
14.110271
0
LINE
8
Layer 1
10
35.901144
20
14.110271
11
39.083094
21
14.070579
0
LINE
8
Layer 1
10
39.083094
20
14.070579
11
39.116170
21
13.633970
0
LINE
8
Layer 1
10
39.116170
20
13.633970
11
39.149246
21
13.203976
0
LINE
8
Layer 1
10
39.149246
20
13.203976
11
38.256182
21
11.748616
0
LINE
8
Layer 1
10
38.256182
20
11.748616
11
37.422655
21
10.200636
0
LINE
8
Layer 1
10
37.422655
20
10.200636
11
39.936465
21
8.566656
0
LINE
8
Layer 1
10
39.936465
20
8.566656
11
42.390735
21
7.031906
0
LINE
8
Layer 1
10
42.390735
20
7.031906
11
42.496581
21
7.435439
0
LINE
8
Layer 1
10
42.496581
20
7.435439
11
42.661963
21
7.931586
0
LINE
8
Layer 1
10
42.661963
20
7.931586
11
44.639933
21
5.437626
0
LINE
8
Layer 1
10
44.639933
20
5.437626
11
44.752392
21
5.278859
0
LINE
8
Layer 1
10
44.752392
20
5.278859
11
47.894652
21
6.840069
0
LINE
8
Layer 1
10
47.894652
20
6.840069
11
51.036912
21
8.407889
0
LINE
8
Layer 1
10
51.036912
20
8.407889
11
52.558433
21
8.758499
0
LINE
8
Layer 1
10
52.558433
20
8.758499
11
54.079953
21
9.109109
0
LINE
8
Layer 1
10
54.079953
20
9.109109
11
54.060107
21
12.178599
0
LINE
8
Layer 1
10
54.060107
20
12.178599
11
54.040261
21
15.248089
0
LINE
8
Layer 1
10
54.040261
20
15.248089
11
55.436091
21
16.670379
0
LINE
8
Layer 1
10
55.436091
20
16.670379
11
56.825301
21
18.092669
0
LINE
8
Layer 1
10
56.825301
20
18.092669
11
56.798839
21
18.390357
0
LINE
8
Layer 1
10
56.798839
20
18.390357
11
56.243156
21
22.392607
0
LINE
8
Layer 1
10
56.243156
20
22.392607
11
55.297170
21
29.093897
0
LINE
8
Layer 1
10
55.297170
20
29.093897
11
54.807639
21
32.084007
0
LINE
8
Layer 1
10
54.807639
20
32.084007
11
53.696269
21
31.568014
0
LINE
8
Layer 1
10
53.696269
20
31.568014
11
52.670898
21
31.085098
0
LINE
8
Layer 1
10
52.670898
20
31.085098
11
53.683039
21
32.064161
0
LINE
8
Layer 1
10
53.683039
20
32.064161
11
55.164859
21
33.493061
0
LINE
8
Layer 1
10
55.164859
20
33.493061
11
55.654390
21
33.989208
0
LINE
8
Layer 1
10
55.654390
20
33.989208
11
54.734865
21
35.166728
0
LINE
8
Layer 1
10
54.734865
20
35.166728
11
53.034734
21
37.336548
0
LINE
8
Layer 1
10
53.034734
20
37.336548
11
52.121825
21
38.540528
0
LINE
8
Layer 1
10
52.121825
20
38.540528
11
52.020114
21
39.295498
0
LINE
8
Layer 1
10
52.020114
20
39.295498
11
52.062287
21
43.071998
0
LINE
8
Layer 1
10
52.062287
20
43.071998
11
52.128440
21
48.628838
0
LINE
8
Layer 1
10
52.128440
20
48.628838
11
52.128440
21
49.852668
0
LINE
8
Layer 1
10
52.128440
20
49.852668
11
50.494460
21
49.932052
0
LINE
8
Layer 1
10
50.494460
20
49.932052
11
46.869280
21
50.110665
0
LINE
8
Layer 1
10
46.869280
20
50.110665
11
41.643200
21
50.375277
0
LINE
8
Layer 1
10
41.643200
20
50.375277
11
36.880190
21
50.606812
0
LINE
8
Layer 1
10
36.880190
20
50.606812
11
33.704850
21
50.778810
0
LINE
8
Layer 1
10
33.704850
20
50.778810
11
24.853590
21
51.268341
0
LINE
8
Layer 1
10
24.853590
20
51.268341
11
24.846975
21
50.203281
0
LINE
8
Layer 1
10
24.846975
20
50.203281
11
24.847000
21
50.203300
0
LINE
8
Layer 1
10
27.916490
20
49.548386
11
35.491000
21
49.144853
0
LINE
8
Layer 1
10
35.491000
20
49.144853
11
41.246300
21
48.807473
0
LINE
8
Layer 1
10
41.246300
20
48.807473
11
41.266146
21
46.829503
0
LINE
8
Layer 1
10
41.266146
20
46.829503
11
41.246300
21
44.891223
0
LINE
8
Layer 1
10
41.246300
20
44.891223
11
40.994919
21
45.235218
0
LINE
8
Layer 1
10
40.994919
20
45.235218
11
39.666071
21
46.657505
0
LINE
8
Layer 1
10
39.666071
20
46.657505
11
38.084189
21
47.722568
0
LINE
8
Layer 1
10
38.084189
20
47.722568
11
36.202968
21
48.420481
0
LINE
8
Layer 1
10
36.202968
20
48.420481
11
34.267169
21
48.622247
0
LINE
8
Layer 1
10
34.267169
20
48.622247
11
33.017189
21
48.542243
0
LINE
8
Layer 1
10
33.017189
20
48.542243
11
31.848454
21
48.284867
0
LINE
8
Layer 1
10
31.848454
20
48.284867
11
30.673517
21
47.824071
0
LINE
8
Layer 1
10
30.673517
20
47.824071
11
29.404929
21
47.133807
0
LINE
8
Layer 1
10
29.404929
20
47.133807
11
28.683862
21
46.697198
0
LINE
8
Layer 1
10
28.683862
20
46.697198
11
28.214176
21
46.875811
0
LINE
8
Layer 1
10
28.214176
20
46.875811
11
27.122656
21
47.338881
0
LINE
8
Layer 1
10
27.122656
20
47.338881
11
26.494203
21
47.623338
0
LINE
8
Layer 1
10
26.494203
20
47.623338
11
26.474357
21
48.622247
0
LINE
8
Layer 1
10
26.474357
20
48.622247
11
26.454511
21
49.614540
0
LINE
8
Layer 1
10
26.454511
20
49.614540
11
26.639739
21
49.614540
0
LINE
8
Layer 1
10
26.639739
20
49.614540
11
27.916489
21
49.548387
0
LINE
8
Layer 1
10
27.916489
20
49.548387
11
27.916490
21
49.548386
0
LINE
8
Layer 1
10
46.968490
20
48.556093
11
50.196750
21
48.384095
0
LINE
8
Layer 1
10
50.196750
20
48.384095
11
50.540745
21
48.351019
0
LINE
8
Layer 1
10
50.540745
20
48.351019
11
50.540745
21
45.559369
0
LINE
8
Layer 1
10
50.540745
20
45.559369
11
50.494438
21
38.454549
0
LINE
8
Layer 1
10
50.494438
20
38.454549
11
50.454746
21
34.134768
0
LINE
8
Layer 1
10
50.454746
20
34.134768
11
50.282748
21
34.134768
0
LINE
8
Layer 1
10
50.282748
20
34.134768
11
46.770028
21
33.711390
0
LINE
8
Layer 1
10
46.770028
20
33.711390
11
43.211831
21
33.278088
0
LINE
8
Layer 1
10
43.211831
20
33.278088
11
42.847060
21
33.300208
0
LINE
8
Layer 1
10
42.847060
20
33.300208
11
42.814088
21
33.440162
0
LINE
8
Layer 1
10
42.814088
20
33.440162
11
42.880241
21
33.751081
0
LINE
8
Layer 1
10
42.880241
20
33.751081
11
45.314671
21
35.054291
0
LINE
8
Layer 1
10
45.314671
20
35.054291
11
47.663101
21
36.238431
0
LINE
8
Layer 1
10
47.663101
20
36.238431
11
47.682947
21
41.643121
0
LINE
8
Layer 1
10
47.682947
20
41.643121
11
47.696178
21
47.047812
0
LINE
8
Layer 1
10
47.696178
20
47.047812
11
47.530796
21
47.008120
0
LINE
8
Layer 1
10
47.530796
20
47.008120
11
43.548396
21
45.288140
0
LINE
8
Layer 1
10
43.548396
20
45.288140
11
42.867021
21
44.990452
0
LINE
8
Layer 1
10
42.867021
20
44.990452
11
42.867021
21
46.882422
0
LINE
8
Layer 1
10
42.867021
20
46.882422
11
42.867021
21
48.767782
0
LINE
8
Layer 1
10
42.867021
20
48.767782
11
43.482243
21
48.728090
0
LINE
8
Layer 1
10
43.482243
20
48.728090
11
46.968503
21
48.556092
0
LINE
8
Layer 1
10
46.968503
20
48.556092
11
46.968490
21
48.556093
0
LINE
8
Layer 1
10
35.953990
20
46.875813
11
37.222470
21
46.397858
0
LINE
8
Layer 1
10
37.222470
20
46.397858
11
38.381800
21
45.711523
0
LINE
8
Layer 1
10
38.381800
20
45.711523
11
39.262459
21
44.870552
0
LINE
8
Layer 1
10
39.262459
20
44.870552
11
39.711470
21
44.262773
0
LINE
8
Layer 1
10
39.711470
20
44.262773
11
37.845960
21
43.396170
0
LINE
8
Layer 1
10
37.845960
20
43.396170
11
34.366320
21
44.706000
0
LINE
8
Layer 1
10
34.366320
20
44.706000
11
31.898820
21
45.685063
0
LINE
8
Layer 1
10
31.898820
20
45.685063
11
30.807300
21
46.181210
0
LINE
8
Layer 1
10
30.807300
20
46.181210
11
31.864920
21
46.640146
0
LINE
8
Layer 1
10
31.864920
20
46.640146
11
33.314490
21
47.034582
0
LINE
8
Layer 1
10
33.314490
20
47.034582
11
34.604472
21
47.061870
0
LINE
8
Layer 1
10
34.604472
20
47.061870
11
35.953990
21
46.875815
0
LINE
8
Layer 1
10
35.953990
20
46.875815
11
35.953990
21
46.875813
0
LINE
8
Layer 1
10
24.866790
20
41.034513
11
24.860175
21
35.821663
0
LINE
8
Layer 1
10
24.860175
20
35.821663
11
22.518365
21
34.068613
0
LINE
8
Layer 1
10
22.518365
20
34.068613
11
19.786255
21
32.037723
0
LINE
8
Layer 1
10
19.786255
20
32.037723
11
19.402568
21
31.753266
0
LINE
8
Layer 1
10
19.402568
20
31.753266
11
18.906421
21
31.925264
0
LINE
8
Layer 1
10
18.906421
20
31.925264
11
18.403659
21
32.090646
0
LINE
8
Layer 1
10
18.403659
20
32.090646
11
17.239369
21
34.419226
0
LINE
8
Layer 1
10
17.239369
20
34.419226
11
16.075079
21
36.847036
0
LINE
8
Layer 1
10
16.075079
20
36.847036
11
16.855683
21
37.773177
0
LINE
8
Layer 1
10
16.855683
20
37.773177
11
19.515033
21
40.617747
0
LINE
8
Layer 1
10
19.515033
20
40.617747
11
24.853573
21
46.240747
0
LINE
8
Layer 1
10
24.853573
20
46.240747
11
24.866803
21
41.034517
0
LINE
8
Layer 1
10
24.866803
20
41.034517
11
24.866790
21
41.034513
0
LINE
8
Layer 1
10
27.248290
20
45.632143
11
27.916434
21
45.294763
0
LINE
8
Layer 1
10
27.916434
20
45.294763
11
27.512901
21
44.765540
0
LINE
8
Layer 1
10
27.512901
20
44.765540
11
26.805065
21
43.779862
0
LINE
8
Layer 1
10
26.805065
20
43.779862
11
26.461070
21
43.263869
0
LINE
8
Layer 1
10
26.461070
20
43.263869
11
26.447839
21
44.586929
0
LINE
8
Layer 1
10
26.447839
20
44.586929
11
26.527223
21
45.909989
0
LINE
8
Layer 1
10
26.527223
20
45.909989
11
27.248290
21
45.632147
0
LINE
8
Layer 1
10
27.248290
20
45.632147
11
27.248290
21
45.632143
0
LINE
8
Layer 1
10
46.108490
20
40.915443
11
46.108490
21
37.177803
0
LINE
8
Layer 1
10
46.108490
20
37.177803
11
44.732510
21
36.489813
0
LINE
8
Layer 1
10
44.732510
20
36.489813
11
43.111760
21
35.702593
0
LINE
8
Layer 1
10
43.111760
20
35.702593
11
42.866994
21
35.596748
0
LINE
8
Layer 1
10
42.866994
20
35.596748
11
42.866994
21
39.446848
0
LINE
8
Layer 1
10
42.866994
20
39.446848
11
42.866994
21
43.303558
0
LINE
8
Layer 1
10
42.866994
20
43.303558
11
43.151451
21
43.409403
0
LINE
8
Layer 1
10
43.151451
20
43.409403
11
44.719271
21
44.084163
0
LINE
8
Layer 1
10
44.719271
20
44.084163
11
46.062171
21
44.653078
0
LINE
8
Layer 1
10
46.062171
20
44.653078
11
46.108478
21
40.915438
0
LINE
8
Layer 1
10
46.108478
20
40.915438
11
46.108490
21
40.915443
0
LINE
8
Layer 1
10
31.620990
20
43.336643
11
30.951191
21
42.552731
0
LINE
8
Layer 1
10
30.951191
20
42.552731
11
30.589000
21
41.709283
0
LINE
8
Layer 1
10
30.589000
20
41.709283
11
30.479021
21
40.731048
0
LINE
8
Layer 1
10
30.479021
20
40.731048
11
30.622077
21
39.757773
0
LINE
8
Layer 1
10
30.622077
20
39.757773
11
31.276991
21
38.591001
0
LINE
8
Layer 1
10
31.276991
20
38.591001
11
32.229596
21
37.766573
0
LINE
8
Layer 1
10
32.229596
20
37.766573
11
32.480978
21
37.587960
0
LINE
8
Layer 1
10
32.480978
20
37.587960
11
28.756568
21
36.086290
0
LINE
8
Layer 1
10
28.756568
20
36.086290
11
28.565551
21
36.140039
0
LINE
8
Layer 1
10
28.565551
20
36.140039
11
28.260421
21
36.595667
0
LINE
8
Layer 1
10
28.260421
20
36.595667
11
27.716623
21
37.694217
0
LINE
8
Layer 1
10
27.716623
20
37.694217
11
27.402913
21
38.820056
0
LINE
8
Layer 1
10
27.402913
20
38.820056
11
27.316191
21
39.993031
0
LINE
8
Layer 1
10
27.316191
20
39.993031
11
27.453356
21
41.232987
0
LINE
8
Layer 1
10
27.453356
20
41.232987
11
27.592070
21
41.920150
0
LINE
8
Layer 1
10
27.592070
20
41.920150
11
27.808927
21
42.344357
0
LINE
8
Layer 1
10
27.808927
20
42.344357
11
29.365175
21
43.416037
0
LINE
8
Layer 1
10
29.365175
20
43.416037
11
30.972696
21
44.434787
0
LINE
8
Layer 1
10
30.972696
20
44.434787
11
31.587917
21
44.176791
0
LINE
8
Layer 1
10
31.587917
20
44.176791
11
32.196525
21
43.912179
0
LINE
8
Layer 1
10
32.196525
20
43.912179
11
31.620995
21
43.336649
0
LINE
8
Layer 1
10
31.620995
20
43.336649
11
31.620990
21
43.336643
0
LINE
8
Layer 1
10
41.272700
20
40.141453
11
41.272700
21
37.012423
0
LINE
8
Layer 1
10
41.272700
20
37.012423
11
41.087472
21
37.773181
0
LINE
8
Layer 1
10
41.087472
20
37.773181
11
40.048872
21
42.377421
0
LINE
8
Layer 1
10
40.048872
20
42.377421
11
40.009180
21
42.655263
0
LINE
8
Layer 1
10
40.009180
20
42.655263
11
40.624402
21
42.952951
0
LINE
8
Layer 1
10
40.624402
20
42.952951
11
41.266085
21
43.257254
0
LINE
8
Layer 1
10
41.266085
20
43.257254
11
41.272701
21
40.141454
0
LINE
8
Layer 1
10
41.272701
20
40.141454
11
41.272700
21
40.141453
0
LINE
8
Layer 1
10
34.611100
20
42.536183
11
35.098358
21
42.264026
0
LINE
8
Layer 1
10
35.098358
20
42.264026
11
35.467781
21
41.862250
0
LINE
8
Layer 1
10
35.467781
20
41.862250
11
35.703244
21
41.357523
0
LINE
8
Layer 1
10
35.703244
20
41.357523
11
35.788620
21
40.776513
0
LINE
8
Layer 1
10
35.788620
20
40.776513
11
35.624892
21
39.976063
0
LINE
8
Layer 1
10
35.624892
20
39.976063
11
35.113860
21
39.354223
0
LINE
8
Layer 1
10
35.113860
20
39.354223
11
34.481997
21
39.005370
0
LINE
8
Layer 1
10
34.481997
20
39.005370
11
33.824707
21
38.910172
0
LINE
8
Layer 1
10
33.824707
20
38.910172
11
33.183541
21
39.066768
0
LINE
8
Layer 1
10
33.183541
20
39.066768
11
32.600050
21
39.473298
0
LINE
8
Layer 1
10
32.600050
20
39.473298
11
32.189929
21
40.044732
0
LINE
8
Layer 1
10
32.189929
20
40.044732
11
32.030517
21
40.656091
0
LINE
8
Layer 1
10
32.030517
20
40.656091
11
32.090959
21
41.260473
0
LINE
8
Layer 1
10
32.090959
20
41.260473
11
32.340402
21
41.810977
0
LINE
8
Layer 1
10
32.340402
20
41.810977
11
32.747991
21
42.260701
0
LINE
8
Layer 1
10
32.747991
20
42.260701
11
33.282873
21
42.562743
0
LINE
8
Layer 1
10
33.282873
20
42.562743
11
33.914194
21
42.670203
0
LINE
8
Layer 1
10
33.914194
20
42.670203
11
34.611100
21
42.536178
0
LINE
8
Layer 1
10
34.611100
20
42.536178
11
34.611100
21
42.536183
0
LINE
8
Layer 1
10
37.449060
20
41.841578
11
37.607827
21
41.590197
0
LINE
8
Layer 1
10
37.607827
20
41.590197
11
37.475521
21
40.955129
0
LINE
8
Layer 1
10
37.475521
20
40.955129
11
37.349830
21
40.439136
0
LINE
8
Layer 1
10
37.349830
20
40.439136
11
37.283677
21
40.961744
0
LINE
8
Layer 1
10
37.283677
20
40.961744
11
37.204294
21
41.729118
0
LINE
8
Layer 1
10
37.204294
20
41.729118
11
37.207601
21
41.929231
0
LINE
8
Layer 1
10
37.207601
20
41.929231
11
37.449060
21
41.841578
0
LINE
8
Layer 1
10
37.449060
20
41.841578
11
37.449060
21
41.841578
0
LINE
8
Layer 1
10
18.443360
20
41.755579
11
15.215100
21
38.421469
0
LINE
8
Layer 1
10
15.215100
20
38.421469
11
15.023257
21
38.712542
0
LINE
8
Layer 1
10
15.023257
20
38.712542
11
14.877721
21
38.950692
0
LINE
8
Layer 1
10
14.877721
20
38.950692
11
16.015551
21
39.870217
0
LINE
8
Layer 1
10
16.015551
20
39.870217
11
17.761991
21
41.259427
0
LINE
8
Layer 1
10
17.761991
20
41.259427
11
18.423520
21
41.808496
0
LINE
8
Layer 1
10
18.423520
20
41.808496
11
18.496288
21
41.874649
0
LINE
8
Layer 1
10
18.496288
20
41.874649
11
18.443366
21
41.755574
0
LINE
8
Layer 1
10
18.443366
20
41.755574
11
18.443360
21
41.755579
0
LINE
8
Layer 1
10
39.294760
20
38.600089
11
39.896751
21
35.980439
0
LINE
8
Layer 1
10
39.896751
20
35.980439
11
40.154747
21
34.736769
0
LINE
8
Layer 1
10
40.154747
20
34.736769
11
39.863674
21
34.214161
0
LINE
8
Layer 1
10
39.863674
20
34.214161
11
38.649768
21
32.980410
0
LINE
8
Layer 1
10
38.649768
20
32.980410
11
37.257254
21
32.143571
0
LINE
8
Layer 1
10
37.257254
20
32.143571
11
35.325594
21
31.607733
0
LINE
8
Layer 1
10
35.325594
20
31.607733
11
35.094059
21
31.587887
0
LINE
8
Layer 1
10
35.094059
20
31.587887
11
35.074213
21
34.214157
0
LINE
8
Layer 1
10
35.074213
20
34.214157
11
35.140366
21
36.913197
0
LINE
8
Layer 1
10
35.140366
20
36.913197
11
36.880186
21
37.667340
0
LINE
8
Layer 1
10
36.880186
20
37.667340
11
38.527396
21
38.348715
0
LINE
8
Layer 1
10
38.527396
20
38.348715
11
38.606780
21
38.672864
0
LINE
8
Layer 1
10
38.606780
20
38.672864
11
38.798623
21
39.579159
0
LINE
8
Layer 1
10
38.798623
20
39.579159
11
38.937544
21
40.141459
0
LINE
8
Layer 1
10
38.937544
20
40.141459
11
39.294770
21
38.600099
0
LINE
8
Layer 1
10
39.294770
20
38.600099
11
39.294760
21
38.600089
0
LINE
8
Layer 1
10
26.930760
20
35.682749
11
27.109373
21
35.358600
0
LINE
8
Layer 1
10
27.109373
20
35.358600
11
26.771993
21
35.199833
0
LINE
8
Layer 1
10
26.771993
20
35.199833
11
26.461074
21
35.067527
0
LINE
8
Layer 1
10
26.461074
20
35.067527
11
26.467689
21
35.808439
0
LINE
8
Layer 1
10
26.467689
20
35.808439
11
26.467689
21
36.549351
0
LINE
8
Layer 1
10
26.467689
20
36.549351
11
26.593380
21
36.264894
0
LINE
8
Layer 1
10
26.593380
20
36.264894
11
26.930760
21
35.682748
0
LINE
8
Layer 1
10
26.930760
20
35.682748
11
26.930760
21
35.682749
0
LINE
8
Layer 1
10
33.539430
20
33.949539
11
33.539430
21
31.574649
0
LINE
8
Layer 1
10
33.539430
20
31.574649
11
33.327741
21
31.601110
0
LINE
8
Layer 1
10
33.327741
20
31.601110
11
31.711959
21
31.945105
0
LINE
8
Layer 1
10
31.711959
20
31.945105
11
30.364091
21
32.547096
0
LINE
8
Layer 1
10
30.364091
20
32.547096
11
28.491961
21
33.989226
0
LINE
8
Layer 1
10
28.491961
20
33.989226
11
28.306733
21
34.181069
0
LINE
8
Layer 1
10
28.306733
20
34.181069
11
29.451183
21
34.657370
0
LINE
8
Layer 1
10
29.451183
20
34.657370
11
32.017913
21
35.715820
0
LINE
8
Layer 1
10
32.017913
20
35.715820
11
33.493123
21
36.311196
0
LINE
8
Layer 1
10
33.493123
20
36.311196
11
33.539430
21
33.949536
0
LINE
8
Layer 1
10
33.539430
20
33.949536
11
33.539430
21
33.949539
0
LINE
8
Layer 1
10
52.849430
20
35.041059
11
53.517574
21
34.128149
0
LINE
8
Layer 1
10
53.517574
20
34.128149
11
50.448084
21
31.098349
0
LINE
8
Layer 1
10
50.448084
20
31.098349
11
48.384114
21
29.067459
0
LINE
8
Layer 1
10
48.384114
20
29.067459
11
47.629971
21
28.518390
0
LINE
8
Layer 1
10
47.629971
20
28.518390
11
47.074287
21
28.247163
0
LINE
8
Layer 1
10
47.074287
20
28.247163
11
47.034595
21
30.198673
0
LINE
8
Layer 1
10
47.034595
20
30.198673
11
47.034595
21
32.150183
0
LINE
8
Layer 1
10
47.034595
20
32.150183
11
47.186747
21
32.183260
0
LINE
8
Layer 1
10
47.186747
20
32.183260
11
50.474547
21
32.613254
0
LINE
8
Layer 1
10
50.474547
20
32.613254
11
51.817447
21
32.785252
0
LINE
8
Layer 1
10
51.817447
20
32.785252
11
51.996060
21
32.824943
0
LINE
8
Layer 1
10
51.996060
20
32.824943
11
51.996060
21
34.452303
0
LINE
8
Layer 1
10
51.996060
20
34.452303
11
52.012599
21
35.767921
0
LINE
8
Layer 1
10
52.012599
20
35.767921
11
52.088674
21
35.987053
0
LINE
8
Layer 1
10
52.088674
20
35.987053
11
52.849432
21
35.041067
0
LINE
8
Layer 1
10
52.849432
20
35.041067
11
52.849430
21
35.041059
0
LINE
8
Layer 1
10
26.295630
20
33.856919
11
27.340844
21
32.751339
0
LINE
8
Layer 1
10
27.340844
20
32.751339
11
27.423123
21
32.592678
0
LINE
8
Layer 1
10
27.423123
20
32.592678
11
27.354080
21
32.514019
0
LINE
8
Layer 1
10
27.354080
20
32.514019
11
24.198590
21
30.337589
0
LINE
8
Layer 1
10
24.198590
20
30.337589
11
23.861211
21
30.297897
0
LINE
8
Layer 1
10
23.861211
20
30.297897
11
22.630770
21
30.674969
0
LINE
8
Layer 1
10
22.630770
20
30.674969
11
21.254790
21
31.171116
0
LINE
8
Layer 1
10
21.254790
20
31.171116
11
22.524930
21
32.163410
0
LINE
8
Layer 1
10
22.524930
20
32.163410
11
24.674900
21
33.784160
0
LINE
8
Layer 1
10
24.674900
20
33.784160
11
25.634117
21
34.465535
0
LINE
8
Layer 1
10
25.634117
20
34.465535
11
26.295646
21
33.856928
0
LINE
8
Layer 1
10
26.295646
20
33.856928
11
26.295630
21
33.856919
0
LINE
8
Layer 1
10
39.612230
20
31.581259
11
37.984870
21
29.960509
0
LINE
8
Layer 1
10
37.984870
20
29.960509
11
37.435801
21
30.000201
0
LINE
8
Layer 1
10
37.435801
20
30.000201
11
36.383971
21
30.079584
0
LINE
8
Layer 1
10
36.383971
20
30.079584
11
35.887824
21
30.112661
0
LINE
8
Layer 1
10
35.887824
20
30.112661
11
36.509661
21
30.278043
0
LINE
8
Layer 1
10
36.509661
20
30.278043
11
38.725781
21
31.171107
0
LINE
8
Layer 1
10
38.725781
20
31.171107
11
40.644211
21
32.738927
0
LINE
8
Layer 1
10
40.644211
20
32.738927
11
41.206511
21
33.235074
0
LINE
8
Layer 1
10
41.206511
20
33.235074
11
39.612231
21
31.581254
0
LINE
8
Layer 1
10
39.612231
20
31.581254
11
39.612230
21
31.581259
0
LINE
8
Layer 1
10
42.860340
20
29.795129
11
39.823920
21
26.719019
0
LINE
8
Layer 1
10
39.823920
20
26.719019
11
38.831626
21
25.733341
0
LINE
8
Layer 1
10
38.831626
20
25.733341
11
38.818395
21
27.175471
0
LINE
8
Layer 1
10
38.818395
20
27.175471
11
38.838241
21
28.617601
0
LINE
8
Layer 1
10
38.838241
20
28.617601
11
40.273761
21
30.079581
0
LINE
8
Layer 1
10
40.273761
20
30.079581
11
41.709281
21
31.541561
0
LINE
8
Layer 1
10
41.709281
20
31.541561
11
42.225274
21
31.587868
0
LINE
8
Layer 1
10
42.225274
20
31.587868
11
43.713714
21
31.753250
0
LINE
8
Layer 1
10
43.713714
20
31.753250
11
44.811854
21
31.878941
0
LINE
8
Layer 1
10
44.811854
20
31.878941
11
42.860344
21
29.795121
0
LINE
8
Layer 1
10
42.860344
20
29.795121
11
42.860340
21
29.795129
0
LINE
8
Layer 1
10
29.953940
20
30.992499
11
30.417010
21
30.727887
0
LINE
8
Layer 1
10
30.417010
20
30.727887
11
27.962740
21
30.880039
0
LINE
8
Layer 1
10
27.962740
20
30.880039
11
27.879222
21
30.971826
0
LINE
8
Layer 1
10
27.879222
20
30.971826
11
28.326581
21
31.296802
0
LINE
8
Layer 1
10
28.326581
20
31.296802
11
28.875650
21
31.667258
0
LINE
8
Layer 1
10
28.875650
20
31.667258
11
29.173338
21
31.448953
0
LINE
8
Layer 1
10
29.173338
20
31.448953
11
29.953942
21
30.992498
0
LINE
8
Layer 1
10
29.953942
20
30.992498
11
29.953940
21
30.992499
0
LINE
8
Layer 1
10
18.403640
20
30.436815
11
21.631900
21
29.338675
0
LINE
8
Layer 1
10
21.631900
20
29.338675
11
23.054190
21
28.855759
0
LINE
8
Layer 1
10
23.054190
20
28.855759
11
23.411416
21
28.730068
0
LINE
8
Layer 1
10
23.411416
20
28.730068
11
23.232803
21
27.903157
0
LINE
8
Layer 1
10
23.232803
20
27.903157
11
22.425738
21
24.674897
0
LINE
8
Layer 1
10
22.425738
20
24.674897
11
21.679037
21
21.751766
0
LINE
8
Layer 1
10
21.679037
20
21.751766
11
21.433444
21
21.175407
0
LINE
8
Layer 1
10
21.433444
20
21.175407
11
19.964854
21
19.448817
0
LINE
8
Layer 1
10
19.964854
20
19.448817
11
18.119184
21
17.232697
0
LINE
8
Layer 1
10
18.119184
20
17.232697
11
16.835814
21
15.691337
0
LINE
8
Layer 1
10
16.835814
20
15.691337
11
15.949365
21
14.785042
0
LINE
8
Layer 1
10
15.949365
20
14.785042
11
12.304345
21
16.075022
0
LINE
8
Layer 1
10
12.304345
20
16.075022
11
11.622970
21
16.339634
0
LINE
8
Layer 1
10
11.622970
20
16.339634
11
11.874351
21
17.371624
0
LINE
8
Layer 1
10
11.874351
20
17.371624
11
12.939411
21
20.738804
0
LINE
8
Layer 1
10
12.939411
20
20.738804
11
15.314301
21
28.313314
0
LINE
8
Layer 1
10
15.314301
20
28.313314
11
16.240442
21
31.157884
0
LINE
8
Layer 1
10
16.240442
20
31.157884
11
18.403642
21
30.436817
0
LINE
8
Layer 1
10
18.403642
20
30.436817
11
18.403640
21
30.436815
0
LINE
8
Layer 1
10
45.513140
20
29.146835
11
45.473448
21
27.671625
0
LINE
8
Layer 1
10
45.473448
20
27.671625
11
45.433757
21
27.281323
0
LINE
8
Layer 1
10
45.433757
20
27.281323
11
43.654247
21
26.355182
0
LINE
8
Layer 1
10
43.654247
20
26.355182
11
41.881347
21
25.435657
0
LINE
8
Layer 1
10
41.881347
20
25.435657
11
41.874731
21
23.550297
0
LINE
8
Layer 1
10
41.874731
20
23.550297
11
41.868116
21
21.664937
0
LINE
8
Layer 1
10
41.868116
20
21.664937
11
41.259509
21
21.241558
0
LINE
8
Layer 1
10
41.259509
20
21.241558
11
38.811849
21
19.581118
0
LINE
8
Layer 1
10
38.811849
20
19.581118
11
36.933109
21
18.297748
0
LINE
8
Layer 1
10
36.933109
20
18.297748
11
38.249549
21
16.749768
0
LINE
8
Layer 1
10
38.249549
20
16.749768
11
39.235227
21
15.678088
0
LINE
8
Layer 1
10
39.235227
20
15.678088
11
36.456807
21
15.678088
0
LINE
8
Layer 1
10
36.456807
20
15.678088
11
33.671767
21
15.678088
0
LINE
8
Layer 1
10
33.671767
20
15.678088
11
33.671767
21
18.820348
0
LINE
8
Layer 1
10
33.671767
20
18.820348
11
33.671767
21
21.969228
0
LINE
8
Layer 1
10
33.671767
20
21.969228
11
33.890072
21
21.929537
0
LINE
8
Layer 1
10
33.890072
20
21.929537
11
35.027902
21
21.731078
0
LINE
8
Layer 1
10
35.027902
20
21.731078
11
39.301382
21
21.036473
0
LINE
8
Layer 1
10
39.301382
20
21.036473
11
39.443611
21
21.372198
0
LINE
8
Layer 1
10
39.443611
20
21.372198
11
39.565994
21
23.087213
0
LINE
8
Layer 1
10
39.565994
20
23.087213
11
39.638762
21
24.377193
0
LINE
8
Layer 1
10
39.638762
20
24.377193
11
40.803052
21
25.567943
0
LINE
8
Layer 1
10
40.803052
20
25.567943
11
45.460212
21
30.231723
0
LINE
8
Layer 1
10
45.460212
20
30.231723
11
45.513135
21
29.146813
0
LINE
8
Layer 1
10
45.513135
20
29.146813
11
45.513140
21
29.146835
0
LINE
8
Layer 1
10
53.901330
20
28.147926
11
54.840701
21
21.327566
0
LINE
8
Layer 1
10
54.840701
20
21.327566
11
55.171465
21
18.813756
0
LINE
8
Layer 1
10
55.171465
20
18.813756
11
54.754702
21
18.165458
0
LINE
8
Layer 1
10
54.754702
20
18.165458
11
54.344554
21
17.715618
0
LINE
8
Layer 1
10
54.344554
20
17.715618
11
53.537489
21
18.727758
0
LINE
8
Layer 1
10
53.537489
20
18.727758
11
51.169219
21
21.750948
0
LINE
8
Layer 1
10
51.169219
20
21.750948
11
50.626765
21
22.352939
0
LINE
8
Layer 1
10
50.626765
20
22.352939
11
49.442625
21
21.691410
0
LINE
8
Layer 1
10
49.442625
20
21.691410
11
48.331255
21
21.016650
0
LINE
8
Layer 1
10
48.331255
20
21.016650
11
48.013721
21
21.373876
0
LINE
8
Layer 1
10
48.013721
20
21.373876
11
46.789891
21
22.789546
0
LINE
8
Layer 1
10
46.789891
20
22.789546
11
45.420521
21
24.377216
0
LINE
8
Layer 1
10
45.420521
20
24.377216
11
44.831760
21
25.051976
0
LINE
8
Layer 1
10
44.831760
20
25.051976
11
44.779665
21
25.202474
0
LINE
8
Layer 1
10
44.779665
20
25.202474
11
45.129448
21
25.422432
0
LINE
8
Layer 1
10
45.129448
20
25.422432
11
52.856108
21
29.384992
0
LINE
8
Layer 1
10
52.856108
20
29.384992
11
53.656558
21
29.715756
0
LINE
8
Layer 1
10
53.656558
20
29.715756
11
53.901324
21
28.147936
0
LINE
8
Layer 1
10
53.901324
20
28.147936
11
53.901330
21
28.147926
0
LINE
8
Layer 1
10
28.644130
20
29.232836
11
30.542720
21
29.080684
0
LINE
8
Layer 1
10
30.542720
20
29.080684
11
30.562566
21
26.593334
0
LINE
8
Layer 1
10
30.562566
20
26.593334
11
30.575796
21
24.112604
0
LINE
8
Layer 1
10
30.575796
20
24.112604
11
30.417029
21
24.125835
0
LINE
8
Layer 1
10
30.417029
20
24.125835
11
27.519529
21
24.641828
0
LINE
8
Layer 1
10
27.519529
20
24.641828
11
26.183239
21
24.879978
0
LINE
8
Layer 1
10
26.183239
20
24.879978
11
25.667246
21
24.959361
0
LINE
8
Layer 1
10
25.667246
20
24.959361
11
25.667246
21
27.208561
0
LINE
8
Layer 1
10
25.667246
20
27.208561
11
25.667246
21
29.451141
0
LINE
8
Layer 1
10
25.667246
20
29.451141
11
26.216315
21
29.411450
0
LINE
8
Layer 1
10
26.216315
20
29.411450
11
28.644125
21
29.232837
0
LINE
8
Layer 1
10
28.644125
20
29.232837
11
28.644130
21
29.232836
0
LINE
8
Layer 1
10
12.575630
20
28.809457
11
13.660540
21
28.128082
0
LINE
8
Layer 1
10
13.660540
20
28.128082
11
12.707938
21
25.223972
0
LINE
8
Layer 1
10
12.707938
20
25.223972
11
12.198561
21
23.731397
0
LINE
8
Layer 1
10
12.198561
20
23.731397
11
11.847950
21
23.226152
0
LINE
8
Layer 1
10
11.847950
20
23.226152
11
10.670430
21
21.883252
0
LINE
8
Layer 1
10
10.670430
20
21.883252
11
9.023220
21
19.971432
0
LINE
8
Layer 1
10
9.023220
20
19.971432
11
7.806010
21
18.535912
0
LINE
8
Layer 1
10
7.806010
20
18.535912
11
7.329709
21
18.013304
0
LINE
8
Layer 1
10
7.329709
20
18.013304
11
6.271259
21
19.276824
0
LINE
8
Layer 1
10
6.271259
20
19.276824
11
4.716669
21
21.195254
0
LINE
8
Layer 1
10
4.716669
20
21.195254
11
4.167600
21
21.903090
0
LINE
8
Layer 1
10
4.167600
20
21.903090
11
11.417960
21
29.371750
0
LINE
8
Layer 1
10
11.417960
20
29.371750
11
12.575640
21
28.809450
0
LINE
8
Layer 1
10
12.575640
20
28.809450
11
12.575630
21
28.809457
0
LINE
8
Layer 1
10
32.216430
20
28.915302
11
33.374110
21
28.809457
0
LINE
8
Layer 1
10
33.374110
20
28.809457
11
37.760050
21
28.405924
0
LINE
8
Layer 1
10
37.760050
20
28.405924
11
38.104045
21
28.372848
0
LINE
8
Layer 1
10
38.104045
20
28.372848
11
38.104045
21
25.607658
0
LINE
8
Layer 1
10
38.104045
20
25.607658
11
38.070968
21
22.809388
0
LINE
8
Layer 1
10
38.070968
20
22.809388
11
37.554975
21
22.862310
0
LINE
8
Layer 1
10
37.554975
20
22.862310
11
35.689465
21
23.186459
0
LINE
8
Layer 1
10
35.689465
20
23.186459
11
32.692735
21
23.722297
0
LINE
8
Layer 1
10
32.692735
20
23.722297
11
31.052145
21
24.013370
0
LINE
8
Layer 1
10
31.052145
20
24.013370
11
31.025684
21
26.533800
0
LINE
8
Layer 1
10
31.025684
20
26.533800
11
31.025684
21
29.047610
0
LINE
8
Layer 1
10
31.025684
20
29.047610
11
31.310141
21
29.014533
0
LINE
8
Layer 1
10
31.310141
20
29.014533
11
32.216436
21
28.915304
0
LINE
8
Layer 1
10
32.216436
20
28.915304
11
32.216430
21
28.915302
0
LINE
8
Layer 1
10
24.211930
20
24.741052
11
24.211930
21
24.079523
0
LINE
8
Layer 1
10
24.211930
20
24.079523
11
24.046548
21
24.079523
0
LINE
8
Layer 1
10
24.046548
20
24.079523
11
23.881166
21
24.132445
0
LINE
8
Layer 1
10
23.881166
20
24.132445
11
24.192085
21
25.402585
0
LINE
8
Layer 1
10
24.192085
20
25.402585
11
24.211931
21
24.741056
0
LINE
8
Layer 1
10
24.211931
20
24.741056
11
24.211930
21
24.741052
0
LINE
8
Layer 1
10
44.130530
20
23.484142
11
45.910040
21
21.413552
0
LINE
8
Layer 1
10
45.910040
20
21.413552
11
45.268357
21
21.347399
0
LINE
8
Layer 1
10
45.268357
20
21.347399
11
44.379427
21
21.216747
0
LINE
8
Layer 1
10
44.379427
20
21.216747
11
43.515307
21
20.937251
0
LINE
8
Layer 1
10
43.515307
20
20.937251
11
43.413597
21
21.149768
0
LINE
8
Layer 1
10
43.413597
20
21.149768
11
43.396232
21
22.597691
0
LINE
8
Layer 1
10
43.396232
20
22.597691
11
43.412770
21
23.977805
0
LINE
8
Layer 1
10
43.412770
20
23.977805
11
43.488846
21
24.211821
0
LINE
8
Layer 1
10
43.488846
20
24.211821
11
44.130529
21
23.484139
0
LINE
8
Layer 1
10
44.130529
20
23.484139
11
44.130530
21
23.484142
0
LINE
8
Layer 1
10
11.272430
20
20.705722
11
10.379366
21
17.861152
0
LINE
8
Layer 1
10
10.379366
20
17.861152
11
10.088293
21
16.948242
0
LINE
8
Layer 1
10
10.088293
20
16.948242
11
7.673713
21
17.788384
0
LINE
8
Layer 1
10
7.673713
20
17.788384
11
8.143399
21
18.357299
0
LINE
8
Layer 1
10
8.143399
20
18.357299
11
11.609809
21
22.366169
0
LINE
8
Layer 1
10
11.609809
20
22.366169
11
11.881036
21
22.670472
0
LINE
8
Layer 1
10
11.881036
20
22.670472
11
11.272429
21
20.705732
0
LINE
8
Layer 1
10
11.272429
20
20.705732
11
11.272430
21
20.705722
0
LINE
8
Layer 1
10
25.667330
20
22.161082
11
28.869130
21
21.373862
0
LINE
8
Layer 1
10
28.869130
20
21.373862
11
28.855899
21
18.436672
0
LINE
8
Layer 1
10
28.855899
20
18.436672
11
28.842669
21
15.572252
0
LINE
8
Layer 1
10
28.842669
20
15.572252
11
28.333292
21
15.453177
0
LINE
8
Layer 1
10
28.333292
20
15.453177
11
26.328862
21
14.943800
0
LINE
8
Layer 1
10
26.328862
20
14.943800
11
21.724622
21
13.772890
0
LINE
8
Layer 1
10
21.724622
20
13.772890
11
23.444602
21
22.531530
0
LINE
8
Layer 1
10
23.444602
20
22.531530
11
25.667342
21
22.161074
0
LINE
8
Layer 1
10
25.667342
20
22.161074
11
25.667330
21
22.161082
0
LINE
8
Layer 1
10
32.117240
20
18.271292
11
32.123855
21
15.678102
0
LINE
8
Layer 1
10
32.123855
20
15.678102
11
31.244021
21
15.678102
0
LINE
8
Layer 1
10
31.244021
20
15.678102
11
30.364187
21
15.678102
0
LINE
8
Layer 1
10
30.364187
20
15.678102
11
30.364187
21
18.410212
0
LINE
8
Layer 1
10
30.364187
20
18.410212
11
30.397264
21
21.175402
0
LINE
8
Layer 1
10
30.397264
20
21.175402
11
31.270482
21
21.036481
0
LINE
8
Layer 1
10
31.270482
20
21.036481
11
32.117239
21
20.864483
0
LINE
8
Layer 1
10
32.117239
20
20.864483
11
32.117239
21
18.271293
0
LINE
8
Layer 1
10
32.117239
20
18.271293
11
32.117240
21
18.271292
0
LINE
8
Layer 1
10
51.771240
20
18.463135
11
53.233220
21
16.630695
0
LINE
8
Layer 1
10
53.233220
20
16.630695
11
52.942147
21
16.299931
0
LINE
8
Layer 1
10
52.942147
20
16.299931
11
51.883697
21
15.069491
0
LINE
8
Layer 1
10
51.883697
20
15.069491
11
51.096477
21
14.176427
0
LINE
8
Layer 1
10
51.096477
20
14.176427
11
51.182476
21
14.553499
0
LINE
8
Layer 1
10
51.182476
20
14.553499
11
51.285013
21
15.701252
0
LINE
8
Layer 1
10
51.285013
20
15.701252
11
51.149399
21
16.948229
0
LINE
8
Layer 1
10
51.149399
20
16.948229
11
50.661521
21
18.302708
0
LINE
8
Layer 1
10
50.661521
20
18.302708
11
49.866029
21
19.468659
0
LINE
8
Layer 1
10
49.866029
20
19.468659
11
49.555110
21
19.872192
0
LINE
8
Layer 1
10
49.555110
20
19.872192
11
50.269561
21
20.302186
0
LINE
8
Layer 1
10
50.269561
20
20.302186
11
51.771231
21
18.463136
0
LINE
8
Layer 1
10
51.771231
20
18.463136
11
51.771240
21
18.463135
0
LINE
8
Layer 1
10
46.472390
20
19.746505
11
47.278136
21
19.485149
0
LINE
8
Layer 1
10
47.278136
20
19.485149
11
47.994111
21
19.073399
0
LINE
8
Layer 1
10
47.994111
20
19.073399
11
48.606206
21
18.533891
0
LINE
8
Layer 1
10
48.606206
20
18.533891
11
49.100311
21
17.889261
0
LINE
8
Layer 1
10
49.100311
20
17.889261
11
49.462317
21
17.162147
0
LINE
8
Layer 1
10
49.462317
20
17.162147
11
49.678115
21
16.375185
0
LINE
8
Layer 1
10
49.678115
20
16.375185
11
49.733596
21
15.551012
0
LINE
8
Layer 1
10
49.733596
20
15.551012
11
49.614650
21
14.712265
0
LINE
8
Layer 1
10
49.614650
20
14.712265
11
49.200781
21
13.648856
0
LINE
8
Layer 1
10
49.200781
20
13.648856
11
48.556205
21
12.764060
0
LINE
8
Layer 1
10
48.556205
20
12.764060
11
47.713168
21
12.092610
0
LINE
8
Layer 1
10
47.713168
20
12.092610
11
46.703920
21
11.669235
0
LINE
8
Layer 1
10
46.703920
20
11.669235
11
45.929104
21
11.553674
0
LINE
8
Layer 1
10
45.929104
20
11.553674
11
45.099712
21
11.588198
0
LINE
8
Layer 1
10
45.099712
20
11.588198
11
44.285203
21
11.764123
0
LINE
8
Layer 1
10
44.285203
20
11.764123
11
43.555040
21
12.072768
0
LINE
8
Layer 1
10
43.555040
20
12.072768
11
42.589208
21
12.867223
0
LINE
8
Layer 1
10
42.589208
20
12.867223
11
41.916104
21
13.948202
0
LINE
8
Layer 1
10
41.916104
20
13.948202
11
41.582860
21
15.207794
0
LINE
8
Layer 1
10
41.582860
20
15.207794
11
41.636610
21
16.538088
0
LINE
8
Layer 1
10
41.636610
20
16.538088
11
42.018642
21
17.657725
0
LINE
8
Layer 1
10
42.018642
20
17.657725
11
42.728130
21
18.588828
0
LINE
8
Layer 1
10
42.728130
20
18.588828
11
43.556903
21
19.245087
0
LINE
8
Layer 1
10
43.556903
20
19.245087
11
44.476220
21
19.661333
0
LINE
8
Layer 1
10
44.476220
20
19.661333
11
45.457554
21
19.830747
0
LINE
8
Layer 1
10
45.457554
20
19.830747
11
46.472380
21
19.746508
0
LINE
8
Layer 1
10
46.472380
20
19.746508
11
46.472390
21
19.746505
0
LINE
8
Layer 1
10
4.604190
20
18.853441
11
6.105860
21
16.935011
0
LINE
8
Layer 1
10
6.105860
20
16.935011
11
3.684660
21
17.794999
0
LINE
8
Layer 1
10
3.684660
20
17.794999
11
3.320819
21
17.986842
0
LINE
8
Layer 1
10
3.320819
20
17.986842
11
4.041886
21
19.501742
0
LINE
8
Layer 1
10
4.041886
20
19.501742
11
4.604186
21
18.853444
0
LINE
8
Layer 1
10
4.604186
20
18.853444
11
4.604190
21
18.853441
0
LINE
8
Layer 1
10
41.061090
20
19.005593
11
40.320178
21
17.662693
0
LINE
8
Layer 1
10
40.320178
20
17.662693
11
40.181257
21
17.206238
0
LINE
8
Layer 1
10
40.181257
20
17.206238
11
39.724802
21
17.530387
0
LINE
8
Layer 1
10
39.724802
20
17.530387
11
39.308039
21
18.006688
0
LINE
8
Layer 1
10
39.308039
20
18.006688
11
41.299239
21
19.382668
0
LINE
8
Layer 1
10
41.299239
20
19.382668
11
41.061089
21
19.005596
0
LINE
8
Layer 1
10
41.061089
20
19.005596
11
41.061090
21
19.005593
0
LINE
8
Layer 1
10
20.943990
20
17.821453
11
20.341999
21
14.851183
0
LINE
8
Layer 1
10
20.341999
20
14.851183
11
19.806161
21
12.171993
0
LINE
8
Layer 1
10
19.806161
20
12.171993
11
19.343091
21
13.230443
0
LINE
8
Layer 1
10
19.343091
20
13.230443
11
18.721254
21
14.877653
0
LINE
8
Layer 1
10
18.721254
20
14.877653
11
18.522795
21
15.367184
0
LINE
8
Layer 1
10
18.522795
20
15.367184
11
18.840329
21
15.737640
0
LINE
8
Layer 1
10
18.840329
20
15.737640
11
19.614318
21
16.637319
0
LINE
8
Layer 1
10
19.614318
20
16.637319
11
20.533843
21
17.715609
0
LINE
8
Layer 1
10
20.533843
20
17.715609
11
21.016759
21
18.238217
0
LINE
8
Layer 1
10
21.016759
20
18.238217
11
20.943991
21
17.821454
0
LINE
8
Layer 1
10
20.943991
20
17.821454
11
20.943990
21
17.821453
0
LINE
8
Layer 1
10
4.445490
20
17.100386
11
5.755320
21
16.630700
0
LINE
8
Layer 1
10
5.755320
20
16.630700
11
4.624110
21
15.373790
0
LINE
8
Layer 1
10
4.624110
20
15.373790
11
3.400280
21
14.156580
0
LINE
8
Layer 1
10
3.400280
20
14.156580
11
2.626291
21
14.156580
0
LINE
8
Layer 1
10
2.626291
20
14.156580
11
1.852302
21
14.222733
0
LINE
8
Layer 1
10
1.852302
20
14.222733
11
3.115822
21
17.411303
0
LINE
8
Layer 1
10
3.115822
20
17.411303
11
3.208436
21
17.530378
0
LINE
8
Layer 1
10
3.208436
20
17.530378
11
4.445496
21
17.100384
0
LINE
8
Layer 1
10
4.445496
20
17.100384
11
4.445490
21
17.100386
0
LINE
8
Layer 1
10
8.103750
20
15.936096
11
8.467591
21
15.721099
0
LINE
8
Layer 1
10
8.467591
20
15.721099
11
8.930661
21
15.208414
0
LINE
8
Layer 1
10
8.930661
20
15.208414
11
9.446654
21
14.546885
0
LINE
8
Layer 1
10
9.446654
20
14.546885
11
7.713444
21
14.487348
0
LINE
8
Layer 1
10
7.713444
20
14.487348
11
5.953774
21
14.520424
0
LINE
8
Layer 1
10
5.953774
20
14.520424
11
6.767455
21
15.347335
0
LINE
8
Layer 1
10
6.767455
20
15.347335
11
7.673750
21
16.101478
0
LINE
8
Layer 1
10
7.673750
20
16.101478
11
8.103744
21
15.936096
0
LINE
8
Layer 1
10
8.103744
20
15.936096
11
8.103750
21
15.936096
0
LINE
8
Layer 1
10
10.941710
20
14.904106
11
12.992450
21
14.156578
0
LINE
8
Layer 1
10
12.992450
20
14.156578
11
15.969330
21
13.078288
0
LINE
8
Layer 1
10
15.969330
20
13.078288
11
16.323248
21
12.881483
0
LINE
8
Layer 1
10
16.323248
20
12.881483
11
16.538245
21
12.496142
0
LINE
8
Layer 1
10
16.538245
20
12.496142
11
17.160082
21
11.087082
0
LINE
8
Layer 1
10
17.160082
20
11.087082
11
17.518134
21
10.238671
0
LINE
8
Layer 1
10
17.518134
20
10.238671
11
17.484231
21
10.015402
0
LINE
8
Layer 1
10
17.484231
20
10.015402
11
16.181021
21
9.076031
0
LINE
8
Layer 1
10
16.181021
20
9.076031
11
14.990271
21
8.222659
0
LINE
8
Layer 1
10
14.990271
20
8.222659
11
14.097207
21
9.320799
0
LINE
8
Layer 1
10
14.097207
20
9.320799
11
12.304467
21
11.510459
0
LINE
8
Layer 1
10
12.304467
20
11.510459
11
9.261437
21
15.446559
0
LINE
8
Layer 1
10
9.261437
20
15.446559
11
10.941717
21
14.904105
0
LINE
8
Layer 1
10
10.941717
20
14.904105
11
10.941710
21
14.904106
0
LINE
8
Layer 1
10
40.049010
20
14.692417
11
40.483139
21
13.294938
0
LINE
8
Layer 1
10
40.483139
20
13.294938
11
41.418380
21
11.907377
0
LINE
8
Layer 1
10
41.418380
20
11.907377
11
41.901296
21
11.351693
0
LINE
8
Layer 1
10
41.901296
20
11.351693
11
41.206691
21
11.907377
0
LINE
8
Layer 1
10
41.206691
20
11.907377
11
40.009321
21
12.886440
0
LINE
8
Layer 1
10
40.009321
20
12.886440
11
39.493328
21
13.316434
0
LINE
8
Layer 1
10
39.493328
20
13.316434
11
39.493328
21
14.407954
0
LINE
8
Layer 1
10
39.493328
20
14.407954
11
39.493328
21
15.492864
0
LINE
8
Layer 1
10
39.493328
20
15.492864
11
39.744709
21
15.274559
0
LINE
8
Layer 1
10
39.744709
20
15.274559
11
39.963841
21
15.025659
0
LINE
8
Layer 1
10
39.963841
20
15.025659
11
40.049012
21
14.692413
0
LINE
8
Layer 1
10
40.049012
20
14.692413
11
40.049010
21
14.692417
0
LINE
8
Layer 1
10
18.622110
20
14.024273
11
19.124872
21
12.681373
0
LINE
8
Layer 1
10
19.124872
20
12.681373
11
19.482098
21
11.768463
0
LINE
8
Layer 1
10
19.482098
20
11.768463
11
19.615231
21
11.262394
0
LINE
8
Layer 1
10
19.615231
20
11.262394
11
19.475483
21
10.379253
0
LINE
8
Layer 1
10
19.475483
20
10.379253
11
19.098411
21
9.975720
0
LINE
8
Layer 1
10
19.098411
20
9.975720
11
18.278115
21
9.552341
0
LINE
8
Layer 1
10
18.278115
20
9.552341
11
17.484280
21
11.325241
0
LINE
8
Layer 1
10
17.484280
20
11.325241
11
16.874019
21
12.782260
0
LINE
8
Layer 1
10
16.874019
20
12.782260
11
16.809520
21
13.197371
0
LINE
8
Layer 1
10
16.809520
20
13.197371
11
18.264880
21
14.890881
0
LINE
8
Layer 1
10
18.264880
20
14.890881
11
18.622106
21
14.024278
0
LINE
8
Layer 1
10
18.622106
20
14.024278
11
18.622110
21
14.024273
0
LINE
8
Layer 1
10
52.525510
20
11.847843
11
52.525510
21
10.332943
0
LINE
8
Layer 1
10
52.525510
20
10.332943
11
52.108747
21
10.260175
0
LINE
8
Layer 1
10
52.108747
20
10.260175
11
51.645677
21
10.187407
0
LINE
8
Layer 1
10
51.645677
20
10.187407
11
50.871688
21
11.292157
0
LINE
8
Layer 1
10
50.871688
20
11.292157
11
52.499048
21
13.362747
0
LINE
8
Layer 1
10
52.499048
20
13.362747
11
52.525509
21
11.847847
0
LINE
8
Layer 1
10
52.525509
20
11.847847
11
52.525510
21
11.847843
0
LINE
8
Layer 1
10
8.057510
20
12.158762
11
8.434582
21
11.642769
0
LINE
8
Layer 1
10
8.434582
20
11.642769
11
0.793922
21
11.702307
0
LINE
8
Layer 1
10
0.793922
20
11.702307
11
0.998996
21
12.198454
0
LINE
8
Layer 1
10
0.998996
20
12.198454
11
1.204070
21
12.635063
0
LINE
8
Layer 1
10
1.204070
20
12.635063
11
4.432330
21
12.635063
0
LINE
8
Layer 1
10
4.432330
20
12.635063
11
7.660590
21
12.635063
0
LINE
8
Layer 1
10
7.660590
20
12.635063
11
8.057507
21
12.158762
0
LINE
8
Layer 1
10
8.057507
20
12.158762
11
8.057510
21
12.158762
0
LINE
8
Layer 1
10
41.061210
20
9.969102
11
41.748373
21
9.347265
0
LINE
8
Layer 1
10
41.748373
20
9.347265
11
41.438282
21
9.499416
0
LINE
8
Layer 1
10
41.438282
20
9.499416
11
40.320302
21
10.207252
0
LINE
8
Layer 1
10
40.320302
20
10.207252
11
39.473545
21
10.769552
0
LINE
8
Layer 1
10
39.473545
20
10.769552
11
39.397469
21
10.877878
0
LINE
8
Layer 1
10
39.397469
20
10.877878
11
39.500006
21
11.020933
0
LINE
8
Layer 1
10
39.500006
20
11.020933
11
39.645542
21
11.173085
0
LINE
8
Layer 1
10
39.645542
20
11.173085
11
40.015998
21
10.862166
0
LINE
8
Layer 1
10
40.015998
20
10.862166
11
41.061218
21
9.969102
0
LINE
8
Layer 1
10
41.061218
20
9.969102
11
41.061210
21
9.969102
0
LINE
8
Layer 1
10
49.542010
20
10.412326
11
50.005080
21
9.625106
0
LINE
8
Layer 1
10
50.005080
20
9.625106
11
47.636810
21
8.447586
0
LINE
8
Layer 1
10
47.636810
20
8.447586
11
45.295000
21
7.283296
0
LINE
8
Layer 1
10
45.295000
20
7.283296
11
45.043619
21
7.594215
0
LINE
8
Layer 1
10
45.043619
20
7.594215
11
44.137324
21
8.732045
0
LINE
8
Layer 1
10
44.137324
20
8.732045
11
43.482410
21
9.558956
0
LINE
8
Layer 1
10
43.482410
20
9.558956
11
43.991787
21
9.836798
0
LINE
8
Layer 1
10
43.991787
20
9.836798
11
44.494549
21
10.108025
0
LINE
8
Layer 1
10
44.494549
20
10.108025
11
45.420690
21
10.074949
0
LINE
8
Layer 1
10
45.420690
20
10.074949
11
46.809900
21
10.141102
0
LINE
8
Layer 1
10
46.809900
20
10.141102
11
47.794751
21
10.458636
0
LINE
8
Layer 1
10
47.794751
20
10.458636
11
48.635720
21
10.915091
0
LINE
8
Layer 1
10
48.635720
20
10.915091
11
49.019407
21
11.173087
0
LINE
8
Layer 1
10
49.019407
20
11.173087
11
49.542015
21
10.412329
0
LINE
8
Layer 1
10
49.542015
20
10.412329
11
49.542010
21
10.412326
0
LINE
8
Layer 1
10
17.854810
20
9.519262
11
17.980501
21
9.307573
0
LINE
8
Layer 1
10
17.980501
20
9.307573
11
16.723591
21
8.553430
0
LINE
8
Layer 1
10
16.723591
20
8.553430
11
15.670935
21
7.948958
0
LINE
8
Layer 1
10
15.670935
20
7.948958
11
15.367461
21
7.885286
0
LINE
8
Layer 1
10
15.367461
20
7.885286
11
15.461729
21
8.081264
0
LINE
8
Layer 1
10
15.461729
20
8.081264
11
16.220833
21
8.639429
0
LINE
8
Layer 1
10
16.220833
20
8.639429
11
17.424813
21
9.506032
0
LINE
8
Layer 1
10
17.424813
20
9.506032
11
17.715886
21
9.717721
0
LINE
8
Layer 1
10
17.715886
20
9.717721
11
17.854807
21
9.519262
0
LINE
8
Layer 1
10
17.854807
20
9.519262
11
17.854810
21
9.519262
0
LINE
8
Layer 1
10
13.184420
20
8.083742
11
13.363033
21
7.865437
0
LINE
8
Layer 1
10
13.363033
20
7.865437
11
9.479853
21
7.858822
0
LINE
8
Layer 1
10
9.479853
20
7.858822
11
5.596673
21
7.885283
0
LINE
8
Layer 1
10
5.596673
20
7.885283
11
5.226217
21
8.070511
0
LINE
8
Layer 1
10
5.226217
20
8.070511
11
4.862376
21
8.262354
0
LINE
8
Layer 1
10
4.862376
20
8.262354
11
8.937396
21
8.268969
0
LINE
8
Layer 1
10
8.937396
20
8.268969
11
13.005796
21
8.268969
0
LINE
8
Layer 1
10
13.005796
20
8.268969
11
13.184409
21
8.083741
0
LINE
8
Layer 1
10
13.184409
20
8.083741
11
13.184420
21
8.083742
0
LINE
8
Layer 1
10
33.506400
20
42.542800
11
32.745539
21
42.139474
0
LINE
8
Layer 1
10
32.745539
20
42.139474
11
32.266861
21
41.474430
0
LINE
8
Layer 1
10
32.266861
20
41.474430
11
32.126803
21
40.680389
0
LINE
8
Layer 1
10
32.126803
20
40.680389
11
32.381800
21
39.890070
0
LINE
8
Layer 1
10
32.381800
20
39.890070
11
33.034233
21
39.235983
0
LINE
8
Layer 1
10
33.034233
20
39.235983
11
33.870240
21
39.003621
0
LINE
8
Layer 1
10
33.870240
20
39.003621
11
34.848474
21
39.267406
0
LINE
8
Layer 1
10
34.848474
20
39.267406
11
35.543910
21
39.982684
0
LINE
8
Layer 1
10
35.543910
20
39.982684
11
35.695235
21
40.770729
0
LINE
8
Layer 1
10
35.695235
20
40.770729
11
35.563756
21
41.543894
0
LINE
8
Layer 1
10
35.563756
20
41.543894
11
35.187512
21
42.039214
0
LINE
8
Layer 1
10
35.187512
20
42.039214
11
34.716999
21
42.410497
0
LINE
8
Layer 1
10
34.716999
20
42.410497
11
34.121623
21
42.560995
0
LINE
8
Layer 1
10
34.121623
20
42.560995
11
33.506399
21
42.542803
0
LINE
8
Layer 1
10
33.506399
20
42.542803
11
33.506400
21
42.542800
0
LINE
8
Layer 1
10
34.339927
20
42.311265
11
35.040320
21
41.901116
0
LINE
8
Layer 1
10
35.040320
20
41.901116
11
35.457907
21
41.054355
0
LINE
8
Layer 1
10
35.457907
20
41.054355
11
35.441369
21
40.383937
0
LINE
8
Layer 1
10
35.441369
20
40.383937
11
35.132103
21
39.799104
0
LINE
8
Layer 1
10
35.132103
20
39.799104
11
34.602053
21
39.385441
0
LINE
8
Layer 1
10
34.602053
20
39.385441
11
33.923157
21
39.228535
0
LINE
8
Layer 1
10
33.923157
20
39.228535
11
33.063168
21
39.465858
0
LINE
8
Layer 1
10
33.063168
20
39.465858
11
32.481027
21
40.134830
0
LINE
8
Layer 1
10
32.481027
20
40.134830
11
32.331460
21
40.843597
0
LINE
8
Layer 1
10
32.331460
20
40.843597
11
32.505008
21
41.508331
0
LINE
8
Layer 1
10
32.505008
20
41.508331
11
32.952678
21
42.035385
0
LINE
8
Layer 1
10
32.952678
20
42.035385
11
33.625477
21
42.331110
0
LINE
8
Layer 1
10
33.625477
20
42.331110
11
34.002549
21
42.370802
0
LINE
8
Layer 1
10
34.002549
20
42.370802
11
34.339929
21
42.311264
0
LINE
8
Layer 1
10
34.339929
20
42.311264
11
34.339927
21
42.311265
 0 
ENDSEC
 0 
EOF