999
"DXF R12 Output" (www.mydxf.blogspot.com)
 0 
SECTION
 2 
HEADER
 9 
$ACADVER
 1 
AC1009
 9 
$EXTMIN
 10 
 0 
 20 
 0 
 9 
$EXTMAX
 10 
 8.5 
 20 
 11 
 0 
ENDSEC
 0 
SECTION
 2 
ENTITIES
0
LINE
8
Layer 1
10
81.979000
20
99.737200
11
79.661766
21
99.005850
0
LINE
8
Layer 1
10
79.661766
20
99.005850
11
77.563410
21
98.087865
0
LINE
8
Layer 1
10
77.563410
20
98.087865
11
75.672152
21
96.977662
0
LINE
8
Layer 1
10
75.672152
20
96.977662
11
73.976210
21
95.669660
0
LINE
8
Layer 1
10
73.976210
20
95.669660
11
73.361119
21
95.133936
0
LINE
8
Layer 1
10
73.361119
20
95.133936
11
71.132239
21
92.680186
0
LINE
8
Layer 1
10
71.132239
20
92.680186
11
69.661376
21
90.597539
0
LINE
8
Layer 1
10
69.661376
20
90.597539
11
68.447833
21
88.335695
0
LINE
8
Layer 1
10
68.447833
20
88.335695
11
67.483550
21
85.876674
0
LINE
8
Layer 1
10
67.483550
20
85.876674
11
66.760469
21
83.202496
0
LINE
8
Layer 1
10
66.760469
20
83.202496
11
66.419958
21
81.048027
0
LINE
8
Layer 1
10
66.419958
20
81.048027
11
66.273522
21
78.685219
0
LINE
8
Layer 1
10
66.273522
20
78.685219
11
66.324263
21
76.267844
0
LINE
8
Layer 1
10
66.324263
20
76.267844
11
66.575280
21
73.949676
0
LINE
8
Layer 1
10
66.575280
20
73.949676
11
67.732710
21
68.949586
0
LINE
8
Layer 1
10
67.732710
20
68.949586
11
68.321345
21
67.957505
0
LINE
8
Layer 1
10
68.321345
20
67.957505
11
69.386180
21
66.568586
0
LINE
8
Layer 1
10
69.386180
20
66.568586
11
72.626980
21
63.076456
0
LINE
8
Layer 1
10
72.626980
20
63.076456
11
75.312220
21
61.045996
0
LINE
8
Layer 1
10
75.312220
20
61.045996
11
75.986836
21
60.569797
0
LINE
8
Layer 1
10
75.986836
20
60.569797
11
75.510637
21
59.842270
0
LINE
8
Layer 1
10
75.510637
20
59.842270
11
73.394197
21
56.799890
0
LINE
8
Layer 1
10
73.394197
20
56.799890
11
71.992057
21
54.762810
0
LINE
8
Layer 1
10
71.992057
20
54.762810
11
70.576687
21
52.712510
0
LINE
8
Layer 1
10
70.576687
20
52.712510
11
69.478787
21
51.125180
0
LINE
8
Layer 1
10
69.478787
20
51.125180
11
68.440407
21
49.623830
0
LINE
8
Layer 1
10
68.440407
20
49.623830
11
67.659969
21
48.545770
0
LINE
8
Layer 1
10
67.659969
20
48.545770
11
66.833234
21
49.174089
0
LINE
8
Layer 1
10
66.833234
20
49.174089
11
63.770180
21
51.543510
0
LINE
8
Layer 1
10
63.770180
20
51.543510
11
60.781534
21
53.287919
0
LINE
8
Layer 1
10
60.781534
20
53.287919
11
58.407977
21
54.315552
0
LINE
8
Layer 1
10
58.407977
20
54.315552
11
55.126664
21
55.397749
0
LINE
8
Layer 1
10
55.126664
20
55.397749
11
53.502955
21
55.875602
0
LINE
8
Layer 1
10
53.502955
20
55.875602
11
53.069744
21
55.887176
0
LINE
8
Layer 1
10
53.069744
20
55.887176
11
52.556342
21
55.539121
0
LINE
8
Layer 1
10
52.556342
20
55.539121
11
51.561784
21
53.995606
0
LINE
8
Layer 1
10
51.561784
20
53.995606
11
50.503564
21
52.309066
0
LINE
8
Layer 1
10
50.503564
20
52.309066
11
47.567004
21
47.619826
0
LINE
8
Layer 1
10
47.567004
20
47.619826
11
46.826249
21
46.462396
0
LINE
8
Layer 1
10
46.826249
20
46.462396
11
45.966445
21
45.106546
0
LINE
8
Layer 1
10
45.966445
20
45.106546
11
44.365885
21
42.527136
0
LINE
8
Layer 1
10
44.365885
20
42.527136
11
43.466397
21
41.072086
0
LINE
8
Layer 1
10
43.466397
20
41.072086
11
42.520612
21
39.537666
0
LINE
8
Layer 1
10
42.520612
20
39.537666
11
41.965046
21
38.624951
0
LINE
8
Layer 1
10
41.965046
20
38.624951
11
41.713719
21
38.459604
0
LINE
8
Layer 1
10
41.713719
20
38.459604
11
40.443859
21
38.757229
0
LINE
8
Layer 1
10
40.443859
20
38.757229
11
38.806716
21
39.002769
0
LINE
8
Layer 1
10
38.806716
20
39.002769
11
37.217939
21
39.084616
0
LINE
8
Layer 1
10
37.217939
20
39.084616
11
35.646524
21
39.002769
0
LINE
8
Layer 1
10
35.646524
20
39.002769
11
34.061469
21
38.757229
0
LINE
8
Layer 1
10
34.061469
20
38.757229
11
32.282748
21
38.278757
0
LINE
8
Layer 1
10
32.282748
20
38.278757
11
30.536272
21
37.598148
0
LINE
8
Layer 1
10
30.536272
20
37.598148
11
28.923726
21
36.761285
0
LINE
8
Layer 1
10
28.923726
20
36.761285
11
27.546799
21
35.814049
0
LINE
8
Layer 1
10
27.546799
20
35.814049
11
27.070600
21
35.430444
0
LINE
8
Layer 1
10
27.070600
20
35.430444
11
26.911867
21
35.529652
0
LINE
8
Layer 1
10
26.911867
20
35.529652
11
26.647312
21
35.800821
0
LINE
8
Layer 1
10
26.647312
20
35.800821
11
26.243865
21
35.913257
0
LINE
8
Layer 1
10
26.243865
20
35.913257
11
25.794121
21
35.694999
0
LINE
8
Layer 1
10
25.794121
20
35.694999
11
20.701431
21
31.118199
0
LINE
8
Layer 1
10
20.701431
20
31.118199
11
15.569061
21
27.196169
0
LINE
8
Layer 1
10
15.569061
20
27.196169
11
7.691112
21
21.860423
0
LINE
8
Layer 1
10
7.691112
20
21.860423
11
0.780461
21
17.725089
0
LINE
8
Layer 1
10
0.780461
20
17.725089
11
0.000023
21
17.295187
0
LINE
8
Layer 1
10
0.000023
20
17.295187
11
0.000023
21
16.587502
0
LINE
8
Layer 1
10
0.000023
20
16.587502
11
0.046320
21
15.873203
0
LINE
8
Layer 1
10
0.046320
20
15.873203
11
3.042410
21
17.447303
0
LINE
8
Layer 1
10
3.042410
20
17.447303
11
8.299609
21
20.666612
0
LINE
8
Layer 1
10
8.299609
20
20.666612
11
14.166910
21
24.570453
0
LINE
8
Layer 1
10
14.166910
20
24.570453
11
15.456620
21
25.456713
0
LINE
8
Layer 1
10
15.456620
20
25.456713
11
20.222749
21
29.000099
0
LINE
8
Layer 1
10
20.222749
20
29.000099
11
24.259690
21
32.434353
0
LINE
8
Layer 1
10
24.259690
20
32.434353
11
24.702820
21
32.798116
0
LINE
8
Layer 1
10
24.702820
20
32.798116
11
24.577156
21
32.533561
0
LINE
8
Layer 1
10
24.577156
20
32.533561
11
23.624757
21
30.754431
0
LINE
8
Layer 1
10
23.624757
20
30.754431
11
23.118279
21
29.215361
0
LINE
8
Layer 1
10
23.118279
20
29.215361
11
22.861681
21
27.588862
0
LINE
8
Layer 1
10
22.861681
20
27.588862
11
22.859304
21
25.941283
0
LINE
8
Layer 1
10
22.859304
20
25.941283
11
23.115488
21
24.338971
0
LINE
8
Layer 1
10
23.115488
20
24.338971
11
23.604915
21
22.787187
0
LINE
8
Layer 1
10
23.604915
20
22.787187
11
24.292758
21
21.409021
0
LINE
8
Layer 1
10
24.292758
20
21.409021
11
25.106679
21
20.223379
0
LINE
8
Layer 1
10
25.106679
20
20.223379
11
26.111576
21
19.066880
0
LINE
8
Layer 1
10
26.111576
20
19.066880
11
27.235521
21
18.013309
0
LINE
8
Layer 1
10
27.235521
20
18.013309
11
28.406588
21
17.136451
0
LINE
8
Layer 1
10
28.406588
20
17.136451
11
30.820658
21
15.912881
0
LINE
8
Layer 1
10
30.820658
20
15.912881
11
33.466208
21
15.145671
0
LINE
8
Layer 1
10
33.466208
20
15.145671
11
34.913821
21
14.937334
0
LINE
8
Layer 1
10
34.913821
20
14.937334
11
36.634258
21
14.887730
0
LINE
8
Layer 1
10
36.634258
20
14.887730
11
37.844598
21
14.894344
0
LINE
8
Layer 1
10
37.844598
20
14.894344
11
38.049628
21
14.636403
0
LINE
8
Layer 1
10
38.049628
20
14.636403
11
40.397558
21
12.321543
0
LINE
8
Layer 1
10
40.397558
20
12.321543
11
40.939896
21
11.838730
0
LINE
8
Layer 1
10
40.939896
20
11.838730
11
38.558896
21
11.005381
0
LINE
8
Layer 1
10
38.558896
20
11.005381
11
32.937096
21
9.219631
0
LINE
8
Layer 1
10
32.937096
20
9.219631
11
32.037608
21
8.888937
0
LINE
8
Layer 1
10
32.037608
20
8.888937
11
19.577108
21
8.796343
0
LINE
8
Layer 1
10
19.577108
20
8.796343
11
6.852008
21
8.895551
0
LINE
8
Layer 1
10
6.852008
20
8.895551
11
5.522618
21
9.226245
0
LINE
8
Layer 1
10
5.522618
20
9.226245
11
3.505388
21
9.722286
0
LINE
8
Layer 1
10
3.505388
20
9.722286
11
0.244748
21
10.476268
0
LINE
8
Layer 1
10
0.244748
20
10.476268
11
0.000034
21
10.522565
0
LINE
8
Layer 1
10
0.000034
20
10.522565
11
0.000034
21
9.795038
0
LINE
8
Layer 1
10
0.000034
20
9.795038
11
0.000034
21
9.074125
0
LINE
8
Layer 1
10
0.000034
20
9.074125
11
0.350570
21
9.027828
0
LINE
8
Layer 1
10
0.350570
20
9.027828
11
1.613820
21
8.783114
0
LINE
8
Layer 1
10
1.613820
20
8.783114
11
0.787085
21
8.763272
0
LINE
8
Layer 1
10
0.787085
20
8.763272
11
0.000033
21
8.809570
0
LINE
8
Layer 1
10
0.000033
20
8.809570
11
0.000033
21
8.121726
0
LINE
8
Layer 1
10
0.000033
20
8.121726
11
0.000033
21
7.427269
0
LINE
8
Layer 1
10
0.000033
20
7.427269
11
1.732873
21
7.380971
0
LINE
8
Layer 1
10
1.732873
20
7.380971
11
5.253113
21
7.149486
0
LINE
8
Layer 1
10
5.253113
20
7.149486
11
9.418203
21
6.580692
0
LINE
8
Layer 1
10
9.418203
20
6.580692
11
13.837929
21
5.657229
0
LINE
8
Layer 1
10
13.837929
20
5.657229
11
18.604883
21
4.391502
0
LINE
8
Layer 1
10
18.604883
20
4.391502
11
19.795383
21
4.140175
0
LINE
8
Layer 1
10
19.795383
20
4.140175
11
21.495153
21
4.609760
0
LINE
8
Layer 1
10
21.495153
20
4.609760
11
26.243094
21
5.899468
0
LINE
8
Layer 1
10
26.243094
20
5.899468
11
29.894783
21
6.712970
0
LINE
8
Layer 1
10
29.894783
20
6.712970
11
34.207032
21
7.409081
0
LINE
8
Layer 1
10
34.207032
20
7.409081
11
38.757383
21
7.877010
0
LINE
8
Layer 1
10
38.757383
20
7.877010
11
41.736111
21
7.954724
0
LINE
8
Layer 1
10
41.736111
20
7.954724
11
44.709873
21
7.843941
0
LINE
8
Layer 1
10
44.709873
20
7.843941
11
50.649136
21
7.084998
0
LINE
8
Layer 1
10
50.649136
20
7.084998
11
52.769919
21
6.653443
0
LINE
8
Layer 1
10
52.769919
20
6.653443
11
54.147883
21
6.216931
0
LINE
8
Layer 1
10
54.147883
20
6.216931
11
57.970703
21
4.034351
0
LINE
8
Layer 1
10
57.970703
20
4.034351
11
60.054073
21
2.744641
0
LINE
8
Layer 1
10
60.054073
20
2.744641
11
61.965483
21
1.534301
0
LINE
8
Layer 1
10
61.965483
20
1.534301
11
62.900522
21
0.975428
0
LINE
8
Layer 1
10
62.900522
20
0.975428
11
63.354393
21
0.892755
0
LINE
8
Layer 1
10
63.354393
20
0.892755
11
65.940423
21
2.367655
0
LINE
8
Layer 1
10
65.940423
20
2.367655
11
68.619043
21
4.001285
0
LINE
8
Layer 1
10
68.619043
20
4.001285
11
70.953743
21
5.416655
0
LINE
8
Layer 1
10
70.953743
20
5.416655
11
75.378433
21
7.896855
0
LINE
8
Layer 1
10
75.378433
20
7.896855
11
77.340068
21
8.648358
0
LINE
8
Layer 1
10
77.340068
20
8.648358
11
79.741937
21
9.171680
0
LINE
8
Layer 1
10
79.741937
20
9.171680
11
82.538154
21
9.459382
0
LINE
8
Layer 1
10
82.538154
20
9.459382
11
85.682833
21
9.504025
0
LINE
8
Layer 1
10
85.682833
20
9.504025
11
88.030763
21
9.391589
0
LINE
8
Layer 1
10
88.030763
20
9.391589
11
93.655869
21
8.515252
0
LINE
8
Layer 1
10
93.655869
20
8.515252
11
99.082563
21
7.242079
0
LINE
8
Layer 1
10
99.082563
20
7.242079
11
99.929140
21
7.010593
0
LINE
8
Layer 1
10
99.929140
20
7.010593
11
100.001893
21
7.691823
0
LINE
8
Layer 1
10
100.001893
20
7.691823
11
100.001893
21
8.379667
0
LINE
8
Layer 1
10
100.001893
20
8.379667
11
99.757179
21
8.459034
0
LINE
8
Layer 1
10
99.757179
20
8.459034
11
96.959509
21
9.193175
0
LINE
8
Layer 1
10
96.959509
20
9.193175
11
95.405249
21
9.556938
0
LINE
8
Layer 1
10
95.405249
20
9.556938
11
94.446236
21
9.755354
0
LINE
8
Layer 1
10
94.446236
20
9.755354
11
93.421086
21
9.953770
0
LINE
8
Layer 1
10
93.421086
20
9.953770
11
90.582803
21
10.414054
0
LINE
8
Layer 1
10
90.582803
20
10.414054
11
87.694298
21
10.714366
0
LINE
8
Layer 1
10
87.694298
20
10.714366
11
84.936012
21
10.841063
0
LINE
8
Layer 1
10
84.936012
20
10.841063
11
82.488386
21
10.780505
0
LINE
8
Layer 1
10
82.488386
20
10.780505
11
80.358716
21
10.582089
0
LINE
8
Layer 1
10
80.358716
20
10.582089
11
79.115306
21
10.449811
0
LINE
8
Layer 1
10
79.115306
20
10.449811
11
79.816377
21
11.223635
0
LINE
8
Layer 1
10
79.816377
20
11.223635
11
81.185447
21
12.658845
0
LINE
8
Layer 1
10
81.185447
20
12.658845
11
82.752937
21
14.365225
0
LINE
8
Layer 1
10
82.752937
20
14.365225
11
84.432867
21
16.223725
0
LINE
8
Layer 1
10
84.432867
20
16.223725
11
86.145034
21
18.141750
0
LINE
8
Layer 1
10
86.145034
20
18.141750
11
86.721267
21
18.631175
0
LINE
8
Layer 1
10
86.721267
20
18.631175
11
91.238547
21
20.535975
0
LINE
8
Layer 1
10
91.238547
20
20.535975
11
94.016377
21
21.739705
0
LINE
8
Layer 1
10
94.016377
20
21.739705
11
95.669847
21
22.454004
0
LINE
8
Layer 1
10
95.669847
20
22.454004
11
98.150057
21
23.532064
0
LINE
8
Layer 1
10
98.150057
20
23.532064
11
99.968877
21
24.319116
0
LINE
8
Layer 1
10
99.968877
20
24.319116
11
99.988719
21
25.053257
0
LINE
8
Layer 1
10
99.988719
20
25.053257
11
100.008560
21
25.787398
0
LINE
8
Layer 1
10
100.008560
20
25.787398
11
99.029706
21
25.357496
0
LINE
8
Layer 1
10
99.029706
20
25.357496
11
97.290256
21
24.603514
0
LINE
8
Layer 1
10
97.290256
20
24.603514
11
94.975396
21
23.611432
0
LINE
8
Layer 1
10
94.975396
20
23.611432
11
92.759746
21
22.652419
0
LINE
8
Layer 1
10
92.759746
20
22.652419
11
90.411816
21
21.627269
0
LINE
8
Layer 1
10
90.411816
20
21.627269
11
86.212006
21
19.934119
0
LINE
8
Layer 1
10
86.212006
20
19.934119
11
85.660574
21
19.635667
0
LINE
8
Layer 1
10
85.660574
20
19.635667
11
85.054576
21
19.014790
0
LINE
8
Layer 1
10
85.054576
20
19.014790
11
82.475166
21
16.137750
0
LINE
8
Layer 1
10
82.475166
20
16.137750
11
82.475166
21
16.309711
0
LINE
8
Layer 1
10
82.475166
20
16.309711
11
82.539651
21
17.564695
0
LINE
8
Layer 1
10
82.539651
20
17.564695
11
82.435483
21
19.166911
0
LINE
8
Layer 1
10
82.435483
20
19.166911
11
82.142612
21
20.464473
0
LINE
8
Layer 1
10
82.142612
20
20.464473
11
81.694729
21
21.670266
0
LINE
8
Layer 1
10
81.694729
20
21.670266
11
81.083153
21
22.801651
0
LINE
8
Layer 1
10
81.083153
20
22.801651
11
80.299203
21
23.875991
0
LINE
8
Layer 1
10
80.299203
20
23.875991
11
78.959067
21
25.140068
0
LINE
8
Layer 1
10
78.959067
20
25.140068
11
77.296503
21
26.151161
0
LINE
8
Layer 1
10
77.296503
20
26.151161
11
76.814516
21
26.404142
0
LINE
8
Layer 1
10
76.814516
20
26.404142
11
76.674798
21
26.607519
0
LINE
8
Layer 1
10
76.674798
20
26.607519
11
76.456540
21
26.918371
0
LINE
8
Layer 1
10
76.456540
20
26.918371
11
71.377080
21
28.538771
0
LINE
8
Layer 1
10
71.377080
20
28.538771
11
69.313550
21
29.213387
0
LINE
8
Layer 1
10
69.313550
20
29.213387
11
69.472283
21
29.596992
0
LINE
8
Layer 1
10
69.472283
20
29.596992
11
70.213864
21
31.780399
0
LINE
8
Layer 1
10
70.213864
20
31.780399
11
70.801673
21
34.425122
0
LINE
8
Layer 1
10
70.801673
20
34.425122
11
70.947178
21
36.197642
0
LINE
8
Layer 1
10
70.947178
20
36.197642
11
71.026544
21
37.328612
0
LINE
8
Layer 1
10
71.026544
20
37.328612
11
71.562268
21
37.202948
0
LINE
8
Layer 1
10
71.562268
20
37.202948
11
80.018940
21
34.634280
0
LINE
8
Layer 1
10
80.018940
20
34.634280
11
85.186868
21
33.201548
0
LINE
8
Layer 1
10
85.186868
20
33.201548
11
86.708058
21
32.817943
0
LINE
8
Layer 1
10
86.708058
20
32.817943
11
86.212017
21
32.639368
0
LINE
8
Layer 1
10
86.212017
20
32.639368
11
84.602366
21
32.052386
0
LINE
8
Layer 1
10
84.602366
20
32.052386
11
83.374667
21
31.118178
0
LINE
8
Layer 1
10
83.374667
20
31.118178
11
82.723614
21
30.325856
0
LINE
8
Layer 1
10
82.723614
20
30.325856
11
82.238733
21
29.427506
0
LINE
8
Layer 1
10
82.238733
20
29.427506
11
81.920028
21
28.423747
0
LINE
8
Layer 1
10
81.920028
20
28.423747
11
81.767497
21
27.315198
0
LINE
8
Layer 1
10
81.767497
20
27.315198
11
81.812658
21
26.140304
0
LINE
8
Layer 1
10
81.812658
20
26.140304
11
82.103979
21
25.059038
0
LINE
8
Layer 1
10
82.103979
20
25.059038
11
82.652002
21
24.045976
0
LINE
8
Layer 1
10
82.652002
20
24.045976
11
83.467267
21
23.075698
0
LINE
8
Layer 1
10
83.467267
20
23.075698
11
84.161724
21
22.438284
0
LINE
8
Layer 1
10
84.161724
20
22.438284
11
84.856177
21
22.043928
0
LINE
8
Layer 1
10
84.856177
20
22.043928
11
86.105372
21
21.565248
0
LINE
8
Layer 1
10
86.105372
20
21.565248
11
87.567867
21
21.468520
0
LINE
8
Layer 1
10
87.567867
20
21.468520
11
88.579791
21
21.501589
0
LINE
8
Layer 1
10
88.579791
20
21.501589
11
89.254407
21
21.653709
0
LINE
8
Layer 1
10
89.254407
20
21.653709
11
90.753072
21
22.307759
0
LINE
8
Layer 1
10
90.753072
20
22.307759
11
91.942950
21
23.255093
0
LINE
8
Layer 1
10
91.942950
20
23.255093
11
92.805442
21
24.476490
0
LINE
8
Layer 1
10
92.805442
20
24.476490
11
93.321947
21
25.952729
0
LINE
8
Layer 1
10
93.321947
20
25.952729
11
93.447715
21
27.202444
0
LINE
8
Layer 1
10
93.447715
20
27.202444
11
93.291358
21
28.420535
0
LINE
8
Layer 1
10
93.291358
20
28.420535
11
92.855979
21
29.590260
0
LINE
8
Layer 1
10
92.855979
20
29.590260
11
92.144677
21
30.694879
0
LINE
8
Layer 1
10
92.144677
20
30.694879
11
91.754458
21
31.257059
0
LINE
8
Layer 1
10
91.754458
20
31.257059
11
92.118221
21
31.118168
0
LINE
8
Layer 1
10
92.118221
20
31.118168
11
92.508440
21
30.952821
0
LINE
8
Layer 1
10
92.508440
20
30.952821
11
94.109000
21
30.331116
0
LINE
8
Layer 1
10
94.109000
20
30.331116
11
96.695030
21
29.305966
0
LINE
8
Layer 1
10
96.695030
20
29.305966
11
98.831310
21
28.479231
0
LINE
8
Layer 1
10
98.831310
20
28.479231
11
99.975510
21
28.042715
0
LINE
8
Layer 1
10
99.975510
20
28.042715
11
100.001966
21
28.757014
0
LINE
8
Layer 1
10
100.001966
20
28.757014
11
100.001966
21
29.477927
0
LINE
8
Layer 1
10
100.001966
20
29.477927
11
99.823391
21
29.557293
0
LINE
8
Layer 1
10
99.823391
20
29.557293
11
97.124931
21
30.622123
0
LINE
8
Layer 1
10
97.124931
20
30.622123
11
93.421161
21
32.024263
0
LINE
8
Layer 1
10
93.421161
20
32.024263
11
92.792842
21
32.321888
0
LINE
8
Layer 1
10
92.792842
20
32.321888
11
92.793669
21
32.392161
0
LINE
8
Layer 1
10
92.793669
20
32.392161
11
93.454230
21
32.249135
0
LINE
8
Layer 1
10
93.454230
20
32.249135
11
96.000570
21
32.011035
0
LINE
8
Layer 1
10
96.000570
20
32.011035
11
97.635027
21
32.139179
0
LINE
8
Layer 1
10
97.635027
20
32.139179
11
99.393490
21
32.520304
0
LINE
8
Layer 1
10
99.393490
20
32.520304
11
100.001967
21
32.692265
0
LINE
8
Layer 1
10
100.001967
20
32.692265
11
100.001967
21
33.399950
0
LINE
8
Layer 1
10
100.001967
20
33.399950
11
100.001967
21
34.114249
0
LINE
8
Layer 1
10
100.001967
20
34.114249
11
99.724184
21
34.028269
0
LINE
8
Layer 1
10
99.724184
20
34.028269
11
97.885524
21
33.519000
0
LINE
8
Layer 1
10
97.885524
20
33.519000
11
96.000564
21
33.373495
0
LINE
8
Layer 1
10
96.000564
20
33.373495
11
94.603381
21
33.434673
0
LINE
8
Layer 1
10
94.603381
20
33.434673
11
93.156594
21
33.704189
0
LINE
8
Layer 1
10
93.156594
20
33.704189
11
91.463751
21
34.227409
0
LINE
8
Layer 1
10
91.463751
20
34.227409
11
89.901739
21
34.993069
0
LINE
8
Layer 1
10
89.901739
20
34.993069
11
88.522021
21
35.970787
0
LINE
8
Layer 1
10
88.522021
20
35.970787
11
87.376064
21
37.130179
0
LINE
8
Layer 1
10
87.376064
20
37.130179
11
86.190525
21
38.868802
0
LINE
8
Layer 1
10
86.190525
20
38.868802
11
85.431584
21
40.741359
0
LINE
8
Layer 1
10
85.431584
20
40.741359
11
85.085182
21
42.169955
0
LINE
8
Layer 1
10
85.085182
20
42.169955
11
85.021523
21
43.816809
0
LINE
8
Layer 1
10
85.021523
20
43.816809
11
85.053766
21
45.190843
0
LINE
8
Layer 1
10
85.053766
20
45.190843
11
85.239781
21
46.118439
0
LINE
8
Layer 1
10
85.239781
20
46.118439
11
86.112813
21
48.512659
0
LINE
8
Layer 1
10
86.112813
20
48.512659
11
86.808729
21
49.633815
0
LINE
8
Layer 1
10
86.808729
20
49.633815
11
87.641134
21
50.663824
0
LINE
8
Layer 1
10
87.641134
20
50.663824
11
88.594605
21
51.592145
0
LINE
8
Layer 1
10
88.594605
20
51.592145
11
89.653718
21
52.408237
0
LINE
8
Layer 1
10
89.653718
20
52.408237
11
90.803048
21
53.101558
0
LINE
8
Layer 1
10
90.803048
20
53.101558
11
92.027171
21
53.661568
0
LINE
8
Layer 1
10
92.027171
20
53.661568
11
93.310664
21
54.077725
0
LINE
8
Layer 1
10
93.310664
20
54.077725
11
94.638103
21
54.339489
0
LINE
8
Layer 1
10
94.638103
20
54.339489
11
97.015792
21
54.358504
0
LINE
8
Layer 1
10
97.015792
20
54.358504
11
99.433163
21
53.797151
0
LINE
8
Layer 1
10
99.433163
20
53.797151
11
99.949046
21
53.638418
0
LINE
8
Layer 1
10
99.949046
20
53.638418
11
100.001957
21
54.365945
0
LINE
8
Layer 1
10
100.001957
20
54.365945
11
100.001957
21
55.086858
0
LINE
8
Layer 1
10
100.001957
20
55.086858
11
99.790313
21
55.152997
0
LINE
8
Layer 1
10
99.790313
20
55.152997
11
97.878903
21
55.613488
0
LINE
8
Layer 1
10
97.878903
20
55.613488
11
95.967493
21
55.721791
0
LINE
8
Layer 1
10
95.967493
20
55.721791
11
94.287564
21
55.639117
0
LINE
8
Layer 1
10
94.287564
20
55.639117
11
92.766373
21
55.318344
0
LINE
8
Layer 1
10
92.766373
20
55.318344
11
91.004433
21
54.702115
0
LINE
8
Layer 1
10
91.004433
20
54.702115
11
89.397738
21
53.879409
0
LINE
8
Layer 1
10
89.397738
20
53.879409
11
87.958923
21
52.863868
0
LINE
8
Layer 1
10
87.958923
20
52.863868
11
86.700619
21
51.669133
0
LINE
8
Layer 1
10
86.700619
20
51.669133
11
85.635462
21
50.308843
0
LINE
8
Layer 1
10
85.635462
20
50.308843
11
84.776084
21
48.796642
0
LINE
8
Layer 1
10
84.776084
20
48.796642
11
84.135120
21
47.146168
0
LINE
8
Layer 1
10
84.135120
20
47.146168
11
83.725203
21
45.371064
0
LINE
8
Layer 1
10
83.725203
20
45.371064
11
83.631782
21
43.564649
0
LINE
8
Layer 1
10
83.631782
20
43.564649
11
83.751658
21
41.773114
0
LINE
8
Layer 1
10
83.751658
20
41.773114
11
84.125136
21
40.263701
0
LINE
8
Layer 1
10
84.125136
20
40.263701
11
84.670989
21
38.849776
0
LINE
8
Layer 1
10
84.670989
20
38.849776
11
85.390456
21
37.530100
0
LINE
8
Layer 1
10
85.390456
20
37.530100
11
86.284778
21
36.303434
0
LINE
8
Layer 1
10
86.284778
20
36.303434
11
87.657160
21
34.923614
0
LINE
8
Layer 1
10
87.657160
20
34.923614
11
89.089068
21
33.876144
0
LINE
8
Layer 1
10
89.089068
20
33.876144
11
89.409015
21
33.619029
0
LINE
8
Layer 1
10
89.409015
20
33.619029
11
89.069227
21
33.664500
0
LINE
8
Layer 1
10
89.069227
20
33.664500
11
86.906487
21
34.200224
0
LINE
8
Layer 1
10
86.906487
20
34.200224
11
82.838947
21
35.231994
0
LINE
8
Layer 1
10
82.838947
20
35.231994
11
76.853387
21
36.997904
0
LINE
8
Layer 1
10
76.853387
20
36.997904
11
76.158930
21
37.202934
0
LINE
8
Layer 1
10
76.158930
20
37.202934
11
75.497542
21
37.401350
0
LINE
8
Layer 1
10
75.497542
20
37.401350
11
74.240902
21
37.798183
0
LINE
8
Layer 1
10
74.240902
20
37.798183
11
72.355942
21
38.400046
0
LINE
8
Layer 1
10
72.355942
20
38.400046
11
71.231582
21
38.704284
0
LINE
8
Layer 1
10
71.231582
20
38.704284
11
71.084423
21
38.719992
0
LINE
8
Layer 1
10
71.084423
20
38.719992
11
70.996789
21
38.834908
0
LINE
8
Layer 1
10
70.996789
20
38.834908
11
70.801680
21
39.947694
0
LINE
8
Layer 1
10
70.801680
20
39.947694
11
70.063406
21
43.259593
0
LINE
8
Layer 1
10
70.063406
20
43.259593
11
68.824130
21
46.482204
0
LINE
8
Layer 1
10
68.824130
20
46.482204
11
68.483515
21
47.298191
0
LINE
8
Layer 1
10
68.483515
20
47.298191
11
68.539733
21
47.533814
0
LINE
8
Layer 1
10
68.539733
20
47.533814
11
70.933953
21
50.827524
0
LINE
8
Layer 1
10
70.933953
20
50.827524
11
72.395623
21
52.943964
0
LINE
8
Layer 1
10
72.395623
20
52.943964
11
73.420773
21
54.432084
0
LINE
8
Layer 1
10
73.420773
20
54.432084
11
76.483003
21
58.850154
0
LINE
8
Layer 1
10
76.483003
20
58.850154
11
77.018727
21
59.597522
0
LINE
8
Layer 1
10
77.018727
20
59.597522
11
77.415560
21
59.557839
0
LINE
8
Layer 1
10
77.415560
20
59.557839
11
80.616680
21
59.194076
0
LINE
8
Layer 1
10
80.616680
20
59.194076
11
83.313491
21
58.974991
0
LINE
8
Layer 1
10
83.313491
20
58.974991
11
86.357530
21
58.949362
0
LINE
8
Layer 1
10
86.357530
20
58.949362
11
88.793917
21
59.045263
0
LINE
8
Layer 1
10
88.793917
20
59.045263
11
91.007090
21
59.359423
0
LINE
8
Layer 1
10
91.007090
20
59.359423
11
95.003524
21
60.284539
0
LINE
8
Layer 1
10
95.003524
20
60.284539
11
99.724180
21
61.899153
0
LINE
8
Layer 1
10
99.724180
20
61.899153
11
100.001963
21
62.004975
0
LINE
8
Layer 1
10
100.001963
20
62.004975
11
100.001963
21
62.712660
0
LINE
8
Layer 1
10
100.001963
20
62.712660
11
100.001963
21
63.420345
0
LINE
8
Layer 1
10
100.001963
20
63.420345
11
99.459625
21
63.221929
0
LINE
8
Layer 1
10
99.459625
20
63.221929
11
98.579979
21
62.884621
0
LINE
8
Layer 1
10
98.579979
20
62.884621
11
94.181749
21
61.449411
0
LINE
8
Layer 1
10
94.181749
20
61.449411
11
92.925109
21
61.118717
0
LINE
8
Layer 1
10
92.925109
20
61.118717
11
90.945906
21
60.687988
0
LINE
8
Layer 1
10
90.945906
20
60.687988
11
88.659159
21
60.371349
0
LINE
8
Layer 1
10
88.659159
20
60.371349
11
85.655629
21
60.287022
0
LINE
8
Layer 1
10
85.655629
20
60.287022
11
82.409039
21
60.371349
0
LINE
8
Layer 1
10
82.409039
20
60.371349
11
79.135169
21
60.794637
0
LINE
8
Layer 1
10
79.135169
20
60.794637
11
79.677507
21
60.874003
0
LINE
8
Layer 1
10
79.677507
20
60.874003
11
82.900119
21
61.287371
0
LINE
8
Layer 1
10
82.900119
20
61.287371
11
86.112817
21
61.978523
0
LINE
8
Layer 1
10
86.112817
20
61.978523
11
88.829467
21
62.846595
0
LINE
8
Layer 1
10
88.829467
20
62.846595
11
92.429077
21
64.220633
0
LINE
8
Layer 1
10
92.429077
20
64.220633
11
96.351107
21
65.788123
0
LINE
8
Layer 1
10
96.351107
20
65.788123
11
97.634197
21
66.284164
0
LINE
8
Layer 1
10
97.634197
20
66.284164
11
98.103782
21
66.072520
0
LINE
8
Layer 1
10
98.103782
20
66.072520
11
99.135552
21
65.596321
0
LINE
8
Layer 1
10
99.135552
20
65.596321
11
99.843237
21
65.305310
0
LINE
8
Layer 1
10
99.843237
20
65.305310
11
100.001970
21
65.265627
0
LINE
8
Layer 1
10
100.001970
20
65.265627
11
100.001970
21
66.012995
0
LINE
8
Layer 1
10
100.001970
20
66.012995
11
100.001970
21
66.766977
0
LINE
8
Layer 1
10
100.001970
20
66.766977
11
99.658048
21
66.905868
0
LINE
8
Layer 1
10
99.658048
20
66.905868
11
99.294285
21
67.110898
0
LINE
8
Layer 1
10
99.294285
20
67.110898
11
99.638207
21
67.329156
0
LINE
8
Layer 1
10
99.638207
20
67.329156
11
100.001970
21
67.474661
0
LINE
8
Layer 1
10
100.001970
20
67.474661
11
100.001970
21
68.195574
0
LINE
8
Layer 1
10
100.001970
20
68.195574
11
99.968900
21
68.916487
0
LINE
8
Layer 1
10
99.968900
20
68.916487
11
99.221532
21
68.658546
0
LINE
8
Layer 1
10
99.221532
20
68.658546
11
97.945052
21
68.195574
0
LINE
8
Layer 1
10
97.945052
20
68.195574
11
97.369644
21
67.990544
0
LINE
8
Layer 1
10
97.369644
20
67.990544
11
96.721484
21
68.096366
0
LINE
8
Layer 1
10
96.721484
20
68.096366
11
93.669181
21
68.218723
0
LINE
8
Layer 1
10
93.669181
20
68.218723
11
90.477984
21
68.102980
0
LINE
8
Layer 1
10
90.477984
20
68.102980
11
87.493469
21
67.492022
0
LINE
8
Layer 1
10
87.493469
20
67.492022
11
83.963314
21
66.370140
0
LINE
8
Layer 1
10
83.963314
20
66.370140
11
82.541334
21
65.874099
0
LINE
8
Layer 1
10
82.541334
20
65.874099
11
81.317764
21
65.450811
0
LINE
8
Layer 1
10
81.317764
20
65.450811
11
80.583623
21
65.212711
0
LINE
8
Layer 1
10
80.583623
20
65.212711
11
80.168602
21
66.059287
0
LINE
8
Layer 1
10
80.168602
20
66.059287
11
79.346823
21
68.354301
0
LINE
8
Layer 1
10
79.346823
20
68.354301
11
78.572999
21
70.603021
0
LINE
8
Layer 1
10
78.572999
20
70.603021
11
77.108128
21
75.007657
0
LINE
8
Layer 1
10
77.108128
20
75.007657
11
76.303611
21
78.041981
0
LINE
8
Layer 1
10
76.303611
20
78.041981
11
75.979012
21
80.597625
0
LINE
8
Layer 1
10
75.979012
20
80.597625
11
75.953899
21
83.566221
0
LINE
8
Layer 1
10
75.953899
20
83.566221
11
76.165543
21
90.464501
0
LINE
8
Layer 1
10
76.165543
20
90.464501
11
76.211841
21
91.218483
0
LINE
8
Layer 1
10
76.211841
20
91.218483
11
76.714496
21
91.721138
0
LINE
8
Layer 1
10
76.714496
20
91.721138
11
79.664286
21
94.300548
0
LINE
8
Layer 1
10
79.664286
20
94.300548
11
79.426186
21
93.883874
0
LINE
8
Layer 1
10
79.426186
20
93.883874
11
78.678818
21
92.356064
0
LINE
8
Layer 1
10
78.678818
20
92.356064
11
78.442165
21
91.310762
0
LINE
8
Layer 1
10
78.442165
20
91.310762
11
78.407649
21
90.323124
0
LINE
8
Layer 1
10
78.407649
20
90.323124
11
78.576509
21
89.386328
0
LINE
8
Layer 1
10
78.576509
20
89.386328
11
78.949987
21
88.493554
0
LINE
8
Layer 1
10
78.949987
20
88.493554
11
79.898561
21
87.228752
0
LINE
8
Layer 1
10
79.898561
20
87.228752
11
81.186304
21
86.282036
0
LINE
8
Layer 1
10
81.186304
20
86.282036
11
82.782833
21
85.668909
0
LINE
8
Layer 1
10
82.782833
20
85.668909
11
84.657767
21
85.404874
0
LINE
8
Layer 1
10
84.657767
20
85.404874
11
86.076753
21
85.444970
0
LINE
8
Layer 1
10
86.076753
20
85.444970
11
87.363670
21
85.685964
0
LINE
8
Layer 1
10
87.363670
20
85.685964
11
88.527819
21
86.130335
0
LINE
8
Layer 1
10
88.527819
20
86.130335
11
89.578497
21
86.780564
0
LINE
8
Layer 1
10
89.578497
20
86.780564
11
90.234575
21
87.376432
0
LINE
8
Layer 1
10
90.234575
20
87.376432
11
90.780672
21
88.075229
0
LINE
8
Layer 1
10
90.780672
20
88.075229
11
91.522149
21
89.707204
0
LINE
8
Layer 1
10
91.522149
20
89.707204
11
91.761385
21
91.527676
0
LINE
8
Layer 1
10
91.761385
20
91.527676
11
91.456837
21
93.387834
0
LINE
8
Layer 1
10
91.456837
20
93.387834
11
90.612740
21
95.055359
0
LINE
8
Layer 1
10
90.612740
20
95.055359
11
90.025447
21
95.754879
0
LINE
8
Layer 1
10
90.025447
20
95.754879
11
89.366847
21
96.311164
0
LINE
8
Layer 1
10
89.366847
20
96.311164
11
87.534807
21
97.164355
0
LINE
8
Layer 1
10
87.534807
20
97.164355
11
85.988811
21
97.331355
0
LINE
8
Layer 1
10
85.988811
20
97.331355
11
84.413057
21
97.210652
0
LINE
8
Layer 1
10
84.413057
20
97.210652
11
83.834342
21
97.138726
0
LINE
8
Layer 1
10
83.834342
20
97.138726
11
84.823118
21
97.607485
0
LINE
8
Layer 1
10
84.823118
20
97.607485
11
86.010309
21
98.043174
0
LINE
8
Layer 1
10
86.010309
20
98.043174
11
86.721298
21
98.136595
0
LINE
8
Layer 1
10
86.721298
20
98.136595
11
88.433464
21
97.543000
0
LINE
8
Layer 1
10
88.433464
20
97.543000
11
90.974018
21
96.423605
0
LINE
8
Layer 1
10
90.974018
20
96.423605
11
92.487781
21
95.610807
0
LINE
8
Layer 1
10
92.487781
20
95.610807
11
93.840409
21
94.714226
0
LINE
8
Layer 1
10
93.840409
20
94.714226
11
95.033219
21
93.732542
0
LINE
8
Layer 1
10
95.033219
20
93.732542
11
96.067529
21
92.664440
0
LINE
8
Layer 1
10
96.067529
20
92.664440
11
96.944656
21
91.508601
0
LINE
8
Layer 1
10
96.944656
20
91.508601
11
97.665918
21
90.263707
0
LINE
8
Layer 1
10
97.665918
20
90.263707
11
98.232633
21
88.928441
0
LINE
8
Layer 1
10
98.232633
20
88.928441
11
98.646118
21
87.501485
0
LINE
8
Layer 1
10
98.646118
20
87.501485
11
98.909846
21
86.024111
0
LINE
8
Layer 1
10
98.909846
20
86.024111
11
98.970198
21
84.392965
0
LINE
8
Layer 1
10
98.970198
20
84.392965
11
98.780049
21
81.847447
0
LINE
8
Layer 1
10
98.780049
20
81.847447
11
98.083938
21
79.267205
0
LINE
8
Layer 1
10
98.083938
20
79.267205
11
97.321274
21
77.313012
0
LINE
8
Layer 1
10
97.321274
20
77.313012
11
96.476764
21
75.682482
0
LINE
8
Layer 1
10
96.476764
20
75.682482
11
95.483444
21
74.265250
0
LINE
8
Layer 1
10
95.483444
20
74.265250
11
94.274348
21
72.950945
0
LINE
8
Layer 1
10
94.274348
20
72.950945
11
93.327634
21
72.117390
0
LINE
8
Layer 1
10
93.327634
20
72.117390
11
92.380298
21
71.476050
0
LINE
8
Layer 1
10
92.380298
20
71.476050
11
91.339954
21
70.973603
0
LINE
8
Layer 1
10
91.339954
20
70.973603
11
90.114218
21
70.556725
0
LINE
8
Layer 1
10
90.114218
20
70.556725
11
88.366605
21
70.209290
0
LINE
8
Layer 1
10
88.366605
20
70.209290
11
86.827948
21
70.227684
0
LINE
8
Layer 1
10
86.827948
20
70.227684
11
85.518708
21
70.610669
0
LINE
8
Layer 1
10
85.518708
20
70.610669
11
84.459348
21
71.357004
0
LINE
8
Layer 1
10
84.459348
20
71.357004
11
83.641706
21
72.367273
0
LINE
8
Layer 1
10
83.641706
20
72.367273
11
83.496717
21
72.666551
0
LINE
8
Layer 1
10
83.496717
20
72.666551
11
83.652455
21
72.633484
0
LINE
8
Layer 1
10
83.652455
20
72.633484
11
85.226555
21
71.945640
0
LINE
8
Layer 1
10
85.226555
20
71.945640
11
86.641925
21
71.793521
0
LINE
8
Layer 1
10
86.641925
20
71.793521
11
87.877896
21
71.894383
0
LINE
8
Layer 1
10
87.877896
20
71.894383
11
88.989855
21
72.322631
0
LINE
8
Layer 1
10
88.989855
20
72.322631
11
89.925101
21
72.897832
0
LINE
8
Layer 1
10
89.925101
20
72.897832
11
90.692931
21
73.635487
0
LINE
8
Layer 1
10
90.692931
20
73.635487
11
91.287145
21
74.526914
0
LINE
8
Layer 1
10
91.287145
20
74.526914
11
91.701545
21
75.563431
0
LINE
8
Layer 1
10
91.701545
20
75.563431
11
91.917013
21
77.324274
0
LINE
8
Layer 1
10
91.917013
20
77.324274
11
91.565134
21
79.000168
0
LINE
8
Layer 1
10
91.565134
20
79.000168
11
90.696133
21
80.464004
0
LINE
8
Layer 1
10
90.696133
20
80.464004
11
90.083407
21
81.076678
0
LINE
8
Layer 1
10
90.083407
20
81.076678
11
89.360235
21
81.588671
0
LINE
8
Layer 1
10
89.360235
20
81.588671
11
87.894431
21
82.133489
0
LINE
8
Layer 1
10
87.894431
20
82.133489
11
86.106205
21
82.197148
0
LINE
8
Layer 1
10
86.106205
20
82.197148
11
85.204494
21
82.038299
0
LINE
8
Layer 1
10
85.204494
20
82.038299
11
84.360140
21
81.721259
0
LINE
8
Layer 1
10
84.360140
20
81.721259
11
83.588952
21
81.262073
0
LINE
8
Layer 1
10
83.588952
20
81.262073
11
82.906741
21
80.676783
0
LINE
8
Layer 1
10
82.906741
20
80.676783
11
82.329319
21
79.981434
0
LINE
8
Layer 1
10
82.329319
20
79.981434
11
81.872496
21
79.192070
0
LINE
8
Layer 1
10
81.872496
20
79.192070
11
81.552085
21
78.324733
0
LINE
8
Layer 1
10
81.552085
20
78.324733
11
81.383895
21
77.395468
0
LINE
8
Layer 1
10
81.383895
20
77.395468
11
81.575698
21
73.976088
0
LINE
8
Layer 1
10
81.575698
20
73.976088
11
82.120516
21
72.302777
0
LINE
8
Layer 1
10
82.120516
20
72.302777
11
83.057208
21
70.827878
0
LINE
8
Layer 1
10
83.057208
20
70.827878
11
83.833512
21
70.026771
0
LINE
8
Layer 1
10
83.833512
20
70.026771
11
84.743748
21
69.438968
0
LINE
8
Layer 1
10
84.743748
20
69.438968
11
86.034694
21
68.970106
0
LINE
8
Layer 1
10
86.034694
20
68.970106
11
87.481893
21
68.803209
0
LINE
8
Layer 1
10
87.481893
20
68.803209
11
89.092787
21
68.937656
0
LINE
8
Layer 1
10
89.092787
20
68.937656
11
90.874818
21
69.372829
0
LINE
8
Layer 1
10
90.874818
20
69.372829
11
92.687018
21
70.120197
0
LINE
8
Layer 1
10
92.687018
20
70.120197
11
93.863592
21
70.816877
0
LINE
8
Layer 1
10
93.863592
20
70.816877
11
94.976455
21
71.698020
0
LINE
8
Layer 1
10
94.976455
20
71.698020
11
96.016462
21
72.750917
0
LINE
8
Layer 1
10
96.016462
20
72.750917
11
96.974466
21
73.962856
0
LINE
8
Layer 1
10
96.974466
20
73.962856
11
97.841323
21
75.321125
0
LINE
8
Layer 1
10
97.841323
20
75.321125
11
98.607886
21
76.813012
0
LINE
8
Layer 1
10
98.607886
20
76.813012
11
99.803548
21
80.146797
0
LINE
8
Layer 1
10
99.803548
20
80.146797
11
100.001964
21
80.887552
0
LINE
8
Layer 1
10
100.001964
20
80.887552
11
100.001964
21
84.379682
0
LINE
8
Layer 1
10
100.001964
20
84.379682
11
99.909369
21
88.169432
0
LINE
8
Layer 1
10
99.909369
20
88.169432
11
99.704339
21
88.857276
0
LINE
8
Layer 1
10
99.704339
20
88.857276
11
99.043778
21
90.576060
0
LINE
8
Layer 1
10
99.043778
20
90.576060
11
98.130239
21
92.250196
0
LINE
8
Layer 1
10
98.130239
20
92.250196
11
96.477598
21
94.269084
0
LINE
8
Layer 1
10
96.477598
20
94.269084
11
94.413239
21
96.039946
0
LINE
8
Layer 1
10
94.413239
20
96.039946
11
91.966099
21
97.461926
0
LINE
8
Layer 1
10
91.966099
20
97.461926
11
91.337780
21
97.825689
0
LINE
8
Layer 1
10
91.337780
20
97.825689
11
91.456830
21
97.852145
0
LINE
8
Layer 1
10
91.456830
20
97.852145
11
91.999168
21
97.680184
0
LINE
8
Layer 1
10
91.999168
20
97.680184
11
93.355018
21
97.250282
0
LINE
8
Layer 1
10
93.355018
20
97.250282
11
94.710868
21
96.813766
0
LINE
8
Layer 1
10
94.710868
20
96.813766
11
98.546918
21
95.504216
0
LINE
8
Layer 1
10
98.546918
20
95.504216
11
99.823398
21
95.074314
0
LINE
8
Layer 1
10
99.823398
20
95.074314
11
100.001973
21
95.028016
0
LINE
8
Layer 1
10
100.001973
20
95.028016
11
100.001973
21
95.742315
0
LINE
8
Layer 1
10
100.001973
20
95.742315
11
100.001973
21
96.463228
0
LINE
8
Layer 1
10
100.001973
20
96.463228
11
99.552229
21
96.615347
0
LINE
8
Layer 1
10
99.552229
20
96.615347
11
93.553439
21
98.639197
0
LINE
8
Layer 1
10
93.553439
20
98.639197
11
89.326346
21
99.870206
0
LINE
8
Layer 1
10
89.326346
20
99.870206
11
87.936707
21
99.992461
0
LINE
8
Layer 1
10
87.936707
20
99.992461
11
85.848269
21
99.995047
0
LINE
8
Layer 1
10
85.848269
20
99.995047
11
82.905089
21
99.988434
0
LINE
8
Layer 1
10
82.905089
20
99.988434
11
81.979146
21
99.737107
0
LINE
8
Layer 1
10
81.979146
20
99.737107
11
81.979000
21
99.737200
0
LINE
8
Layer 1
10
83.863960
20
98.751732
11
83.143047
21
98.295374
0
LINE
8
Layer 1
10
83.143047
20
98.295374
11
79.201177
21
95.696124
0
LINE
8
Layer 1
10
79.201177
20
95.696124
11
76.291067
21
93.189464
0
LINE
8
Layer 1
10
76.291067
20
93.189464
11
75.285757
21
92.336273
0
LINE
8
Layer 1
10
75.285757
20
92.336273
11
74.902152
21
92.012193
0
LINE
8
Layer 1
10
74.902152
20
92.012193
11
74.829399
21
91.172230
0
LINE
8
Layer 1
10
74.829399
20
91.172230
11
74.736805
21
88.592820
0
LINE
8
Layer 1
10
74.736805
20
88.592820
11
74.574765
21
82.298889
0
LINE
8
Layer 1
10
74.574765
20
82.298889
11
74.769874
21
79.134970
0
LINE
8
Layer 1
10
74.769874
20
79.134970
11
75.431262
21
75.788350
0
LINE
8
Layer 1
10
75.431262
20
75.788350
11
78.605922
21
66.370180
0
LINE
8
Layer 1
10
78.605922
20
66.370180
11
78.883705
21
65.411167
0
LINE
8
Layer 1
10
78.883705
20
65.411167
11
77.679975
21
65.900594
0
LINE
8
Layer 1
10
77.679975
20
65.900594
11
76.555615
21
66.370179
0
LINE
8
Layer 1
10
76.555615
20
66.370179
11
72.802239
21
67.994710
0
LINE
8
Layer 1
10
72.802239
20
67.994710
11
70.159995
21
69.405949
0
LINE
8
Layer 1
10
70.159995
20
69.405949
11
68.923195
21
70.107020
0
LINE
8
Layer 1
10
68.923195
20
70.107020
11
68.386644
21
71.848950
0
LINE
8
Layer 1
10
68.386644
20
71.848950
11
67.745925
21
75.331990
0
LINE
8
Layer 1
10
67.745925
20
75.331990
11
67.621915
21
78.076750
0
LINE
8
Layer 1
10
67.621915
20
78.076750
11
67.745925
21
80.920720
0
LINE
8
Layer 1
10
67.745925
20
80.920720
11
68.076309
21
82.910258
0
LINE
8
Layer 1
10
68.076309
20
82.910258
11
68.548684
21
84.768344
0
LINE
8
Layer 1
10
68.548684
20
84.768344
11
69.188472
21
86.579305
0
LINE
8
Layer 1
10
69.188472
20
86.579305
11
70.021095
21
88.427470
0
LINE
8
Layer 1
10
70.021095
20
88.427470
11
70.970186
21
90.113388
0
LINE
8
Layer 1
10
70.970186
20
90.113388
11
72.107773
21
91.716220
0
LINE
8
Layer 1
10
72.107773
20
91.716220
11
73.443776
21
93.247128
0
LINE
8
Layer 1
10
73.443776
20
93.247128
11
74.988115
21
94.717270
0
LINE
8
Layer 1
10
74.988115
20
94.717270
11
76.285057
21
95.751617
0
LINE
8
Layer 1
10
76.285057
20
95.751617
11
77.640283
21
96.617933
0
LINE
8
Layer 1
10
77.640283
20
96.617933
11
79.119518
21
97.354037
0
LINE
8
Layer 1
10
79.119518
20
97.354037
11
80.788485
21
97.997750
0
LINE
8
Layer 1
10
80.788485
20
97.997750
11
83.665525
21
98.764960
0
LINE
8
Layer 1
10
83.665525
20
98.764960
11
83.850714
21
98.804643
0
LINE
8
Layer 1
10
83.850714
20
98.804643
11
83.863942
21
98.751732
0
LINE
8
Layer 1
10
83.863942
20
98.751732
11
83.863960
21
98.751732
0
LINE
8
Layer 1
10
87.117990
20
95.841622
11
88.155544
21
95.428255
0
LINE
8
Layer 1
10
88.155544
20
95.428255
11
89.108770
21
94.657742
0
LINE
8
Layer 1
10
89.108770
20
94.657742
11
89.724274
21
93.871518
0
LINE
8
Layer 1
10
89.724274
20
93.871518
11
90.148802
21
92.926560
0
LINE
8
Layer 1
10
90.148802
20
92.926560
11
90.362514
21
91.889833
0
LINE
8
Layer 1
10
90.362514
20
91.889833
11
90.345570
21
90.828302
0
LINE
8
Layer 1
10
90.345570
20
90.828302
11
89.998342
21
89.548000
0
LINE
8
Layer 1
10
89.998342
20
89.548000
11
89.333648
21
88.467974
0
LINE
8
Layer 1
10
89.333648
20
88.467974
11
88.381250
21
87.622328
0
LINE
8
Layer 1
10
88.381250
20
87.622328
11
87.170910
21
87.045162
0
LINE
8
Layer 1
10
87.170910
20
87.045162
11
85.193360
21
86.707854
0
LINE
8
Layer 1
10
85.193360
20
86.707854
11
83.542369
21
86.926939
0
LINE
8
Layer 1
10
83.542369
20
86.926939
11
81.945940
21
87.448609
0
LINE
8
Layer 1
10
81.945940
20
87.448609
11
81.077560
21
88.031870
0
LINE
8
Layer 1
10
81.077560
20
88.031870
11
80.385892
21
88.830909
0
LINE
8
Layer 1
10
80.385892
20
88.830909
11
79.928604
21
89.758917
0
LINE
8
Layer 1
10
79.928604
20
89.758917
11
79.763360
21
90.729089
0
LINE
8
Layer 1
10
79.763360
20
90.729089
11
79.988749
21
91.932090
0
LINE
8
Layer 1
10
79.988749
20
91.932090
11
80.609110
21
93.145633
0
LINE
8
Layer 1
10
80.609110
20
93.145633
11
81.540736
21
94.243846
0
LINE
8
Layer 1
10
81.540736
20
94.243846
11
82.699920
21
95.100859
0
LINE
8
Layer 1
10
82.699920
20
95.100859
11
83.904472
21
95.612608
0
LINE
8
Layer 1
10
83.904472
20
95.612608
11
85.153670
21
95.920980
0
LINE
8
Layer 1
10
85.153670
20
95.920980
11
86.185436
21
95.955703
0
LINE
8
Layer 1
10
86.185436
20
95.955703
11
87.117990
21
95.841613
0
LINE
8
Layer 1
10
87.117990
20
95.841613
11
87.117990
21
95.841622
0
LINE
8
Layer 1
10
87.534664
20
80.788422
11
88.752652
21
80.303542
0
LINE
8
Layer 1
10
88.752652
20
80.303542
11
89.704019
21
79.468952
0
LINE
8
Layer 1
10
89.704019
20
79.468952
11
90.323038
21
78.366499
0
LINE
8
Layer 1
10
90.323038
20
78.366499
11
90.543984
21
77.078032
0
LINE
8
Layer 1
10
90.543984
20
77.078032
11
90.418837
21
76.100623
0
LINE
8
Layer 1
10
90.418837
20
76.100623
11
90.063651
21
75.201342
0
LINE
8
Layer 1
10
90.063651
20
75.201342
11
89.493926
21
74.408711
0
LINE
8
Layer 1
10
89.493926
20
74.408711
11
88.725164
21
73.751252
0
LINE
8
Layer 1
10
88.725164
20
73.751252
11
87.701667
21
73.254384
0
LINE
8
Layer 1
10
87.701667
20
73.254384
11
86.489674
21
73.169231
0
LINE
8
Layer 1
10
86.489674
20
73.169231
11
85.223117
21
73.374261
0
LINE
8
Layer 1
10
85.223117
20
73.374261
11
84.194654
21
74.015808
0
LINE
8
Layer 1
10
84.194654
20
74.015808
11
83.462166
21
74.859079
0
LINE
8
Layer 1
10
83.462166
20
74.859079
11
82.957854
21
75.920608
0
LINE
8
Layer 1
10
82.957854
20
75.920608
11
82.784498
21
76.952541
0
LINE
8
Layer 1
10
82.784498
20
76.952541
11
82.895436
21
77.939599
0
LINE
8
Layer 1
10
82.895436
20
77.939599
11
83.255014
21
78.843725
0
LINE
8
Layer 1
10
83.255014
20
78.843725
11
83.827580
21
79.626863
0
LINE
8
Layer 1
10
83.827580
20
79.626863
11
84.577479
21
80.250958
0
LINE
8
Layer 1
10
84.577479
20
80.250958
11
85.469060
21
80.677955
0
LINE
8
Layer 1
10
85.469060
20
80.677955
11
86.466670
21
80.869796
0
LINE
8
Layer 1
10
86.466670
20
80.869796
11
87.534654
21
80.788428
0
LINE
8
Layer 1
10
87.534654
20
80.788428
11
87.534664
21
80.788422
0
LINE
8
Layer 1
10
70.695764
20
67.494522
11
73.052787
21
66.343708
0
LINE
8
Layer 1
10
73.052787
20
66.343708
11
76.853284
21
64.716692
0
LINE
8
Layer 1
10
76.853284
20
64.716692
11
78.929217
21
63.943696
0
LINE
8
Layer 1
10
78.929217
20
63.943696
11
80.027944
21
63.691542
0
LINE
8
Layer 1
10
80.027944
20
63.691542
11
81.453235
21
64.058613
0
LINE
8
Layer 1
10
81.453235
20
64.058613
11
84.128554
21
64.981252
0
LINE
8
Layer 1
10
84.128554
20
64.981252
11
88.791344
21
66.436302
0
LINE
8
Layer 1
10
88.791344
20
66.436302
11
90.563863
21
66.740540
0
LINE
8
Layer 1
10
90.563863
20
66.740540
11
92.931634
21
66.846363
0
LINE
8
Layer 1
10
92.931634
20
66.846363
11
94.901745
21
66.838922
0
LINE
8
Layer 1
10
94.901745
20
66.838922
11
95.097784
21
66.776607
0
LINE
8
Layer 1
10
95.097784
20
66.776607
11
94.862884
21
66.667788
0
LINE
8
Layer 1
10
94.862884
20
66.667788
11
94.446210
21
66.495827
0
LINE
8
Layer 1
10
94.446210
20
66.495827
11
89.141880
21
64.392617
0
LINE
8
Layer 1
10
89.141880
20
64.392617
11
86.598948
21
63.547799
0
LINE
8
Layer 1
10
86.598948
20
63.547799
11
84.215365
21
62.931777
0
LINE
8
Layer 1
10
84.215365
20
62.931777
11
81.748689
21
62.490610
0
LINE
8
Layer 1
10
81.748689
20
62.490610
11
78.956480
21
62.170357
0
LINE
8
Layer 1
10
78.956480
20
62.170357
11
77.484891
21
62.003357
0
LINE
8
Layer 1
10
77.484891
20
62.003357
11
77.045070
21
61.826435
0
LINE
8
Layer 1
10
77.045070
20
61.826435
11
76.653611
21
61.901978
0
LINE
8
Layer 1
10
76.653611
20
61.901978
11
75.833075
21
62.371253
0
LINE
8
Layer 1
10
75.833075
20
62.371253
11
73.777810
21
63.923035
0
LINE
8
Layer 1
10
73.777810
20
63.923035
11
71.707665
21
66.017153
0
LINE
8
Layer 1
10
71.707665
20
66.017153
11
70.371660
21
67.600355
0
LINE
8
Layer 1
10
70.371660
20
67.600355
11
70.695740
21
67.494533
0
LINE
8
Layer 1
10
70.695740
20
67.494533
11
70.695764
21
67.494522
0
LINE
8
Layer 1
10
54.848864
20
54.074922
11
57.816017
21
53.077878
0
LINE
8
Layer 1
10
57.816017
20
53.077878
11
60.391294
21
51.912182
0
LINE
8
Layer 1
10
60.391294
20
51.912182
11
62.650760
21
50.617513
0
LINE
8
Layer 1
10
62.650760
20
50.617513
11
64.915184
21
48.935932
0
LINE
8
Layer 1
10
64.915184
20
48.935932
11
66.720774
21
47.355212
0
LINE
8
Layer 1
10
66.720774
20
47.355212
11
66.052772
21
46.158102
0
LINE
8
Layer 1
10
66.052772
20
46.158102
11
64.584492
21
43.618372
0
LINE
8
Layer 1
10
64.584492
20
43.618372
11
63.552722
21
41.786332
0
LINE
8
Layer 1
10
63.552722
20
41.786332
11
63.294781
21
41.310133
0
LINE
8
Layer 1
10
63.294781
20
41.310133
11
63.083137
21
40.926528
0
LINE
8
Layer 1
10
63.083137
20
40.926528
11
62.481274
21
39.815398
0
LINE
8
Layer 1
10
62.481274
20
39.815398
11
61.747133
21
38.624898
0
LINE
8
Layer 1
10
61.747133
20
38.624898
11
60.503723
21
36.905288
0
LINE
8
Layer 1
10
60.503723
20
36.905288
11
58.982533
21
34.742548
0
LINE
8
Layer 1
10
58.982533
20
34.742548
11
57.739123
21
32.943568
0
LINE
8
Layer 1
10
57.739123
20
32.943568
11
57.071121
21
33.069232
0
LINE
8
Layer 1
10
57.071121
20
33.069232
11
54.630601
21
33.895967
0
LINE
8
Layer 1
10
54.630601
20
33.895967
11
51.753561
21
34.888049
0
LINE
8
Layer 1
10
51.753561
20
34.888049
11
49.504841
21
35.661873
0
LINE
8
Layer 1
10
49.504841
20
35.661873
11
45.205821
21
37.202903
0
LINE
8
Layer 1
10
45.205821
20
37.202903
11
43.267951
21
37.897360
0
LINE
8
Layer 1
10
43.267951
20
37.897360
11
43.188171
21
37.933116
0
LINE
8
Layer 1
10
43.188171
20
37.933116
11
43.229921
21
38.089163
0
LINE
8
Layer 1
10
43.229921
20
38.089163
11
43.816903
21
39.054790
0
LINE
8
Layer 1
10
43.816903
20
39.054790
11
44.557658
21
40.245290
0
LINE
8
Layer 1
10
44.557658
20
40.245290
11
47.520678
21
45.007280
0
LINE
8
Layer 1
10
47.520678
20
45.007280
11
51.164928
21
50.827490
0
LINE
8
Layer 1
10
51.164928
20
50.827490
11
52.355428
21
52.712450
0
LINE
8
Layer 1
10
52.355428
20
52.712450
11
53.294599
21
54.220410
0
LINE
8
Layer 1
10
53.294599
20
54.220410
11
53.395151
21
54.370669
0
LINE
8
Layer 1
10
53.395151
20
54.370669
11
53.593050
21
54.405599
0
LINE
8
Layer 1
10
53.593050
20
54.405599
11
54.848859
21
54.074905
0
LINE
8
Layer 1
10
54.848859
20
54.074905
11
54.848864
21
54.074922
0
LINE
8
Layer 1
10
67.812064
20
45.390902
11
68.502388
21
43.687002
0
LINE
8
Layer 1
10
68.502388
20
43.687002
11
69.048864
21
41.799562
0
LINE
8
Layer 1
10
69.048864
20
41.799562
11
69.584588
21
38.584388
0
LINE
8
Layer 1
10
69.584588
20
38.584388
11
69.544905
21
35.443622
0
LINE
8
Layer 1
10
69.544905
20
35.443622
11
69.224959
21
33.281709
0
LINE
8
Layer 1
10
69.224959
20
33.281709
11
68.532985
21
30.866822
0
LINE
8
Layer 1
10
68.532985
20
30.866822
11
67.990647
21
29.524202
0
LINE
8
Layer 1
10
67.990647
20
29.524202
11
63.923107
21
30.787452
0
LINE
8
Layer 1
10
63.923107
20
30.787452
11
60.583097
21
31.918422
0
LINE
8
Layer 1
10
60.583097
20
31.918422
11
63.466747
21
38.651352
0
LINE
8
Layer 1
10
63.466747
20
38.651352
11
65.563347
21
42.560152
0
LINE
8
Layer 1
10
65.563347
20
42.560152
11
66.469449
21
44.114412
0
LINE
8
Layer 1
10
66.469449
20
44.114412
11
67.534279
21
45.900162
0
LINE
8
Layer 1
10
67.534279
20
45.900162
11
67.812062
21
45.390893
0
LINE
8
Layer 1
10
67.812062
20
45.390893
11
67.812064
21
45.390902
0
LINE
8
Layer 1
10
39.418664
20
37.566682
11
41.065524
21
37.202919
0
LINE
8
Layer 1
10
41.065524
20
37.202919
11
40.384294
21
36.045489
0
LINE
8
Layer 1
10
40.384294
20
36.045489
11
39.643539
21
34.854989
0
LINE
8
Layer 1
10
39.643539
20
34.854989
11
38.195099
21
32.440919
0
LINE
8
Layer 1
10
38.195099
20
32.440919
11
36.357265
21
29.061223
0
LINE
8
Layer 1
10
36.357265
20
29.061223
11
35.476799
21
26.633929
0
LINE
8
Layer 1
10
35.476799
20
26.633929
11
35.113036
21
24.636539
0
LINE
8
Layer 1
10
35.113036
20
24.636539
11
35.027056
21
22.751579
0
LINE
8
Layer 1
10
35.027056
20
22.751579
11
35.179175
21
20.701279
0
LINE
8
Layer 1
10
35.179175
20
20.701279
11
35.842216
21
18.557554
0
LINE
8
Layer 1
10
35.842216
20
18.557554
11
36.812805
21
16.627129
0
LINE
8
Layer 1
10
36.812805
20
16.627129
11
37.011221
21
16.217068
0
LINE
8
Layer 1
10
37.011221
20
16.217068
11
34.656681
21
16.342732
0
LINE
8
Layer 1
10
34.656681
20
16.342732
11
32.289222
21
16.881454
0
LINE
8
Layer 1
10
32.289222
20
16.881454
11
30.191487
21
17.725861
0
LINE
8
Layer 1
10
30.191487
20
17.725861
11
28.355414
21
18.879053
0
LINE
8
Layer 1
10
28.355414
20
18.879053
11
26.772941
21
20.344132
0
LINE
8
Layer 1
10
26.772941
20
20.344132
11
25.657676
21
21.820783
0
LINE
8
Layer 1
10
25.657676
20
21.820783
11
24.854914
21
23.397263
0
LINE
8
Layer 1
10
24.854914
20
23.397263
11
24.369619
21
25.064271
0
LINE
8
Layer 1
10
24.369619
20
25.064271
11
24.206751
21
26.812502
0
LINE
8
Layer 1
10
24.206751
20
26.812502
11
24.294385
21
28.189014
0
LINE
8
Layer 1
10
24.294385
20
28.189014
11
24.610198
21
29.530802
0
LINE
8
Layer 1
10
24.610198
20
29.530802
11
25.292461
21
31.120199
0
LINE
8
Layer 1
10
25.292461
20
31.120199
11
26.318233
21
32.662473
0
LINE
8
Layer 1
10
26.318233
20
32.662473
11
27.629227
21
34.080737
0
LINE
8
Layer 1
10
27.629227
20
34.080737
11
29.167158
21
35.298102
0
LINE
8
Layer 1
10
29.167158
20
35.298102
11
30.736713
21
36.209369
0
LINE
8
Layer 1
10
30.736713
20
36.209369
11
32.437721
21
36.928421
0
LINE
8
Layer 1
10
32.437721
20
36.928421
11
34.223058
21
37.439136
0
LINE
8
Layer 1
10
34.223058
20
37.439136
11
36.045598
21
37.725392
0
LINE
8
Layer 1
10
36.045598
20
37.725392
11
39.418678
21
37.566659
0
LINE
8
Layer 1
10
39.418678
20
37.566659
11
39.418664
21
37.566682
0
LINE
8
Layer 1
10
43.036454
20
36.581214
11
44.842044
21
35.880143
0
LINE
8
Layer 1
10
44.842044
20
35.880143
11
49.008784
21
34.405243
0
LINE
8
Layer 1
10
49.008784
20
34.405243
11
52.844834
21
33.069243
0
LINE
8
Layer 1
10
52.844834
20
33.069243
11
54.299884
21
32.573202
0
LINE
8
Layer 1
10
54.299884
20
32.573202
11
56.925594
21
31.653873
0
LINE
8
Layer 1
10
56.925594
20
31.653873
11
56.641197
21
31.270268
0
LINE
8
Layer 1
10
56.641197
20
31.270268
11
56.164998
21
30.727930
0
LINE
8
Layer 1
10
56.164998
20
30.727930
11
56.012879
21
30.529514
0
LINE
8
Layer 1
10
56.012879
20
30.529514
11
55.569749
21
30.959416
0
LINE
8
Layer 1
10
55.569749
20
30.959416
11
54.626344
21
31.783153
0
LINE
8
Layer 1
10
54.626344
20
31.783153
11
53.627752
21
32.450017
0
LINE
8
Layer 1
10
53.627752
20
32.450017
11
51.026009
21
33.558666
0
LINE
8
Layer 1
10
51.026009
20
33.558666
11
48.956694
21
34.077029
0
LINE
8
Layer 1
10
48.956694
20
34.077029
11
46.773289
21
34.173757
0
LINE
8
Layer 1
10
46.773289
20
34.173757
11
44.903730
21
34.006860
0
LINE
8
Layer 1
10
44.903730
20
34.006860
11
43.210888
21
33.622325
0
LINE
8
Layer 1
10
43.210888
20
33.622325
11
41.630896
21
33.000931
0
LINE
8
Layer 1
10
41.630896
20
33.000931
11
40.099889
21
32.123457
0
LINE
8
Layer 1
10
40.099889
20
32.123457
11
39.385590
21
31.614188
0
LINE
8
Layer 1
10
39.385590
20
31.614188
11
39.279768
21
31.548049
0
LINE
8
Layer 1
10
39.279768
20
31.548049
11
39.378976
21
31.799376
0
LINE
8
Layer 1
10
39.378976
20
31.799376
11
41.707066
21
35.569286
0
LINE
8
Layer 1
10
41.707066
20
35.569286
11
42.467662
21
36.773016
0
LINE
8
Layer 1
10
42.467662
20
36.773016
11
43.036456
21
36.581213
0
LINE
8
Layer 1
10
43.036456
20
36.581213
11
43.036454
21
36.581214
0
LINE
8
Layer 1
10
59.359554
20
32.546744
11
59.219009
21
32.235891
0
LINE
8
Layer 1
10
59.219009
20
32.235891
11
59.068543
21
32.302030
0
LINE
8
Layer 1
10
59.068543
20
32.302030
11
59.207434
21
32.652566
0
LINE
8
Layer 1
10
59.207434
20
32.652566
11
59.452148
21
32.897280
0
LINE
8
Layer 1
10
59.452148
20
32.897280
11
59.359554
21
32.546744
0
LINE
8
Layer 1
10
59.359554
20
32.546744
11
59.359554
21
32.546744
0
LINE
8
Layer 1
10
48.334254
20
32.804685
11
49.685760
21
32.554598
0
LINE
8
Layer 1
10
49.685760
20
32.554598
11
51.090590
21
32.108574
0
LINE
8
Layer 1
10
51.090590
20
32.108574
11
52.443335
21
31.506299
0
LINE
8
Layer 1
10
52.443335
20
31.506299
11
53.638584
21
30.787455
0
LINE
8
Layer 1
10
53.638584
20
30.787455
11
54.663734
21
29.940878
0
LINE
8
Layer 1
10
54.663734
20
29.940878
11
55.126706
21
29.345629
0
LINE
8
Layer 1
10
55.126706
20
29.345629
11
54.273515
21
28.267569
0
LINE
8
Layer 1
10
54.273515
20
28.267569
11
50.053855
21
22.903709
0
LINE
8
Layer 1
10
50.053855
20
22.903709
11
49.723161
21
22.645768
0
LINE
8
Layer 1
10
49.723161
20
22.645768
11
49.451992
21
22.625926
0
LINE
8
Layer 1
10
49.451992
20
22.625926
11
48.261492
21
21.580936
0
LINE
8
Layer 1
10
48.261492
20
21.580936
11
46.395551
21
19.937386
0
LINE
8
Layer 1
10
46.395551
20
19.937386
11
44.524652
21
18.591466
0
LINE
8
Layer 1
10
44.524652
20
18.591466
11
42.867873
21
17.656427
0
LINE
8
Layer 1
10
42.867873
20
17.656427
11
41.072202
21
16.944606
0
LINE
8
Layer 1
10
41.072202
20
16.944606
11
38.598612
21
16.276604
0
LINE
8
Layer 1
10
38.598612
20
16.276604
11
37.533782
21
18.115264
0
LINE
8
Layer 1
10
37.533782
20
18.115264
11
36.941736
21
19.516579
0
LINE
8
Layer 1
10
36.941736
20
19.516579
11
36.542526
21
20.962539
0
LINE
8
Layer 1
10
36.542526
20
20.962539
11
36.347934
21
22.393620
0
LINE
8
Layer 1
10
36.347934
20
22.393620
11
36.369742
21
23.750294
0
LINE
8
Layer 1
10
36.369742
20
23.750294
11
36.765748
21
25.686511
0
LINE
8
Layer 1
10
36.765748
20
25.686511
11
37.593312
21
27.513594
0
LINE
8
Layer 1
10
37.593312
20
27.513594
11
38.351945
21
28.659140
0
LINE
8
Layer 1
10
38.351945
20
28.659140
11
39.247608
21
29.683773
0
LINE
8
Layer 1
10
39.247608
20
29.683773
11
40.293324
21
30.600517
0
LINE
8
Layer 1
10
40.293324
20
30.600517
11
41.502112
21
31.422394
0
LINE
8
Layer 1
10
41.502112
20
31.422394
11
43.467262
21
32.293773
0
LINE
8
Layer 1
10
43.467262
20
32.293773
11
45.576262
21
32.798084
0
LINE
8
Layer 1
10
45.576262
20
32.798084
11
48.334252
21
32.804698
0
LINE
8
Layer 1
10
48.334252
20
32.804698
11
48.334254
21
32.804685
0
LINE
8
Layer 1
10
88.447454
20
31.323175
11
89.461137
21
31.018317
0
LINE
8
Layer 1
10
89.461137
20
31.018317
11
90.331587
21
30.526204
0
LINE
8
Layer 1
10
90.331587
20
30.526204
11
91.047022
21
29.855516
0
LINE
8
Layer 1
10
91.047022
20
29.855516
11
91.595664
21
29.014935
0
LINE
8
Layer 1
10
91.595664
20
29.014935
11
91.960254
21
28.074938
0
LINE
8
Layer 1
10
91.960254
20
28.074938
11
92.071863
21
27.149825
0
LINE
8
Layer 1
10
92.071863
20
27.149825
11
91.994770
21
26.275553
0
LINE
8
Layer 1
10
91.994770
20
26.275553
11
91.757704
21
25.483127
0
LINE
8
Layer 1
10
91.757704
20
25.483127
11
91.351985
21
24.750225
0
LINE
8
Layer 1
10
91.351985
20
24.750225
11
90.768933
21
24.054525
0
LINE
8
Layer 1
10
90.768933
20
24.054525
11
89.609026
21
23.232750
0
LINE
8
Layer 1
10
89.609026
20
23.232750
11
88.156453
21
22.817725
0
LINE
8
Layer 1
10
88.156453
20
22.817725
11
86.624512
21
22.901225
0
LINE
8
Layer 1
10
86.624512
20
22.901225
11
85.147133
21
23.446044
0
LINE
8
Layer 1
10
85.147133
20
23.446044
11
84.071550
21
24.446393
0
LINE
8
Layer 1
10
84.071550
20
24.446393
11
83.328313
21
25.793974
0
LINE
8
Layer 1
10
83.328313
20
25.793974
11
83.149738
21
26.961324
0
LINE
8
Layer 1
10
83.149738
20
26.961324
11
83.229105
21
28.108834
0
LINE
8
Layer 1
10
83.229105
20
28.108834
11
83.689699
21
29.230405
0
LINE
8
Layer 1
10
83.689699
20
29.230405
11
84.423736
21
30.181460
0
LINE
8
Layer 1
10
84.423736
20
30.181460
11
85.367350
21
30.898135
0
LINE
8
Layer 1
10
85.367350
20
30.898135
11
86.456675
21
31.316564
0
LINE
8
Layer 1
10
86.456675
20
31.316564
11
87.432222
21
31.406678
0
LINE
8
Layer 1
10
87.432222
20
31.406678
11
88.447455
21
31.323178
0
LINE
8
Layer 1
10
88.447455
20
31.323178
11
88.447454
21
31.323175
0
LINE
8
Layer 1
10
58.532854
20
31.052006
11
58.731270
21
30.926342
0
LINE
8
Layer 1
10
58.731270
20
30.926342
11
58.519626
21
30.417073
0
LINE
8
Layer 1
10
58.519626
20
30.417073
11
58.043427
21
29.226573
0
LINE
8
Layer 1
10
58.043427
20
29.226573
11
57.719347
21
28.512274
0
LINE
8
Layer 1
10
57.719347
20
28.512274
11
57.011662
21
29.471287
0
LINE
8
Layer 1
10
57.011662
20
29.471287
11
58.307982
21
31.151217
0
LINE
8
Layer 1
10
58.307982
20
31.151217
11
58.532854
21
31.052009
0
LINE
8
Layer 1
10
58.532854
20
31.052009
11
58.532854
21
31.052006
0
LINE
8
Layer 1
10
61.310684
20
30.178974
11
63.294844
21
29.563883
0
LINE
8
Layer 1
10
63.294844
20
29.563883
11
64.915244
21
29.067842
0
LINE
8
Layer 1
10
64.915244
20
29.067842
11
67.415294
21
28.234493
0
LINE
8
Layer 1
10
67.415294
20
28.234493
11
66.846500
21
27.275480
0
LINE
8
Layer 1
10
66.846500
20
27.275480
11
64.602741
21
23.695719
0
LINE
8
Layer 1
10
64.602741
20
23.695719
11
63.162570
21
20.899700
0
LINE
8
Layer 1
10
63.162570
20
20.899700
11
62.665702
21
19.294180
0
LINE
8
Layer 1
10
62.665702
20
19.294180
11
62.540865
21
17.559690
0
LINE
8
Layer 1
10
62.540865
20
17.559690
11
62.649994
21
15.913661
0
LINE
8
Layer 1
10
62.649994
20
15.913661
11
63.036906
21
14.471010
0
LINE
8
Layer 1
10
63.036906
20
14.471010
11
63.720100
21
13.062977
0
LINE
8
Layer 1
10
63.720100
20
13.062977
11
64.658135
21
11.818016
0
LINE
8
Layer 1
10
64.658135
20
11.818016
11
65.805745
21
10.785112
0
LINE
8
Layer 1
10
65.805745
20
10.785112
11
67.117666
21
10.013250
0
LINE
8
Layer 1
10
67.117666
20
10.013250
11
67.527727
21
9.788378
0
LINE
8
Layer 1
10
67.527727
20
9.788378
11
66.238017
21
9.669328
0
LINE
8
Layer 1
10
66.238017
20
9.669328
11
61.352841
21
9.150138
0
LINE
8
Layer 1
10
61.352841
20
9.150138
11
56.323807
21
8.293638
0
LINE
8
Layer 1
10
56.323807
20
8.293638
11
55.715330
21
8.214271
0
LINE
8
Layer 1
10
55.715330
20
8.214271
11
56.019569
21
8.492054
0
LINE
8
Layer 1
10
56.019569
20
8.492054
11
57.592019
21
9.824750
0
LINE
8
Layer 1
10
57.592019
20
9.824750
11
58.896609
21
11.375704
0
LINE
8
Layer 1
10
58.896609
20
11.375704
11
59.797751
21
12.997757
0
LINE
8
Layer 1
10
59.797751
20
12.997757
11
60.470709
21
14.748784
0
LINE
8
Layer 1
10
60.470709
20
14.748784
11
60.984111
21
17.504293
0
LINE
8
Layer 1
10
60.984111
20
17.504293
11
60.946908
21
20.185394
0
LINE
8
Layer 1
10
60.946908
20
20.185394
11
60.665611
21
21.825328
0
LINE
8
Layer 1
10
60.665611
20
21.825328
11
60.268985
21
23.289784
0
LINE
8
Layer 1
10
60.268985
20
23.289784
11
59.713625
21
24.708355
0
LINE
8
Layer 1
10
59.713625
20
24.708355
11
58.956128
21
26.210634
0
LINE
8
Layer 1
10
58.956128
20
26.210634
11
58.585751
21
27.070438
0
LINE
8
Layer 1
10
58.585751
20
27.070438
11
59.326506
21
28.849568
0
LINE
8
Layer 1
10
59.326506
20
28.849568
11
59.936637
21
30.332729
0
LINE
8
Layer 1
10
59.936637
20
30.332729
11
60.064987
21
30.510685
0
LINE
8
Layer 1
10
60.064987
20
30.510685
11
60.179697
21
30.516268
0
LINE
8
Layer 1
10
60.179697
20
30.516268
11
61.310667
21
30.178960
0
LINE
8
Layer 1
10
61.310667
20
30.178960
11
61.310684
21
30.178974
0
LINE
8
Layer 1
10
56.330434
20
28.062534
11
56.806633
21
27.401146
0
LINE
8
Layer 1
10
56.806633
20
27.401146
11
57.091030
21
26.997699
0
LINE
8
Layer 1
10
57.091030
20
26.997699
11
56.251067
21
25.053219
0
LINE
8
Layer 1
10
56.251067
20
25.053219
11
54.797668
21
21.962884
0
LINE
8
Layer 1
10
54.797668
20
21.962884
11
53.433557
21
19.973759
0
LINE
8
Layer 1
10
53.433557
20
19.973759
11
51.470062
21
17.986290
0
LINE
8
Layer 1
10
51.470062
20
17.986290
11
48.678177
21
15.859929
0
LINE
8
Layer 1
10
48.678177
20
15.859929
11
45.225727
21
13.769939
0
LINE
8
Layer 1
10
45.225727
20
13.769939
11
45.338163
21
14.021266
0
LINE
8
Layer 1
10
45.338163
20
14.021266
11
49.981103
21
20.496256
0
LINE
8
Layer 1
10
49.981103
20
20.496256
11
53.956043
21
25.688156
0
LINE
8
Layer 1
10
53.956043
20
25.688156
11
55.860843
21
28.095606
0
LINE
8
Layer 1
10
55.860843
20
28.095606
11
56.085715
21
28.307250
0
LINE
8
Layer 1
10
56.085715
20
28.307250
11
56.330429
21
28.062536
0
LINE
8
Layer 1
10
56.330429
20
28.062536
11
56.330434
21
28.062534
0
LINE
8
Layer 1
10
70.074034
20
27.487126
11
71.620027
21
27.050610
0
LINE
8
Layer 1
10
71.620027
20
27.050610
11
71.725849
21
26.996045
0
LINE
8
Layer 1
10
71.725849
20
26.996045
11
71.628294
21
26.971243
0
LINE
8
Layer 1
10
71.628294
20
26.971243
11
70.999975
21
26.858807
0
LINE
8
Layer 1
10
70.999975
20
26.858807
11
69.728458
21
26.520672
0
LINE
8
Layer 1
10
69.728458
20
26.520672
11
68.208915
21
25.860111
0
LINE
8
Layer 1
10
68.208915
20
25.860111
11
67.196995
21
25.370684
0
LINE
8
Layer 1
10
67.196995
20
25.370684
11
67.613669
21
25.972547
0
LINE
8
Layer 1
10
67.613669
20
25.972547
11
68.638819
21
27.566497
0
LINE
8
Layer 1
10
68.638819
20
27.566497
11
68.876919
21
27.824438
0
LINE
8
Layer 1
10
68.876919
20
27.824438
11
70.074029
21
27.487130
0
LINE
8
Layer 1
10
70.074029
20
27.487130
11
70.074034
21
27.487126
0
LINE
8
Layer 1
10
74.121724
20
25.688146
11
76.107127
21
25.167717
0
LINE
8
Layer 1
10
76.107127
20
25.167717
11
77.837069
21
24.243014
0
LINE
8
Layer 1
10
77.837069
20
24.243014
11
79.266906
21
22.946280
0
LINE
8
Layer 1
10
79.266906
20
22.946280
11
80.351994
21
21.309756
0
LINE
8
Layer 1
10
80.351994
20
21.309756
11
80.817446
21
20.124220
0
LINE
8
Layer 1
10
80.817446
20
20.124220
11
81.119204
21
18.869236
0
LINE
8
Layer 1
10
81.119204
20
18.869236
11
81.159714
21
16.730785
0
LINE
8
Layer 1
10
81.159714
20
16.730785
11
80.961091
21
15.747087
0
LINE
8
Layer 1
10
80.961091
20
15.747087
11
80.619856
21
14.827332
0
LINE
8
Layer 1
10
80.619856
20
14.827332
11
80.138490
21
13.976713
0
LINE
8
Layer 1
10
80.138490
20
13.976713
11
79.519472
21
13.200421
0
LINE
8
Layer 1
10
79.519472
20
13.200421
11
77.878404
21
11.891596
0
LINE
8
Layer 1
10
77.878404
20
11.891596
11
76.487524
21
11.176675
0
LINE
8
Layer 1
10
76.487524
20
11.176675
11
75.065023
21
10.681253
0
LINE
8
Layer 1
10
75.065023
20
10.681253
11
73.569357
21
10.394170
0
LINE
8
Layer 1
10
73.569357
20
10.394170
11
71.958984
21
10.304266
0
LINE
8
Layer 1
10
71.958984
20
10.304266
11
70.289496
21
10.428793
0
LINE
8
Layer 1
10
70.289496
20
10.428793
11
68.762000
21
10.789559
0
LINE
8
Layer 1
10
68.762000
20
10.789559
11
67.389517
21
11.382224
0
LINE
8
Layer 1
10
67.389517
20
11.382224
11
66.185064
21
12.202446
0
LINE
8
Layer 1
10
66.185064
20
12.202446
11
65.501844
21
12.891439
0
LINE
8
Layer 1
10
65.501844
20
12.891439
11
64.925739
21
13.708860
0
LINE
8
Layer 1
10
64.925739
20
13.708860
11
64.126492
21
15.612727
0
LINE
8
Layer 1
10
64.126492
20
15.612727
11
63.850568
21
17.681529
0
LINE
8
Layer 1
10
63.850568
20
17.681529
11
63.928617
21
18.705118
0
LINE
8
Layer 1
10
63.928617
20
18.705118
11
64.161214
21
19.682746
0
LINE
8
Layer 1
10
64.161214
20
19.682746
11
64.743545
21
20.867353
0
LINE
8
Layer 1
10
64.743545
20
20.867353
11
65.689846
21
22.105905
0
LINE
8
Layer 1
10
65.689846
20
22.105905
11
66.915171
21
23.303535
0
LINE
8
Layer 1
10
66.915171
20
23.303535
11
68.334574
21
24.365376
0
LINE
8
Layer 1
10
68.334574
20
24.365376
11
69.969855
21
25.197071
0
LINE
8
Layer 1
10
69.969855
20
25.197071
11
71.793634
21
25.661696
0
LINE
8
Layer 1
10
71.793634
20
25.661696
11
73.007283
21
25.781572
0
LINE
8
Layer 1
10
73.007283
20
25.781572
11
74.121724
21
25.688151
0
LINE
8
Layer 1
10
74.121724
20
25.688151
11
74.121724
21
25.688146
0
LINE
8
Layer 1
10
58.281524
20
24.524106
11
59.224828
21
22.026537
0
LINE
8
Layer 1
10
59.224828
20
22.026537
11
59.657214
21
19.285916
0
LINE
8
Layer 1
10
59.657214
20
19.285916
11
59.666721
21
17.706337
0
LINE
8
Layer 1
10
59.666721
20
17.706337
11
59.460451
21
16.188141
0
LINE
8
Layer 1
10
59.460451
20
16.188141
11
59.028482
21
14.681105
0
LINE
8
Layer 1
10
59.028482
20
14.681105
11
58.360894
21
13.135006
0
LINE
8
Layer 1
10
58.360894
20
13.135006
11
57.386277
21
11.626526
0
LINE
8
Layer 1
10
57.386277
20
11.626526
11
56.104735
21
10.303440
0
LINE
8
Layer 1
10
56.104735
20
10.303440
11
54.598735
21
9.237054
0
LINE
8
Layer 1
10
54.598735
20
9.237054
11
52.950744
21
8.498676
0
LINE
8
Layer 1
10
52.950744
20
8.498676
11
52.454703
21
8.333329
0
LINE
8
Layer 1
10
52.454703
20
8.333329
11
52.004959
21
8.472220
0
LINE
8
Layer 1
10
52.004959
20
8.472220
11
46.457569
21
10.296000
0
LINE
8
Layer 1
10
46.457569
20
10.296000
11
43.757449
21
11.435240
0
LINE
8
Layer 1
10
43.757449
20
11.435240
11
44.299787
21
11.765934
0
LINE
8
Layer 1
10
44.299787
20
11.765934
11
46.969315
21
13.226775
0
LINE
8
Layer 1
10
46.969315
20
13.226775
11
49.504907
21
14.801704
0
LINE
8
Layer 1
10
49.504907
20
14.801704
11
51.620523
21
16.334471
0
LINE
8
Layer 1
10
51.620523
20
16.334471
11
53.195457
21
17.718424
0
LINE
8
Layer 1
10
53.195457
20
17.718424
11
54.417266
21
19.019810
0
LINE
8
Layer 1
10
54.417266
20
19.019810
11
55.425158
21
20.386300
0
LINE
8
Layer 1
10
55.425158
20
20.386300
11
56.354925
21
22.029333
0
LINE
8
Layer 1
10
56.354925
20
22.029333
11
57.342357
21
24.160344
0
LINE
8
Layer 1
10
57.342357
20
24.160344
11
57.871467
21
25.264864
0
LINE
8
Layer 1
10
57.871467
20
25.264864
11
58.281528
21
24.524109
0
LINE
8
Layer 1
10
58.281528
20
24.524109
11
58.281524
21
24.524106
0
LINE
8
Layer 1
10
46.951924
20
18.525316
11
45.741584
21
16.891686
0
LINE
8
Layer 1
10
45.741584
20
16.891686
11
43.208464
21
13.386326
0
LINE
8
Layer 1
10
43.208464
20
13.386326
11
42.646284
21
12.619116
0
LINE
8
Layer 1
10
42.646284
20
12.619116
11
42.494165
21
12.433927
0
LINE
8
Layer 1
10
42.494165
20
12.433927
11
42.209768
21
12.632343
0
LINE
8
Layer 1
10
42.209768
20
12.632343
11
40.585234
21
13.967520
0
LINE
8
Layer 1
10
40.585234
20
13.967520
11
39.550988
21
15.039793
0
LINE
8
Layer 1
10
39.550988
20
15.039793
11
40.364495
21
15.337418
0
LINE
8
Layer 1
10
40.364495
20
15.337418
11
43.552385
21
16.521298
0
LINE
8
Layer 1
10
43.552385
20
16.521298
11
46.561705
21
18.346728
0
LINE
8
Layer 1
10
46.561705
20
18.346728
11
46.955231
21
18.631951
0
LINE
8
Layer 1
10
46.955231
20
18.631951
11
46.951924
21
18.525303
0
LINE
8
Layer 1
10
46.951924
20
18.525303
11
46.951924
21
18.525316
0
LINE
8
Layer 1
10
42.414804
20
10.641576
11
45.133104
21
9.318796
0
LINE
8
Layer 1
10
45.133104
20
9.318796
11
45.483640
21
9.153449
0
LINE
8
Layer 1
10
45.483640
20
9.153449
11
44.504786
21
9.206360
0
LINE
8
Layer 1
10
44.504786
20
9.206360
11
40.815065
21
9.268365
0
LINE
8
Layer 1
10
40.815065
20
9.268365
11
37.348566
21
9.087310
0
LINE
8
Layer 1
10
37.348566
20
9.087310
11
37.050115
21
9.114592
0
LINE
8
Layer 1
10
37.050115
20
9.114592
11
37.520527
21
9.305568
0
LINE
8
Layer 1
10
37.520527
20
9.305568
11
41.760027
21
10.754008
0
LINE
8
Layer 1
10
41.760027
20
10.754008
11
42.017969
21
10.834201
0
LINE
8
Layer 1
10
42.017969
20
10.834201
11
42.414801
21
10.641572
0
LINE
8
Layer 1
10
42.414801
20
10.641572
11
42.414804
21
10.641576
0
LINE
8
Layer 1
10
73.235504
20
8.280416
11
72.091304
21
7.612414
0
LINE
8
Layer 1
10
72.091304
20
7.612414
11
66.667924
21
4.398064
0
LINE
8
Layer 1
10
66.667924
20
4.398064
11
64.042214
21
2.797504
0
LINE
8
Layer 1
10
64.042214
20
2.797504
11
63.308073
21
2.380830
0
LINE
8
Layer 1
10
63.308073
20
2.380830
11
61.839793
21
3.253862
0
LINE
8
Layer 1
10
61.839793
20
3.253862
11
57.441563
21
5.965552
0
LINE
8
Layer 1
10
57.441563
20
5.965552
11
56.098943
21
6.805515
0
LINE
8
Layer 1
10
56.098943
20
6.805515
11
56.330429
21
6.904723
0
LINE
8
Layer 1
10
56.330429
20
6.904723
11
57.309283
21
7.109753
0
LINE
8
Layer 1
10
57.309283
20
7.109753
11
61.083327
21
7.773622
0
LINE
8
Layer 1
10
61.083327
20
7.773622
11
65.080593
21
8.234113
0
LINE
8
Layer 1
10
65.080593
20
8.234113
11
70.391543
21
8.373004
0
LINE
8
Layer 1
10
70.391543
20
8.373004
11
72.778328
21
8.351509
0
LINE
8
Layer 1
10
72.778328
20
8.351509
11
73.235513
21
8.280410
0
LINE
8
Layer 1
10
73.235513
20
8.280410
11
73.235504
21
8.280416
0
LINE
8
Layer 1
10
26.819304
20
7.493364
11
26.854854
21
7.456678
0
LINE
8
Layer 1
10
26.854854
20
7.456678
11
26.607660
21
7.368527
0
LINE
8
Layer 1
10
26.607660
20
7.368527
11
24.272964
21
6.752609
0
LINE
8
Layer 1
10
24.272964
20
6.752609
11
21.197514
21
5.945716
0
LINE
8
Layer 1
10
21.197514
20
5.945716
11
19.742464
21
5.601794
0
LINE
8
Layer 1
10
19.742464
20
5.601794
11
17.328394
21
6.163974
0
LINE
8
Layer 1
10
17.328394
20
6.163974
11
14.451354
21
6.878273
0
LINE
8
Layer 1
10
14.451354
20
6.878273
11
12.467194
21
7.380928
0
LINE
8
Layer 1
10
12.467194
20
7.380928
11
14.309162
21
7.432186
0
LINE
8
Layer 1
10
14.309162
20
7.432186
11
19.345634
21
7.473522
0
LINE
8
Layer 1
10
19.345634
20
7.473522
11
26.567994
21
7.526433
0
LINE
8
Layer 1
10
26.567994
20
7.526433
11
26.819321
21
7.493364
0
LINE
8
Layer 1
10
26.819321
20
7.493364
11
26.819304
21
7.493364
0
LINE
8
Layer 1
10
55.192800
20
77.078000
11
53.018486
21
76.524914
0
LINE
8
Layer 1
10
53.018486
20
76.524914
11
51.131880
21
75.530350
0
LINE
8
Layer 1
10
51.131880
20
75.530350
11
49.796393
21
74.406198
0
LINE
8
Layer 1
10
49.796393
20
74.406198
11
48.721947
21
73.060066
0
LINE
8
Layer 1
10
48.721947
20
73.060066
11
47.931486
21
71.525439
0
LINE
8
Layer 1
10
47.931486
20
71.525439
11
47.447950
21
69.835800
0
LINE
8
Layer 1
10
47.447950
20
69.835800
11
47.328900
21
68.169102
0
LINE
8
Layer 1
10
47.328900
20
68.169102
11
47.447950
21
66.601610
0
LINE
8
Layer 1
10
47.447950
20
66.601610
11
47.771694
21
65.472018
0
LINE
8
Layer 1
10
47.771694
20
65.472018
11
48.238515
21
64.404044
0
LINE
8
Layer 1
10
48.238515
20
64.404044
11
49.551164
21
62.508444
0
LINE
8
Layer 1
10
49.551164
20
62.508444
11
50.371880
21
61.708565
0
LINE
8
Layer 1
10
50.371880
20
61.708565
11
51.285448
21
61.025799
0
LINE
8
Layer 1
10
51.285448
20
61.025799
11
52.279314
21
60.474020
0
LINE
8
Layer 1
10
52.279314
20
60.474020
11
53.340920
21
60.067100
0
LINE
8
Layer 1
10
53.340920
20
60.067100
11
54.807547
21
59.708297
0
LINE
8
Layer 1
10
54.807547
20
59.708297
11
56.383300
21
59.637198
0
LINE
8
Layer 1
10
56.383300
20
59.637198
11
57.934255
21
59.714084
0
LINE
8
Layer 1
10
57.934255
20
59.714084
11
59.227270
21
60.034031
0
LINE
8
Layer 1
10
59.227270
20
60.034031
11
61.568580
21
61.138551
0
LINE
8
Layer 1
10
61.568580
20
61.138551
11
63.007924
21
62.386921
0
LINE
8
Layer 1
10
63.007924
20
62.386921
11
64.214130
21
63.942841
0
LINE
8
Layer 1
10
64.214130
20
63.942841
11
64.692189
21
64.908570
0
LINE
8
Layer 1
10
64.692189
20
64.908570
11
65.047477
21
65.979089
0
LINE
8
Layer 1
10
65.047477
20
65.979089
11
65.345100
21
68.248481
0
LINE
8
Layer 1
10
65.345100
20
68.248481
11
65.259907
21
69.486465
0
LINE
8
Layer 1
10
65.259907
20
69.486465
11
65.010789
21
70.684456
0
LINE
8
Layer 1
10
65.010789
20
70.684456
11
64.607432
21
71.826021
0
LINE
8
Layer 1
10
64.607432
20
71.826021
11
64.059526
21
72.894731
0
LINE
8
Layer 1
10
64.059526
20
72.894731
11
63.376760
21
73.874153
0
LINE
8
Layer 1
10
63.376760
20
73.874153
11
62.568821
21
74.747856
0
LINE
8
Layer 1
10
62.568821
20
74.747856
11
61.645398
21
75.499409
0
LINE
8
Layer 1
10
61.645398
20
75.499409
11
60.616180
21
76.112381
0
LINE
8
Layer 1
10
60.616180
20
76.112381
11
58.695676
21
76.856443
0
LINE
8
Layer 1
10
58.695676
20
76.856443
11
56.581710
21
77.084621
0
LINE
8
Layer 1
10
56.581710
20
77.084621
11
55.192800
21
77.078007
0
LINE
8
Layer 1
10
55.192800
20
77.078007
11
55.192800
21
77.078000
0
LINE
8
Layer 1
10
57.375380
20
75.728770
11
58.866811
21
75.358393
0
LINE
8
Layer 1
10
58.866811
20
75.358393
11
60.219350
21
74.749916
0
LINE
8
Layer 1
10
60.219350
20
74.749916
11
62.124150
21
73.189036
0
LINE
8
Layer 1
10
62.124150
20
73.189036
11
63.193014
21
71.582176
0
LINE
8
Layer 1
10
63.193014
20
71.582176
11
63.824742
21
69.808520
0
LINE
8
Layer 1
10
63.824742
20
69.808520
11
63.996395
21
67.974097
0
LINE
8
Layer 1
10
63.996395
20
67.974097
11
63.685030
21
66.184936
0
LINE
8
Layer 1
10
63.685030
20
66.184936
11
62.919887
21
64.538492
0
LINE
8
Layer 1
10
62.919887
20
64.538492
11
61.805035
21
63.132630
0
LINE
8
Layer 1
10
61.805035
20
63.132630
11
60.399998
21
62.029353
0
LINE
8
Layer 1
10
60.399998
20
62.029353
11
58.764300
21
61.290666
0
LINE
8
Layer 1
10
58.764300
20
61.290666
11
57.039731
21
60.978780
0
LINE
8
Layer 1
10
57.039731
20
60.978780
11
55.235795
21
61.042645
0
LINE
8
Layer 1
10
55.235795
20
61.042645
11
53.496344
21
61.463660
0
LINE
8
Layer 1
10
53.496344
20
61.463660
11
51.965230
21
62.223223
0
LINE
8
Layer 1
10
51.965230
20
62.223223
11
50.924058
21
63.069490
0
LINE
8
Layer 1
10
50.924058
20
63.069490
11
50.039761
21
64.102392
0
LINE
8
Layer 1
10
50.039761
20
64.102392
11
49.352641
21
65.265505
0
LINE
8
Layer 1
10
49.352641
20
65.265505
11
48.903000
21
66.502403
0
LINE
8
Layer 1
10
48.903000
20
66.502403
11
48.690736
21
68.078882
0
LINE
8
Layer 1
10
48.690736
20
68.078882
11
48.817020
21
69.674583
0
LINE
8
Layer 1
10
48.817020
20
69.674583
11
49.265732
21
71.202079
0
LINE
8
Layer 1
10
49.265732
20
71.202079
11
50.020750
21
72.573943
0
LINE
8
Layer 1
10
50.020750
20
72.573943
11
50.885514
21
73.528822
0
LINE
8
Layer 1
10
50.885514
20
73.528822
11
51.918930
21
74.419213
0
LINE
8
Layer 1
10
51.918930
20
74.419213
11
53.138882
21
75.106540
0
LINE
8
Layer 1
10
53.138882
20
75.106540
11
54.515706
21
75.567548
0
LINE
8
Layer 1
10
54.515706
20
75.567548
11
55.958255
21
75.781776
0
LINE
8
Layer 1
10
55.958255
20
75.781776
11
57.375380
21
75.728763
0
LINE
8
Layer 1
10
57.375380
20
75.728763
11
57.375380
21
75.728770
 0 
ENDSEC
 0 
EOF