999
"DXF R12 Output" (www.mydxf.blogspot.com)
 0 
SECTION
 2 
HEADER
 9 
$ACADVER
 1 
AC1009
 9 
$EXTMIN
 10 
 0 
 20 
 0 
 9 
$EXTMAX
 10 
 8.5 
 20 
 11 
 0 
ENDSEC
 0 
SECTION
 2 
ENTITIES
0
LINE
8
Layer 1
10
26.378900
20
20.452200
11
79.454200
21
20.452200
0
LINE
8
Layer 1
10
79.454200
20
20.452200
11
85.561923
21
20.471630
0
LINE
8
Layer 1
10
85.561923
20
20.471630
11
85.637202
21
20.476197
0
LINE
8
Layer 1
10
85.637202
20
20.476197
11
85.158949
21
20.480570
0
LINE
8
Layer 1
10
85.158949
20
20.480570
11
82.596111
21
20.488580
0
LINE
8
Layer 1
10
82.596111
20
20.488580
11
52.916500
21
20.505117
0
LINE
8
Layer 1
10
52.916500
20
20.505117
11
23.236900
21
20.488580
0
LINE
8
Layer 1
10
23.236900
20
20.488580
11
20.674059
21
20.480570
0
LINE
8
Layer 1
10
20.674059
20
20.480570
11
20.195804
21
20.476197
0
LINE
8
Layer 1
10
20.195804
20
20.476197
11
20.271081
21
20.471630
0
LINE
8
Layer 1
10
20.271081
20
20.471630
11
26.378800
21
20.452200
0
LINE
8
Layer 1
10
26.378800
20
20.452200
11
26.378900
21
20.452200
0
LINE
8
Layer 1
10
86.518600
20
3.492400
11
86.628981
21
0.785797
0
LINE
8
Layer 1
10
86.628981
20
0.785797
11
86.885709
21
-0.201842
0
LINE
8
Layer 1
10
86.885709
20
-0.201842
11
87.034072
21
-0.037873
0
LINE
8
Layer 1
10
87.034072
20
-0.037873
11
87.177164
21
0.571651
0
LINE
8
Layer 1
10
87.177164
20
0.571651
11
87.391724
21
3.148442
0
LINE
8
Layer 1
10
87.391724
20
3.148442
11
87.444641
21
4.868232
0
LINE
8
Layer 1
10
87.444641
20
4.868232
11
89.878801
21
2.090112
0
LINE
8
Layer 1
10
89.878801
20
2.090112
11
92.294362
21
-0.892236
0
LINE
8
Layer 1
10
92.294362
20
-0.892236
11
93.144180
21
-2.228692
0
LINE
8
Layer 1
10
93.144180
20
-2.228692
11
93.784709
21
-3.532282
0
LINE
8
Layer 1
10
93.784709
20
-3.532282
11
94.237963
21
-4.855716
0
LINE
8
Layer 1
10
94.237963
20
-4.855716
11
94.525955
21
-6.251705
0
LINE
8
Layer 1
10
94.525955
20
-6.251705
11
94.694211
21
-9.472188
0
LINE
8
Layer 1
10
94.694211
20
-9.472188
11
94.641294
21
-12.197388
0
LINE
8
Layer 1
10
94.641294
20
-12.197388
11
97.128374
21
-13.335098
0
LINE
8
Layer 1
10
97.128374
20
-13.335098
11
99.281417
21
-14.394672
0
LINE
8
Layer 1
10
99.281417
20
-14.394672
11
101.335244
21
-15.580748
0
LINE
8
Layer 1
10
101.335244
20
-15.580748
11
103.170791
21
-16.821394
0
LINE
8
Layer 1
10
103.170791
20
-16.821394
11
104.668994
21
-18.044678
0
LINE
8
Layer 1
10
104.668994
20
-18.044678
11
105.886074
21
-19.155928
0
LINE
8
Layer 1
10
105.886074
20
-19.155928
11
105.780241
21
-18.388637
0
LINE
8
Layer 1
10
105.780241
20
-18.388637
11
105.613533
21
-17.935746
0
LINE
8
Layer 1
10
105.613533
20
-17.935746
11
105.205600
21
-17.399759
0
LINE
8
Layer 1
10
105.205600
20
-17.399759
11
103.742951
21
-16.133068
0
LINE
8
Layer 1
10
103.742951
20
-16.133068
11
101.546085
21
-14.697705
0
LINE
8
Layer 1
10
101.546085
20
-14.697705
11
98.768791
21
-13.202807
0
LINE
8
Layer 1
10
98.768791
20
-13.202807
11
95.514421
21
-11.615307
0
LINE
8
Layer 1
10
95.514421
20
-11.615307
11
95.514421
21
-9.181147
0
LINE
8
Layer 1
10
95.514421
20
-9.181147
11
95.283738
21
-5.870553
0
LINE
8
Layer 1
10
95.283738
20
-5.870553
11
94.959107
21
-4.429818
0
LINE
8
Layer 1
10
94.959107
20
-4.429818
11
94.462705
21
-3.056056
0
LINE
8
Layer 1
10
94.462705
20
-3.056056
11
93.770345
21
-1.692218
0
LINE
8
Layer 1
10
93.770345
20
-1.692218
11
92.857845
21
-0.281254
0
LINE
8
Layer 1
10
92.857845
20
-0.281254
11
90.275681
21
2.910253
0
LINE
8
Layer 1
10
90.275681
20
2.910253
11
87.947352
21
5.561045
0
LINE
8
Layer 1
10
87.947352
20
5.561045
11
87.273079
21
6.238419
0
LINE
8
Layer 1
10
87.273079
20
6.238419
11
86.849332
21
6.495353
0
LINE
8
Layer 1
10
86.849332
20
6.495353
11
86.619062
21
6.340531
0
LINE
8
Layer 1
10
86.619062
20
6.340531
11
86.525216
21
5.782632
0
LINE
8
Layer 1
10
86.525216
20
5.782632
11
86.518601
21
3.492336
0
LINE
8
Layer 1
10
86.518601
20
3.492336
11
86.518600
21
3.492400
0
LINE
8
Layer 1
10
81.491600
20
3.624690
11
81.402303
21
1.693235
0
LINE
8
Layer 1
10
81.402303
20
1.693235
11
81.234872
21
1.347625
0
LINE
8
Layer 1
10
81.234872
20
1.347625
11
80.935976
21
1.190530
0
LINE
8
Layer 1
10
80.935976
20
1.190530
11
80.164965
21
0.756449
0
LINE
8
Layer 1
10
80.164965
20
0.756449
11
79.252568
21
-0.019936
0
LINE
8
Layer 1
10
79.252568
20
-0.019936
11
78.394739
21
-0.945151
0
LINE
8
Layer 1
10
78.394739
20
-0.945151
11
77.787436
21
-1.825720
0
LINE
8
Layer 1
10
77.787436
20
-1.825720
11
77.092907
21
-2.844362
0
LINE
8
Layer 1
10
77.092907
20
-2.844362
11
76.120566
21
-3.942380
0
LINE
8
Layer 1
10
76.120566
20
-3.942380
11
75.161450
21
-5.010632
0
LINE
8
Layer 1
10
75.161450
20
-5.010632
11
75.115975
21
-5.330200
0
LINE
8
Layer 1
10
75.115975
20
-5.330200
11
75.273900
21
-5.662170
0
LINE
8
Layer 1
10
75.273900
20
-5.662170
11
75.803066
21
-7.143830
0
LINE
8
Layer 1
10
75.803066
20
-7.143830
11
76.353317
21
-8.586635
0
LINE
8
Layer 1
10
76.353317
20
-8.586635
11
77.367415
21
-9.776431
0
LINE
8
Layer 1
10
77.367415
20
-9.776431
11
78.842878
21
-10.708259
0
LINE
8
Layer 1
10
78.842878
20
-10.708259
11
80.777226
21
-11.377160
0
LINE
8
Layer 1
10
80.777226
20
-11.377160
11
81.716496
21
-11.740962
0
LINE
8
Layer 1
10
81.716496
20
-11.740962
11
82.020766
21
-12.144451
0
LINE
8
Layer 1
10
82.020766
20
-12.144451
11
80.168686
21
-18.732571
0
LINE
8
Layer 1
10
80.168686
20
-18.732571
11
78.343066
21
-24.870901
0
LINE
8
Layer 1
10
78.343066
20
-24.870901
11
80.221606
21
-28.389851
0
LINE
8
Layer 1
10
80.221606
20
-28.389851
11
83.571886
21
-35.087124
0
LINE
8
Layer 1
10
83.571886
20
-35.087124
11
85.830766
21
-40.137351
0
LINE
8
Layer 1
10
85.830766
20
-40.137351
11
85.853917
21
-40.769044
0
LINE
8
Layer 1
10
85.853917
20
-40.769044
11
85.619100
21
-41.460271
0
LINE
8
Layer 1
10
85.619100
20
-41.460271
11
85.361132
21
-41.877816
0
LINE
8
Layer 1
10
85.361132
20
-41.877816
11
85.003945
21
-42.101885
0
LINE
8
Layer 1
10
85.003945
20
-42.101885
11
83.158480
21
-42.227562
0
LINE
8
Layer 1
10
83.158480
20
-42.227562
11
81.212140
21
-42.415251
0
LINE
8
Layer 1
10
81.212140
20
-42.415251
11
79.871036
21
-42.955165
0
LINE
8
Layer 1
10
79.871036
20
-42.955165
11
79.415045
21
-43.364959
0
LINE
8
Layer 1
10
79.415045
20
-43.364959
11
79.095479
21
-43.872111
0
LINE
8
Layer 1
10
79.095479
20
-43.872111
11
78.845780
21
-45.190892
0
LINE
8
Layer 1
10
78.845780
20
-45.190892
11
79.141369
21
-46.250878
0
LINE
8
Layer 1
10
79.141369
20
-46.250878
11
79.900805
21
-47.142191
0
LINE
8
Layer 1
10
79.900805
20
-47.142191
11
80.933091
21
-47.706081
0
LINE
8
Layer 1
10
80.933091
20
-47.706081
11
82.047230
21
-47.783802
0
LINE
8
Layer 1
10
82.047230
20
-47.783802
11
82.817001
21
-47.896250
0
LINE
8
Layer 1
10
82.817001
20
-47.896250
11
83.581812
21
-48.405573
0
LINE
8
Layer 1
10
83.581812
20
-48.405573
11
84.168029
21
-49.153020
0
LINE
8
Layer 1
10
84.168029
20
-49.153020
11
84.402020
21
-49.979842
0
LINE
8
Layer 1
10
84.402020
20
-49.979842
11
84.615340
21
-50.715713
0
LINE
8
Layer 1
10
84.615340
20
-50.715713
11
85.175925
21
-51.421818
0
LINE
8
Layer 1
10
85.175925
20
-51.421818
11
85.964712
21
-51.989017
0
LINE
8
Layer 1
10
85.964712
20
-51.989017
11
86.862640
21
-52.308172
0
LINE
8
Layer 1
10
86.862640
20
-52.308172
11
87.985878
21
-52.370184
0
LINE
8
Layer 1
10
87.985878
20
-52.370184
11
89.002455
21
-52.189110
0
LINE
8
Layer 1
10
89.002455
20
-52.189110
11
89.954539
21
-51.750067
0
LINE
8
Layer 1
10
89.954539
20
-51.750067
11
90.884300
21
-51.038172
0
LINE
8
Layer 1
10
90.884300
20
-51.038172
11
92.048470
21
-49.979842
0
LINE
8
Layer 1
10
92.048470
20
-49.979842
11
93.186180
21
-50.323800
0
LINE
8
Layer 1
10
93.186180
20
-50.323800
11
95.402476
21
-50.608227
0
LINE
8
Layer 1
10
95.402476
20
-50.608227
11
98.613442
21
-50.674372
0
LINE
8
Layer 1
10
98.613442
20
-50.674372
11
101.829378
21
-50.532159
0
LINE
8
Layer 1
10
101.829378
20
-50.532159
11
104.060580
21
-50.191508
0
LINE
8
Layer 1
10
104.060580
20
-50.191508
11
105.558785
21
-49.493669
0
LINE
8
Layer 1
10
105.558785
20
-49.493669
11
105.865122
21
-49.131108
0
LINE
8
Layer 1
10
105.865122
20
-49.131108
11
105.806830
21
-48.815678
0
LINE
8
Layer 1
10
105.806830
20
-48.815678
11
104.113500
21
-49.291927
0
LINE
8
Layer 1
10
104.113500
20
-49.291927
11
102.089441
21
-49.748332
0
LINE
8
Layer 1
10
102.089441
20
-49.748332
11
98.557260
21
-49.847551
0
LINE
8
Layer 1
10
98.557260
20
-49.847551
11
94.826640
21
-49.728489
0
LINE
8
Layer 1
10
94.826640
20
-49.728489
11
92.048520
21
-49.133177
0
LINE
8
Layer 1
10
92.048520
20
-49.133177
11
89.561439
21
-48.587475
0
LINE
8
Layer 1
10
89.561439
20
-48.587475
11
87.233110
21
-48.498178
0
LINE
8
Layer 1
10
87.233110
20
-48.498178
11
85.228894
21
-48.445261
0
LINE
8
Layer 1
10
85.228894
20
-48.445261
11
84.732802
21
-48.260053
0
LINE
8
Layer 1
10
84.732802
20
-48.260053
11
84.296240
21
-47.916095
0
LINE
8
Layer 1
10
84.296240
20
-47.916095
11
83.820404
21
-47.289364
0
LINE
8
Layer 1
10
83.820404
20
-47.289364
11
83.624861
21
-46.613023
0
LINE
8
Layer 1
10
83.624861
20
-46.613023
11
83.712091
21
-45.966449
0
LINE
8
Layer 1
10
83.712091
20
-45.966449
11
84.084574
21
-45.429015
0
LINE
8
Layer 1
10
84.084574
20
-45.429015
11
84.521704
21
-45.198073
0
LINE
8
Layer 1
10
84.521704
20
-45.198073
11
85.210292
21
-45.039995
0
LINE
8
Layer 1
10
85.210292
20
-45.039995
11
87.057826
21
-44.936229
0
LINE
8
Layer 1
10
87.057826
20
-44.936229
11
89.059148
21
-45.105314
0
LINE
8
Layer 1
10
89.059148
20
-45.105314
11
90.646234
21
-45.534848
0
LINE
8
Layer 1
10
90.646234
20
-45.534848
11
91.388721
21
-45.842426
0
LINE
8
Layer 1
10
91.388721
20
-45.842426
11
92.160974
21
-45.991254
0
LINE
8
Layer 1
10
92.160974
20
-45.991254
11
95.064774
21
-45.931723
0
LINE
8
Layer 1
10
95.064774
20
-45.931723
11
101.864554
21
-45.349640
0
LINE
8
Layer 1
10
101.864554
20
-45.349640
11
105.648094
21
-44.979224
0
LINE
8
Layer 1
10
105.648094
20
-44.979224
11
105.833302
21
-44.555891
0
LINE
8
Layer 1
10
105.833302
20
-44.555891
11
105.780386
21
-44.335956
0
LINE
8
Layer 1
10
105.780386
20
-44.335956
11
105.568720
21
-44.225162
0
LINE
8
Layer 1
10
105.568720
20
-44.225162
11
104.351642
21
-44.291308
0
LINE
8
Layer 1
10
104.351642
20
-44.291308
11
94.932492
21
-45.111515
0
LINE
8
Layer 1
10
94.932492
20
-45.111515
11
92.074992
21
-45.296723
0
LINE
8
Layer 1
10
92.074992
20
-45.296723
11
92.074992
21
-40.719433
0
LINE
8
Layer 1
10
92.074992
20
-40.719433
11
92.074992
21
-36.168603
0
LINE
8
Layer 1
10
92.074992
20
-36.168603
11
93.662492
21
-34.237143
0
LINE
8
Layer 1
10
93.662492
20
-34.237143
11
95.249992
21
-32.173393
0
LINE
8
Layer 1
10
95.249992
20
-32.173393
11
95.118527
21
-32.002654
0
LINE
8
Layer 1
10
95.118527
20
-32.002654
11
94.714211
21
-32.256076
0
LINE
8
Layer 1
10
94.714211
20
-32.256076
11
93.027492
21
-34.104853
0
LINE
8
Layer 1
10
93.027492
20
-34.104853
11
91.281242
21
-36.195063
0
LINE
8
Layer 1
10
91.281242
20
-36.195063
11
91.281242
21
-40.481303
0
LINE
8
Layer 1
10
91.281242
20
-40.481303
11
91.215096
21
-44.089551
0
LINE
8
Layer 1
10
91.215096
20
-44.089551
11
91.080324
21
-44.577791
0
LINE
8
Layer 1
10
91.080324
20
-44.577791
11
90.831451
21
-44.582343
0
LINE
8
Layer 1
10
90.831451
20
-44.582343
11
89.058741
21
-44.159010
0
LINE
8
Layer 1
10
89.058741
20
-44.159010
11
87.629991
21
-43.788594
0
LINE
8
Layer 1
10
87.629991
20
-43.788594
11
87.841657
21
-42.862554
0
LINE
8
Layer 1
10
87.841657
20
-42.862554
11
88.013223
21
-42.110560
0
LINE
8
Layer 1
10
88.013223
20
-42.110560
11
88.003714
21
-41.093155
0
LINE
8
Layer 1
10
88.003714
20
-41.093155
11
87.391866
21
-37.835474
0
LINE
8
Layer 1
10
87.391866
20
-37.835474
11
87.039227
21
-36.764325
0
LINE
8
Layer 1
10
87.039227
20
-36.764325
11
86.396373
21
-35.497220
0
LINE
8
Layer 1
10
86.396373
20
-35.497220
11
83.396666
21
-30.956314
0
LINE
8
Layer 1
10
83.396666
20
-30.956314
11
80.783911
21
-27.109938
0
LINE
8
Layer 1
10
80.783911
20
-27.109938
11
79.560216
21
-25.109034
0
LINE
8
Layer 1
10
79.560216
20
-25.109034
11
79.505646
21
-24.519924
0
LINE
8
Layer 1
10
79.505646
20
-24.519924
11
79.699122
21
-23.372708
0
LINE
8
Layer 1
10
79.699122
20
-23.372708
11
81.068336
21
-18.362164
0
LINE
8
Layer 1
10
81.068336
20
-18.362164
11
83.079166
21
-11.747594
0
LINE
8
Layer 1
10
83.079166
20
-11.747594
11
83.159781
21
-11.423066
0
LINE
8
Layer 1
10
83.159781
20
-11.423066
11
83.009713
21
-11.195276
0
LINE
8
Layer 1
10
83.009713
20
-11.195276
11
81.571046
21
-10.742174
0
LINE
8
Layer 1
10
81.571046
20
-10.742174
11
79.392371
21
-10.045577
0
LINE
8
Layer 1
10
79.392371
20
-10.045577
11
77.913187
21
-9.177828
0
LINE
8
Layer 1
10
77.913187
20
-9.177828
11
77.387846
21
-8.638688
0
LINE
8
Layer 1
10
77.387846
20
-8.638688
11
76.979706
21
-8.007462
0
LINE
8
Layer 1
10
76.979706
20
-8.007462
11
76.438136
21
-6.403014
0
LINE
8
Layer 1
10
76.438136
20
-6.403014
11
76.276079
21
-5.027187
0
LINE
8
Layer 1
10
76.276079
20
-5.027187
11
76.464181
21
-4.676614
0
LINE
8
Layer 1
10
76.464181
20
-4.676614
11
76.887927
21
-4.286354
0
LINE
8
Layer 1
10
76.887927
20
-4.286354
11
77.671756
21
-3.419844
0
LINE
8
Layer 1
10
77.671756
20
-3.419844
11
78.475427
21
-2.275524
0
LINE
8
Layer 1
10
78.475427
20
-2.275524
11
79.360538
21
-1.024957
0
LINE
8
Layer 1
10
79.360538
20
-1.024957
11
80.476335
21
-0.148939
0
LINE
8
Layer 1
10
80.476335
20
-0.148939
11
82.192405
21
0.563368
0
LINE
8
Layer 1
10
82.192405
20
0.563368
11
84.878337
21
1.322806
0
LINE
8
Layer 1
10
84.878337
20
1.322806
11
85.734925
21
1.650227
0
LINE
8
Layer 1
10
85.734925
20
1.650227
11
85.936667
21
2.037180
0
LINE
8
Layer 1
10
85.936667
20
2.037180
11
85.238830
21
2.837542
0
LINE
8
Layer 1
10
85.238830
20
2.837542
11
83.687707
21
4.153840
0
LINE
8
Layer 1
10
83.687707
20
4.153840
11
81.491667
21
5.873630
0
LINE
8
Layer 1
10
81.491667
20
5.873630
11
81.491667
21
3.624670
0
LINE
8
Layer 1
10
81.491667
20
3.624670
11
81.491600
21
3.624690
0
LINE
8
Layer 1
10
83.661180
20
3.121982
11
84.285845
21
2.571732
0
LINE
8
Layer 1
10
84.285845
20
2.571732
11
84.431779
21
2.212479
0
LINE
8
Layer 1
10
84.431779
20
2.212479
11
84.066736
21
1.957404
0
LINE
8
Layer 1
10
84.066736
20
1.957404
11
83.158472
21
1.719692
0
LINE
8
Layer 1
10
83.158472
20
1.719692
11
82.285348
21
1.534484
0
LINE
8
Layer 1
10
82.285348
20
1.534484
11
82.285348
21
2.751564
0
LINE
8
Layer 1
10
82.285348
20
2.751564
11
82.444098
21
3.968644
0
LINE
8
Layer 1
10
82.444098
20
3.968644
11
83.661178
21
3.121978
0
LINE
8
Layer 1
10
83.661178
20
3.121978
11
83.661180
21
3.121982
0
LINE
8
Layer 1
10
84.878260
20
-34.581118
11
85.726992
21
-35.976378
0
LINE
8
Layer 1
10
85.726992
20
-35.976378
11
86.290470
21
-37.150878
0
LINE
8
Layer 1
10
86.290470
20
-37.150878
11
86.690238
21
-38.409715
0
LINE
8
Layer 1
10
86.690238
20
-38.409715
11
87.047840
21
-40.057988
0
LINE
8
Layer 1
10
87.047840
20
-40.057988
11
87.188400
21
-41.431751
0
LINE
8
Layer 1
10
87.188400
20
-41.431751
11
87.080913
21
-42.674050
0
LINE
8
Layer 1
10
87.080913
20
-42.674050
11
86.765067
21
-43.574046
0
LINE
8
Layer 1
10
86.765067
20
-43.574046
11
86.541411
21
-43.829793
0
LINE
8
Layer 1
10
86.541411
20
-43.829793
11
86.280549
21
-43.920898
0
LINE
8
Layer 1
10
86.280549
20
-43.920898
11
84.659979
21
-44.274778
0
LINE
8
Layer 1
10
84.659979
20
-44.274778
11
83.869537
21
-44.624110
0
LINE
8
Layer 1
10
83.869537
20
-44.624110
11
83.317219
21
-45.005688
0
LINE
8
Layer 1
10
83.317219
20
-45.005688
11
82.966646
21
-45.544776
0
LINE
8
Layer 1
10
82.966646
20
-45.544776
11
82.814511
21
-46.143398
0
LINE
8
Layer 1
10
82.814511
20
-46.143398
11
82.651627
21
-46.631636
0
LINE
8
Layer 1
10
82.651627
20
-46.631636
11
82.205970
21
-46.894151
0
LINE
8
Layer 1
10
82.205970
20
-46.894151
11
81.542031
21
-46.913581
0
LINE
8
Layer 1
10
81.542031
20
-46.913581
11
80.724301
21
-46.672564
0
LINE
8
Layer 1
10
80.724301
20
-46.672564
11
80.251461
21
-46.379611
0
LINE
8
Layer 1
10
80.251461
20
-46.379611
11
79.923110
21
-45.980928
0
LINE
8
Layer 1
10
79.923110
20
-45.980928
11
79.692427
21
-45.009000
0
LINE
8
Layer 1
10
79.692427
20
-45.009000
11
80.017369
21
-44.042031
0
LINE
8
Layer 1
10
80.017369
20
-44.042031
11
80.383548
21
-43.649548
0
LINE
8
Layer 1
10
80.383548
20
-43.649548
11
80.883051
21
-43.365274
0
LINE
8
Layer 1
10
80.883051
20
-43.365274
11
82.017450
21
-43.163529
0
LINE
8
Layer 1
10
82.017450
20
-43.163529
11
83.687631
21
-43.100691
0
LINE
8
Layer 1
10
83.687631
20
-43.100691
11
85.751381
21
-43.100691
0
LINE
8
Layer 1
10
85.751381
20
-43.100691
11
86.254089
21
-41.910071
0
LINE
8
Layer 1
10
86.254089
20
-41.910071
11
86.783255
21
-40.454861
0
LINE
8
Layer 1
10
86.783255
20
-40.454861
11
85.089925
21
-36.380281
0
LINE
8
Layer 1
10
85.089925
20
-36.380281
11
83.475965
21
-32.543831
0
LINE
8
Layer 1
10
83.475965
20
-32.543831
11
84.878255
21
-34.581121
0
LINE
8
Layer 1
10
84.878255
20
-34.581121
11
84.878260
21
-34.581118
0
LINE
8
Layer 1
10
90.408040
20
-49.503618
11
91.148872
21
-49.768201
0
LINE
8
Layer 1
10
91.148872
20
-49.768201
11
90.302206
21
-50.535492
0
LINE
8
Layer 1
10
90.302206
20
-50.535492
11
89.337717
21
-51.162635
0
LINE
8
Layer 1
10
89.337717
20
-51.162635
11
88.261608
21
-51.484683
0
LINE
8
Layer 1
10
88.261608
20
-51.484683
11
87.180539
21
-51.484271
0
LINE
8
Layer 1
10
87.180539
20
-51.484271
11
86.201166
21
-51.144033
0
LINE
8
Layer 1
10
86.201166
20
-51.144033
11
85.566167
21
-50.624789
0
LINE
8
Layer 1
10
85.566167
20
-50.624789
11
85.248667
21
-50.085703
0
LINE
8
Layer 1
10
85.248667
20
-50.085703
11
85.243293
21
-49.769857
0
LINE
8
Layer 1
10
85.243293
20
-49.769857
11
85.404110
21
-49.582995
0
LINE
8
Layer 1
10
85.404110
20
-49.582995
11
86.571587
21
-49.397787
0
LINE
8
Layer 1
10
86.571587
20
-49.397787
11
89.273641
21
-49.272110
0
LINE
8
Layer 1
10
89.273641
20
-49.272110
11
90.408037
21
-49.503620
0
LINE
8
Layer 1
10
90.408037
20
-49.503620
11
90.408040
21
-49.503618
0
LINE
8
Layer 1
10
15.610400
20
5.212190
11
15.081234
21
2.328240
0
LINE
8
Layer 1
10
15.081234
20
2.328240
11
14.159742
21
-2.817898
0
LINE
8
Layer 1
10
14.159742
20
-2.817898
11
13.642565
21
-6.614655
0
LINE
8
Layer 1
10
13.642565
20
-6.614655
11
13.507380
21
-9.280314
0
LINE
8
Layer 1
10
13.507380
20
-9.280314
11
13.731864
21
-11.033160
0
LINE
8
Layer 1
10
13.731864
20
-11.033160
11
13.781473
21
-11.603667
0
LINE
8
Layer 1
10
13.781473
20
-11.603667
11
13.295302
21
-12.442064
0
LINE
8
Layer 1
10
13.295302
20
-12.442064
11
9.048744
21
-17.065650
0
LINE
8
Layer 1
10
9.048744
20
-17.065650
11
4.101044
21
-22.277940
0
LINE
8
Layer 1
10
4.101044
20
-22.277940
11
2.037294
21
-26.220230
0
LINE
8
Layer 1
10
2.037294
20
-26.220230
11
0.598623
21
-29.140564
0
LINE
8
Layer 1
10
0.598623
20
-29.140564
11
0.052924
21
-30.612310
0
LINE
8
Layer 1
10
0.052924
20
-30.612310
11
0.247227
21
-30.499448
0
LINE
8
Layer 1
10
0.247227
20
-30.499448
11
0.714382
21
-29.788794
0
LINE
8
Layer 1
10
0.714382
20
-29.788794
11
2.248964
21
-26.961060
0
LINE
8
Layer 1
10
2.248964
20
-26.961060
11
4.339174
21
-22.833570
0
LINE
8
Layer 1
10
4.339174
20
-22.833570
11
9.445624
21
-17.436080
0
LINE
8
Layer 1
10
9.445624
20
-17.436080
11
13.688871
21
-12.832336
0
LINE
8
Layer 1
10
13.688871
20
-12.832336
11
14.301135
21
-11.922006
0
LINE
8
Layer 1
10
14.301135
20
-11.922006
11
14.340414
21
-11.403590
0
LINE
8
Layer 1
10
14.340414
20
-11.403590
11
14.155206
21
-8.466720
0
LINE
8
Layer 1
10
14.155206
20
-8.466720
11
14.249464
21
-6.772973
0
LINE
8
Layer 1
10
14.249464
20
-6.772973
11
14.571924
21
-5.433935
0
LINE
8
Layer 1
10
14.571924
20
-5.433935
11
15.182118
21
-4.288374
0
LINE
8
Layer 1
10
15.182118
20
-4.288374
11
16.139576
21
-3.175060
0
LINE
8
Layer 1
10
16.139576
20
-3.175060
11
17.130109
21
-2.335421
0
LINE
8
Layer 1
10
17.130109
20
-2.335421
11
18.209937
21
-1.716544
0
LINE
8
Layer 1
10
18.209937
20
-1.716544
11
19.398908
21
-1.310987
0
LINE
8
Layer 1
10
19.398908
20
-1.310987
11
20.716866
21
-1.111310
0
LINE
8
Layer 1
10
20.716866
20
-1.111310
11
22.258890
21
-1.121232
0
LINE
8
Layer 1
10
22.258890
20
-1.121232
11
23.607436
21
-1.408966
0
LINE
8
Layer 1
10
23.607436
20
-1.408966
11
24.846842
21
-2.004277
0
LINE
8
Layer 1
10
24.846842
20
-2.004277
11
26.061446
21
-2.936930
0
LINE
8
Layer 1
10
26.061446
20
-2.936930
11
26.918344
21
-3.840595
0
LINE
8
Layer 1
10
26.918344
20
-3.840595
11
27.603469
21
-4.803480
0
LINE
8
Layer 1
10
27.603469
20
-4.803480
11
28.116201
21
-5.822797
0
LINE
8
Layer 1
10
28.116201
20
-5.822797
11
28.455921
21
-6.895754
0
LINE
8
Layer 1
10
28.455921
20
-6.895754
11
28.622008
21
-8.019560
0
LINE
8
Layer 1
10
28.622008
20
-8.019560
11
28.613843
21
-9.191425
0
LINE
8
Layer 1
10
28.613843
20
-9.191425
11
28.430806
21
-10.408559
0
LINE
8
Layer 1
10
28.430806
20
-10.408559
11
28.072276
21
-11.668170
0
LINE
8
Layer 1
10
28.072276
20
-11.668170
11
27.463735
21
-13.387960
0
LINE
8
Layer 1
10
27.463735
20
-13.387960
11
28.522065
21
-17.330250
0
LINE
8
Layer 1
10
28.522065
20
-17.330250
11
29.624630
21
-21.452372
0
LINE
8
Layer 1
10
29.624630
20
-21.452372
11
29.897326
21
-22.764798
0
LINE
8
Layer 1
10
29.897326
20
-22.764798
11
29.980576
21
-23.855532
0
LINE
8
Layer 1
10
29.980576
20
-23.855532
11
29.871591
21
-24.932625
0
LINE
8
Layer 1
10
29.871591
20
-24.932625
11
29.567580
21
-26.204126
0
LINE
8
Layer 1
10
29.567580
20
-26.204126
11
28.363315
21
-30.162550
0
LINE
8
Layer 1
10
28.363315
20
-30.162550
11
25.823315
21
-38.893790
0
LINE
8
Layer 1
10
25.823315
20
-38.893790
11
25.225938
21
-41.939390
0
LINE
8
Layer 1
10
25.225938
20
-41.939390
11
25.211468
21
-44.367354
0
LINE
8
Layer 1
10
25.211468
20
-44.367354
11
25.418948
21
-45.311740
0
LINE
8
Layer 1
10
25.418948
20
-45.311740
11
25.767504
21
-46.056138
0
LINE
8
Layer 1
10
25.767504
20
-46.056138
11
26.255587
21
-46.585355
0
LINE
8
Layer 1
10
26.255587
20
-46.585355
11
26.881645
21
-46.884200
0
LINE
8
Layer 1
10
26.881645
20
-46.884200
11
27.599325
21
-47.185163
0
LINE
8
Layer 1
10
27.599325
20
-47.185163
11
28.178105
21
-47.625032
0
LINE
8
Layer 1
10
28.178105
20
-47.625032
11
28.445582
21
-47.938397
0
LINE
8
Layer 1
10
28.445582
20
-47.938397
11
28.531984
21
-48.207114
0
LINE
8
Layer 1
10
28.531984
20
-48.207114
11
28.151647
21
-49.106692
0
LINE
8
Layer 1
10
28.151647
20
-49.106692
11
27.648939
21
-50.059191
0
LINE
8
Layer 1
10
27.648939
20
-50.059191
11
26.087899
21
-49.900441
0
LINE
8
Layer 1
10
26.087899
20
-49.900441
11
23.494989
21
-49.741691
0
LINE
8
Layer 1
10
23.494989
20
-49.741691
11
22.883969
21
-49.709858
0
LINE
8
Layer 1
10
22.883969
20
-49.709858
11
22.476347
21
-49.487030
0
LINE
8
Layer 1
10
22.476347
20
-49.487030
11
21.537079
21
-47.704401
0
LINE
8
Layer 1
10
21.537079
20
-47.704401
11
20.611038
21
-45.667111
0
LINE
8
Layer 1
10
20.611038
20
-45.667111
11
21.140204
21
-41.962951
0
LINE
8
Layer 1
10
21.140204
20
-41.962951
11
21.828120
21
-36.830041
0
LINE
8
Layer 1
10
21.828120
20
-36.830041
11
22.013328
21
-35.454211
0
LINE
8
Layer 1
10
22.013328
20
-35.454211
11
19.737918
21
-35.454211
0
LINE
8
Layer 1
10
19.737918
20
-35.454211
11
17.756853
21
-35.536893
0
LINE
8
Layer 1
10
17.756853
20
-35.536893
11
17.501781
21
-35.733263
0
LINE
8
Layer 1
10
17.501781
20
-35.733263
11
17.462508
21
-36.115668
0
LINE
8
Layer 1
10
17.462508
20
-36.115668
11
18.213261
21
-41.724830
0
LINE
8
Layer 1
10
18.213261
20
-41.724830
11
19.341048
21
-47.492768
0
LINE
8
Layer 1
10
19.341048
20
-47.492768
11
19.665162
21
-48.792531
0
LINE
8
Layer 1
10
19.665162
20
-48.792531
11
19.711464
21
-49.477138
0
LINE
8
Layer 1
10
19.711464
20
-49.477138
11
17.859384
21
-50.667758
0
LINE
8
Layer 1
10
17.859384
20
-50.667758
11
16.729119
21
-51.244464
0
LINE
8
Layer 1
10
16.729119
20
-51.244464
11
15.961002
21
-51.411895
0
LINE
8
Layer 1
10
15.961002
20
-51.411895
11
15.321869
21
-51.147726
0
LINE
8
Layer 1
10
15.321869
20
-51.147726
11
14.578554
21
-50.429633
0
LINE
8
Layer 1
10
14.578554
20
-50.429633
11
14.251132
21
-50.030691
0
LINE
8
Layer 1
10
14.251132
20
-50.030691
11
14.082461
21
-49.619347
0
LINE
8
Layer 1
10
14.082461
20
-49.619347
11
14.102305
21
-48.233593
0
LINE
8
Layer 1
10
14.102305
20
-48.233593
11
14.125042
21
-47.293080
0
LINE
8
Layer 1
10
14.125042
20
-47.293080
11
13.986549
21
-46.245909
0
LINE
8
Layer 1
10
13.986549
20
-46.245909
11
12.938135
21
-42.571513
0
LINE
8
Layer 1
10
12.938135
20
-42.571513
11
11.893031
21
-38.854123
0
LINE
8
Layer 1
10
11.893031
20
-38.854123
11
11.641675
21
-36.486103
0
LINE
8
Layer 1
10
11.641675
20
-36.486103
11
11.460187
21
-34.072608
0
LINE
8
Layer 1
10
11.460187
20
-34.072608
11
11.213329
21
-33.153286
0
LINE
8
Layer 1
10
11.213329
20
-33.153286
11
10.844618
21
-32.398294
0
LINE
8
Layer 1
10
10.844618
20
-32.398294
11
10.340722
21
-31.787170
0
LINE
8
Layer 1
10
10.340722
20
-31.787170
11
9.688307
21
-31.299449
0
LINE
8
Layer 1
10
9.688307
20
-31.299449
11
7.884595
21
-30.612363
0
LINE
8
Layer 1
10
7.884595
20
-30.612363
11
6.138345
21
-30.294863
0
LINE
8
Layer 1
10
6.138345
20
-30.294863
11
6.085842
21
-30.506116
0
LINE
8
Layer 1
10
6.085842
20
-30.506116
11
6.353318
21
-30.734732
0
LINE
8
Layer 1
10
6.353318
20
-30.734732
11
7.778755
21
-31.194445
0
LINE
8
Layer 1
10
7.778755
20
-31.194445
11
8.927624
21
-31.558246
0
LINE
8
Layer 1
10
8.927624
20
-31.558246
11
9.806122
21
-32.100641
0
LINE
8
Layer 1
10
9.806122
20
-32.100641
11
10.431612
21
-32.831553
0
LINE
8
Layer 1
10
10.431612
20
-32.831553
11
10.821455
21
-33.760905
0
LINE
8
Layer 1
10
10.821455
20
-33.760905
11
11.026506
21
-36.112387
0
LINE
8
Layer 1
10
11.026506
20
-36.112387
11
11.112496
21
-40.428395
0
LINE
8
Layer 1
10
11.112496
20
-40.428395
11
11.043043
21
-45.194196
0
LINE
8
Layer 1
10
11.043043
20
-45.194196
11
10.900416
21
-45.864337
0
LINE
8
Layer 1
10
10.900416
20
-45.864337
11
10.636247
21
-45.931725
0
LINE
8
Layer 1
10
10.636247
20
-45.931725
11
5.106467
21
-45.640684
0
LINE
8
Layer 1
10
5.106467
20
-45.640684
11
1.184023
21
-45.564616
0
LINE
8
Layer 1
10
1.184023
20
-45.564616
11
0.284442
21
-45.622080
0
LINE
8
Layer 1
10
0.284442
20
-45.622080
11
0.000017
21
-45.746517
0
LINE
8
Layer 1
10
0.000017
20
-45.746517
11
0.102543
21
-45.951569
0
LINE
8
Layer 1
10
0.102543
20
-45.951569
11
0.343975
21
-46.037558
0
LINE
8
Layer 1
10
0.343975
20
-46.037558
11
6.058965
21
-46.302141
0
LINE
8
Layer 1
10
6.058965
20
-46.302141
11
10.742085
21
-46.606411
0
LINE
8
Layer 1
10
10.742085
20
-46.606411
11
11.610246
21
-46.815597
0
LINE
8
Layer 1
10
11.610246
20
-46.815597
11
12.091455
21
-47.148807
0
LINE
8
Layer 1
10
12.091455
20
-47.148807
11
12.537112
21
-47.754867
0
LINE
8
Layer 1
10
12.537112
20
-47.754867
11
12.680152
21
-48.425418
0
LINE
8
Layer 1
10
12.680152
20
-48.425418
11
12.515614
21
-49.105891
0
LINE
8
Layer 1
10
12.515614
20
-49.105891
11
12.038538
21
-49.741717
0
LINE
8
Layer 1
10
12.038538
20
-49.741717
11
11.596602
21
-50.096837
0
LINE
8
Layer 1
10
11.596602
20
-50.096837
11
11.043045
21
-50.280805
0
LINE
8
Layer 1
10
11.043045
20
-50.280805
11
8.519588
21
-50.323800
0
LINE
8
Layer 1
10
8.519588
20
-50.323800
11
4.322638
21
-49.897160
0
LINE
8
Layer 1
10
4.322638
20
-49.897160
11
2.190678
21
-49.508966
0
LINE
8
Layer 1
10
2.190678
20
-49.508966
11
0.423348
21
-49.053800
0
LINE
8
Layer 1
10
0.423348
20
-49.053800
11
0.089312
21
-49.017420
0
LINE
8
Layer 1
10
0.089312
20
-49.017420
11
0.052932
21
-49.239008
0
LINE
8
Layer 1
10
0.052932
20
-49.239008
11
0.483862
21
-49.563587
0
LINE
8
Layer 1
10
0.483862
20
-49.563587
11
1.476307
21
-49.905840
0
LINE
8
Layer 1
10
1.476307
20
-49.905840
11
4.534311
21
-50.545388
0
LINE
8
Layer 1
10
4.534311
20
-50.545388
11
8.004075
21
-50.961693
0
LINE
8
Layer 1
10
8.004075
20
-50.961693
11
10.662732
21
-50.958798
0
LINE
8
Layer 1
10
10.662732
20
-50.958798
11
11.484439
21
-50.742222
0
LINE
8
Layer 1
10
11.484439
20
-50.742222
11
12.156387
21
-50.387051
0
LINE
8
Layer 1
10
12.156387
20
-50.387051
11
12.667725
21
-49.918398
0
LINE
8
Layer 1
10
12.667725
20
-49.918398
11
13.007601
21
-49.361378
0
LINE
8
Layer 1
10
13.007601
20
-49.361378
11
13.165162
21
-48.741107
0
LINE
8
Layer 1
10
13.165162
20
-48.741107
11
13.129558
21
-48.082698
0
LINE
8
Layer 1
10
13.129558
20
-48.082698
11
12.889935
21
-47.411267
0
LINE
8
Layer 1
10
12.889935
20
-47.411267
11
12.435442
21
-46.751928
0
LINE
8
Layer 1
10
12.435442
20
-46.751928
11
11.987718
21
-46.177700
0
LINE
8
Layer 1
10
11.987718
20
-46.177700
11
11.750833
21
-45.591070
0
LINE
8
Layer 1
10
11.750833
20
-45.591070
11
11.641693
21
-43.100678
0
LINE
8
Layer 1
10
11.641693
20
-43.100678
11
11.668151
21
-40.349018
0
LINE
8
Layer 1
10
11.668151
20
-40.349018
11
12.700021
21
-43.524018
0
LINE
8
Layer 1
10
12.700021
20
-43.524018
11
13.559915
21
-46.470812
0
LINE
8
Layer 1
10
13.559915
20
-46.470812
11
13.630195
21
-47.374942
0
LINE
8
Layer 1
10
13.630195
20
-47.374942
11
13.546687
21
-48.365888
0
LINE
8
Layer 1
10
13.546687
20
-48.365888
11
13.308562
21
-50.006298
0
LINE
8
Layer 1
10
13.308562
20
-50.006298
11
14.684392
21
-51.170468
0
LINE
8
Layer 1
10
14.684392
20
-51.170468
11
16.033762
21
-52.334638
0
LINE
8
Layer 1
10
16.033762
20
-52.334638
11
18.282722
21
-51.038178
0
LINE
8
Layer 1
10
18.282722
20
-51.038178
11
19.827225
21
-50.009611
0
LINE
8
Layer 1
10
19.827225
20
-50.009611
11
20.399382
21
-49.397768
0
LINE
8
Layer 1
10
20.399382
20
-49.397768
11
19.466728
21
-45.855663
0
LINE
8
Layer 1
10
19.466728
20
-45.855663
11
18.653132
21
-41.142778
0
LINE
8
Layer 1
10
18.653132
20
-41.142778
11
17.991674
21
-36.300908
0
LINE
8
Layer 1
10
17.991674
20
-36.300908
11
18.405085
21
-36.062783
0
LINE
8
Layer 1
10
18.405085
20
-36.062783
11
19.711464
21
-35.983408
0
LINE
8
Layer 1
10
19.711464
20
-35.983408
11
21.457714
21
-35.983408
0
LINE
8
Layer 1
10
21.457714
20
-35.983408
11
21.325422
21
-36.830074
0
LINE
8
Layer 1
10
21.325422
20
-36.830074
11
20.637506
21
-41.619024
0
LINE
8
Layer 1
10
20.637506
20
-41.619024
11
20.081882
21
-45.508394
0
LINE
8
Layer 1
10
20.081882
20
-45.508394
11
20.902089
21
-47.466304
0
LINE
8
Layer 1
10
20.902089
20
-47.466304
11
21.619356
21
-49.105066
0
LINE
8
Layer 1
10
21.619356
20
-49.105066
11
22.274612
21
-49.940155
0
LINE
8
Layer 1
10
22.274612
20
-49.940155
11
23.301939
21
-50.279151
0
LINE
8
Layer 1
10
23.301939
20
-50.279151
11
25.135419
21
-50.429634
0
LINE
8
Layer 1
10
25.135419
20
-50.429634
11
27.939999
21
-50.588384
0
LINE
8
Layer 1
10
27.939999
20
-50.588384
11
28.574998
21
-49.424214
0
LINE
8
Layer 1
10
28.574998
20
-49.424214
11
29.183539
21
-48.233594
0
LINE
8
Layer 1
10
29.183539
20
-48.233594
11
28.601456
21
-47.413387
0
LINE
8
Layer 1
10
28.601456
20
-47.413387
11
27.946613
21
-46.755237
0
LINE
8
Layer 1
10
27.946613
20
-46.755237
11
27.172706
21
-46.355057
0
LINE
8
Layer 1
10
27.172706
20
-46.355057
11
26.468254
21
-46.025155
0
LINE
8
Layer 1
10
26.468254
20
-46.025155
11
26.001928
21
-45.422402
0
LINE
8
Layer 1
10
26.001928
20
-45.422402
11
25.743961
21
-44.472383
0
LINE
8
Layer 1
10
25.743961
20
-44.472383
11
25.664586
21
-43.100687
0
LINE
8
Layer 1
10
25.664586
20
-43.100687
11
25.810934
21
-41.463580
0
LINE
8
Layer 1
10
25.810934
20
-41.463580
11
26.339273
21
-39.012881
0
LINE
8
Layer 1
10
26.339273
20
-39.012881
11
29.077706
21
-29.527587
0
LINE
8
Layer 1
10
29.077706
20
-29.527587
11
30.691666
21
-23.918427
0
LINE
8
Layer 1
10
30.691666
20
-23.918427
11
29.368746
21
-18.520937
0
LINE
8
Layer 1
10
29.368746
20
-18.520937
11
28.019376
21
-13.467397
0
LINE
8
Layer 1
10
28.019376
20
-13.467397
11
28.707292
21
-11.509487
0
LINE
8
Layer 1
10
28.707292
20
-11.509487
11
29.320380
21
-9.526767
0
LINE
8
Layer 1
10
29.320380
20
-9.526767
11
29.802004
21
-7.434907
0
LINE
8
Layer 1
10
29.802004
20
-7.434907
11
30.559372
21
-2.010957
0
LINE
8
Layer 1
10
30.559372
20
-2.010957
11
30.923174
21
2.083467
0
LINE
8
Layer 1
10
30.923174
20
2.083467
11
30.849587
21
2.572947
0
LINE
8
Layer 1
10
30.849587
20
2.572947
11
30.612289
21
2.566333
0
LINE
8
Layer 1
10
30.612289
20
2.566333
11
27.622499
21
0.581963
0
LINE
8
Layer 1
10
27.622499
20
0.581963
11
24.976669
21
-1.296577
0
LINE
8
Layer 1
10
24.976669
20
-1.296577
11
23.944799
21
-0.926161
0
LINE
8
Layer 1
10
23.944799
20
-0.926161
11
22.039799
21
-0.529286
0
LINE
8
Layer 1
10
22.039799
20
-0.529286
11
21.510633
21
-0.423453
0
LINE
8
Layer 1
10
21.510633
20
-0.423453
11
20.862405
21
-0.000120
0
LINE
8
Layer 1
10
20.862405
20
-0.000120
11
18.415009
21
2.434044
0
LINE
8
Layer 1
10
18.415009
20
2.434044
11
16.437251
21
4.468025
0
LINE
8
Layer 1
10
16.437251
20
4.468025
11
15.610429
21
5.212164
0
LINE
8
Layer 1
10
15.610429
20
5.212164
11
15.610400
21
5.212190
0
LINE
8
Layer 1
10
18.335600
20
1.746150
11
20.346430
21
-0.476350
0
LINE
8
Layer 1
10
20.346430
20
-0.476350
11
19.235180
21
-0.740933
0
LINE
8
Layer 1
10
19.235180
20
-0.740933
11
18.073080
21
-1.182456
0
LINE
8
Layer 1
10
18.073080
20
-1.182456
11
16.883698
21
-1.872025
0
LINE
8
Layer 1
10
16.883698
20
-1.872025
11
15.838183
21
-2.690579
0
LINE
8
Layer 1
10
15.838183
20
-2.690579
11
15.107690
21
-3.519053
0
LINE
8
Layer 1
10
15.107690
20
-3.519053
11
14.651285
21
-4.120979
0
LINE
8
Layer 1
10
14.651285
20
-4.120979
11
14.552066
21
-3.810094
0
LINE
8
Layer 1
10
14.552066
20
-3.810094
11
15.636856
21
2.592816
0
LINE
8
Layer 1
10
15.636856
20
2.592816
11
15.894824
21
3.558543
0
LINE
8
Layer 1
10
15.894824
20
3.558543
11
16.113105
21
3.968646
0
LINE
8
Layer 1
10
16.113105
20
3.968646
11
18.335605
21
1.746146
0
LINE
8
Layer 1
10
18.335605
20
1.746146
11
18.335600
21
1.746150
0
LINE
8
Layer 1
10
30.003700
20
-1.958010
11
29.474534
21
-6.588210
0
LINE
8
Layer 1
10
29.474534
20
-6.588210
11
29.289326
21
-7.540709
0
LINE
8
Layer 1
10
29.289326
20
-7.540709
11
28.813077
21
-6.111959
0
LINE
8
Layer 1
10
28.813077
20
-6.111959
11
28.351711
21
-5.012702
0
LINE
8
Layer 1
10
28.351711
20
-5.012702
11
27.741518
21
-3.965531
0
LINE
8
Layer 1
10
27.741518
20
-3.965531
11
27.012262
21
-3.012618
0
LINE
8
Layer 1
10
27.012262
20
-3.012618
11
26.193707
21
-2.196129
0
LINE
8
Layer 1
10
26.193707
20
-2.196129
11
25.760452
21
-1.762874
0
LINE
8
Layer 1
10
25.760452
20
-1.762874
11
25.664541
21
-1.508213
0
LINE
8
Layer 1
10
25.664541
20
-1.508213
11
30.321201
21
1.772617
0
LINE
8
Layer 1
10
30.321201
20
1.772617
11
30.003701
21
-1.958003
0
LINE
8
Layer 1
10
30.003701
20
-1.958003
11
30.003700
21
-1.958010
0
LINE
8
Layer 1
10
46.222700
20
4.339060
11
43.497500
21
-7.646540
0
LINE
8
Layer 1
10
43.497500
20
-7.646540
11
43.478070
21
-8.658983
0
LINE
8
Layer 1
10
43.478070
20
-8.658983
11
43.738932
21
-9.931875
0
LINE
8
Layer 1
10
43.738932
20
-9.931875
11
44.223036
21
-11.259337
0
LINE
8
Layer 1
10
44.223036
20
-11.259337
11
44.873330
21
-12.435490
0
LINE
8
Layer 1
10
44.873330
20
-12.435490
11
45.772912
21
-13.758400
0
LINE
8
Layer 1
10
45.772912
20
-13.758400
11
45.270204
21
-14.763820
0
LINE
8
Layer 1
10
45.270204
20
-14.763820
11
43.249450
21
-19.767745
0
LINE
8
Layer 1
10
43.249450
20
-19.767745
11
41.169164
21
-25.664620
0
LINE
8
Layer 1
10
41.169164
20
-25.664620
11
40.385337
21
-27.691987
0
LINE
8
Layer 1
10
40.385337
20
-27.691987
11
39.930171
21
-28.250506
0
LINE
8
Layer 1
10
39.930171
20
-28.250506
11
39.264164
21
-28.786700
0
LINE
8
Layer 1
10
39.264164
20
-28.786700
11
38.095039
21
-29.844619
0
LINE
8
Layer 1
10
38.095039
20
-29.844619
11
36.935833
21
-31.237400
0
LINE
8
Layer 1
10
36.935833
20
-31.237400
11
35.915533
21
-32.793891
0
LINE
8
Layer 1
10
35.915533
20
-32.793891
11
35.163124
21
-34.342940
0
LINE
8
Layer 1
10
35.163124
20
-34.342940
11
34.690182
21
-36.013122
0
LINE
8
Layer 1
10
34.690182
20
-36.013122
11
34.554583
21
-38.100020
0
LINE
8
Layer 1
10
34.554583
20
-38.100020
11
34.680260
21
-40.305984
0
LINE
8
Layer 1
10
34.680260
20
-40.305984
11
35.480623
21
-42.333350
0
LINE
8
Layer 1
10
35.480623
20
-42.333350
11
36.234374
21
-43.715279
0
LINE
8
Layer 1
10
36.234374
20
-43.715279
11
37.095406
21
-44.955201
0
LINE
8
Layer 1
10
37.095406
20
-44.955201
11
38.046975
21
-46.040094
0
LINE
8
Layer 1
10
38.046975
20
-46.040094
11
39.072338
21
-46.956936
0
LINE
8
Layer 1
10
39.072338
20
-46.956936
11
40.154752
21
-47.692704
0
LINE
8
Layer 1
10
40.154752
20
-47.692704
11
41.277472
21
-48.234376
0
LINE
8
Layer 1
10
41.277472
20
-48.234376
11
42.423757
21
-48.568929
0
LINE
8
Layer 1
10
42.423757
20
-48.568929
11
43.576863
21
-48.683340
0
LINE
8
Layer 1
10
43.576863
20
-48.683340
11
44.979153
21
-48.683340
0
LINE
8
Layer 1
10
44.979153
20
-48.683340
11
44.979153
21
-49.741670
0
LINE
8
Layer 1
10
44.979153
20
-49.741670
11
44.979153
21
-50.800000
0
LINE
8
Layer 1
10
44.979153
20
-50.800000
11
48.101233
21
-50.800000
0
LINE
8
Layer 1
10
48.101233
20
-50.800000
11
51.249773
21
-50.800000
0
LINE
8
Layer 1
10
51.249773
20
-50.800000
11
51.540814
21
-49.794580
0
LINE
8
Layer 1
10
51.540814
20
-49.794580
11
51.831855
21
-48.815623
0
LINE
8
Layer 1
10
51.831855
20
-48.815623
11
53.287065
21
-48.894998
0
LINE
8
Layer 1
10
53.287065
20
-48.894998
11
54.411544
21
-49.073591
0
LINE
8
Layer 1
10
54.411544
20
-49.073591
11
55.059775
21
-49.371247
0
LINE
8
Layer 1
10
55.059775
20
-49.371247
11
55.368593
21
-49.551907
0
LINE
8
Layer 1
10
55.368593
20
-49.551907
11
56.002352
21
-49.665595
0
LINE
8
Layer 1
10
56.002352
20
-49.665595
11
58.631645
21
-49.741663
0
LINE
8
Layer 1
10
58.631645
20
-49.741663
11
61.886015
21
-49.741663
0
LINE
8
Layer 1
10
61.886015
20
-49.741663
11
61.965390
21
-48.339373
0
LINE
8
Layer 1
10
61.965390
20
-48.339373
11
62.044765
21
-46.963543
0
LINE
8
Layer 1
10
62.044765
20
-46.963543
11
63.579345
21
-46.804793
0
LINE
8
Layer 1
10
63.579345
20
-46.804793
11
64.703978
21
-46.595348
0
LINE
8
Layer 1
10
64.703978
20
-46.595348
11
65.720401
21
-46.220643
0
LINE
8
Layer 1
10
65.720401
20
-46.220643
11
66.634504
21
-45.674165
0
LINE
8
Layer 1
10
66.634504
20
-45.674165
11
67.452179
21
-44.949404
0
LINE
8
Layer 1
10
67.452179
20
-44.949404
11
68.179317
21
-44.039848
0
LINE
8
Layer 1
10
68.179317
20
-44.039848
11
68.821810
21
-42.938987
0
LINE
8
Layer 1
10
68.821810
20
-42.938987
11
69.876425
21
-40.137303
0
LINE
8
Layer 1
10
69.876425
20
-40.137303
11
70.315880
21
-37.892482
0
LINE
8
Layer 1
10
70.315880
20
-37.892482
11
70.514731
21
-35.394654
0
LINE
8
Layer 1
10
70.514731
20
-35.394654
11
70.460574
21
-33.105185
0
LINE
8
Layer 1
10
70.460574
20
-33.105185
11
70.141008
21
-31.485443
0
LINE
8
Layer 1
10
70.141008
20
-31.485443
11
69.570501
21
-30.314665
0
LINE
8
Layer 1
10
69.570501
20
-30.314665
11
68.890854
21
-29.302635
0
LINE
8
Layer 1
10
68.890854
20
-29.302635
11
68.102067
21
-28.449355
0
LINE
8
Layer 1
10
68.102067
20
-28.449355
11
67.204138
21
-27.754823
0
LINE
8
Layer 1
10
67.204138
20
-27.754823
11
66.475295
21
-27.232685
0
LINE
8
Layer 1
10
66.475295
20
-27.232685
11
65.977134
21
-26.613809
0
LINE
8
Layer 1
10
65.977134
20
-26.613809
11
64.849348
21
-23.627333
0
LINE
8
Layer 1
10
64.849348
20
-23.627333
11
62.177058
21
-16.854013
0
LINE
8
Layer 1
10
62.177058
20
-16.854013
11
60.642478
21
-13.387973
0
LINE
8
Layer 1
10
60.642478
20
-13.387973
11
61.251019
21
-12.594224
0
LINE
8
Layer 1
10
61.251019
20
-12.594224
11
62.203517
21
-11.046414
0
LINE
8
Layer 1
10
62.203517
20
-11.046414
11
62.679769
21
-9.419224
0
LINE
8
Layer 1
10
62.679769
20
-9.419224
11
62.779814
21
-8.264570
0
LINE
8
Layer 1
10
62.779814
20
-8.264570
11
62.626852
21
-6.690715
0
LINE
8
Layer 1
10
62.626852
20
-6.690715
11
61.224559
21
-0.291114
0
LINE
8
Layer 1
10
61.224559
20
-0.291114
11
60.007479
21
4.815336
0
LINE
8
Layer 1
10
60.007479
20
4.815336
11
57.705609
21
2.539926
0
LINE
8
Layer 1
10
57.705609
20
2.539926
11
55.430199
21
0.264516
0
LINE
8
Layer 1
10
55.430199
20
0.264516
11
53.181239
21
0.264516
0
LINE
8
Layer 1
10
53.181239
20
0.264516
11
50.932279
21
0.264516
0
LINE
8
Layer 1
10
50.932279
20
0.264516
11
48.656869
21
2.539926
0
LINE
8
Layer 1
10
48.656869
20
2.539926
11
46.765100
21
4.302711
0
LINE
8
Layer 1
10
46.765100
20
4.302711
11
46.379803
21
4.493292
0
LINE
8
Layer 1
10
46.379803
20
4.493292
11
46.222709
21
4.339086
0
LINE
8
Layer 1
10
46.222709
20
4.339086
11
46.222700
21
4.339060
0
LINE
8
Layer 1
10
48.709780
20
1.587400
11
50.588320
21
-0.264680
0
LINE
8
Layer 1
10
50.588320
20
-0.264680
11
53.128320
21
-0.264680
0
LINE
8
Layer 1
10
53.128320
20
-0.264680
11
55.694780
21
-0.264680
0
LINE
8
Layer 1
10
55.694780
20
-0.264680
11
57.599780
21
1.640320
0
LINE
8
Layer 1
10
57.599780
20
1.640320
11
58.985531
21
2.953313
0
LINE
8
Layer 1
10
58.985531
20
2.953313
11
59.637070
21
3.413030
0
LINE
8
Layer 1
10
59.637070
20
3.413030
11
60.125722
21
1.814370
0
LINE
8
Layer 1
10
60.125722
20
1.814370
11
60.926912
21
-1.537983
0
LINE
8
Layer 1
10
60.926912
20
-1.537983
11
62.097690
21
-7.461370
0
LINE
8
Layer 1
10
62.097690
20
-7.461370
11
62.111746
21
-9.033157
0
LINE
8
Layer 1
10
62.111746
20
-9.033157
11
61.813264
21
-10.371781
0
LINE
8
Layer 1
10
61.813264
20
-10.371781
11
61.167517
21
-11.591345
0
LINE
8
Layer 1
10
61.167517
20
-11.591345
11
60.139780
21
-12.805950
0
LINE
8
Layer 1
10
60.139780
20
-12.805950
11
58.636101
21
-14.030886
0
LINE
8
Layer 1
10
58.636101
20
-14.030886
11
56.960651
21
-14.925921
0
LINE
8
Layer 1
10
56.960651
20
-14.925921
11
55.169860
21
-15.488573
0
LINE
8
Layer 1
10
55.169860
20
-15.488573
11
53.320160
21
-15.716363
0
LINE
8
Layer 1
10
53.320160
20
-15.716363
11
51.467981
21
-15.606809
0
LINE
8
Layer 1
10
51.467981
20
-15.606809
11
49.669754
21
-15.157432
0
LINE
8
Layer 1
10
49.669754
20
-15.157432
11
47.981910
21
-14.365750
0
LINE
8
Layer 1
10
47.981910
20
-14.365750
11
46.460880
21
-13.229283
0
LINE
8
Layer 1
10
46.460880
20
-13.229283
11
45.446783
21
-12.127542
0
LINE
8
Layer 1
10
45.446783
20
-12.127542
11
44.737785
21
-10.983634
0
LINE
8
Layer 1
10
44.737785
20
-10.983634
11
44.321482
21
-9.765314
0
LINE
8
Layer 1
10
44.321482
20
-9.765314
11
44.185470
21
-8.440333
0
LINE
8
Layer 1
10
44.185470
20
-8.440333
11
44.532735
21
-5.926795
0
LINE
8
Layer 1
10
44.532735
20
-5.926795
11
45.376090
21
-1.905133
0
LINE
8
Layer 1
10
45.376090
20
-1.905133
11
46.566710
21
3.307157
0
LINE
8
Layer 1
10
46.566710
20
3.307157
11
46.644845
21
3.421672
0
LINE
8
Layer 1
10
46.644845
20
3.421672
11
46.953663
21
3.231089
0
LINE
8
Layer 1
10
46.953663
20
3.231089
11
48.709830
21
1.587367
0
LINE
8
Layer 1
10
48.709830
20
1.587367
11
48.709780
21
1.587400
0
LINE
8
Layer 1
10
61.118680
20
-16.007400
11
62.726433
21
-19.646245
0
LINE
8
Layer 1
10
62.726433
20
-19.646245
11
64.019169
21
-22.972551
0
LINE
8
Layer 1
10
64.019169
20
-22.972551
11
64.820772
21
-25.495182
0
LINE
8
Layer 1
10
64.820772
20
-25.495182
11
64.982364
21
-26.301638
0
LINE
8
Layer 1
10
64.982364
20
-26.301638
11
64.955130
21
-26.723000
0
LINE
8
Layer 1
10
64.955130
20
-26.723000
11
65.087421
21
-28.998410
0
LINE
8
Layer 1
10
65.087421
20
-28.998410
11
65.236249
21
-31.048513
0
LINE
8
Layer 1
10
65.236249
20
-31.048513
11
65.087421
21
-33.274730
0
LINE
8
Layer 1
10
65.087421
20
-33.274730
11
64.640939
21
-35.684502
0
LINE
8
Layer 1
10
64.640939
20
-35.684502
11
63.896801
21
-38.285270
0
LINE
8
Layer 1
10
63.896801
20
-38.285270
11
62.362219
21
-42.197792
0
LINE
8
Layer 1
10
62.362219
20
-42.197792
11
61.656939
21
-43.624472
0
LINE
8
Layer 1
10
61.656939
20
-43.624472
11
61.224511
21
-44.185470
0
LINE
8
Layer 1
10
61.224511
20
-44.185470
11
60.272012
21
-43.762137
0
LINE
8
Layer 1
10
60.272012
20
-43.762137
11
59.147535
21
-43.454559
0
LINE
8
Layer 1
10
59.147535
20
-43.454559
11
57.229312
21
-43.444637
0
LINE
8
Layer 1
10
57.229312
20
-43.444637
11
55.006812
21
-43.524012
0
LINE
8
Layer 1
10
55.006812
20
-43.524012
11
54.821604
21
-42.730263
0
LINE
8
Layer 1
10
54.821604
20
-42.730263
11
54.674843
21
-42.314785
0
LINE
8
Layer 1
10
54.674843
20
-42.314785
11
54.461109
21
-42.065498
0
LINE
8
Layer 1
10
54.461109
20
-42.065498
11
53.525144
21
-41.857139
0
LINE
8
Layer 1
10
53.525144
20
-41.857139
11
52.440354
21
-41.777764
0
LINE
8
Layer 1
10
52.440354
20
-41.777764
11
52.096396
21
-43.100684
0
LINE
8
Layer 1
10
52.096396
20
-43.100684
11
51.752438
21
-44.450054
0
LINE
8
Layer 1
10
51.752438
20
-44.450054
11
48.921398
21
-44.450054
0
LINE
8
Layer 1
10
48.921398
20
-44.450054
11
46.063898
21
-44.450054
0
LINE
8
Layer 1
10
46.063898
20
-44.450054
11
45.137858
21
-42.783184
0
LINE
8
Layer 1
10
45.137858
20
-42.783184
11
43.591288
21
-39.628446
0
LINE
8
Layer 1
10
43.591288
20
-39.628446
11
42.449033
21
-36.416654
0
LINE
8
Layer 1
10
42.449033
20
-36.416654
11
41.718536
21
-33.180052
0
LINE
8
Layer 1
10
41.718536
20
-33.180052
11
41.407238
21
-29.950884
0
LINE
8
Layer 1
10
41.407238
20
-29.950884
11
41.365897
21
-28.209186
0
LINE
8
Layer 1
10
41.365897
20
-28.209186
11
41.453540
21
-26.971020
0
LINE
8
Layer 1
10
41.453540
20
-26.971020
11
41.749542
21
-25.727891
0
LINE
8
Layer 1
10
41.749542
20
-25.727891
11
42.333278
21
-23.971304
0
LINE
8
Layer 1
10
42.333278
20
-23.971304
11
43.983615
21
-19.460163
0
LINE
8
Layer 1
10
43.983615
20
-19.460163
11
45.614108
21
-15.504644
0
LINE
8
Layer 1
10
45.614108
20
-15.504644
11
46.265644
21
-14.237951
0
LINE
8
Layer 1
10
46.265644
20
-14.237951
11
46.495915
21
-14.161470
0
LINE
8
Layer 1
10
46.495915
20
-14.161470
11
46.778278
21
-14.340474
0
LINE
8
Layer 1
10
46.778278
20
-14.340474
11
47.531099
21
-14.874601
0
LINE
8
Layer 1
10
47.531099
20
-14.874601
11
48.534448
21
-15.378963
0
LINE
8
Layer 1
10
48.534448
20
-15.378963
11
50.905768
21
-16.139634
0
LINE
8
Layer 1
10
50.905768
20
-16.139634
11
53.084442
21
-16.317401
0
LINE
8
Layer 1
10
53.084442
20
-16.317401
11
55.357375
21
-16.053644
0
LINE
8
Layer 1
10
55.357375
20
-16.053644
11
57.461638
21
-15.402936
0
LINE
8
Layer 1
10
57.461638
20
-15.402936
11
59.134298
21
-14.419844
0
LINE
8
Layer 1
10
59.134298
20
-14.419844
11
60.007422
21
-13.758387
0
LINE
8
Layer 1
10
60.007422
20
-13.758387
11
61.118672
21
-16.007347
0
LINE
8
Layer 1
10
61.118672
20
-16.007347
11
61.118680
21
-16.007400
0
LINE
8
Layer 1
10
68.024300
20
-29.289500
11
68.988787
21
-30.480121
0
LINE
8
Layer 1
10
68.988787
20
-30.480121
11
69.588645
21
-31.730275
0
LINE
8
Layer 1
10
69.588645
20
-31.730275
11
69.895808
21
-33.248322
0
LINE
8
Layer 1
10
69.895808
20
-33.248322
11
69.982210
21
-35.242620
0
LINE
8
Layer 1
10
69.982210
20
-35.242620
11
69.906142
21
-37.379128
0
LINE
8
Layer 1
10
69.906142
20
-37.379128
11
69.691169
21
-38.364700
0
LINE
8
Layer 1
10
69.691169
20
-38.364700
11
69.546475
21
-38.437047
0
LINE
8
Layer 1
10
69.546475
20
-38.437047
11
69.426586
21
-38.328320
0
LINE
8
Layer 1
10
69.426586
20
-38.328320
11
69.241378
21
-37.518034
0
LINE
8
Layer 1
10
69.241378
20
-37.518034
11
68.312032
21
-33.790720
0
LINE
8
Layer 1
10
68.312032
20
-33.790720
11
66.965968
21
-29.686374
0
LINE
8
Layer 1
10
66.965968
20
-29.686374
11
66.410344
21
-28.151794
0
LINE
8
Layer 1
10
66.410344
20
-28.151794
11
66.569507
21
-28.113760
0
LINE
8
Layer 1
10
66.569507
20
-28.113760
11
66.969276
21
-28.343617
0
LINE
8
Layer 1
10
66.969276
20
-28.343617
11
68.024304
21
-29.289504
0
LINE
8
Layer 1
10
68.024304
20
-29.289504
11
68.024300
21
-29.289500
0
LINE
8
Layer 1
10
67.600967
20
-33.469910
11
68.818047
21
-38.364700
0
LINE
8
Layer 1
10
68.818047
20
-38.364700
11
69.006562
21
-40.259776
0
LINE
8
Layer 1
10
69.006562
20
-40.259776
11
68.659297
21
-41.777820
0
LINE
8
Layer 1
10
68.659297
20
-41.777820
11
68.254206
21
-42.738277
0
LINE
8
Layer 1
10
68.254206
20
-42.738277
11
67.710518
21
-43.622460
0
LINE
8
Layer 1
10
67.710518
20
-43.622460
11
66.307814
21
-45.085107
0
LINE
8
Layer 1
10
66.307814
20
-45.085107
11
65.499027
21
-45.625125
0
LINE
8
Layer 1
10
65.499027
20
-45.625125
11
64.652104
21
-46.011974
0
LINE
8
Layer 1
10
64.652104
20
-46.011974
11
63.792159
21
-46.226430
0
LINE
8
Layer 1
10
63.792159
20
-46.226430
11
62.944307
21
-46.249270
0
LINE
8
Layer 1
10
62.944307
20
-46.249270
11
62.169163
21
-46.005771
0
LINE
8
Layer 1
10
62.169163
20
-46.005771
11
61.862824
21
-45.432370
0
LINE
8
Layer 1
10
61.862824
20
-45.432370
11
62.017853
21
-44.467057
0
LINE
8
Layer 1
10
62.017853
20
-44.467057
11
62.626807
21
-43.047820
0
LINE
8
Layer 1
10
62.626807
20
-43.047820
11
64.045636
21
-39.659504
0
LINE
8
Layer 1
10
64.045636
20
-39.659504
11
65.107276
21
-36.082674
0
LINE
8
Layer 1
10
65.107276
20
-36.082674
11
65.722432
21
-32.674517
0
LINE
8
Layer 1
10
65.722432
20
-32.674517
11
65.801807
21
-29.792220
0
LINE
8
Layer 1
10
65.801807
20
-29.792220
11
65.669516
21
-28.178260
0
LINE
8
Layer 1
10
65.669516
20
-28.178260
11
66.198682
21
-29.368880
0
LINE
8
Layer 1
10
66.198682
20
-29.368880
11
67.600972
21
-33.469920
0
LINE
8
Layer 1
10
67.600972
20
-33.469920
11
67.600967
21
-33.469910
0
LINE
8
Layer 1
10
39.184767
20
-31.670750
11
38.530389
21
-33.787930
0
LINE
8
Layer 1
10
38.530389
20
-33.787930
11
38.097082
21
-35.655204
0
LINE
8
Layer 1
10
38.097082
20
-35.655204
11
37.887638
21
-37.302958
0
LINE
8
Layer 1
10
37.887638
20
-37.302958
11
37.904846
21
-38.761579
0
LINE
8
Layer 1
10
37.904846
20
-38.761579
11
38.151497
21
-40.061452
0
LINE
8
Layer 1
10
38.151497
20
-40.061452
11
38.630382
21
-41.232965
0
LINE
8
Layer 1
10
38.630382
20
-41.232965
11
39.344292
21
-42.306502
0
LINE
8
Layer 1
10
39.344292
20
-42.306502
11
40.296017
21
-43.312450
0
LINE
8
Layer 1
10
40.296017
20
-43.312450
11
41.527156
21
-44.281897
0
LINE
8
Layer 1
10
41.527156
20
-44.281897
11
42.981536
21
-44.817265
0
LINE
8
Layer 1
10
42.981536
20
-44.817265
11
45.289196
21
-45.050015
0
LINE
8
Layer 1
10
45.289196
20
-45.050015
11
49.080177
21
-45.111610
0
LINE
8
Layer 1
10
49.080177
20
-45.111610
11
55.218507
21
-45.349735
0
LINE
8
Layer 1
10
55.218507
20
-45.349735
11
55.702198
21
-45.647391
0
LINE
8
Layer 1
10
55.702198
20
-45.647391
11
55.952726
21
-46.103797
0
LINE
8
Layer 1
10
55.952726
20
-46.103797
11
55.955207
21
-46.659422
0
LINE
8
Layer 1
10
55.955207
20
-46.659422
11
55.694756
21
-47.254735
0
LINE
8
Layer 1
10
55.694756
20
-47.254735
11
55.108126
21
-47.913713
0
LINE
8
Layer 1
10
55.108126
20
-47.913713
11
54.315617
21
-48.240308
0
LINE
8
Layer 1
10
54.315617
20
-48.240308
11
53.160960
21
-48.259324
0
LINE
8
Layer 1
10
53.160960
20
-48.259324
11
51.487886
21
-47.995567
0
LINE
8
Layer 1
10
51.487886
20
-47.995567
11
49.106638
21
-47.684682
0
LINE
8
Layer 1
10
49.106638
20
-47.684682
11
46.566646
21
-47.889734
0
LINE
8
Layer 1
10
46.566646
20
-47.889734
11
44.406987
21
-48.078249
0
LINE
8
Layer 1
10
44.406987
20
-48.078249
11
42.862486
21
-48.048484
0
LINE
8
Layer 1
10
42.862486
20
-48.048484
11
41.624733
21
-47.721321
0
LINE
8
Layer 1
10
41.624733
20
-47.721321
11
40.426667
21
-47.152623
0
LINE
8
Layer 1
10
40.426667
20
-47.152623
11
39.290614
21
-46.366263
0
LINE
8
Layer 1
10
39.290614
20
-46.366263
11
38.238897
21
-45.386118
0
LINE
8
Layer 1
10
38.238897
20
-45.386118
11
37.293840
21
-44.236061
0
LINE
8
Layer 1
10
37.293840
20
-44.236061
11
36.477766
21
-42.939966
0
LINE
8
Layer 1
10
36.477766
20
-42.939966
11
35.813001
21
-41.521709
0
LINE
8
Layer 1
10
35.813001
20
-41.521709
11
35.321866
21
-40.005164
0
LINE
8
Layer 1
10
35.321866
20
-40.005164
11
35.115212
21
-38.820794
0
LINE
8
Layer 1
10
35.115212
20
-38.820794
11
35.087462
21
-37.599526
0
LINE
8
Layer 1
10
35.087462
20
-37.599526
11
35.233964
21
-36.356554
0
LINE
8
Layer 1
10
35.233964
20
-36.356554
11
35.550069
21
-35.107070
0
LINE
8
Layer 1
10
35.550069
20
-35.107070
11
36.031124
21
-33.866269
0
LINE
8
Layer 1
10
36.031124
20
-33.866269
11
36.672479
21
-32.649342
0
LINE
8
Layer 1
10
36.672479
20
-32.649342
11
37.469483
21
-31.471482
0
LINE
8
Layer 1
10
37.469483
20
-31.471482
11
38.417486
21
-30.347884
0
LINE
8
Layer 1
10
38.417486
20
-30.347884
11
39.350143
21
-29.444994
0
LINE
8
Layer 1
10
39.350143
20
-29.444994
11
39.846236
21
-29.157264
0
LINE
8
Layer 1
10
39.846236
20
-29.157264
11
39.713945
21
-29.957627
0
LINE
8
Layer 1
10
39.713945
20
-29.957627
11
39.184779
21
-31.670804
0
LINE
8
Layer 1
10
39.184779
20
-31.670804
11
39.184767
21
-31.670750
0
LINE
8
Layer 1
10
41.698307
20
-35.851160
11
43.193201
21
-40.104334
0
LINE
8
Layer 1
10
43.193201
20
-40.104334
11
44.057231
21
-42.020079
0
LINE
8
Layer 1
10
44.057231
20
-42.020079
11
44.846847
21
-43.444690
0
LINE
8
Layer 1
10
44.846847
20
-43.444690
11
45.508305
21
-44.450110
0
LINE
8
Layer 1
10
45.508305
20
-44.450110
11
44.846847
21
-44.450110
0
LINE
8
Layer 1
10
44.846847
20
-44.450110
11
43.616949
21
-44.331461
0
LINE
8
Layer 1
10
43.616949
20
-44.331461
11
42.468906
21
-43.977168
0
LINE
8
Layer 1
10
42.468906
20
-43.977168
11
41.405198
21
-43.389711
0
LINE
8
Layer 1
10
41.405198
20
-43.389711
11
40.428307
21
-42.571570
0
LINE
8
Layer 1
10
40.428307
20
-42.571570
11
39.630422
21
-41.648732
0
LINE
8
Layer 1
10
39.630422
20
-41.648732
11
39.040897
21
-40.665744
0
LINE
8
Layer 1
10
39.040897
20
-40.665744
11
38.657251
21
-39.592220
0
LINE
8
Layer 1
10
38.657251
20
-39.592220
11
38.477004
21
-38.397775
0
LINE
8
Layer 1
10
38.477004
20
-38.397775
11
38.497674
21
-37.052023
0
LINE
8
Layer 1
10
38.497674
20
-37.052023
11
38.716783
21
-35.524578
0
LINE
8
Layer 1
10
38.716783
20
-35.524578
11
39.740391
21
-31.803070
0
LINE
8
Layer 1
10
39.740391
20
-31.803070
11
40.613515
21
-29.236610
0
LINE
8
Layer 1
10
40.613515
20
-29.236610
11
40.798723
21
-31.353270
0
LINE
8
Layer 1
10
40.798723
20
-31.353270
11
41.159217
21
-33.542698
0
LINE
8
Layer 1
10
41.159217
20
-33.542698
11
41.698305
21
-35.851180
0
LINE
8
Layer 1
10
41.698305
20
-35.851180
11
41.698307
21
-35.851160
0
LINE
8
Layer 1
10
54.318907
20
-43.259480
11
54.530573
21
-44.053229
0
LINE
8
Layer 1
10
54.530573
20
-44.053229
11
57.149943
21
-44.053229
0
LINE
8
Layer 1
10
57.149943
20
-44.053229
11
59.415437
21
-44.152448
0
LINE
8
Layer 1
10
59.415437
20
-44.152448
11
60.018602
21
-44.321119
0
LINE
8
Layer 1
10
60.018602
20
-44.321119
11
60.510143
21
-44.608853
0
LINE
8
Layer 1
10
60.510143
20
-44.608853
11
60.917353
21
-44.959839
0
LINE
8
Layer 1
10
60.917353
20
-44.959839
11
61.148449
21
-45.372836
0
LINE
8
Layer 1
10
61.148449
20
-45.372836
11
61.330350
21
-47.069473
0
LINE
8
Layer 1
10
61.330350
20
-47.069473
11
61.409725
21
-48.948013
0
LINE
8
Layer 1
10
61.409725
20
-48.948013
11
58.340565
21
-48.948013
0
LINE
8
Layer 1
10
58.340565
20
-48.948013
11
56.194139
21
-48.891789
0
LINE
8
Layer 1
10
56.194139
20
-48.891789
11
55.297865
21
-48.736347
0
LINE
8
Layer 1
10
55.297865
20
-48.736347
11
55.959322
21
-47.916140
0
LINE
8
Layer 1
10
55.959322
20
-47.916140
11
56.460789
21
-47.235666
0
LINE
8
Layer 1
10
56.460789
20
-47.235666
11
56.617472
21
-46.500621
0
LINE
8
Layer 1
10
56.617472
20
-46.500621
11
56.431851
21
-45.765576
0
LINE
8
Layer 1
10
56.431851
20
-45.765576
11
55.906405
21
-45.085100
0
LINE
8
Layer 1
10
55.906405
20
-45.085100
11
55.053126
21
-44.546012
0
LINE
8
Layer 1
10
55.053126
20
-44.546012
11
53.763285
21
-44.503017
0
LINE
8
Layer 1
10
53.763285
20
-44.503017
11
52.360995
21
-44.582392
0
LINE
8
Layer 1
10
52.360995
20
-44.582392
11
52.519745
21
-43.656352
0
LINE
8
Layer 1
10
52.519745
20
-43.656352
11
52.863704
21
-42.525261
0
LINE
8
Layer 1
10
52.863704
20
-42.525261
11
53.122500
21
-42.368990
0
LINE
8
Layer 1
10
53.122500
20
-42.368990
11
53.525165
21
-42.386352
0
LINE
8
Layer 1
10
53.525165
20
-42.386352
11
54.001415
21
-42.654242
0
LINE
8
Layer 1
10
54.001415
20
-42.654242
11
54.318914
21
-43.259476
0
LINE
8
Layer 1
10
54.318914
20
-43.259476
11
54.318907
21
-43.259480
0
LINE
8
Layer 1
10
51.170367
20
-49.133220
11
50.879326
21
-50.059260
0
LINE
8
Layer 1
10
50.879326
20
-50.059260
11
50.065734
21
-50.214702
0
LINE
8
Layer 1
10
50.065734
20
-50.214702
11
48.259956
21
-50.270926
0
LINE
8
Layer 1
10
48.259956
20
-50.270926
11
45.772876
21
-50.270926
0
LINE
8
Layer 1
10
45.772876
20
-50.270926
11
45.772876
21
-49.503635
0
LINE
8
Layer 1
10
45.772876
20
-49.503635
11
45.875402
21
-48.914938
0
LINE
8
Layer 1
10
45.875402
20
-48.914938
11
46.116834
21
-48.604053
0
LINE
8
Layer 1
10
46.116834
20
-48.604053
11
48.894954
21
-48.445303
0
LINE
8
Layer 1
10
48.894954
20
-48.445303
11
51.329114
21
-48.418845
0
LINE
8
Layer 1
10
51.329114
20
-48.418845
11
51.170364
21
-49.133219
0
LINE
8
Layer 1
10
51.170364
20
-49.133219
11
51.170367
21
-49.133220
0
LINE
8
Layer 1
10
48.127600
20
-6.270720
11
47.889475
21
-6.617985
0
LINE
8
Layer 1
10
47.889475
20
-6.617985
11
48.286350
21
-6.350095
0
LINE
8
Layer 1
10
48.286350
20
-6.350095
11
48.921349
21
-5.900304
0
LINE
8
Layer 1
10
48.921349
20
-5.900304
11
48.762599
21
-5.820929
0
LINE
8
Layer 1
10
48.762599
20
-5.820929
11
48.127600
21
-6.270720
0
LINE
8
Layer 1
10
48.127600
20
-6.270720
11
48.127600
21
-6.270720
0
LINE
8
Layer 1
10
56.091600
20
-6.085510
11
56.177590
21
-6.267411
0
LINE
8
Layer 1
10
56.177590
20
-6.267411
11
56.382641
21
-6.350093
0
LINE
8
Layer 1
10
56.382641
20
-6.350093
11
56.514933
21
-6.267411
0
LINE
8
Layer 1
10
56.514933
20
-6.267411
11
56.488474
21
-6.085510
0
LINE
8
Layer 1
10
56.488474
20
-6.085510
11
56.197433
21
-5.820927
0
LINE
8
Layer 1
10
56.197433
20
-5.820927
11
56.091600
21
-6.085510
0
LINE
8
Layer 1
10
56.091600
20
-6.085510
11
56.091600
21
-6.085510
0
LINE
8
Layer 1
10
55.033300
20
-6.985090
11
55.509549
21
-7.434881
0
LINE
8
Layer 1
10
55.509549
20
-7.434881
11
55.827048
21
-7.669699
0
LINE
8
Layer 1
10
55.827048
20
-7.669699
11
55.588924
21
-7.329048
0
LINE
8
Layer 1
10
55.588924
20
-7.329048
11
55.182128
21
-6.918944
0
LINE
8
Layer 1
10
55.182128
20
-6.918944
11
55.033300
21
-6.985090
0
LINE
8
Layer 1
10
55.033300
20
-6.985090
11
55.033300
21
-6.985090
0
LINE
8
Layer 1
10
47.889500
20
-7.249670
11
48.286374
21
-7.673003
0
LINE
8
Layer 1
10
48.286374
20
-7.673003
11
48.574108
21
-7.828445
0
LINE
8
Layer 1
10
48.574108
20
-7.828445
11
48.683249
21
-7.725920
0
LINE
8
Layer 1
10
48.683249
20
-7.725920
11
48.286374
21
-7.302587
0
LINE
8
Layer 1
10
48.286374
20
-7.302587
11
47.889500
21
-7.249670
0
LINE
8
Layer 1
10
47.889500
20
-7.249670
11
47.889500
21
-7.249670
0
LINE
8
Layer 1
10
3.175000
20
-66.145800
11
3.112149
21
-66.160663
0
LINE
8
Layer 1
10
3.112149
20
-66.160663
11
3.591202
21
-66.175411
0
LINE
8
Layer 1
10
3.591202
20
-66.175411
11
6.073012
21
-66.204091
0
LINE
8
Layer 1
10
6.073012
20
-66.204091
11
16.417380
21
-66.254941
0
LINE
8
Layer 1
10
16.417380
20
-66.254941
11
52.916600
21
-66.304550
0
LINE
8
Layer 1
10
52.916600
20
-66.304550
11
89.534875
21
-66.271477
0
LINE
8
Layer 1
10
89.534875
20
-66.271477
11
100.005753
21
-66.207812
0
LINE
8
Layer 1
10
100.005753
20
-66.207812
11
102.561057
21
-66.166367
0
LINE
8
Layer 1
10
102.561057
20
-66.166367
11
103.078603
21
-66.143514
0
LINE
8
Layer 1
10
103.078603
20
-66.143514
11
103.055100
21
-66.119342
0
LINE
8
Layer 1
10
103.055100
20
-66.119342
11
86.823766
21
-66.004414
0
LINE
8
Layer 1
10
86.823766
20
-66.004414
11
53.869134
21
-65.973822
0
LINE
8
Layer 1
10
53.869134
20
-65.973822
11
3.175000
21
-66.145800
0
LINE
8
Layer 1
10
3.175000
20
-66.145800
11
3.175000
21
-66.145800
 0 
ENDSEC
 0 
EOF