999
"DXF R12 Output" (www.mydxf.blogspot.com)
 0 
SECTION
 2 
HEADER
 9 
$ACADVER
 1 
AC1009
 9 
$EXTMIN
 10 
 0 
 20 
 0 
 9 
$EXTMAX
 10 
 8.5 
 20 
 11 
 0 
ENDSEC
 0 
SECTION
 2 
ENTITIES
0
LINE
8
Layer 1
10
29.636500
20
52.862700
11
29.636500
21
45.731420
0
LINE
8
Layer 1
10
29.636500
20
45.731420
11
29.259428
21
45.685113
0
LINE
8
Layer 1
10
29.259428
20
45.685113
11
23.464438
21
45.652037
0
LINE
8
Layer 1
10
23.464438
20
45.652037
11
18.053128
21
45.658652
0
LINE
8
Layer 1
10
18.053128
20
45.658652
11
17.742209
21
46.035724
0
LINE
8
Layer 1
10
17.742209
20
46.035724
11
16.438999
21
47.570474
0
LINE
8
Layer 1
10
16.438999
20
47.570474
11
14.950559
21
49.316914
0
LINE
8
Layer 1
10
14.950559
20
49.316914
11
13.548119
21
50.924434
0
LINE
8
Layer 1
10
13.548119
20
50.924434
11
13.495197
21
40.022434
0
LINE
8
Layer 1
10
13.495197
20
40.022434
11
13.495197
21
29.093934
0
LINE
8
Layer 1
10
13.495197
20
29.093934
11
13.779654
21
28.783015
0
LINE
8
Layer 1
10
13.779654
20
28.783015
11
15.182094
21
27.407035
0
LINE
8
Layer 1
10
15.182094
20
27.407035
11
17.072412
21
25.556409
0
LINE
8
Layer 1
10
17.072412
20
25.556409
11
17.960514
21
24.013395
0
LINE
8
Layer 1
10
17.960514
20
24.013395
11
20.097254
21
19.779605
0
LINE
8
Layer 1
10
20.097254
20
19.779605
11
21.460004
21
17.034255
0
LINE
8
Layer 1
10
21.460004
20
17.034255
11
22.419221
21
16.008885
0
LINE
8
Layer 1
10
22.419221
20
16.008885
11
25.369641
21
12.899695
0
LINE
8
Layer 1
10
25.369641
20
12.899695
11
29.391741
21
8.626215
0
LINE
8
Layer 1
10
29.391741
20
8.626215
11
29.636507
21
8.354988
0
LINE
8
Layer 1
10
29.636507
20
8.354988
11
29.636507
21
4.213818
0
LINE
8
Layer 1
10
29.636507
20
4.213818
11
29.636507
21
0.072648
0
LINE
8
Layer 1
10
29.636507
20
0.072648
11
29.094053
21
0.046187
0
LINE
8
Layer 1
10
29.094053
20
0.046187
11
28.812076
21
0.029648
0
LINE
8
Layer 1
10
28.812076
20
0.029648
11
29.358665
21
0.013110
0
LINE
8
Layer 1
10
29.358665
20
0.013110
11
30.165730
21
-0.000121
0
LINE
8
Layer 1
10
30.165730
20
-0.000121
11
30.165730
21
4.220439
0
LINE
8
Layer 1
10
30.165730
20
4.220439
11
30.172345
21
8.434379
0
LINE
8
Layer 1
10
30.172345
20
8.434379
11
31.244025
21
9.558979
0
LINE
8
Layer 1
10
31.244025
20
9.558979
11
34.207675
21
12.701239
0
LINE
8
Layer 1
10
34.207675
20
12.701239
11
37.158095
21
15.850119
0
LINE
8
Layer 1
10
37.158095
20
15.850119
11
38.223155
21
16.974719
0
LINE
8
Layer 1
10
38.223155
20
16.974719
11
39.347755
21
19.157769
0
LINE
8
Layer 1
10
39.347755
20
19.157769
11
41.517575
21
23.371709
0
LINE
8
Layer 1
10
41.517575
20
23.371709
11
42.556175
21
25.415829
0
LINE
8
Layer 1
10
42.556175
20
25.415829
11
44.434915
21
27.241649
0
LINE
8
Layer 1
10
44.434915
20
27.241649
11
46.307045
21
29.067469
0
LINE
8
Layer 1
10
46.307045
20
29.067469
11
46.300430
21
40.048869
0
LINE
8
Layer 1
10
46.300430
20
40.048869
11
46.300430
21
51.036869
0
LINE
8
Layer 1
10
46.300430
20
51.036869
11
46.055664
21
50.745796
0
LINE
8
Layer 1
10
46.055664
20
50.745796
11
41.735884
21
45.711556
0
LINE
8
Layer 1
10
41.735884
20
45.711556
11
35.940894
21
45.678480
0
LINE
8
Layer 1
10
35.940894
20
45.678480
11
30.198824
21
45.678480
0
LINE
8
Layer 1
10
30.198824
20
45.678480
11
30.178978
21
52.842840
0
LINE
8
Layer 1
10
30.178978
20
52.842840
11
30.165747
21
60.000580
0
LINE
8
Layer 1
10
30.165747
20
60.000580
11
29.901135
21
60.000580
0
LINE
8
Layer 1
10
29.901135
20
60.000580
11
29.636523
21
60.000580
0
LINE
8
Layer 1
10
29.636523
20
60.000580
11
29.636523
21
52.862680
0
LINE
8
Layer 1
10
29.636523
20
52.862680
11
29.636500
21
52.862700
0
LINE
8
Layer 1
10
45.791000
20
39.480000
11
45.764539
21
29.272600
0
LINE
8
Layer 1
10
45.764539
20
29.272600
11
45.394083
21
28.869067
0
LINE
8
Layer 1
10
45.394083
20
28.869067
11
44.950859
21
28.452304
0
LINE
8
Layer 1
10
44.950859
20
28.452304
11
44.904552
21
37.038954
0
LINE
8
Layer 1
10
44.904552
20
37.038954
11
44.917782
21
45.632214
0
LINE
8
Layer 1
10
44.917782
20
45.632214
11
43.951950
21
45.678521
0
LINE
8
Layer 1
10
43.951950
20
45.678521
11
42.695040
21
45.691752
0
LINE
8
Layer 1
10
42.695040
20
45.691752
11
42.403967
21
45.691752
0
LINE
8
Layer 1
10
42.403967
20
45.691752
11
43.085342
21
46.492202
0
LINE
8
Layer 1
10
43.085342
20
46.492202
11
44.315782
21
47.927722
0
LINE
8
Layer 1
10
44.315782
20
47.927722
11
45.804222
21
49.680772
0
LINE
8
Layer 1
10
45.804222
20
49.680772
11
45.790992
21
39.479972
0
LINE
8
Layer 1
10
45.790992
20
39.479972
11
45.791000
21
39.480000
0
LINE
8
Layer 1
10
15.089400
20
48.377570
11
17.331980
21
45.685150
0
LINE
8
Layer 1
10
17.331980
20
45.685150
11
16.108150
21
45.658689
0
LINE
8
Layer 1
10
16.108150
20
45.658689
11
14.884320
21
45.678535
0
LINE
8
Layer 1
10
14.884320
20
45.678535
11
14.884320
21
37.045585
0
LINE
8
Layer 1
10
14.884320
20
37.045585
11
14.884320
21
28.419245
0
LINE
8
Layer 1
10
14.884320
20
28.419245
11
14.454326
21
28.842624
0
LINE
8
Layer 1
10
14.454326
20
28.842624
11
14.024332
21
29.266003
0
LINE
8
Layer 1
10
14.024332
20
29.266003
11
14.024332
21
39.407203
0
LINE
8
Layer 1
10
14.024332
20
39.407203
11
14.050793
21
49.548403
0
LINE
8
Layer 1
10
14.050793
20
49.548403
11
15.089393
21
48.377493
0
LINE
8
Layer 1
10
15.089393
20
48.377493
11
15.089400
21
48.377570
0
LINE
8
Layer 1
10
36.919900
20
43.925480
11
43.131660
21
43.925480
0
LINE
8
Layer 1
10
43.131660
20
43.925480
11
43.131660
21
35.305760
0
LINE
8
Layer 1
10
43.131660
20
35.305760
11
43.131660
21
26.686040
0
LINE
8
Layer 1
10
43.131660
20
26.686040
11
39.513100
21
23.080710
0
LINE
8
Layer 1
10
39.513100
20
23.080710
11
33.016890
21
16.624190
0
LINE
8
Layer 1
10
33.016890
20
16.624190
11
30.139240
21
13.759770
0
LINE
8
Layer 1
10
30.139240
20
13.759770
11
30.152471
21
28.835970
0
LINE
8
Layer 1
10
30.152471
20
28.835970
11
30.165701
21
43.918870
0
LINE
8
Layer 1
10
30.165701
20
43.918870
11
30.350929
21
43.945331
0
LINE
8
Layer 1
10
30.350929
20
43.945331
11
30.615541
21
43.945331
0
LINE
8
Layer 1
10
30.615541
20
43.945331
11
36.919911
21
43.925485
0
LINE
8
Layer 1
10
36.919911
20
43.925485
11
36.919900
21
43.925480
0
LINE
8
Layer 1
10
29.636470
20
28.895580
11
29.636470
21
13.858980
0
LINE
8
Layer 1
10
29.636470
20
13.858980
11
27.638650
21
15.850180
0
LINE
8
Layer 1
10
27.638650
20
15.850180
11
21.122590
21
22.286860
0
LINE
8
Layer 1
10
21.122590
20
22.286860
11
16.604350
21
26.738950
0
LINE
8
Layer 1
10
16.604350
20
26.738950
11
16.604350
21
35.332210
0
LINE
8
Layer 1
10
16.604350
20
35.332210
11
16.604350
21
43.925470
0
LINE
8
Layer 1
10
16.604350
20
43.925470
11
23.120410
21
43.925470
0
LINE
8
Layer 1
10
23.120410
20
43.925470
11
29.636470
21
43.925470
0
LINE
8
Layer 1
10
29.636470
20
43.925470
11
29.636470
21
28.895570
0
LINE
8
Layer 1
10
29.636470
20
28.895570
11
29.636470
21
28.895580
0
LINE
8
Layer 1
10
21.367360
20
21.327690
11
26.811740
21
15.949460
0
LINE
8
Layer 1
10
26.811740
20
15.949460
11
29.636470
21
13.131350
0
LINE
8
Layer 1
10
29.636470
20
13.131350
11
29.636470
21
11.140150
0
LINE
8
Layer 1
10
29.636470
20
11.140150
11
29.636470
21
9.148950
0
LINE
8
Layer 1
10
29.636470
20
9.148950
11
28.988172
21
9.817094
0
LINE
8
Layer 1
10
28.988172
20
9.817094
11
27.817262
21
11.047534
0
LINE
8
Layer 1
10
27.817262
20
11.047534
11
26.692662
21
12.238284
0
LINE
8
Layer 1
10
26.692662
20
12.238284
11
24.205312
21
14.844704
0
LINE
8
Layer 1
10
24.205312
20
14.844704
11
22.114882
21
17.047594
0
LINE
8
Layer 1
10
22.114882
20
17.047594
11
20.203062
21
20.686004
0
LINE
8
Layer 1
10
20.203062
20
20.686004
11
18.463242
21
24.178874
0
LINE
8
Layer 1
10
18.463242
20
24.178874
11
18.595548
21
24.073029
0
LINE
8
Layer 1
10
18.595548
20
24.073029
11
21.367358
21
21.327679
0
LINE
8
Layer 1
10
21.367358
20
21.327679
11
21.367360
21
21.327690
0
LINE
8
Layer 1
10
40.578160
20
22.644130
11
38.156960
21
17.953890
0
LINE
8
Layer 1
10
38.156960
20
17.953890
11
37.341625
21
16.805311
0
LINE
8
Layer 1
10
37.341625
20
16.805311
11
34.492090
21
13.726720
0
LINE
8
Layer 1
10
34.492090
20
13.726720
11
32.871340
21
11.993510
0
LINE
8
Layer 1
10
32.871340
20
11.993510
11
30.165690
21
9.142320
0
LINE
8
Layer 1
10
30.165690
20
9.142320
11
30.152459
21
11.093830
0
LINE
8
Layer 1
10
30.152459
20
11.093830
11
30.165690
21
13.065190
0
LINE
8
Layer 1
10
30.165690
20
13.065190
11
35.715920
21
18.608800
0
LINE
8
Layer 1
10
35.715920
20
18.608800
11
41.305840
21
24.145800
0
LINE
8
Layer 1
10
41.305840
20
24.145800
11
40.578158
21
22.644130
0
LINE
8
Layer 1
10
40.578158
20
22.644130
11
40.578160
21
22.644130
0
LINE
8
Layer 1
10
33.916600
20
36.675100
11
33.923215
21
33.559300
0
LINE
8
Layer 1
10
33.923215
20
33.559300
11
34.167155
21
33.438571
0
LINE
8
Layer 1
10
34.167155
20
33.438571
11
35.557195
21
33.426994
0
LINE
8
Layer 1
10
35.557195
20
33.426994
11
37.144865
21
33.440225
0
LINE
8
Layer 1
10
37.144865
20
33.440225
11
37.144865
21
35.060975
0
LINE
8
Layer 1
10
37.144865
20
35.060975
11
37.144865
21
36.681725
0
LINE
8
Layer 1
10
37.144865
20
36.681725
11
35.550585
21
36.701571
0
LINE
8
Layer 1
10
35.550585
20
36.701571
11
33.916605
21
36.675109
0
LINE
8
Layer 1
10
33.916605
20
36.675109
11
33.916600
21
36.675100
0
LINE
8
Layer 1
10
22.756600
20
35.060900
11
22.756600
21
33.407080
0
LINE
8
Layer 1
10
22.756600
20
33.407080
11
24.364120
21
33.420311
0
LINE
8
Layer 1
10
24.364120
20
33.420311
11
25.965020
21
33.440156
0
LINE
8
Layer 1
10
25.965020
20
33.440156
11
25.984866
21
35.080746
0
LINE
8
Layer 1
10
25.984866
20
35.080746
11
25.998096
21
36.714726
0
LINE
8
Layer 1
10
25.998096
20
36.714726
11
24.377346
21
36.714726
0
LINE
8
Layer 1
10
24.377346
20
36.714726
11
22.756596
21
36.714726
0
LINE
8
Layer 1
10
22.756596
20
36.714726
11
22.756596
21
35.060906
0
LINE
8
Layer 1
10
22.756596
20
35.060906
11
22.756600
21
35.060900
0
LINE
8
Layer 1
10
0.185228
20
0.019754
11
0.582145
21
0.019754
0
LINE
8
Layer 1
10
0.582145
20
0.019754
11
0.592068
21
0.037946
0
LINE
8
Layer 1
10
0.592068
20
0.037946
11
0.363840
21
0.046215
0
LINE
8
Layer 1
10
0.363840
20
0.046215
11
0.148016
21
0.037946
0
LINE
8
Layer 1
10
0.148016
20
0.037946
11
0.185227
21
0.019754
0
LINE
8
Layer 1
10
0.185227
20
0.019754
11
0.185228
21
0.019754
0
LINE
8
Layer 1
10
3.029800
20
0.019754
11
7.032050
21
0.019754
0
LINE
8
Layer 1
10
7.032050
20
0.019754
11
7.491917
21
0.024612
0
LINE
8
Layer 1
10
7.491917
20
0.024612
11
7.267721
21
0.028850
0
LINE
8
Layer 1
10
7.267721
20
0.028850
11
5.027620
21
0.032985
0
LINE
8
Layer 1
10
5.027620
20
0.032985
11
2.788345
21
0.028850
0
LINE
8
Layer 1
10
2.788345
20
0.028850
11
2.566112
21
0.024612
0
LINE
8
Layer 1
10
2.566112
20
0.024612
11
3.029800
21
0.019754
0
LINE
8
Layer 1
10
3.029800
20
0.019754
11
3.029800
21
0.019754
0
LINE
8
Layer 1
10
9.612020
20
0.019754
11
10.372778
21
0.019754
0
LINE
8
Layer 1
10
10.372778
20
0.019754
11
10.414124
21
0.034639
0
LINE
8
Layer 1
10
10.414124
20
0.034639
11
9.989091
21
0.039600
0
LINE
8
Layer 1
10
9.989091
20
0.039600
11
9.564886
21
0.034639
0
LINE
8
Layer 1
10
9.564886
20
0.034639
11
9.612019
21
0.019754
0
LINE
8
Layer 1
10
9.612019
20
0.019754
11
9.612020
21
0.019754
0
LINE
8
Layer 1
10
11.067400
20
0.019754
11
11.398165
21
0.019754
0
LINE
8
Layer 1
10
11.398165
20
0.019754
11
11.212937
21
0.046215
0
LINE
8
Layer 1
10
11.212937
20
0.046215
11
11.033497
21
0.037946
0
LINE
8
Layer 1
10
11.033497
20
0.037946
11
11.067401
21
0.019754
0
LINE
8
Layer 1
10
11.067401
20
0.019754
11
11.067400
21
0.019754
0
LINE
8
Layer 1
10
12.026600
20
0.019754
11
12.721205
21
0.019754
0
LINE
8
Layer 1
10
12.721205
20
0.019754
11
12.759243
21
0.034639
0
LINE
8
Layer 1
10
12.759243
20
0.034639
11
12.370595
21
0.039600
0
LINE
8
Layer 1
10
12.370595
20
0.039600
11
11.982774
21
0.034639
0
LINE
8
Layer 1
10
11.982774
20
0.034639
11
12.026600
21
0.019754
0
LINE
8
Layer 1
10
12.026600
20
0.019754
11
12.026600
21
0.019754
0
LINE
8
Layer 1
10
13.515000
20
0.019754
11
13.845764
21
0.019754
0
LINE
8
Layer 1
10
13.845764
20
0.019754
11
13.660536
21
0.046215
0
LINE
8
Layer 1
10
13.660536
20
0.046215
11
13.481096
21
0.037946
0
LINE
8
Layer 1
10
13.481096
20
0.037946
11
13.515000
21
0.019754
0
LINE
8
Layer 1
10
13.515000
20
0.019754
11
13.515000
21
0.019754
0
LINE
8
Layer 1
10
14.606600
20
0.019754
11
15.565817
21
0.019754
0
LINE
8
Layer 1
10
15.565817
20
0.019754
11
15.619566
21
0.032158
0
LINE
8
Layer 1
10
15.619566
20
0.032158
11
15.082901
21
0.039600
0
LINE
8
Layer 1
10
15.082901
20
0.039600
11
14.547063
21
0.032158
0
LINE
8
Layer 1
10
14.547063
20
0.032158
11
14.606600
21
0.019754
0
LINE
8
Layer 1
10
14.606600
20
0.019754
11
14.606600
21
0.019754
0
LINE
8
Layer 1
10
16.584500
20
0.019754
11
17.047570
21
0.019754
0
LINE
8
Layer 1
10
17.047570
20
0.019754
11
17.090569
21
0.037946
0
LINE
8
Layer 1
10
17.090569
20
0.037946
11
16.835881
21
0.046215
0
LINE
8
Layer 1
10
16.835881
20
0.046215
11
16.573750
21
0.037946
0
LINE
8
Layer 1
10
16.573750
20
0.037946
11
16.584500
21
0.019754
0
LINE
8
Layer 1
10
16.584500
20
0.019754
11
16.584500
21
0.019754
0
LINE
8
Layer 1
10
17.616500
20
0.019754
11
18.244953
21
0.019754
0
LINE
8
Layer 1
10
18.244953
20
0.019754
11
18.279683
21
0.034639
0
LINE
8
Layer 1
10
18.279683
20
0.034639
11
17.927419
21
0.039600
0
LINE
8
Layer 1
10
17.927419
20
0.039600
11
17.575982
21
0.034639
0
LINE
8
Layer 1
10
17.575982
20
0.034639
11
17.616500
21
0.019754
0
LINE
8
Layer 1
10
17.616500
20
0.019754
11
17.616500
21
0.019754
0
LINE
8
Layer 1
10
19.038800
20
0.019754
11
19.733405
21
0.019754
0
LINE
8
Layer 1
10
19.733405
20
0.019754
11
19.771443
21
0.034639
0
LINE
8
Layer 1
10
19.771443
20
0.034639
11
19.382795
21
0.039600
0
LINE
8
Layer 1
10
19.382795
20
0.039600
11
18.994974
21
0.034639
0
LINE
8
Layer 1
10
18.994974
20
0.034639
11
19.038800
21
0.019754
0
LINE
8
Layer 1
10
19.038800
20
0.019754
11
19.038800
21
0.019754
0
LINE
8
Layer 1
10
21.023400
20
0.019754
11
21.684929
21
0.019754
0
LINE
8
Layer 1
10
21.684929
20
0.019754
11
21.710563
21
0.034639
0
LINE
8
Layer 1
10
21.710563
20
0.034639
11
21.334319
21
0.039600
0
LINE
8
Layer 1
10
21.334319
20
0.039600
11
20.970478
21
0.034639
0
LINE
8
Layer 1
10
20.970478
20
0.034639
11
21.023400
21
0.019754
0
LINE
8
Layer 1
10
21.023400
20
0.019754
11
21.023400
21
0.019754
0
LINE
8
Layer 1
10
22.478800
20
0.019754
11
22.644182
21
0.019754
0
LINE
8
Layer 1
10
22.644182
20
0.019754
11
22.558183
21
0.052831
0
LINE
8
Layer 1
10
22.558183
20
0.052831
11
22.478800
21
0.019754
0
LINE
8
Layer 1
10
22.478800
20
0.019754
11
22.478800
21
0.019754
0
LINE
8
Layer 1
10
23.041100
20
0.019754
11
23.404941
21
0.019754
0
LINE
8
Layer 1
10
23.404941
20
0.019754
11
23.423960
21
0.037946
0
LINE
8
Layer 1
10
23.423960
20
0.037946
11
23.219713
21
0.046215
0
LINE
8
Layer 1
10
23.219713
20
0.046215
11
23.016293
21
0.037946
0
LINE
8
Layer 1
10
23.016293
20
0.037946
11
23.041100
21
0.019754
0
LINE
8
Layer 1
10
23.041100
20
0.019754
11
23.041100
21
0.019754
0
LINE
8
Layer 1
10
23.735700
20
0.019754
11
24.033388
21
0.019754
0
LINE
8
Layer 1
10
24.033388
20
0.019754
11
23.881236
21
0.046215
0
LINE
8
Layer 1
10
23.881236
20
0.046215
11
23.735700
21
0.019754
0
LINE
8
Layer 1
10
23.735700
20
0.019754
11
23.735700
21
0.019754
0
LINE
8
Layer 1
10
25.389500
20
0.019754
11
27.506390
21
0.019754
0
LINE
8
Layer 1
10
27.506390
20
0.019754
11
27.741646
21
0.025646
0
LINE
8
Layer 1
10
27.741646
20
0.025646
11
27.617196
21
0.032158
0
LINE
8
Layer 1
10
27.617196
20
0.032158
11
26.428100
21
0.039600
0
LINE
8
Layer 1
10
26.428100
20
0.039600
11
25.248924
21
0.032158
0
LINE
8
Layer 1
10
25.248924
20
0.032158
11
25.136877
21
0.025646
0
LINE
8
Layer 1
10
25.136877
20
0.025646
11
25.389500
21
0.019754
0
LINE
8
Layer 1
10
25.389500
20
0.019754
11
25.389500
21
0.019754
0
LINE
8
Layer 1
10
30.840500
20
0.019754
11
32.031250
21
0.019754
0
LINE
8
Layer 1
10
32.031250
20
0.019754
11
32.175753
21
0.025646
0
LINE
8
Layer 1
10
32.175753
20
0.025646
11
32.115595
21
0.032158
0
LINE
8
Layer 1
10
32.115595
20
0.032158
11
31.455720
21
0.039600
0
LINE
8
Layer 1
10
31.455720
20
0.039600
11
30.783441
21
0.032158
0
LINE
8
Layer 1
10
30.783441
20
0.032158
11
30.710569
21
0.025646
0
LINE
8
Layer 1
10
30.710569
20
0.025646
11
30.840498
21
0.019754
0
LINE
8
Layer 1
10
30.840498
20
0.019754
11
30.840500
21
0.019754
0
LINE
8
Layer 1
10
33.261700
20
0.019754
11
34.353220
21
0.019754
0
LINE
8
Layer 1
10
34.353220
20
0.019754
11
34.416065
21
0.032158
0
LINE
8
Layer 1
10
34.416065
20
0.032158
11
33.804151
21
0.039600
0
LINE
8
Layer 1
10
33.804151
20
0.039600
11
33.193064
21
0.032158
0
LINE
8
Layer 1
10
33.193064
20
0.032158
11
33.261697
21
0.019754
0
LINE
8
Layer 1
10
33.261697
20
0.019754
11
33.261700
21
0.019754
0
LINE
8
Layer 1
10
35.279300
20
0.019754
11
35.610065
21
0.019754
0
LINE
8
Layer 1
10
35.610065
20
0.019754
11
35.424837
21
0.046215
0
LINE
8
Layer 1
10
35.424837
20
0.046215
11
35.245397
21
0.037946
0
LINE
8
Layer 1
10
35.245397
20
0.037946
11
35.279301
21
0.019754
0
LINE
8
Layer 1
10
35.279301
20
0.019754
11
35.279300
21
0.019754
0
LINE
8
Layer 1
10
36.205500
20
0.019754
11
36.437035
21
0.019754
0
LINE
8
Layer 1
10
36.437035
20
0.019754
11
36.317960
21
0.052831
0
LINE
8
Layer 1
10
36.317960
20
0.052831
11
36.205500
21
0.019754
0
LINE
8
Layer 1
10
36.205500
20
0.019754
11
36.205500
21
0.019754
0
LINE
8
Layer 1
10
37.396200
20
0.019754
11
38.421570
21
0.019754
0
LINE
8
Layer 1
10
38.421570
20
0.019754
11
38.478627
21
0.032158
0
LINE
8
Layer 1
10
38.478627
20
0.032158
11
37.905577
21
0.039600
0
LINE
8
Layer 1
10
37.905577
20
0.039600
11
37.333354
21
0.032158
0
LINE
8
Layer 1
10
37.333354
20
0.032158
11
37.396200
21
0.019754
0
LINE
8
Layer 1
10
37.396200
20
0.019754
11
37.396200
21
0.019754
0
LINE
8
Layer 1
10
40.498800
20
0.019754
11
42.218780
21
0.019754
0
LINE
8
Layer 1
10
42.218780
20
0.019754
11
42.424267
21
0.025646
0
LINE
8
Layer 1
10
42.424267
20
0.025646
11
42.334548
21
0.032158
0
LINE
8
Layer 1
10
42.334548
20
0.032158
11
41.378638
21
0.039600
0
LINE
8
Layer 1
10
41.378638
20
0.039600
11
40.410326
21
0.032158
0
LINE
8
Layer 1
10
40.410326
20
0.032158
11
40.307893
21
0.025646
0
LINE
8
Layer 1
10
40.307893
20
0.025646
11
40.498804
21
0.019754
0
LINE
8
Layer 1
10
40.498804
20
0.019754
11
40.498800
21
0.019754
0
LINE
8
Layer 1
10
43.482300
20
0.019754
11
44.243058
21
0.019754
0
LINE
8
Layer 1
10
44.243058
20
0.019754
11
44.284404
21
0.034639
0
LINE
8
Layer 1
10
44.284404
20
0.034639
11
43.859371
21
0.039600
0
LINE
8
Layer 1
10
43.859371
20
0.039600
11
43.435166
21
0.034639
0
LINE
8
Layer 1
10
43.435166
20
0.034639
11
43.482299
21
0.019754
0
LINE
8
Layer 1
10
43.482299
20
0.019754
11
43.482300
21
0.019754
0
LINE
8
Layer 1
10
44.904600
20
0.019754
11
45.030291
21
0.026369
0
LINE
8
Layer 1
10
45.030291
20
0.026369
11
44.944292
21
0.059446
0
LINE
8
Layer 1
10
44.944292
20
0.059446
11
44.904601
21
0.019754
0
LINE
8
Layer 1
10
44.904601
20
0.019754
11
44.904600
21
0.019754
0
LINE
8
Layer 1
10
46.227600
20
0.019754
11
46.789900
21
0.019754
0
LINE
8
Layer 1
10
46.789900
20
0.019754
11
46.821323
21
0.037946
0
LINE
8
Layer 1
10
46.821323
20
0.037946
11
46.505443
21
0.046215
0
LINE
8
Layer 1
10
46.505443
20
0.046215
11
46.190390
21
0.037946
0
LINE
8
Layer 1
10
46.190390
20
0.037946
11
46.227601
21
0.019754
0
LINE
8
Layer 1
10
46.227601
20
0.019754
11
46.227600
21
0.019754
0
LINE
8
Layer 1
10
47.749200
20
0.019754
11
48.840720
21
0.019754
0
LINE
8
Layer 1
10
48.840720
20
0.019754
11
48.903565
21
0.032158
0
LINE
8
Layer 1
10
48.903565
20
0.032158
11
48.291651
21
0.039600
0
LINE
8
Layer 1
10
48.291651
20
0.039600
11
47.680564
21
0.032158
0
LINE
8
Layer 1
10
47.680564
20
0.032158
11
47.749197
21
0.019754
0
LINE
8
Layer 1
10
47.749197
20
0.019754
11
47.749200
21
0.019754
0
LINE
8
Layer 1
10
51.817600
20
0.019754
11
56.646760
21
0.019754
0
LINE
8
Layer 1
10
56.646760
20
0.019754
11
57.195725
21
0.024612
0
LINE
8
Layer 1
10
57.195725
20
0.024612
11
56.920466
21
0.028850
0
LINE
8
Layer 1
10
56.920466
20
0.028850
11
54.212330
21
0.032985
0
LINE
8
Layer 1
10
54.212330
20
0.032985
11
51.519082
21
0.028850
0
LINE
8
Layer 1
10
51.519082
20
0.028850
11
51.254989
21
0.024612
0
LINE
8
Layer 1
10
51.254989
20
0.024612
11
51.817600
21
0.019754
0
LINE
8
Layer 1
10
51.817600
20
0.019754
11
51.817600
21
0.019754
0
LINE
8
Layer 1
10
59.259800
20
0.019754
11
59.689794
21
0.019754
0
LINE
8
Layer 1
10
59.689794
20
0.019754
11
59.712121
21
0.037946
0
LINE
8
Layer 1
10
59.712121
20
0.037946
11
59.471489
21
0.046215
0
LINE
8
Layer 1
10
59.471489
20
0.046215
11
59.231685
21
0.037946
0
LINE
8
Layer 1
10
59.231685
20
0.037946
11
59.259800
21
0.019754
0
LINE
8
Layer 1
10
59.259800
20
0.019754
11
59.259800
21
0.019754
 0 
ENDSEC
 0 
EOF