999
"DXF R12 Output" (www.mydxf.blogspot.com)
 0 
SECTION
 2 
HEADER
 9 
$ACADVER
 1 
AC1009
 9 
$EXTMIN
 10 
 0 
 20 
 0 
 9 
$EXTMAX
 10 
 8.5 
 20 
 11 
 0 
ENDSEC
 0 
SECTION
 2 
ENTITIES
0
LINE
8
Layer 1
10
29.987100
20
55.588200
11
29.834948
21
55.561739
0
LINE
8
Layer 1
10
29.834948
20
55.561739
11
29.834948
21
31.032239
0
LINE
8
Layer 1
10
29.834948
20
31.032239
11
29.834948
21
6.502739
0
LINE
8
Layer 1
10
29.834948
20
6.502739
11
43.131648
21
6.515969
0
LINE
8
Layer 1
10
43.131648
20
6.515969
11
56.434948
21
6.529200
0
LINE
8
Layer 1
10
56.434948
20
6.529200
11
57.903538
21
4.967990
0
LINE
8
Layer 1
10
57.903538
20
4.967990
11
59.683048
21
3.076020
0
LINE
8
Layer 1
10
59.683048
20
3.076020
11
60.000582
21
2.745256
0
LINE
8
Layer 1
10
60.000582
20
2.745256
11
60.000582
21
6.019826
0
LINE
8
Layer 1
10
60.000582
20
6.019826
11
60.000582
21
9.301006
0
LINE
8
Layer 1
10
60.000582
20
9.301006
11
59.636741
21
9.658232
0
LINE
8
Layer 1
10
59.636741
20
9.658232
11
59.272900
21
10.068380
0
LINE
8
Layer 1
10
59.272900
20
10.068380
11
59.636741
21
10.121302
0
LINE
8
Layer 1
10
59.636741
20
10.121302
11
60.000582
21
10.194071
0
LINE
8
Layer 1
10
60.000582
20
10.194071
11
59.557358
21
10.233762
0
LINE
8
Layer 1
10
59.557358
20
10.233762
11
59.114134
21
10.187455
0
LINE
8
Layer 1
10
59.114134
20
10.187455
11
58.684140
21
10.637295
0
LINE
8
Layer 1
10
58.684140
20
10.637295
11
57.010470
21
12.350655
0
LINE
8
Layer 1
10
57.010470
20
12.350655
11
55.766800
21
13.614175
0
LINE
8
Layer 1
10
55.766800
20
13.614175
11
54.728200
21
14.163244
0
LINE
8
Layer 1
10
54.728200
20
14.163244
11
50.090880
21
16.716744
0
LINE
8
Layer 1
10
50.090880
20
16.716744
11
49.404544
21
17.150046
0
LINE
8
Layer 1
10
49.404544
20
17.150046
11
49.348520
21
17.239559
0
LINE
8
Layer 1
10
49.348520
20
17.239559
11
49.462427
21
17.265813
0
LINE
8
Layer 1
10
49.462427
20
17.265813
11
51.321327
21
18.139031
0
LINE
8
Layer 1
10
51.321327
20
18.139031
11
53.277799
21
19.599357
0
LINE
8
Layer 1
10
53.277799
20
19.599357
11
55.045737
21
21.565751
0
LINE
8
Layer 1
10
55.045737
20
21.565751
11
56.527557
21
23.953871
0
LINE
8
Layer 1
10
56.527557
20
23.953871
11
57.199346
21
25.481681
0
LINE
8
Layer 1
10
57.199346
20
25.481681
11
57.715623
21
27.072051
0
LINE
8
Layer 1
10
57.715623
20
27.072051
11
58.075304
21
28.708159
0
LINE
8
Layer 1
10
58.075304
20
28.708159
11
58.277303
21
30.373182
0
LINE
8
Layer 1
10
58.277303
20
30.373182
11
58.320535
21
32.050298
0
LINE
8
Layer 1
10
58.320535
20
32.050298
11
58.203914
21
33.722684
0
LINE
8
Layer 1
10
58.203914
20
33.722684
11
57.926356
21
35.373515
0
LINE
8
Layer 1
10
57.926356
20
35.373515
11
57.486774
21
36.985971
0
LINE
8
Layer 1
10
57.486774
20
36.985971
11
56.648390
21
39.119815
0
LINE
8
Layer 1
10
56.648390
20
39.119815
11
55.607206
21
41.022951
0
LINE
8
Layer 1
10
55.607206
20
41.022951
11
54.356398
21
42.705302
0
LINE
8
Layer 1
10
54.356398
20
42.705302
11
52.889144
21
44.176791
0
LINE
8
Layer 1
10
52.889144
20
44.176791
11
51.438434
21
45.285473
0
LINE
8
Layer 1
10
51.438434
20
45.285473
11
49.921363
21
46.139879
0
LINE
8
Layer 1
10
49.921363
20
46.139879
11
48.274052
21
46.768538
0
LINE
8
Layer 1
10
48.274052
20
46.768538
11
46.432624
21
47.199981
0
LINE
8
Layer 1
10
46.432624
20
47.199981
11
44.520804
21
47.305826
0
LINE
8
Layer 1
10
44.520804
20
47.305826
11
44.871414
21
47.233058
0
LINE
8
Layer 1
10
44.871414
20
47.233058
11
46.557485
21
47.046176
0
LINE
8
Layer 1
10
46.557485
20
47.046176
11
48.437054
21
46.591375
0
LINE
8
Layer 1
10
48.437054
20
46.591375
11
50.410376
21
45.754127
0
LINE
8
Layer 1
10
50.410376
20
45.754127
11
52.256559
21
44.542288
0
LINE
8
Layer 1
10
52.256559
20
44.542288
11
53.937772
21
42.985627
0
LINE
8
Layer 1
10
53.937772
20
42.985627
11
55.416184
21
41.113915
0
LINE
8
Layer 1
10
55.416184
20
41.113915
11
56.213844
21
39.771320
0
LINE
8
Layer 1
10
56.213844
20
39.771320
11
56.905451
21
38.271820
0
LINE
8
Layer 1
10
56.905451
20
38.271820
11
57.469301
21
36.671850
0
LINE
8
Layer 1
10
57.469301
20
36.671850
11
57.883684
21
35.027845
0
LINE
8
Layer 1
10
57.883684
20
35.027845
11
58.194499
21
32.493051
0
LINE
8
Layer 1
10
58.194499
20
32.493051
11
58.127623
21
29.941516
0
LINE
8
Layer 1
10
58.127623
20
29.941516
11
57.687398
21
27.420996
0
LINE
8
Layer 1
10
57.687398
20
27.420996
11
56.878164
21
24.979245
0
LINE
8
Layer 1
10
56.878164
20
24.979245
11
55.560069
21
22.492724
0
LINE
8
Layer 1
10
55.560069
20
22.492724
11
53.815284
21
20.249315
0
LINE
8
Layer 1
10
53.815284
20
20.249315
11
52.875292
21
19.376925
0
LINE
8
Layer 1
10
52.875292
20
19.376925
11
51.762889
21
18.559111
0
LINE
8
Layer 1
10
51.762889
20
18.559111
11
50.598391
21
17.875257
0
LINE
8
Layer 1
10
50.598391
20
17.875257
11
49.502114
21
17.404745
0
LINE
8
Layer 1
10
49.502114
20
17.404745
11
48.470955
21
17.285670
0
LINE
8
Layer 1
10
48.470955
20
17.285670
11
44.090804
21
17.265824
0
LINE
8
Layer 1
10
44.090804
20
17.265824
11
39.096264
21
17.199671
0
LINE
8
Layer 1
10
39.096264
20
17.199671
11
43.978344
21
17.133518
0
LINE
8
Layer 1
10
43.978344
20
17.133518
11
48.860424
21
17.133518
0
LINE
8
Layer 1
10
48.860424
20
17.133518
11
49.462415
21
16.127998
0
LINE
8
Layer 1
10
49.462415
20
16.127998
11
51.069935
21
13.296658
0
LINE
8
Layer 1
10
51.069935
20
13.296658
11
52.426065
21
10.868848
0
LINE
8
Layer 1
10
52.426065
20
10.868848
11
52.783291
21
10.253626
0
LINE
8
Layer 1
10
52.783291
20
10.253626
11
42.059891
21
10.253626
0
LINE
8
Layer 1
10
42.059891
20
10.253626
11
33.052334
21
10.269338
0
LINE
8
Layer 1
10
33.052334
20
10.269338
11
31.382791
21
10.359471
0
LINE
8
Layer 1
10
31.382791
20
10.359471
11
31.422483
21
31.396071
0
LINE
8
Layer 1
10
31.422483
20
31.396071
11
31.422483
21
52.326871
0
LINE
8
Layer 1
10
31.422483
20
52.326871
11
45.711483
21
52.326871
0
LINE
8
Layer 1
10
45.711483
20
52.326871
11
60.000483
21
52.393024
0
LINE
8
Layer 1
10
60.000483
20
52.393024
11
45.645283
21
52.459177
0
LINE
8
Layer 1
10
45.645283
20
52.459177
11
31.290083
21
52.459177
0
LINE
8
Layer 1
10
31.290083
20
52.459177
11
31.290083
21
31.290277
0
LINE
8
Layer 1
10
31.290083
20
31.290277
11
31.290083
21
10.121377
0
LINE
8
Layer 1
10
31.290083
20
10.121377
11
42.125883
21
10.121377
0
LINE
8
Layer 1
10
42.125883
20
10.121377
11
52.968383
21
10.121377
0
LINE
8
Layer 1
10
52.968383
20
10.121377
11
54.350983
21
8.685857
0
LINE
8
Layer 1
10
54.350983
20
8.685857
11
56.024653
21
6.926187
0
LINE
8
Layer 1
10
56.024653
20
6.926187
11
56.315726
21
6.615268
0
LINE
8
Layer 1
10
56.315726
20
6.615268
11
43.105026
21
6.615268
0
LINE
8
Layer 1
10
43.105026
20
6.615268
11
29.900926
21
6.615268
0
LINE
8
Layer 1
10
29.900926
20
6.615268
11
29.900926
21
31.058768
0
LINE
8
Layer 1
10
29.900926
20
31.058768
11
29.900926
21
55.502268
0
LINE
8
Layer 1
10
29.900926
20
55.502268
11
44.950726
21
55.502268
0
LINE
8
Layer 1
10
44.950726
20
55.502268
11
60.000526
21
55.568421
0
LINE
8
Layer 1
10
60.000526
20
55.568421
11
29.986926
21
55.588267
0
LINE
8
Layer 1
10
29.986926
20
55.588267
11
29.987100
21
55.588200
0
LINE
8
Layer 1
10
12.039800
20
45.605700
11
11.060737
21
45.446933
0
LINE
8
Layer 1
10
11.060737
20
45.446933
11
8.768538
21
44.886287
0
LINE
8
Layer 1
10
8.768538
20
44.886287
11
6.595417
21
44.018033
0
LINE
8
Layer 1
10
6.595417
20
44.018033
11
4.690211
21
42.880101
0
LINE
8
Layer 1
10
4.690211
20
42.880101
11
2.973542
21
41.488512
0
LINE
8
Layer 1
10
2.973542
20
41.488512
11
1.490063
21
39.884821
0
LINE
8
Layer 1
10
1.490063
20
39.884821
11
0.284427
21
38.110583
0
LINE
8
Layer 1
10
0.284427
20
38.110583
11
-0.000030
21
37.607821
0
LINE
8
Layer 1
10
-0.000030
20
37.607821
11
0.006585
21
35.391701
0
LINE
8
Layer 1
10
0.006585
20
35.391701
11
0.006585
21
33.175581
0
LINE
8
Layer 1
10
0.006585
20
33.175581
11
0.257966
21
33.936339
0
LINE
8
Layer 1
10
0.257966
20
33.936339
11
0.863885
21
35.506746
0
LINE
8
Layer 1
10
0.863885
20
35.506746
11
1.597561
21
36.943814
0
LINE
8
Layer 1
10
1.597561
20
36.943814
11
2.485043
21
38.292817
0
LINE
8
Layer 1
10
2.485043
20
38.292817
11
3.552376
21
39.599029
0
LINE
8
Layer 1
10
3.552376
20
39.599029
11
4.911405
21
40.868752
0
LINE
8
Layer 1
10
4.911405
20
40.868752
11
6.545794
21
41.982189
0
LINE
8
Layer 1
10
6.545794
20
41.982189
11
8.363757
21
42.884763
0
LINE
8
Layer 1
10
8.363757
20
42.884763
11
10.273506
21
43.521899
0
LINE
8
Layer 1
10
10.273506
20
43.521899
11
11.298876
21
43.753434
0
LINE
8
Layer 1
10
11.298876
20
43.753434
11
11.576718
21
43.793126
0
LINE
8
Layer 1
10
11.576718
20
43.793126
11
11.576718
21
35.332166
0
LINE
8
Layer 1
10
11.576718
20
35.332166
11
11.576718
21
26.864596
0
LINE
8
Layer 1
10
11.576718
20
26.864596
11
10.835806
21
25.885533
0
LINE
8
Layer 1
10
10.835806
20
25.885533
11
7.548006
21
21.592213
0
LINE
8
Layer 1
10
7.548006
20
21.592213
11
4.815896
21
18.125803
0
LINE
8
Layer 1
10
4.815896
20
18.125803
11
3.029766
21
19.984703
0
LINE
8
Layer 1
10
3.029766
20
19.984703
11
1.447055
21
22.307494
0
LINE
8
Layer 1
10
1.447055
20
22.307494
11
0.390266
21
24.774173
0
LINE
8
Layer 1
10
0.390266
20
24.774173
11
0.059502
21
25.766467
0
LINE
8
Layer 1
10
0.059502
20
25.766467
11
0.006580
21
23.662807
0
LINE
8
Layer 1
10
0.006580
20
23.662807
11
0.078521
21
21.385494
0
LINE
8
Layer 1
10
0.078521
20
21.385494
11
0.323804
21
20.803141
0
LINE
8
Layer 1
10
0.323804
20
20.803141
11
0.840107
21
20.011167
0
LINE
8
Layer 1
10
0.840107
20
20.011167
11
2.585612
21
17.799282
0
LINE
8
Layer 1
10
2.585612
20
17.799282
11
4.628187
21
15.979973
0
LINE
8
Layer 1
10
4.628187
20
15.979973
11
6.939922
21
14.573706
0
LINE
8
Layer 1
10
6.939922
20
14.573706
11
9.492907
21
13.600947
0
LINE
8
Layer 1
10
9.492907
20
13.600947
11
11.907487
21
13.118031
0
LINE
8
Layer 1
10
11.907487
20
13.118031
11
12.575631
21
13.197414
0
LINE
8
Layer 1
10
12.575631
20
13.197414
11
13.045317
21
13.574486
0
LINE
8
Layer 1
10
13.045317
20
13.574486
11
13.197469
21
13.792791
0
LINE
8
Layer 1
10
13.197469
20
13.792791
11
13.197469
21
29.371791
0
LINE
8
Layer 1
10
13.197469
20
29.371791
11
13.197469
21
44.950791
0
LINE
8
Layer 1
10
13.197469
20
44.950791
11
13.045317
21
45.169096
0
LINE
8
Layer 1
10
13.045317
20
45.169096
11
12.579766
21
45.528802
0
LINE
8
Layer 1
10
12.579766
20
45.528802
11
12.039797
21
45.605705
0
LINE
8
Layer 1
10
12.039797
20
45.605705
11
12.039800
21
45.605700
0
LINE
8
Layer 1
10
11.576730
20
19.389300
11
11.530423
21
14.996750
0
LINE
8
Layer 1
10
11.530423
20
14.996750
11
9.433373
21
15.486281
0
LINE
8
Layer 1
10
9.433373
20
15.486281
11
6.873253
21
16.624111
0
LINE
8
Layer 1
10
6.873253
20
16.624111
11
6.344030
21
16.974721
0
LINE
8
Layer 1
10
6.344030
20
16.974721
11
6.350645
21
17.166565
0
LINE
8
Layer 1
10
6.350645
20
17.166565
11
7.164326
21
18.178705
0
LINE
8
Layer 1
10
7.164326
20
18.178705
11
11.530416
21
23.742165
0
LINE
8
Layer 1
10
11.530416
20
23.742165
11
11.576723
21
19.389305
0
LINE
8
Layer 1
10
11.576723
20
19.389305
11
11.576730
21
19.389300
0
LINE
8
Layer 1
10
14.785200
20
45.519700
11
14.295669
21
44.964016
0
LINE
8
Layer 1
10
14.295669
20
44.964016
11
14.222901
21
29.358516
0
LINE
8
Layer 1
10
14.222901
20
29.358516
11
14.260939
21
15.097591
0
LINE
8
Layer 1
10
14.260939
20
15.097591
11
14.379187
21
13.595944
0
LINE
8
Layer 1
10
14.379187
20
13.595944
11
14.626434
21
13.329716
0
LINE
8
Layer 1
10
14.626434
20
13.329716
11
14.948929
21
13.157098
0
LINE
8
Layer 1
10
14.948929
20
13.157098
11
15.415307
21
13.119680
0
LINE
8
Layer 1
10
15.415307
20
13.119680
11
17.226244
21
13.475252
0
LINE
8
Layer 1
10
17.226244
20
13.475252
11
19.277604
21
14.116728
0
LINE
8
Layer 1
10
19.277604
20
14.116728
11
21.089573
21
14.975267
0
LINE
8
Layer 1
10
21.089573
20
14.975267
11
22.757659
21
16.104206
0
LINE
8
Layer 1
10
22.757659
20
16.104206
11
24.377374
21
17.556882
0
LINE
8
Layer 1
10
24.377374
20
17.556882
11
26.084323
21
19.602660
0
LINE
8
Layer 1
10
26.084323
20
19.602660
11
27.435290
21
21.931241
0
LINE
8
Layer 1
10
27.435290
20
21.931241
11
28.416629
21
24.515337
0
LINE
8
Layer 1
10
28.416629
20
24.515337
11
29.014694
21
27.327662
0
LINE
8
Layer 1
10
29.014694
20
27.327662
11
29.139557
21
29.741415
0
LINE
8
Layer 1
10
29.139557
20
29.741415
11
29.021309
21
31.951752
0
LINE
8
Layer 1
10
29.021309
20
31.951752
11
28.316264
21
34.739168
0
LINE
8
Layer 1
10
28.316264
20
34.739168
11
27.231047
21
37.258042
0
LINE
8
Layer 1
10
27.231047
20
37.258042
11
25.747671
21
39.540006
0
LINE
8
Layer 1
10
25.747671
20
39.540006
11
23.848149
21
41.616692
0
LINE
8
Layer 1
10
23.848149
20
41.616692
11
22.138924
21
42.985227
0
LINE
8
Layer 1
10
22.138924
20
42.985227
11
20.156819
21
44.130502
0
LINE
8
Layer 1
10
20.156819
20
44.130502
11
18.321905
21
44.893741
0
LINE
8
Layer 1
10
18.321905
20
44.893741
11
16.571329
21
45.413872
0
LINE
8
Layer 1
10
16.571329
20
45.413872
11
14.785199
21
45.519717
0
LINE
8
Layer 1
10
14.785199
20
45.519717
11
14.785200
21
45.519700
0
LINE
8
Layer 1
10
16.829320
20
43.528500
11
19.483705
21
42.477494
0
LINE
8
Layer 1
10
19.483705
20
42.477494
11
21.929710
21
40.895610
0
LINE
8
Layer 1
10
21.929710
20
40.895610
11
24.304600
21
38.500880
0
LINE
8
Layer 1
10
24.304600
20
38.500880
11
25.540521
21
36.690563
0
LINE
8
Layer 1
10
25.540521
20
36.690563
11
26.476894
21
34.754971
0
LINE
8
Layer 1
10
26.476894
20
34.754971
11
27.094492
21
32.742476
0
LINE
8
Layer 1
10
27.094492
20
32.742476
11
27.374090
21
30.701450
0
LINE
8
Layer 1
10
27.374090
20
30.701450
11
27.373263
21
28.501039
0
LINE
8
Layer 1
10
27.373263
20
28.501039
11
27.124363
21
26.469317
0
LINE
8
Layer 1
10
27.124363
20
26.469317
11
26.614986
21
24.539307
0
LINE
8
Layer 1
10
26.614986
20
24.539307
11
25.832730
21
22.644030
0
LINE
8
Layer 1
10
25.832730
20
22.644030
11
25.376275
21
21.764196
0
LINE
8
Layer 1
10
25.376275
20
21.764196
11
16.525015
21
31.634206
0
LINE
8
Layer 1
10
16.525015
20
31.634206
11
15.942869
21
32.282504
0
LINE
8
Layer 1
10
15.942869
20
32.282504
11
15.942869
21
38.004734
0
LINE
8
Layer 1
10
15.942869
20
38.004734
11
16.028868
21
43.726964
0
LINE
8
Layer 1
10
16.028868
20
43.726964
11
16.829318
21
43.528505
0
LINE
8
Layer 1
10
16.829318
20
43.528505
11
16.829320
21
43.528500
0
LINE
8
Layer 1
10
17.629770
20
27.711300
11
23.537220
21
21.089390
0
LINE
8
Layer 1
10
23.537220
20
21.089390
11
24.238441
21
20.163249
0
LINE
8
Layer 1
10
24.238441
20
20.163249
11
23.616604
21
19.448798
0
LINE
8
Layer 1
10
23.616604
20
19.448798
11
17.517304
21
26.222858
0
LINE
8
Layer 1
10
17.517304
20
26.222858
11
15.942864
21
28.015598
0
LINE
8
Layer 1
10
15.942864
20
28.015598
11
15.942864
21
28.802818
0
LINE
8
Layer 1
10
15.942864
20
28.802818
11
15.942864
21
29.590038
0
LINE
8
Layer 1
10
15.942864
20
29.590038
11
16.326551
21
29.173275
0
LINE
8
Layer 1
10
16.326551
20
29.173275
11
17.629761
21
27.711295
0
LINE
8
Layer 1
10
17.629761
20
27.711295
11
17.629770
21
27.711300
0
LINE
8
Layer 1
10
17.960535
20
23.021060
11
21.883405
21
18.608660
0
LINE
8
Layer 1
10
21.883405
20
18.608660
11
22.359706
21
18.066206
0
LINE
8
Layer 1
10
22.359706
20
18.066206
11
21.909866
21
17.695750
0
LINE
8
Layer 1
10
21.909866
20
17.695750
11
20.035259
21
16.433056
0
LINE
8
Layer 1
10
20.035259
20
16.433056
11
18.026686
21
15.512700
0
LINE
8
Layer 1
10
18.026686
20
15.512700
11
16.081786
21
15.016553
0
LINE
8
Layer 1
10
16.081786
20
15.016553
11
15.942865
21
15.016553
0
LINE
8
Layer 1
10
15.942865
20
15.016553
11
15.942865
21
20.156633
0
LINE
8
Layer 1
10
15.942865
20
20.156633
11
15.942865
21
25.296713
0
LINE
8
Layer 1
10
15.942865
20
25.296713
11
16.194246
21
25.005640
0
LINE
8
Layer 1
10
16.194246
20
25.005640
11
17.960526
21
23.021050
0
LINE
8
Layer 1
10
17.960526
20
23.021050
11
17.960535
21
23.021060
 0 
ENDSEC
 0 
EOF