<?xml version="1.0" standalone="no"?>
<!DOCTYPE svg PUBLIC "-//W3C//DTD SVG 20010904//EN"
 "http://www.w3.org/TR/2001/REC-SVG-20010904/DTD/svg10.dtd">
<svg version="1.0" xmlns="http://www.w3.org/2000/svg"
 width="170.078740pt" height="170.078740pt" viewBox="0 0 170.078740 170.078740"
 preserveAspectRatio="xMidYMid meet">
<metadata>
Created by potrace 1.16, written by Peter Selinger 2001-2019
</metadata>
<g transform="translate(0.000000,170.078740) scale(0.018752,-0.018752)"
fill="#000000" stroke="none">
<path d="M3435 7306 c-228 -44 -424 -129 -659 -286 -259 -174 -520 -443 -665
-684 -268 -445 -369 -1025 -275 -1576 106 -620 455 -1277 1033 -1945 333 -384
675 -737 1046 -1079 252 -231 598 -532 724 -629 136 -105 137 -105 417 128
361 301 629 548 1030 949 434 435 647 673 901 1009 248 327 506 798 629 1148
38 108 92 336 109 459 26 186 31 500 11 655 -53 402 -186 746 -400 1030 -86
115 -313 343 -441 442 -153 120 -254 184 -397 253 -223 107 -343 135 -573 135
-188 0 -272 -18 -420 -90 -162 -78 -300 -194 -463 -390 -86 -102 -222 -305
-249 -371 -10 -24 -20 -44 -23 -44 -3 0 -13 17 -23 38 -77 154 -229 364 -362
498 -170 171 -354 289 -520 334 -101 28 -325 36 -430 16z m355 -91 c182 -42
331 -132 509 -308 145 -143 271 -313 371 -501 l52 -96 -20 -57 c-17 -51 -29
-97 -51 -196 -5 -24 -11 -13 -34 70 -34 124 -153 367 -238 487 -161 225 -354
357 -581 396 -168 29 -525 27 -692 -4 -45 -9 -128 -30 -182 -46 -54 -16 -103
-30 -109 -30 -20 0 134 93 255 155 125 63 237 103 360 129 88 19 279 19 360 1z
m2338 -5 c138 -28 228 -61 370 -135 116 -62 254 -144 241 -145 -3 0 -43 11
-89 25 -168 50 -283 67 -500 72 -318 8 -486 -19 -670 -109 -154 -75 -330 -277
-450 -517 -50 -100 -130 -318 -130 -355 0 -38 -12 -6 -46 125 -39 152 -41 138
35 274 84 151 202 310 333 451 156 166 358 288 539 323 84 17 265 12 367 -9z
m-2516 -270 c271 -20 436 -93 593 -262 170 -183 304 -454 368 -742 22 -100 22
-109 18 -712 l-3 -611 23 -22 c21 -19 34 -21 155 -21 120 0 134 2 159 22 l28
22 -7 575 c-5 484 -4 592 9 674 49 323 204 645 410 853 92 92 188 146 338 189
289 82 773 38 1072 -97 194 -88 299 -165 431 -316 176 -202 319 -484 358 -709
33 -187 15 -501 -44 -786 -94 -452 -256 -846 -520 -1267 -228 -364 -523 -714
-1019 -1211 -425 -425 -717 -691 -1026 -937 -66 -52 -134 -108 -152 -125 l-32
-30 -68 52 c-391 301 -1078 946 -1478 1386 -124 137 -371 431 -461 550 -268
353 -500 791 -627 1180 -108 331 -153 566 -164 840 -8 215 7 346 57 500 83
255 220 477 399 648 100 95 191 155 330 217 172 77 361 124 556 139 142 11
156 11 297 1z m1182 -899 c43 -233 70 -731 64 -1161 l-3 -215 -85 0 -85 0 -3
230 c-4 246 13 789 28 945 12 115 50 301 60 295 4 -3 15 -45 24 -94z m2861
-963 c-16 -339 -77 -612 -197 -893 -42 -97 -165 -343 -223 -445 -139 -246
-431 -647 -654 -900 -358 -406 -988 -1025 -1411 -1386 -188 -160 -390 -324
-401 -324 -29 0 -502 408 -859 740 -574 535 -1076 1093 -1382 1535 -342 495
-570 1041 -617 1480 -16 148 -22 292 -11 275 5 -8 10 -26 10 -39 0 -13 16 -96
36 -185 114 -508 336 -997 667 -1471 81 -115 311 -400 469 -581 137 -155 654
-682 852 -866 169 -158 546 -482 697 -600 126 -98 140 -99 236 -26 177 134
527 431 763 647 63 57 264 253 445 436 515 516 830 901 1065 1300 230 390 359
708 454 1121 27 115 56 283 56 321 0 2 3 3 6 3 4 0 3 -64 -1 -142z"/>
</g>
</svg>
