999
"DXF R12 Output" (www.mydxf.blogspot.com)
 0 
SECTION
 2 
HEADER
 9 
$ACADVER
 1 
AC1009
 9 
$EXTMIN
 10 
 0 
 20 
 0 
 9 
$EXTMAX
 10 
 8.5 
 20 
 11 
 0 
ENDSEC
 0 
SECTION
 2 
ENTITIES
0
LINE
8
Layer 1
10
33.592400
20
47.901200
11
32.891489
21
47.607233
0
LINE
8
Layer 1
10
32.891489
20
47.607233
11
32.232132
21
47.107364
0
LINE
8
Layer 1
10
32.232132
20
47.107364
11
31.636033
21
46.423921
0
LINE
8
Layer 1
10
31.636033
20
46.423921
11
31.124900
21
45.579230
0
LINE
8
Layer 1
10
31.124900
20
45.579230
11
30.794136
21
45.083083
0
LINE
8
Layer 1
10
30.794136
20
45.083083
11
29.662926
21
43.726953
0
LINE
8
Layer 1
10
29.662926
20
43.726953
11
25.733446
21
38.930863
0
LINE
8
Layer 1
10
25.733446
20
38.930863
11
23.973776
21
36.807353
0
LINE
8
Layer 1
10
23.973776
20
36.807353
11
14.116996
21
31.925273
0
LINE
8
Layer 1
10
14.116996
20
31.925273
11
13.377738
21
31.677199
0
LINE
8
Layer 1
10
13.377738
20
31.677199
11
12.727786
21
31.210822
0
LINE
8
Layer 1
10
12.727786
20
31.210822
11
12.282495
21
30.699170
0
LINE
8
Layer 1
10
12.282495
20
30.699170
11
11.973643
21
30.099451
0
LINE
8
Layer 1
10
11.973643
20
30.099451
11
11.675956
21
28.412552
0
LINE
8
Layer 1
10
11.675956
20
28.412552
11
11.576727
21
26.891032
0
LINE
8
Layer 1
10
11.576727
20
26.891032
11
11.212886
21
21.658342
0
LINE
8
Layer 1
10
11.212886
20
21.658342
11
10.981351
21
16.862252
0
LINE
8
Layer 1
10
10.981351
20
16.862252
11
11.271907
21
16.037305
0
LINE
8
Layer 1
10
11.271907
20
16.037305
11
11.777667
21
15.338254
0
LINE
8
Layer 1
10
11.777667
20
15.338254
11
12.455839
21
14.809135
0
LINE
8
Layer 1
10
12.455839
20
14.809135
11
13.263631
21
14.493982
0
LINE
8
Layer 1
10
13.263631
20
14.493982
11
15.016681
21
14.321984
0
LINE
8
Layer 1
10
15.016681
20
14.321984
11
18.489711
21
14.024296
0
LINE
8
Layer 1
10
18.489711
20
14.024296
11
23.298198
21
13.592648
0
LINE
8
Layer 1
10
23.298198
20
13.592648
11
24.271471
21
13.647224
0
LINE
8
Layer 1
10
24.271471
20
13.647224
11
24.822194
21
13.859844
0
LINE
8
Layer 1
10
24.822194
20
13.859844
11
25.219111
21
14.167351
0
LINE
8
Layer 1
10
25.219111
20
14.167351
11
25.469666
21
14.580291
0
LINE
8
Layer 1
10
25.469666
20
14.580291
11
25.581301
21
15.109204
0
LINE
8
Layer 1
10
25.581301
20
15.109204
11
25.443207
21
16.062633
0
LINE
8
Layer 1
10
25.443207
20
16.062633
11
24.575781
21
17.894244
0
LINE
8
Layer 1
10
24.575781
20
17.894244
11
20.077381
21
26.758734
0
LINE
8
Layer 1
10
20.077381
20
26.758734
11
18.211871
21
30.284684
0
LINE
8
Layer 1
10
18.211871
20
30.284684
11
17.662802
21
30.950347
0
LINE
8
Layer 1
10
17.662802
20
30.950347
11
16.974811
21
31.422514
0
LINE
8
Layer 1
10
16.974811
20
31.422514
11
16.670508
21
31.620973
0
LINE
8
Layer 1
10
16.670508
20
31.620973
11
20.646298
21
33.638633
0
LINE
8
Layer 1
10
20.646298
20
33.638633
11
24.761008
21
35.755523
0
LINE
8
Layer 1
10
24.761008
20
35.755523
11
27.486508
21
38.997013
0
LINE
8
Layer 1
10
27.486508
20
38.997013
11
30.278158
21
42.291423
0
LINE
8
Layer 1
10
30.278158
20
42.291423
11
30.364156
21
41.444666
0
LINE
8
Layer 1
10
30.364156
20
41.444666
11
30.555999
21
40.187756
0
LINE
8
Layer 1
10
30.555999
20
40.187756
11
30.939480
21
39.108948
0
LINE
8
Layer 1
10
30.939480
20
39.108948
11
31.500332
21
38.046885
0
LINE
8
Layer 1
10
31.500332
20
38.046885
11
32.172819
21
37.107617
0
LINE
8
Layer 1
10
32.172819
20
37.107617
11
32.891199
21
36.397196
0
LINE
8
Layer 1
10
32.891199
20
36.397196
11
33.667668
21
35.870454
0
LINE
8
Layer 1
10
33.667668
20
35.870454
11
34.220869
21
35.656284
0
LINE
8
Layer 1
10
34.220869
20
35.656284
11
34.367233
21
35.624034
0
LINE
8
Layer 1
10
34.367233
20
35.624034
11
34.399482
21
35.477671
0
LINE
8
Layer 1
10
34.399482
20
35.477671
11
35.285931
21
32.910941
0
LINE
8
Layer 1
10
35.285931
20
32.910941
11
36.820681
21
28.776381
0
LINE
8
Layer 1
10
36.820681
20
28.776381
11
37.971742
21
25.634121
0
LINE
8
Layer 1
10
37.971742
20
25.634121
11
39.056652
21
22.657241
0
LINE
8
Layer 1
10
39.056652
20
22.657241
11
40.564940
21
18.369707
0
LINE
8
Layer 1
10
40.564940
20
18.369707
11
40.727427
21
17.690502
0
LINE
8
Layer 1
10
40.727427
20
17.690502
11
40.684012
21
17.371621
0
LINE
8
Layer 1
10
40.684012
20
17.371621
11
40.512014
21
17.067318
0
LINE
8
Layer 1
10
40.512014
20
17.067318
11
35.338853
21
16.994550
0
LINE
8
Layer 1
10
35.338853
20
16.994550
11
30.515483
21
17.053261
0
LINE
8
Layer 1
10
30.515483
20
17.053261
11
29.933029
21
17.188977
0
LINE
8
Layer 1
10
29.933029
20
17.188977
11
29.755553
21
17.464236
0
LINE
8
Layer 1
10
29.755553
20
17.464236
11
29.653844
21
18.597105
0
LINE
8
Layer 1
10
29.653844
20
18.597105
11
29.636478
21
23.887686
0
LINE
8
Layer 1
10
29.636478
20
23.887686
11
29.530634
21
30.125906
0
LINE
8
Layer 1
10
29.530634
20
30.125906
11
29.186639
21
30.154021
0
LINE
8
Layer 1
10
29.186639
20
30.154021
11
28.703723
21
29.993600
0
LINE
8
Layer 1
10
28.703723
20
29.993600
11
28.313421
21
29.814987
0
LINE
8
Layer 1
10
28.313421
20
29.814987
11
28.326651
21
23.523847
0
LINE
8
Layer 1
10
28.326651
20
23.523847
11
28.346497
21
17.232707
0
LINE
8
Layer 1
10
28.346497
20
17.232707
11
28.571417
21
16.815944
0
LINE
8
Layer 1
10
28.571417
20
16.815944
11
29.003065
21
16.233799
0
LINE
8
Layer 1
10
29.003065
20
16.233799
11
29.563710
21
15.830266
0
LINE
8
Layer 1
10
29.563710
20
15.830266
11
30.575850
21
15.726075
0
LINE
8
Layer 1
10
30.575850
20
15.726075
11
35.239630
21
15.691345
0
LINE
8
Layer 1
10
35.239630
20
15.691345
11
40.677400
21
15.671499
0
LINE
8
Layer 1
10
40.677400
20
15.671499
11
40.994934
21
15.836881
0
LINE
8
Layer 1
10
40.994934
20
15.836881
11
41.453663
21
16.154724
0
LINE
8
Layer 1
10
41.453663
20
16.154724
11
41.792075
21
16.573657
0
LINE
8
Layer 1
10
41.792075
20
16.573657
11
42.001490
21
17.080657
0
LINE
8
Layer 1
10
42.001490
20
17.080657
11
42.073224
21
17.662701
0
LINE
8
Layer 1
10
42.073224
20
17.662701
11
41.860707
21
18.749262
0
LINE
8
Layer 1
10
41.860707
20
18.749262
11
40.650934
21
22.128021
0
LINE
8
Layer 1
10
40.650934
20
22.128021
11
39.493254
21
25.303361
0
LINE
8
Layer 1
10
39.493254
20
25.303361
11
38.732496
21
27.387181
0
LINE
8
Layer 1
10
38.732496
20
27.387181
11
38.236349
21
28.743311
0
LINE
8
Layer 1
10
38.236349
20
28.743311
11
37.740202
21
30.099441
0
LINE
8
Layer 1
10
37.740202
20
30.099441
11
36.417142
21
33.704771
0
LINE
8
Layer 1
10
36.417142
20
33.704771
11
36.059916
21
34.617681
0
LINE
8
Layer 1
10
36.059916
20
34.617681
11
35.920995
21
34.961676
0
LINE
8
Layer 1
10
35.920995
20
34.961676
11
38.170195
21
35.127058
0
LINE
8
Layer 1
10
38.170195
20
35.127058
11
41.307496
21
35.326344
0
LINE
8
Layer 1
10
41.307496
20
35.326344
11
41.993835
21
35.530591
0
LINE
8
Layer 1
10
41.993835
20
35.530591
11
42.661979
21
36.073045
0
LINE
8
Layer 1
10
42.661979
20
36.073045
11
44.117339
21
38.639775
0
LINE
8
Layer 1
10
44.117339
20
38.639775
11
45.226225
21
40.821166
0
LINE
8
Layer 1
10
45.226225
20
40.821166
11
45.312740
21
41.250128
0
LINE
8
Layer 1
10
45.312740
20
41.250128
11
45.208859
21
41.563735
0
LINE
8
Layer 1
10
45.208859
20
41.563735
11
44.698655
21
42.140919
0
LINE
8
Layer 1
10
44.698655
20
42.140919
11
43.012579
21
43.303555
0
LINE
8
Layer 1
10
43.012579
20
43.303555
11
41.213219
21
44.606765
0
LINE
8
Layer 1
10
41.213219
20
44.606765
11
41.041221
21
45.135988
0
LINE
8
Layer 1
10
41.041221
20
45.135988
11
40.387134
21
46.382972
0
LINE
8
Layer 1
10
40.387134
20
46.382972
11
39.341091
21
47.371958
0
LINE
8
Layer 1
10
39.341091
20
47.371958
11
38.794813
21
47.665305
0
LINE
8
Layer 1
10
38.794813
20
47.665305
11
38.146206
21
47.843297
0
LINE
8
Layer 1
10
38.146206
20
47.843297
11
35.755601
21
47.987180
0
LINE
8
Layer 1
10
35.755601
20
47.987180
11
33.592401
21
47.901181
0
LINE
8
Layer 1
10
33.592401
20
47.901181
11
33.592400
21
47.901200
0
LINE
8
Layer 1
10
36.516360
20
46.644290
11
37.023256
21
46.600464
0
LINE
8
Layer 1
10
37.023256
20
46.600464
11
36.979430
21
46.551676
0
LINE
8
Layer 1
10
36.979430
20
46.551676
11
36.513259
21
46.341434
0
LINE
8
Layer 1
10
36.513259
20
46.341434
11
36.092981
21
45.951338
0
LINE
8
Layer 1
10
36.092981
20
45.951338
11
35.757047
21
45.429764
0
LINE
8
Layer 1
10
35.757047
20
45.429764
11
35.543910
21
44.825086
0
LINE
8
Layer 1
10
35.543910
20
44.825086
11
35.474656
21
44.166761
0
LINE
8
Layer 1
10
35.474656
20
44.166761
11
35.555487
21
43.522701
0
LINE
8
Layer 1
10
35.555487
20
43.522701
11
36.172363
21
42.284816
0
LINE
8
Layer 1
10
36.172363
20
42.284816
11
36.753063
21
41.688187
0
LINE
8
Layer 1
10
36.753063
20
41.688187
11
37.420588
21
41.284977
0
LINE
8
Layer 1
10
37.420588
20
41.284977
11
38.133385
21
41.071389
0
LINE
8
Layer 1
10
38.133385
20
41.071389
11
38.849904
21
41.043623
0
LINE
8
Layer 1
10
38.849904
20
41.043623
11
39.528592
21
41.197880
0
LINE
8
Layer 1
10
39.528592
20
41.197880
11
40.127895
21
41.530363
0
LINE
8
Layer 1
10
40.127895
20
41.530363
11
40.606263
21
42.037272
0
LINE
8
Layer 1
10
40.606263
20
42.037272
11
40.922143
21
42.714810
0
LINE
8
Layer 1
10
40.922143
20
42.714810
11
41.021372
21
43.065420
0
LINE
8
Layer 1
10
41.021372
20
43.065420
11
41.365367
21
42.807424
0
LINE
8
Layer 1
10
41.365367
20
42.807424
11
43.832867
21
41.160214
0
LINE
8
Layer 1
10
43.832867
20
41.160214
11
43.870078
21
41.012197
0
LINE
8
Layer 1
10
43.870078
20
41.012197
11
43.614562
21
40.511916
0
LINE
8
Layer 1
10
43.614562
20
40.511916
11
42.503192
21
38.467796
0
LINE
8
Layer 1
10
42.503192
20
38.467796
11
41.537360
21
36.820586
0
LINE
8
Layer 1
10
41.537360
20
36.820586
11
41.247941
21
36.640319
0
LINE
8
Layer 1
10
41.247941
20
36.640319
11
40.373070
21
36.569205
0
LINE
8
Layer 1
10
40.373070
20
36.569205
11
36.030132
21
36.297978
0
LINE
8
Layer 1
10
36.030132
20
36.297978
11
35.226787
21
36.167326
0
LINE
8
Layer 1
10
35.226787
20
36.167326
11
34.842690
21
35.987059
0
LINE
8
Layer 1
10
34.842690
20
35.987059
11
34.624385
21
35.867984
0
LINE
8
Layer 1
10
34.624385
20
35.867984
11
34.670692
21
36.139211
0
LINE
8
Layer 1
10
34.670692
20
36.139211
11
34.611982
21
36.660165
0
LINE
8
Layer 1
10
34.611982
20
36.660165
11
34.002548
21
37.230731
0
LINE
8
Layer 1
10
34.002548
20
37.230731
11
32.790299
21
38.456213
0
LINE
8
Layer 1
10
32.790299
20
38.456213
11
31.984888
21
40.108381
0
LINE
8
Layer 1
10
31.984888
20
40.108381
11
31.659912
21
41.627416
0
LINE
8
Layer 1
10
31.659912
20
41.627416
11
31.766583
21
43.290331
0
LINE
8
Layer 1
10
31.766583
20
43.290331
11
32.035640
21
44.329863
0
LINE
8
Layer 1
10
32.035640
20
44.329863
11
32.480209
21
45.275745
0
LINE
8
Layer 1
10
32.480209
20
45.275745
11
33.047572
21
46.039292
0
LINE
8
Layer 1
10
33.047572
20
46.039292
11
33.685013
21
46.531821
0
LINE
8
Layer 1
10
33.685013
20
46.531821
11
34.112527
21
46.676531
0
LINE
8
Layer 1
10
34.112527
20
46.676531
11
34.922073
21
46.697203
0
LINE
8
Layer 1
10
34.922073
20
46.697203
11
36.516353
21
46.644281
0
LINE
8
Layer 1
10
36.516353
20
46.644281
11
36.516360
21
46.644290
0
LINE
8
Layer 1
10
38.765560
20
44.686160
11
39.666068
21
44.032073
0
LINE
8
Layer 1
10
39.666068
20
44.032073
11
39.817390
21
43.700482
0
LINE
8
Layer 1
10
39.817390
20
43.700482
11
39.694180
21
43.203508
0
LINE
8
Layer 1
10
39.694180
20
43.203508
11
39.407242
21
42.701573
0
LINE
8
Layer 1
10
39.407242
20
42.701573
11
38.862307
21
42.375047
0
LINE
8
Layer 1
10
38.862307
20
42.375047
11
38.178451
21
42.426212
0
LINE
8
Layer 1
10
38.178451
20
42.426212
11
37.502038
21
42.808555
0
LINE
8
Layer 1
10
37.502038
20
42.808555
11
36.979432
21
43.475562
0
LINE
8
Layer 1
10
36.979432
20
43.475562
11
36.797408
21
44.084995
0
LINE
8
Layer 1
10
36.797408
20
44.084995
11
36.833069
21
44.649774
0
LINE
8
Layer 1
10
36.833069
20
44.649774
11
37.065948
21
45.090517
0
LINE
8
Layer 1
10
37.065948
20
45.090517
11
37.475579
21
45.327842
0
LINE
8
Layer 1
10
37.475579
20
45.327842
11
37.889862
21
45.232747
0
LINE
8
Layer 1
10
37.889862
20
45.232747
11
38.765559
21
44.686159
0
LINE
8
Layer 1
10
38.765559
20
44.686159
11
38.765560
21
44.686160
0
LINE
8
Layer 1
10
15.823760
20
30.469860
11
16.630825
21
30.079558
0
LINE
8
Layer 1
10
16.630825
20
30.079558
11
16.900605
21
29.858773
0
LINE
8
Layer 1
10
16.900605
20
29.858773
11
17.246047
21
29.340299
0
LINE
8
Layer 1
10
17.246047
20
29.340299
11
19.071865
21
25.832538
0
LINE
8
Layer 1
10
19.071865
20
25.832538
11
24.278095
21
15.360538
0
LINE
8
Layer 1
10
24.278095
20
15.360538
11
24.125116
21
15.013235
0
LINE
8
Layer 1
10
24.125116
20
15.013235
11
23.709180
21
14.884237
0
LINE
8
Layer 1
10
23.709180
20
14.884237
11
19.118170
21
15.281154
0
LINE
8
Layer 1
10
19.118170
20
15.281154
11
15.380530
21
15.611919
0
LINE
8
Layer 1
10
15.380530
20
15.611919
11
13.389330
21
15.850069
0
LINE
8
Layer 1
10
13.389330
20
15.850069
11
12.834472
21
16.170911
0
LINE
8
Layer 1
10
12.834472
20
16.170911
11
12.463189
21
16.650519
0
LINE
8
Layer 1
10
12.463189
20
16.650519
11
12.288711
21
17.603948
0
LINE
8
Layer 1
10
12.288711
20
17.603948
11
12.436728
21
20.487389
0
LINE
8
Layer 1
10
12.436728
20
20.487389
11
12.701340
21
24.211799
0
LINE
8
Layer 1
10
12.701340
20
24.211799
11
12.899799
21
26.924069
0
LINE
8
Layer 1
10
12.899799
20
26.924069
11
13.104873
21
29.272499
0
LINE
8
Layer 1
10
13.104873
20
29.272499
11
13.510060
21
30.103543
0
LINE
8
Layer 1
10
13.510060
20
30.103543
11
14.302243
21
30.602169
0
LINE
8
Layer 1
10
14.302243
20
30.602169
11
14.978657
21
30.657572
0
LINE
8
Layer 1
10
14.978657
20
30.657572
11
15.823763
21
30.469863
0
LINE
8
Layer 1
10
15.823763
20
30.469863
11
15.823760
21
30.469860
 0 
ENDSEC
 0 
EOF