999
"DXF R12 Output" (www.mydxf.blogspot.com)
 0 
SECTION
 2 
HEADER
 9 
$ACADVER
 1 
AC1009
 9 
$EXTMIN
 10 
 0 
 20 
 0 
 9 
$EXTMAX
 10 
 8.5 
 20 
 11 
 0 
ENDSEC
 0 
SECTION
 2 
ENTITIES
0
LINE
8
Layer 1
10
10.630800
20
51.585900
11
10.466245
21
51.314673
0
LINE
8
Layer 1
10
10.466245
20
51.314673
11
10.386034
21
50.408380
0
LINE
8
Layer 1
10
10.386034
20
50.408380
11
10.253728
21
48.556100
0
LINE
8
Layer 1
10
10.253728
20
48.556100
11
10.022193
21
45.116150
0
LINE
8
Layer 1
10
10.022193
20
45.116150
11
9.949425
21
44.190009
0
LINE
8
Layer 1
10
9.949425
20
44.190009
11
9.744351
21
41.490969
0
LINE
8
Layer 1
10
9.744351
20
41.490969
11
9.962656
21
38.500859
0
LINE
8
Layer 1
10
9.962656
20
38.500859
11
10.491052
21
36.659326
0
LINE
8
Layer 1
10
10.491052
20
36.659326
11
11.391556
21
34.902139
0
LINE
8
Layer 1
10
11.391556
20
34.902139
11
11.649552
21
34.511837
0
LINE
8
Layer 1
10
11.649552
20
34.511837
11
11.418017
21
33.936307
0
LINE
8
Layer 1
10
11.418017
20
33.936307
11
10.617567
21
31.217427
0
LINE
8
Layer 1
10
10.617567
20
31.217427
11
10.452185
21
29.219607
0
LINE
8
Layer 1
10
10.452185
20
29.219607
11
10.524953
21
26.712417
0
LINE
8
Layer 1
10
10.524953
20
26.712417
11
11.057484
21
23.881903
0
LINE
8
Layer 1
10
11.057484
20
23.881903
11
12.046473
21
21.393727
0
LINE
8
Layer 1
10
12.046473
20
21.393727
11
12.916385
21
19.879653
0
LINE
8
Layer 1
10
12.916385
20
19.879653
11
13.945063
21
18.430077
0
LINE
8
Layer 1
10
13.945063
20
18.430077
11
15.241661
21
17.047482
0
LINE
8
Layer 1
10
15.241661
20
17.047482
11
16.637483
21
15.803807
0
LINE
8
Layer 1
10
16.637483
20
15.803807
11
18.558397
21
14.532017
0
LINE
8
Layer 1
10
18.558397
20
14.532017
11
20.474353
21
13.547997
0
LINE
8
Layer 1
10
20.474353
20
13.547997
11
21.069729
21
13.303231
0
LINE
8
Layer 1
10
21.069729
20
13.303231
11
14.216289
21
13.296616
0
LINE
8
Layer 1
10
14.216289
20
13.296616
11
8.215392
21
13.280077
0
LINE
8
Layer 1
10
8.215392
20
13.280077
11
7.190849
21
13.164310
0
LINE
8
Layer 1
10
7.190849
20
13.164310
11
6.969237
21
12.774834
0
LINE
8
Layer 1
10
6.969237
20
12.774834
11
7.065158
21
12.271246
0
LINE
8
Layer 1
10
7.065158
20
12.271246
11
9.215128
21
9.486206
0
LINE
8
Layer 1
10
9.215128
20
9.486206
11
10.248766
21
8.387242
0
LINE
8
Layer 1
10
10.248766
20
8.387242
11
10.716798
21
8.136686
0
LINE
8
Layer 1
10
10.716798
20
8.136686
11
11.030197
21
8.294626
0
LINE
8
Layer 1
10
11.030197
20
8.294626
11
11.179868
21
8.626217
0
LINE
8
Layer 1
10
11.179868
20
8.626217
11
10.950814
21
9.115748
0
LINE
8
Layer 1
10
10.950814
20
9.115748
11
10.280189
21
9.922817
0
LINE
8
Layer 1
10
10.280189
20
9.922817
11
8.335289
21
12.244787
0
LINE
8
Layer 1
10
8.335289
20
12.244787
11
24.906589
21
12.158788
0
LINE
8
Layer 1
10
24.906589
20
12.158788
11
28.181159
21
11.702333
0
LINE
8
Layer 1
10
28.181159
20
11.702333
11
29.975455
21
11.654269
0
LINE
8
Layer 1
10
29.975455
20
11.654269
11
32.121392
21
11.774274
0
LINE
8
Layer 1
10
32.121392
20
11.774274
11
36.562729
21
12.436630
0
LINE
8
Layer 1
10
36.562729
20
12.436630
11
39.133595
21
13.142813
0
LINE
8
Layer 1
10
39.133595
20
13.142813
11
41.510969
21
14.156610
0
LINE
8
Layer 1
10
41.510969
20
14.156610
11
43.086947
21
15.030371
0
LINE
8
Layer 1
10
43.086947
20
15.030371
11
44.531987
21
16.045069
0
LINE
8
Layer 1
10
44.531987
20
16.045069
11
45.841052
21
17.194657
0
LINE
8
Layer 1
10
45.841052
20
17.194657
11
47.009103
21
18.473087
0
LINE
8
Layer 1
10
47.009103
20
18.473087
11
48.031100
21
19.874315
0
LINE
8
Layer 1
10
48.031100
20
19.874315
11
48.902004
21
21.392292
0
LINE
8
Layer 1
10
48.902004
20
21.392292
11
49.616777
21
23.020973
0
LINE
8
Layer 1
10
49.616777
20
23.020973
11
50.170379
21
24.754310
0
LINE
8
Layer 1
10
50.170379
20
24.754310
11
50.531739
21
26.559457
0
LINE
8
Layer 1
10
50.531739
20
26.559457
11
50.640065
21
28.875640
0
LINE
8
Layer 1
10
50.640065
20
28.875640
11
50.564816
21
31.367124
0
LINE
8
Layer 1
10
50.564816
20
31.367124
11
50.077765
21
33.804030
0
LINE
8
Layer 1
10
50.077765
20
33.804030
11
49.081337
21
37.431686
0
LINE
8
Layer 1
10
49.081337
20
37.431686
11
48.179175
21
39.724710
0
LINE
8
Layer 1
10
48.179175
20
39.724710
11
46.465815
21
42.443590
0
LINE
8
Layer 1
10
46.465815
20
42.443590
11
45.077225
21
43.995495
0
LINE
8
Layer 1
10
45.077225
20
43.995495
11
43.389706
21
45.327856
0
LINE
8
Layer 1
10
43.389706
20
45.327856
11
41.488845
21
46.382374
0
LINE
8
Layer 1
10
41.488845
20
46.382374
11
39.460225
21
47.100750
0
LINE
8
Layer 1
10
39.460225
20
47.100750
11
37.401214
21
47.472860
0
LINE
8
Layer 1
10
37.401214
20
47.472860
11
34.895675
21
47.497667
0
LINE
8
Layer 1
10
34.895675
20
47.497667
11
31.701318
21
47.183441
0
LINE
8
Layer 1
10
31.701318
20
47.183441
11
28.214235
21
46.432607
0
LINE
8
Layer 1
10
28.214235
20
46.432607
11
26.884565
21
46.128304
0
LINE
8
Layer 1
10
26.884565
20
46.128304
11
26.454571
21
47.504284
0
LINE
8
Layer 1
10
26.454571
20
47.504284
11
25.799657
21
49.713794
0
LINE
8
Layer 1
10
25.799657
20
49.713794
11
25.402740
21
51.050084
0
LINE
8
Layer 1
10
25.402740
20
51.050084
11
25.135648
21
51.613211
0
LINE
8
Layer 1
10
25.135648
20
51.613211
11
24.714750
21
51.704998
0
LINE
8
Layer 1
10
24.714750
20
51.704998
11
24.112759
21
51.182390
0
LINE
8
Layer 1
10
24.112759
20
51.182390
11
22.597859
21
49.330110
0
LINE
8
Layer 1
10
22.597859
20
49.330110
11
21.624584
21
48.182357
0
LINE
8
Layer 1
10
21.624584
20
48.182357
11
21.301259
21
47.987210
0
LINE
8
Layer 1
10
21.301259
20
47.987210
11
20.672806
21
48.119516
0
LINE
8
Layer 1
10
20.672806
20
48.119516
11
19.340653
21
48.315494
0
LINE
8
Layer 1
10
19.340653
20
48.315494
11
17.894386
21
48.337821
0
LINE
8
Layer 1
10
17.894386
20
48.337821
11
15.149036
21
47.960749
0
LINE
8
Layer 1
10
15.149036
20
47.960749
11
14.454431
21
47.821828
0
LINE
8
Layer 1
10
14.454431
20
47.821828
11
14.295664
21
48.007056
0
LINE
8
Layer 1
10
14.295664
20
48.007056
11
13.495214
21
48.919966
0
LINE
8
Layer 1
10
13.495214
20
48.919966
11
12.218464
21
50.441486
0
LINE
8
Layer 1
10
12.218464
20
50.441486
11
11.391553
21
51.453626
0
LINE
8
Layer 1
10
11.391553
20
51.453626
11
11.008693
21
51.708315
0
LINE
8
Layer 1
10
11.008693
20
51.708315
11
10.630795
21
51.585932
0
LINE
8
Layer 1
10
10.630795
20
51.585932
11
10.630800
21
51.585900
0
LINE
8
Layer 1
10
25.197700
20
47.954110
11
25.799691
21
45.870290
0
LINE
8
Layer 1
10
25.799691
20
45.870290
11
24.390631
21
45.380759
0
LINE
8
Layer 1
10
24.390631
20
45.380759
11
19.978231
21
43.442479
0
LINE
8
Layer 1
10
19.978231
20
43.442479
11
17.669491
21
41.987119
0
LINE
8
Layer 1
10
17.669491
20
41.987119
11
15.076301
21
39.718079
0
LINE
8
Layer 1
10
15.076301
20
39.718079
11
13.611840
21
37.963373
0
LINE
8
Layer 1
10
13.611840
20
37.963373
11
12.430181
21
36.139209
0
LINE
8
Layer 1
10
12.430181
20
36.139209
11
12.165569
21
35.722446
0
LINE
8
Layer 1
10
12.165569
20
35.722446
11
11.874496
21
36.159055
0
LINE
8
Layer 1
10
11.874496
20
36.159055
11
11.348581
21
37.396941
0
LINE
8
Layer 1
10
11.348581
20
37.396941
11
11.001278
21
38.778705
0
LINE
8
Layer 1
10
11.001278
20
38.778705
11
10.883857
21
41.001444
0
LINE
8
Layer 1
10
10.883857
20
41.001444
11
11.034354
21
44.156935
0
LINE
8
Layer 1
10
11.034354
20
44.156935
11
11.312196
21
48.059955
0
LINE
8
Layer 1
10
11.312196
20
48.059955
11
11.431271
21
49.462395
0
LINE
8
Layer 1
10
11.431271
20
49.462395
11
11.527193
21
49.514491
0
LINE
8
Layer 1
10
11.527193
20
49.514491
11
11.841419
21
49.164707
0
LINE
8
Layer 1
10
11.841419
20
49.164707
11
14.130309
21
46.637667
0
LINE
8
Layer 1
10
14.130309
20
46.637667
11
14.672763
21
46.769973
0
LINE
8
Layer 1
10
14.672763
20
46.769973
11
17.142748
21
47.219813
0
LINE
8
Layer 1
10
17.142748
20
47.219813
11
19.468853
21
47.233043
0
LINE
8
Layer 1
10
19.468853
20
47.233043
11
21.446823
21
46.842741
0
LINE
8
Layer 1
10
21.446823
20
46.842741
11
21.720531
21
46.841397
0
LINE
8
Layer 1
10
21.720531
20
46.841397
11
22.113313
21
47.129680
0
LINE
8
Layer 1
10
22.113313
20
47.129680
11
23.841553
21
49.138251
0
LINE
8
Layer 1
10
23.841553
20
49.138251
11
24.582465
21
49.998239
0
LINE
8
Layer 1
10
24.582465
20
49.998239
11
25.197687
21
47.954119
0
LINE
8
Layer 1
10
25.197687
20
47.954119
11
25.197700
21
47.954110
0
LINE
8
Layer 1
10
37.872600
20
46.472290
11
39.308440
21
45.684579
0
LINE
8
Layer 1
10
39.308440
20
45.684579
11
40.670557
21
44.681820
0
LINE
8
Layer 1
10
40.670557
20
44.681820
11
41.946623
21
43.480291
0
LINE
8
Layer 1
10
41.946623
20
43.480291
11
43.124313
21
42.096272
0
LINE
8
Layer 1
10
43.124313
20
42.096272
11
44.191299
21
40.546044
0
LINE
8
Layer 1
10
44.191299
20
40.546044
11
45.135257
21
38.845884
0
LINE
8
Layer 1
10
45.135257
20
38.845884
11
45.943859
21
37.012073
0
LINE
8
Layer 1
10
45.943859
20
37.012073
11
46.604780
21
35.060890
0
LINE
8
Layer 1
10
46.604780
20
35.060890
11
47.148060
21
32.223758
0
LINE
8
Layer 1
10
47.148060
20
32.223758
11
47.279540
21
29.173280
0
LINE
8
Layer 1
10
47.279540
20
29.173280
11
47.041907
21
27.008321
0
LINE
8
Layer 1
10
47.041907
20
27.008321
11
46.484879
21
24.837783
0
LINE
8
Layer 1
10
46.484879
20
24.837783
11
45.618999
21
22.688330
0
LINE
8
Layer 1
10
45.618999
20
22.688330
11
44.454810
21
20.586630
0
LINE
8
Layer 1
10
44.454810
20
20.586630
11
43.448873
21
19.181190
0
LINE
8
Layer 1
10
43.448873
20
19.181190
11
42.286649
21
17.847071
0
LINE
8
Layer 1
10
42.286649
20
17.847071
11
41.042560
21
16.665520
0
LINE
8
Layer 1
10
41.042560
20
16.665520
11
39.791030
21
15.717780
0
LINE
8
Layer 1
10
39.791030
20
15.717780
11
37.302025
21
14.336010
0
LINE
8
Layer 1
10
37.302025
20
14.336010
11
34.564950
21
13.395810
0
LINE
8
Layer 1
10
34.564950
20
13.395810
11
32.390175
21
12.942663
0
LINE
8
Layer 1
10
32.390175
20
12.942663
11
30.046710
21
12.787203
0
LINE
8
Layer 1
10
30.046710
20
12.787203
11
28.300274
21
12.794645
0
LINE
8
Layer 1
10
28.300274
20
12.794645
11
26.395070
21
13.005508
0
LINE
8
Layer 1
10
26.395070
20
13.005508
11
24.375751
21
13.372347
0
LINE
8
Layer 1
10
24.375751
20
13.372347
11
22.465586
21
13.920899
0
LINE
8
Layer 1
10
22.465586
20
13.920899
11
20.649691
21
14.656746
0
LINE
8
Layer 1
10
20.649691
20
14.656746
11
18.913180
21
15.585468
0
LINE
8
Layer 1
10
18.913180
20
15.585468
11
17.083432
21
16.866456
0
LINE
8
Layer 1
10
17.083432
20
16.866456
11
15.458345
21
18.371333
0
LINE
8
Layer 1
10
15.458345
20
18.371333
11
14.073888
21
20.061025
0
LINE
8
Layer 1
10
14.073888
20
20.061025
11
12.966030
21
21.896458
0
LINE
8
Layer 1
10
12.966030
20
21.896458
11
12.144906
21
24.015008
0
LINE
8
Layer 1
10
12.144906
20
24.015008
11
11.596660
21
26.381628
0
LINE
8
Layer 1
10
11.596660
20
26.381628
11
11.482546
21
28.786286
0
LINE
8
Layer 1
10
11.482546
20
28.786286
11
11.596660
21
31.290178
0
LINE
8
Layer 1
10
11.596660
20
31.290178
11
12.125883
21
33.717988
0
LINE
8
Layer 1
10
12.125883
20
33.717988
11
12.284650
21
33.618759
0
LINE
8
Layer 1
10
12.284650
20
33.618759
11
13.680480
21
32.467699
0
LINE
8
Layer 1
10
13.680480
20
32.467699
11
14.831745
21
31.817953
0
LINE
8
Layer 1
10
14.831745
20
31.817953
11
16.078520
21
31.362945
0
LINE
8
Layer 1
10
16.078520
20
31.362945
11
17.444373
21
31.096474
0
LINE
8
Layer 1
10
17.444373
20
31.096474
11
18.952870
21
31.012339
0
LINE
8
Layer 1
10
18.952870
20
31.012339
11
20.294117
21
31.075184
0
LINE
8
Layer 1
10
20.294117
20
31.075184
11
21.446830
21
31.296796
0
LINE
8
Layer 1
10
21.446830
20
31.296796
11
23.632355
21
32.133631
0
LINE
8
Layer 1
10
23.632355
20
32.133631
11
24.526970
21
32.714537
0
LINE
8
Layer 1
10
24.526970
20
32.714537
11
25.296930
21
33.407076
0
LINE
8
Layer 1
10
25.296930
20
33.407076
11
26.129318
21
34.445364
0
LINE
8
Layer 1
10
26.129318
20
34.445364
11
26.781234
21
35.610792
0
LINE
8
Layer 1
10
26.781234
20
35.610792
11
27.283065
21
36.970959
0
LINE
8
Layer 1
10
27.283065
20
36.970959
11
27.665200
21
38.593466
0
LINE
8
Layer 1
10
27.665200
20
38.593466
11
27.817352
21
40.750046
0
LINE
8
Layer 1
10
27.817352
20
40.750046
11
27.780141
21
42.061526
0
LINE
8
Layer 1
10
27.780141
20
42.061526
11
27.599047
21
43.164626
0
LINE
8
Layer 1
10
27.599047
20
43.164626
11
27.208745
21
44.831676
0
LINE
8
Layer 1
10
27.208745
20
44.831676
11
27.063209
21
45.473359
0
LINE
8
Layer 1
10
27.063209
20
45.473359
11
31.025769
21
46.406115
0
LINE
8
Layer 1
10
31.025769
20
46.406115
11
33.554464
21
46.794763
0
LINE
8
Layer 1
10
33.554464
20
46.794763
11
35.954159
21
46.875801
0
LINE
8
Layer 1
10
35.954159
20
46.875801
11
37.012609
21
46.862570
0
LINE
8
Layer 1
10
37.012609
20
46.862570
11
37.872597
21
46.472268
0
LINE
8
Layer 1
10
37.872597
20
46.472268
11
37.872600
21
46.472290
0
LINE
8
Layer 1
10
40.022570
20
46.267216
11
41.974494
21
45.421906
0
LINE
8
Layer 1
10
41.974494
20
45.421906
11
43.685786
21
44.322320
0
LINE
8
Layer 1
10
43.685786
20
44.322320
11
45.161408
21
42.964737
0
LINE
8
Layer 1
10
45.161408
20
42.964737
11
46.406320
21
41.345436
0
LINE
8
Layer 1
10
46.406320
20
41.345436
11
47.451537
21
39.035871
0
LINE
8
Layer 1
10
47.451537
20
39.035871
11
48.655520
21
35.232906
0
LINE
8
Layer 1
10
48.655520
20
35.232906
11
49.446046
21
31.815281
0
LINE
8
Layer 1
10
49.446046
20
31.815281
11
49.641198
21
29.007916
0
LINE
8
Layer 1
10
49.641198
20
29.007916
11
49.431989
21
26.365831
0
LINE
8
Layer 1
10
49.431989
20
26.365831
11
48.845709
21
23.931507
0
LINE
8
Layer 1
10
48.845709
20
23.931507
11
47.869953
21
21.667112
0
LINE
8
Layer 1
10
47.869953
20
21.667112
11
46.492318
21
19.534816
0
LINE
8
Layer 1
10
46.492318
20
19.534816
11
44.939070
21
17.793032
0
LINE
8
Layer 1
10
44.939070
20
17.793032
11
43.121002
21
16.317305
0
LINE
8
Layer 1
10
43.121002
20
16.317305
11
41.013927
21
15.090890
0
LINE
8
Layer 1
10
41.013927
20
15.090890
11
38.593658
21
14.097046
0
LINE
8
Layer 1
10
38.593658
20
14.097046
11
37.828765
21
13.860549
0
LINE
8
Layer 1
10
37.828765
20
13.860549
11
37.794551
21
13.875641
0
LINE
8
Layer 1
10
37.794551
20
13.875641
11
38.051204
21
13.991201
0
LINE
8
Layer 1
10
38.051204
20
13.991201
11
40.287174
21
15.287801
0
LINE
8
Layer 1
10
40.287174
20
15.287801
11
42.157026
21
16.799084
0
LINE
8
Layer 1
10
42.157026
20
16.799084
11
43.879275
21
18.690540
0
LINE
8
Layer 1
10
43.879275
20
18.690540
11
45.368336
21
20.853636
0
LINE
8
Layer 1
10
45.368336
20
20.853636
11
46.538624
21
23.179841
0
LINE
8
Layer 1
10
46.538624
20
23.179841
11
47.141959
21
24.801105
0
LINE
8
Layer 1
10
47.141959
20
24.801105
11
47.564821
21
26.346085
0
LINE
8
Layer 1
10
47.564821
20
26.346085
11
47.825195
21
27.897266
0
LINE
8
Layer 1
10
47.825195
20
27.897266
11
47.941064
21
29.537131
0
LINE
8
Layer 1
10
47.941064
20
29.537131
11
47.910468
21
31.409258
0
LINE
8
Layer 1
10
47.910468
20
31.409258
11
47.656607
21
33.261541
0
LINE
8
Layer 1
10
47.656607
20
33.261541
11
46.904945
21
36.224361
0
LINE
8
Layer 1
10
46.904945
20
36.224361
11
45.612487
21
39.261611
0
LINE
8
Layer 1
10
45.612487
20
39.261611
11
44.385971
21
41.419643
0
LINE
8
Layer 1
10
44.385971
20
41.419643
11
42.954795
21
43.338283
0
LINE
8
Layer 1
10
42.954795
20
43.338283
11
41.372295
21
44.956755
0
LINE
8
Layer 1
10
41.372295
20
44.956755
11
39.691807
21
46.214281
0
LINE
8
Layer 1
10
39.691807
20
46.214281
11
39.294063
21
46.496258
0
LINE
8
Layer 1
10
39.294063
20
46.496258
11
40.022572
21
46.267203
0
LINE
8
Layer 1
10
40.022572
20
46.267203
11
40.022570
21
46.267216
0
LINE
8
Layer 1
10
26.017970
20
45.069846
11
26.573654
21
42.966186
0
LINE
8
Layer 1
10
26.573654
20
42.966186
11
26.729940
21
42.021026
0
LINE
8
Layer 1
10
26.729940
20
42.021026
11
26.752267
21
40.683906
0
LINE
8
Layer 1
10
26.752267
20
40.683906
11
26.722498
21
39.357540
0
LINE
8
Layer 1
10
26.722498
20
39.357540
11
26.573654
21
38.428096
0
LINE
8
Layer 1
10
26.573654
20
38.428096
11
26.020658
21
36.555039
0
LINE
8
Layer 1
10
26.020658
20
36.555039
11
25.220829
21
35.018742
0
LINE
8
Layer 1
10
25.220829
20
35.018742
11
24.167965
21
33.811142
0
LINE
8
Layer 1
10
24.167965
20
33.811142
11
22.855864
21
32.924176
0
LINE
8
Layer 1
10
22.855864
20
32.924176
11
20.441284
21
32.150187
0
LINE
8
Layer 1
10
20.441284
20
32.150187
11
18.991710
21
32.087342
0
LINE
8
Layer 1
10
18.991710
20
32.087342
11
17.497484
21
32.183264
0
LINE
8
Layer 1
10
17.497484
20
32.183264
11
16.107341
21
32.510410
0
LINE
8
Layer 1
10
16.107341
20
32.510410
11
14.885269
21
33.019270
0
LINE
8
Layer 1
10
14.885269
20
33.019270
11
13.818245
21
33.715427
0
LINE
8
Layer 1
10
13.818245
20
33.715427
11
12.893244
21
34.604464
0
LINE
8
Layer 1
10
12.893244
20
34.604464
11
12.555864
21
34.994765
0
LINE
8
Layer 1
10
12.555864
20
34.994765
11
12.873398
21
35.570296
0
LINE
8
Layer 1
10
12.873398
20
35.570296
11
14.220436
21
37.663208
0
LINE
8
Layer 1
10
14.220436
20
37.663208
11
15.989198
21
39.632086
0
LINE
8
Layer 1
10
15.989198
20
39.632086
11
17.220465
21
40.778187
0
LINE
8
Layer 1
10
17.220465
20
40.778187
11
18.456698
21
41.715906
0
LINE
8
Layer 1
10
18.456698
20
41.715906
11
20.407383
21
42.933946
0
LINE
8
Layer 1
10
20.407383
20
42.933946
11
22.789708
21
44.057716
0
LINE
8
Layer 1
10
22.789708
20
44.057716
11
25.905508
21
45.182316
0
LINE
8
Layer 1
10
25.905508
20
45.182316
11
26.017968
21
45.069856
0
LINE
8
Layer 1
10
26.017968
20
45.069856
11
26.017970
21
45.069846
 0 
ENDSEC
 0 
EOF