999
"DXF R12 Output" (www.mydxf.blogspot.com)
 0 
SECTION
 2 
HEADER
 9 
$ACADVER
 1 
AC1009
 9 
$EXTMIN
 10 
 0 
 20 
 0 
 9 
$EXTMAX
 10 
 8.5 
 20 
 11 
 0 
ENDSEC
 0 
SECTION
 2 
ENTITIES
0
LINE
8
Layer 1
10
7.376050
20
52.651000
11
6.075318
21
52.288813
0
LINE
8
Layer 1
10
6.075318
20
52.288813
11
5.641086
21
51.953294
0
LINE
8
Layer 1
10
5.641086
20
51.953294
11
5.325310
21
51.499940
0
LINE
8
Layer 1
10
5.325310
20
51.499940
11
5.126851
21
51.109638
0
LINE
8
Layer 1
10
5.126851
20
51.109638
11
5.133466
21
49.918888
0
LINE
8
Layer 1
10
5.133466
20
49.918888
11
5.250888
21
48.195606
0
LINE
8
Layer 1
10
5.250888
20
48.195606
11
5.695766
21
46.194478
0
LINE
8
Layer 1
10
5.695766
20
46.194478
11
7.018823
21
42.312958
0
LINE
8
Layer 1
10
7.018823
20
42.312958
11
7.740510
21
40.711436
0
LINE
8
Layer 1
10
7.740510
20
40.711436
11
8.322036
21
39.771028
0
LINE
8
Layer 1
10
8.322036
20
39.771028
11
8.593263
21
39.479955
0
LINE
8
Layer 1
10
8.593263
20
39.479955
11
8.368343
21
38.150285
0
LINE
8
Layer 1
10
8.368343
20
38.150285
11
8.059905
21
35.809301
0
LINE
8
Layer 1
10
8.059905
20
35.809301
11
8.024348
21
33.552655
0
LINE
8
Layer 1
10
8.024348
20
33.552655
11
8.209783
21
30.879148
0
LINE
8
Layer 1
10
8.209783
20
30.879148
11
8.639570
21
28.135555
0
LINE
8
Layer 1
10
8.639570
20
28.135555
11
9.302547
21
25.378312
0
LINE
8
Layer 1
10
9.302547
20
25.378312
11
10.187548
21
22.663855
0
LINE
8
Layer 1
10
10.187548
20
22.663855
11
11.647875
21
19.410580
0
LINE
8
Layer 1
10
11.647875
20
19.410580
11
13.405887
21
16.672056
0
LINE
8
Layer 1
10
13.405887
20
16.672056
11
15.397087
21
14.531389
0
LINE
8
Layer 1
10
15.397087
20
14.531389
11
16.459977
21
13.711222
0
LINE
8
Layer 1
10
16.459977
20
13.711222
11
17.556978
21
13.071685
0
LINE
8
Layer 1
10
17.556978
20
13.071685
11
18.810267
21
12.554866
0
LINE
8
Layer 1
10
18.810267
20
12.554866
11
20.170846
21
12.191852
0
LINE
8
Layer 1
10
20.170846
20
12.191852
11
21.656700
21
11.977682
0
LINE
8
Layer 1
10
21.656700
20
11.977682
11
23.285818
21
11.907395
0
LINE
8
Layer 1
10
23.285818
20
11.907395
11
24.109422
21
11.961144
0
LINE
8
Layer 1
10
24.109422
20
11.961144
11
24.397188
21
12.218314
0
LINE
8
Layer 1
10
24.397188
20
12.218314
11
24.467476
21
12.525925
0
LINE
8
Layer 1
10
24.467476
20
12.525925
11
24.324420
21
12.793844
0
LINE
8
Layer 1
10
24.324420
20
12.793844
11
24.014328
21
12.931938
0
LINE
8
Layer 1
10
24.014328
20
12.931938
11
22.915360
21
12.985687
0
LINE
8
Layer 1
10
22.915360
20
12.985687
11
21.067214
21
13.122954
0
LINE
8
Layer 1
10
21.067214
20
13.122954
11
19.541560
21
13.468603
0
LINE
8
Layer 1
10
19.541560
20
13.468603
11
17.896008
21
14.123517
0
LINE
8
Layer 1
10
17.896008
20
14.123517
11
16.438990
21
15.076123
0
LINE
8
Layer 1
10
16.438990
20
15.076123
11
14.408100
21
17.126863
0
LINE
8
Layer 1
10
14.408100
20
17.126863
11
13.037185
21
19.113309
0
LINE
8
Layer 1
10
13.037185
20
19.113309
11
11.825658
21
21.468147
0
LINE
8
Layer 1
10
11.825658
20
21.468147
11
10.793984
21
24.143000
0
LINE
8
Layer 1
10
10.793984
20
24.143000
11
9.962630
21
27.089493
0
LINE
8
Layer 1
10
9.962630
20
27.089493
11
9.227506
21
31.130611
0
LINE
8
Layer 1
10
9.227506
20
31.130611
11
9.082796
21
34.908763
0
LINE
8
Layer 1
10
9.082796
20
34.908763
11
9.176237
21
36.662641
0
LINE
8
Layer 1
10
9.176237
20
36.662641
11
9.473098
21
38.421483
0
LINE
8
Layer 1
10
9.473098
20
38.421483
11
9.691403
21
39.499773
0
LINE
8
Layer 1
10
9.691403
20
39.499773
11
10.386008
21
40.015766
0
LINE
8
Layer 1
10
10.386008
20
40.015766
11
12.633551
21
41.887068
0
LINE
8
Layer 1
10
12.633551
20
41.887068
11
15.545938
21
44.626626
0
LINE
8
Layer 1
10
15.545938
20
44.626626
11
16.703618
21
45.764456
0
LINE
8
Layer 1
10
16.703618
20
45.764456
11
17.351916
21
45.658611
0
LINE
8
Layer 1
10
17.351916
20
45.658611
11
17.934062
21
45.587497
0
LINE
8
Layer 1
10
17.934062
20
45.587497
11
18.178827
21
45.685072
0
LINE
8
Layer 1
10
18.178827
20
45.685072
11
18.443439
21
45.995991
0
LINE
8
Layer 1
10
18.443439
20
45.995991
11
18.452535
21
46.311871
0
LINE
8
Layer 1
10
18.452535
20
46.311871
11
18.079598
21
46.776595
0
LINE
8
Layer 1
10
18.079598
20
46.776595
11
17.788525
21
47.080898
0
LINE
8
Layer 1
10
17.788525
20
47.080898
11
18.450054
21
47.623352
0
LINE
8
Layer 1
10
18.450054
20
47.623352
11
19.807738
21
48.619675
0
LINE
8
Layer 1
10
19.807738
20
48.619675
11
21.224340
21
49.431803
0
LINE
8
Layer 1
10
21.224340
20
49.431803
11
22.719087
21
50.069042
0
LINE
8
Layer 1
10
22.719087
20
50.069042
11
24.311204
21
50.540692
0
LINE
8
Layer 1
10
24.311204
20
50.540692
11
25.791378
21
50.821015
0
LINE
8
Layer 1
10
25.791378
20
50.821015
11
27.321164
21
50.897918
0
LINE
8
Layer 1
10
27.321164
20
50.897918
11
28.883202
21
50.825150
0
LINE
8
Layer 1
10
28.883202
20
50.825150
11
30.608964
21
50.534077
0
LINE
8
Layer 1
10
30.608964
20
50.534077
11
33.096313
21
49.827068
0
LINE
8
Layer 1
10
33.096313
20
49.827068
11
35.464584
21
48.847177
0
LINE
8
Layer 1
10
35.464584
20
48.847177
11
35.940885
21
48.609027
0
LINE
8
Layer 1
10
35.940885
20
48.609027
11
35.583659
21
48.403953
0
LINE
8
Layer 1
10
35.583659
20
48.403953
11
34.808016
21
47.842480
0
LINE
8
Layer 1
10
34.808016
20
47.842480
11
34.597981
21
47.305813
0
LINE
8
Layer 1
10
34.597981
20
47.305813
11
34.815459
21
46.860935
0
LINE
8
Layer 1
10
34.815459
20
46.860935
11
35.345509
21
46.525209
0
LINE
8
Layer 1
10
35.345509
20
46.525209
11
36.450259
21
46.412749
0
LINE
8
Layer 1
10
36.450259
20
46.412749
11
37.478110
21
46.496267
0
LINE
8
Layer 1
10
37.478110
20
46.496267
11
38.461309
21
46.803051
0
LINE
8
Layer 1
10
38.461309
20
46.803051
11
38.878072
21
46.968433
0
LINE
8
Layer 1
10
38.878072
20
46.968433
11
39.433756
21
46.597977
0
LINE
8
Layer 1
10
39.433756
20
46.597977
11
42.834014
21
44.027936
0
LINE
8
Layer 1
10
42.834014
20
44.027936
11
44.107456
21
42.802454
0
LINE
8
Layer 1
10
44.107456
20
42.802454
11
45.162596
21
41.557127
0
LINE
8
Layer 1
10
45.162596
20
41.557127
11
45.533052
21
41.074211
0
LINE
8
Layer 1
10
45.533052
20
41.074211
11
45.354439
21
40.498681
0
LINE
8
Layer 1
10
45.354439
20
40.498681
11
45.179134
21
39.565616
0
LINE
8
Layer 1
10
45.179134
20
39.565616
11
45.271748
21
38.650535
0
LINE
8
Layer 1
10
45.271748
20
38.650535
11
45.667013
21
37.617619
0
LINE
8
Layer 1
10
45.667013
20
37.617619
11
46.399659
21
36.331051
0
LINE
8
Layer 1
10
46.399659
20
36.331051
11
47.272877
21
34.650771
0
LINE
8
Layer 1
10
47.272877
20
34.650771
11
47.518263
21
33.542812
0
LINE
8
Layer 1
10
47.518263
20
33.542812
11
47.539143
21
32.321361
0
LINE
8
Layer 1
10
47.539143
20
32.321361
11
47.334276
21
30.969673
0
LINE
8
Layer 1
10
47.334276
20
30.969673
11
46.902421
21
29.471001
0
LINE
8
Layer 1
10
46.902421
20
29.471001
11
46.214224
21
27.845191
0
LINE
8
Layer 1
10
46.214224
20
27.845191
11
45.366018
21
26.417217
0
LINE
8
Layer 1
10
45.366018
20
26.417217
11
44.426027
21
25.285690
0
LINE
8
Layer 1
10
44.426027
20
25.285690
11
43.462471
21
24.549221
0
LINE
8
Layer 1
10
43.462471
20
24.549221
11
42.338700
21
24.180419
0
LINE
8
Layer 1
10
42.338700
20
24.180419
11
40.981741
21
24.218457
0
LINE
8
Layer 1
10
40.981741
20
24.218457
11
40.524459
21
24.263937
0
LINE
8
Layer 1
10
40.524459
20
24.263937
11
40.300366
21
24.165535
0
LINE
8
Layer 1
10
40.300366
20
24.165535
11
40.093638
21
23.781848
0
LINE
8
Layer 1
10
40.093638
20
23.781848
11
40.273905
21
23.358470
0
LINE
8
Layer 1
10
40.273905
20
23.358470
11
40.532728
21
23.192261
0
LINE
8
Layer 1
10
40.532728
20
23.192261
11
41.114047
21
23.120320
0
LINE
8
Layer 1
10
41.114047
20
23.120320
11
42.819964
21
23.187300
0
LINE
8
Layer 1
10
42.819964
20
23.187300
11
44.183537
21
23.735542
0
LINE
8
Layer 1
10
44.183537
20
23.735542
11
45.431967
21
24.805151
0
LINE
8
Layer 1
10
45.431967
20
24.805151
11
46.589851
21
26.363466
0
LINE
8
Layer 1
10
46.589851
20
26.363466
11
47.571602
21
28.271563
0
LINE
8
Layer 1
10
47.571602
20
28.271563
11
48.291637
21
30.390522
0
LINE
8
Layer 1
10
48.291637
20
30.390522
11
48.563691
21
31.807848
0
LINE
8
Layer 1
10
48.563691
20
31.807848
11
48.602556
21
33.175562
0
LINE
8
Layer 1
10
48.602556
20
33.175562
11
48.510562
21
34.135815
0
LINE
8
Layer 1
10
48.510562
20
34.135815
11
48.288330
21
35.003039
0
LINE
8
Layer 1
10
48.288330
20
35.003039
11
47.239806
21
37.058742
0
LINE
8
Layer 1
10
47.239806
20
37.058742
11
46.545201
21
38.309032
0
LINE
8
Layer 1
10
46.545201
20
38.309032
11
46.254128
21
39.645322
0
LINE
8
Layer 1
10
46.254128
20
39.645322
11
46.308704
21
39.651110
0
LINE
8
Layer 1
10
46.308704
20
39.651110
11
46.452587
21
39.135945
0
LINE
8
Layer 1
10
46.452587
20
39.135945
11
46.756890
21
38.216420
0
LINE
8
Layer 1
10
46.756890
20
38.216420
11
46.966305
21
38.006591
0
LINE
8
Layer 1
10
46.966305
20
38.006591
11
47.226576
21
37.941885
0
LINE
8
Layer 1
10
47.226576
20
37.941885
11
47.476923
21
38.021062
0
LINE
8
Layer 1
10
47.476923
20
38.021062
11
47.656569
21
38.242881
0
LINE
8
Layer 1
10
47.656569
20
38.242881
11
47.530878
21
39.255021
0
LINE
8
Layer 1
10
47.530878
20
39.255021
11
47.147191
21
40.617771
0
LINE
8
Layer 1
10
47.147191
20
40.617771
11
46.968578
21
41.180071
0
LINE
8
Layer 1
10
46.968578
20
41.180071
11
47.173652
21
41.444683
0
LINE
8
Layer 1
10
47.173652
20
41.444683
11
48.118397
21
42.919996
0
LINE
8
Layer 1
10
48.118397
20
42.919996
11
48.971354
21
44.693618
0
LINE
8
Layer 1
10
48.971354
20
44.693618
11
49.692833
21
46.671900
0
LINE
8
Layer 1
10
49.692833
20
46.671900
11
50.243142
21
48.761193
0
LINE
8
Layer 1
10
50.243142
20
48.761193
11
50.427543
21
50.131382
0
LINE
8
Layer 1
10
50.427543
20
50.131382
11
50.289449
21
51.030233
0
LINE
8
Layer 1
10
50.289449
20
51.030233
11
49.931396
21
51.616513
0
LINE
8
Layer 1
10
49.931396
20
51.616513
11
49.488999
21
51.949758
0
LINE
8
Layer 1
10
49.488999
20
51.949758
11
48.923417
21
52.074673
0
LINE
8
Layer 1
10
48.923417
20
52.074673
11
48.071465
21
52.078343
0
LINE
8
Layer 1
10
48.071465
20
52.078343
11
45.695128
21
51.757915
0
LINE
8
Layer 1
10
45.695128
20
51.757915
11
42.733339
21
51.060416
0
LINE
8
Layer 1
10
42.733339
20
51.060416
11
39.559449
21
50.057788
0
LINE
8
Layer 1
10
39.559449
20
50.057788
11
37.396249
21
49.204416
0
LINE
8
Layer 1
10
37.396249
20
49.204416
11
36.258419
21
49.667486
0
LINE
8
Layer 1
10
36.258419
20
49.667486
11
34.563042
21
50.439720
0
LINE
8
Layer 1
10
34.563042
20
50.439720
11
32.861465
21
51.052565
0
LINE
8
Layer 1
10
32.861465
20
51.052565
11
29.206519
21
51.876996
0
LINE
8
Layer 1
10
29.206519
20
51.876996
11
27.334391
21
51.960514
0
LINE
8
Layer 1
10
27.334391
20
51.960514
11
25.501959
21
51.870381
0
LINE
8
Layer 1
10
25.501959
20
51.870381
11
22.952593
21
51.265908
0
LINE
8
Layer 1
10
22.952593
20
51.265908
11
20.606649
21
50.309171
0
LINE
8
Layer 1
10
20.606649
20
50.309171
11
19.548199
21
49.773333
0
LINE
8
Layer 1
10
19.548199
20
49.773333
11
19.052052
21
49.951946
0
LINE
8
Layer 1
10
19.052052
20
49.951946
11
16.736702
21
50.792088
0
LINE
8
Layer 1
10
16.736702
20
50.792088
11
14.090582
21
51.685152
0
LINE
8
Layer 1
10
14.090582
20
51.685152
11
10.328963
21
52.507927
0
LINE
8
Layer 1
10
10.328963
20
52.507927
11
8.684753
21
52.674032
0
LINE
8
Layer 1
10
8.684753
20
52.674032
11
7.376062
21
52.650984
0
LINE
8
Layer 1
10
7.376062
20
52.650984
11
7.376050
21
52.651000
0
LINE
8
Layer 1
10
10.121400
20
51.466860
11
12.510350
21
50.993040
0
LINE
8
Layer 1
10
12.510350
20
50.993040
11
15.082870
21
50.216570
0
LINE
8
Layer 1
10
15.082870
20
50.216570
11
18.364050
21
48.986130
0
LINE
8
Layer 1
10
18.364050
20
48.986130
11
17.100530
21
47.868150
0
LINE
8
Layer 1
10
17.100530
20
47.868150
11
16.941763
21
47.742459
0
LINE
8
Layer 1
10
16.941763
20
47.742459
11
16.326541
21
48.046762
0
LINE
8
Layer 1
10
16.326541
20
48.046762
11
15.002861
21
48.596865
0
LINE
8
Layer 1
10
15.002861
20
48.596865
11
13.556386
21
49.014249
0
LINE
8
Layer 1
10
13.556386
20
49.014249
11
12.067738
21
49.280306
0
LINE
8
Layer 1
10
12.067738
20
49.280306
11
10.617541
21
49.376432
0
LINE
8
Layer 1
10
10.617541
20
49.376432
11
9.244866
21
49.296222
0
LINE
8
Layer 1
10
9.244866
20
49.296222
11
8.388191
21
48.992745
0
LINE
8
Layer 1
10
8.388191
20
48.992745
11
7.974012
21
48.614846
0
LINE
8
Layer 1
10
7.974012
20
48.614846
11
7.739066
21
48.107950
0
LINE
8
Layer 1
10
7.739066
20
48.107950
11
7.691415
21
47.504306
0
LINE
8
Layer 1
10
7.691415
20
47.504306
11
7.839122
21
46.836165
0
LINE
8
Layer 1
10
7.839122
20
46.836165
11
8.632957
21
44.302505
0
LINE
8
Layer 1
10
8.632957
20
44.302505
11
8.917414
21
41.378545
0
LINE
8
Layer 1
10
8.917414
20
41.378545
11
8.897568
21
40.915475
0
LINE
8
Layer 1
10
8.897568
20
40.915475
11
8.652802
21
41.345469
0
LINE
8
Layer 1
10
8.652802
20
41.345469
11
7.592704
21
43.815450
0
LINE
8
Layer 1
10
7.592704
20
43.815450
11
6.621912
21
46.856009
0
LINE
8
Layer 1
10
6.621912
20
46.856009
11
6.185303
21
49.424391
0
LINE
8
Layer 1
10
6.185303
20
49.424391
11
6.160495
21
50.448727
0
LINE
8
Layer 1
10
6.160495
20
50.448727
11
6.284532
21
51.050099
0
LINE
8
Layer 1
10
6.284532
20
51.050099
11
6.720314
21
51.412906
0
LINE
8
Layer 1
10
6.720314
20
51.412906
11
7.493475
21
51.600822
0
LINE
8
Layer 1
10
7.493475
20
51.600822
11
10.121402
21
51.466862
0
LINE
8
Layer 1
10
10.121402
20
51.466862
11
10.121400
21
51.466860
0
LINE
8
Layer 1
10
48.913500
20
51.003790
11
49.224419
21
50.725948
0
LINE
8
Layer 1
10
49.224419
20
50.725948
11
49.323648
21
49.978420
0
LINE
8
Layer 1
10
49.323648
20
49.978420
11
49.061001
21
48.387028
0
LINE
8
Layer 1
10
49.061001
20
48.387028
11
48.507488
21
46.475624
0
LINE
8
Layer 1
10
48.507488
20
46.475624
11
47.776602
21
44.579105
0
LINE
8
Layer 1
10
47.776602
20
44.579105
11
46.981838
21
43.032370
0
LINE
8
Layer 1
10
46.981838
20
43.032370
11
46.803226
21
42.778508
0
LINE
8
Layer 1
10
46.803226
20
42.778508
11
46.743688
21
42.866988
0
LINE
8
Layer 1
10
46.743688
20
42.866988
11
46.538614
21
43.892358
0
LINE
8
Layer 1
10
46.538614
20
43.892358
11
45.414014
21
48.106298
0
LINE
8
Layer 1
10
45.414014
20
48.106298
11
44.845099
21
49.310278
0
LINE
8
Layer 1
10
44.845099
20
49.310278
11
44.356395
21
49.875885
0
LINE
8
Layer 1
10
44.356395
20
49.875885
11
43.932189
21
50.143805
0
LINE
8
Layer 1
10
43.932189
20
50.143805
11
43.859421
21
50.209958
0
LINE
8
Layer 1
10
43.859421
20
50.209958
11
44.993942
21
50.539896
0
LINE
8
Layer 1
10
44.993942
20
50.539896
11
47.597061
21
50.964101
0
LINE
8
Layer 1
10
47.597061
20
50.964101
11
48.913501
21
51.003793
0
LINE
8
Layer 1
10
48.913501
20
51.003793
11
48.913500
21
51.003790
0
LINE
8
Layer 1
10
43.535270
20
49.098590
11
43.898697
21
48.721933
0
LINE
8
Layer 1
10
43.898697
20
48.721933
11
44.259644
21
48.055030
0
LINE
8
Layer 1
10
44.259644
20
48.055030
11
45.003860
21
45.771100
0
LINE
8
Layer 1
10
45.003860
20
45.771100
11
45.691850
21
42.694990
0
LINE
8
Layer 1
10
45.691850
20
42.694990
11
45.189088
21
43.230828
0
LINE
8
Layer 1
10
45.189088
20
43.230828
11
43.190443
21
45.170759
0
LINE
8
Layer 1
10
43.190443
20
45.170759
11
40.631158
21
47.100768
0
LINE
8
Layer 1
10
40.631158
20
47.100768
11
39.824093
21
47.656452
0
LINE
8
Layer 1
10
39.824093
20
47.656452
11
41.676373
21
48.853822
0
LINE
8
Layer 1
10
41.676373
20
48.853822
11
42.779473
21
49.266451
0
LINE
8
Layer 1
10
42.779473
20
49.266451
11
43.535273
21
49.098588
0
LINE
8
Layer 1
10
43.535273
20
49.098588
11
43.535270
21
49.098590
0
LINE
8
Layer 1
10
39.658710
20
48.900131
11
38.706108
21
48.271678
0
LINE
8
Layer 1
10
38.706108
20
48.271678
11
38.534110
21
48.410599
0
LINE
8
Layer 1
10
38.534110
20
48.410599
11
38.443976
21
48.480060
0
LINE
8
Layer 1
10
38.443976
20
48.480060
11
38.567186
21
48.549520
0
LINE
8
Layer 1
10
38.567186
20
48.549520
11
39.494979
21
48.910880
0
LINE
8
Layer 1
10
39.494979
20
48.910880
11
39.674211
21
48.952329
0
LINE
8
Layer 1
10
39.674211
20
48.952329
11
39.658707
21
48.900130
0
LINE
8
Layer 1
10
39.658707
20
48.900130
11
39.658710
21
48.900131
0
LINE
8
Layer 1
10
37.482280
20
47.801991
11
37.660893
21
47.610148
0
LINE
8
Layer 1
10
37.660893
20
47.610148
11
36.132763
21
47.457996
0
LINE
8
Layer 1
10
36.132763
20
47.457996
11
36.258454
21
47.557225
0
LINE
8
Layer 1
10
36.258454
20
47.557225
11
36.781062
21
47.788760
0
LINE
8
Layer 1
10
36.781062
20
47.788760
11
37.196172
21
47.944220
0
LINE
8
Layer 1
10
37.196172
20
47.944220
11
37.482283
21
47.801991
0
LINE
8
Layer 1
10
37.482283
20
47.801991
11
37.482280
21
47.801991
0
LINE
8
Layer 1
10
8.904180
20
47.603532
11
9.281252
21
47.471226
0
LINE
8
Layer 1
10
9.281252
20
47.471226
11
10.683692
21
47.292613
0
LINE
8
Layer 1
10
10.683692
20
47.292613
11
12.701352
21
46.961848
0
LINE
8
Layer 1
10
12.701352
20
46.961848
11
15.545922
21
46.181244
0
LINE
8
Layer 1
10
15.545922
20
46.181244
11
12.469812
21
43.158054
0
LINE
8
Layer 1
10
12.469812
20
43.158054
11
9.975852
21
41.014704
0
LINE
8
Layer 1
10
9.975852
20
41.014704
11
9.949391
21
41.993767
0
LINE
8
Layer 1
10
9.949391
20
41.993767
11
9.726125
21
44.316560
0
LINE
8
Layer 1
10
9.726125
20
44.316560
11
9.056327
21
46.684007
0
LINE
8
Layer 1
10
9.056327
20
46.684007
11
8.732178
21
47.629993
0
LINE
8
Layer 1
10
8.732178
20
47.629993
11
8.904176
21
47.603532
0
LINE
8
Layer 1
10
8.904176
20
47.603532
11
8.904180
21
47.603532
0
LINE
8
Layer 1
10
18.443400
20
37.674000
11
16.924055
21
37.263955
0
LINE
8
Layer 1
10
16.924055
20
37.263955
11
15.725345
21
36.606456
0
LINE
8
Layer 1
10
15.725345
20
36.606456
11
14.899985
21
35.741817
0
LINE
8
Layer 1
10
14.899985
20
35.741817
11
14.500690
21
34.710350
0
LINE
8
Layer 1
10
14.500690
20
34.710350
11
14.616458
21
33.556810
0
LINE
8
Layer 1
10
14.616458
20
33.556810
11
15.347447
21
32.328850
0
LINE
8
Layer 1
10
15.347447
20
32.328850
11
16.671332
21
31.135619
0
LINE
8
Layer 1
10
16.671332
20
31.135619
11
18.317717
21
30.423650
0
LINE
8
Layer 1
10
18.317717
20
30.423650
11
19.626719
21
30.286383
0
LINE
8
Layer 1
10
19.626719
20
30.286383
11
20.970447
21
30.397189
0
LINE
8
Layer 1
10
20.970447
20
30.397189
11
21.821442
21
30.679061
0
LINE
8
Layer 1
10
21.821442
20
30.679061
11
22.613521
21
31.114119
0
LINE
8
Layer 1
10
22.613521
20
31.114119
11
23.295205
21
31.667011
0
LINE
8
Layer 1
10
23.295205
20
31.667011
11
23.815017
21
32.302389
0
LINE
8
Layer 1
10
23.815017
20
32.302389
11
24.059783
21
32.686076
0
LINE
8
Layer 1
10
24.059783
20
32.686076
11
24.106090
21
32.401619
0
LINE
8
Layer 1
10
24.106090
20
32.401619
11
24.410393
21
28.326599
0
LINE
8
Layer 1
10
24.410393
20
28.326599
11
24.549314
21
26.070789
0
LINE
8
Layer 1
10
24.549314
20
26.070789
11
24.716970
21
25.459392
0
LINE
8
Layer 1
10
24.716970
20
25.459392
11
25.047115
21
24.910633
0
LINE
8
Layer 1
10
25.047115
20
24.910633
11
26.408214
21
23.735589
0
LINE
8
Layer 1
10
26.408214
20
23.735589
11
27.424486
21
22.930178
0
LINE
8
Layer 1
10
27.424486
20
22.930178
11
27.850344
21
22.253769
0
LINE
8
Layer 1
10
27.850344
20
22.253769
11
27.952881
21
21.633585
0
LINE
8
Layer 1
10
27.952881
20
21.633585
11
27.718038
21
21.003479
0
LINE
8
Layer 1
10
27.718038
20
21.003479
11
27.020125
21
20.244375
0
LINE
8
Layer 1
10
27.020125
20
20.244375
11
25.826068
21
19.872269
0
LINE
8
Layer 1
10
25.826068
20
19.872269
11
24.589008
21
19.802808
0
LINE
8
Layer 1
10
24.589008
20
19.802808
11
23.232878
21
19.971498
0
LINE
8
Layer 1
10
23.232878
20
19.971498
11
22.532590
21
20.178019
0
LINE
8
Layer 1
10
22.532590
20
20.178019
11
21.897418
21
20.522220
0
LINE
8
Layer 1
10
21.897418
20
20.522220
11
20.447838
21
21.876698
0
LINE
8
Layer 1
10
20.447838
20
21.876698
11
19.680464
21
22.584534
0
LINE
8
Layer 1
10
19.680464
20
22.584534
11
19.357968
21
22.557246
0
LINE
8
Layer 1
10
19.357968
20
22.557246
11
19.124780
21
22.366229
0
LINE
8
Layer 1
10
19.124780
20
22.366229
11
19.054286
21
22.062133
0
LINE
8
Layer 1
10
19.054286
20
22.062133
11
19.190934
21
21.694777
0
LINE
8
Layer 1
10
19.190934
20
21.694777
11
20.269230
21
20.467639
0
LINE
8
Layer 1
10
20.269230
20
20.467639
11
21.715496
21
19.355444
0
LINE
8
Layer 1
10
21.715496
20
19.355444
11
23.424720
21
18.813819
0
LINE
8
Layer 1
10
23.424720
20
18.813819
11
25.025621
21
18.734436
0
LINE
8
Layer 1
10
25.025621
20
18.734436
11
26.547140
21
18.913048
0
LINE
8
Layer 1
10
26.547140
20
18.913048
11
27.742854
21
19.427387
0
LINE
8
Layer 1
10
27.742854
20
19.427387
11
28.571420
21
20.388258
0
LINE
8
Layer 1
10
28.571420
20
20.388258
11
28.888954
21
20.897635
0
LINE
8
Layer 1
10
28.888954
20
20.897635
11
29.180027
21
20.593332
0
LINE
8
Layer 1
10
29.180027
20
20.593332
11
30.459259
21
19.543157
0
LINE
8
Layer 1
10
30.459259
20
19.543157
11
31.773217
21
18.939512
0
LINE
8
Layer 1
10
31.773217
20
18.939512
11
32.929240
21
18.829533
0
LINE
8
Layer 1
10
32.929240
20
18.829533
11
33.916567
21
18.913051
0
LINE
8
Layer 1
10
33.916567
20
18.913051
11
34.155234
21
19.102517
0
LINE
8
Layer 1
10
34.155234
20
19.102517
11
34.268004
21
19.371987
0
LINE
8
Layer 1
10
34.268004
20
19.371987
11
34.243093
21
19.645178
0
LINE
8
Layer 1
10
34.243093
20
19.645178
11
34.068719
21
19.845807
0
LINE
8
Layer 1
10
34.068719
20
19.845807
11
33.268269
21
19.898730
0
LINE
8
Layer 1
10
33.268269
20
19.898730
11
31.816213
21
20.073208
0
LINE
8
Layer 1
10
31.816213
20
20.073208
11
30.582459
21
20.798409
0
LINE
8
Layer 1
10
30.582459
20
20.798409
11
29.797720
21
21.539321
0
LINE
8
Layer 1
10
29.797720
20
21.539321
11
29.543859
21
22.022239
0
LINE
8
Layer 1
10
29.543859
20
22.022239
11
29.931680
21
23.137740
0
LINE
8
Layer 1
10
29.931680
20
23.137740
11
30.145850
21
24.198669
0
LINE
8
Layer 1
10
30.145850
20
24.198669
11
30.185542
21
24.754353
0
LINE
8
Layer 1
10
30.185542
20
24.754353
11
30.390616
21
24.708046
0
LINE
8
Layer 1
10
30.390616
20
24.708046
11
31.555732
21
24.650989
0
LINE
8
Layer 1
10
31.555732
20
24.650989
11
32.328896
21
25.025580
0
LINE
8
Layer 1
10
32.328896
20
25.025580
11
32.653872
21
25.466117
0
LINE
8
Layer 1
10
32.653872
20
25.466117
11
32.849850
21
26.079066
0
LINE
8
Layer 1
10
32.849850
20
26.079066
11
33.003656
21
28.630910
0
LINE
8
Layer 1
10
33.003656
20
28.630910
11
33.043347
21
30.694880
0
LINE
8
Layer 1
10
33.043347
20
30.694880
11
33.393957
21
30.410423
0
LINE
8
Layer 1
10
33.393957
20
30.410423
11
34.225832
21
29.884507
0
LINE
8
Layer 1
10
34.225832
20
29.884507
11
35.226397
21
29.497513
0
LINE
8
Layer 1
10
35.226397
20
29.497513
11
36.647030
21
29.332957
0
LINE
8
Layer 1
10
36.647030
20
29.332957
11
38.057737
21
29.490897
0
LINE
8
Layer 1
10
38.057737
20
29.490897
11
39.150294
21
29.941564
0
LINE
8
Layer 1
10
39.150294
20
29.941564
11
40.045631
21
30.600611
0
LINE
8
Layer 1
10
40.045631
20
30.600611
11
40.712742
21
31.440752
0
LINE
8
Layer 1
10
40.712742
20
31.440752
11
41.120617
21
32.434697
0
LINE
8
Layer 1
10
41.120617
20
32.434697
11
41.157002
21
33.557848
0
LINE
8
Layer 1
10
41.157002
20
33.557848
11
40.736931
21
34.662396
0
LINE
8
Layer 1
10
40.736931
20
34.662396
11
39.914980
21
35.655312
0
LINE
8
Layer 1
10
39.914980
20
35.655312
11
38.745727
21
36.443567
0
LINE
8
Layer 1
10
38.745727
20
36.443567
11
37.589705
21
36.893407
0
LINE
8
Layer 1
10
37.589705
20
36.893407
11
36.284837
21
37.184479
0
LINE
8
Layer 1
10
36.284837
20
37.184479
11
34.850146
21
37.257248
0
LINE
8
Layer 1
10
34.850146
20
37.257248
11
33.539487
21
37.151403
0
LINE
8
Layer 1
10
33.539487
20
37.151403
11
32.490035
21
36.767096
0
LINE
8
Layer 1
10
32.490035
20
36.767096
11
31.722764
21
36.140917
0
LINE
8
Layer 1
10
31.722764
20
36.140917
11
31.251939
21
35.288991
0
LINE
8
Layer 1
10
31.251939
20
35.288991
11
31.091827
21
34.227443
0
LINE
8
Layer 1
10
31.091827
20
34.227443
11
31.224133
21
33.385647
0
LINE
8
Layer 1
10
31.224133
20
33.385647
11
31.693818
21
32.395003
0
LINE
8
Layer 1
10
31.693818
20
32.395003
11
31.968353
21
31.867433
0
LINE
8
Layer 1
10
31.968353
20
31.867433
11
31.984891
21
31.568092
0
LINE
8
Layer 1
10
31.984891
20
31.568092
11
31.892277
21
28.776442
0
LINE
8
Layer 1
10
31.892277
20
28.776442
11
31.800490
21
26.292397
0
LINE
8
Layer 1
10
31.800490
20
26.292397
11
31.684826
21
25.907470
0
LINE
8
Layer 1
10
31.684826
20
25.907470
11
31.475514
21
25.753252
0
LINE
8
Layer 1
10
31.475514
20
25.753252
11
30.813985
21
25.773098
0
LINE
8
Layer 1
10
30.813985
20
25.773098
11
30.112764
21
25.925250
0
LINE
8
Layer 1
10
30.112764
20
25.925250
11
29.815076
21
26.130324
0
LINE
8
Layer 1
10
29.815076
20
26.130324
11
29.440485
21
26.397416
0
LINE
8
Layer 1
10
29.440485
20
26.397416
11
28.664016
21
26.580164
0
LINE
8
Layer 1
10
28.664016
20
26.580164
11
27.646916
21
26.585952
0
LINE
8
Layer 1
10
27.646916
20
26.585952
11
26.302356
21
26.388321
0
LINE
8
Layer 1
10
26.302356
20
26.388321
11
25.614366
21
26.295707
0
LINE
8
Layer 1
10
25.614366
20
26.295707
11
25.554829
21
26.778623
0
LINE
8
Layer 1
10
25.554829
20
26.778623
11
25.339005
21
30.652703
0
LINE
8
Layer 1
10
25.339005
20
30.652703
11
25.038836
21
33.241763
0
LINE
8
Layer 1
10
25.038836
20
33.241763
11
24.731741
21
34.412050
0
LINE
8
Layer 1
10
24.731741
20
34.412050
11
24.249135
21
35.409925
0
LINE
8
Layer 1
10
24.249135
20
35.409925
11
23.594119
21
36.231667
0
LINE
8
Layer 1
10
23.594119
20
36.231667
11
22.769796
21
36.873553
0
LINE
8
Layer 1
10
22.769796
20
36.873553
11
21.778431
21
37.345616
0
LINE
8
Layer 1
10
21.778431
20
37.345616
11
20.693419
21
37.643408
0
LINE
8
Layer 1
10
20.693419
20
37.643408
11
19.564996
21
37.756385
0
LINE
8
Layer 1
10
19.564996
20
37.756385
11
18.443396
21
37.674003
0
LINE
8
Layer 1
10
18.443396
20
37.674003
11
18.443400
21
37.674000
0
LINE
8
Layer 1
10
34.373000
20
36.099560
11
33.221938
21
35.210632
0
LINE
8
Layer 1
10
33.221938
20
35.210632
11
32.567030
21
34.207590
0
LINE
8
Layer 1
10
32.567030
20
34.207590
11
32.279265
21
33.792481
0
LINE
8
Layer 1
10
32.279265
20
33.792481
11
32.189958
21
34.220821
0
LINE
8
Layer 1
10
32.189958
20
34.220821
11
32.428936
21
35.189134
0
LINE
8
Layer 1
10
32.428936
20
35.189134
11
33.030100
21
35.834951
0
LINE
8
Layer 1
10
33.030100
20
35.834951
11
34.432540
21
36.178946
0
LINE
8
Layer 1
10
34.432540
20
36.178946
11
34.373002
21
36.099562
0
LINE
8
Layer 1
10
34.373002
20
36.099562
11
34.373000
21
36.099560
0
LINE
8
Layer 1
10
16.703600
20
35.008040
11
16.740811
21
34.297724
0
LINE
8
Layer 1
10
16.740811
20
34.297724
11
16.941750
21
33.592370
0
LINE
8
Layer 1
10
16.941750
20
33.592370
11
17.047595
21
33.294682
0
LINE
8
Layer 1
10
17.047595
20
33.294682
11
16.326528
21
33.929750
0
LINE
8
Layer 1
10
16.326528
20
33.929750
11
15.744382
21
34.657432
0
LINE
8
Layer 1
10
15.744382
20
34.657432
11
16.240529
21
34.981581
0
LINE
8
Layer 1
10
16.240529
20
34.981581
11
16.690369
21
35.252808
0
LINE
8
Layer 1
10
16.690369
20
35.252808
11
16.703600
21
35.008042
0
LINE
8
Layer 1
10
16.703600
20
35.008042
11
16.703600
21
35.008040
0
LINE
8
Layer 1
10
21.956140
20
34.617738
11
22.670591
21
33.976055
0
LINE
8
Layer 1
10
22.670591
20
33.976055
11
22.955048
21
33.711443
0
LINE
8
Layer 1
10
22.955048
20
33.711443
11
22.405979
21
33.354217
0
LINE
8
Layer 1
10
22.405979
20
33.354217
11
21.565837
21
32.844840
0
LINE
8
Layer 1
10
21.565837
20
32.844840
11
20.183237
21
32.414846
0
LINE
8
Layer 1
10
20.183237
20
32.414846
11
20.066643
21
32.438826
0
LINE
8
Layer 1
10
20.066643
20
32.438826
11
20.242775
21
32.547152
0
LINE
8
Layer 1
10
20.242775
20
32.547152
11
20.781921
21
32.971357
0
LINE
8
Layer 1
10
20.781921
20
32.971357
11
21.201992
21
33.539445
0
LINE
8
Layer 1
10
21.201992
20
33.539445
11
21.413681
21
34.439124
0
LINE
8
Layer 1
10
21.413681
20
34.439124
11
21.486449
21
34.994808
0
LINE
8
Layer 1
10
21.486449
20
34.994808
11
21.956135
21
34.617736
0
LINE
8
Layer 1
10
21.956135
20
34.617736
11
21.956140
21
34.617738
0
LINE
8
Layer 1
10
34.062140
20
32.877918
11
34.306906
21
32.361925
0
LINE
8
Layer 1
10
34.306906
20
32.361925
11
34.386290
21
32.176697
0
LINE
8
Layer 1
10
34.386290
20
32.176697
11
33.407227
21
33.023454
0
LINE
8
Layer 1
10
33.407227
20
33.023454
11
33.268306
21
33.208682
0
LINE
8
Layer 1
10
33.268306
20
33.208682
11
33.552763
21
33.751136
0
LINE
8
Layer 1
10
33.552763
20
33.751136
11
33.837220
21
34.300205
0
LINE
8
Layer 1
10
33.837220
20
34.300205
11
33.876911
21
33.770982
0
LINE
8
Layer 1
10
33.876911
20
33.770982
11
34.062139
21
32.877918
0
LINE
8
Layer 1
10
34.062139
20
32.877918
11
34.062140
21
32.877918
0
LINE
8
Layer 1
10
39.420520
20
33.360834
11
39.969589
21
32.844841
0
LINE
8
Layer 1
10
39.969589
20
32.844841
11
39.486673
21
32.507461
0
LINE
8
Layer 1
10
39.486673
20
32.507461
11
37.647623
21
31.554859
0
LINE
8
Layer 1
10
37.647623
20
31.554859
11
37.340012
21
31.515167
0
LINE
8
Layer 1
10
37.340012
20
31.515167
11
37.508702
21
31.654088
0
LINE
8
Layer 1
10
37.508702
20
31.654088
11
38.297577
21
32.375155
0
LINE
8
Layer 1
10
38.297577
20
32.375155
11
38.620072
21
33.453448
0
LINE
8
Layer 1
10
38.620072
20
33.453448
11
38.735013
21
33.928095
0
LINE
8
Layer 1
10
38.735013
20
33.928095
11
39.420522
21
33.360834
0
LINE
8
Layer 1
10
39.420522
20
33.360834
11
39.420520
21
33.360834
0
LINE
8
Layer 1
10
27.301320
20
25.349714
11
27.192995
21
25.015642
0
LINE
8
Layer 1
10
27.192995
20
25.015642
11
27.288089
21
24.602186
0
LINE
8
Layer 1
10
27.288089
20
24.602186
11
27.292224
21
24.497168
0
LINE
8
Layer 1
10
27.292224
20
24.497168
11
26.844865
21
24.794029
0
LINE
8
Layer 1
10
26.844865
20
24.794029
11
26.275950
21
25.257099
0
LINE
8
Layer 1
10
26.275950
20
25.257099
11
26.441332
21
25.343098
0
LINE
8
Layer 1
10
26.441332
20
25.343098
11
26.990401
21
25.429097
0
LINE
8
Layer 1
10
26.990401
20
25.429097
11
27.380703
21
25.488634
0
LINE
8
Layer 1
10
27.380703
20
25.488634
11
27.301320
21
25.349713
0
LINE
8
Layer 1
10
27.301320
20
25.349713
11
27.301320
21
25.349714
0
LINE
8
Layer 1
10
29.041140
20
24.039884
11
28.836066
21
23.285741
0
LINE
8
Layer 1
10
28.836066
20
23.285741
11
28.776528
21
23.477584
0
LINE
8
Layer 1
10
28.776528
20
23.477584
11
28.644222
21
24.092806
0
LINE
8
Layer 1
10
28.644222
20
24.092806
11
28.511916
21
24.562492
0
LINE
8
Layer 1
10
28.511916
20
24.562492
11
28.776528
21
24.410340
0
LINE
8
Layer 1
10
28.776528
20
24.410340
11
29.041140
21
24.039884
0
LINE
8
Layer 1
10
29.041140
20
24.039884
11
29.041140
21
24.039884
0
LINE
8
Layer 1
10
50.487900
20
22.233900
11
49.875986
21
21.853521
0
LINE
8
Layer 1
10
49.875986
20
21.853521
11
49.383150
21
21.254837
0
LINE
8
Layer 1
10
49.383150
20
21.254837
11
48.853927
21
19.971467
0
LINE
8
Layer 1
10
48.853927
20
19.971467
11
47.481359
21
16.985181
0
LINE
8
Layer 1
10
47.481359
20
16.985181
11
45.677761
21
14.250067
0
LINE
8
Layer 1
10
45.677761
20
14.250067
11
43.386698
21
11.694803
0
LINE
8
Layer 1
10
43.386698
20
11.694803
11
40.551737
21
9.248067
0
LINE
8
Layer 1
10
40.551737
20
9.248067
11
38.688704
21
7.904334
0
LINE
8
Layer 1
10
38.688704
20
7.904334
11
36.895135
21
6.798753
0
LINE
8
Layer 1
10
36.895135
20
6.798753
11
35.193354
21
5.943727
0
LINE
8
Layer 1
10
35.193354
20
5.943727
11
33.605687
21
5.351657
0
LINE
8
Layer 1
10
33.605687
20
5.351657
11
31.941117
21
5.003010
0
LINE
8
Layer 1
10
31.941117
20
5.003010
11
29.954055
21
4.968797
0
LINE
8
Layer 1
10
29.954055
20
4.968797
11
27.138433
21
5.278165
0
LINE
8
Layer 1
10
27.138433
20
5.278165
11
22.988187
21
5.960264
0
LINE
8
Layer 1
10
22.988187
20
5.960264
11
17.214692
21
7.086516
0
LINE
8
Layer 1
10
17.214692
20
7.086516
11
13.594477
21
8.183004
0
LINE
8
Layer 1
10
13.594477
20
8.183004
11
10.686230
21
9.534178
0
LINE
8
Layer 1
10
10.686230
20
9.534178
11
7.574567
21
11.431114
0
LINE
8
Layer 1
10
7.574567
20
11.431114
11
3.737697
21
14.123534
0
LINE
8
Layer 1
10
3.737697
20
14.123534
11
0.621897
21
16.154424
0
LINE
8
Layer 1
10
0.621897
20
16.154424
11
0.000060
21
16.485189
0
LINE
8
Layer 1
10
0.000060
20
16.485189
11
0.000060
21
15.889813
0
LINE
8
Layer 1
10
0.000060
20
15.889813
11
0.000060
21
15.301052
0
LINE
8
Layer 1
10
0.000060
20
15.301052
11
0.549129
21
14.970287
0
LINE
8
Layer 1
10
0.549129
20
14.970287
11
5.100449
21
11.828027
0
LINE
8
Layer 1
10
5.100449
20
11.828027
11
7.845794
21
9.960858
0
LINE
8
Layer 1
10
7.845794
20
9.960858
11
9.995759
21
8.679147
0
LINE
8
Layer 1
10
9.995759
20
8.679147
11
11.761424
21
7.782052
0
LINE
8
Layer 1
10
11.761424
20
7.782052
11
13.597788
21
7.024498
0
LINE
8
Layer 1
10
13.597788
20
7.024498
11
15.508573
21
6.404623
0
LINE
8
Layer 1
10
15.508573
20
6.404623
11
17.497499
21
5.920567
0
LINE
8
Layer 1
10
17.497499
20
5.920567
11
18.489792
21
5.689032
0
LINE
8
Layer 1
10
18.489792
20
5.689032
11
9.314382
21
5.629494
0
LINE
8
Layer 1
10
9.314382
20
5.629494
11
0.000052
21
5.622879
0
LINE
8
Layer 1
10
0.000052
20
5.622879
11
0.000052
21
5.126732
0
LINE
8
Layer 1
10
0.000052
20
5.126732
11
0.000052
21
4.630585
0
LINE
8
Layer 1
10
0.000052
20
4.630585
11
12.456652
21
4.617355
0
LINE
8
Layer 1
10
12.456652
20
4.617355
11
24.906652
21
4.597509
0
LINE
8
Layer 1
10
24.906652
20
4.597509
11
25.700487
21
4.451973
0
LINE
8
Layer 1
10
25.700487
20
4.451973
11
28.510540
21
4.023012
0
LINE
8
Layer 1
10
28.510540
20
4.023012
11
30.756225
21
3.888019
0
LINE
8
Layer 1
10
30.756225
20
3.888019
11
32.657085
21
4.048233
0
LINE
8
Layer 1
10
32.657085
20
4.048233
11
34.432667
21
4.504895
0
LINE
8
Layer 1
10
34.432667
20
4.504895
11
37.276726
21
5.809244
0
LINE
8
Layer 1
10
37.276726
20
5.809244
11
40.350871
21
7.790214
0
LINE
8
Layer 1
10
40.350871
20
7.790214
11
43.312139
21
10.199109
0
LINE
8
Layer 1
10
43.312139
20
10.199109
11
45.817567
21
12.787235
0
LINE
8
Layer 1
10
45.817567
20
12.787235
11
47.075299
21
14.397336
0
LINE
8
Layer 1
10
47.075299
20
14.397336
11
48.119687
21
15.983247
0
LINE
8
Layer 1
10
48.119687
20
15.983247
11
48.995385
21
17.620013
0
LINE
8
Layer 1
10
48.995385
20
17.620013
11
49.747047
21
19.382675
0
LINE
8
Layer 1
10
49.747047
20
19.382675
11
50.438345
21
20.884346
0
LINE
8
Layer 1
10
50.438345
20
20.884346
11
50.731279
21
21.161360
0
LINE
8
Layer 1
10
50.731279
20
21.161360
11
51.070107
21
21.234955
0
LINE
8
Layer 1
10
51.070107
20
21.234955
11
51.820942
21
21.051381
0
LINE
8
Layer 1
10
51.820942
20
21.051381
11
53.583917
21
20.242662
0
LINE
8
Layer 1
10
53.583917
20
20.242662
11
56.739411
21
18.932007
0
LINE
8
Layer 1
10
56.739411
20
18.932007
11
59.855207
21
18.231612
0
LINE
8
Layer 1
10
59.855207
20
18.231612
11
59.980070
21
18.287015
0
LINE
8
Layer 1
10
59.980070
20
18.287015
11
60.000743
21
18.754220
0
LINE
8
Layer 1
10
60.000743
20
18.754220
11
60.000743
21
19.303289
0
LINE
8
Layer 1
10
60.000743
20
19.303289
11
59.524442
21
19.382672
0
LINE
8
Layer 1
10
59.524442
20
19.382672
11
56.163872
21
20.269121
0
LINE
8
Layer 1
10
56.163872
20
20.269121
11
54.013902
21
21.234953
0
LINE
8
Layer 1
10
54.013902
20
21.234953
11
51.749818
21
22.195825
0
LINE
8
Layer 1
10
51.749818
20
22.195825
11
51.038880
21
22.317794
0
LINE
8
Layer 1
10
51.038880
20
22.317794
11
50.487952
21
22.233862
0
LINE
8
Layer 1
10
50.487952
20
22.233862
11
50.487900
21
22.233900
 0 
ENDSEC
 0 
EOF