<?xml version="1.0" standalone="no"?>
<!DOCTYPE svg PUBLIC "-//W3C//DTD SVG 20010904//EN"
 "http://www.w3.org/TR/2001/REC-SVG-20010904/DTD/svg10.dtd">
<svg version="1.0" xmlns="http://www.w3.org/2000/svg"
 width="170.078740pt" height="170.078740pt" viewBox="0 0 170.078740 170.078740"
 preserveAspectRatio="xMidYMid meet">
<metadata>
Created by potrace 1.16, written by Peter Selinger 2001-2019
</metadata>
<g transform="translate(0.000000,170.078740) scale(0.018752,-0.018752)"
fill="#000000" stroke="none">
<path d="M5060 6398 c-36 -23 -90 -56 -120 -73 -439 -253 -655 -390 -720 -456
-45 -46 -125 -150 -132 -171 -3 -8 -39 17 -89 62 -46 42 -111 99 -144 127 -68
57 -394 302 -504 378 -40 28 -96 67 -124 88 -84 62 -80 62 -116 12 l-32 -45
36 -232 c20 -128 54 -340 76 -471 22 -132 38 -241 35 -244 -2 -3 -132 -12
-288 -20 -156 -9 -284 -17 -286 -18 -1 -1 65 -103 147 -226 126 -191 221 -345
563 -919 51 -86 53 -96 26 -158 l-23 -52 -105 68 c-254 163 -665 470 -1041
780 -49 39 -92 72 -97 72 -5 0 -16 -7 -23 -16 -7 -9 -22 -19 -32 -23 -16 -6 3
-25 104 -107 360 -291 756 -590 979 -739 89 -60 164 -114 167 -121 2 -6 -4
-29 -15 -51 -76 -148 -258 -693 -337 -1007 l-22 -88 20 -42 c11 -22 21 -43 23
-45 1 -2 83 36 181 84 161 79 811 385 818 385 2 0 91 -132 198 -292 232 -351
384 -557 457 -620 30 -26 55 -46 57 -44 2 2 8 66 13 142 23 330 78 519 211
730 l39 61 94 -48 c150 -78 587 -273 896 -401 52 -22 100 -42 106 -44 7 -3 20
19 32 54 l20 59 -70 189 c-38 104 -82 225 -97 270 -53 151 -232 571 -333 784
l-50 104 80 76 c44 41 142 145 218 230 76 85 177 198 224 250 47 52 119 133
160 180 41 47 136 153 211 235 l136 151 -28 28 c-15 15 -32 25 -38 22 -14 -9
-532 -71 -751 -91 -96 -8 -183 -17 -193 -20 -23 -4 -26 -17 51 185 84 220 124
341 181 551 43 158 101 416 101 449 0 6 -18 30 -40 54 l-41 44 -187 -112
c-218 -131 -434 -260 -443 -264 -6 -3 -17 136 -23 295 -2 27 -11 52 -27 72
l-24 31 -65 -42z m45 -288 l7 -115 -63 -36 c-35 -21 -136 -79 -224 -129 -88
-51 -250 -139 -360 -196 l-200 -103 -58 55 -58 54 35 53 c44 66 142 160 221
213 59 40 445 269 600 357 l80 45 6 -42 c4 -22 10 -93 14 -156z m711 168 c-68
-319 -99 -435 -178 -673 -47 -142 -172 -473 -181 -481 -1 -1 -45 -5 -98 -9
l-95 -7 -17 228 c-10 126 -25 314 -34 418 -10 119 -13 191 -7 193 16 5 568
334 579 344 18 17 36 10 31 -13z m-2276 -259 c193 -146 425 -335 466 -380 l22
-24 -54 -90 c-30 -49 -57 -96 -62 -104 -8 -13 -259 -35 -502 -42 l-94 -3 -38
229 c-53 328 -98 625 -98 653 0 22 5 20 83 -34 45 -32 170 -124 277 -205z
m1580 -157 c0 -15 13 -192 30 -392 16 -200 28 -365 27 -366 -1 0 -15 -4 -32
-7 -27 -4 -34 0 -68 43 -52 67 -178 167 -262 207 -92 43 -227 73 -339 73 -83
0 -92 2 -117 26 l-28 27 137 67 c75 37 250 131 387 209 138 77 253 141 258
141 4 0 7 -13 7 -28z m-976 -331 l28 -29 -73 -36 c-40 -20 -75 -34 -77 -31 -7
7 72 125 84 125 5 0 23 -13 38 -29z m247 -220 c67 -45 299 -243 299 -256 0 -3
-15 -5 -33 -5 -72 0 -590 -61 -721 -85 -76 -14 -140 -24 -143 -22 -10 11 131
334 164 376 3 5 200 17 309 19 74 2 84 0 125 -27z m244 4 c47 -8 108 -28 150
-49 99 -49 232 -163 212 -182 -1 -2 -44 -6 -94 -10 l-91 -7 -148 128 c-82 71
-151 130 -153 132 -9 7 48 2 124 -12z m-775 1 c0 -3 -18 -37 -39 -78 -37 -68
-102 -225 -122 -294 -8 -26 -17 -33 -66 -48 -232 -73 -343 -164 -343 -282 0
-29 5 -65 10 -79 12 -32 87 -131 148 -197 l44 -48 -15 -37 c-8 -20 -19 -39
-24 -40 -5 -2 -22 20 -38 49 -86 161 -354 604 -506 837 -64 99 -96 157 -89
161 14 9 410 23 418 15 3 -3 20 -96 38 -208 18 -111 35 -216 39 -233 5 -31 5
-31 46 -20 40 10 41 12 36 46 -38 249 -58 380 -63 403 -5 26 -5 27 43 28 26 0
129 6 228 13 213 16 255 17 255 12z m2550 -183 c-1 -5 -28 -37 -61 -73 -33
-36 -122 -135 -197 -220 -75 -85 -169 -189 -207 -230 -39 -41 -113 -122 -165
-180 -52 -58 -132 -144 -178 -192 l-83 -87 -27 46 c-15 25 -51 83 -81 130 -50
78 -54 90 -63 171 l-10 87 45 115 c103 264 129 326 140 336 7 6 73 17 147 23
250 23 662 70 669 77 8 7 71 4 71 -3z m-1039 -232 c-28 -67 -51 -127 -51 -134
0 -8 -3 -17 -7 -21 -8 -8 -43 265 -36 274 7 8 138 16 141 8 2 -4 -19 -61 -47
-127z m-283 72 c16 -21 49 -72 73 -113 36 -61 47 -92 60 -170 9 -52 15 -96 14
-98 -1 -1 -40 44 -86 100 -46 57 -124 145 -173 196 -49 51 -87 94 -85 96 2 3
38 9 79 14 41 5 78 10 82 11 3 0 19 -16 36 -36z m102 21 c0 -8 -4 -12 -10 -9
-5 3 -10 10 -10 16 0 5 5 9 10 9 6 0 10 -7 10 -16z m-346 -87 c73 -75 259
-288 360 -414 l57 -72 6 -158 c4 -103 2 -182 -6 -228 l-12 -71 -157 -78 c-86
-43 -209 -108 -272 -144 -110 -62 -308 -195 -322 -216 -11 -16 -48 9 -211 143
-255 208 -687 612 -687 641 0 10 20 80 44 156 60 187 106 344 106 360 0 7 8
15 18 18 33 10 290 55 378 67 101 12 579 66 608 68 11 1 48 -29 90 -72z
m-1189 -114 c-3 -10 -20 -65 -36 -123 -42 -152 -81 -274 -90 -283 -9 -11 -113
114 -139 168 -11 23 -20 50 -20 62 0 54 74 114 208 169 70 29 86 30 77 7z
m1756 -624 c23 -39 38 -73 33 -78 -25 -21 -92 -71 -96 -71 -3 0 -1 21 3 48 4
26 8 75 8 110 1 34 3 62 6 62 2 0 23 -32 46 -71z m-1451 -334 c74 -66 193
-167 264 -225 71 -58 140 -114 154 -126 l25 -21 -34 -25 c-32 -24 -341 -190
-344 -185 -33 45 -320 517 -437 717 -82 141 -82 143 -53 214 l16 38 137 -134
c75 -73 198 -187 272 -253z m1570 95 c97 -192 237 -528 375 -900 42 -113 84
-226 95 -252 10 -27 15 -48 9 -48 -5 0 -48 18 -96 39 -49 21 -155 67 -237 101
-275 114 -666 302 -666 320 0 5 19 41 42 82 87 152 239 505 262 608 4 17 30
41 84 76 42 28 80 52 84 53 4 0 26 -35 48 -79z m-2010 -7 c23 -40 19 -40 -36
-8 -42 24 -43 26 -32 56 l11 32 18 -24 c11 -13 28 -39 39 -56z m119 -210 c38
-59 146 -236 229 -372 67 -111 73 -125 59 -136 -17 -12 -257 -127 -674 -323
-204 -96 -213 -99 -207 -73 25 103 114 400 172 571 59 172 162 445 178 472 3
4 53 -17 112 -46 85 -44 112 -62 131 -93z m1581 129 c0 -15 -103 -249 -165
-376 -81 -165 -124 -241 -133 -239 -15 4 -257 154 -312 194 l-58 42 66 50
c103 75 223 147 413 246 175 91 189 97 189 83z m-658 -491 c46 -33 133 -89
193 -126 61 -37 114 -71 119 -75 5 -5 -11 -40 -36 -82 -122 -196 -180 -377
-195 -604 -3 -52 -10 -97 -14 -99 -11 -8 -241 313 -433 605 -119 182 -126 193
-125 204 0 6 58 39 127 73 70 35 161 85 202 112 41 27 76 50 77 50 2 1 40 -26
85 -58z"/>
</g>
</svg>
