<?xml version="1.0" standalone="no"?>
<!DOCTYPE svg PUBLIC "-//W3C//DTD SVG 20010904//EN"
 "http://www.w3.org/TR/2001/REC-SVG-20010904/DTD/svg10.dtd">
<svg version="1.0" xmlns="http://www.w3.org/2000/svg"
 width="100" height="100" viewBox="0 0 100 100"
 preserveAspectRatio="xMidYMid meet">
<metadata>
Created by potrace 1.16, written by Peter Selinger 2001-2019
</metadata>
<g transform="translate(0.000000,400.000000) scale(0.100000,-0.100000)"
fill="#000000" stroke="none">
<path d="M1260 3489 c-65 -9 -123 -29 -168 -56 -18 -11 -168 -128 -333 -259
l-301 -239 6 -402 c3 -220 8 -407 10 -415 2 -7 7 -25 10 -40 l6 -28 -245 0
-245 0 0 -25 0 -25 255 0 254 0 16 -31 c9 -17 134 -151 278 -297 144 -147 392
-401 550 -564 l288 -297 37 6 c20 3 71 16 114 28 l76 22 74 -93 c40 -52 80
-94 88 -94 8 0 40 34 70 76 81 112 73 108 165 84 143 -37 125 -46 330 168 98
103 339 353 534 555 195 202 365 383 378 402 l24 35 234 0 235 0 0 25 0 25
-226 0 -226 0 7 23 c5 12 10 212 12 443 l5 422 -84 63 c-46 35 -161 126 -257
203 -254 203 -312 243 -393 267 -136 42 -301 15 -393 -63 -16 -14 -106 -134
-200 -266 -214 -302 -222 -306 -309 -179 -167 242 -310 429 -351 457 -86 59
-211 86 -325 69z m163 -54 c32 -8 74 -23 94 -34 l37 -19 -41 -20 c-74 -38
-158 -73 -146 -61 14 14 6 39 -13 39 -14 0 -511 -182 -547 -201 -34 -18 -14 0
143 125 80 64 169 127 198 142 93 44 181 54 275 29z m1330 5 c109 -17 175 -57
412 -249 44 -35 71 -61 60 -57 -11 4 -110 41 -220 82 -110 41 -222 84 -249 94
-58 24 -86 25 -86 5 0 -21 -1 -20 -99 26 l-86 41 40 21 c33 17 122 43 160 46
6 1 36 -3 68 -9z m-969 -351 c69 -95 124 -174 122 -176 -1 -2 -178 30 -392 71
-214 41 -406 78 -426 82 -21 3 -38 10 -38 14 0 6 195 102 475 234 l70 33 32
-42 c17 -23 88 -120 157 -216z m944 118 c133 -66 242 -123 242 -126 0 -8 -795
-164 -809 -160 -5 2 56 97 137 211 123 174 150 206 167 201 11 -3 129 -60 263
-126z m-1586 -23 c-204 -103 -212 -108 -212 -136 0 -23 -37 -78 -167 -246 -92
-120 -186 -241 -210 -270 l-43 -54 0 219 0 219 64 47 c36 25 87 57 113 70 75
37 631 254 657 256 5 1 -86 -47 -202 -105z m1808 0 c265 -97 411 -162 492
-216 l78 -53 -1 -220 c0 -193 -2 -218 -14 -200 -8 12 -103 134 -210 273 -155
200 -196 258 -193 278 3 24 -10 33 -167 116 -93 49 -161 87 -150 83 11 -4 85
-31 165 -61z m-1485 -239 c248 -47 459 -88 470 -91 11 -3 35 -25 53 -49 l32
-44 0 -866 0 -865 -288 257 c-319 286 -569 507 -679 602 -53 45 -73 68 -73 86
0 24 2 24 103 27 94 3 102 4 102 23 0 19 -8 20 -107 23 l-108 3 0 495 0 496
23 -5 c12 -3 225 -45 472 -92z m1595 -400 l0 -494 -82 -3 c-75 -3 -83 -5 -83
-23 0 -18 8 -20 83 -23 78 -3 82 -4 82 -26 0 -23 -19 -42 -452 -433 -83 -76
-244 -222 -357 -326 l-206 -187 -3 865 -2 865 32 49 32 49 246 47 c135 26 340
67 455 90 116 24 220 43 233 44 l22 1 0 -495z m-2130 -55 l0 -440 -197 2 -197
3 -8 35 c-5 19 -11 94 -15 166 l-6 132 95 123 c195 255 322 419 325 419 2 0 3
-198 3 -440z m2388 167 l203 -262 -4 -155 c-2 -85 -7 -163 -12 -172 -6 -16
-26 -18 -206 -18 l-199 0 0 435 c0 239 3 435 8 435 4 0 98 -119 210 -263z
m-2388 -692 c0 -31 10 -43 115 -136 92 -82 174 -173 414 -463 344 -414 376
-454 369 -462 -3 -3 -42 -13 -87 -22 l-82 -17 -102 105 c-459 468 -987 1015
-987 1022 0 4 81 8 180 8 l180 0 0 -35z m2533 20 c-5 -8 -164 -176 -354 -372
-190 -197 -428 -445 -529 -551 l-185 -194 -50 6 c-61 7 -125 24 -125 34 0 8
407 510 570 703 58 68 151 166 208 217 96 88 102 96 102 133 l0 39 185 0 c162
0 185 -2 178 -15z m-1929 -587 c225 -199 446 -401 446 -408 0 -7 -82 -60 -93
-60 -2 0 -42 46 -88 103 -45 56 -145 177 -221 270 -76 92 -136 167 -132 167 3
0 43 -32 88 -72z m865 -184 c-111 -137 -207 -258 -215 -268 -13 -19 -14 -19
-47 -1 -56 30 -73 45 -61 53 15 9 378 336 459 414 33 31 61 55 63 53 2 -1 -88
-115 -199 -251z m-379 -360 l0 -95 -51 61 c-28 34 -47 65 -43 69 11 10 88 61
91 61 2 0 3 -43 3 -96z m72 58 l46 -27 -46 -62 c-26 -34 -49 -62 -52 -63 -3 0
-5 41 -5 90 0 50 2 90 5 90 3 0 26 -13 52 -28z"/>
<path d="M0 590 c0 -23 -148 -21 2140 -20 564 0 1213 0 1443 0 410 0 417 0
417 20 0 20 -7 20 -2000 20 -1993 0 -2000 0 -2000 -20z"/>
</g>
</svg>
