999
"DXF R12 Output" (www.mydxf.blogspot.com)
 0 
SECTION
 2 
HEADER
 9 
$ACADVER
 1 
AC1009
 9 
$EXTMIN
 10 
 0 
 20 
 0 
 9 
$EXTMAX
 10 
 8.5 
 20 
 11 
 0 
ENDSEC
 0 
SECTION
 2 
ENTITIES
0
LINE
8
Layer 1
10
27.314500
20
53.477900
11
25.262931
21
51.786039
0
LINE
8
Layer 1
10
25.262931
20
51.786039
11
23.563630
21
49.746880
0
LINE
8
Layer 1
10
23.563630
20
49.746880
11
22.491125
21
47.821830
0
LINE
8
Layer 1
10
22.491125
20
47.821830
11
21.770890
21
45.896780
0
LINE
8
Layer 1
10
21.770890
20
45.896780
11
21.530466
21
44.620854
0
LINE
8
Layer 1
10
21.530466
20
44.620854
11
21.435164
21
43.275469
0
LINE
8
Layer 1
10
21.435164
20
43.275469
11
21.486226
21
41.967297
0
LINE
8
Layer 1
10
21.486226
20
41.967297
11
21.684891
21
40.803010
0
LINE
8
Layer 1
10
21.684891
20
40.803010
11
22.121500
21
39.453490
0
LINE
8
Layer 1
10
22.121500
20
39.453490
11
22.339805
21
38.858114
0
LINE
8
Layer 1
10
22.339805
20
38.858114
11
21.909811
21
39.096264
0
LINE
8
Layer 1
10
21.909811
20
39.096264
11
20.943151
21
39.573392
0
LINE
8
Layer 1
10
20.943151
20
39.573392
11
19.892151
21
39.896714
0
LINE
8
Layer 1
10
19.892151
20
39.896714
11
18.364845
21
40.067058
0
LINE
8
Layer 1
10
18.364845
20
40.067058
11
16.862351
21
40.029020
0
LINE
8
Layer 1
10
16.862351
20
40.029020
11
15.446032
21
39.727636
0
LINE
8
Layer 1
10
15.446032
20
39.727636
11
14.066770
21
39.239112
0
LINE
8
Layer 1
10
14.066770
20
39.239112
11
12.742394
21
38.576627
0
LINE
8
Layer 1
10
12.742394
20
38.576627
11
11.490735
21
37.753358
0
LINE
8
Layer 1
10
11.490735
20
37.753358
11
10.329623
21
36.782487
0
LINE
8
Layer 1
10
10.329623
20
36.782487
11
9.276888
21
35.677190
0
LINE
8
Layer 1
10
9.276888
20
35.677190
11
8.350361
21
34.450648
0
LINE
8
Layer 1
10
8.350361
20
34.450648
11
7.567871
21
33.116040
0
LINE
8
Layer 1
10
7.567871
20
33.116040
11
7.243722
21
32.487587
0
LINE
8
Layer 1
10
7.243722
20
32.487587
11
7.369413
21
32.136977
0
LINE
8
Layer 1
10
7.369413
20
32.136977
11
7.839099
21
30.979297
0
LINE
8
Layer 1
10
7.839099
20
30.979297
11
8.189709
21
30.172232
0
LINE
8
Layer 1
10
8.189709
20
30.172232
11
7.872175
21
29.471011
0
LINE
8
Layer 1
10
7.872175
20
29.471011
11
7.409105
21
28.339801
0
LINE
8
Layer 1
10
7.409105
20
28.339801
11
7.263569
21
27.909807
0
LINE
8
Layer 1
10
7.263569
20
27.909807
11
7.587718
21
27.347507
0
LINE
8
Layer 1
10
7.587718
20
27.347507
11
8.445224
21
26.073238
0
LINE
8
Layer 1
10
8.445224
20
26.073238
11
9.525998
21
24.794007
0
LINE
8
Layer 1
10
9.525998
20
24.794007
11
10.851022
21
23.578962
0
LINE
8
Layer 1
10
10.851022
20
23.578962
11
12.346594
21
22.550594
0
LINE
8
Layer 1
10
12.346594
20
22.550594
11
13.969924
21
21.734330
0
LINE
8
Layer 1
10
13.969924
20
21.734330
11
15.678218
21
21.155597
0
LINE
8
Layer 1
10
15.678218
20
21.155597
11
17.563578
21
20.924062
0
LINE
8
Layer 1
10
17.563578
20
20.924062
11
19.783833
21
21.077868
0
LINE
8
Layer 1
10
19.783833
20
21.077868
11
21.770898
21
21.797280
0
LINE
8
Layer 1
10
21.770898
20
21.797280
11
22.319967
21
21.982508
0
LINE
8
Layer 1
10
22.319967
20
21.982508
11
21.956126
21
20.937288
0
LINE
8
Layer 1
10
21.956126
20
20.937288
11
21.531094
21
19.218140
0
LINE
8
Layer 1
10
21.531094
20
19.218140
11
21.453364
21
17.365028
0
LINE
8
Layer 1
10
21.453364
20
17.365028
11
21.713014
21
15.369690
0
LINE
8
Layer 1
10
21.713014
20
15.369690
11
22.439042
21
13.329698
0
LINE
8
Layer 1
10
22.439042
20
13.329698
11
23.348126
21
11.587500
0
LINE
8
Layer 1
10
23.348126
20
11.587500
11
24.457531
21
10.024534
0
LINE
8
Layer 1
10
24.457531
20
10.024534
11
25.766636
21
8.643903
0
LINE
8
Layer 1
10
25.766636
20
8.643903
11
27.274822
21
7.448708
0
LINE
8
Layer 1
10
27.274822
20
7.448708
11
27.916505
21
6.998868
0
LINE
8
Layer 1
10
27.916505
20
6.998868
11
28.498651
21
7.243634
0
LINE
8
Layer 1
10
28.498651
20
7.243634
11
29.583561
21
7.719935
0
LINE
8
Layer 1
10
29.583561
20
7.719935
11
30.092938
21
7.958085
0
LINE
8
Layer 1
10
30.092938
20
7.958085
11
30.807389
21
7.640551
0
LINE
8
Layer 1
10
30.807389
20
7.640551
11
31.872449
21
7.170865
0
LINE
8
Layer 1
10
31.872449
20
7.170865
11
32.229675
21
7.012098
0
LINE
8
Layer 1
10
32.229675
20
7.012098
11
32.719206
21
7.349478
0
LINE
8
Layer 1
10
32.719206
20
7.349478
11
34.027690
21
8.342702
0
LINE
8
Layer 1
10
34.027690
20
8.342702
11
35.213996
21
9.465544
0
LINE
8
Layer 1
10
35.213996
20
9.465544
11
36.247738
21
10.686376
0
LINE
8
Layer 1
10
36.247738
20
10.686376
11
37.098526
21
11.973568
0
LINE
8
Layer 1
10
37.098526
20
11.973568
11
38.041207
21
14.012730
0
LINE
8
Layer 1
10
38.041207
20
14.012730
11
38.646506
21
16.121358
0
LINE
8
Layer 1
10
38.646506
20
16.121358
11
38.730851
21
17.890120
0
LINE
8
Layer 1
10
38.730851
20
17.890120
11
38.646506
21
19.673768
0
LINE
8
Layer 1
10
38.646506
20
19.673768
11
37.984977
21
21.744358
0
LINE
8
Layer 1
10
37.984977
20
21.744358
11
37.846056
21
22.081738
0
LINE
8
Layer 1
10
37.846056
20
22.081738
11
38.600199
21
21.724512
0
LINE
8
Layer 1
10
38.600199
20
21.724512
11
40.134949
21
21.155597
0
LINE
8
Layer 1
10
40.134949
20
21.155597
11
40.993283
21
20.975330
0
LINE
8
Layer 1
10
40.993283
20
20.975330
11
42.238609
21
20.943908
0
LINE
8
Layer 1
10
42.238609
20
20.943908
11
43.476498
21
20.967061
0
LINE
8
Layer 1
10
43.476498
20
20.967061
11
44.322429
21
21.129136
0
LINE
8
Layer 1
10
44.322429
20
21.129136
11
46.327689
21
21.806377
0
LINE
8
Layer 1
10
46.327689
20
21.806377
11
48.139449
21
22.736656
0
LINE
8
Layer 1
10
48.139449
20
22.736656
11
49.731255
21
23.941465
0
LINE
8
Layer 1
10
49.731255
20
23.941465
11
51.149409
21
25.310006
0
LINE
8
Layer 1
10
51.149409
20
25.310006
11
52.717229
21
27.526126
0
LINE
8
Layer 1
10
52.717229
20
27.526126
11
52.935534
21
27.949505
0
LINE
8
Layer 1
10
52.935534
20
27.949505
11
52.525386
21
28.941799
0
LINE
8
Layer 1
10
52.525386
20
28.941799
11
52.082162
21
30.066399
0
LINE
8
Layer 1
10
52.082162
20
30.066399
11
52.346774
21
30.893310
0
LINE
8
Layer 1
10
52.346774
20
30.893310
11
52.796614
21
32.017910
0
LINE
8
Layer 1
10
52.796614
20
32.017910
11
52.942150
21
32.447904
0
LINE
8
Layer 1
10
52.942150
20
32.447904
11
52.624616
21
33.076357
0
LINE
8
Layer 1
10
52.624616
20
33.076357
11
51.553766
21
34.827757
0
LINE
8
Layer 1
10
51.553766
20
34.827757
11
50.110806
21
36.489847
0
LINE
8
Layer 1
10
50.110806
20
36.489847
11
49.004503
21
37.488860
0
LINE
8
Layer 1
10
49.004503
20
37.488860
11
47.824397
21
38.334686
0
LINE
8
Layer 1
10
47.824397
20
38.334686
11
46.563669
21
39.030427
0
LINE
8
Layer 1
10
46.563669
20
39.030427
11
45.215496
21
39.579187
0
LINE
8
Layer 1
10
45.215496
20
39.579187
11
43.766747
21
39.962874
0
LINE
8
Layer 1
10
43.766747
20
39.962874
11
42.139386
21
40.048873
0
LINE
8
Layer 1
10
42.139386
20
40.048873
11
40.979229
21
40.012489
0
LINE
8
Layer 1
10
40.979229
20
40.012489
11
40.121726
21
39.837184
0
LINE
8
Layer 1
10
40.121726
20
39.837184
11
38.989686
21
39.447709
0
LINE
8
Layer 1
10
38.989686
20
39.447709
11
38.051136
21
38.963966
0
LINE
8
Layer 1
10
38.051136
20
38.963966
11
37.832831
21
38.818430
0
LINE
8
Layer 1
10
37.832831
20
38.818430
11
37.978367
21
39.169040
0
LINE
8
Layer 1
10
37.978367
20
39.169040
11
38.533225
21
40.936976
0
LINE
8
Layer 1
10
38.533225
20
40.936976
11
38.745741
21
42.774370
0
LINE
8
Layer 1
10
38.745741
20
42.774370
11
38.704396
21
44.438118
0
LINE
8
Layer 1
10
38.704396
20
44.438118
11
38.395131
21
45.943090
0
LINE
8
Layer 1
10
38.395131
20
45.943090
11
37.499793
21
48.243968
0
LINE
8
Layer 1
10
37.499793
20
48.243968
11
36.213741
21
50.338948
0
LINE
8
Layer 1
10
36.213741
20
50.338948
11
34.597751
21
52.146163
0
LINE
8
Layer 1
10
34.597751
20
52.146163
11
32.712601
21
53.583750
0
LINE
8
Layer 1
10
32.712601
20
53.583750
11
32.256146
21
53.861592
0
LINE
8
Layer 1
10
32.256146
20
53.861592
11
31.898920
21
53.749132
0
LINE
8
Layer 1
10
31.898920
20
53.749132
11
30.814010
21
53.272831
0
LINE
8
Layer 1
10
30.814010
20
53.272831
11
30.086328
21
52.908990
0
LINE
8
Layer 1
10
30.086328
20
52.908990
11
29.510798
21
53.173602
0
LINE
8
Layer 1
10
29.510798
20
53.173602
11
27.916518
21
53.848362
0
LINE
8
Layer 1
10
27.916518
20
53.848362
11
27.314527
21
53.477906
0
LINE
8
Layer 1
10
27.314527
20
53.477906
11
27.314500
21
53.477900
0
LINE
8
Layer 1
10
30.833830
20
52.379760
11
32.227692
21
51.379820
0
LINE
8
Layer 1
10
32.227692
20
51.379820
11
33.580004
21
50.110719
0
LINE
8
Layer 1
10
33.580004
20
50.110719
11
34.814481
21
48.653081
0
LINE
8
Layer 1
10
34.814481
20
48.653081
11
35.854840
21
47.087530
0
LINE
8
Layer 1
10
35.854840
20
47.087530
11
36.633789
21
45.464304
0
LINE
8
Layer 1
10
36.633789
20
45.464304
11
37.204360
21
43.826190
0
LINE
8
Layer 1
10
37.204360
20
43.826190
11
37.569028
21
41.495954
0
LINE
8
Layer 1
10
37.569028
20
41.495954
11
37.521894
21
39.255020
0
LINE
8
Layer 1
10
37.521894
20
39.255020
11
37.429280
21
38.580260
0
LINE
8
Layer 1
10
37.429280
20
38.580260
11
36.589138
21
38.017960
0
LINE
8
Layer 1
10
36.589138
20
38.017960
11
34.529302
21
36.345117
0
LINE
8
Layer 1
10
34.529302
20
36.345117
11
31.621058
21
33.307870
0
LINE
8
Layer 1
10
31.621058
20
33.307870
11
30.291388
21
31.859120
0
LINE
8
Layer 1
10
30.291388
20
31.859120
11
30.106160
21
31.660661
0
LINE
8
Layer 1
10
30.106160
20
31.660661
11
29.352017
21
32.454496
0
LINE
8
Layer 1
10
29.352017
20
32.454496
11
27.367427
21
34.571386
0
LINE
8
Layer 1
10
27.367427
20
34.571386
11
25.361338
21
36.605587
0
LINE
8
Layer 1
10
25.361338
20
36.605587
11
23.563637
21
38.004726
0
LINE
8
Layer 1
10
23.563637
20
38.004726
11
22.743341
21
38.692716
0
LINE
8
Layer 1
10
22.743341
20
38.692716
11
22.639150
21
40.224984
0
LINE
8
Layer 1
10
22.639150
20
40.224984
11
22.683803
21
42.119436
0
LINE
8
Layer 1
10
22.683803
20
42.119436
11
22.929086
21
43.513503
0
LINE
8
Layer 1
10
22.929086
20
43.513503
11
23.316391
21
44.842452
0
LINE
8
Layer 1
10
23.316391
20
44.842452
11
24.569163
21
47.451356
0
LINE
8
Layer 1
10
24.569163
20
47.451356
11
25.642391
21
48.991891
0
LINE
8
Layer 1
10
25.642391
20
48.991891
11
26.918418
21
50.428235
0
LINE
8
Layer 1
10
26.918418
20
50.428235
11
28.294916
21
51.656197
0
LINE
8
Layer 1
10
28.294916
20
51.656197
11
29.669553
21
52.571586
0
LINE
8
Layer 1
10
29.669553
20
52.571586
11
30.106162
21
52.789891
0
LINE
8
Layer 1
10
30.106162
20
52.789891
11
30.833844
21
52.379743
0
LINE
8
Layer 1
10
30.833844
20
52.379743
11
30.833830
21
52.379760
0
LINE
8
Layer 1
10
21.182120
20
38.699360
11
22.233950
21
38.414903
0
LINE
8
Layer 1
10
22.233950
20
38.414903
11
22.604406
21
38.242078
0
LINE
8
Layer 1
10
22.604406
20
38.242078
11
22.776404
21
37.905526
0
LINE
8
Layer 1
10
22.776404
20
37.905526
11
23.349454
21
36.781752
0
LINE
8
Layer 1
10
23.349454
20
36.781752
11
24.225154
21
35.504176
0
LINE
8
Layer 1
10
24.225154
20
35.504176
11
27.572494
21
31.786386
0
LINE
8
Layer 1
10
27.572494
20
31.786386
11
28.855864
21
30.430256
0
LINE
8
Layer 1
10
28.855864
20
30.430256
11
28.267103
21
29.815034
0
LINE
8
Layer 1
10
28.267103
20
29.815034
11
26.527283
21
27.975984
0
LINE
8
Layer 1
10
26.527283
20
27.975984
11
23.968819
21
25.047895
0
LINE
8
Layer 1
10
23.968819
20
25.047895
11
23.237829
21
23.958129
0
LINE
8
Layer 1
10
23.237829
20
23.958129
11
22.789643
21
23.007904
0
LINE
8
Layer 1
10
22.789643
20
23.007904
11
22.644107
21
22.597756
0
LINE
8
Layer 1
10
22.644107
20
22.597756
11
22.220728
21
22.485296
0
LINE
8
Layer 1
10
22.220728
20
22.485296
11
20.900979
21
22.205800
0
LINE
8
Layer 1
10
20.900979
20
22.205800
11
19.481998
21
22.134686
0
LINE
8
Layer 1
10
19.481998
20
22.134686
11
17.616488
21
22.306684
0
LINE
8
Layer 1
10
17.616488
20
22.306684
11
15.346511
21
23.126049
0
LINE
8
Layer 1
10
15.346511
20
23.126049
11
13.125530
21
24.455825
0
LINE
8
Layer 1
10
13.125530
20
24.455825
11
11.094326
21
26.196163
0
LINE
8
Layer 1
10
11.094326
20
26.196163
11
9.393678
21
28.247214
0
LINE
8
Layer 1
10
9.393678
20
28.247214
11
8.335228
21
30.205344
0
LINE
8
Layer 1
10
8.335228
20
30.205344
11
9.486288
21
32.447924
0
LINE
8
Layer 1
10
9.486288
20
32.447924
11
11.394696
21
34.844518
0
LINE
8
Layer 1
10
11.394696
20
34.844518
11
13.550557
21
36.741245
0
LINE
8
Layer 1
10
13.550557
20
36.741245
11
15.883790
21
38.087249
0
LINE
8
Layer 1
10
15.883790
20
38.087249
11
17.095022
21
38.537838
0
LINE
8
Layer 1
10
17.095022
20
38.537838
11
18.324318
21
38.831674
0
LINE
8
Layer 1
10
18.324318
20
38.831674
11
19.691204
21
38.859789
0
LINE
8
Layer 1
10
19.691204
20
38.859789
11
21.182128
21
38.699368
0
LINE
8
Layer 1
10
21.182128
20
38.699368
11
21.182120
21
38.699360
0
LINE
8
Layer 1
10
42.304720
20
38.739052
11
43.613838
21
38.352665
0
LINE
8
Layer 1
10
43.613838
20
38.352665
11
44.928614
21
37.759059
0
LINE
8
Layer 1
10
44.928614
20
37.759059
11
46.222459
21
36.980483
0
LINE
8
Layer 1
10
46.222459
20
36.980483
11
47.468782
21
36.039187
0
LINE
8
Layer 1
10
47.468782
20
36.039187
11
48.640993
21
34.957418
0
LINE
8
Layer 1
10
48.640993
20
34.957418
11
49.712502
21
33.757427
0
LINE
8
Layer 1
10
49.712502
20
33.757427
11
50.656717
21
32.461462
0
LINE
8
Layer 1
10
50.656717
20
32.461462
11
51.447050
21
31.091772
0
LINE
8
Layer 1
10
51.447050
20
31.091772
11
51.863813
21
30.178862
0
LINE
8
Layer 1
10
51.863813
20
30.178862
11
50.950903
21
28.491962
0
LINE
8
Layer 1
10
50.950903
20
28.491962
11
49.161263
21
26.303231
0
LINE
8
Layer 1
10
49.161263
20
26.303231
11
46.988347
21
24.442578
0
LINE
8
Layer 1
10
46.988347
20
24.442578
11
44.626894
21
23.047062
0
LINE
8
Layer 1
10
44.626894
20
23.047062
11
43.436322
21
22.566561
0
LINE
8
Layer 1
10
43.436322
20
22.566561
11
42.271643
21
22.253742
0
LINE
8
Layer 1
10
42.271643
20
22.253742
11
40.306902
21
22.140455
0
LINE
8
Layer 1
10
40.306902
20
22.140455
11
38.183393
21
22.438970
0
LINE
8
Layer 1
10
38.183393
20
22.438970
11
37.640939
21
22.577891
0
LINE
8
Layer 1
10
37.640939
20
22.577891
11
37.369712
21
23.146806
0
LINE
8
Layer 1
10
37.369712
20
23.146806
11
36.643685
21
24.398749
0
LINE
8
Layer 1
10
36.643685
20
24.398749
11
35.689432
21
25.700306
0
LINE
8
Layer 1
10
35.689432
20
25.700306
11
33.751152
21
27.803966
0
LINE
8
Layer 1
10
33.751152
20
27.803966
11
31.766562
21
29.907626
0
LINE
8
Layer 1
10
31.766562
20
29.907626
11
31.277031
21
30.423619
0
LINE
8
Layer 1
10
31.277031
20
30.423619
11
32.130403
21
31.303453
0
LINE
8
Layer 1
10
32.130403
20
31.303453
11
35.247033
21
34.629290
0
LINE
8
Layer 1
10
35.247033
20
34.629290
11
36.780953
21
36.675073
0
LINE
8
Layer 1
10
36.780953
20
36.675073
11
37.508635
21
38.229663
0
LINE
8
Layer 1
10
37.508635
20
38.229663
11
38.344644
21
38.543889
0
LINE
8
Layer 1
10
38.344644
20
38.543889
11
40.088595
21
38.858116
0
LINE
8
Layer 1
10
40.088595
20
38.858116
11
42.304715
21
38.739041
0
LINE
8
Layer 1
10
42.304715
20
38.739041
11
42.304720
21
38.739052
0
LINE
8
Layer 1
10
31.541620
20
27.625352
11
34.588790
21
24.479783
0
LINE
8
Layer 1
10
34.588790
20
24.479783
11
36.549390
21
22.921882
0
LINE
8
Layer 1
10
36.549390
20
22.921882
11
37.409378
21
22.339736
0
LINE
8
Layer 1
10
37.409378
20
22.339736
11
37.488761
21
21.836974
0
LINE
8
Layer 1
10
37.488761
20
21.836974
11
37.501992
21
18.873324
0
LINE
8
Layer 1
10
37.501992
20
18.873324
11
36.827232
21
16.141214
0
LINE
8
Layer 1
10
36.827232
20
16.141214
11
36.175833
21
14.598819
0
LINE
8
Layer 1
10
36.175833
20
14.598819
11
35.371867
21
13.169296
0
LINE
8
Layer 1
10
35.371867
20
13.169296
11
34.399212
21
11.826597
0
LINE
8
Layer 1
10
34.399212
20
11.826597
11
33.241742
21
10.544674
0
LINE
8
Layer 1
10
33.241742
20
10.544674
11
31.987319
21
9.380383
0
LINE
8
Layer 1
10
31.987319
20
9.380383
11
30.727932
21
8.454244
0
LINE
8
Layer 1
10
30.727932
20
8.454244
11
30.132556
21
8.057327
0
LINE
8
Layer 1
10
30.132556
20
8.057327
11
29.801791
21
8.242555
0
LINE
8
Layer 1
10
29.801791
20
8.242555
11
28.534343
21
9.063987
0
LINE
8
Layer 1
10
28.534343
20
9.063987
11
27.292942
21
10.120469
0
LINE
8
Layer 1
10
27.292942
20
10.120469
11
26.123484
21
11.369209
0
LINE
8
Layer 1
10
26.123484
20
11.369209
11
25.071861
21
12.767415
0
LINE
8
Layer 1
10
25.071861
20
12.767415
11
23.961321
21
14.699906
0
LINE
8
Layer 1
10
23.961321
20
14.699906
11
23.153431
21
16.815975
0
LINE
8
Layer 1
10
23.153431
20
16.815975
11
22.749071
21
18.483028
0
LINE
8
Layer 1
10
22.749071
20
18.483028
11
22.657284
21
20.408075
0
LINE
8
Layer 1
10
22.657284
20
20.408075
11
22.710206
21
22.161125
0
LINE
8
Layer 1
10
22.710206
20
22.161125
11
22.883031
21
22.438967
0
LINE
8
Layer 1
10
22.883031
20
22.438967
11
23.537117
21
22.895422
0
LINE
8
Layer 1
10
23.537117
20
22.895422
11
25.595300
21
24.523610
0
LINE
8
Layer 1
10
25.595300
20
24.523610
11
28.710277
21
27.704742
0
LINE
8
Layer 1
10
28.710277
20
27.704742
11
30.152407
21
29.087342
0
LINE
8
Layer 1
10
30.152407
20
29.087342
11
31.541617
21
27.625362
0
LINE
8
Layer 1
10
31.541617
20
27.625362
11
31.541620
21
27.625352
 0 
ENDSEC
 0 
EOF