<?xml version="1.0" standalone="no"?>
<!DOCTYPE svg PUBLIC "-//W3C//DTD SVG 20010904//EN"
 "http://www.w3.org/TR/2001/REC-SVG-20010904/DTD/svg10.dtd">
<svg version="1.0" xmlns="http://www.w3.org/2000/svg"
 width="283.464567pt" height="283.464567pt" viewBox="0 0 283.464567 283.464567"
 preserveAspectRatio="xMidYMid meet">
<metadata>
Created by potrace 1.16, written by Peter Selinger 2001-2019
</metadata>
<g transform="translate(0.000000,283.464567) scale(0.018748,-0.018748)"
fill="#000000" stroke="none">
<path d="M7440 13830 c-152 -38 -266 -94 -370 -181 -156 -129 -269 -346 -270
-513 0 -39 -5 -56 -24 -75 -34 -36 -56 -110 -56 -188 0 -175 145 -710 246
-903 79 -153 178 -240 319 -281 117 -34 117 -35 0 -43 -261 -16 -519 -62 -725
-129 -211 -69 -520 -205 -598 -264 l-33 -25 -45 21 c-126 60 -325 67 -464 18
-170 -60 -299 -185 -355 -343 -23 -66 -31 -250 -15 -329 14 -67 14 -67 1 -185
-5 -47 -16 -170 -25 -275 -9 -104 -20 -239 -26 -300 -5 -60 -16 -204 -25 -320
-15 -198 -24 -303 -60 -705 -8 -91 -19 -230 -25 -310 -6 -80 -15 -199 -20
-266 -14 -186 1 -216 123 -239 l62 -11 -42 -12 c-69 -20 -83 -54 -83 -198 0
-66 5 -171 10 -234 13 -169 39 -632 49 -890 10 -255 17 -284 90 -360 23 -24
41 -46 41 -49 0 -3 -66 -6 -148 -6 -138 0 -150 -1 -192 -25 -55 -31 -96 -95
-110 -172 -7 -36 -9 -220 -7 -510 l4 -454 25 -55 c32 -70 234 -407 261 -436
25 -28 37 -29 71 -2 l26 20 0 435 c0 239 1 434 3 434 1 0 31 -9 65 -20 79 -25
161 -25 232 0 30 10 55 18 56 17 6 -6 13 -348 14 -594 l0 -293 25 -16 c38 -25
68 -6 118 73 23 38 89 138 147 223 l105 155 0 515 c0 562 -1 572 -57 636 -52
59 -79 68 -208 70 -63 1 -114 5 -113 8 1 4 17 17 34 29 52 35 95 108 108 179
10 57 35 344 76 883 9 110 20 255 25 323 6 67 10 146 10 175 0 97 -61 157
-160 157 l-55 1 46 20 c59 26 72 52 79 162 l5 89 38 13 c72 25 110 80 126 186
10 63 44 434 56 599 3 47 15 211 26 365 37 525 41 600 37 694 -4 91 -5 94 -37
123 -33 30 -34 30 -124 23 -57 -5 -87 -4 -84 2 4 6 33 13 65 15 37 4 81 17
120 37 34 17 63 31 66 31 8 0 16 -96 26 -320 12 -255 23 -358 44 -427 9 -26
47 -160 86 -298 39 -137 94 -322 121 -410 28 -88 73 -232 100 -320 98 -314
190 -587 210 -627 32 -62 65 -72 394 -112 402 -49 607 -59 940 -46 749 29 983
45 1095 72 98 24 156 69 170 135 9 36 42 492 75 1018 8 138 22 347 30 465 23
331 44 706 50 905 6 167 15 224 28 179 13 -44 27 -148 37 -274 6 -74 18 -216
26 -315 15 -187 45 -602 64 -880 18 -275 34 -366 77 -430 31 -47 117 -124 163
-145 28 -13 49 -28 47 -33 -1 -5 -30 -9 -64 -10 -67 -2 -107 -23 -131 -68 -15
-27 -10 -171 13 -449 13 -151 25 -306 56 -740 6 -85 17 -238 25 -340 7 -102
19 -260 25 -352 l11 -168 -31 -35 c-65 -74 -96 -165 -112 -327 -16 -169 -8
-312 20 -342 27 -28 27 -28 -8 -65 -25 -27 -30 -42 -35 -104 -11 -138 -24
-774 -16 -815 10 -55 31 -86 76 -107 74 -35 120 -11 246 130 44 50 124 135
178 190 167 173 309 334 315 357 12 57 47 209 61 271 9 37 14 76 11 87 -3 11
-1 20 3 20 22 0 71 55 80 91 13 49 -3 298 -25 382 -21 80 -62 160 -108 213
l-40 45 12 377 c7 207 16 481 22 607 5 127 12 415 16 640 l6 410 -34 37 c-44
46 -88 58 -214 58 l-100 0 69 35 c39 19 80 35 91 35 36 0 144 60 170 94 60 79
70 165 45 386 -11 96 -27 281 -55 620 -15 181 -35 395 -54 595 -5 55 -17 195
-26 310 -36 469 -54 571 -116 681 -50 89 -159 178 -261 214 -103 36 -185 43
-288 26 -50 -9 -105 -23 -121 -31 -25 -14 -32 -14 -51 -1 -59 37 -497 114
-803 141 -38 3 -137 13 -220 21 -82 8 -246 18 -363 23 -118 5 -216 12 -220 15
-3 3 10 6 29 6 161 1 390 134 503 294 99 140 194 385 247 639 50 240 48 384
-6 471 -7 12 -15 55 -19 96 -20 259 -234 532 -499 636 -164 65 -391 83 -547
44z m351 -125 c160 -30 343 -142 435 -267 53 -72 112 -191 116 -233 l3 -30
-175 -6 c-158 -5 -181 -9 -238 -32 -89 -36 -136 -77 -171 -149 -57 -114 -33
-245 60 -319 48 -37 47 -30 19 -360 -27 -315 -31 -347 -44 -358 -6 -5 -108
-10 -226 -12 l-215 -4 -27 50 c-35 63 -87 187 -144 339 -49 129 -114 320 -114
331 0 4 11 4 25 1 38 -10 101 11 141 46 106 94 106 257 -1 346 -47 38 -90 50
-204 57 -52 2 -97 7 -100 10 -14 14 22 147 60 223 134 272 474 427 800 367z
m593 -714 c25 -25 34 -180 16 -289 -41 -262 -165 -594 -265 -710 -78 -90 -205
-170 -303 -191 -65 -14 -72 -14 -72 -1 0 6 11 10 25 10 86 0 276 155 355 290
97 167 204 441 231 594 20 119 -6 207 -85 288 l-41 41 60 -7 c38 -4 67 -13 79
-25z m-1233 -59 c32 -36 36 -60 14 -101 -16 -32 -33 -41 -75 -41 -30 0 -43 19
-74 113 -23 70 -24 70 45 65 54 -4 66 -9 90 -36z m764 2 c-14 -20 -25 -44 -25
-53 0 -9 -5 -23 -10 -31 -7 -11 -10 -5 -10 23 0 31 7 45 31 68 41 38 44 37 14
-7z m-1039 -131 c10 -44 128 -396 177 -528 62 -169 81 -213 127 -304 22 -45
40 -86 40 -93 0 -7 -22 10 -50 37 -91 89 -148 226 -240 574 -55 208 -82 341
-69 341 5 0 12 -12 15 -27z m1334 -188 c-55 -194 -178 -463 -232 -512 -17 -15
-18 -15 -18 11 0 14 6 91 14 169 8 78 18 183 21 234 l7 92 42 6 c88 15 147 66
177 150 l14 40 3 -42 c2 -25 -9 -84 -28 -148z m-160 155 c0 -5 -7 -10 -15 -10
-8 0 -15 5 -15 10 0 6 7 10 15 10 8 0 15 -4 15 -10z m-233 -1270 c125 -10 146
-17 173 -63 52 -85 8 -154 -142 -224 -45 -21 -54 -19 -49 10 3 20 -22 92 -42
119 -12 16 -46 41 -76 55 l-54 27 -326 -2 c-479 -3 -576 -18 -635 -94 -67 -88
-31 -240 69 -292 38 -20 60 -21 389 -26 l349 -5 4 -540 c2 -297 5 -565 7 -596
4 -64 23 -104 74 -161 l36 -40 -365 6 c-200 4 -486 9 -635 12 l-272 6 -5 47
c-2 25 -16 132 -30 236 -14 105 -33 253 -42 330 -36 305 -86 627 -106 680 -11
30 -36 78 -55 106 -19 28 -34 54 -34 58 0 17 387 186 545 239 152 51 388 95
595 111 149 12 495 12 627 1z m515 -25 c280 -26 569 -67 749 -106 52 -11 106
-23 122 -26 41 -8 42 -19 5 -56 -55 -55 -89 -130 -97 -210 l-6 -72 -470 -5
c-258 -3 -478 -9 -487 -13 -10 -5 -27 -25 -39 -44 -26 -42 -32 -123 -49 -706
-11 -389 -12 -391 -70 -441 -37 -30 -109 -53 -119 -37 -4 6 -12 163 -19 348
-7 186 -20 472 -29 636 -9 175 -12 301 -7 306 5 4 48 24 95 45 160 70 248 180
236 296 -4 30 -9 65 -13 78 -8 27 -16 27 198 7z m1173 -160 c-38 -14 -61 -19
-64 -12 -7 19 32 37 78 36 l46 0 -60 -24z m-2035 -95 l0 -70 -337 2 -337 3
-15 26 c-17 30 -9 73 16 85 10 5 146 11 303 14 157 3 304 7 328 8 l42 2 0 -70z
m165 56 c14 -10 19 -27 20 -67 0 -52 -1 -54 -27 -57 l-28 -3 0 70 c0 39 4 71
8 71 5 0 17 -6 27 -14z m1652 -148 c-8 -29 -18 -70 -21 -90 -8 -44 -26 -51
-26 -10 0 27 30 128 46 153 14 24 15 -3 1 -53z m431 32 c70 -33 158 -115 185
-173 27 -55 37 -127 26 -176 -41 -185 -218 -280 -417 -225 -94 26 -96 29 -104
152 -7 119 -6 122 55 122 30 0 39 -5 46 -22 16 -43 48 -62 101 -61 60 1 91 19
115 69 31 66 4 148 -60 178 -47 23 -92 20 -142 -10 -48 -28 -99 -29 -116 -3
-13 21 27 105 64 131 74 54 158 60 247 18z m-4159 -4 c-2 -2 -40 -23 -85 -45
-129 -65 -217 -169 -250 -296 -30 -111 -8 -212 67 -311 58 -77 41 -87 -30 -16
-122 122 -115 377 13 520 49 53 129 107 196 132 49 17 100 27 89 16z m352 -78
c33 -25 85 -105 75 -115 -4 -4 -14 4 -23 18 -9 13 -39 45 -67 72 -53 50 -43
67 15 25z m1763 -120 c3 -29 12 -215 21 -413 8 -198 20 -452 25 -564 8 -143 8
-207 0 -215 -13 -13 -57 12 -85 49 -19 26 -20 44 -23 611 l-3 584 29 0 c28 0
30 -2 36 -52z m-2112 2 c17 -22 40 -35 77 -45 69 -18 115 -55 136 -108 18 -47
17 -98 -1 -104 -6 -2 -16 14 -23 36 -40 136 -179 173 -265 71 -33 -40 -36
-118 -6 -168 29 -47 107 -94 148 -90 42 5 41 -4 -7 -30 -25 -14 -56 -22 -88
-22 -42 0 -55 5 -92 36 -101 87 -119 230 -42 344 24 36 112 109 133 110 4 0
17 -14 30 -30z m3266 -128 c3 -29 -22 -242 -48 -417 -5 -33 -16 -114 -25 -180
-29 -218 -82 -542 -91 -556 -3 -5 -136 -9 -311 -9 l-306 0 45 40 c27 23 54 59
65 87 21 50 21 39 52 893 l6 165 255 5 c387 8 354 10 358 -28z m284 -142 c-5
-271 -31 -855 -52 -1160 -11 -157 -27 -386 -35 -510 -37 -540 -58 -828 -71
-947 -5 -46 -9 -53 -37 -66 -41 -19 -159 -33 -437 -52 -192 -13 -700 -35 -809
-35 l-34 0 39 28 c21 16 45 36 53 46 13 15 52 16 450 16 l436 -1 23 26 c28 33
28 62 0 92 l-21 23 -389 0 c-219 0 -388 4 -388 9 0 5 7 22 15 37 20 39 19 149
-2 215 -13 41 -32 69 -78 114 -95 95 -178 114 -490 115 -382 0 -515 -47 -603
-213 -24 -46 -27 -62 -27 -147 1 -104 12 -136 81 -231 19 -26 34 -49 34 -52 0
-8 -133 5 -152 15 -26 13 -40 45 -108 253 -34 105 -74 228 -90 275 -15 47 -38
119 -50 160 -12 41 -25 86 -30 100 -10 28 -126 404 -142 460 -5 19 -19 62 -29
95 -22 66 -51 186 -47 191 10 9 75 13 87 5 8 -5 18 -37 22 -70 12 -84 41 -139
85 -157 29 -12 145 -14 754 -12 l720 3 32 33 c31 30 33 38 36 110 l4 77 398
-3 c265 -2 413 1 439 8 73 19 88 52 121 261 75 473 127 839 135 949 4 52 10
99 12 103 3 4 37 7 76 5 l72 -3 -3 -165z m922 -62 c8 -39 26 -217 36 -363 6
-77 20 -237 31 -355 24 -256 40 -436 70 -827 l23 -292 -22 -46 c-12 -25 -26
-45 -32 -45 -13 0 -13 1 6 46 22 51 21 166 -1 218 -9 21 -38 62 -64 90 l-48
51 -22 215 c-46 463 -71 665 -91 741 -22 83 -90 129 -188 129 -68 0 -105 -20
-156 -83 -31 -38 -31 -40 -31 -150 1 -62 6 -155 13 -207 6 -52 19 -189 27
-305 9 -115 20 -252 24 -304 8 -89 7 -97 -15 -139 -20 -37 -24 -60 -24 -125 0
-59 -3 -78 -11 -70 -15 15 -34 187 -53 493 -44 676 -67 1002 -76 1074 -5 43
-8 82 -5 86 2 4 28 1 57 -6 81 -22 222 -18 296 7 75 25 168 92 208 148 33 47
42 50 48 19z m-4143 -70 c-2 -34 -8 -56 -19 -64 -18 -13 -162 -75 -162 -70 0
2 24 22 54 45 31 23 69 64 88 95 18 30 35 52 37 50 3 -3 4 -28 2 -56z m209
-153 c13 -144 65 -556 86 -677 l7 -38 -50 0 c-28 0 -55 6 -61 13 -6 7 -15 117
-21 252 -6 132 -16 300 -22 372 -10 129 -10 134 12 178 13 25 26 42 30 38 4
-5 12 -66 19 -138z m-852 -85 c27 -16 56 -30 65 -30 9 0 19 -4 22 -10 4 -6
-10 -10 -34 -10 -28 0 -48 -7 -68 -24 l-28 -24 -1 -579 c0 -318 1 -602 4 -631
5 -57 30 -102 75 -136 24 -17 43 -21 111 -21 73 0 87 3 123 27 22 14 48 43 58
64 16 33 39 199 104 744 41 340 52 424 56 429 3 2 10 0 16 -6 10 -10 7 -67
-36 -693 -23 -331 -54 -731 -65 -840 -5 -52 -10 -104 -10 -115 0 -26 -17 -52
-27 -41 -4 4 -10 42 -13 85 -11 147 -75 211 -218 219 -65 4 -85 1 -125 -18
-91 -43 -136 -134 -123 -247 17 -145 127 -228 278 -210 l48 6 0 -58 c0 -58 0
-59 -32 -65 -17 -3 -120 -3 -230 1 l-198 6 0 56 c0 31 5 108 10 171 12 134 34
398 55 660 9 102 20 230 25 285 5 55 21 237 35 405 14 168 30 337 35 375 5 39
12 108 16 155 6 81 10 100 19 100 3 0 27 -13 53 -30z m320 -194 c10 -11 -20
-26 -54 -26 -39 0 -94 19 -94 32 0 12 136 6 148 -6z m4206 -89 c20 -14 30 -80
71 -432 14 -121 30 -251 35 -290 5 -38 9 -84 10 -101 l0 -32 -67 -4 c-38 -3
-70 -1 -74 4 -5 8 -37 351 -61 660 -14 180 -8 208 40 208 15 0 36 -6 46 -13z
m-4389 -68 c38 -17 62 -20 121 -17 57 3 74 0 74 -10 0 -7 -7 -64 -15 -125 -15
-108 -28 -208 -59 -442 -48 -367 -47 -359 -68 -377 -11 -10 -31 -18 -44 -18
-51 0 -52 7 -56 528 -2 265 -2 482 -2 482 1 0 23 -9 49 -21z m2083 -435 l252
-7 0 -27 c0 -65 54 -60 -675 -60 -518 0 -665 3 -673 13 -5 6 -13 32 -17 56
l-7 44 433 -7 c239 -3 548 -9 687 -12z m2389 -670 c-3 -3 -12 -4 -19 -1 -8 3
-5 6 6 6 11 1 17 -2 13 -5z m168 -64 c-16 -31 -68 -70 -94 -70 -8 0 5 14 28
30 23 17 49 47 59 67 11 22 18 30 20 20 2 -9 -4 -30 -13 -47z m-162 -181 l42
-1 -32 -10 c-35 -12 -83 -4 -83 13 0 6 7 8 16 5 9 -3 34 -6 57 -7z m-4443 -34
c22 -11 31 -24 35 -53 3 -20 8 -52 11 -70 10 -63 0 -72 -72 -72 -59 0 -68 3
-95 29 -33 34 -39 83 -14 131 26 51 78 64 135 35z m2180 -105 c89 -32 130 -89
130 -182 0 -84 -52 -167 -90 -143 -5 3 -10 27 -10 53 0 70 -17 119 -56 162
-47 52 -89 65 -209 64 -125 -1 -177 -15 -226 -62 -33 -31 -41 -47 -51 -98 -17
-91 -5 -147 42 -194 21 -21 56 -43 77 -49 21 -6 105 -11 188 -11 159 0 180
-10 58 -29 -89 -14 -247 -14 -373 -1 -113 12 -164 39 -222 115 -68 90 -87 198
-49 274 30 59 105 97 221 111 97 13 528 5 570 -10z m2549 -205 c3 -66 -14
-797 -29 -1185 -6 -135 -13 -337 -16 -450 -4 -113 -11 -208 -16 -211 -4 -3
-83 -5 -175 -4 l-168 0 -7 50 c-3 28 -11 122 -18 210 -6 88 -18 250 -26 359
-8 110 -21 297 -29 415 -8 119 -22 311 -30 426 -31 410 -32 430 -22 443 8 9
69 12 271 10 l261 -3 4 -60z m-2681 9 c20 -14 23 -23 20 -72 l-3 -57 -95 -3
c-110 -3 -127 0 -158 28 -29 27 -28 65 3 95 22 23 32 25 117 25 69 0 99 -4
116 -16z m-2160 -471 c-10 -2 -28 -2 -40 0 -13 2 -5 4 17 4 22 1 32 -1 23 -4z
m233 -238 c-6 -88 -18 -241 -26 -340 -8 -99 -21 -278 -30 -397 -8 -120 -19
-227 -23 -239 -7 -19 -9 -19 -22 -4 -11 14 -12 45 -1 198 14 208 25 329 45
542 8 83 20 200 25 260 6 61 17 135 23 165 l13 55 3 -40 c2 -22 -1 -112 -7
-200z m-461 180 c0 -21 63 -65 116 -81 55 -16 127 -18 154 -4 27 14 30 3 20
-80 -5 -41 -19 -205 -30 -365 -12 -159 -27 -346 -33 -415 l-12 -125 -55 -7
c-43 -6 -61 -15 -83 -39 -16 -17 -30 -29 -31 -27 -2 1 -9 120 -15 263 -11 235
-30 565 -48 814 -4 70 -3 92 5 87 7 -4 12 -13 12 -21z m215 -1275 c0 -28 -4
-35 -20 -35 -13 0 -21 8 -23 23 -5 34 5 54 25 50 13 -2 18 -13 18 -38z m4781
-204 c7 -18 -14 -200 -28 -250 -15 -49 -57 -76 -119 -76 -38 0 -50 5 -75 33
-17 17 -36 46 -42 62 -18 46 -53 225 -47 236 4 5 72 9 156 9 119 0 151 -3 155
-14z m-396 -264 c37 -127 120 -195 240 -196 148 -2 250 97 275 267 4 26 11 47
15 47 26 0 60 -178 60 -318 l0 -63 -302 5 c-167 3 -318 5 -337 5 l-34 1 6 148
c3 81 11 171 18 201 l13 54 12 -39 c7 -22 22 -72 34 -112z m-4720 80 c0 -5 -9
-17 -21 -28 -12 -10 -33 -41 -47 -69 -25 -46 -27 -60 -26 -165 0 -104 3 -121
27 -173 l28 -59 0 -276 c2 -378 1 -414 -11 -407 -5 3 -32 45 -61 93 l-51 87 0
436 c1 508 4 538 55 559 28 11 107 13 107 2z m691 -11 c24 -19 24 -23 30 -238
3 -120 4 -350 1 -511 -5 -279 -6 -294 -26 -316 -12 -13 -38 -51 -59 -85 -21
-34 -42 -61 -47 -61 -4 0 -6 136 -3 303 3 170 1 319 -4 342 -9 36 -6 47 31
120 39 77 41 84 41 175 0 111 -21 180 -72 240 -18 21 -33 41 -33 44 0 3 27 6
59 6 43 0 65 -5 82 -19z m-399 -113 c-9 -9 -15 -9 -24 0 -9 9 -7 12 12 12 19
0 21 -3 12 -12z m-177 -40 c68 -144 271 -143 329 2 9 22 21 40 26 40 6 0 23
-25 37 -56 33 -72 28 -141 -15 -217 -73 -130 -222 -170 -342 -91 -73 49 -110
124 -110 224 0 53 30 140 47 140 5 0 17 -19 28 -42z m4779 -457 c3 -5 -30 -53
-74 -108 -44 -54 -106 -132 -137 -173 -31 -41 -60 -79 -65 -85 -5 -5 -7 69 -6
175 l3 185 80 6 c136 9 194 9 199 0z m306 3 c0 -3 -6 -32 -14 -63 -8 -31 -17
-74 -21 -96 -5 -31 -19 -52 -59 -90 -28 -27 -78 -80 -110 -118 -33 -37 -61
-66 -63 -63 -2 2 3 26 11 52 8 27 27 96 42 154 48 184 42 177 154 213 55 18
60 19 60 11z m-408 -417 c-12 -34 -29 -96 -38 -137 -14 -61 -25 -86 -65 -136
-89 -112 -100 -110 -87 19 l9 89 60 69 c33 39 76 95 96 126 44 66 53 55 25
-30z"/>
<path d="M9814 8221 c-23 -10 -52 -34 -65 -52 l-24 -34 2 -440 c2 -242 8 -579
13 -750 10 -292 12 -312 32 -341 33 -48 68 -64 136 -64 64 0 108 21 145 71 18
25 19 58 30 732 12 790 12 793 -48 846 -60 52 -148 65 -221 32z m133 -406 c2
-154 -1 -471 -5 -705 l-7 -425 -22 -3 c-19 -3 -22 2 -27 50 -19 187 -35 1346
-19 1362 4 4 23 6 43 4 l35 -3 2 -280z"/>
<path d="M6821 7694 c-12 -15 -21 -35 -21 -45 0 -24 34 -59 58 -59 9 -1 256
-2 547 -4 292 -1 713 -9 938 -16 299 -10 414 -10 432 -2 52 24 68 89 27 111
-36 19 -860 41 -1549 41 l-412 0 -20 -26z"/>
<path d="M8390 7519 c-293 -11 -893 -28 -1366 -39 -501 -11 -580 -20 -688 -84
-158 -93 -231 -345 -149 -516 53 -108 169 -190 270 -190 20 0 33 -3 29 -7 -4
-5 -90 -10 -190 -13 -197 -5 -216 -11 -253 -66 -16 -24 -16 -43 0 -302 10
-153 26 -500 37 -772 39 -970 51 -1222 62 -1288 8 -45 13 -490 17 -1377 5
-1037 9 -1315 19 -1332 29 -51 46 -53 407 -53 369 0 380 2 410 60 14 26 15
175 13 1307 l-3 1278 -24 39 c-13 21 -39 44 -57 52 l-33 14 6 69 c8 98 -9 150
-69 217 l-49 53 28 7 c66 16 132 64 159 117 16 30 45 219 99 642 20 154 42
318 50 365 7 47 17 109 20 137 4 29 10 55 15 58 4 3 333 5 731 5 l724 1 5
-465 5 -465 29 -30 c84 -88 249 -55 283 55 8 27 12 175 12 487 1 280 5 447 11
447 18 0 84 65 117 117 49 77 69 162 53 233 -7 30 -21 69 -31 86 -19 31 -109
120 -144 141 -16 9 13 12 147 12 98 1 169 -3 173 -9 6 -10 -14 -346 -40 -655
-8 -99 -26 -317 -40 -485 -26 -319 -61 -688 -71 -752 -6 -37 -7 -38 -48 -38
-33 0 -45 5 -52 20 -20 43 -128 141 -188 169 -191 91 -375 78 -453 -32 -50
-69 -56 -109 -48 -321 4 -103 7 -697 8 -1320 1 -622 3 -1222 5 -1334 l3 -202
38 -40 38 -40 347 0 347 0 24 25 c31 30 32 55 2 83 -22 21 -31 22 -347 24
l-325 3 -3 1313 c-1 721 0 1312 3 1312 2 0 23 -20 46 -45 24 -26 70 -59 108
-78 60 -29 74 -32 156 -32 112 1 161 23 206 92 16 26 29 53 29 60 0 7 4 13 8
13 17 0 22 -215 22 -846 l0 -633 22 -21 c29 -27 54 -25 84 5 l24 25 -2 778
c-3 872 2 816 -76 850 l-37 16 45 9 c117 23 133 46 149 227 7 69 18 195 26
280 27 288 78 878 100 1155 8 105 19 245 24 313 11 132 6 159 -32 200 -46 50
-59 52 -334 53 -245 1 -255 1 -194 14 149 33 221 66 278 128 70 76 86 118 91
234 3 83 0 115 -17 171 -44 145 -155 261 -288 302 -72 22 -147 23 -513 9z
m513 -154 c93 -44 165 -164 174 -291 5 -65 3 -79 -21 -128 -42 -87 -116 -128
-159 -88 -41 38 -91 43 -507 52 -223 5 -497 13 -610 19 -113 6 -319 13 -458
17 -253 6 -254 6 -247 28 40 129 25 219 -51 313 -19 23 -34 44 -34 47 0 3 46
6 103 6 56 0 208 5 337 10 129 5 480 17 779 25 300 9 546 17 548 19 7 7 114
-14 146 -29z m-2440 -97 c-56 -59 -73 -97 -73 -164 0 -82 18 -130 66 -178 49
-49 91 -65 197 -73 42 -3 77 -9 77 -13 0 -21 -172 -26 -266 -9 -79 14 -115 39
-147 98 -51 93 -29 252 44 317 32 28 99 63 124 64 16 0 12 -8 -22 -42z m436
-48 c66 -50 83 -120 49 -196 -15 -33 -24 -23 -32 36 -7 55 -35 127 -66 170
-11 16 -20 31 -20 35 0 6 7 2 69 -45z m-175 -62 c31 -36 86 -172 74 -183 -6
-6 -198 12 -220 20 -47 18 -61 133 -21 177 50 57 111 52 167 -14z m616 -349
c179 -5 474 -14 655 -19 182 -5 359 -10 395 -11 l65 -2 -55 -7 c-30 -5 -129
-9 -220 -9 -91 -1 -372 -8 -625 -16 -553 -17 -705 -19 -705 -5 0 6 6 10 13 10
8 0 30 18 50 39 31 34 41 39 69 35 18 -2 179 -9 358 -15z m608 -206 c-42 -2
-114 -2 -160 0 -46 1 -11 3 77 3 88 0 125 -2 83 -3z m-1468 -83 c0 -11 12 -33
28 -50 45 -50 86 -53 610 -41 257 6 602 13 767 16 165 3 381 8 479 11 l179 6
-25 -33 c-57 -76 -72 -119 -72 -209 -1 -80 4 -99 42 -172 2 -5 -297 -8 -665
-8 -372 0 -686 -5 -708 -10 -23 -5 -51 -21 -67 -39 -29 -33 -38 -69 -63 -266
-38 -300 -46 -365 -61 -470 -8 -60 -22 -153 -29 -205 -8 -52 -19 -131 -25
-175 -20 -149 -16 -146 -187 -180 -177 -35 -246 -67 -315 -143 -55 -61 -79
-114 -85 -193 -3 -38 -9 -69 -13 -69 -4 0 -10 66 -14 148 -4 81 -11 203 -16
272 -9 122 -19 389 -40 1035 -6 176 -15 388 -20 470 -5 83 -11 186 -12 230
l-3 80 90 6 c201 12 225 11 225 -11z m2408 -142 c60 -28 102 -95 101 -157 l-1
-46 -19 57 c-31 87 -111 148 -195 148 -32 0 -118 -47 -141 -78 -11 -15 -24
-47 -28 -70 -8 -47 -25 -47 -25 0 0 68 60 140 137 165 49 16 115 9 171 -19z
m-90 -925 l-3 -428 -25 0 -25 0 -3 415 c-1 228 0 421 3 427 2 7 16 13 30 13
l25 0 -2 -427z m-291 -807 c-23 -24 -44 -42 -46 -40 -6 5 39 72 52 78 34 13
32 2 -6 -38z m287 -36 c35 -13 33 -31 -2 -24 -79 16 -175 -50 -187 -129 -4
-25 -4 -54 0 -66 4 -15 2 -21 -8 -21 -18 0 -27 21 -27 66 0 70 36 121 115 163
44 23 71 26 109 11z m-2135 -139 c49 -25 101 -85 101 -116 l0 -24 -52 34 c-86
57 -172 59 -247 5 -34 -25 -41 -27 -41 -13 0 34 45 98 80 115 46 23 112 23
159 -1z m2211 -200 c0 -19 -68 -51 -108 -51 -60 0 -60 17 0 25 29 4 64 13 78
21 31 16 30 16 30 5z m-2250 -11 c0 -5 -9 -10 -20 -10 -11 0 -20 5 -20 10 0 6
9 10 20 10 11 0 20 -4 20 -10z m75 -240 c-10 -11 -34 -30 -52 -41 -47 -29
-141 -23 -178 11 -37 35 -31 42 18 20 66 -30 136 -23 197 21 31 22 39 16 15
-11z m185 -1201 l0 -1209 -292 2 -293 3 -2 1195 -3 1195 32 -59 c40 -72 82
-101 170 -116 153 -27 300 47 354 176 8 19 19 32 24 29 6 -4 10 -445 10 -1216z"/>
<path d="M6509 6300 c-72 -38 -69 -9 -69 -762 0 -636 1 -675 19 -708 20 -38
76 -75 129 -85 48 -9 135 34 167 84 l25 36 1 668 c1 636 0 669 -18 705 -38 75
-169 107 -254 62z m122 -120 c18 -10 19 -28 19 -646 l0 -634 -26 -12 c-56 -26
-56 -35 -52 652 2 344 7 631 11 638 10 15 22 15 48 2z"/>
</g>
</svg>
