<?xml version="1.0" standalone="no"?>
<!DOCTYPE svg PUBLIC "-//W3C//DTD SVG 20010904//EN"
 "http://www.w3.org/TR/2001/REC-SVG-20010904/DTD/svg10.dtd">
<svg version="1.0" xmlns="http://www.w3.org/2000/svg"
 width="170.078740pt" height="170.078740pt" viewBox="0 0 170.078740 170.078740"
 preserveAspectRatio="xMidYMid meet">
<metadata>
Created by potrace 1.16, written by Peter Selinger 2001-2019
</metadata>
<g transform="translate(0.000000,170.078740) scale(0.018752,-0.018752)"
fill="#000000" stroke="none">
<path d="M4518 6479 l-3 -2004 -117 0 c-64 0 -120 -3 -124 -7 -4 -5 116 -7
267 -7 231 2 259 3 179 11 -52 5 -114 7 -137 6 -40 -3 -41 -2 -47 32 -3 19 -6
919 -6 1999 0 1080 -2 1966 -5 1969 -3 3 -6 -897 -7 -1999z"/>
<path d="M6925 8198 c-35 -27 -100 -129 -180 -282 -131 -249 -229 -526 -291
-823 l-27 -133 -41 35 c-268 231 -563 406 -878 519 -145 52 -214 64 -249 45
-43 -22 -48 -39 -49 -151 0 -269 80 -618 195 -848 239 -477 688 -761 1200
-762 125 0 149 3 225 27 108 35 126 35 235 1 83 -27 102 -29 250 -29 234 0
410 41 616 142 144 71 233 135 350 251 270 268 428 651 462 1121 9 133 9 162
-4 195 -29 76 -70 77 -299 7 -356 -109 -656 -274 -907 -501 -76 -68 -83 -72
-83 -49 0 55 -52 328 -86 452 -71 256 -175 509 -285 691 -39 65 -60 89 -85
100 -42 17 -36 18 -69 -8z m99 -345 c147 -294 247 -662 263 -965 l6 -127 -39
-53 c-37 -49 -78 -112 -249 -381 l-62 -98 -45 73 c-25 40 -71 118 -103 173
-32 55 -92 149 -133 210 l-75 109 7 96 c12 179 81 455 165 665 52 130 193 405
207 405 2 0 28 -48 58 -107z m-1499 -525 c309 -123 519 -255 773 -487 90 -83
92 -85 92 -130 0 -77 20 -221 41 -306 39 -151 107 -274 213 -382 l60 -63 -80
0 c-278 0 -593 123 -799 312 -148 136 -282 343 -345 535 -54 166 -99 403 -100
521 0 62 -13 62 145 0z m2915 -6 c-358 -278 -779 -667 -990 -914 -64 -75 -82
-90 -61 -49 21 39 61 207 67 284 l7 77 106 103 c205 198 403 331 641 432 65
28 251 95 260 94 3 0 -11 -12 -30 -27z m124 -154 c-37 -223 -75 -348 -154
-513 -67 -139 -146 -250 -251 -352 -100 -97 -127 -117 -220 -174 -170 -102
-366 -157 -589 -166 -93 -3 -141 -2 -135 4 6 5 38 31 71 56 34 25 158 147 275
269 251 262 471 474 659 638 145 125 328 270 341 270 5 0 6 -15 3 -32z m-1934
-740 c25 -45 76 -133 113 -196 38 -63 66 -117 62 -120 -15 -15 -109 98 -151
183 -43 89 -88 215 -75 215 3 0 26 -37 51 -82z m511 -225 c-34 -67 -57 -100
-65 -93 -3 3 9 28 26 55 17 28 37 60 45 73 27 44 23 21 -6 -35z"/>
<path d="M1858 8066 c-165 -272 -296 -633 -343 -941 -9 -60 -19 -121 -21 -134
-5 -22 -11 -18 -87 56 -218 210 -441 342 -780 462 -159 56 -357 98 -405 86
-34 -8 -50 -57 -63 -193 -19 -202 12 -460 83 -681 123 -386 395 -706 743 -876
194 -95 371 -135 597 -135 162 0 264 13 369 46 l77 24 74 -24 c192 -64 505
-62 731 5 338 100 620 326 821 657 57 94 63 108 47 98 -5 -4 -23 5 -40 19
l-30 26 -17 -28 c-127 -212 -297 -404 -438 -498 -227 -149 -460 -226 -685
-224 l-106 0 110 29 c288 73 529 190 715 345 122 102 267 283 336 417 40 78
41 88 14 88 -11 0 -23 7 -27 15 -5 14 -8 14 -24 -1 -10 -9 -31 -38 -45 -63
-88 -151 -285 -368 -419 -460 -80 -56 -238 -137 -341 -176 -150 -57 -504 -131
-469 -98 6 5 46 39 90 76 113 94 198 195 387 460 190 267 309 409 502 603 184
183 348 316 474 385 34 18 62 37 62 41 0 4 14 23 30 41 35 40 36 48 12 70 -24
22 -53 21 -175 -4 -253 -51 -561 -179 -777 -322 -149 -99 -350 -285 -350 -324
-6 -316 -8 -339 -33 -430 -51 -181 -138 -365 -205 -436 -52 -55 -185 -157
-206 -157 -17 0 -91 150 -215 437 -38 90 -111 244 -162 344 l-92 181 7 76 c17
191 77 447 150 636 54 138 171 380 225 464 23 34 41 65 41 68 0 7 -38 40 -60
53 -12 7 -29 -15 -82 -103z m-1287 -642 c200 -64 409 -168 582 -291 45 -32
137 -112 204 -177 l123 -119 0 -98 c0 -110 27 -268 64 -375 13 -38 27 -78 31
-89 10 -31 -40 28 -205 241 -279 358 -548 641 -801 843 -53 42 -104 81 -115
88 -33 20 -1 14 117 -23z m2935 13 c-291 -220 -620 -570 -853 -907 -121 -174
-146 -210 -149 -207 -1 1 8 34 21 72 45 132 68 271 68 409 l1 128 54 52 c122
116 331 254 519 343 79 38 342 133 363 132 3 0 -8 -10 -24 -22z m-3079 -94
c129 -95 271 -222 433 -389 174 -178 294 -319 486 -569 177 -232 323 -382 454
-465 l35 -22 -80 7 c-272 22 -609 145 -828 303 -102 74 -259 236 -330 344
-140 210 -227 474 -253 771 -3 42 -4 77 0 77 3 0 41 -26 83 -57z m-167 -118
c31 -277 131 -547 275 -750 247 -347 573 -543 1085 -655 34 -7 10 -8 -105 -6
-176 5 -290 30 -445 99 -194 87 -391 246 -526 426 -123 165 -234 423 -269 628
-15 88 -35 282 -35 337 0 54 8 22 20 -79z m1381 -692 c79 -165 249 -546 245
-550 -2 -2 -30 25 -63 60 -97 104 -190 311 -227 507 -18 93 -18 90 -11 90 2 0
28 -48 56 -107z"/>
<path d="M3750 7301 c0 -12 5 -21 10 -21 6 0 10 6 10 14 0 8 -4 18 -10 21 -5
3 -10 -3 -10 -14z"/>
<path d="M3731 7154 c0 -11 3 -14 6 -6 3 7 2 16 -1 19 -3 4 -6 -2 -5 -13z"/>
<path d="M2471 6834 c0 -11 3 -14 6 -6 3 7 2 16 -1 19 -3 4 -6 -2 -5 -13z"/>
<path d="M0 4470 c0 -7 712 -10 2118 -9 1164 1 2097 5 2072 10 -68 12 -4190
11 -4190 -1z"/>
<path d="M4870 4470 c-14 -4 926 -8 2088 -9 1389 -1 2112 2 2112 9 0 12 -4162
12 -4200 0z"/>
<path d="M4522 2226 c-1 -1226 0 -2227 3 -2225 7 8 11 3045 5 3784 -4 393 -7
-252 -8 -1559z"/>
<path d="M7028 3380 c-35 -21 -182 -304 -255 -494 -84 -219 -131 -391 -158
-587 -10 -68 -19 -125 -20 -127 -2 -2 -47 31 -100 73 -206 160 -421 276 -714
384 -125 46 -325 99 -410 107 -115 13 -135 -7 -133 -131 7 -281 131 -692 285
-940 57 -93 175 -230 254 -297 122 -103 294 -204 411 -243 29 -9 51 -19 48
-22 -5 -5 -119 26 -189 53 -44 17 -49 17 -75 2 -40 -24 -58 -61 -47 -94 15
-41 51 -62 161 -94 198 -59 243 -65 464 -65 194 0 211 2 310 28 57 16 128 40
158 54 36 17 57 22 65 15 22 -18 185 -71 267 -86 209 -40 620 2 665 68 19 26
19 77 0 102 -18 24 -19 34 -2 34 24 0 198 89 283 145 104 68 227 184 311 295
181 239 343 733 343 1048 0 137 -21 150 -188 116 -428 -88 -825 -267 -1136
-512 l-81 -63 -12 93 c-41 301 -140 613 -296 926 -102 204 -146 248 -209 212z
m104 -377 c126 -266 206 -525 242 -791 24 -167 22 -218 -9 -254 -62 -73 -204
-343 -266 -505 -13 -35 -26 -63 -29 -63 -3 0 -27 53 -54 118 -63 153 -153 325
-221 424 l-55 80 10 107 c28 294 111 583 260 898 27 57 53 103 58 103 5 0 34
-53 64 -117z m-1437 -515 c132 -43 357 -148 493 -229 98 -59 225 -152 323
-237 l66 -57 6 -130 c3 -86 12 -153 25 -200 11 -38 19 -71 18 -73 -2 -1 -66
66 -143 151 -267 291 -524 517 -858 751 -121 85 -119 86 70 24z m2960 44 c-6
-5 -70 -51 -143 -102 -255 -177 -566 -444 -826 -707 -99 -101 -181 -181 -183
-179 -2 2 5 39 16 82 22 87 41 223 41 295 0 45 1 46 83 111 272 216 591 385
902 477 111 32 124 35 110 23z m85 -264 c-88 -346 -183 -538 -358 -720 -220
-229 -515 -349 -919 -374 l-108 -7 50 43 c28 24 110 107 184 184 314 330 556
553 845 779 153 120 330 240 334 227 2 -5 -11 -64 -28 -132z m-3169 34 c318
-228 577 -462 879 -797 158 -175 251 -271 300 -309 l35 -28 -85 6 c-127 9
-253 33 -366 71 -333 111 -587 323 -732 611 -69 137 -199 544 -173 544 3 0 67
-44 142 -98z m1286 -826 c24 -63 29 -87 14 -70 -13 14 -81 179 -81 195 1 18
37 -50 67 -125z m448 25 c-13 -39 -44 -101 -45 -91 0 6 40 111 46 122 12 20
12 4 -1 -31z"/>
<path d="M1988 3358 c-48 -38 -187 -313 -262 -520 -70 -194 -146 -528 -146
-644 0 -22 -3 -43 -6 -47 -3 -3 -38 20 -77 52 -199 160 -437 294 -739 415
-117 47 -361 116 -409 116 -15 0 -37 -9 -50 -19 -23 -19 -24 -24 -21 -133 5
-163 26 -312 71 -484 47 -177 72 -246 134 -369 176 -352 527 -596 962 -670 55
-9 102 -19 105 -22 9 -10 -224 6 -316 22 -49 9 -140 32 -202 52 -68 22 -116
33 -122 27 -5 -5 -18 -32 -29 -61 l-20 -52 52 -19 c111 -42 236 -73 364 -92
91 -13 329 -13 410 0 86 14 229 56 290 86 l52 25 38 -19 c65 -33 185 -71 277
-87 112 -19 341 -20 466 0 155 23 380 92 380 116 0 6 -10 33 -21 60 -17 38
-26 49 -38 44 -56 -22 -225 -67 -299 -80 -97 -17 -343 -30 -302 -16 14 5 40 9
57 10 59 2 337 79 428 118 225 98 395 229 530 408 157 208 279 608 301 987 7
116 7 116 -19 142 -14 14 -34 26 -43 26 -41 0 -260 -56 -388 -99 -335 -114
-592 -247 -823 -427 l-81 -64 -7 52 c-33 264 -97 524 -181 738 -55 138 -176
374 -212 413 -28 30 -76 36 -104 15z m175 -503 c84 -210 146 -454 166 -659 20
-197 20 -196 -54 -305 -68 -103 -168 -292 -212 -404 -14 -37 -30 -64 -33 -60
-4 4 -29 57 -56 117 -52 119 -148 291 -214 386 l-43 60 7 98 c22 325 99 612
243 912 l65 135 45 -90 c25 -49 64 -135 86 -190z m1366 -349 c-2 -2 -24 -16
-49 -31 -82 -52 -284 -202 -375 -280 -231 -197 -431 -403 -615 -632 -33 -41
-60 -72 -60 -70 0 2 14 56 30 118 22 79 33 149 37 228 7 129 0 116 123 210
259 197 446 299 765 417 120 44 162 56 144 40z m-2812 -42 c275 -107 528 -258
775 -463 l68 -56 0 -61 c0 -81 25 -220 54 -308 14 -39 23 -72 21 -74 -1 -2
-58 64 -125 145 -255 309 -483 531 -755 735 -88 67 -162 122 -164 124 -11 10
16 1 126 -42z m2957 -86 c-31 -184 -94 -414 -143 -523 -70 -154 -228 -341
-366 -435 -186 -126 -434 -212 -690 -240 -49 -5 -108 -10 -130 -10 l-40 0 40
32 c85 70 144 130 308 318 271 310 481 507 754 712 124 93 249 176 265 177 4
1 5 -14 2 -31z m-3115 -47 c262 -187 595 -501 822 -776 151 -182 242 -279 316
-336 30 -24 50 -45 44 -47 -6 -2 -58 1 -115 7 -351 35 -609 151 -826 371 -112
113 -172 207 -230 363 -65 172 -139 487 -115 487 4 0 51 -31 104 -69z m1221
-732 c40 -78 128 -289 121 -289 -12 0 -151 300 -151 325 0 15 12 0 30 -36z
m519 7 c-19 -69 -127 -307 -129 -284 -1 18 126 318 135 318 2 0 -1 -15 -6 -34z"/>
</g>
</svg>
