<?xml version="1.0" standalone="no"?>
<!DOCTYPE svg PUBLIC "-//W3C//DTD SVG 20010904//EN"
 "http://www.w3.org/TR/2001/REC-SVG-20010904/DTD/svg10.dtd">
<svg version="1.0" xmlns="http://www.w3.org/2000/svg"
 width="800.000000pt" height="800.000000pt" viewBox="0 0 800.000000 800.000000"
 preserveAspectRatio="xMidYMid meet">
<metadata>
Created by potrace 1.16, written by Peter Selinger 2001-2019
</metadata>
<g transform="translate(0.000000,800.000000) scale(0.100000,-0.100000)"
fill="#000000" stroke="none">
<path d="M7450 7897 c-108 -66 -726 -470 -772 -504 -28 -20 -54 -50 -64 -73
l-18 -40 -124 0 c-121 0 -125 1 -161 28 -79 63 -619 435 -660 456 -28 15 -34
15 -70 0 -38 -15 -41 -15 -71 8 -64 47 -154 22 -192 -53 -22 -42 -23 -177 -4
-784 10 -355 14 -414 30 -443 18 -35 69 -72 98 -72 25 0 16 -19 -112 -230
-178 -291 -553 -918 -594 -992 -21 -37 -41 -70 -44 -72 -8 -5 -325 -13 -1022
-26 -1997 -37 -1879 -34 -1990 -60 -554 -133 -1008 -355 -1362 -663 -84 -74
-222 -227 -286 -316 l-32 -44 0 -146 c1 -123 3 -142 13 -123 10 17 59 38 227
96 118 41 339 119 491 173 l276 99 -91 -101 c-329 -361 -659 -834 -862 -1237
l-54 -107 2 -232 3 -232 24 59 c13 32 65 145 116 249 395 818 1005 1574 1518
1883 49 29 90 52 92 50 2 -2 -34 -64 -79 -138 -46 -74 -197 -326 -336 -560
-291 -489 -281 -473 -512 -855 -96 -159 -321 -536 -501 -837 l-327 -546 0
-146 c0 -112 3 -144 13 -141 6 2 187 16 402 30 648 43 958 64 1003 71 27 3 55
16 76 35 l34 29 6 -32 c9 -46 50 -101 94 -126 62 -35 237 -59 567 -78 l120 -7
-55 -13 c-36 -8 -62 -21 -77 -38 l-22 -26 -16 24 c-18 27 -81 56 -120 56 -14
0 -139 -51 -278 -113 -372 -168 -449 -197 -617 -236 -325 -76 -641 -26 -1012
160 l-118 59 0 -157 0 -158 93 -42 c183 -83 357 -136 537 -163 119 -18 329
-14 460 9 261 45 447 112 815 290 202 98 255 136 255 181 0 28 13 31 46 9 37
-24 139 -25 744 -4 239 8 590 19 780 25 190 6 374 15 410 20 83 12 110 38 110
110 l0 48 -138 91 c-75 49 -213 140 -307 201 l-170 111 -155 -6 c-85 -3 -247
-10 -360 -15 -113 -5 -365 -14 -560 -20 -195 -6 -438 -15 -539 -20 -101 -6
-186 -9 -188 -6 -4 4 146 171 552 616 138 151 307 338 377 416 l127 142 108
-24 c319 -70 1161 -247 1688 -354 215 -44 399 -82 411 -85 19 -4 20 -10 16
-122 -4 -105 -7 -121 -28 -146 -46 -55 -45 -155 3 -216 39 -50 143 -99 598
-286 615 -252 675 -277 675 -287 0 -4 -11 -26 -25 -48 -52 -83 -53 -166 -1
-254 32 -54 68 -81 127 -95 45 -11 419 -50 904 -96 149 -14 325 -32 392 -40
146 -18 184 -19 218 -3 25 11 25 13 25 124 0 104 -2 114 -20 124 -11 6 -244
33 -518 60 -273 28 -582 59 -687 70 -104 11 -206 20 -226 20 -20 0 -39 3 -42
6 -4 4 6 23 22 43 16 20 116 160 223 311 169 239 315 444 536 753 31 42 59 74
63 70 7 -8 285 -532 499 -943 68 -129 129 -244 136 -255 12 -17 14 22 14 264
l0 284 -89 166 c-48 91 -144 274 -212 405 -127 245 -167 302 -216 308 -25 3
-29 8 -33 44 -7 47 -30 87 -64 109 -56 37 -72 35 -634 -85 -156 -33 -288 -60
-294 -60 -7 0 -9 20 -5 57 8 78 174 1400 187 1489 9 56 8 82 -4 127 l-15 57
141 232 c77 128 142 234 143 236 2 2 18 -4 36 -14 67 -34 142 -15 177 45 l16
28 47 -33 c25 -19 51 -34 57 -34 6 0 82 69 168 153 l157 153 -22 349 c-12 193
-28 424 -36 515 -8 91 -21 273 -30 405 -21 316 -21 317 -215 467 -27 20 -32
29 -23 38 9 10 16 9 34 -4 50 -35 142 -8 172 51 26 49 317 938 317 967 0 62
-63 136 -116 136 -10 0 -28 9 -40 21 -12 11 -39 23 -61 26 -31 4 -48 -2 -93
-30z m-94 -601 l-134 -399 -58 54 c-33 29 -60 55 -62 55 -2 1 43 83 101 181
133 228 207 361 248 445 18 37 34 66 35 65 2 -1 -57 -182 -130 -401z m-1398
76 c78 -57 142 -107 142 -109 0 -3 -31 -42 -68 -87 -38 -44 -105 -127 -149
-182 l-79 -102 -33 137 c-18 75 -57 234 -87 354 -30 120 -54 220 -54 222 0 6
104 -68 328 -233z m1390 216 c-31 -49 -90 -151 -196 -335 l-109 -192 -79 66
c-44 35 -94 79 -111 96 l-33 31 247 163 c136 90 254 170 262 178 23 23 35 18
19 -7z m-1688 -457 l77 -314 -76 -99 -76 -99 -6 93 c-3 51 -9 257 -12 458 -4
277 -3 354 6 320 6 -25 45 -186 87 -359z m957 45 c18 -35 68 -82 262 -241 133
-108 241 -199 241 -201 0 -2 -11 -2 -24 2 -62 15 -159 -52 -194 -134 -34 -81
-46 -151 -33 -200 14 -51 67 -113 118 -137 86 -41 217 6 261 95 l20 41 6 -48
c7 -58 52 -619 61 -758 3 -55 8 -120 11 -145 5 -43 4 -44 -11 -25 -9 11 -106
198 -215 415 -235 465 -531 1039 -636 1232 -41 75 -74 139 -74 142 0 3 42 6
93 6 l93 0 21 -44z m-117 -296 c89 -168 188 -352 220 -410 57 -104 219 -420
215 -420 -1 0 -56 79 -121 177 -149 221 -183 257 -257 273 -80 18 -249 9 -307
-17 -168 -74 -203 -294 -62 -384 79 -50 145 -51 221 -1 49 32 97 116 86 154
l-6 23 20 -23 c11 -12 63 -91 116 -175 53 -83 203 -318 332 -522 130 -203 238
-378 240 -387 4 -14 -1 -18 -18 -18 -12 0 -32 -9 -44 -20 l-21 -19 -134 92
c-74 51 -245 164 -380 251 -135 88 -336 220 -447 293 -111 73 -213 138 -225
144 -20 9 -49 44 -135 163 l-22 31 24 187 c31 236 42 305 52 321 4 6 93 120
198 252 104 132 210 266 234 298 24 32 48 54 52 50 4 -4 80 -145 169 -313z
m710 -241 c32 -17 70 -44 86 -60 l28 -29 -22 -23 c-12 -13 -22 -30 -23 -38 0
-8 -9 6 -20 29 -40 91 -84 127 -174 143 -39 6 -39 7 14 8 42 1 65 -6 111 -30z
m-1546 -286 c-7 -32 -14 -67 -16 -78 -3 -15 -12 -6 -41 40 -20 33 -37 62 -37
66 0 3 21 10 48 16 26 6 50 11 53 12 4 0 1 -25 -7 -56z m-94 -112 c22 -34 38
-66 35 -71 -8 -13 -75 -420 -75 -455 1 -39 31 -104 61 -132 13 -11 287 -206
609 -433 322 -227 592 -419 600 -426 13 -13 13 -17 0 -37 -8 -12 -67 -112
-132 -222 -64 -110 -121 -206 -125 -213 -6 -11 -138 52 -553 263 -300 152
-688 347 -863 433 -174 86 -316 162 -315 168 4 14 712 1193 715 1190 2 -1 21
-30 43 -65z m286 -392 c55 -70 145 -184 202 -253 l103 -127 -107 78 c-59 43
-155 112 -213 154 l-106 75 2 60 c3 66 13 148 18 142 1 -1 47 -60 101 -129z
m514 -329 c162 -106 387 -255 500 -330 l205 -137 -3 -80 c-3 -52 1 -97 12
-132 l15 -52 -37 30 c-40 34 -629 466 -674 495 -15 10 -42 37 -60 61 -18 23
-69 85 -113 137 -151 179 -221 275 -162 221 12 -11 155 -107 317 -213z m930
-411 c20 -17 21 -20 5 -14 -11 4 -38 10 -60 13 -36 5 -38 6 -15 13 38 11 43
10 70 -12z m-2454 -136 l81 -38 164 -243 c90 -134 201 -297 247 -362 45 -66
82 -122 82 -125 0 -3 -7 -5 -15 -5 -28 0 -66 -32 -87 -74 -22 -42 -23 -55 -93
-786 -14 -146 -35 -353 -45 -460 -11 -107 -27 -271 -35 -364 -9 -94 -18 -173
-21 -177 -2 -4 -12 -5 -22 -3 -143 31 -490 104 -664 138 -195 39 -829 172
-1337 281 -91 20 -167 37 -169 40 -3 3 7 31 21 62 32 71 73 213 87 296 15 95
12 294 -6 383 -33 161 -103 294 -204 388 -94 86 -205 130 -382 151 l-58 6 0
53 c0 182 -87 343 -222 412 -71 36 -173 44 -252 19 -54 -17 -57 -17 -76 0 -13
11 -41 20 -75 23 -45 4 -65 -1 -118 -26 -71 -33 -222 -126 -332 -203 -59 -42
-105 -62 -300 -128 -126 -43 -385 -135 -575 -203 -190 -69 -347 -123 -349
-122 -8 7 180 236 254 309 319 317 719 532 1301 698 l159 46 830 17 c457 9
970 20 1140 23 171 4 463 9 650 10 l340 1 81 -37z m2484 -108 c0 -5 -152 -85
-161 -85 -12 0 -39 121 -39 175 l0 55 100 -71 c55 -39 100 -72 100 -74z
m-1920 -174 c157 -79 330 -167 385 -196 55 -29 247 -127 428 -219 234 -120
327 -172 327 -184 0 -9 -5 -35 -10 -57 -9 -42 -61 -444 -130 -1010 -23 -187
-49 -396 -58 -465 l-17 -125 -135 -27 c-74 -15 -280 -57 -458 -94 -177 -37
-324 -65 -326 -63 -1 2 1 45 5 94 5 50 20 221 34 380 14 160 39 432 55 605 53
564 60 650 60 706 0 67 -28 127 -69 149 -28 14 -29 17 -19 49 11 34 8 39 -106
213 -64 98 -150 227 -192 286 -41 60 -71 107 -67 105 5 -1 136 -68 293 -147z
m1855 59 c-30 -31 -45 -38 -45 -20 0 9 57 50 69 50 3 0 -8 -13 -24 -30z
m-5208 -413 c67 -46 98 -124 91 -235 l-3 -53 -81 -32 c-107 -43 -213 -111
-306 -194 -70 -63 -108 -103 -226 -238 l-43 -50 34 55 c200 326 417 722 417
763 0 17 5 19 43 13 23 -4 56 -17 74 -29z m397 -502 c89 -19 144 -46 206 -102
86 -77 149 -240 150 -385 l0 -58 -34 0 c-47 0 -65 -25 -314 -440 -193 -323
-495 -815 -505 -825 -12 -12 -24 -42 123 310 334 798 420 1044 420 1198 0 106
-71 225 -153 258 -42 16 -40 14 -27 38 13 25 39 26 134 6z m-530 -177 c-32
-54 -1060 -1253 -1215 -1418 -44 -47 -54 -54 -33 -25 133 191 622 765 1125
1319 117 129 140 152 123 124z m330 -51 c42 -57 28 -220 -38 -438 -19 -63 -91
-251 -159 -419 -335 -823 -516 -1261 -523 -1269 -2 -2 -18 9 -36 24 l-32 27
-284 -7 c-156 -4 -402 -12 -548 -19 -145 -6 -264 -9 -264 -5 0 3 16 21 36 40
52 50 389 411 540 579 391 436 1095 1271 1207 1433 34 48 66 86 71 84 5 -2 19
-15 30 -30z m454 -734 c-20 -48 -43 -81 -93 -138 -30 -34 -25 -22 20 50 18 28
44 69 59 93 14 23 28 42 31 42 2 0 -5 -21 -17 -47z m4476 -545 c-4 -7 -67 -96
-140 -198 -197 -277 -523 -741 -533 -758 -7 -12 -48 5 -235 102 -258 132 -437
231 -646 356 -80 48 -165 98 -190 110 -44 23 -44 23 -20 31 33 12 336 76 1010
214 305 62 593 123 640 133 104 25 124 26 114 10z m-1679 -506 c54 -34 96 -62
92 -62 -4 0 -53 21 -109 46 -57 25 -129 57 -160 71 -32 14 -58 29 -58 33 0 4
10 11 22 17 25 11 24 11 213 -105z m-1678 -486 c120 -79 229 -149 241 -155 13
-7 21 -15 18 -18 -3 -3 -79 2 -168 11 -90 9 -278 27 -418 41 -140 14 -381 41
-535 60 -250 31 -782 93 -1095 128 l-115 13 130 7 c72 4 337 14 590 22 253 9
557 19 675 24 118 4 270 9 337 9 l123 2 217 -144z"/>
</g>
</svg>
