999
"DXF R12 Output" (www.mydxf.blogspot.com)
 0 
SECTION
 2 
HEADER
 9 
$ACADVER
 1 
AC1009
 9 
$EXTMIN
 10 
 0 
 20 
 0 
 9 
$EXTMAX
 10 
 8.5 
 20 
 11 
 0 
ENDSEC
 0 
SECTION
 2 
ENTITIES
0
LINE
8
Layer 1
10
15.003500
20
51.420600
11
45.036900
21
51.420600
0
LINE
8
Layer 1
10
45.036900
20
51.420600
11
48.490495
21
51.425458
0
LINE
8
Layer 1
10
48.490495
20
51.425458
11
48.531859
21
51.426600
0
LINE
8
Layer 1
10
48.531859
20
51.426600
11
48.259836
21
51.427693
0
LINE
8
Layer 1
10
48.259836
20
51.427693
11
46.806484
21
51.429696
0
LINE
8
Layer 1
10
46.806484
20
51.429696
11
30.000300
21
51.433831
0
LINE
8
Layer 1
10
30.000300
20
51.433831
11
13.206538
21
51.429696
0
LINE
8
Layer 1
10
13.206538
20
51.429696
11
11.759194
21
51.427693
0
LINE
8
Layer 1
10
11.759194
20
51.427693
11
11.490450
21
51.426600
0
LINE
8
Layer 1
10
11.490450
20
51.426600
11
11.535239
21
51.425458
0
LINE
8
Layer 1
10
11.535239
20
51.425458
11
15.003400
21
51.420600
0
LINE
8
Layer 1
10
15.003400
20
51.420600
11
15.003500
21
51.420600
0
LINE
8
Layer 1
10
18.469900
20
47.219800
11
17.395742
21
46.947746
0
LINE
8
Layer 1
10
17.395742
20
46.947746
11
16.425780
21
46.531810
0
LINE
8
Layer 1
10
16.425780
20
46.531810
11
15.186238
21
45.550266
0
LINE
8
Layer 1
10
15.186238
20
45.550266
11
13.991350
21
43.918770
0
LINE
8
Layer 1
10
13.991350
20
43.918770
11
12.918846
21
42.378234
0
LINE
8
Layer 1
10
12.918846
20
42.378234
11
11.444460
21
40.783120
0
LINE
8
Layer 1
10
11.444460
20
40.783120
11
10.094940
21
39.307910
0
LINE
8
Layer 1
10
10.094940
20
39.307910
11
10.121401
21
38.778687
0
LINE
8
Layer 1
10
10.121401
20
38.778687
11
10.364616
21
38.106511
0
LINE
8
Layer 1
10
10.364616
20
38.106511
11
10.782103
21
37.454801
0
LINE
8
Layer 1
10
10.782103
20
37.454801
11
11.322387
21
36.891156
0
LINE
8
Layer 1
10
11.322387
20
36.891156
11
11.933991
21
36.483177
0
LINE
8
Layer 1
10
11.933991
20
36.483177
11
12.804730
21
36.145797
0
LINE
8
Layer 1
10
12.804730
20
36.145797
11
13.799501
21
36.006876
0
LINE
8
Layer 1
10
13.799501
20
36.006876
11
15.400505
21
36.073339
0
LINE
8
Layer 1
10
15.400505
20
36.073339
11
17.091435
21
36.429428
0
LINE
8
Layer 1
10
17.091435
20
36.429428
11
18.758798
21
37.042273
0
LINE
8
Layer 1
10
18.758798
20
37.042273
11
20.289101
21
37.879006
0
LINE
8
Layer 1
10
20.289101
20
37.879006
11
21.135858
21
38.580227
0
LINE
8
Layer 1
10
21.135858
20
38.580227
11
21.823021
21
39.701518
0
LINE
8
Layer 1
10
21.823021
20
39.701518
11
22.366298
21
41.180037
0
LINE
8
Layer 1
10
22.366298
20
41.180037
11
22.564757
21
42.369856
0
LINE
8
Layer 1
10
22.564757
20
42.369856
11
22.505219
21
43.380444
0
LINE
8
Layer 1
10
22.505219
20
43.380444
11
22.187685
21
44.213661
0
LINE
8
Layer 1
10
22.187685
20
44.213661
11
21.612155
21
44.871367
0
LINE
8
Layer 1
10
21.612155
20
44.871367
11
20.837339
21
45.337435
0
LINE
8
Layer 1
10
20.837339
20
45.337435
11
20.002984
21
45.558530
0
LINE
8
Layer 1
10
20.002984
20
45.558530
11
19.185995
21
45.525351
0
LINE
8
Layer 1
10
19.185995
20
45.525351
11
18.463275
21
45.228593
0
LINE
8
Layer 1
10
18.463275
20
45.228593
11
18.033281
21
44.719216
0
LINE
8
Layer 1
10
18.033281
20
44.719216
11
17.841438
21
43.898920
0
LINE
8
Layer 1
10
17.841438
20
43.898920
11
17.986974
21
43.065393
0
LINE
8
Layer 1
10
17.986974
20
43.065393
11
19.753254
21
40.035593
0
LINE
8
Layer 1
10
19.753254
20
40.035593
11
20.474321
21
38.831613
0
LINE
8
Layer 1
10
20.474321
20
38.831613
11
19.925252
21
38.428080
0
LINE
8
Layer 1
10
19.925252
20
38.428080
11
17.896015
21
37.391962
0
LINE
8
Layer 1
10
17.896015
20
37.391962
11
15.717932
21
36.747800
0
LINE
8
Layer 1
10
15.717932
20
36.747800
11
14.369238
21
36.641955
0
LINE
8
Layer 1
10
14.369238
20
36.641955
11
13.184272
21
36.714724
0
LINE
8
Layer 1
10
13.184272
20
36.714724
11
12.418137
21
36.979025
0
LINE
8
Layer 1
10
12.418137
20
36.979025
11
11.748752
21
37.410154
0
LINE
8
Layer 1
10
11.748752
20
37.410154
11
11.238135
21
37.956639
0
LINE
8
Layer 1
10
11.238135
20
37.956639
11
10.948302
21
38.567004
0
LINE
8
Layer 1
10
10.948302
20
38.567004
11
11.024378
21
38.805981
0
LINE
8
Layer 1
10
11.024378
20
38.805981
11
11.556909
21
39.307916
0
LINE
8
Layer 1
10
11.556909
20
39.307916
11
13.386865
21
41.122162
0
LINE
8
Layer 1
10
13.386865
20
41.122162
11
14.884399
21
43.164626
0
LINE
8
Layer 1
10
14.884399
20
43.164626
11
16.010653
21
44.739064
0
LINE
8
Layer 1
10
16.010653
20
44.739064
11
17.007909
21
45.559356
0
LINE
8
Layer 1
10
17.007909
20
45.559356
11
17.819730
21
45.909346
0
LINE
8
Layer 1
10
17.819730
20
45.909346
11
18.784115
21
46.116694
0
LINE
8
Layer 1
10
18.784115
20
46.116694
11
19.793153
21
46.167755
0
LINE
8
Layer 1
10
19.793153
20
46.167755
11
20.738929
21
46.048887
0
LINE
8
Layer 1
10
20.738929
20
46.048887
11
21.824665
21
45.656930
0
LINE
8
Layer 1
10
21.824665
20
45.656930
11
22.776439
21
45.076439
0
LINE
8
Layer 1
10
22.776439
20
45.076439
11
23.829098
21
43.948530
0
LINE
8
Layer 1
10
23.829098
20
43.948530
11
26.196539
21
40.875729
0
LINE
8
Layer 1
10
26.196539
20
40.875729
11
28.273739
21
38.170079
0
LINE
8
Layer 1
10
28.273739
20
38.170079
11
28.376690
21
38.051313
0
LINE
8
Layer 1
10
28.376690
20
38.051313
11
28.189395
21
37.969139
0
LINE
8
Layer 1
10
28.189395
20
37.969139
11
26.170079
21
37.773162
0
LINE
8
Layer 1
10
26.170079
20
37.773162
11
23.375122
21
37.435782
0
LINE
8
Layer 1
10
23.375122
20
37.435782
11
22.610849
21
37.211275
0
LINE
8
Layer 1
10
22.610849
20
37.211275
11
22.028909
21
36.899944
0
LINE
8
Layer 1
10
22.028909
20
36.899944
11
21.461648
21
36.369894
0
LINE
8
Layer 1
10
21.461648
20
36.369894
11
21.122614
21
35.656274
0
LINE
8
Layer 1
10
21.122614
20
35.656274
11
21.045505
21
34.899650
0
LINE
8
Layer 1
10
21.045505
20
34.899650
11
21.180498
21
33.463307
0
LINE
8
Layer 1
10
21.180498
20
33.463307
11
22.319984
21
26.824864
0
LINE
8
Layer 1
10
22.319984
20
26.824864
11
23.047666
21
22.756464
0
LINE
8
Layer 1
10
23.047666
20
22.756464
11
24.708106
21
14.063974
0
LINE
8
Layer 1
10
24.708106
20
14.063974
11
24.528667
21
13.741478
0
LINE
8
Layer 1
10
24.528667
20
13.741478
11
24.106115
21
13.409060
0
LINE
8
Layer 1
10
24.106115
20
13.409060
11
23.285819
21
13.144448
0
LINE
8
Layer 1
10
23.285819
20
13.144448
11
21.803170
21
12.530879
0
LINE
8
Layer 1
10
21.803170
20
12.530879
11
21.396434
21
12.128588
0
LINE
8
Layer 1
10
21.396434
20
12.128588
11
21.168929
21
11.629548
0
LINE
8
Layer 1
10
21.168929
20
11.629548
11
21.080450
21
11.428608
0
LINE
8
Layer 1
10
21.080450
20
11.428608
11
20.917548
21
11.411243
0
LINE
8
Layer 1
10
20.917548
20
11.411243
11
15.803928
21
11.841237
0
LINE
8
Layer 1
10
15.803928
20
11.841237
11
11.900908
21
11.914005
0
LINE
8
Layer 1
10
11.900908
20
11.914005
11
5.920688
21
11.682470
0
LINE
8
Layer 1
10
5.920688
20
11.682470
11
0.383688
21
11.199554
0
LINE
8
Layer 1
10
0.383688
20
11.199554
11
0.000001
21
11.159862
0
LINE
8
Layer 1
10
0.000001
20
11.159862
11
0.000001
21
10.842328
0
LINE
8
Layer 1
10
0.000001
20
10.842328
11
0.000001
21
10.524794
0
LINE
8
Layer 1
10
0.000001
20
10.524794
11
0.211690
21
10.557870
0
LINE
8
Layer 1
10
0.211690
20
10.557870
11
6.251450
21
11.087093
0
LINE
8
Layer 1
10
6.251450
20
11.087093
11
10.003973
21
11.283071
0
LINE
8
Layer 1
10
10.003973
20
11.283071
11
12.932890
21
11.285552
0
LINE
8
Layer 1
10
12.932890
20
11.285552
11
16.648204
21
11.159862
0
LINE
8
Layer 1
10
16.648204
20
11.159862
11
20.428010
21
10.835712
0
LINE
8
Layer 1
10
20.428010
20
10.835712
11
21.241691
21
10.756329
0
LINE
8
Layer 1
10
21.241691
20
10.756329
11
21.519533
21
10.485102
0
LINE
8
Layer 1
10
21.519533
20
10.485102
11
21.972991
21
10.140590
0
LINE
8
Layer 1
10
21.972991
20
10.140590
11
22.502731
21
9.921975
0
LINE
8
Layer 1
10
22.502731
20
9.921975
11
23.987033
21
9.810342
0
LINE
8
Layer 1
10
23.987033
20
9.810342
11
25.676414
21
10.099761
0
LINE
8
Layer 1
10
25.676414
20
10.099761
11
26.321095
21
10.415023
0
LINE
8
Layer 1
10
26.321095
20
10.415023
11
26.864683
21
10.855562
0
LINE
8
Layer 1
10
26.864683
20
10.855562
11
27.559289
21
11.923932
0
LINE
8
Layer 1
10
27.559289
20
11.923932
11
28.710353
21
14.917352
0
LINE
8
Layer 1
10
28.710353
20
14.917352
11
29.140347
21
16.075032
0
LINE
8
Layer 1
10
29.140347
20
16.075032
11
29.431420
21
16.835790
0
LINE
8
Layer 1
10
29.431420
20
16.835790
11
30.198794
21
18.886530
0
LINE
8
Layer 1
10
30.198794
20
18.886530
11
31.482164
21
22.577860
0
LINE
8
Layer 1
10
31.482164
20
22.577860
11
31.477203
21
23.346060
0
LINE
8
Layer 1
10
31.477203
20
23.346060
11
31.224168
21
24.139070
0
LINE
8
Layer 1
10
31.224168
20
24.139070
11
31.147265
21
24.411124
0
LINE
8
Layer 1
10
31.147265
20
24.411124
11
31.521856
21
24.509526
0
LINE
8
Layer 1
10
31.521856
20
24.509526
11
32.549295
21
24.770417
0
LINE
8
Layer 1
10
32.549295
20
24.770417
11
33.638750
21
25.222324
0
LINE
8
Layer 1
10
33.638750
20
25.222324
11
35.715946
21
26.560266
0
LINE
8
Layer 1
10
35.715946
20
26.560266
11
37.323464
21
28.111551
0
LINE
8
Layer 1
10
37.323464
20
28.111551
11
39.089746
21
30.059756
0
LINE
8
Layer 1
10
39.089746
20
30.059756
11
40.522368
21
31.659518
0
LINE
8
Layer 1
10
40.522368
20
31.659518
11
41.808627
21
32.840657
0
LINE
8
Layer 1
10
41.808627
20
32.840657
11
43.030389
21
33.668293
0
LINE
8
Layer 1
10
43.030389
20
33.668293
11
44.269516
21
34.207546
0
LINE
8
Layer 1
10
44.269516
20
34.207546
11
44.992238
21
34.391120
0
LINE
8
Layer 1
10
44.992238
20
34.391120
11
44.653203
21
34.207546
0
LINE
8
Layer 1
10
44.653203
20
34.207546
11
43.026669
21
33.386423
0
LINE
8
Layer 1
10
43.026669
20
33.386423
11
41.623403
21
32.183266
0
LINE
8
Layer 1
10
41.623403
20
32.183266
11
40.810963
21
31.202549
0
LINE
8
Layer 1
10
40.810963
20
31.202549
11
40.144886
21
30.127564
0
LINE
8
Layer 1
10
40.144886
20
30.127564
11
39.632614
21
28.975677
0
LINE
8
Layer 1
10
39.632614
20
28.975677
11
39.281593
21
27.764256
0
LINE
8
Layer 1
10
39.281593
20
27.764256
11
39.126134
21
25.897917
0
LINE
8
Layer 1
10
39.126134
20
25.897917
11
39.248517
21
24.046466
0
LINE
8
Layer 1
10
39.248517
20
24.046466
11
39.788490
21
22.192532
0
LINE
8
Layer 1
10
39.788490
20
22.192532
11
40.948647
21
19.316536
0
LINE
8
Layer 1
10
40.948647
20
19.316536
11
41.830960
21
17.006972
0
LINE
8
Layer 1
10
41.830960
20
17.006972
11
42.073247
21
15.545816
0
LINE
8
Layer 1
10
42.073247
20
15.545816
11
41.933499
21
14.928941
0
LINE
8
Layer 1
10
41.933499
20
14.928941
11
41.252951
21
14.282296
0
LINE
8
Layer 1
10
41.252951
20
14.282296
11
39.953870
21
13.038620
0
LINE
8
Layer 1
10
39.953870
20
13.038620
11
39.633338
21
12.520353
0
LINE
8
Layer 1
10
39.633338
20
12.520353
11
39.532971
21
12.072786
0
LINE
8
Layer 1
10
39.532971
20
12.072786
11
39.786006
21
11.402161
0
LINE
8
Layer 1
10
39.786006
20
11.402161
11
40.525265
21
11.014336
0
LINE
8
Layer 1
10
40.525265
20
11.014336
11
41.270311
21
10.923789
0
LINE
8
Layer 1
10
41.270311
20
10.923789
11
42.055049
21
11.029220
0
LINE
8
Layer 1
10
42.055049
20
11.029220
11
42.877000
21
11.330630
0
LINE
8
Layer 1
10
42.877000
20
11.330630
11
43.733685
21
11.828017
0
LINE
8
Layer 1
10
43.733685
20
11.828017
11
44.586229
21
12.483757
0
LINE
8
Layer 1
10
44.586229
20
12.483757
11
45.314735
21
13.283377
0
LINE
8
Layer 1
10
45.314735
20
13.283377
11
46.005205
21
14.341824
0
LINE
8
Layer 1
10
46.005205
20
14.341824
11
46.531945
21
15.559037
0
LINE
8
Layer 1
10
46.531945
20
15.559037
11
46.968554
21
17.444397
0
LINE
8
Layer 1
10
46.968554
20
17.444397
11
47.761562
21
20.910812
0
LINE
8
Layer 1
10
47.761562
20
20.910812
11
48.966374
21
24.079537
0
LINE
8
Layer 1
10
48.966374
20
24.079537
11
50.117434
21
27.082877
0
LINE
8
Layer 1
10
50.117434
20
27.082877
11
50.450679
21
28.319936
0
LINE
8
Layer 1
10
50.450679
20
28.319936
11
50.600350
21
29.537147
0
LINE
8
Layer 1
10
50.600350
20
29.537147
11
50.640042
21
30.132523
0
LINE
8
Layer 1
10
50.640042
20
30.132523
11
50.851731
21
29.470994
0
LINE
8
Layer 1
10
50.851731
20
29.470994
11
51.658796
21
26.064124
0
LINE
8
Layer 1
10
51.658796
20
26.064124
11
51.943046
21
23.930899
0
LINE
8
Layer 1
10
51.943046
20
23.930899
11
52.052405
21
21.858453
0
LINE
8
Layer 1
10
52.052405
20
21.858453
11
51.988113
21
19.758720
0
LINE
8
Layer 1
10
51.988113
20
19.758720
11
51.751410
21
17.543634
0
LINE
8
Layer 1
10
51.751410
20
17.543634
11
51.629854
21
16.261920
0
LINE
8
Layer 1
10
51.629854
20
16.261920
11
51.726292
21
16.073798
0
LINE
8
Layer 1
10
51.726292
20
16.073798
11
51.949869
21
16.022114
0
LINE
8
Layer 1
10
51.949869
20
16.022114
11
52.243422
21
16.139535
0
LINE
8
Layer 1
10
52.243422
20
16.139535
11
52.452631
21
17.001177
0
LINE
8
Layer 1
10
52.452631
20
17.001177
11
52.857920
21
19.408418
0
LINE
8
Layer 1
10
52.857920
20
19.408418
11
53.040564
21
21.449131
0
LINE
8
Layer 1
10
53.040564
20
21.449131
11
53.013586
21
23.404259
0
LINE
8
Layer 1
10
53.013586
20
23.404259
11
52.790011
21
25.554747
0
LINE
8
Layer 1
10
52.790011
20
25.554747
11
52.355158
21
27.955581
0
LINE
8
Layer 1
10
52.355158
20
27.955581
11
51.742313
21
30.135008
0
LINE
8
Layer 1
10
51.742313
20
30.135008
11
50.932249
21
32.149467
0
LINE
8
Layer 1
10
50.932249
20
32.149467
11
49.905741
21
34.055397
0
LINE
8
Layer 1
10
49.905741
20
34.055397
11
48.910242
21
35.541255
0
LINE
8
Layer 1
10
48.910242
20
35.541255
11
47.925286
21
36.728802
0
LINE
8
Layer 1
10
47.925286
20
36.728802
11
46.946532
21
37.624862
0
LINE
8
Layer 1
10
46.946532
20
37.624862
11
45.969641
21
38.236257
0
LINE
8
Layer 1
10
45.969641
20
38.236257
11
44.699507
21
38.664597
0
LINE
8
Layer 1
10
44.699507
20
38.664597
11
42.238621
21
38.725788
0
LINE
8
Layer 1
10
42.238621
20
38.725788
11
38.269451
21
38.606713
0
LINE
8
Layer 1
10
38.269451
20
38.606713
11
31.257241
21
38.170104
0
LINE
8
Layer 1
10
31.257241
20
38.170104
11
29.834951
21
38.070875
0
LINE
8
Layer 1
10
29.834951
20
38.070875
11
29.570339
21
38.295795
0
LINE
8
Layer 1
10
29.570339
20
38.295795
11
24.106109
21
45.420465
0
LINE
8
Layer 1
10
24.106109
20
45.420465
11
22.940785
21
46.363040
0
LINE
8
Layer 1
10
22.940785
20
46.363040
11
21.580722
21
46.987461
0
LINE
8
Layer 1
10
21.580722
20
46.987461
11
20.074296
21
47.278224
0
LINE
8
Layer 1
10
20.074296
20
47.278224
11
18.469879
21
47.219825
0
LINE
8
Layer 1
10
18.469879
20
47.219825
11
18.469900
21
47.219800
0
LINE
8
Layer 1
10
20.441260
20
44.811830
11
21.266517
21
44.298319
0
LINE
8
Layer 1
10
21.266517
20
44.298319
11
21.804010
21
43.482160
0
LINE
8
Layer 1
10
21.804010
20
43.482160
11
21.877605
21
42.324484
0
LINE
8
Layer 1
10
21.877605
20
42.324484
11
21.598936
21
40.908810
0
LINE
8
Layer 1
10
21.598936
20
40.908810
11
20.950638
21
39.512980
0
LINE
8
Layer 1
10
20.950638
20
39.512980
11
19.310048
21
41.973870
0
LINE
8
Layer 1
10
19.310048
20
41.973870
11
18.600558
21
43.356466
0
LINE
8
Layer 1
10
18.600558
20
43.356466
11
18.516213
21
44.183380
0
LINE
8
Layer 1
10
18.516213
20
44.183380
11
18.759325
21
44.641489
0
LINE
8
Layer 1
10
18.759325
20
44.641489
11
19.230664
21
44.891216
0
LINE
8
Layer 1
10
19.230664
20
44.891216
11
19.796271
21
44.945792
0
LINE
8
Layer 1
10
19.796271
20
44.945792
11
20.441264
21
44.811833
0
LINE
8
Layer 1
10
20.441264
20
44.811833
11
20.441260
21
44.811830
0
LINE
8
Layer 1
10
44.441560
20
38.064230
11
45.308576
21
37.788558
0
LINE
8
Layer 1
10
45.308576
20
37.788558
11
46.158227
21
37.312567
0
LINE
8
Layer 1
10
46.158227
20
37.312567
11
46.983073
21
36.641837
0
LINE
8
Layer 1
10
46.983073
20
36.641837
11
47.775670
21
35.781950
0
LINE
8
Layer 1
10
47.775670
20
35.781950
11
48.887040
21
34.128130
0
LINE
8
Layer 1
10
48.887040
20
34.128130
11
47.821980
21
34.611046
0
LINE
8
Layer 1
10
47.821980
20
34.611046
11
46.495303
21
35.059438
0
LINE
8
Layer 1
10
46.495303
20
35.059438
11
44.918694
21
35.012924
0
LINE
8
Layer 1
10
44.918694
20
35.012924
11
43.244095
21
34.497551
0
LINE
8
Layer 1
10
43.244095
20
34.497551
11
41.623450
21
33.539366
0
LINE
8
Layer 1
10
41.623450
20
33.539366
11
40.267317
21
32.293210
0
LINE
8
Layer 1
10
40.267317
20
32.293210
11
38.692880
21
30.595566
0
LINE
8
Layer 1
10
38.692880
20
30.595566
11
35.723444
21
27.438420
0
LINE
8
Layer 1
10
35.723444
20
27.438420
11
34.518738
21
26.472586
0
LINE
8
Layer 1
10
34.518738
20
26.472586
11
33.374190
21
25.799476
0
LINE
8
Layer 1
10
33.374190
20
25.799476
11
32.322360
21
25.360386
0
LINE
8
Layer 1
10
32.322360
20
25.360386
11
31.270530
21
25.104871
0
LINE
8
Layer 1
10
31.270530
20
25.104871
11
30.688384
21
25.005642
0
LINE
8
Layer 1
10
30.688384
20
25.005642
11
30.324543
21
25.303330
0
LINE
8
Layer 1
10
30.324543
20
25.303330
11
29.269404
21
25.924340
0
LINE
8
Layer 1
10
29.269404
20
25.924340
11
28.115033
21
26.143472
0
LINE
8
Layer 1
10
28.115033
20
26.143472
11
27.638732
21
26.156702
0
LINE
8
Layer 1
10
27.638732
20
26.156702
11
27.149201
21
26.606542
0
LINE
8
Layer 1
10
27.149201
20
26.606542
11
25.401626
21
28.585546
0
LINE
8
Layer 1
10
25.401626
20
28.585546
11
23.627385
21
31.096669
0
LINE
8
Layer 1
10
23.627385
20
31.096669
11
22.251301
21
33.481275
0
LINE
8
Layer 1
10
22.251301
20
33.481275
11
21.845327
21
34.420312
0
LINE
8
Layer 1
10
21.845327
20
34.420312
11
21.698201
21
35.080732
0
LINE
8
Layer 1
10
21.698201
20
35.080732
11
21.788024
21
35.560030
0
LINE
8
Layer 1
10
21.788024
20
35.560030
11
22.039715
21
36.002738
0
LINE
8
Layer 1
10
22.039715
20
36.002738
11
22.426607
21
36.374745
0
LINE
8
Layer 1
10
22.426607
20
36.374745
11
22.922031
21
36.641942
0
LINE
8
Layer 1
10
22.922031
20
36.641942
11
24.426183
21
36.990072
0
LINE
8
Layer 1
10
24.426183
20
36.990072
11
26.957361
21
37.243933
0
LINE
8
Layer 1
10
26.957361
20
37.243933
11
29.140411
21
37.409315
0
LINE
8
Layer 1
10
29.140411
20
37.409315
11
34.730331
21
37.773156
0
LINE
8
Layer 1
10
34.730331
20
37.773156
11
38.037981
21
37.971615
0
LINE
8
Layer 1
10
38.037981
20
37.971615
11
42.423921
21
38.156843
0
LINE
8
Layer 1
10
42.423921
20
38.156843
11
44.441581
21
38.064229
0
LINE
8
Layer 1
10
44.441581
20
38.064229
11
44.441560
21
38.064230
0
LINE
8
Layer 1
10
48.582730
20
33.354140
11
49.111953
21
32.540459
0
LINE
8
Layer 1
10
49.111953
20
32.540459
11
49.384007
21
31.540724
0
LINE
8
Layer 1
10
49.384007
20
31.540724
11
49.482409
21
30.198649
0
LINE
8
Layer 1
10
49.482409
20
30.198649
11
49.422355
21
29.107539
0
LINE
8
Layer 1
10
49.422355
20
29.107539
11
49.170664
21
27.954410
0
LINE
8
Layer 1
10
49.170664
20
27.954410
11
47.663209
21
24.013349
0
LINE
8
Layer 1
10
47.663209
20
24.013349
11
46.546876
21
20.981066
0
LINE
8
Layer 1
10
46.546876
20
20.981066
11
45.877079
21
17.993439
0
LINE
8
Layer 1
10
45.877079
20
17.993439
11
45.519853
21
16.267675
0
LINE
8
Layer 1
10
45.519853
20
16.267675
11
45.122936
21
15.181939
0
LINE
8
Layer 1
10
45.122936
20
15.181939
11
44.543994
21
14.238847
0
LINE
8
Layer 1
10
44.543994
20
14.238847
11
43.765974
21
13.367695
0
LINE
8
Layer 1
10
43.765974
20
13.367695
11
42.887484
21
12.662753
0
LINE
8
Layer 1
10
42.887484
20
12.662753
11
42.007136
21
12.218289
0
LINE
8
Layer 1
10
42.007136
20
12.218289
11
40.895766
21
12.099214
0
LINE
8
Layer 1
10
40.895766
20
12.099214
11
40.670846
21
12.105829
0
LINE
8
Layer 1
10
40.670846
20
12.105829
11
40.862689
21
12.330749
0
LINE
8
Layer 1
10
40.862689
20
12.330749
11
41.888059
21
13.289966
0
LINE
8
Layer 1
10
41.888059
20
13.289966
11
42.776990
21
14.125974
0
LINE
8
Layer 1
10
42.776990
20
14.125974
11
43.105269
21
14.699026
0
LINE
8
Layer 1
10
43.105269
20
14.699026
11
43.213594
21
15.555708
0
LINE
8
Layer 1
10
43.213594
20
15.555708
11
43.138345
21
16.571156
0
LINE
8
Layer 1
10
43.138345
20
16.571156
11
42.717448
21
18.069520
0
LINE
8
Layer 1
10
42.717448
20
18.069520
11
41.735905
21
20.500636
0
LINE
8
Layer 1
10
41.735905
20
20.500636
11
40.551765
21
23.649516
0
LINE
8
Layer 1
10
40.551765
20
23.649516
11
40.269995
21
25.293830
0
LINE
8
Layer 1
10
40.269995
20
25.293830
11
40.307000
21
26.886046
0
LINE
8
Layer 1
10
40.307000
20
26.886046
11
40.661538
21
28.416245
0
LINE
8
Layer 1
10
40.661538
20
28.416245
11
41.332369
21
29.874506
0
LINE
8
Layer 1
10
41.332369
20
29.874506
11
42.360426
21
31.281705
0
LINE
8
Layer 1
10
42.360426
20
31.281705
11
43.627874
21
32.389973
0
LINE
8
Layer 1
10
43.627874
20
32.389973
11
45.118591
21
33.188147
0
LINE
8
Layer 1
10
45.118591
20
33.188147
11
46.816449
21
33.665066
0
LINE
8
Layer 1
10
46.816449
20
33.665066
11
47.874899
21
33.797372
0
LINE
8
Layer 1
10
47.874899
20
33.797372
11
48.218894
21
33.803988
0
LINE
8
Layer 1
10
48.218894
20
33.803988
11
48.582735
21
33.354148
0
LINE
8
Layer 1
10
48.582735
20
33.354148
11
48.582730
21
33.354140
0
LINE
8
Layer 1
10
23.186630
20
30.562490
11
25.076123
21
27.955237
0
LINE
8
Layer 1
10
25.076123
20
27.955237
11
26.672890
21
26.156710
0
LINE
8
Layer 1
10
26.672890
20
26.156710
11
27.030116
21
25.832561
0
LINE
8
Layer 1
10
27.030116
20
25.832561
11
26.864734
21
25.501796
0
LINE
8
Layer 1
10
26.864734
20
25.501796
11
26.692736
21
25.177647
0
LINE
8
Layer 1
10
26.692736
20
25.177647
11
26.659660
21
18.919587
0
LINE
8
Layer 1
10
26.659660
20
18.919587
11
26.626583
21
12.668137
0
LINE
8
Layer 1
10
26.626583
20
12.668137
11
26.447970
21
12.291065
0
LINE
8
Layer 1
10
26.447970
20
12.291065
11
25.960092
21
11.617133
0
LINE
8
Layer 1
10
25.960092
20
11.617133
11
25.303520
21
11.186315
0
LINE
8
Layer 1
10
25.303520
20
11.186315
11
24.249208
21
10.967184
0
LINE
8
Layer 1
10
24.249208
20
10.967184
11
23.140320
21
11.001087
0
LINE
8
Layer 1
10
23.140320
20
11.001087
11
22.399408
21
11.212776
0
LINE
8
Layer 1
10
22.399408
20
11.212776
11
22.262967
21
11.330197
0
LINE
8
Layer 1
10
22.262967
20
11.330197
11
22.339871
21
11.457542
0
LINE
8
Layer 1
10
22.339871
20
11.457542
11
22.812037
21
11.785826
0
LINE
8
Layer 1
10
22.812037
20
11.785826
11
23.616621
21
12.079379
0
LINE
8
Layer 1
10
23.616621
20
12.079379
11
24.871042
21
12.567257
0
LINE
8
Layer 1
10
24.871042
20
12.567257
11
25.634281
21
13.303209
0
LINE
8
Layer 1
10
25.634281
20
13.303209
11
25.885662
21
13.633973
0
LINE
8
Layer 1
10
25.885662
20
13.633973
11
25.501975
21
15.433333
0
LINE
8
Layer 1
10
25.501975
20
15.433333
11
24.694910
21
19.184203
0
LINE
8
Layer 1
10
24.694910
20
19.184203
11
24.145841
21
21.731093
0
LINE
8
Layer 1
10
24.145841
20
21.731093
11
23.748924
21
23.517223
0
LINE
8
Layer 1
10
23.748924
20
23.517223
11
22.200944
21
31.157883
0
LINE
8
Layer 1
10
22.200944
20
31.157883
11
21.989255
21
32.348633
0
LINE
8
Layer 1
10
21.989255
20
32.348633
11
22.009100
21
32.442074
0
LINE
8
Layer 1
10
22.009100
20
32.442074
11
22.227405
21
32.084021
0
LINE
8
Layer 1
10
22.227405
20
32.084021
11
23.186622
21
30.562501
0
LINE
8
Layer 1
10
23.186622
20
30.562501
11
23.186630
21
30.562490
0
LINE
8
Layer 1
10
15.810500
20
43.654200
11
15.444178
21
43.387108
0
LINE
8
Layer 1
10
15.444178
20
43.387108
11
15.241585
21
43.025747
0
LINE
8
Layer 1
10
15.241585
20
43.025747
11
15.388775
21
42.355122
0
LINE
8
Layer 1
10
15.388775
20
42.355122
11
15.922960
21
41.967297
0
LINE
8
Layer 1
10
15.922960
20
41.967297
11
16.300755
21
41.990347
0
LINE
8
Layer 1
10
16.300755
20
41.990347
11
16.648160
21
42.166582
0
LINE
8
Layer 1
10
16.648160
20
42.166582
11
16.902538
21
42.448249
0
LINE
8
Layer 1
10
16.902538
20
42.448249
11
17.001250
21
42.787593
0
LINE
8
Layer 1
10
17.001250
20
42.787593
11
16.889617
21
43.207664
0
LINE
8
Layer 1
10
16.889617
20
43.207664
11
16.604333
21
43.528506
0
LINE
8
Layer 1
10
16.604333
20
43.528506
11
16.219820
21
43.695543
0
LINE
8
Layer 1
10
16.219820
20
43.695543
11
15.810500
21
43.654196
0
LINE
8
Layer 1
10
15.810500
20
43.654196
11
15.810500
21
43.654200
0
LINE
8
Layer 1
10
0.000000
20
7.541340
11
59.967600
21
7.547955
0
LINE
8
Layer 1
10
59.967600
20
7.547955
11
30.007000
21
7.607493
0
LINE
8
Layer 1
10
30.007000
20
7.607493
11
-0.000000
21
7.541340
0
LINE
8
Layer 1
10
-0.000000
20
7.541340
11
0.000000
21
7.541340
 0 
ENDSEC
 0 
EOF