999
"DXF R12 Output" (www.mydxf.blogspot.com)
 0 
SECTION
 2 
HEADER
 9 
$ACADVER
 1 
AC1009
 9 
$EXTMIN
 10 
 0 
 20 
 0 
 9 
$EXTMAX
 10 
 8.5 
 20 
 11 
 0 
ENDSEC
 0 
SECTION
 2 
ENTITIES
0
LINE
8
Layer 1
10
22.723500
20
48.331200
11
20.561126
21
47.665537
0
LINE
8
Layer 1
10
20.561126
20
47.665537
11
18.364020
21
46.439230
0
LINE
8
Layer 1
10
18.364020
20
46.439230
11
17.088716
21
45.470814
0
LINE
8
Layer 1
10
17.088716
20
45.470814
11
15.881633
21
44.343011
0
LINE
8
Layer 1
10
15.881633
20
44.343011
11
14.815950
21
43.132103
0
LINE
8
Layer 1
10
14.815950
20
43.132103
11
13.964850
21
41.914370
0
LINE
8
Layer 1
10
13.964850
20
41.914370
11
12.845212
21
39.556021
0
LINE
8
Layer 1
10
12.845212
20
39.556021
11
12.157223
21
36.964481
0
LINE
8
Layer 1
10
12.157223
20
36.964481
11
11.918247
21
34.241461
0
LINE
8
Layer 1
10
11.918247
20
34.241461
11
12.145650
21
31.488670
0
LINE
8
Layer 1
10
12.145650
20
31.488670
11
12.971528
21
28.369354
0
LINE
8
Layer 1
10
12.971528
20
28.369354
11
14.391542
21
25.174379
0
LINE
8
Layer 1
10
14.391542
20
25.174379
11
16.397007
21
21.919874
0
LINE
8
Layer 1
10
16.397007
20
21.919874
11
18.979240
21
18.621970
0
LINE
8
Layer 1
10
18.979240
20
18.621970
11
22.344768
21
14.948830
0
LINE
8
Layer 1
10
22.344768
20
14.948830
11
25.898830
21
11.484070
0
LINE
8
Layer 1
10
25.898830
20
11.484070
11
30.688300
21
7.323050
0
LINE
8
Layer 1
10
30.688300
20
7.323050
11
31.238403
21
6.945565
0
LINE
8
Layer 1
10
31.238403
20
6.945565
11
31.710363
21
6.907941
0
LINE
8
Layer 1
10
31.710363
20
6.907941
11
32.360937
21
7.289560
0
LINE
8
Layer 1
10
32.360937
20
7.289560
11
33.446880
21
8.169807
0
LINE
8
Layer 1
10
33.446880
20
8.169807
11
36.754526
21
11.060688
0
LINE
8
Layer 1
10
36.754526
20
11.060688
11
40.260630
21
14.447717
0
LINE
8
Layer 1
10
40.260630
20
14.447717
11
43.687351
21
18.030723
0
LINE
8
Layer 1
10
43.687351
20
18.030723
11
46.221010
21
21.122547
0
LINE
8
Layer 1
10
46.221010
20
21.122547
11
47.448870
21
22.896168
0
LINE
8
Layer 1
10
47.448870
20
22.896168
11
48.611611
21
24.862666
0
LINE
8
Layer 1
10
48.611611
20
24.862666
11
49.619307
21
26.857692
0
LINE
8
Layer 1
10
49.619307
20
26.857692
11
50.382030
21
28.716897
0
LINE
8
Layer 1
10
50.382030
20
28.716897
11
51.103097
21
31.753317
0
LINE
8
Layer 1
10
51.103097
20
31.753317
11
51.253595
21
33.996727
0
LINE
8
Layer 1
10
51.253595
20
33.996727
11
51.175865
21
36.086327
0
LINE
8
Layer 1
10
51.175865
20
36.086327
11
50.813575
21
38.008691
0
LINE
8
Layer 1
10
50.813575
20
38.008691
11
50.252206
21
39.785931
0
LINE
8
Layer 1
10
50.252206
20
39.785931
11
49.491137
21
41.416806
0
LINE
8
Layer 1
10
49.491137
20
41.416806
11
48.529745
21
42.900077
0
LINE
8
Layer 1
10
48.529745
20
42.900077
11
47.175263
21
44.401746
0
LINE
8
Layer 1
10
47.175263
20
44.401746
11
45.612405
21
45.824037
0
LINE
8
Layer 1
10
45.612405
20
45.824037
11
44.274464
21
46.787388
0
LINE
8
Layer 1
10
44.274464
20
46.787388
11
42.986135
21
47.497707
0
LINE
8
Layer 1
10
42.986135
20
47.497707
11
41.108221
21
48.209678
0
LINE
8
Layer 1
10
41.108221
20
48.209678
11
39.195575
21
48.390771
0
LINE
8
Layer 1
10
39.195575
20
48.390771
11
37.707136
21
48.271696
0
LINE
8
Layer 1
10
37.707136
20
48.271696
11
36.417155
21
47.795395
0
LINE
8
Layer 1
10
36.417155
20
47.795395
11
34.888194
21
46.798139
0
LINE
8
Layer 1
10
34.888194
20
46.798139
11
33.354275
21
45.215435
0
LINE
8
Layer 1
10
33.354275
20
45.215435
11
31.707065
21
42.761165
0
LINE
8
Layer 1
10
31.707065
20
42.761165
11
31.554913
21
42.470092
0
LINE
8
Layer 1
10
31.554913
20
42.470092
11
31.402761
21
42.721473
0
LINE
8
Layer 1
10
31.402761
20
42.721473
11
30.344316
21
44.418294
0
LINE
8
Layer 1
10
30.344316
20
44.418294
11
29.008031
21
46.015883
0
LINE
8
Layer 1
10
29.008031
20
46.015883
11
27.278134
21
47.433208
0
LINE
8
Layer 1
10
27.278134
20
47.433208
11
25.568081
21
48.225393
0
LINE
8
Layer 1
10
25.568081
20
48.225393
11
24.155717
21
48.397390
0
LINE
8
Layer 1
10
24.155717
20
48.397390
11
22.723511
21
48.331238
0
LINE
8
Layer 1
10
22.723511
20
48.331238
11
22.723500
21
48.331200
0
LINE
8
Layer 1
10
25.071930
20
47.729209
11
25.940392
21
47.457362
0
LINE
8
Layer 1
10
25.940392
20
47.457362
11
26.765443
21
47.042873
0
LINE
8
Layer 1
10
26.765443
20
47.042873
11
28.439110
21
45.691699
0
LINE
8
Layer 1
10
28.439110
20
45.691699
11
29.777878
21
44.146201
0
LINE
8
Layer 1
10
29.777878
20
44.146201
11
30.893380
21
42.377439
0
LINE
8
Layer 1
10
30.893380
20
42.377439
11
31.237375
21
41.742371
0
LINE
8
Layer 1
10
31.237375
20
41.742371
11
31.105069
21
41.365299
0
LINE
8
Layer 1
10
31.105069
20
41.365299
11
30.767689
21
40.068699
0
LINE
8
Layer 1
10
30.767689
20
40.068699
11
30.699882
21
40.034796
0
LINE
8
Layer 1
10
30.699882
20
40.034796
11
30.542769
21
40.531769
0
LINE
8
Layer 1
10
30.542769
20
40.531769
11
29.882067
21
42.152515
0
LINE
8
Layer 1
10
29.882067
20
42.152515
11
28.968329
21
43.753419
0
LINE
8
Layer 1
10
28.968329
20
43.753419
11
28.129635
21
44.754395
0
LINE
8
Layer 1
10
28.129635
20
44.754395
11
27.210318
21
45.524663
0
LINE
8
Layer 1
10
27.210318
20
45.524663
11
26.209136
21
46.064221
0
LINE
8
Layer 1
10
26.209136
20
46.064221
11
25.124849
21
46.373069
0
LINE
8
Layer 1
10
25.124849
20
46.373069
11
22.833477
21
46.508682
0
LINE
8
Layer 1
10
22.833477
20
46.508682
11
20.547069
21
46.346608
0
LINE
8
Layer 1
10
20.547069
20
46.346608
11
19.343089
21
46.042305
0
LINE
8
Layer 1
10
19.343089
20
46.042305
11
18.622022
21
45.843846
0
LINE
8
Layer 1
10
18.622022
20
45.843846
11
19.115688
21
46.202725
0
LINE
8
Layer 1
10
19.115688
20
46.202725
11
20.308922
21
46.869216
0
LINE
8
Layer 1
10
20.308922
20
46.869216
11
21.504634
21
47.387689
0
LINE
8
Layer 1
10
21.504634
20
47.387689
11
22.690422
21
47.722588
0
LINE
8
Layer 1
10
22.690422
20
47.722588
11
23.898541
21
47.817683
0
LINE
8
Layer 1
10
23.898541
20
47.817683
11
25.071922
21
47.729203
0
LINE
8
Layer 1
10
25.071922
20
47.729203
11
25.071930
21
47.729209
0
LINE
8
Layer 1
10
40.538430
20
47.696133
11
41.752338
21
47.363714
0
LINE
8
Layer 1
10
41.752338
20
47.363714
11
42.986090
21
46.803069
0
LINE
8
Layer 1
10
42.986090
20
46.803069
11
44.580370
21
45.843851
0
LINE
8
Layer 1
10
44.580370
20
45.843851
11
43.991609
21
46.009234
0
LINE
8
Layer 1
10
43.991609
20
46.009234
11
42.459340
21
46.359017
0
LINE
8
Layer 1
10
42.459340
20
46.359017
11
40.683959
21
46.485534
0
LINE
8
Layer 1
10
40.683959
20
46.485534
11
38.135420
21
46.368113
0
LINE
8
Layer 1
10
38.135420
20
46.368113
11
37.161940
21
46.135751
0
LINE
8
Layer 1
10
37.161940
20
46.135751
11
36.251719
21
45.764468
0
LINE
8
Layer 1
10
36.251719
20
45.764468
11
35.468429
21
45.244030
0
LINE
8
Layer 1
10
35.468429
20
45.244030
11
34.678934
21
44.463735
0
LINE
8
Layer 1
10
34.678934
20
44.463735
11
33.931612
21
43.478782
0
LINE
8
Layer 1
10
33.931612
20
43.478782
11
33.274839
21
42.344368
0
LINE
8
Layer 1
10
33.274839
20
42.344368
11
32.414851
21
39.995938
0
LINE
8
Layer 1
10
32.414851
20
39.995938
11
32.398933
21
39.897225
0
LINE
8
Layer 1
10
32.398933
20
39.897225
11
32.347044
21
39.990149
0
LINE
8
Layer 1
10
32.347044
20
39.990149
11
32.110548
21
40.822849
0
LINE
8
Layer 1
10
32.110548
20
40.822849
11
31.941031
21
41.768834
0
LINE
8
Layer 1
10
31.941031
20
41.768834
11
32.342083
21
42.635439
0
LINE
8
Layer 1
10
32.342083
20
42.635439
11
33.326935
21
44.151994
0
LINE
8
Layer 1
10
33.326935
20
44.151994
11
34.544973
21
45.618939
0
LINE
8
Layer 1
10
34.544973
20
45.618939
11
35.369095
21
46.383522
0
LINE
8
Layer 1
10
35.369095
20
46.383522
11
36.265776
21
47.012284
0
LINE
8
Layer 1
10
36.265776
20
47.012284
11
37.193465
21
47.478558
0
LINE
8
Layer 1
10
37.193465
20
47.478558
11
38.110613
21
47.755679
0
LINE
8
Layer 1
10
38.110613
20
47.755679
11
39.279865
21
47.820178
0
LINE
8
Layer 1
10
39.279865
20
47.820178
11
40.538423
21
47.696141
0
LINE
8
Layer 1
10
40.538423
20
47.696141
11
40.538430
21
47.696133
0
LINE
8
Layer 1
10
23.894330
20
45.910003
11
25.117538
21
45.740589
0
LINE
8
Layer 1
10
25.117538
20
45.740589
11
26.138568
21
45.413028
0
LINE
8
Layer 1
10
26.138568
20
45.413028
11
27.018196
21
44.900652
0
LINE
8
Layer 1
10
27.018196
20
44.900652
11
27.817200
21
44.176793
0
LINE
8
Layer 1
10
27.817200
20
44.176793
11
28.612483
21
43.167030
0
LINE
8
Layer 1
10
28.612483
20
43.167030
11
29.297373
21
41.982996
0
LINE
8
Layer 1
10
29.297373
20
41.982996
11
29.850784
21
40.668723
0
LINE
8
Layer 1
10
29.850784
20
40.668723
11
30.251630
21
39.268243
0
LINE
8
Layer 1
10
30.251630
20
39.268243
11
30.375666
21
38.161008
0
LINE
8
Layer 1
10
30.375666
20
38.161008
11
30.370705
21
34.558153
0
LINE
8
Layer 1
10
30.370705
20
34.558153
11
30.350859
21
30.516213
0
LINE
8
Layer 1
10
30.350859
20
30.516213
11
30.503011
21
30.370677
0
LINE
8
Layer 1
10
30.503011
20
30.370677
11
30.767623
21
30.254082
0
LINE
8
Layer 1
10
30.767623
20
30.254082
11
31.528381
21
30.231756
0
LINE
8
Layer 1
10
31.528381
20
30.231756
11
32.289966
21
30.254909
0
LINE
8
Layer 1
10
32.289966
20
30.254909
11
32.580211
21
30.377292
0
LINE
8
Layer 1
10
32.580211
20
30.377292
11
32.765439
21
30.522828
0
LINE
8
Layer 1
10
32.765439
20
30.522828
11
32.719132
21
34.326618
0
LINE
8
Layer 1
10
32.719132
20
34.326618
11
32.778670
21
38.785328
0
LINE
8
Layer 1
10
32.778670
20
38.785328
11
33.147576
21
40.374961
0
LINE
8
Layer 1
10
33.147576
20
40.374961
11
33.745329
21
41.892033
0
LINE
8
Layer 1
10
33.745329
20
41.892033
11
34.537821
21
43.266461
0
LINE
8
Layer 1
10
34.537821
20
43.266461
11
35.490940
21
44.428168
0
LINE
8
Layer 1
10
35.490940
20
44.428168
11
36.465040
21
45.174868
0
LINE
8
Layer 1
10
36.465040
20
45.174868
11
37.726910
21
45.678458
0
LINE
8
Layer 1
10
37.726910
20
45.678458
11
39.363368
21
45.932629
0
LINE
8
Layer 1
10
39.363368
20
45.932629
11
41.247898
21
45.895935
0
LINE
8
Layer 1
10
41.247898
20
45.895935
11
43.144832
21
45.590081
0
LINE
8
Layer 1
10
43.144832
20
45.590081
11
44.818500
21
45.036775
0
LINE
8
Layer 1
10
44.818500
20
45.036775
11
46.397901
21
44.147846
0
LINE
8
Layer 1
10
46.397901
20
44.147846
11
47.669690
21
42.946345
0
LINE
8
Layer 1
10
47.669690
20
42.946345
11
48.494637
21
41.859059
0
LINE
8
Layer 1
10
48.494637
20
41.859059
11
49.193687
21
40.658281
0
LINE
8
Layer 1
10
49.193687
20
40.658281
11
49.722806
21
39.428974
0
LINE
8
Layer 1
10
49.722806
20
39.428974
11
50.037960
21
38.256105
0
LINE
8
Layer 1
10
50.037960
20
38.256105
11
50.120651
21
35.899407
0
LINE
8
Layer 1
10
50.120651
20
35.899407
11
49.746887
21
33.056485
0
LINE
8
Layer 1
10
49.746887
20
33.056485
11
49.192650
21
30.877056
0
LINE
8
Layer 1
10
49.192650
20
30.877056
11
48.448638
21
28.788795
0
LINE
8
Layer 1
10
48.448638
20
28.788795
11
47.493762
21
26.738985
0
LINE
8
Layer 1
10
47.493762
20
26.738985
11
46.306937
21
24.674915
0
LINE
8
Layer 1
10
46.306937
20
24.674915
11
45.078765
21
22.869662
0
LINE
8
Layer 1
10
45.078765
20
22.869662
11
43.601280
21
20.999291
0
LINE
8
Layer 1
10
43.601280
20
20.999291
11
39.565957
21
16.663795
0
LINE
8
Layer 1
10
39.565957
20
16.663795
11
35.884548
21
13.120477
0
LINE
8
Layer 1
10
35.884548
20
13.120477
11
32.778667
21
10.465265
0
LINE
8
Layer 1
10
32.778667
20
10.465265
11
31.773147
21
9.638354
0
LINE
8
Layer 1
10
31.773147
20
9.638354
11
31.561458
21
9.439895
0
LINE
8
Layer 1
10
31.561458
20
9.439895
11
31.111618
21
9.783890
0
LINE
8
Layer 1
10
31.111618
20
9.783890
11
26.245245
21
14.023461
0
LINE
8
Layer 1
10
26.245245
20
14.023461
11
21.334218
21
18.952680
0
LINE
8
Layer 1
10
21.334218
20
18.952680
11
18.284568
21
22.591090
0
LINE
8
Layer 1
10
18.284568
20
22.591090
11
17.006679
21
24.434068
0
LINE
8
Layer 1
10
17.006679
20
24.434068
11
15.860891
21
26.404803
0
LINE
8
Layer 1
10
15.860891
20
26.404803
11
14.889994
21
28.420191
0
LINE
8
Layer 1
10
14.889994
20
28.420191
11
14.136778
21
30.397130
0
LINE
8
Layer 1
10
14.136778
20
30.397130
11
13.353692
21
33.316951
0
LINE
8
Layer 1
10
13.353692
20
33.316951
11
13.051868
21
35.953969
0
LINE
8
Layer 1
10
13.051868
20
35.953969
11
13.096521
21
37.759118
0
LINE
8
Layer 1
10
13.096521
20
37.759118
11
13.428940
21
39.261620
0
LINE
8
Layer 1
10
13.428940
20
39.261620
11
13.906480
21
40.484001
0
LINE
8
Layer 1
10
13.906480
20
40.484001
11
14.510538
21
41.613354
0
LINE
8
Layer 1
10
14.510538
20
41.613354
11
15.233672
21
42.638518
0
LINE
8
Layer 1
10
15.233672
20
42.638518
11
16.068440
21
43.548330
0
LINE
8
Layer 1
10
16.068440
20
43.548330
11
17.063214
21
44.347953
0
LINE
8
Layer 1
10
17.063214
20
44.347953
11
18.251490
21
44.983849
0
LINE
8
Layer 1
10
18.251490
20
44.983849
11
20.033483
21
45.597417
0
LINE
8
Layer 1
10
20.033483
20
45.597417
11
21.929590
21
45.903374
0
LINE
8
Layer 1
10
21.929590
20
45.903374
11
23.894330
21
45.909990
0
LINE
8
Layer 1
10
23.894330
20
45.909990
11
23.894330
21
45.910003
0
LINE
8
Layer 1
10
31.713600
20
39.962853
11
32.046845
21
36.611381
0
LINE
8
Layer 1
10
32.046845
20
36.611381
11
32.136979
21
32.282503
0
LINE
8
Layer 1
10
32.136979
20
32.282503
11
32.117133
21
30.860213
0
LINE
8
Layer 1
10
32.117133
20
30.860213
11
31.554833
21
30.860213
0
LINE
8
Layer 1
10
31.554833
20
30.860213
11
30.992533
21
30.860213
0
LINE
8
Layer 1
10
30.992533
20
30.860213
11
30.972687
21
32.381733
0
LINE
8
Layer 1
10
30.972687
20
32.381733
11
31.157915
21
38.633183
0
LINE
8
Layer 1
10
31.157915
20
38.633183
11
31.554832
21
40.584693
0
LINE
8
Layer 1
10
31.554832
20
40.584693
11
31.713599
21
39.962856
0
LINE
8
Layer 1
10
31.713599
20
39.962856
11
31.713600
21
39.962853
0
LINE
8
Layer 1
10
50.639900
20
33.592333
11
50.246291
21
30.494724
0
LINE
8
Layer 1
10
50.246291
20
30.494724
11
49.336690
21
27.684883
0
LINE
8
Layer 1
10
49.336690
20
27.684883
11
47.861480
21
24.741083
0
LINE
8
Layer 1
10
47.861480
20
24.741083
11
45.906662
21
21.781569
0
LINE
8
Layer 1
10
45.906662
20
21.781569
11
43.535080
21
18.787323
0
LINE
8
Layer 1
10
43.535080
20
18.787323
11
39.029241
21
14.091294
0
LINE
8
Layer 1
10
39.029241
20
14.091294
11
34.200910
21
9.618533
0
LINE
8
Layer 1
10
34.200910
20
9.618533
11
31.548180
21
7.475183
0
LINE
8
Layer 1
10
31.548180
20
7.475183
11
29.520593
21
9.099236
0
LINE
8
Layer 1
10
29.520593
20
9.099236
11
25.865650
21
12.370493
0
LINE
8
Layer 1
10
25.865650
20
12.370493
11
23.119890
21
15.039039
0
LINE
8
Layer 1
10
23.119890
20
15.039039
11
20.629648
21
17.678439
0
LINE
8
Layer 1
10
20.629648
20
17.678439
11
18.471824
21
20.202491
0
LINE
8
Layer 1
10
18.471824
20
20.202491
11
16.723320
21
22.524993
0
LINE
8
Layer 1
10
16.723320
20
22.524993
11
15.174824
21
25.027847
0
LINE
8
Layer 1
10
15.174824
20
25.027847
11
13.950685
21
27.559230
0
LINE
8
Layer 1
10
13.950685
20
27.559230
11
13.092456
21
30.021152
0
LINE
8
Layer 1
10
13.092456
20
30.021152
11
12.641690
21
32.315623
0
LINE
8
Layer 1
10
12.641690
20
32.315623
11
12.538326
21
33.634544
0
LINE
8
Layer 1
10
12.538326
20
33.634544
11
12.568922
21
34.134823
0
LINE
8
Layer 1
10
12.568922
20
34.134823
11
12.635075
21
33.876827
0
LINE
8
Layer 1
10
12.635075
20
33.876827
11
12.873225
21
32.652997
0
LINE
8
Layer 1
10
12.873225
20
32.652997
11
13.572895
21
30.155724
0
LINE
8
Layer 1
10
13.572895
20
30.155724
11
14.541106
21
27.703107
0
LINE
8
Layer 1
10
14.541106
20
27.703107
11
15.778476
21
25.292662
0
LINE
8
Layer 1
10
15.778476
20
25.292662
11
17.285625
21
22.921907
0
LINE
8
Layer 1
10
17.285625
20
22.921907
11
20.388195
21
19.078427
0
LINE
8
Layer 1
10
20.388195
20
19.078427
11
26.024425
21
13.349587
0
LINE
8
Layer 1
10
26.024425
20
13.349587
11
30.635285
21
9.380417
0
LINE
8
Layer 1
10
30.635285
20
9.380417
11
31.490311
21
8.870212
0
LINE
8
Layer 1
10
31.490311
20
8.870212
11
31.801851
21
8.940396
0
LINE
8
Layer 1
10
31.801851
20
8.940396
11
32.196495
21
9.208419
0
LINE
8
Layer 1
10
32.196495
20
9.208419
11
37.243965
21
13.488509
0
LINE
8
Layer 1
10
37.243965
20
13.488509
11
40.187765
21
16.372779
0
LINE
8
Layer 1
10
40.187765
20
16.372779
11
42.507249
21
18.785396
0
LINE
8
Layer 1
10
42.507249
20
18.785396
11
44.405010
21
20.962965
0
LINE
8
Layer 1
10
44.405010
20
20.962965
11
45.955468
21
22.995410
0
LINE
8
Layer 1
10
45.955468
20
22.995410
11
47.233045
21
24.972659
0
LINE
8
Layer 1
10
47.233045
20
24.972659
11
48.255832
21
26.835586
0
LINE
8
Layer 1
10
48.255832
20
26.835586
11
49.069616
21
28.623472
0
LINE
8
Layer 1
10
49.069616
20
28.623472
11
49.715949
21
30.439887
0
LINE
8
Layer 1
10
49.715949
20
30.439887
11
50.236385
21
32.388399
0
LINE
8
Layer 1
10
50.236385
20
32.388399
11
50.606841
21
34.511909
0
LINE
8
Layer 1
10
50.606841
20
34.511909
11
50.646532
21
34.531754
0
LINE
8
Layer 1
10
50.646532
20
34.531754
11
50.639917
21
33.592383
0
LINE
8
Layer 1
10
50.639917
20
33.592383
11
50.639900
21
33.592333
 0 
ENDSEC
 0 
EOF