<?xml version="1.0" standalone="no"?>
<!DOCTYPE svg PUBLIC "-//W3C//DTD SVG 20010904//EN"
 "http://www.w3.org/TR/2001/REC-SVG-20010904/DTD/svg10.dtd">
<svg version="1.0" xmlns="http://www.w3.org/2000/svg"
 width="170.078740pt" height="170.078740pt" viewBox="0 0 170.078740 170.078740"
 preserveAspectRatio="xMidYMid meet">
<metadata>
Created by potrace 1.16, written by Peter Selinger 2001-2019
</metadata>
<g transform="translate(0.000000,170.078740) scale(0.018752,-0.018752)"
fill="#000000" stroke="none">
<path d="M4695 8414 c-494 -57 -1167 -265 -1625 -502 -737 -382 -1297 -1011
-1643 -1843 -122 -294 -233 -677 -276 -959 -72 -465 -72 -1007 -1 -1545 82
-625 382 -1380 736 -1855 353 -476 908 -923 1459 -1177 364 -168 599 -230 907
-240 198 -6 295 3 518 48 456 93 892 249 1379 493 540 271 1040 653 1337 1022
314 391 600 922 769 1429 85 256 130 437 168 680 29 188 31 216 31 465 0 194
-5 298 -18 390 -9 69 -21 160 -27 203 -13 107 -80 369 -128 503 -155 436 -340
736 -717 1169 -335 385 -909 887 -1419 1241 -612 426 -946 536 -1450 478z m4
-275 c-80 -157 -83 -210 -76 -1104 7 -761 -4 -1625 -23 -1925 -12 -195 -38
-434 -50 -464 -9 -24 -64 -77 -270 -263 -330 -299 -542 -532 -1050 -1153 -101
-124 -215 -261 -254 -306 -39 -44 -105 -123 -146 -174 -41 -51 -122 -150 -180
-219 -58 -69 -168 -204 -243 -299 -231 -290 -277 -368 -263 -452 4 -28 3 -32
-7 -20 -272 348 -437 664 -594 1140 -134 407 -192 726 -223 1242 -28 451 46
1037 190 1502 153 498 386 919 727 1318 187 219 327 348 560 515 382 275 932
504 1548 644 128 29 366 69 373 63 2 -1 -6 -21 -19 -45z m634 -6 c257 -92 721
-391 1167 -752 437 -353 887 -803 1147 -1146 331 -438 522 -934 572 -1485 32
-350 24 -519 -40 -875 -99 -549 -407 -1254 -747 -1712 l-94 -125 -50 6 c-28 4
-64 14 -79 22 -117 60 -537 483 -1079 1084 -604 671 -907 963 -1188 1145 -81
52 -231 125 -256 125 -23 0 -20 7 19 47 75 77 86 125 110 463 28 424 36 796
34 1855 0 671 3 1081 9 1116 21 114 62 180 141 222 97 53 205 57 334 10z
m-649 -3956 c42 -20 116 -63 164 -96 92 -64 337 -264 362 -297 8 -10 -1 -5
-20 12 -122 111 -260 93 -326 -43 -28 -55 -29 -65 -32 -228 -2 -94 4 -350 13
-570 20 -475 24 -1601 6 -1875 -19 -303 -24 -323 -78 -305 -38 14 -57 56 -87
195 -146 675 -187 1889 -96 2844 15 165 17 219 8 253 -15 60 -63 109 -122 125
-64 17 -35 29 61 24 57 -2 86 -10 147 -39z m-328 -384 c-38 -321 -50 -1319
-21 -1755 39 -582 66 -837 115 -1068 47 -224 73 -283 159 -363 30 -28 46 -49
38 -52 -37 -12 -135 -26 -283 -40 -142 -14 -442 39 -657 116 -423 151 -860
426 -1254 787 -51 47 -93 88 -93 92 0 4 22 10 48 12 63 6 137 43 187 93 22 22
180 227 351 455 642 856 741 984 1103 1425 121 148 302 355 309 355 3 0 2 -26
-2 -57z m1168 -323 c105 -113 297 -322 426 -465 129 -143 322 -351 428 -462
105 -111 192 -206 192 -210 0 -23 -416 412 -710 742 -69 77 -157 174 -196 215
-111 119 -378 413 -394 435 -31 44 72 -60 254 -255z m-1654 156 c0 -2 -8 -10
-17 -17 -16 -13 -17 -12 -4 4 13 16 21 21 21 13z m1498 -351 c114 -126 272
-302 351 -390 423 -471 586 -633 851 -844 243 -194 340 -256 439 -282 28 -7
51 -15 50 -18 -1 -12 -239 -214 -344 -292 -353 -263 -781 -490 -1269 -673
-206 -78 -435 -150 -444 -141 -2 2 3 14 11 27 25 38 46 127 58 243 17 174 23
1407 9 1817 -7 194 -16 473 -19 620 l-6 267 53 -52 c30 -29 147 -155 260 -282z
m-1620 203 c-229 -278 -342 -423 -749 -963 -559 -743 -577 -765 -614 -765 -22
0 -29 24 -14 52 20 37 115 158 474 603 28 34 102 122 166 196 64 74 145 169
180 213 35 43 98 120 139 170 41 51 122 151 179 222 124 152 321 384 327 384
3 0 -37 -51 -88 -112z"/>
</g>
</svg>
