999
"DXF R12 Output" (www.mydxf.blogspot.com)
 0 
SECTION
 2 
HEADER
 9 
$ACADVER
 1 
AC1009
 9 
$EXTMIN
 10 
 0 
 20 
 0 
 9 
$EXTMAX
 10 
 8.5 
 20 
 11 
 0 
ENDSEC
 0 
SECTION
 2 
ENTITIES
0
LINE
8
Layer 1
10
33.337500
20
12.938000
11
30.916566
21
12.375761
0
LINE
8
Layer 1
10
30.916566
20
12.375761
11
28.892510
21
11.456340
0
LINE
8
Layer 1
10
28.892510
20
11.456340
11
20.081900
21
4.603640
0
LINE
8
Layer 1
10
20.081900
20
4.603640
11
12.117950
21
-1.719890
0
LINE
8
Layer 1
10
12.117950
20
-1.719890
11
12.276700
21
-12.356090
0
LINE
8
Layer 1
10
12.276700
20
-12.356090
11
12.541283
21
-23.336290
0
LINE
8
Layer 1
10
12.541283
20
-23.336290
11
12.805866
21
-24.394620
0
LINE
8
Layer 1
10
12.805866
20
-24.394620
11
12.964616
21
-25.135452
0
LINE
8
Layer 1
10
12.964616
20
-25.135452
11
6.482336
21
-25.135452
0
LINE
8
Layer 1
10
6.482336
20
-25.135452
11
0.000056
21
-25.135452
0
LINE
8
Layer 1
10
0.000056
20
-25.135452
11
0.000056
21
-25.796910
0
LINE
8
Layer 1
10
0.000056
20
-25.796910
11
0.000056
21
-26.458367
0
LINE
8
Layer 1
10
0.000056
20
-26.458367
11
6.746926
21
-26.458367
0
LINE
8
Layer 1
10
6.746926
20
-26.458367
11
13.467336
21
-26.458367
0
LINE
8
Layer 1
10
13.467336
20
-26.458367
11
13.890669
21
-27.278574
0
LINE
8
Layer 1
10
13.890669
20
-27.278574
11
16.228921
21
-29.927711
0
LINE
8
Layer 1
10
16.228921
20
-29.927711
11
21.246079
21
-35.136694
0
LINE
8
Layer 1
10
21.246079
20
-35.136694
11
35.798179
21
-50.059194
0
LINE
8
Layer 1
10
35.798179
20
-50.059194
11
43.418169
21
-57.917314
0
LINE
8
Layer 1
10
43.418169
20
-57.917314
11
44.397126
21
-57.758564
0
LINE
8
Layer 1
10
44.397126
20
-57.758564
11
47.413376
21
-57.017732
0
LINE
8
Layer 1
10
47.413376
20
-57.017732
11
49.424206
21
-56.435649
0
LINE
8
Layer 1
10
49.424206
20
-56.435649
11
51.382116
21
-58.896269
0
LINE
8
Layer 1
10
51.382116
20
-58.896269
11
52.863778
21
-60.655745
0
LINE
8
Layer 1
10
52.863778
20
-60.655745
11
53.710446
21
-61.383349
0
LINE
8
Layer 1
10
53.710446
20
-61.383349
11
54.418204
21
-60.794652
0
LINE
8
Layer 1
10
54.418204
20
-60.794652
11
55.562526
21
-59.372519
0
LINE
8
Layer 1
10
55.562526
20
-59.372519
11
56.806479
21
-57.685802
0
LINE
8
Layer 1
10
56.806479
20
-57.685802
11
57.636196
21
-56.911895
0
LINE
8
Layer 1
10
57.636196
20
-56.911895
11
58.042218
21
-56.792832
0
LINE
8
Layer 1
10
58.042218
20
-56.792832
11
58.520483
21
-56.812676
0
LINE
8
Layer 1
10
58.520483
20
-56.812676
11
59.928146
21
-57.150019
0
LINE
8
Layer 1
10
59.928146
20
-57.150019
11
62.125840
21
-57.664715
0
LINE
8
Layer 1
10
62.125840
20
-57.664715
11
62.923310
21
-57.666731
0
LINE
8
Layer 1
10
62.923310
20
-57.666731
11
63.678612
21
-57.417909
0
LINE
8
Layer 1
10
63.678612
20
-57.417909
11
64.510808
21
-56.857789
0
LINE
8
Layer 1
10
64.510808
20
-56.857789
11
65.538961
21
-55.925910
0
LINE
8
Layer 1
10
65.538961
20
-55.925910
11
68.659386
21
-52.705029
0
LINE
8
Layer 1
10
68.659386
20
-52.705029
11
82.788086
21
-38.020629
0
LINE
8
Layer 1
10
82.788086
20
-38.020629
11
92.789286
21
-27.384429
0
LINE
8
Layer 1
10
92.789286
20
-27.384429
11
93.424285
21
-26.458389
0
LINE
8
Layer 1
10
93.424285
20
-26.458389
11
99.615525
21
-26.458389
0
LINE
8
Layer 1
10
99.615525
20
-26.458389
11
105.833225
21
-26.458389
0
LINE
8
Layer 1
10
105.833225
20
-26.458389
11
105.833225
21
-25.796932
0
LINE
8
Layer 1
10
105.833225
20
-25.796932
11
105.833225
21
-25.135474
0
LINE
8
Layer 1
10
105.833225
20
-25.135474
11
99.853645
21
-25.135474
0
LINE
8
Layer 1
10
99.853645
20
-25.135474
11
93.874065
21
-25.135474
0
LINE
8
Layer 1
10
93.874065
20
-25.135474
11
94.059273
21
-24.526933
0
LINE
8
Layer 1
10
94.059273
20
-24.526933
11
94.247788
21
-20.839310
0
LINE
8
Layer 1
10
94.247788
20
-20.839310
11
94.376773
21
-12.805933
0
LINE
8
Layer 1
10
94.376773
20
-12.805933
11
94.509064
21
-1.640533
0
LINE
8
Layer 1
10
94.509064
20
-1.640533
11
92.286564
21
0.026337
0
LINE
8
Layer 1
10
92.286564
20
0.026337
11
85.486784
21
5.397367
0
LINE
8
Layer 1
10
85.486784
20
5.397367
11
81.328283
21
8.677781
0
LINE
8
Layer 1
10
81.328283
20
8.677781
11
78.571246
21
10.705563
0
LINE
8
Layer 1
10
78.571246
20
10.705563
11
76.672454
21
11.845340
0
LINE
8
Layer 1
10
76.672454
20
11.845340
11
75.088684
21
12.461737
0
LINE
8
Layer 1
10
75.088684
20
12.461737
11
73.708615
21
12.793810
0
LINE
8
Layer 1
10
73.708615
20
12.793810
11
72.288238
21
12.960311
0
LINE
8
Layer 1
10
72.288238
20
12.960311
11
70.859180
21
12.966823
0
LINE
8
Layer 1
10
70.859180
20
12.966823
11
69.453066
21
12.818925
0
LINE
8
Layer 1
10
69.453066
20
12.818925
11
68.101524
21
12.522200
0
LINE
8
Layer 1
10
68.101524
20
12.522200
11
66.836179
21
12.082227
0
LINE
8
Layer 1
10
66.836179
20
12.082227
11
65.688657
21
11.504589
0
LINE
8
Layer 1
10
65.688657
20
11.504589
11
64.690584
21
10.794867
0
LINE
8
Layer 1
10
64.690584
20
10.794867
11
62.818659
21
8.446694
0
LINE
8
Layer 1
10
62.818659
20
8.446694
11
59.398924
21
3.756957
0
LINE
8
Layer 1
10
59.398924
20
3.756957
11
56.056495
21
-0.826532
0
LINE
8
Layer 1
10
56.056495
20
-0.826532
11
54.930830
21
-2.138957
0
LINE
8
Layer 1
10
54.930830
20
-2.138957
11
54.051040
21
-2.867542
0
LINE
8
Layer 1
10
54.051040
20
-2.867542
11
53.328761
21
-3.064067
0
LINE
8
Layer 1
10
53.328761
20
-3.064067
11
52.675624
21
-2.780313
0
LINE
8
Layer 1
10
52.675624
20
-2.780313
11
52.003264
21
-2.068058
0
LINE
8
Layer 1
10
52.003264
20
-2.068058
11
51.223314
21
-0.979083
0
LINE
8
Layer 1
10
51.223314
20
-0.979083
11
45.329728
21
7.189908
0
LINE
8
Layer 1
10
45.329728
20
7.189908
11
43.223814
21
9.810920
0
LINE
8
Layer 1
10
43.223814
20
9.810920
11
41.936454
21
11.112317
0
LINE
8
Layer 1
10
41.936454
20
11.112317
11
40.057090
21
12.119386
0
LINE
8
Layer 1
10
40.057090
20
12.119386
11
37.914794
21
12.779188
0
LINE
8
Layer 1
10
37.914794
20
12.779188
11
35.633591
21
13.061960
0
LINE
8
Layer 1
10
35.633591
20
13.061960
11
33.337504
21
12.937937
0
LINE
8
Layer 1
10
33.337504
20
12.937937
11
33.337500
21
12.938000
0
LINE
8
Layer 1
10
37.650200
20
11.509250
11
40.137280
21
10.609668
0
LINE
8
Layer 1
10
40.137280
20
10.609668
11
41.116237
21
10.106960
0
LINE
8
Layer 1
10
41.116237
20
10.106960
11
40.031447
21
9.577794
0
LINE
8
Layer 1
10
40.031447
20
9.577794
11
37.246713
21
8.274719
0
LINE
8
Layer 1
10
37.246713
20
8.274719
11
36.362840
21
7.940683
0
LINE
8
Layer 1
10
36.362840
20
7.940683
11
36.163059
21
7.900789
0
LINE
8
Layer 1
10
36.163059
20
7.900789
11
36.168537
21
7.963834
0
LINE
8
Layer 1
10
36.168537
20
7.963834
11
36.341756
21
8.281333
0
LINE
8
Layer 1
10
36.341756
20
8.281333
11
36.323980
21
8.618675
0
LINE
8
Layer 1
10
36.323980
20
8.618675
11
36.142492
21
8.886564
0
LINE
8
Layer 1
10
36.142492
20
8.886564
11
35.824579
21
8.995704
0
LINE
8
Layer 1
10
35.824579
20
8.995704
11
28.806510
21
6.525160
0
LINE
8
Layer 1
10
28.806510
20
6.525160
11
21.351879
21
3.677584
0
LINE
8
Layer 1
10
21.351879
20
3.677584
11
20.979396
21
3.528343
0
LINE
8
Layer 1
10
20.979396
20
3.528343
11
21.348572
21
3.912402
0
LINE
8
Layer 1
10
21.348572
20
3.912402
11
25.135419
21
6.984874
0
LINE
8
Layer 1
10
25.135419
20
6.984874
11
28.260803
21
9.349583
0
LINE
8
Layer 1
10
28.260803
20
9.349583
11
30.374159
21
10.741954
0
LINE
8
Layer 1
10
30.374159
20
10.741954
11
32.199367
21
11.445995
0
LINE
8
Layer 1
10
32.199367
20
11.445995
11
34.002251
21
11.810210
0
LINE
8
Layer 1
10
34.002251
20
11.810210
11
35.810097
21
11.832120
0
LINE
8
Layer 1
10
35.810097
20
11.832120
11
37.650189
21
11.509245
0
LINE
8
Layer 1
10
37.650189
20
11.509245
11
37.650200
21
11.509250
0
LINE
8
Layer 1
10
72.839700
20
11.641542
11
74.877813
21
11.136768
0
LINE
8
Layer 1
10
74.877813
20
11.136768
11
77.020106
21
10.083810
0
LINE
8
Layer 1
10
77.020106
20
10.083810
11
79.797396
21
8.162689
0
LINE
8
Layer 1
10
79.797396
20
8.162689
11
83.740500
21
5.053422
0
LINE
8
Layer 1
10
83.740500
20
5.053422
11
85.079954
21
3.912407
0
LINE
8
Layer 1
10
85.079954
20
3.912407
11
85.366447
21
3.606070
0
LINE
8
Layer 1
10
85.366447
20
3.606070
11
85.328000
21
3.545302
0
LINE
8
Layer 1
10
85.328000
20
3.545302
11
79.507170
21
5.714882
0
LINE
8
Layer 1
10
79.507170
20
5.714882
11
72.919050
21
8.201962
0
LINE
8
Layer 1
10
72.919050
20
8.201962
11
71.205877
21
8.704670
0
LINE
8
Layer 1
10
71.205877
20
8.704670
11
70.783372
21
8.626122
0
LINE
8
Layer 1
10
70.783372
20
8.626122
11
70.643640
21
8.334254
0
LINE
8
Layer 1
10
70.643640
20
8.334254
11
70.598992
21
8.036185
0
LINE
8
Layer 1
10
70.598992
20
8.036185
11
70.306297
21
8.013447
0
LINE
8
Layer 1
10
70.306297
20
8.013447
11
68.024270
21
9.022170
0
LINE
8
Layer 1
10
68.024270
20
9.022170
11
65.748860
21
10.106960
0
LINE
8
Layer 1
10
65.748860
20
10.106960
11
66.807190
21
10.662584
0
LINE
8
Layer 1
10
66.807190
20
10.662584
11
68.874244
21
11.410032
0
LINE
8
Layer 1
10
68.874244
20
11.410032
11
71.040520
21
11.879664
0
LINE
8
Layer 1
10
71.040520
20
11.879664
11
72.839680
21
11.641539
0
LINE
8
Layer 1
10
72.839680
20
11.641539
11
72.839700
21
11.641542
0
LINE
8
Layer 1
10
47.201600
20
2.354682
11
50.429510
21
-2.301978
0
LINE
8
Layer 1
10
50.429510
20
-2.301978
11
40.057810
21
-0.423438
0
LINE
8
Layer 1
10
40.057810
20
-0.423438
11
28.786610
21
1.746142
0
LINE
8
Layer 1
10
28.786610
20
1.746142
11
28.075541
21
1.921428
0
LINE
8
Layer 1
10
28.075541
20
1.921428
11
27.781190
21
2.116558
0
LINE
8
Layer 1
10
27.781190
20
2.116558
11
31.286916
21
3.962026
0
LINE
8
Layer 1
10
31.286916
20
3.962026
11
40.348890
21
8.307798
0
LINE
8
Layer 1
10
40.348890
20
8.307798
11
42.200970
21
9.180922
0
LINE
8
Layer 1
10
42.200970
20
9.180922
11
43.047636
21
8.069672
0
LINE
8
Layer 1
10
43.047636
20
8.069672
11
47.201586
21
2.354682
0
LINE
8
Layer 1
10
47.201586
20
2.354682
11
47.201600
21
2.354682
0
LINE
8
Layer 1
10
72.178200
20
5.476762
11
78.581110
21
2.143012
0
LINE
8
Layer 1
10
78.581110
20
2.143012
11
75.288712
21
1.377375
0
LINE
8
Layer 1
10
75.288712
20
1.377375
11
68.017647
21
-0.092714
0
LINE
8
Layer 1
10
68.017647
20
-0.092714
11
57.176310
21
-2.090318
0
LINE
8
Layer 1
10
57.176310
20
-2.090318
11
58.135422
21
-0.410214
0
LINE
8
Layer 1
10
58.135422
20
-0.410214
11
60.801100
21
3.492382
0
LINE
8
Layer 1
10
60.801100
20
3.492382
11
64.062084
21
7.927453
0
LINE
8
Layer 1
10
64.062084
20
7.927453
11
64.797130
21
8.682757
0
LINE
8
Layer 1
10
64.797130
20
8.682757
11
65.219640
21
8.810502
0
LINE
8
Layer 1
10
65.219640
20
8.810502
11
72.178170
21
5.476752
0
LINE
8
Layer 1
10
72.178170
20
5.476752
11
72.178200
21
5.476762
0
LINE
8
Layer 1
10
30.215300
20
4.868221
11
25.386661
21
2.324917
0
LINE
8
Layer 1
10
25.386661
20
2.324917
11
24.723549
21
1.761436
0
LINE
8
Layer 1
10
24.723549
20
1.761436
11
24.606140
21
1.269891
0
LINE
8
Layer 1
10
24.606140
20
1.269891
11
24.399434
21
0.621249
0
LINE
8
Layer 1
10
24.399434
20
0.621249
11
23.686714
21
-0.545811
0
LINE
8
Layer 1
10
23.686714
20
-0.545811
11
20.187600
21
-5.238849
0
LINE
8
Layer 1
10
20.187600
20
-5.238849
11
14.631360
21
-12.382589
0
LINE
8
Layer 1
10
14.631360
20
-12.382589
11
13.493650
21
-13.811339
0
LINE
8
Layer 1
10
13.493650
20
-13.811339
11
13.493650
21
-8.016969
0
LINE
8
Layer 1
10
13.493650
20
-8.016969
11
13.493650
21
-2.222599
0
LINE
8
Layer 1
10
13.493650
20
-2.222599
11
15.186980
21
-0.979059
0
LINE
8
Layer 1
10
15.186980
20
-0.979059
11
18.176770
21
0.873021
0
LINE
8
Layer 1
10
18.176770
20
0.873021
11
27.354496
21
4.606949
0
LINE
8
Layer 1
10
27.354496
20
4.606949
11
35.559870
21
7.646341
0
LINE
8
Layer 1
10
35.559870
20
7.646341
11
34.088128
21
6.842670
0
LINE
8
Layer 1
10
34.088128
20
6.842670
11
30.215290
21
4.868221
0
LINE
8
Layer 1
10
30.215290
20
4.868221
11
30.215300
21
4.868221
0
LINE
8
Layer 1
10
78.051900
20
4.868221
11
86.386281
21
1.584085
0
LINE
8
Layer 1
10
86.386281
20
1.584085
11
89.117280
21
0.288044
0
LINE
8
Layer 1
10
89.117280
20
0.288044
11
91.069400
21
-0.846769
0
LINE
8
Layer 1
10
91.069400
20
-0.846769
11
93.133150
21
-2.249059
0
LINE
8
Layer 1
10
93.133150
20
-2.249059
11
93.106692
21
-8.069889
0
LINE
8
Layer 1
10
93.106692
20
-8.069889
11
93.040546
21
-12.809231
0
LINE
8
Layer 1
10
93.040546
20
-12.809231
11
92.928098
21
-13.453740
0
LINE
8
Layer 1
10
92.928098
20
-13.453740
11
92.736276
21
-13.361549
0
LINE
8
Layer 1
10
92.736276
20
-13.361549
11
87.180036
21
-6.138429
0
LINE
8
Layer 1
10
87.180036
20
-6.138429
11
83.059153
21
-0.674790
0
LINE
8
Layer 1
10
83.059153
20
-0.674790
11
82.261271
21
0.588594
0
LINE
8
Layer 1
10
82.261271
20
0.588594
11
82.073586
21
1.216981
0
LINE
8
Layer 1
10
82.073586
20
1.216981
11
82.000825
21
1.655610
0
LINE
8
Layer 1
10
82.000825
20
1.655610
11
81.451815
21
2.166172
0
LINE
8
Layer 1
10
81.451815
20
2.166172
11
77.655046
21
4.286141
0
LINE
8
Layer 1
10
77.655046
20
4.286141
11
74.638799
21
5.910020
0
LINE
8
Layer 1
10
74.638799
20
5.910020
11
73.837610
21
6.366011
0
LINE
8
Layer 1
10
73.837610
20
6.366011
11
73.686306
21
6.482181
0
LINE
8
Layer 1
10
73.686306
20
6.482181
11
78.051926
21
4.868221
0
LINE
8
Layer 1
10
78.051926
20
4.868221
11
78.051900
21
4.868221
0
LINE
8
Layer 1
10
38.761300
20
-1.455309
11
51.196700
21
-3.863019
0
LINE
8
Layer 1
10
51.196700
20
-3.863019
11
51.828392
21
-4.302888
0
LINE
8
Layer 1
10
51.828392
20
-4.302888
11
52.598990
21
-5.159479
0
LINE
8
Layer 1
10
52.598990
20
-5.159479
11
53.445656
21
-6.323649
0
LINE
8
Layer 1
10
53.445656
20
-6.323649
11
53.445656
21
-29.236549
0
LINE
8
Layer 1
10
53.445656
20
-29.236549
11
53.445656
21
-52.122949
0
LINE
8
Layer 1
10
53.445656
20
-52.122949
11
45.825666
21
-45.323169
0
LINE
8
Layer 1
10
45.825666
20
-45.323169
11
27.860466
21
-29.395269
0
LINE
8
Layer 1
10
27.860466
20
-29.395269
11
26.368877
21
-27.989675
0
LINE
8
Layer 1
10
26.368877
20
-27.989675
11
26.033600
21
-27.508879
0
LINE
8
Layer 1
10
26.033600
20
-27.508879
11
25.929006
21
-27.119859
0
LINE
8
Layer 1
10
25.929006
20
-27.119859
11
25.979029
21
-26.751510
0
LINE
8
Layer 1
10
25.979029
20
-26.751510
11
26.289500
21
-26.554313
0
LINE
8
Layer 1
10
26.289500
20
-26.554313
11
28.654206
21
-26.405485
0
LINE
8
Layer 1
10
28.654206
20
-26.405485
11
30.936236
21
-26.259964
0
LINE
8
Layer 1
10
30.936236
20
-26.259964
11
31.281022
21
-26.092946
0
LINE
8
Layer 1
10
31.281022
20
-26.092946
11
31.352956
21
-25.796944
0
LINE
8
Layer 1
10
31.352956
20
-25.796944
11
31.278955
21
-25.500942
0
LINE
8
Layer 1
10
31.278955
20
-25.500942
11
30.919701
21
-25.333924
0
LINE
8
Layer 1
10
30.919701
20
-25.333924
11
28.521916
21
-25.188403
0
LINE
8
Layer 1
10
28.521916
20
-25.188403
11
25.664416
21
-25.109028
0
LINE
8
Layer 1
10
25.664416
20
-25.109028
11
25.664416
21
-12.012128
0
LINE
8
Layer 1
10
25.664416
20
-12.012128
11
25.664416
21
1.111172
0
LINE
8
Layer 1
10
25.664416
20
1.111172
11
26.272957
21
0.978880
0
LINE
8
Layer 1
10
26.272957
20
0.978880
11
38.761257
21
-1.455280
0
LINE
8
Layer 1
10
38.761257
20
-1.455280
11
38.761300
21
-1.455309
0
LINE
8
Layer 1
10
80.962300
20
-12.038609
11
80.962300
21
-25.109009
0
LINE
8
Layer 1
10
80.962300
20
-25.109009
11
78.792720
21
-25.188384
0
LINE
8
Layer 1
10
78.792720
20
-25.188384
11
76.950561
21
-25.343827
0
LINE
8
Layer 1
10
76.950561
20
-25.343827
11
76.660759
21
-25.512085
0
LINE
8
Layer 1
10
76.660759
20
-25.512085
11
76.596680
21
-25.796925
0
LINE
8
Layer 1
10
76.596680
20
-25.796925
11
76.660759
21
-26.081765
0
LINE
8
Layer 1
10
76.660759
20
-26.081765
11
76.950560
21
-26.250023
0
LINE
8
Layer 1
10
76.950560
20
-26.250023
11
78.792720
21
-26.405466
0
LINE
8
Layer 1
10
78.792720
20
-26.405466
11
80.651416
21
-26.560908
0
LINE
8
Layer 1
10
80.651416
20
-26.560908
11
80.913518
21
-26.751491
0
LINE
8
Layer 1
10
80.913518
20
-26.751491
11
80.962300
21
-27.093382
0
LINE
8
Layer 1
10
80.962300
20
-27.093382
11
80.704744
21
-27.685386
0
LINE
8
Layer 1
10
80.704744
20
-27.685386
11
79.278885
21
-29.170354
0
LINE
8
Layer 1
10
79.278885
20
-29.170354
11
69.003100
21
-38.549782
0
LINE
8
Layer 1
10
69.003100
20
-38.549782
11
59.557490
21
-47.175192
0
LINE
8
Layer 1
10
59.557490
20
-47.175192
11
54.107080
21
-52.122892
0
LINE
8
Layer 1
10
54.107080
20
-52.122892
11
54.027705
21
-29.236492
0
LINE
8
Layer 1
10
54.027705
20
-29.236492
11
53.974789
21
-6.350092
0
LINE
8
Layer 1
10
53.974789
20
-6.350092
11
54.821455
21
-5.053632
0
LINE
8
Layer 1
10
54.821455
20
-5.053632
11
55.668121
21
-3.757172
0
LINE
8
Layer 1
10
55.668121
20
-3.757172
11
62.176861
21
-2.513632
0
LINE
8
Layer 1
10
62.176861
20
-2.513632
11
74.215361
21
-0.132382
0
LINE
8
Layer 1
10
74.215361
20
-0.132382
11
80.380141
21
1.031788
0
LINE
8
Layer 1
10
80.380141
20
1.031788
11
80.962224
21
1.058246
0
LINE
8
Layer 1
10
80.962224
20
1.058246
11
80.962224
21
-12.038654
0
LINE
8
Layer 1
10
80.962224
20
-12.038654
11
80.962300
21
-12.038609
0
LINE
8
Layer 1
10
24.606100
20
-13.493819
11
24.606100
21
-25.135519
0
LINE
8
Layer 1
10
24.606100
20
-25.135519
11
19.393810
21
-25.082602
0
LINE
8
Layer 1
10
19.393810
20
-25.082602
11
14.181520
21
-25.003227
0
LINE
8
Layer 1
10
14.181520
20
-25.003227
11
13.969854
21
-24.077186
0
LINE
8
Layer 1
10
13.969854
20
-24.077186
11
13.572979
21
-19.685106
0
LINE
8
Layer 1
10
13.572979
20
-19.685106
11
13.414229
21
-16.192606
0
LINE
8
Layer 1
10
13.414229
20
-16.192606
11
15.927769
21
-12.938236
0
LINE
8
Layer 1
10
15.927769
20
-12.938236
11
24.526719
21
-1.852236
0
LINE
8
Layer 1
10
24.526719
20
-1.852236
11
24.606094
21
-13.493936
0
LINE
8
Layer 1
10
24.606094
20
-13.493936
11
24.606100
21
-13.493819
0
LINE
8
Layer 1
10
87.788500
20
-9.075279
11
93.159530
21
-16.007349
0
LINE
8
Layer 1
10
93.159530
20
-16.007349
11
93.053697
21
-20.108389
0
LINE
8
Layer 1
10
93.053697
20
-20.108389
11
92.924713
21
-23.137865
0
LINE
8
Layer 1
10
92.924713
20
-23.137865
11
92.736197
21
-24.659219
0
LINE
8
Layer 1
10
92.736197
20
-24.659219
11
92.487324
21
-24.912227
0
LINE
8
Layer 1
10
92.487324
20
-24.912227
11
91.737396
21
-25.056093
0
LINE
8
Layer 1
10
91.737396
20
-25.056093
11
87.285787
21
-25.135468
0
LINE
8
Layer 1
10
87.285787
20
-25.135468
11
82.020587
21
-25.135468
0
LINE
8
Layer 1
10
82.020587
20
-25.135468
11
82.020587
21
-13.626068
0
LINE
8
Layer 1
10
82.020587
20
-13.626068
11
82.076811
21
-5.500044
0
LINE
8
Layer 1
10
82.076811
20
-5.500044
11
82.232253
21
-2.116668
0
LINE
8
Layer 1
10
82.232253
20
-2.116668
11
87.788493
21
-9.075198
0
LINE
8
Layer 1
10
87.788493
20
-9.075198
11
87.788500
21
-9.075279
0
LINE
8
Layer 1
10
24.606100
20
-27.384379
11
24.690849
21
-27.946618
0
LINE
8
Layer 1
10
24.690849
20
-27.946618
11
25.085656
21
-28.568389
0
LINE
8
Layer 1
10
25.085656
20
-28.568389
11
27.648800
21
-30.982709
0
LINE
8
Layer 1
10
27.648800
20
-30.982709
11
29.494264
21
-32.733091
0
LINE
8
Layer 1
10
29.494264
20
-32.733091
11
31.657225
21
-35.044060
0
LINE
8
Layer 1
10
31.657225
20
-35.044060
11
38.602500
21
-43.232909
0
LINE
8
Layer 1
10
38.602500
20
-43.232909
11
46.966631
21
-53.373046
0
LINE
8
Layer 1
10
46.966631
20
-53.373046
11
48.198180
21
-54.997751
0
LINE
8
Layer 1
10
48.198180
20
-54.997751
11
48.365610
21
-55.456609
0
LINE
8
Layer 1
10
48.365610
20
-55.456609
11
46.063740
21
-56.038692
0
LINE
8
Layer 1
10
46.063740
20
-56.038692
11
43.894160
21
-56.488483
0
LINE
8
Layer 1
10
43.894160
20
-56.488483
11
41.195410
21
-53.710363
0
LINE
8
Layer 1
10
41.195410
20
-53.710363
11
23.584110
21
-35.616175
0
LINE
8
Layer 1
10
23.584110
20
-35.616175
11
15.081110
21
-26.669963
0
LINE
8
Layer 1
10
15.081110
20
-26.669963
11
16.480091
21
-26.524443
0
LINE
8
Layer 1
10
16.480091
20
-26.524443
11
19.843600
21
-26.458297
0
LINE
8
Layer 1
10
19.843600
20
-26.458297
11
24.606090
21
-26.458297
0
LINE
8
Layer 1
10
24.606090
20
-26.458297
11
24.606090
21
-27.384337
0
LINE
8
Layer 1
10
24.606090
20
-27.384337
11
24.606100
21
-27.384379
0
LINE
8
Layer 1
10
91.625000
20
-26.855213
11
82.258760
21
-36.697703
0
LINE
8
Layer 1
10
82.258760
20
-36.697703
11
68.262360
21
-51.276203
0
LINE
8
Layer 1
10
68.262360
20
-51.276203
11
63.367570
21
-56.409113
0
LINE
8
Layer 1
10
63.367570
20
-56.409113
11
62.044650
21
-56.250363
0
LINE
8
Layer 1
10
62.044650
20
-56.250363
11
59.785770
21
-55.830338
0
LINE
8
Layer 1
10
59.785770
20
-55.830338
11
59.027161
21
-55.576917
0
LINE
8
Layer 1
10
59.027161
20
-55.576917
11
58.737360
21
-55.350781
0
LINE
8
Layer 1
10
58.737360
20
-55.350781
11
64.660697
21
-47.886244
0
LINE
8
Layer 1
10
64.660697
20
-47.886244
11
73.818560
21
-36.750581
0
LINE
8
Layer 1
10
73.818560
20
-36.750581
11
76.580144
21
-33.711185
0
LINE
8
Layer 1
10
76.580144
20
-33.711185
11
79.321890
21
-31.009131
0
LINE
8
Layer 1
10
79.321890
20
-31.009131
11
81.623765
21
-28.743638
0
LINE
8
Layer 1
10
81.623765
20
-28.743638
11
81.956148
21
-28.125590
0
LINE
8
Layer 1
10
81.956148
20
-28.125590
11
82.020640
21
-27.490181
0
LINE
8
Layer 1
10
82.020640
20
-27.490181
11
82.020640
21
-26.458311
0
LINE
8
Layer 1
10
82.020640
20
-26.458311
11
86.915430
21
-26.458311
0
LINE
8
Layer 1
10
86.915430
20
-26.458311
11
90.947014
21
-26.527764
0
LINE
8
Layer 1
10
90.947014
20
-26.527764
11
91.570026
21
-26.648067
0
LINE
8
Layer 1
10
91.570026
20
-26.648067
11
91.625010
21
-26.855186
0
LINE
8
Layer 1
10
91.625010
20
-26.855186
11
91.625000
21
-26.855213
0
LINE
8
Layer 1
10
40.586900
20
-42.386213
11
48.719520
21
-49.688713
0
LINE
8
Layer 1
10
48.719520
20
-49.688713
11
52.387300
21
-53.181213
0
LINE
8
Layer 1
10
52.387300
20
-53.181213
11
51.266130
21
-54.044416
0
LINE
8
Layer 1
10
51.266130
20
-54.044416
11
49.926680
21
-54.768713
0
LINE
8
Layer 1
10
49.926680
20
-54.768713
11
47.598350
21
-52.043513
0
LINE
8
Layer 1
10
47.598350
20
-52.043513
11
41.751070
21
-44.899773
0
LINE
8
Layer 1
10
41.751070
20
-44.899773
11
39.211073
21
-41.777693
0
LINE
8
Layer 1
10
39.211073
20
-41.777693
11
38.258570
21
-40.481233
0
LINE
8
Layer 1
10
38.258570
20
-40.481233
11
40.586900
21
-42.386233
0
LINE
8
Layer 1
10
40.586900
20
-42.386233
11
40.586900
21
-42.386213
0
LINE
8
Layer 1
10
63.473300
20
-47.254543
11
57.784770
21
-54.345363
0
LINE
8
Layer 1
10
57.784770
20
-54.345363
11
57.568143
21
-54.628550
0
LINE
8
Layer 1
10
57.568143
20
-54.628550
11
57.361437
21
-54.725701
0
LINE
8
Layer 1
10
57.361437
20
-54.725701
11
56.541230
21
-54.371821
0
LINE
8
Layer 1
10
56.541230
20
-54.371821
11
55.059565
21
-53.452397
0
LINE
8
Layer 1
10
55.059565
20
-53.452397
11
54.837147
21
-53.166316
0
LINE
8
Layer 1
10
54.837147
20
-53.166316
11
54.927270
21
-52.969531
0
LINE
8
Layer 1
10
54.927270
20
-52.969531
11
67.071670
21
-42.015831
0
LINE
8
Layer 1
10
67.071670
20
-42.015831
11
68.738540
21
-40.613541
0
LINE
8
Layer 1
10
68.738540
20
-40.613541
11
63.473340
21
-47.254571
0
LINE
8
Layer 1
10
63.473340
20
-47.254571
11
63.473300
21
-47.254543
0
LINE
8
Layer 1
10
53.445600
20
-56.779533
11
53.445600
21
-59.293073
0
LINE
8
Layer 1
10
53.445600
20
-59.293073
11
52.096230
21
-57.679113
0
LINE
8
Layer 1
10
52.096230
20
-57.679113
11
51.209877
21
-56.468646
0
LINE
8
Layer 1
10
51.209877
20
-56.468646
11
50.958520
21
-55.853493
0
LINE
8
Layer 1
10
50.958520
20
-55.853493
11
53.366230
21
-54.239533
0
LINE
8
Layer 1
10
53.366230
20
-54.239533
11
53.445605
21
-56.779533
0
LINE
8
Layer 1
10
53.445605
20
-56.779533
11
53.445600
21
-56.779533
0
LINE
8
Layer 1
10
55.350600
20
-55.244953
11
56.567680
21
-55.959327
0
LINE
8
Layer 1
10
56.567680
20
-55.959327
11
55.350600
21
-57.599737
0
LINE
8
Layer 1
10
55.350600
20
-57.599737
11
53.974770
21
-59.266607
0
LINE
8
Layer 1
10
53.974770
20
-59.266607
11
53.842478
21
-56.885357
0
LINE
8
Layer 1
10
53.842478
20
-56.885357
11
53.974770
21
-54.504107
0
LINE
8
Layer 1
10
53.974770
20
-54.504107
11
55.350600
21
-55.244939
0
LINE
8
Layer 1
10
55.350600
20
-55.244939
11
55.350600
21
-55.244953
0
LINE
8
Layer 1
10
0.000000
20
-63.764600
11
-0.050023
21
-63.963141
0
LINE
8
Layer 1
10
-0.050023
20
-63.963141
11
0.334036
21
-64.107731
0
LINE
8
Layer 1
10
0.334036
20
-64.107731
11
5.609164
21
-64.267308
0
LINE
8
Layer 1
10
5.609164
20
-64.267308
11
56.620800
21
-64.293766
0
LINE
8
Layer 1
10
56.620800
20
-64.293766
11
94.800100
21
-64.293766
0
LINE
8
Layer 1
10
94.800100
20
-64.293766
11
104.384613
21
-64.227620
0
LINE
8
Layer 1
10
104.384613
20
-64.227620
11
105.634764
21
-64.070524
0
LINE
8
Layer 1
10
105.634764
20
-64.070524
11
105.804055
21
-63.939266
0
LINE
8
Layer 1
10
105.804055
20
-63.939266
11
105.833200
21
-63.764600
0
LINE
8
Layer 1
10
105.833200
20
-63.764600
11
105.722251
21
-63.589934
0
LINE
8
Layer 1
10
105.722251
20
-63.589934
11
104.980333
21
-63.458676
0
LINE
8
Layer 1
10
104.980333
20
-63.458676
11
99.149172
21
-63.301580
0
LINE
8
Layer 1
10
99.149172
20
-63.301580
11
52.916600
21
-63.235434
0
LINE
8
Layer 1
10
52.916600
20
-63.235434
11
6.684025
21
-63.301580
0
LINE
8
Layer 1
10
6.684025
20
-63.301580
11
0.852866
21
-63.458676
0
LINE
8
Layer 1
10
0.852866
20
-63.458676
11
0.110949
21
-63.589934
0
LINE
8
Layer 1
10
0.110949
20
-63.589934
11
0.000000
21
-63.764600
0
LINE
8
Layer 1
10
0.000000
20
-63.764600
11
0.000000
21
-63.764600
 0 
ENDSEC
 0 
EOF