999
"DXF R12 Output" (www.mydxf.blogspot.com)
 0 
SECTION
 2 
HEADER
 9 
$ACADVER
 1 
AC1009
 9 
$EXTMIN
 10 
 0 
 20 
 0 
 9 
$EXTMAX
 10 
 8.5 
 20 
 11 
 0 
ENDSEC
 0 
SECTION
 2 
ENTITIES
0
LINE
8
Layer 1
10
228.247000
20
220.486000
11
225.017429
21
219.677712
0
LINE
8
Layer 1
10
225.017429
20
219.677712
11
221.949919
21
218.669745
0
LINE
8
Layer 1
10
221.949919
20
218.669745
11
219.014702
21
217.444323
0
LINE
8
Layer 1
10
219.014702
20
217.444323
11
216.182014
21
215.983670
0
LINE
8
Layer 1
10
216.182014
20
215.983670
11
213.422086
21
214.270008
0
LINE
8
Layer 1
10
213.422086
20
214.270008
11
210.705152
21
212.285560
0
LINE
8
Layer 1
10
210.705152
20
212.285560
11
208.001446
21
210.012550
0
LINE
8
Layer 1
10
208.001446
20
210.012550
11
205.281200
21
207.433200
0
LINE
8
Layer 1
10
205.281200
20
207.433200
11
201.256774
21
203.069226
0
LINE
8
Layer 1
10
201.256774
20
203.069226
11
199.546971
21
200.917625
0
LINE
8
Layer 1
10
199.546971
20
200.917625
11
198.009560
21
198.741631
0
LINE
8
Layer 1
10
198.009560
20
198.741631
11
196.622629
21
196.507759
0
LINE
8
Layer 1
10
196.622629
20
196.507759
11
195.364266
21
194.182521
0
LINE
8
Layer 1
10
195.364266
20
194.182521
11
193.145600
21
189.124000
0
LINE
8
Layer 1
10
193.145600
20
189.124000
11
192.230032
21
186.321618
0
LINE
8
Layer 1
10
192.230032
20
186.321618
11
191.615426
21
183.611845
0
LINE
8
Layer 1
10
191.615426
20
183.611845
11
191.324935
21
181.126974
0
LINE
8
Layer 1
10
191.324935
20
181.126974
11
191.381710
21
178.999300
0
LINE
8
Layer 1
10
191.381710
20
178.999300
11
191.469904
21
177.917817
0
LINE
8
Layer 1
10
191.469904
20
177.917817
11
191.372890
21
177.014925
0
LINE
8
Layer 1
10
191.372890
20
177.014925
11
191.024521
21
175.992971
0
LINE
8
Layer 1
10
191.024521
20
175.992971
11
190.358650
21
174.554300
0
LINE
8
Layer 1
10
190.358650
20
174.554300
11
189.142119
21
171.695147
0
LINE
8
Layer 1
10
189.142119
20
171.695147
11
188.272851
21
168.720241
0
LINE
8
Layer 1
10
188.272851
20
168.720241
11
187.714468
21
165.460915
0
LINE
8
Layer 1
10
187.714468
20
165.460915
11
187.430590
21
161.748500
0
LINE
8
Layer 1
10
187.430590
20
161.748500
11
187.428936
21
157.615909
0
LINE
8
Layer 1
10
187.428936
20
157.615909
11
187.767934
21
153.525484
0
LINE
8
Layer 1
10
187.767934
20
153.525484
11
188.447583
21
149.476399
0
LINE
8
Layer 1
10
188.447583
20
149.476399
11
189.467883
21
145.467825
0
LINE
8
Layer 1
10
189.467883
20
145.467825
11
190.828835
21
141.498936
0
LINE
8
Layer 1
10
190.828835
20
141.498936
11
192.530438
21
137.568903
0
LINE
8
Layer 1
10
192.530438
20
137.568903
11
194.572693
21
133.676900
0
LINE
8
Layer 1
10
194.572693
20
133.676900
11
196.955600
21
129.822100
0
LINE
8
Layer 1
10
196.955600
20
129.822100
11
200.177799
21
125.411631
0
LINE
8
Layer 1
10
200.177799
20
125.411631
11
203.822094
21
121.128902
0
LINE
8
Layer 1
10
203.822094
20
121.128902
11
207.784716
21
117.061969
0
LINE
8
Layer 1
10
207.784716
20
117.061969
11
211.961900
21
113.298888
0
LINE
8
Layer 1
10
211.961900
20
113.298888
11
216.249877
21
109.927714
0
LINE
8
Layer 1
10
216.249877
20
109.927714
11
220.544881
21
107.036505
0
LINE
8
Layer 1
10
220.544881
20
107.036505
11
224.743145
21
104.713315
0
LINE
8
Layer 1
10
224.743145
20
104.713315
11
228.740900
21
103.046200
0
LINE
8
Layer 1
10
228.740900
20
103.046200
11
230.540070
21
102.411200
0
LINE
8
Layer 1
10
230.540070
20
102.411200
11
230.645903
21
90.169800
0
LINE
8
Layer 1
10
230.645903
20
90.169800
11
230.716459
21
77.963700
0
LINE
8
Layer 1
10
230.716459
20
77.963700
11
191.134759
21
77.963700
0
LINE
8
Layer 1
10
191.134759
20
77.963700
11
147.743059
21
78.210645
0
LINE
8
Layer 1
10
147.743059
20
78.210645
11
143.933059
21
78.422312
0
LINE
8
Layer 1
10
143.933059
20
78.422312
11
143.968336
21
84.983982
0
LINE
8
Layer 1
10
143.968336
20
84.983982
11
143.968336
21
91.545652
0
LINE
8
Layer 1
10
143.968336
20
91.545652
11
149.330566
21
94.191482
0
LINE
8
Layer 1
10
149.330566
20
94.191482
11
154.899988
21
97.199053
0
LINE
8
Layer 1
10
154.899988
20
97.199053
11
160.303624
21
100.637401
0
LINE
8
Layer 1
10
160.303624
20
100.637401
11
165.451765
21
104.424670
0
LINE
8
Layer 1
10
165.451765
20
104.424670
11
170.254704
21
108.479005
0
LINE
8
Layer 1
10
170.254704
20
108.479005
11
174.622731
21
112.718549
0
LINE
8
Layer 1
10
174.622731
20
112.718549
11
178.466140
21
117.061447
0
LINE
8
Layer 1
10
178.466140
20
117.061447
11
181.695221
21
121.425843
0
LINE
8
Layer 1
10
181.695221
20
121.425843
11
183.051355
21
123.590523
0
LINE
8
Layer 1
10
183.051355
20
123.590523
11
184.220266
21
125.729882
0
LINE
8
Layer 1
10
184.220266
20
125.729882
11
185.430529
21
128.379022
0
LINE
8
Layer 1
10
185.430529
20
128.379022
11
186.414656
21
131.061233
0
LINE
8
Layer 1
10
186.414656
20
131.061233
11
187.171406
21
133.776517
0
LINE
8
Layer 1
10
187.171406
20
133.776517
11
187.699540
21
136.524875
0
LINE
8
Layer 1
10
187.699540
20
136.524875
11
187.997817
21
139.306308
0
LINE
8
Layer 1
10
187.997817
20
139.306308
11
188.064997
21
142.120820
0
LINE
8
Layer 1
10
188.064997
20
142.120820
11
187.899841
21
144.968410
0
LINE
8
Layer 1
10
187.899841
20
144.968410
11
187.501106
21
147.849082
0
LINE
8
Layer 1
10
187.501106
20
147.849082
11
186.303866
21
152.618752
0
LINE
8
Layer 1
10
186.303866
20
152.618752
11
184.167355
21
158.939545
0
LINE
8
Layer 1
10
184.167355
20
158.939545
11
181.290009
21
166.259130
0
LINE
8
Layer 1
10
181.290009
20
166.259130
11
177.870266
21
174.025182
0
LINE
8
Layer 1
10
177.870266
20
174.025182
11
176.723738
21
176.869452
0
LINE
8
Layer 1
10
176.723738
20
176.869452
11
176.000546
21
179.316852
0
LINE
8
Layer 1
10
176.000546
20
179.316852
11
175.463044
21
181.707334
0
LINE
8
Layer 1
10
175.463044
20
181.707334
11
174.670465
21
184.397951
0
LINE
8
Layer 1
10
174.670465
20
184.397951
11
172.477179
21
190.305873
0
LINE
8
Layer 1
10
172.477179
20
190.305873
11
169.734881
21
196.293185
0
LINE
8
Layer 1
10
169.734881
20
196.293185
11
166.757766
21
201.612452
0
LINE
8
Layer 1
10
166.757766
20
201.612452
11
163.305916
21
206.572780
0
LINE
8
Layer 1
10
163.305916
20
206.572780
11
159.734176
21
210.795166
0
LINE
8
Layer 1
10
159.734176
20
210.795166
11
156.097943
21
214.246123
0
LINE
8
Layer 1
10
156.097943
20
214.246123
11
154.272953
21
215.671851
0
LINE
8
Layer 1
10
154.272953
20
215.671851
11
152.452614
21
216.892165
0
LINE
8
Layer 1
10
152.452614
20
216.892165
11
150.643850
21
217.902878
0
LINE
8
Layer 1
10
150.643850
20
217.902878
11
148.853585
21
218.699805
0
LINE
8
Layer 1
10
148.853585
20
218.699805
11
147.088745
21
219.278759
0
LINE
8
Layer 1
10
147.088745
20
219.278759
11
145.356253
21
219.635557
0
LINE
8
Layer 1
10
145.356253
20
219.635557
11
143.663035
21
219.766010
0
LINE
8
Layer 1
10
143.663035
20
219.766010
11
142.016015
21
219.665935
0
LINE
8
Layer 1
10
142.016015
20
219.665935
11
140.422117
21
219.331144
0
LINE
8
Layer 1
10
140.422117
20
219.331144
11
138.888266
21
218.757452
0
LINE
8
Layer 1
10
138.888266
20
218.757452
11
135.269673
21
216.765496
0
LINE
8
Layer 1
10
135.269673
20
216.765496
11
131.337712
21
214.033534
0
LINE
8
Layer 1
10
131.337712
20
214.033534
11
127.199046
21
210.664917
0
LINE
8
Layer 1
10
127.199046
20
210.664917
11
122.960335
21
206.763000
0
LINE
8
Layer 1
10
122.960335
20
206.763000
11
118.728241
21
202.431132
0
LINE
8
Layer 1
10
118.728241
20
202.431132
11
114.609423
21
197.772667
0
LINE
8
Layer 1
10
114.609423
20
197.772667
11
110.710545
21
192.890956
0
LINE
8
Layer 1
10
110.710545
20
192.890956
11
107.138266
21
187.889352
0
LINE
8
Layer 1
10
107.138266
20
187.889352
11
104.102860
21
183.175076
0
LINE
8
Layer 1
10
104.102860
20
183.175076
11
101.270024
21
178.406232
0
LINE
8
Layer 1
10
101.270024
20
178.406232
11
98.683582
21
173.673769
0
LINE
8
Layer 1
10
98.683582
20
173.673769
11
96.387356
21
169.068640
0
LINE
8
Layer 1
10
96.387356
20
169.068640
11
94.425170
21
164.681792
0
LINE
8
Layer 1
10
94.425170
20
164.681792
11
92.840844
21
160.604179
0
LINE
8
Layer 1
10
92.840844
20
160.604179
11
91.678202
21
156.926748
0
LINE
8
Layer 1
10
91.678202
20
156.926748
11
90.981066
21
153.740452
0
LINE
8
Layer 1
10
90.981066
20
153.740452
11
90.724200
21
150.390159
0
LINE
8
Layer 1
10
90.724200
20
150.390159
11
90.778219
21
146.226275
0
LINE
8
Layer 1
10
90.778219
20
146.226275
11
91.110051
21
141.983029
0
LINE
8
Layer 1
10
91.110051
20
141.983029
11
91.686622
21
138.394652
0
LINE
8
Layer 1
10
91.686622
20
138.394652
11
92.707611
21
134.586365
0
LINE
8
Layer 1
10
92.707611
20
134.586365
11
94.013854
21
130.914097
0
LINE
8
Layer 1
10
94.013854
20
130.914097
11
95.629329
21
127.338572
0
LINE
8
Layer 1
10
95.629329
20
127.338572
11
97.578015
21
123.820515
0
LINE
8
Layer 1
10
97.578015
20
123.820515
11
99.883889
21
120.320649
0
LINE
8
Layer 1
10
99.883889
20
120.320649
11
102.570930
21
116.799700
0
LINE
8
Layer 1
10
102.570930
20
116.799700
11
105.663115
21
113.218393
0
LINE
8
Layer 1
10
105.663115
20
113.218393
11
109.184422
21
109.537452
0
LINE
8
Layer 1
10
109.184422
20
109.537452
11
112.612986
21
106.242491
0
LINE
8
Layer 1
10
112.612986
20
106.242491
11
116.127541
21
103.147209
0
LINE
8
Layer 1
10
116.127541
20
103.147209
11
119.691706
21
100.275997
0
LINE
8
Layer 1
10
119.691706
20
100.275997
11
123.269100
21
97.653245
0
LINE
8
Layer 1
10
123.269100
20
97.653245
11
126.823340
21
95.303343
0
LINE
8
Layer 1
10
126.823340
20
95.303343
11
130.318045
21
93.250684
0
LINE
8
Layer 1
10
130.318045
20
93.250684
11
133.716833
21
91.519656
0
LINE
8
Layer 1
10
133.716833
20
91.519656
11
136.983322
21
90.134652
0
LINE
8
Layer 1
10
136.983322
20
90.134652
11
138.641382
21
89.499652
0
LINE
8
Layer 1
10
138.641382
20
89.499652
11
138.570827
21
83.467152
0
LINE
8
Layer 1
10
138.570827
20
83.467152
11
138.464994
21
77.469922
0
LINE
8
Layer 1
10
138.464994
20
77.469922
11
132.114994
21
76.482144
0
LINE
8
Layer 1
10
132.114994
20
76.482144
11
119.349958
21
74.597539
0
LINE
8
Layer 1
10
119.349958
20
74.597539
11
108.972781
21
73.285094
0
LINE
8
Layer 1
10
108.972781
20
73.285094
11
98.966011
21
72.309992
0
LINE
8
Layer 1
10
98.966011
20
72.309992
11
87.312194
21
71.437414
0
LINE
8
Layer 1
10
87.312194
20
71.437414
11
68.791394
21
70.202694
0
LINE
8
Layer 1
10
68.791394
20
70.202694
11
60.337944
21
69.704395
0
LINE
8
Layer 1
10
60.337944
20
69.704395
11
54.609694
21
69.497138
0
LINE
8
Layer 1
10
54.609694
20
69.497138
11
50.799694
21
69.497138
0
LINE
8
Layer 1
10
50.799694
20
69.497138
11
50.799694
21
77.752148
0
LINE
8
Layer 1
10
50.799694
20
77.752148
11
50.751187
21
83.740556
0
LINE
8
Layer 1
10
50.751187
20
83.740556
11
50.623305
21
86.501038
0
LINE
8
Layer 1
10
50.623305
20
86.501038
11
50.834971
21
86.958547
0
LINE
8
Layer 1
10
50.834971
20
86.958547
11
51.681638
21
87.806316
0
LINE
8
Layer 1
10
51.681638
20
87.806316
11
55.279975
21
90.699098
0
LINE
8
Layer 1
10
55.279975
20
90.699098
11
63.947301
21
97.610240
0
LINE
8
Layer 1
10
63.947301
20
97.610240
11
72.151587
21
104.819038
0
LINE
8
Layer 1
10
72.151587
20
104.819038
11
79.072642
21
111.564816
0
LINE
8
Layer 1
10
79.072642
20
111.564816
11
81.795648
21
114.526361
0
LINE
8
Layer 1
10
81.795648
20
114.526361
11
83.890275
21
117.086898
0
LINE
8
Layer 1
10
83.890275
20
117.086898
11
85.381382
21
119.178827
0
LINE
8
Layer 1
10
85.381382
20
119.178827
11
86.631470
21
121.181871
0
LINE
8
Layer 1
10
86.631470
20
121.181871
11
87.647567
21
123.116288
0
LINE
8
Layer 1
10
87.647567
20
123.116288
11
88.436701
21
125.002336
0
LINE
8
Layer 1
10
88.436701
20
125.002336
11
89.005900
21
126.860272
0
LINE
8
Layer 1
10
89.005900
20
126.860272
11
89.362192
21
128.710356
0
LINE
8
Layer 1
10
89.362192
20
128.710356
11
89.512604
21
130.572845
0
LINE
8
Layer 1
10
89.512604
20
130.572845
11
89.464165
21
132.467998
0
LINE
8
Layer 1
10
89.464165
20
132.467998
11
89.126614
21
135.674347
0
LINE
8
Layer 1
10
89.126614
20
135.674347
11
88.582771
21
139.134942
0
LINE
8
Layer 1
10
88.582771
20
139.134942
11
86.990309
21
146.380657
0
LINE
8
Layer 1
10
86.990309
20
146.380657
11
84.914982
21
153.328717
0
LINE
8
Layer 1
10
84.914982
20
153.328717
11
83.767558
21
156.417244
0
LINE
8
Layer 1
10
83.767558
20
156.417244
11
82.584995
21
159.102698
0
LINE
8
Layer 1
10
82.584995
20
159.102698
11
81.406220
21
161.211441
0
LINE
8
Layer 1
10
81.406220
20
161.211441
11
79.769382
21
163.676130
0
LINE
8
Layer 1
10
79.769382
20
163.676130
11
75.247200
21
169.522866
0
LINE
8
Layer 1
10
75.247200
20
169.522866
11
69.269815
21
176.341942
0
LINE
8
Layer 1
10
69.269815
20
176.341942
11
62.088595
21
183.832398
0
LINE
8
Layer 1
10
62.088595
20
183.832398
11
56.511948
21
189.260218
0
LINE
8
Layer 1
10
56.511948
20
189.260218
11
51.924181
21
193.388274
0
LINE
8
Layer 1
10
51.924181
20
193.388274
11
48.202921
21
196.319092
0
LINE
8
Layer 1
10
48.202921
20
196.319092
11
45.225795
21
198.155198
0
LINE
8
Layer 1
10
45.225795
20
198.155198
11
43.695068
21
198.903198
0
LINE
8
Layer 1
10
43.695068
20
198.903198
11
42.663744
21
199.244401
0
LINE
8
Layer 1
10
42.663744
20
199.244401
11
41.678722
21
199.261489
0
LINE
8
Layer 1
10
41.678722
20
199.261489
11
40.286905
21
199.037143
0
LINE
8
Layer 1
10
40.286905
20
199.037143
11
37.522009
21
198.327728
0
LINE
8
Layer 1
10
37.522009
20
198.327728
11
34.889407
21
197.118912
0
LINE
8
Layer 1
10
34.889407
20
197.118912
11
32.309729
21
195.361086
0
LINE
8
Layer 1
10
32.309729
20
195.361086
11
29.703605
21
193.004643
0
LINE
8
Layer 1
10
29.703605
20
193.004643
11
25.772334
21
188.663261
0
LINE
8
Layer 1
10
25.772334
20
188.663261
11
21.457420
21
183.197396
0
LINE
8
Layer 1
10
21.457420
20
183.197396
11
17.102823
21
177.070078
0
LINE
8
Layer 1
10
17.102823
20
177.070078
11
13.052505
21
170.744343
0
LINE
8
Layer 1
10
13.052505
20
170.744343
11
9.723161
21
164.709630
0
LINE
8
Layer 1
10
9.723161
20
164.709630
11
6.367359
21
157.762107
0
LINE
8
Layer 1
10
6.367359
20
157.762107
11
3.487804
21
150.999801
0
LINE
8
Layer 1
10
3.487804
20
150.999801
11
1.587205
21
145.520743
0
LINE
8
Layer 1
10
1.587205
20
145.520743
11
1.112057
21
142.542533
0
LINE
8
Layer 1
10
1.112057
20
142.542533
11
0.828733
21
138.390239
0
LINE
8
Layer 1
10
0.828733
20
138.390239
11
0.783533
21
134.204873
0
LINE
8
Layer 1
10
0.783533
20
134.204873
11
1.022760
21
131.127443
0
LINE
8
Layer 1
10
1.022760
20
131.127443
11
1.780476
21
128.141025
0
LINE
8
Layer 1
10
1.780476
20
128.141025
11
2.983436
21
125.241008
0
LINE
8
Layer 1
10
2.983436
20
125.241008
11
4.732926
21
122.308745
0
LINE
8
Layer 1
10
4.732926
20
122.308745
11
7.130234
21
119.225587
0
LINE
8
Layer 1
10
7.130234
20
119.225587
11
10.276644
21
115.872886
0
LINE
8
Layer 1
10
10.276644
20
115.872886
11
14.273444
21
112.131994
0
LINE
8
Layer 1
10
14.273444
20
112.131994
11
19.221921
21
107.884262
0
LINE
8
Layer 1
10
19.221921
20
107.884262
11
25.223360
21
103.011043
0
LINE
8
Layer 1
10
25.223360
20
103.011043
11
37.288360
21
93.697703
0
LINE
8
Layer 1
10
37.288360
20
93.697703
11
43.003360
21
89.429093
0
LINE
8
Layer 1
10
43.003360
20
89.429093
11
43.038638
21
79.480753
0
LINE
8
Layer 1
10
43.038638
20
79.480753
11
43.038638
21
69.497133
0
LINE
8
Layer 1
10
43.038638
20
69.497133
11
21.519138
21
69.497133
0
LINE
8
Layer 1
10
21.519138
20
69.497133
11
-0.000362
21
69.497133
0
LINE
8
Layer 1
10
-0.000362
20
69.497133
11
-0.000362
21
68.438803
0
LINE
8
Layer 1
10
-0.000362
20
68.438803
11
-0.000362
21
67.380473
0
LINE
8
Layer 1
10
-0.000362
20
67.380473
11
21.519138
21
67.380473
0
LINE
8
Layer 1
10
21.519138
20
67.380473
11
43.038638
21
67.380473
0
LINE
8
Layer 1
10
43.038638
20
67.380473
11
43.038638
21
58.561023
0
LINE
8
Layer 1
10
43.038638
20
58.561023
11
42.950443
21
50.923381
0
LINE
8
Layer 1
10
42.950443
20
50.923381
11
42.740981
21
49.909143
0
LINE
8
Layer 1
10
42.740981
20
49.909143
11
42.565970
21
49.767480
0
LINE
8
Layer 1
10
42.565970
20
49.767480
11
42.333082
21
49.741573
0
LINE
8
Layer 1
10
42.333082
20
49.741573
11
22.185057
21
48.317231
0
LINE
8
Layer 1
10
22.185057
20
48.317231
11
1.693082
21
46.707683
0
LINE
8
Layer 1
10
1.693082
20
46.707683
11
0.277560
21
46.399003
0
LINE
8
Layer 1
10
0.277560
20
46.399003
11
0.051013
21
46.102449
0
LINE
8
Layer 1
10
0.051013
20
46.102449
11
-0.000248
21
45.614073
0
LINE
8
Layer 1
10
-0.000248
20
45.614073
11
-0.000248
21
44.696850
0
LINE
8
Layer 1
10
-0.000248
20
44.696850
11
3.104202
21
44.943795
0
LINE
8
Layer 1
10
3.104202
20
44.943795
11
18.167802
21
46.037405
0
LINE
8
Layer 1
10
18.167802
20
46.037405
11
38.642164
21
47.461748
0
LINE
8
Layer 1
10
38.642164
20
47.461748
11
43.672016
21
47.699323
0
LINE
8
Layer 1
10
43.672016
20
47.699323
11
46.495902
21
47.695465
0
LINE
8
Layer 1
10
46.495902
20
47.695465
11
49.071182
21
47.554354
0
LINE
8
Layer 1
10
49.071182
20
47.554354
11
48.965349
21
44.873244
0
LINE
8
Layer 1
10
48.965349
20
44.873244
11
48.859516
21
42.156854
0
LINE
8
Layer 1
10
48.859516
20
42.156854
11
24.412016
21
42.192132
0
LINE
8
Layer 1
10
24.412016
20
42.192132
11
-0.000184
21
42.227410
0
LINE
8
Layer 1
10
-0.000184
20
42.227410
11
-0.000184
21
41.204350
0
LINE
8
Layer 1
10
-0.000184
20
41.204350
11
-0.000184
21
40.216572
0
LINE
8
Layer 1
10
-0.000184
20
40.216572
11
25.329316
21
40.287127
0
LINE
8
Layer 1
10
25.329316
20
40.287127
11
50.623516
21
40.392960
0
LINE
8
Layer 1
10
50.623516
20
40.392960
11
50.729349
21
44.061850
0
LINE
8
Layer 1
10
50.729349
20
44.061850
11
50.835182
21
47.730740
0
LINE
8
Layer 1
10
50.835182
20
47.730740
11
54.609902
21
47.483795
0
LINE
8
Layer 1
10
54.609902
20
47.483795
11
67.733202
21
46.919350
0
LINE
8
Layer 1
10
67.733202
20
46.919350
11
87.665202
21
46.037405
0
LINE
8
Layer 1
10
87.665202
20
46.037405
11
122.237402
21
44.449905
0
LINE
8
Layer 1
10
122.237402
20
44.449905
11
137.054102
21
43.744349
0
LINE
8
Layer 1
10
137.054102
20
43.744349
11
150.812402
21
43.215182
0
LINE
8
Layer 1
10
150.812402
20
43.215182
11
170.991302
21
42.650737
0
LINE
8
Layer 1
10
170.991302
20
42.650737
11
179.358209
21
42.403793
0
LINE
8
Layer 1
10
179.358209
20
42.403793
11
182.369845
21
42.425015
0
LINE
8
Layer 1
10
182.369845
20
42.425015
11
185.300864
21
42.606640
0
LINE
8
Layer 1
10
185.300864
20
42.606640
11
193.022838
21
43.642926
0
LINE
8
Layer 1
10
193.022838
20
43.642926
11
206.727702
21
45.896297
0
LINE
8
Layer 1
10
206.727702
20
45.896297
11
218.403545
21
47.910441
0
LINE
8
Layer 1
10
218.403545
20
47.910441
11
225.125077
21
49.335885
0
LINE
8
Layer 1
10
225.125077
20
49.335885
11
227.076522
21
49.945667
0
LINE
8
Layer 1
10
227.076522
20
49.945667
11
228.327645
21
50.549660
0
LINE
8
Layer 1
10
228.327645
20
50.549660
11
229.057866
21
51.194994
0
LINE
8
Layer 1
10
229.057866
20
51.194994
11
229.446602
21
51.928797
0
LINE
8
Layer 1
10
229.446602
20
51.928797
11
229.628296
21
52.729369
0
LINE
8
Layer 1
10
229.628296
20
52.729369
11
229.590469
21
53.465035
0
LINE
8
Layer 1
10
229.590469
20
53.465035
11
229.331880
21
54.137036
0
LINE
8
Layer 1
10
229.331880
20
54.137036
11
228.851289
21
54.746612
0
LINE
8
Layer 1
10
228.851289
20
54.746612
11
228.147456
21
55.295003
0
LINE
8
Layer 1
10
228.147456
20
55.295003
11
227.219140
21
55.783449
0
LINE
8
Layer 1
10
227.219140
20
55.783449
11
224.684102
21
56.585467
0
LINE
8
Layer 1
10
224.684102
20
56.585467
11
223.102802
21
56.849568
0
LINE
8
Layer 1
10
223.102802
20
56.849568
11
220.348241
21
57.097547
0
LINE
8
Layer 1
10
220.348241
20
57.097547
11
209.444100
21
57.612934
0
LINE
8
Layer 1
10
209.444100
20
57.612934
11
152.929102
21
59.196027
0
LINE
8
Layer 1
10
152.929102
20
59.196027
11
144.109652
21
59.442972
0
LINE
8
Layer 1
10
144.109652
20
59.442972
11
144.003819
21
67.839092
0
LINE
8
Layer 1
10
144.003819
20
67.839092
11
143.933263
21
76.199932
0
LINE
8
Layer 1
10
143.933263
20
76.199932
11
187.324963
21
76.199932
0
LINE
8
Layer 1
10
187.324963
20
76.199932
11
230.716663
21
76.199932
0
LINE
8
Layer 1
10
230.716663
20
76.199932
11
230.646107
21
68.156592
0
LINE
8
Layer 1
10
230.646107
20
68.156592
11
230.540274
21
60.148532
0
LINE
8
Layer 1
10
230.540274
20
60.148532
11
229.411384
21
60.042699
0
LINE
8
Layer 1
10
229.411384
20
60.042699
11
228.470460
21
59.823315
0
LINE
8
Layer 1
10
228.470460
20
59.823315
11
227.863572
21
59.425337
0
LINE
8
Layer 1
10
227.863572
20
59.425337
11
227.660173
21
58.921525
0
LINE
8
Layer 1
10
227.660173
20
58.921525
11
227.929714
21
58.384639
0
LINE
8
Layer 1
10
227.929714
20
58.384639
11
228.599992
21
57.987764
0
LINE
8
Layer 1
10
228.599992
20
57.987764
11
229.481934
21
57.749639
0
LINE
8
Layer 1
10
229.481934
20
57.749639
11
230.540264
21
57.608528
0
LINE
8
Layer 1
10
230.540264
20
57.608528
11
230.716653
21
50.552968
0
LINE
8
Layer 1
10
230.716653
20
50.552968
11
230.963598
21
44.564564
0
LINE
8
Layer 1
10
230.963598
20
44.564564
11
231.182982
21
43.359607
0
LINE
8
Layer 1
10
231.182982
20
43.359607
11
231.528042
21
42.756578
0
LINE
8
Layer 1
10
231.528042
20
42.756578
11
231.700435
21
42.523276
0
LINE
8
Layer 1
10
231.700435
20
42.523276
11
231.610725
21
42.345371
0
LINE
8
Layer 1
10
231.610725
20
42.345371
11
229.861172
21
42.112758
0
LINE
8
Layer 1
10
229.861172
20
42.112758
11
214.594742
21
41.839355
0
LINE
8
Layer 1
10
214.594742
20
41.839355
11
192.122221
21
41.411060
0
LINE
8
Layer 1
10
192.122221
20
41.411060
11
171.630767
21
40.820707
0
LINE
8
Layer 1
10
171.630767
20
40.820707
11
155.881977
21
40.157596
0
LINE
8
Layer 1
10
155.881977
20
40.157596
11
150.649078
21
39.826662
0
LINE
8
Layer 1
10
150.649078
20
39.826662
11
147.637442
21
39.511025
0
LINE
8
Layer 1
10
147.637442
20
39.511025
11
144.909475
21
38.892561
0
LINE
8
Layer 1
10
144.909475
20
38.892561
11
142.429556
21
38.029358
0
LINE
8
Layer 1
10
142.429556
20
38.029358
11
140.339898
21
36.980945
0
LINE
8
Layer 1
10
140.339898
20
36.980945
11
138.782712
21
35.806855
0
LINE
8
Layer 1
10
138.782712
20
35.806855
11
137.944866
21
34.979480
0
LINE
8
Layer 1
10
137.944866
20
34.979480
11
137.477436
21
34.320776
0
LINE
8
Layer 1
10
137.477436
20
34.320776
11
137.274589
21
33.629000
0
LINE
8
Layer 1
10
137.274589
20
33.629000
11
137.230492
21
32.702405
0
LINE
8
Layer 1
10
137.230492
20
32.702405
11
137.276794
21
31.786835
0
LINE
8
Layer 1
10
137.276794
20
31.786835
11
137.468617
21
31.092854
0
LINE
8
Layer 1
10
137.468617
20
31.092854
11
137.885335
21
30.445176
0
LINE
8
Layer 1
10
137.885335
20
30.445176
11
138.606322
21
29.668515
0
LINE
8
Layer 1
10
138.606322
20
29.668515
11
140.171775
21
28.460252
0
LINE
8
Layer 1
10
140.171775
20
28.460252
11
142.028272
21
27.516565
0
LINE
8
Layer 1
10
142.028272
20
27.516565
11
145.489352
21
26.657771
0
LINE
8
Layer 1
10
145.489352
20
26.657771
11
151.301921
21
25.488092
0
LINE
8
Layer 1
10
151.301921
20
25.488092
11
157.134341
21
24.450705
0
LINE
8
Layer 1
10
157.134341
20
24.450705
11
160.654972
21
23.988785
0
LINE
8
Layer 1
10
160.654972
20
23.988785
11
161.622358
21
23.917678
0
LINE
8
Layer 1
10
161.622358
20
23.917678
11
160.826954
21
23.710973
0
LINE
8
Layer 1
10
160.826954
20
23.710973
11
153.987472
21
22.930455
0
LINE
8
Layer 1
10
153.987472
20
22.930455
11
138.638886
21
21.384846
0
LINE
8
Layer 1
10
138.638886
20
21.384846
11
128.803560
21
20.275800
0
LINE
8
Layer 1
10
128.803560
20
20.275800
11
123.075890
21
19.418110
0
LINE
8
Layer 1
10
123.075890
20
19.418110
11
120.050272
21
18.626565
0
LINE
8
Layer 1
10
120.050272
20
18.626565
11
118.259925
21
17.731390
0
LINE
8
Layer 1
10
118.259925
20
17.731390
11
116.734162
21
16.545175
0
LINE
8
Layer 1
10
116.734162
20
16.545175
11
116.013171
21
15.769613
0
LINE
8
Layer 1
10
116.013171
20
15.769613
11
115.596454
21
15.129651
0
LINE
8
Layer 1
10
115.596454
20
15.129651
11
115.404633
21
14.456617
0
LINE
8
Layer 1
10
115.404633
20
14.456617
11
115.358332
21
13.581835
0
LINE
8
Layer 1
10
115.358332
20
13.581835
11
115.482012
21
12.551751
0
LINE
8
Layer 1
10
115.482012
20
12.551751
11
115.851671
21
11.605177
0
LINE
8
Layer 1
10
115.851671
20
11.605177
11
116.465244
21
10.742938
0
LINE
8
Layer 1
10
116.465244
20
10.742938
11
117.320662
21
9.965861
0
LINE
8
Layer 1
10
117.320662
20
9.965861
11
118.415860
21
9.274775
0
LINE
8
Layer 1
10
118.415860
20
9.274775
11
119.748769
21
8.670506
0
LINE
8
Layer 1
10
119.748769
20
8.670506
11
123.119452
21
7.725725
0
LINE
8
Layer 1
10
123.119452
20
7.725725
11
126.485172
21
7.408225
0
LINE
8
Layer 1
10
126.485172
20
7.408225
11
131.497920
21
7.302391
0
LINE
8
Layer 1
10
131.497920
20
7.302391
11
137.039834
21
7.408225
0
LINE
8
Layer 1
10
137.039834
20
7.408225
11
141.993052
21
7.725725
0
LINE
8
Layer 1
10
141.993052
20
7.725725
11
180.679590
21
12.294200
0
LINE
8
Layer 1
10
180.679590
20
12.294200
11
204.109013
21
15.226666
0
LINE
8
Layer 1
10
204.109013
20
15.226666
11
219.604252
21
17.286005
0
LINE
8
Layer 1
10
219.604252
20
17.286005
11
243.593152
21
20.637395
0
LINE
8
Layer 1
10
243.593152
20
20.637395
11
278.954752
21
25.668893
0
LINE
8
Layer 1
10
278.954752
20
25.668893
11
281.282879
21
26.103043
0
LINE
8
Layer 1
10
281.282879
20
26.103043
11
282.204165
21
26.406969
0
LINE
8
Layer 1
10
282.204165
20
26.406969
11
282.317645
21
26.680302
0
LINE
8
Layer 1
10
282.317645
20
26.680302
11
282.222352
21
27.022675
0
LINE
8
Layer 1
10
282.222352
20
27.022675
11
282.068012
21
27.657676
0
LINE
8
Layer 1
10
282.068012
20
27.657676
11
281.622629
21
27.869342
0
LINE
8
Layer 1
10
281.622629
20
27.869342
11
234.103429
21
21.307672
0
LINE
8
Layer 1
10
234.103429
20
21.307672
11
222.144229
21
19.614342
0
LINE
8
Layer 1
10
222.144229
20
19.614342
11
215.582559
21
20.249342
0
LINE
8
Layer 1
10
215.582559
20
20.249342
11
201.965359
21
21.519342
0
LINE
8
Layer 1
10
201.965359
20
21.519342
11
186.619559
21
22.930452
0
LINE
8
Layer 1
10
186.619559
20
22.930452
11
171.428059
21
24.500314
0
LINE
8
Layer 1
10
171.428059
20
24.500314
11
155.151759
21
26.811012
0
LINE
8
Layer 1
10
155.151759
20
26.811012
11
148.736731
21
27.889741
0
LINE
8
Layer 1
10
148.736731
20
27.889741
11
144.497884
21
28.799797
0
LINE
8
Layer 1
10
144.497884
20
28.799797
11
141.846525
21
29.703238
0
LINE
8
Layer 1
10
141.846525
20
29.703238
11
140.932186
21
30.203121
0
LINE
8
Layer 1
10
140.932186
20
30.203121
11
140.193959
21
30.762122
0
LINE
8
Layer 1
10
140.193959
20
30.762122
11
139.333029
21
31.776772
0
LINE
8
Layer 1
10
139.333029
20
31.776772
11
139.041367
21
32.774058
0
LINE
8
Layer 1
10
139.041367
20
32.774058
11
139.302850
21
33.739925
0
LINE
8
Layer 1
10
139.302850
20
33.739925
11
140.101354
21
34.660317
0
LINE
8
Layer 1
10
140.101354
20
34.660317
11
141.420758
21
35.521178
0
LINE
8
Layer 1
10
141.420758
20
35.521178
11
143.244937
21
36.308451
0
LINE
8
Layer 1
10
143.244937
20
36.308451
11
145.557768
21
37.008081
0
LINE
8
Layer 1
10
145.557768
20
37.008081
11
148.343129
21
37.606012
0
LINE
8
Layer 1
10
148.343129
20
37.606012
11
150.723281
21
37.913039
0
LINE
8
Layer 1
10
150.723281
20
37.913039
11
155.107654
21
38.210144
0
LINE
8
Layer 1
10
155.107654
20
38.210144
11
177.165129
21
39.158232
0
LINE
8
Layer 1
10
177.165129
20
39.158232
11
191.491797
21
39.512113
0
LINE
8
Layer 1
10
191.491797
20
39.512113
11
213.488067
21
39.846150
0
LINE
8
Layer 1
10
213.488067
20
39.846150
11
260.949929
21
40.216562
0
LINE
8
Layer 1
10
260.949929
20
40.216562
11
275.338867
21
40.282708
0
LINE
8
Layer 1
10
275.338867
20
40.282708
11
281.658029
21
40.428229
0
LINE
8
Layer 1
10
281.658029
20
40.428229
11
282.059314
21
40.842743
0
LINE
8
Layer 1
10
282.059314
20
40.842743
11
282.222474
21
41.521839
0
LINE
8
Layer 1
10
282.222474
20
41.521839
11
282.222474
21
42.439062
0
LINE
8
Layer 1
10
282.222474
20
42.439062
11
258.586374
21
42.262673
0
LINE
8
Layer 1
10
258.586374
20
42.262673
11
238.089987
21
42.222986
0
LINE
8
Layer 1
10
238.089987
20
42.222986
11
235.627163
21
42.406541
0
LINE
8
Layer 1
10
235.627163
20
42.406541
11
235.433414
21
42.570872
0
LINE
8
Layer 1
10
235.433414
20
42.570872
11
235.585274
21
42.791840
0
LINE
8
Layer 1
10
235.585274
20
42.791840
11
235.900019
21
43.366207
0
LINE
8
Layer 1
10
235.900019
20
43.366207
11
236.065935
21
44.529271
0
LINE
8
Layer 1
10
236.065935
20
44.529271
11
236.043885
21
50.658790
0
LINE
8
Layer 1
10
236.043885
20
50.658790
11
235.938052
21
57.855460
0
LINE
8
Layer 1
10
235.938052
20
57.855460
11
254.388352
21
57.926016
0
LINE
8
Layer 1
10
254.388352
20
57.926016
11
277.565852
21
57.890738
0
LINE
8
Layer 1
10
277.565852
20
57.890738
11
282.222522
21
57.749627
0
LINE
8
Layer 1
10
282.222522
20
57.749627
11
282.222522
21
58.878517
0
LINE
8
Layer 1
10
282.222522
20
58.878517
11
282.222522
21
59.972127
0
LINE
8
Layer 1
10
282.222522
20
59.972127
11
262.749222
21
60.042683
0
LINE
8
Layer 1
10
262.749222
20
60.042683
11
243.240622
21
60.148516
0
LINE
8
Layer 1
10
243.240622
20
60.148516
11
254.000322
21
61.489076
0
LINE
8
Layer 1
10
254.000322
20
61.489076
11
271.992022
21
63.676296
0
LINE
8
Layer 1
10
271.992022
20
63.676296
11
278.234005
21
64.406105
0
LINE
8
Layer 1
10
278.234005
20
64.406105
11
281.234835
21
64.858102
0
LINE
8
Layer 1
10
281.234835
20
64.858102
11
281.887754
21
65.058469
0
LINE
8
Layer 1
10
281.887754
20
65.058469
11
282.171908
21
65.283641
0
LINE
8
Layer 1
10
282.171908
20
65.283641
11
282.222622
21
65.934076
0
LINE
8
Layer 1
10
282.222622
20
65.934076
11
282.222622
21
66.886577
0
LINE
8
Layer 1
10
282.222622
20
66.886577
11
279.859012
21
66.604355
0
LINE
8
Layer 1
10
279.859012
20
66.604355
11
242.005912
21
61.912405
0
LINE
8
Layer 1
10
242.005912
20
61.912405
11
237.067022
21
61.277405
0
LINE
8
Layer 1
10
237.067022
20
61.277405
11
236.185077
21
61.206849
0
LINE
8
Layer 1
10
236.185077
20
61.206849
11
236.185077
21
68.615189
0
LINE
8
Layer 1
10
236.185077
20
68.615189
11
236.185077
21
76.023529
0
LINE
8
Layer 1
10
236.185077
20
76.023529
11
239.183687
21
76.129362
0
LINE
8
Layer 1
10
239.183687
20
76.129362
11
250.446144
21
75.763355
0
LINE
8
Layer 1
10
250.446144
20
75.763355
11
278.800687
21
74.259642
0
LINE
8
Layer 1
10
278.800687
20
74.259642
11
282.222637
21
74.083253
0
LINE
8
Layer 1
10
282.222637
20
74.083253
11
282.222637
21
75.141583
0
LINE
8
Layer 1
10
282.222637
20
75.141583
11
282.222637
21
76.199913
0
LINE
8
Layer 1
10
282.222637
20
76.199913
11
279.118187
21
76.199913
0
LINE
8
Layer 1
10
279.118187
20
76.199913
11
268.076187
21
76.729080
0
LINE
8
Layer 1
10
268.076187
20
76.729080
11
252.262900
21
77.611024
0
LINE
8
Layer 1
10
252.262900
20
77.611024
11
240.418387
21
78.069640
0
LINE
8
Layer 1
10
240.418387
20
78.069640
11
236.185047
21
78.140196
0
LINE
8
Layer 1
10
236.185047
20
78.140196
11
236.185047
21
91.334096
0
LINE
8
Layer 1
10
236.185047
20
91.334096
11
236.277652
21
102.239371
0
LINE
8
Layer 1
10
236.277652
20
102.239371
11
236.438055
21
104.197824
0
LINE
8
Layer 1
10
236.438055
20
104.197824
11
236.714214
21
104.810196
0
LINE
8
Layer 1
10
236.714214
20
104.810196
11
242.887834
21
107.879366
0
LINE
8
Layer 1
10
242.887834
20
107.879366
11
247.545604
21
110.262268
0
LINE
8
Layer 1
10
247.545604
20
110.262268
11
251.469152
21
112.522798
0
LINE
8
Layer 1
10
251.469152
20
112.522798
11
255.379466
21
115.107437
0
LINE
8
Layer 1
10
255.379466
20
115.107437
11
259.997534
21
118.462666
0
LINE
8
Layer 1
10
259.997534
20
118.462666
11
265.775381
21
123.098947
0
LINE
8
Layer 1
10
265.775381
20
123.098947
11
268.196738
21
125.326760
0
LINE
8
Layer 1
10
268.196738
20
125.326760
11
270.342764
21
127.533488
0
LINE
8
Layer 1
10
270.342764
20
127.533488
11
272.240743
21
129.748482
0
LINE
8
Layer 1
10
272.240743
20
129.748482
11
273.917958
21
132.001093
0
LINE
8
Layer 1
10
273.917958
20
132.001093
11
275.401694
21
134.320670
0
LINE
8
Layer 1
10
275.401694
20
134.320670
11
276.719234
21
136.736566
0
LINE
8
Layer 1
10
276.719234
20
136.736566
11
278.063510
21
139.736968
0
LINE
8
Layer 1
10
278.063510
20
139.736968
11
279.132455
21
142.880410
0
LINE
8
Layer 1
10
279.132455
20
142.880410
11
279.925241
21
146.151182
0
LINE
8
Layer 1
10
279.925241
20
146.151182
11
280.441041
21
149.533574
0
LINE
8
Layer 1
10
280.441041
20
149.533574
11
280.679028
21
153.011878
0
LINE
8
Layer 1
10
280.679028
20
153.011878
11
280.638376
21
156.570385
0
LINE
8
Layer 1
10
280.638376
20
156.570385
11
280.318257
21
160.193383
0
LINE
8
Layer 1
10
280.318257
20
160.193383
11
279.717844
21
163.865166
0
LINE
8
Layer 1
10
279.717844
20
163.865166
11
278.930916
21
167.195060
0
LINE
8
Layer 1
10
278.930916
20
167.195060
11
277.887259
21
170.706856
0
LINE
8
Layer 1
10
277.887259
20
170.706856
11
276.617879
21
174.327791
0
LINE
8
Layer 1
10
276.617879
20
174.327791
11
275.153782
21
177.985107
0
LINE
8
Layer 1
10
275.153782
20
177.985107
11
273.525974
21
181.606042
0
LINE
8
Layer 1
10
273.525974
20
181.606042
11
271.765461
21
185.117837
0
LINE
8
Layer 1
10
271.765461
20
185.117837
11
269.903249
21
188.447732
0
LINE
8
Layer 1
10
269.903249
20
188.447732
11
267.970344
21
191.522966
0
LINE
8
Layer 1
10
267.970344
20
191.522966
11
265.809582
21
194.993422
0
LINE
8
Layer 1
10
265.809582
20
194.993422
11
265.400580
21
196.012620
0
LINE
8
Layer 1
10
265.400580
20
196.012620
11
265.289234
21
196.849916
0
LINE
8
Layer 1
10
265.289234
20
196.849916
11
264.962915
21
198.481514
0
LINE
8
Layer 1
10
264.962915
20
198.481514
11
264.054514
21
200.589366
0
LINE
8
Layer 1
10
264.054514
20
200.589366
11
261.801145
21
204.259015
0
LINE
8
Layer 1
10
261.801145
20
204.259015
11
259.011993
21
207.714927
0
LINE
8
Layer 1
10
259.011993
20
207.714927
11
255.769741
21
210.898811
0
LINE
8
Layer 1
10
255.769741
20
210.898811
11
252.157073
21
213.752378
0
LINE
8
Layer 1
10
252.157073
20
213.752378
11
248.256673
21
216.217337
0
LINE
8
Layer 1
10
248.256673
20
216.217337
11
244.151224
21
218.235398
0
LINE
8
Layer 1
10
244.151224
20
218.235398
11
239.923410
21
219.748271
0
LINE
8
Layer 1
10
239.923410
20
219.748271
11
235.655914
21
220.697666
0
LINE
8
Layer 1
10
235.655914
20
220.697666
11
233.327579
21
221.031702
0
LINE
8
Layer 1
10
233.327579
20
221.031702
11
231.845912
21
221.120999
0
LINE
8
Layer 1
10
231.845912
20
221.120999
11
230.417161
21
220.945713
0
LINE
8
Layer 1
10
230.417161
20
220.945713
11
228.247574
21
220.485999
0
LINE
8
Layer 1
10
228.247574
20
220.485999
11
228.247000
21
220.486000
0
LINE
8
Layer 1
10
230.575330
20
218.475170
11
229.811344
21
215.429706
0
LINE
8
Layer 1
10
229.811344
20
215.429706
11
229.093661
21
211.759165
0
LINE
8
Layer 1
10
229.093661
20
211.759165
11
228.481813
21
207.804202
0
LINE
8
Layer 1
10
228.481813
20
207.804202
11
228.035330
21
203.905470
0
LINE
8
Layer 1
10
228.035330
20
203.905470
11
227.798307
21
201.832901
0
LINE
8
Layer 1
10
227.798307
20
201.832901
11
227.409149
21
200.448247
0
LINE
8
Layer 1
10
227.409149
20
200.448247
11
226.636343
21
199.222342
0
LINE
8
Layer 1
10
226.636343
20
199.222342
11
225.248380
21
197.626020
0
LINE
8
Layer 1
10
225.248380
20
197.626020
11
221.991249
21
194.459289
0
LINE
8
Layer 1
10
221.991249
20
194.459289
11
217.950289
21
191.104044
0
LINE
8
Layer 1
10
217.950289
20
191.104044
11
213.545524
21
187.887712
0
LINE
8
Layer 1
10
213.545524
20
187.887712
11
209.196980
21
185.137720
0
LINE
8
Layer 1
10
209.196980
20
185.137720
11
205.017661
21
182.955457
0
LINE
8
Layer 1
10
205.017661
20
182.955457
11
200.315794
21
180.802959
0
LINE
8
Layer 1
10
200.315794
20
180.802959
11
196.209245
21
179.159784
0
LINE
8
Layer 1
10
196.209245
20
179.159784
11
194.728548
21
178.679054
0
LINE
8
Layer 1
10
194.728548
20
178.679054
11
193.815880
21
178.505490
0
LINE
8
Layer 1
10
193.815880
20
178.505490
11
193.523598
21
178.762150
0
LINE
8
Layer 1
10
193.523598
20
178.762150
11
193.356166
21
179.467362
0
LINE
8
Layer 1
10
193.356166
20
179.467362
11
193.366088
21
181.834834
0
LINE
8
Layer 1
10
193.366088
20
181.834834
11
193.786114
21
184.830691
0
LINE
8
Layer 1
10
193.786114
20
184.830691
11
194.556714
21
187.677720
0
LINE
8
Layer 1
10
194.556714
20
187.677720
11
196.204985
21
191.589828
0
LINE
8
Layer 1
10
196.204985
20
191.589828
11
198.284030
21
195.453161
0
LINE
8
Layer 1
10
198.284030
20
195.453161
11
200.741760
21
199.205704
0
LINE
8
Layer 1
10
200.741760
20
199.205704
11
203.526084
21
202.785445
0
LINE
8
Layer 1
10
203.526084
20
202.785445
11
206.584912
21
206.130370
0
LINE
8
Layer 1
10
206.584912
20
206.130370
11
209.866153
21
209.178467
0
LINE
8
Layer 1
10
209.866153
20
209.178467
11
213.317717
21
211.867721
0
LINE
8
Layer 1
10
213.317717
20
211.867721
11
216.887514
21
214.136120
0
LINE
8
Layer 1
10
216.887514
20
214.136120
11
219.361920
21
215.417696
0
LINE
8
Layer 1
10
219.361920
20
215.417696
11
221.998389
21
216.583517
0
LINE
8
Layer 1
10
221.998389
20
216.583517
11
224.681171
21
217.583975
0
LINE
8
Layer 1
10
224.681171
20
217.583975
11
227.294514
21
218.369460
0
LINE
8
Layer 1
10
227.294514
20
218.369460
11
230.231392
21
219.017689
0
LINE
8
Layer 1
10
230.231392
20
219.017689
11
230.618346
21
218.890358
0
LINE
8
Layer 1
10
230.618346
20
218.890358
11
230.575354
21
218.475293
0
LINE
8
Layer 1
10
230.575354
20
218.475293
11
230.575330
21
218.475170
0
LINE
8
Layer 1
10
240.417840
20
217.593225
11
242.745142
21
216.708456
0
LINE
8
Layer 1
10
242.745142
20
216.708456
11
245.119159
21
215.608299
0
LINE
8
Layer 1
10
245.119159
20
215.608299
11
247.494004
21
214.322106
0
LINE
8
Layer 1
10
247.494004
20
214.322106
11
249.823788
21
212.879229
0
LINE
8
Layer 1
10
249.823788
20
212.879229
11
252.062621
21
211.309020
0
LINE
8
Layer 1
10
252.062621
20
211.309020
11
254.164617
21
209.640832
0
LINE
8
Layer 1
10
254.164617
20
209.640832
11
256.083886
21
207.904016
0
LINE
8
Layer 1
10
256.083886
20
207.904016
11
257.774540
21
206.127925
0
LINE
8
Layer 1
10
257.774540
20
206.127925
11
259.923180
21
203.493115
0
LINE
8
Layer 1
10
259.923180
20
203.493115
11
261.760932
21
200.871534
0
LINE
8
Layer 1
10
261.760932
20
200.871534
11
263.043058
21
198.646828
0
LINE
8
Layer 1
10
263.043058
20
198.646828
11
263.524820
21
197.202645
0
LINE
8
Layer 1
10
263.524820
20
197.202645
11
263.282079
21
197.203954
0
LINE
8
Layer 1
10
263.282079
20
197.203954
11
262.594920
21
197.550462
0
LINE
8
Layer 1
10
262.594920
20
197.550462
11
260.133745
21
199.112054
0
LINE
8
Layer 1
10
260.133745
20
199.112054
11
252.588720
21
204.540425
0
LINE
8
Layer 1
10
252.588720
20
204.540425
11
243.747226
21
211.719448
0
LINE
8
Layer 1
10
243.747226
20
211.719448
11
235.831720
21
218.475125
0
LINE
8
Layer 1
10
235.831720
20
218.475125
11
235.781353
21
218.605074
0
LINE
8
Layer 1
10
235.781353
20
218.605074
11
235.977792
21
218.654821
0
LINE
8
Layer 1
10
235.977792
20
218.654821
11
236.973837
21
218.536861
0
LINE
8
Layer 1
10
236.973837
20
218.536861
11
240.417830
21
217.593180
0
LINE
8
Layer 1
10
240.417830
20
217.593180
11
240.417840
21
217.593225
0
LINE
8
Layer 1
10
149.013040
20
216.499615
11
150.764838
21
215.565477
0
LINE
8
Layer 1
10
150.764838
20
215.565477
11
152.510227
21
214.448819
0
LINE
8
Layer 1
10
152.510227
20
214.448819
11
155.956148
21
211.701839
0
LINE
8
Layer 1
10
155.956148
20
211.701839
11
159.299543
21
208.326474
0
LINE
8
Layer 1
10
159.299543
20
208.326474
11
162.489148
21
204.390522
0
LINE
8
Layer 1
10
162.489148
20
204.390522
11
165.473702
21
199.961782
0
LINE
8
Layer 1
10
165.473702
20
199.961782
11
168.201943
21
195.108052
0
LINE
8
Layer 1
10
168.201943
20
195.108052
11
170.622610
21
189.897130
0
LINE
8
Layer 1
10
170.622610
20
189.897130
11
172.684440
21
184.396815
0
LINE
8
Layer 1
10
172.684440
20
184.396815
11
173.813330
21
180.913134
0
LINE
8
Layer 1
10
173.813330
20
180.913134
11
174.201390
21
179.387365
0
LINE
8
Layer 1
10
174.201390
20
179.387365
11
171.427672
21
180.789659
0
LINE
8
Layer 1
10
171.427672
20
180.789659
11
164.923330
21
184.361535
0
LINE
8
Layer 1
10
164.923330
20
184.361535
11
150.283030
21
192.440155
0
LINE
8
Layer 1
10
150.283030
20
192.440155
11
144.391640
21
195.720995
0
LINE
8
Layer 1
10
144.391640
20
195.720995
11
144.234544
21
195.933764
0
LINE
8
Layer 1
10
144.234544
20
195.933764
11
144.193203
21
196.338356
0
LINE
8
Layer 1
10
144.193203
20
196.338356
11
144.497473
21
197.908215
0
LINE
8
Layer 1
10
144.497473
20
197.908215
11
144.828064
21
199.794541
0
LINE
8
Layer 1
10
144.828064
20
199.794541
11
145.005693
21
202.144300
0
LINE
8
Layer 1
10
145.005693
20
202.144300
11
144.938445
21
207.587544
0
LINE
8
Layer 1
10
144.938445
20
207.587544
11
144.368488
21
212.944798
0
LINE
8
Layer 1
10
144.368488
20
212.944798
11
143.917732
21
215.187070
0
LINE
8
Layer 1
10
143.917732
20
215.187070
11
143.368583
21
216.922915
0
LINE
8
Layer 1
10
143.368583
20
216.922915
11
142.874694
21
218.122365
0
LINE
8
Layer 1
10
142.874694
20
218.122365
11
144.709144
21
217.910698
0
LINE
8
Layer 1
10
144.709144
20
217.910698
11
146.715569
21
217.390351
0
LINE
8
Layer 1
10
146.715569
20
217.390351
11
149.013034
21
216.499588
0
LINE
8
Layer 1
10
149.013034
20
216.499588
11
149.013040
21
216.499615
0
LINE
8
Layer 1
10
239.712240
20
212.724895
11
245.096508
21
208.109013
0
LINE
8
Layer 1
10
245.096508
20
208.109013
11
251.300981
21
203.155786
0
LINE
8
Layer 1
10
251.300981
20
203.155786
11
257.293784
21
198.665589
0
LINE
8
Layer 1
10
257.293784
20
198.665589
11
262.043040
21
195.438795
0
LINE
8
Layer 1
10
262.043040
20
195.438795
11
262.999399
21
194.823638
0
LINE
8
Layer 1
10
262.999399
20
194.823638
11
263.555578
21
194.327545
0
LINE
8
Layer 1
10
263.555578
20
194.327545
11
263.814099
21
193.831451
0
LINE
8
Layer 1
10
263.814099
20
193.831451
11
263.877490
21
193.216295
0
LINE
8
Layer 1
10
263.877490
20
193.216295
11
264.420438
21
189.969634
0
LINE
8
Layer 1
10
264.420438
20
189.969634
11
265.892736
21
183.700107
0
LINE
8
Layer 1
10
265.892736
20
183.700107
11
270.686110
21
165.770195
0
LINE
8
Layer 1
10
270.686110
20
165.770195
11
271.074166
21
164.464915
0
LINE
8
Layer 1
10
271.074166
20
164.464915
11
267.758056
21
161.360465
0
LINE
8
Layer 1
10
267.758056
20
161.360465
11
265.089140
21
158.688653
0
LINE
8
Layer 1
10
265.089140
20
158.688653
11
262.275119
21
155.636087
0
LINE
8
Layer 1
10
262.275119
20
155.636087
11
256.411842
21
148.638401
0
LINE
8
Layer 1
10
256.411842
20
148.638401
11
250.568398
21
140.866822
0
LINE
8
Layer 1
10
250.568398
20
140.866822
11
245.144956
21
132.820765
0
LINE
8
Layer 1
10
245.144956
20
132.820765
11
242.841425
21
128.876262
0
LINE
8
Layer 1
10
242.841425
20
128.876262
11
240.527974
21
124.442276
0
LINE
8
Layer 1
10
240.527974
20
124.442276
11
238.512178
21
120.140585
0
LINE
8
Layer 1
10
238.512178
20
120.140585
11
237.101616
21
116.592965
0
LINE
8
Layer 1
10
237.101616
20
116.592965
11
236.008006
21
113.417965
0
LINE
8
Layer 1
10
236.008006
20
113.417965
11
236.008006
21
140.934665
0
LINE
8
Layer 1
10
236.008006
20
140.934665
11
235.933041
21
169.527857
0
LINE
8
Layer 1
10
235.933041
20
169.527857
11
235.699325
21
190.716027
0
LINE
8
Layer 1
10
235.699325
20
190.716027
11
235.293630
21
205.481442
0
LINE
8
Layer 1
10
235.293630
20
205.481442
11
234.702726
21
214.806365
0
LINE
8
Layer 1
10
234.702726
20
214.806365
11
234.491059
21
217.099425
0
LINE
8
Layer 1
10
234.491059
20
217.099425
11
235.514119
21
216.323313
0
LINE
8
Layer 1
10
235.514119
20
216.323313
11
239.712179
21
212.724973
0
LINE
8
Layer 1
10
239.712179
20
212.724973
11
239.712240
21
212.724895
0
LINE
8
Layer 1
10
139.382240
20
213.254062
11
139.553668
21
211.040929
0
LINE
8
Layer 1
10
139.553668
20
211.040929
11
139.642414
21
206.476312
0
LINE
8
Layer 1
10
139.642414
20
206.476312
11
139.558629
21
189.088762
0
LINE
8
Layer 1
10
139.558629
20
189.088762
11
139.241129
21
148.801562
0
LINE
8
Layer 1
10
139.241129
20
148.801562
11
139.126476
21
135.894287
0
LINE
8
Layer 1
10
139.126476
20
135.894287
11
138.958907
21
130.527662
0
LINE
8
Layer 1
10
138.958907
20
130.527662
11
138.517934
21
131.061239
0
LINE
8
Layer 1
10
138.517934
20
131.061239
11
137.759457
21
132.362112
0
LINE
8
Layer 1
10
137.759457
20
132.362112
11
136.595291
21
134.099543
0
LINE
8
Layer 1
10
136.595291
20
134.099543
11
135.219457
21
135.678222
0
LINE
8
Layer 1
10
135.219457
20
135.678222
11
134.416885
21
136.509456
0
LINE
8
Layer 1
10
134.416885
20
136.509456
11
133.958272
21
137.168711
0
LINE
8
Layer 1
10
133.958272
20
137.168711
11
133.751014
21
137.841193
0
LINE
8
Layer 1
10
133.751014
20
137.841193
11
133.702507
21
138.712112
0
LINE
8
Layer 1
10
133.702507
20
138.712112
11
133.434064
21
141.351337
0
LINE
8
Layer 1
10
133.434064
20
141.351337
11
132.692678
21
146.173376
0
LINE
8
Layer 1
10
132.692678
20
146.173376
11
130.174727
21
159.984612
0
LINE
8
Layer 1
10
130.174727
20
159.984612
11
128.234447
21
170.391612
0
LINE
8
Layer 1
10
128.234447
20
170.391612
11
126.470555
21
179.766692
0
LINE
8
Layer 1
10
126.470555
20
179.766692
11
125.129997
21
186.125512
0
LINE
8
Layer 1
10
125.129997
20
186.125512
11
123.189717
21
185.737456
0
LINE
8
Layer 1
10
123.189717
20
185.737456
11
121.597806
21
185.424366
0
LINE
8
Layer 1
10
121.597806
20
185.424366
11
121.458349
21
185.583667
0
LINE
8
Layer 1
10
121.458349
20
185.583667
11
121.566937
21
185.984401
0
LINE
8
Layer 1
10
121.566937
20
185.984401
11
125.822328
21
194.786210
0
LINE
8
Layer 1
10
125.822328
20
194.786210
11
132.750037
21
208.244701
0
LINE
8
Layer 1
10
132.750037
20
208.244701
11
135.814797
21
213.748037
0
LINE
8
Layer 1
10
135.814797
20
213.748037
11
136.664219
21
214.852674
0
LINE
8
Layer 1
10
136.664219
20
214.852674
11
137.371427
21
215.335541
0
LINE
8
Layer 1
10
137.371427
20
215.335541
11
138.213687
21
215.591305
0
LINE
8
Layer 1
10
138.213687
20
215.591305
11
138.711987
21
215.582486
0
LINE
8
Layer 1
10
138.711987
20
215.582486
11
139.033897
21
214.788734
0
LINE
8
Layer 1
10
139.033897
20
214.788734
11
139.382265
21
213.254156
0
LINE
8
Layer 1
10
139.382265
20
213.254156
11
139.382240
21
213.254062
0
LINE
8
Layer 1
10
143.051130
20
205.669332
11
143.086408
21
201.524188
0
LINE
8
Layer 1
10
143.086408
20
201.524188
11
143.021364
21
201.045732
0
LINE
8
Layer 1
10
143.021364
20
201.045732
11
142.910019
21
201.612382
0
LINE
8
Layer 1
10
142.910019
20
201.612382
11
142.612363
21
204.953850
0
LINE
8
Layer 1
10
142.612363
20
204.953850
11
142.433769
21
208.976623
0
LINE
8
Layer 1
10
142.433769
20
208.976623
11
142.413925
21
212.139501
0
LINE
8
Layer 1
10
142.413925
20
212.139501
11
142.475937
21
212.916853
0
LINE
8
Layer 1
10
142.475937
20
212.916853
11
142.527097
21
213.020224
0
LINE
8
Layer 1
10
142.527097
20
213.020224
11
142.592519
21
212.901282
0
LINE
8
Layer 1
10
142.592519
20
212.901282
11
142.861512
21
210.343641
0
LINE
8
Layer 1
10
142.861512
20
210.343641
11
143.051130
21
205.669332
0
LINE
8
Layer 1
10
143.051130
20
205.669332
11
143.051130
21
205.669332
0
LINE
8
Layer 1
10
231.563130
20
211.596002
11
230.853162
21
206.895234
0
LINE
8
Layer 1
10
230.853162
20
206.895234
11
230.417151
21
205.017795
0
LINE
8
Layer 1
10
230.417151
20
205.017795
11
230.116740
21
204.364052
0
LINE
8
Layer 1
10
230.116740
20
204.364052
11
230.185091
21
205.969743
0
LINE
8
Layer 1
10
230.185091
20
205.969743
11
230.637089
21
209.192699
0
LINE
8
Layer 1
10
230.637089
20
209.192699
11
231.208150
21
212.356125
0
LINE
8
Layer 1
10
231.208150
20
212.356125
11
231.633690
21
213.783222
0
LINE
8
Layer 1
10
231.633690
20
213.783222
11
231.563134
21
211.596002
0
LINE
8
Layer 1
10
231.563134
20
211.596002
11
231.563130
21
211.596002
0
LINE
8
Layer 1
10
131.480130
20
209.832112
11
124.212900
21
195.615112
0
LINE
8
Layer 1
10
124.212900
20
195.615112
11
118.533170
21
184.326212
0
LINE
8
Layer 1
10
118.533170
20
184.326212
11
115.993170
21
183.303152
0
LINE
8
Layer 1
10
115.993170
20
183.303152
11
108.514280
21
180.198702
0
LINE
8
Layer 1
10
108.514280
20
180.198702
11
105.012959
21
178.783182
0
LINE
8
Layer 1
10
105.012959
20
178.783182
11
103.469550
21
178.293702
0
LINE
8
Layer 1
10
103.469550
20
178.293702
11
104.468904
21
180.173905
0
LINE
8
Layer 1
10
104.468904
20
180.173905
11
107.098756
21
184.312994
0
LINE
8
Layer 1
10
107.098756
20
184.312994
11
110.251159
21
189.014311
0
LINE
8
Layer 1
10
110.251159
20
189.014311
11
112.818170
21
192.581202
0
LINE
8
Layer 1
10
112.818170
20
192.581202
11
115.890096
21
196.374115
0
LINE
8
Layer 1
10
115.890096
20
196.374115
11
119.243144
21
200.223249
0
LINE
8
Layer 1
10
119.243144
20
200.223249
11
122.496980
21
203.708585
0
LINE
8
Layer 1
10
122.496980
20
203.708585
11
125.271270
21
206.410102
0
LINE
8
Layer 1
10
125.271270
20
206.410102
11
130.452695
21
210.969757
0
LINE
8
Layer 1
10
130.452695
20
210.969757
11
132.750160
21
212.724832
0
LINE
8
Layer 1
10
132.750160
20
212.724832
11
132.498806
21
211.873754
0
LINE
8
Layer 1
10
132.498806
20
211.873754
11
131.480160
21
209.832052
0
LINE
8
Layer 1
10
131.480160
20
209.832052
11
131.480130
21
209.832112
0
LINE
8
Layer 1
10
231.139930
20
160.513712
11
230.892985
21
124.706712
0
LINE
8
Layer 1
10
230.892985
20
124.706712
11
229.376035
21
127.528932
0
LINE
8
Layer 1
10
229.376035
20
127.528932
11
227.877968
21
130.058805
0
LINE
8
Layer 1
10
227.877968
20
130.058805
11
226.195520
21
132.481605
0
LINE
8
Layer 1
10
226.195520
20
132.481605
11
224.339439
21
134.786169
0
LINE
8
Layer 1
10
224.339439
20
134.786169
11
222.320474
21
136.961333
0
LINE
8
Layer 1
10
222.320474
20
136.961333
11
220.149372
21
138.995935
0
LINE
8
Layer 1
10
220.149372
20
138.995935
11
217.836883
21
140.878811
0
LINE
8
Layer 1
10
217.836883
20
140.878811
11
215.393755
21
142.598797
0
LINE
8
Layer 1
10
215.393755
20
142.598797
11
212.830735
21
144.144732
0
LINE
8
Layer 1
10
212.830735
20
144.144732
11
211.047344
21
145.404882
0
LINE
8
Layer 1
10
211.047344
20
145.404882
11
209.034509
21
147.260761
0
LINE
8
Layer 1
10
209.034509
20
147.260761
11
206.876979
21
149.603639
0
LINE
8
Layer 1
10
206.876979
20
149.603639
11
204.659504
21
152.324788
0
LINE
8
Layer 1
10
204.659504
20
152.324788
11
202.466832
21
155.315481
0
LINE
8
Layer 1
10
202.466832
20
155.315481
11
200.383714
21
158.466987
0
LINE
8
Layer 1
10
200.383714
20
158.466987
11
198.494898
21
161.670581
0
LINE
8
Layer 1
10
198.494898
20
161.670581
11
196.885135
21
164.817532
0
LINE
8
Layer 1
10
196.885135
20
164.817532
11
195.030847
21
169.147876
0
LINE
8
Layer 1
10
195.030847
20
169.147876
11
193.824788
21
172.816757
0
LINE
8
Layer 1
10
193.824788
20
172.816757
11
193.372789
21
175.414076
0
LINE
8
Layer 1
10
193.372789
20
175.414076
11
193.462636
21
176.182743
0
LINE
8
Layer 1
10
193.462636
20
176.182743
11
193.780685
21
176.529732
0
LINE
8
Layer 1
10
193.780685
20
176.529732
11
198.350393
21
177.993624
0
LINE
8
Layer 1
10
198.350393
20
177.993624
11
202.874627
21
179.800645
0
LINE
8
Layer 1
10
202.874627
20
179.800645
11
207.307912
21
181.923512
0
LINE
8
Layer 1
10
207.307912
20
181.923512
11
211.604772
21
184.334938
0
LINE
8
Layer 1
10
211.604772
20
184.334938
11
215.719735
21
187.007639
0
LINE
8
Layer 1
10
215.719735
20
187.007639
11
219.607324
21
189.914328
0
LINE
8
Layer 1
10
219.607324
20
189.914328
11
223.222066
21
193.027721
0
LINE
8
Layer 1
10
223.222066
20
193.027721
11
226.518485
21
196.320532
0
LINE
8
Layer 1
10
226.518485
20
196.320532
11
229.794914
21
200.095254
0
LINE
8
Layer 1
10
229.794914
20
200.095254
11
230.760091
21
201.410454
0
LINE
8
Layer 1
10
230.760091
20
201.410454
11
231.139875
21
202.176642
0
LINE
8
Layer 1
10
231.139875
20
202.176642
11
231.183283
21
202.324213
0
LINE
8
Layer 1
10
231.183283
20
202.324213
11
231.220904
21
202.151700
0
LINE
8
Layer 1
10
231.220904
20
202.151700
11
231.278782
21
200.806320
0
LINE
8
Layer 1
10
231.278782
20
200.806320
11
231.325084
21
193.833439
0
LINE
8
Layer 1
10
231.325084
20
193.833439
11
231.139875
21
160.513542
0
LINE
8
Layer 1
10
231.139875
20
160.513542
11
231.139930
21
160.513712
0
LINE
8
Layer 1
10
234.103270
20
126.647012
11
233.838687
21
109.356474
0
LINE
8
Layer 1
10
233.838687
20
109.356474
11
233.646864
21
106.193035
0
LINE
8
Layer 1
10
233.646864
20
106.193035
11
233.362436
21
105.162812
0
LINE
8
Layer 1
10
233.362436
20
105.162812
11
232.943512
21
104.854131
0
LINE
8
Layer 1
10
232.943512
20
104.854131
11
232.656880
21
104.810034
0
LINE
8
Layer 1
10
232.656880
20
104.810034
11
232.644202
21
116.612117
0
LINE
8
Layer 1
10
232.644202
20
116.612117
11
232.846498
21
143.267263
0
LINE
8
Layer 1
10
232.846498
20
143.267263
11
233.432992
21
190.852634
0
LINE
8
Layer 1
10
233.432992
20
190.852634
11
233.590640
21
194.737604
0
LINE
8
Layer 1
10
233.590640
20
194.737604
11
233.623592
21
195.004496
0
LINE
8
Layer 1
10
233.623592
20
195.004496
11
233.654994
21
194.957816
0
LINE
8
Layer 1
10
233.654994
20
194.957816
11
233.715215
21
193.860073
0
LINE
8
Layer 1
10
233.715215
20
193.860073
11
233.997437
21
173.742934
0
LINE
8
Layer 1
10
233.997437
20
173.742934
11
234.142958
21
149.136659
0
LINE
8
Layer 1
10
234.142958
20
149.136659
11
234.103270
21
126.647034
0
LINE
8
Layer 1
10
234.103270
20
126.647034
11
234.103270
21
126.647012
0
LINE
8
Layer 1
10
41.627270
20
196.920412
11
40.948723
21
190.951848
0
LINE
8
Layer 1
10
40.948723
20
190.951848
11
39.373899
21
179.122761
0
LINE
8
Layer 1
10
39.373899
20
179.122761
11
37.594023
21
166.499924
0
LINE
8
Layer 1
10
37.594023
20
166.499924
11
36.300320
21
158.150112
0
LINE
8
Layer 1
10
36.300320
20
158.150112
11
35.912264
21
155.962892
0
LINE
8
Layer 1
10
35.912264
20
155.962892
11
31.185034
21
159.984562
0
LINE
8
Layer 1
10
31.185034
20
159.984562
11
19.071534
21
170.303299
0
LINE
8
Layer 1
10
19.071534
20
170.303299
11
17.081106
21
172.099167
0
LINE
8
Layer 1
10
17.081106
20
172.099167
11
16.615334
21
172.684562
0
LINE
8
Layer 1
10
16.615334
20
172.684562
11
17.369397
21
174.086856
0
LINE
8
Layer 1
10
17.369397
20
174.086856
11
19.261164
21
176.917902
0
LINE
8
Layer 1
10
19.261164
20
176.917902
11
25.202159
21
185.050002
0
LINE
8
Layer 1
10
25.202159
20
185.050002
11
27.762964
21
188.188553
0
LINE
8
Layer 1
10
27.762964
20
188.188553
11
30.117890
21
190.777677
0
LINE
8
Layer 1
10
30.117890
20
190.777677
11
32.317376
21
192.869054
0
LINE
8
Layer 1
10
32.317376
20
192.869054
11
34.411858
21
194.514364
0
LINE
8
Layer 1
10
34.411858
20
194.514364
11
36.451775
21
195.765287
0
LINE
8
Layer 1
10
36.451775
20
195.765287
11
38.487564
21
196.673502
0
LINE
8
Layer 1
10
38.487564
20
196.673502
11
41.089300
21
197.484891
0
LINE
8
Layer 1
10
41.089300
20
197.484891
11
41.523656
21
197.368033
0
LINE
8
Layer 1
10
41.523656
20
197.368033
11
41.627284
21
196.920447
0
LINE
8
Layer 1
10
41.627284
20
196.920447
11
41.627270
21
196.920412
0
LINE
8
Layer 1
10
47.377550
20
192.545962
11
48.323437
21
190.632690
0
LINE
8
Layer 1
10
48.323437
20
190.632690
11
49.176718
21
188.537519
0
LINE
8
Layer 1
10
49.176718
20
188.537519
11
50.764220
21
183.444292
0
LINE
8
Layer 1
10
50.764220
20
183.444292
11
53.132240
21
173.407737
0
LINE
8
Layer 1
10
53.132240
20
173.407737
11
55.209220
21
164.006192
0
LINE
8
Layer 1
10
55.209220
20
164.006192
11
55.703109
21
162.312862
0
LINE
8
Layer 1
10
55.703109
20
162.312862
11
57.151153
21
161.843226
0
LINE
8
Layer 1
10
57.151153
20
161.843226
11
60.249534
21
161.254528
0
LINE
8
Layer 1
10
60.249534
20
161.254528
11
63.764627
21
160.745204
0
LINE
8
Layer 1
10
63.764627
20
160.745204
11
66.462809
21
160.513692
0
LINE
8
Layer 1
10
66.462809
20
160.513692
11
67.547601
21
160.449751
0
LINE
8
Layer 1
10
67.547601
20
160.449751
11
67.641032
21
160.372305
0
LINE
8
Layer 1
10
67.641032
20
160.372305
11
67.441767
21
160.266747
0
LINE
8
Layer 1
10
67.441767
20
160.266747
11
63.816969
21
159.596469
0
LINE
8
Layer 1
10
63.816969
20
159.596469
11
57.096555
21
158.463169
0
LINE
8
Layer 1
10
57.096555
20
158.463169
11
54.311826
21
157.785724
0
LINE
8
Layer 1
10
54.311826
20
157.785724
11
51.646169
21
156.985909
0
LINE
8
Layer 1
10
51.646169
20
156.985909
11
48.471169
21
156.033408
0
LINE
8
Layer 1
10
48.471169
20
156.033408
11
48.012558
21
165.099798
0
LINE
8
Layer 1
10
48.012558
20
165.099798
11
47.033601
21
181.239408
0
LINE
8
Layer 1
10
47.033601
20
181.239408
11
46.001728
21
193.251498
0
LINE
8
Layer 1
10
46.001728
20
193.251498
11
45.904714
21
194.296604
0
LINE
8
Layer 1
10
45.904714
20
194.296604
11
45.966450
21
194.733168
0
LINE
8
Layer 1
10
45.966450
20
194.733168
11
47.377560
21
192.545948
0
LINE
8
Layer 1
10
47.377560
20
192.545948
11
47.377550
21
192.545962
0
LINE
8
Layer 1
10
159.807550
20
184.961232
11
174.377250
21
176.776782
0
LINE
8
Layer 1
10
174.377250
20
176.776782
11
177.940310
21
169.227332
0
LINE
8
Layer 1
10
177.940310
20
169.227332
11
181.291700
21
161.889552
0
LINE
8
Layer 1
10
181.291700
20
161.889552
11
179.739480
21
160.055102
0
LINE
8
Layer 1
10
179.739480
20
160.055102
11
168.379980
21
145.697002
0
LINE
8
Layer 1
10
168.379980
20
145.697002
11
161.980913
21
136.969052
0
LINE
8
Layer 1
10
161.980913
20
136.969052
11
154.943540
21
126.911563
0
LINE
8
Layer 1
10
154.943540
20
126.911563
11
148.838837
21
117.806569
0
LINE
8
Layer 1
10
148.838837
20
117.806569
11
145.237780
21
111.936102
0
LINE
8
Layer 1
10
145.237780
20
111.936102
11
143.826670
21
109.360822
0
LINE
8
Layer 1
10
143.826670
20
109.360822
11
143.756114
21
113.135542
0
LINE
8
Layer 1
10
143.756114
20
113.135542
11
143.434204
21
158.282304
0
LINE
8
Layer 1
10
143.434204
20
158.282304
11
142.980002
21
192.581142
0
LINE
8
Layer 1
10
142.980002
20
192.581142
11
142.768335
21
194.521422
0
LINE
8
Layer 1
10
142.768335
20
194.521422
11
144.144165
21
193.710033
0
LINE
8
Layer 1
10
144.144165
20
193.710033
11
159.807465
21
184.961143
0
LINE
8
Layer 1
10
159.807465
20
184.961143
11
159.807550
21
184.961232
0
LINE
8
Layer 1
10
60.888550
20
182.209562
11
68.768709
21
174.060403
0
LINE
8
Layer 1
10
68.768709
20
174.060403
11
71.837316
21
170.620812
0
LINE
8
Layer 1
10
71.837316
20
170.620812
11
74.505750
21
167.392862
0
LINE
8
Layer 1
10
74.505750
20
167.392862
11
79.268250
21
161.325082
0
LINE
8
Layer 1
10
79.268250
20
161.325082
11
75.760309
21
161.556593
0
LINE
8
Layer 1
10
75.760309
20
161.556593
11
68.296842
21
162.330500
0
LINE
8
Layer 1
10
68.296842
20
162.330500
11
60.833378
21
163.210241
0
LINE
8
Layer 1
10
60.833378
20
163.210241
11
57.325450
21
163.759252
0
LINE
8
Layer 1
10
57.325450
20
163.759252
11
54.891280
21
174.095652
0
LINE
8
Layer 1
10
54.891280
20
174.095652
11
53.264640
21
180.963813
0
LINE
8
Layer 1
10
53.264640
20
180.963813
11
51.985268
21
185.834339
0
LINE
8
Layer 1
10
51.985268
20
185.834339
11
50.897718
21
189.236422
0
LINE
8
Layer 1
10
50.897718
20
189.236422
11
49.846550
21
191.699252
0
LINE
8
Layer 1
10
49.846550
20
191.699252
11
48.964605
21
193.427862
0
LINE
8
Layer 1
10
48.964605
20
193.427862
11
50.516825
21
192.228412
0
LINE
8
Layer 1
10
50.516825
20
192.228412
11
54.181311
21
188.806464
0
LINE
8
Layer 1
10
54.181311
20
188.806464
11
60.888525
21
182.209512
0
LINE
8
Layer 1
10
60.888525
20
182.209512
11
60.888550
21
182.209562
0
LINE
8
Layer 1
10
43.708250
20
167.604562
11
43.650924
21
155.499837
0
LINE
8
Layer 1
10
43.650924
20
155.499837
11
43.475086
21
153.828009
0
LINE
8
Layer 1
10
43.475086
20
153.828009
11
43.331563
21
153.614080
0
LINE
8
Layer 1
10
43.331563
20
153.614080
11
43.143805
21
153.634562
0
LINE
8
Layer 1
10
43.143805
20
153.634562
11
40.392135
21
154.410674
0
LINE
8
Layer 1
10
40.392135
20
154.410674
11
37.993245
21
155.222063
0
LINE
8
Layer 1
10
37.993245
20
155.222063
11
37.962377
21
156.342131
0
LINE
8
Layer 1
10
37.962377
20
156.342131
11
38.275467
21
158.679283
0
LINE
8
Layer 1
10
38.275467
20
158.679283
11
42.896857
21
190.676283
0
LINE
8
Layer 1
10
42.896857
20
190.676283
11
43.068836
21
191.640910
0
LINE
8
Layer 1
10
43.068836
20
191.640910
11
43.132501
21
191.736685
0
LINE
8
Layer 1
10
43.132501
20
191.736685
11
43.187899
21
191.540590
0
LINE
8
Layer 1
10
43.187899
20
191.540590
11
43.426024
21
187.324893
0
LINE
8
Layer 1
10
43.426024
20
187.324893
11
43.708246
21
167.604593
0
LINE
8
Layer 1
10
43.708246
20
167.604593
11
43.708250
21
167.604562
0
LINE
8
Layer 1
10
270.721250
20
183.091562
11
272.636862
21
179.186899
0
LINE
8
Layer 1
10
272.636862
20
179.186899
11
274.285411
21
175.402117
0
LINE
8
Layer 1
10
274.285411
20
175.402117
11
275.671030
21
171.724817
0
LINE
8
Layer 1
10
275.671030
20
171.724817
11
276.797853
21
168.142599
0
LINE
8
Layer 1
10
276.797853
20
168.142599
11
277.670014
21
164.643065
0
LINE
8
Layer 1
10
277.670014
20
164.643065
11
278.291648
21
161.213814
0
LINE
8
Layer 1
10
278.291648
20
161.213814
11
278.666888
21
157.842446
0
LINE
8
Layer 1
10
278.666888
20
157.842446
11
278.799870
21
154.516562
0
LINE
8
Layer 1
10
278.799870
20
154.516562
11
278.657725
21
150.808193
0
LINE
8
Layer 1
10
278.657725
20
150.808193
11
278.224953
21
147.286274
0
LINE
8
Layer 1
10
278.224953
20
147.286274
11
277.492043
21
143.925587
0
LINE
8
Layer 1
10
277.492043
20
143.925587
11
276.449488
21
140.700912
0
LINE
8
Layer 1
10
276.449488
20
140.700912
11
275.087778
21
137.587031
0
LINE
8
Layer 1
10
275.087778
20
137.587031
11
273.397406
21
134.558724
0
LINE
8
Layer 1
10
273.397406
20
134.558724
11
271.368863
21
131.590774
0
LINE
8
Layer 1
10
271.368863
20
131.590774
11
268.992640
21
128.657962
0
LINE
8
Layer 1
10
268.992640
20
128.657962
11
266.487920
21
126.012122
0
LINE
8
Layer 1
10
266.487920
20
126.012122
11
268.145980
21
129.539902
0
LINE
8
Layer 1
10
268.145980
20
129.539902
11
269.690760
21
132.866623
0
LINE
8
Layer 1
10
269.690760
20
132.866623
11
271.012299
21
136.362842
0
LINE
8
Layer 1
10
271.012299
20
136.362842
11
272.102327
21
139.986392
0
LINE
8
Layer 1
10
272.102327
20
139.986392
11
272.952577
21
143.695107
0
LINE
8
Layer 1
10
272.952577
20
143.695107
11
273.554781
21
147.446822
0
LINE
8
Layer 1
10
273.554781
20
147.446822
11
273.900670
21
151.199369
0
LINE
8
Layer 1
10
273.900670
20
151.199369
11
273.981976
21
154.910585
0
LINE
8
Layer 1
10
273.981976
20
154.910585
11
273.790430
21
158.538302
0
LINE
8
Layer 1
10
273.790430
20
158.538302
11
273.487813
21
161.039170
0
LINE
8
Layer 1
10
273.487813
20
161.039170
11
273.009909
21
163.649178
0
LINE
8
Layer 1
10
273.009909
20
163.649178
11
271.250430
21
170.638602
0
LINE
8
Layer 1
10
271.250430
20
170.638602
11
267.806435
21
183.647292
0
LINE
8
Layer 1
10
267.806435
20
183.647292
11
266.346820
21
190.041402
0
LINE
8
Layer 1
10
266.346820
20
190.041402
11
266.445074
21
190.178310
0
LINE
8
Layer 1
10
266.445074
20
190.178310
11
266.702905
21
189.972500
0
LINE
8
Layer 1
10
266.702905
20
189.972500
11
267.634460
21
188.643518
0
LINE
8
Layer 1
10
267.634460
20
188.643518
11
270.721270
21
183.091672
0
LINE
8
Layer 1
10
270.721270
20
183.091672
11
270.721250
21
183.091562
0
LINE
8
Layer 1
10
124.318250
20
181.080732
11
126.434920
21
169.686032
0
LINE
8
Layer 1
10
126.434920
20
169.686032
11
129.962700
21
150.636032
0
LINE
8
Layer 1
10
129.962700
20
150.636032
11
132.008810
21
139.029632
0
LINE
8
Layer 1
10
132.008810
20
139.029632
11
131.941562
21
138.003270
0
LINE
8
Layer 1
10
131.941562
20
138.003270
11
131.523740
21
137.459772
0
LINE
8
Layer 1
10
131.523740
20
137.459772
11
130.748731
21
137.392524
0
LINE
8
Layer 1
10
130.748731
20
137.392524
11
129.609920
21
137.794912
0
LINE
8
Layer 1
10
129.609920
20
137.794912
11
128.681371
21
138.397365
0
LINE
8
Layer 1
10
128.681371
20
138.397365
11
127.789047
21
139.272515
0
LINE
8
Layer 1
10
127.789047
20
139.272515
11
126.935274
21
140.411110
0
LINE
8
Layer 1
10
126.935274
20
140.411110
11
126.122377
21
141.803902
0
LINE
8
Layer 1
10
126.122377
20
141.803902
11
124.628514
21
145.315074
0
LINE
8
Layer 1
10
124.628514
20
145.315074
11
123.326060
21
149.732031
0
LINE
8
Layer 1
10
123.326060
20
149.732031
11
122.233620
21
154.980773
0
LINE
8
Layer 1
10
122.233620
20
154.980773
11
121.369796
21
160.987300
0
LINE
8
Layer 1
10
121.369796
20
160.987300
11
120.753191
21
167.677613
0
LINE
8
Layer 1
10
120.753191
20
167.677613
11
120.402410
21
174.977712
0
LINE
8
Layer 1
10
120.402410
20
174.977712
11
120.190743
21
182.950492
0
LINE
8
Layer 1
10
120.190743
20
182.950492
11
121.566573
21
183.338548
0
LINE
8
Layer 1
10
121.566573
20
183.338548
11
123.330463
21
183.761882
0
LINE
8
Layer 1
10
123.330463
20
183.761882
11
123.784665
21
182.976949
0
LINE
8
Layer 1
10
123.784665
20
182.976949
11
124.318241
21
181.080772
0
LINE
8
Layer 1
10
124.318241
20
181.080772
11
124.318250
21
181.080732
0
LINE
8
Layer 1
10
118.532690
20
177.023782
11
118.634114
21
171.980023
0
LINE
8
Layer 1
10
118.634114
20
171.980023
11
118.927360
21
166.922207
0
LINE
8
Layer 1
10
118.927360
20
166.922207
11
119.395893
21
161.958647
0
LINE
8
Layer 1
10
119.395893
20
161.958647
11
120.023176
21
157.197657
0
LINE
8
Layer 1
10
120.023176
20
157.197657
11
120.792673
21
152.747552
0
LINE
8
Layer 1
10
120.792673
20
152.747552
11
121.687847
21
148.716644
0
LINE
8
Layer 1
10
121.687847
20
148.716644
11
122.692161
21
145.213250
0
LINE
8
Layer 1
10
122.692161
20
145.213250
11
123.789080
21
142.345682
0
LINE
8
Layer 1
10
123.789080
20
142.345682
11
124.882690
21
139.805682
0
LINE
8
Layer 1
10
124.882690
20
139.805682
11
122.695470
21
141.393182
0
LINE
8
Layer 1
10
122.695470
20
141.393182
11
115.710470
21
146.402632
0
LINE
8
Layer 1
10
115.710470
20
146.402632
11
99.059345
21
157.978132
0
LINE
8
Layer 1
10
99.059345
20
157.978132
11
95.926220
21
160.268426
0
LINE
8
Layer 1
10
95.926220
20
160.268426
11
95.002370
21
161.113432
0
LINE
8
Layer 1
10
95.002370
20
161.113432
11
95.853448
21
163.485865
0
LINE
8
Layer 1
10
95.853448
20
163.485865
11
98.212650
21
168.451212
0
LINE
8
Layer 1
10
98.212650
20
168.451212
11
101.634600
21
175.259832
0
LINE
8
Layer 1
10
101.634600
20
175.259832
11
105.232940
21
176.741502
0
LINE
8
Layer 1
10
105.232940
20
176.741502
11
114.444873
21
180.564732
0
LINE
8
Layer 1
10
114.444873
20
180.564732
11
118.285740
21
182.033172
0
LINE
8
Layer 1
10
118.285740
20
182.033172
11
118.462129
21
180.560323
0
LINE
8
Layer 1
10
118.462129
20
180.560323
11
118.532685
21
177.023722
0
LINE
8
Layer 1
10
118.532685
20
177.023722
11
118.532690
21
177.023782
0
LINE
8
Layer 1
10
195.367690
20
163.618182
11
197.225287
21
160.143866
0
LINE
8
Layer 1
10
197.225287
20
160.143866
11
199.486373
21
156.487651
0
LINE
8
Layer 1
10
199.486373
20
156.487651
11
201.945897
21
152.957127
0
LINE
8
Layer 1
10
201.945897
20
152.957127
11
204.398810
21
149.859882
0
LINE
8
Layer 1
10
204.398810
20
149.859882
11
206.621310
21
147.108212
0
LINE
8
Layer 1
10
206.621310
20
147.108212
11
203.728530
21
147.813768
0
LINE
8
Layer 1
10
203.728530
20
147.813768
11
201.499412
21
148.289467
0
LINE
8
Layer 1
10
201.499412
20
148.289467
11
199.574566
21
148.497275
0
LINE
8
Layer 1
10
199.574566
20
148.497275
11
198.112742
21
148.433885
0
LINE
8
Layer 1
10
198.112742
20
148.433885
11
197.272690
21
148.095990
0
LINE
8
Layer 1
10
197.272690
20
148.095990
11
197.003352
21
147.616708
0
LINE
8
Layer 1
10
197.003352
20
147.616708
11
196.903927
21
146.914184
0
LINE
8
Layer 1
10
196.903927
20
146.914184
11
197.180086
21
144.965086
0
LINE
8
Layer 1
10
197.180086
20
144.965086
11
198.031715
21
142.500050
0
LINE
8
Layer 1
10
198.031715
20
142.500050
11
199.389360
21
139.770430
0
LINE
8
Layer 1
10
199.389360
20
139.770430
11
200.213909
21
138.507320
0
LINE
8
Layer 1
10
200.213909
20
138.507320
11
201.335701
21
137.100342
0
LINE
8
Layer 1
10
201.335701
20
137.100342
11
204.297378
21
134.020144
0
LINE
8
Layer 1
10
204.297378
20
134.020144
11
207.927120
21
130.860564
0
LINE
8
Layer 1
10
207.927120
20
130.860564
11
211.877660
21
127.952330
0
LINE
8
Layer 1
10
211.877660
20
127.952330
11
217.224449
21
124.656062
0
LINE
8
Layer 1
10
217.224449
20
124.656062
11
222.478636
21
121.875729
0
LINE
8
Layer 1
10
222.478636
20
121.875729
11
226.939085
21
119.955291
0
LINE
8
Layer 1
10
226.939085
20
119.955291
11
228.652553
21
119.425021
0
LINE
8
Layer 1
10
228.652553
20
119.425021
11
229.904660
21
119.238710
0
LINE
8
Layer 1
10
229.904660
20
119.238710
11
230.716049
21
119.238710
0
LINE
8
Layer 1
10
230.716049
20
119.238710
11
230.716049
21
111.795090
0
LINE
8
Layer 1
10
230.716049
20
111.795090
11
230.716049
21
104.386750
0
LINE
8
Layer 1
10
230.716049
20
104.386750
11
229.939937
21
104.633695
0
LINE
8
Layer 1
10
229.939937
20
104.633695
11
228.176048
21
105.307281
0
LINE
8
Layer 1
10
228.176048
20
105.307281
11
225.909450
21
106.371128
0
LINE
8
Layer 1
10
225.909450
20
106.371128
11
221.191047
21
109.008145
0
LINE
8
Layer 1
10
221.191047
20
109.008145
11
216.510880
21
112.200646
0
LINE
8
Layer 1
10
216.510880
20
112.200646
11
212.053547
21
115.762737
0
LINE
8
Layer 1
10
212.053547
20
115.762737
11
207.866589
21
119.640673
0
LINE
8
Layer 1
10
207.866589
20
119.640673
11
203.997547
21
123.780712
0
LINE
8
Layer 1
10
203.997547
20
123.780712
11
200.493961
21
128.129112
0
LINE
8
Layer 1
10
200.493961
20
128.129112
11
197.403372
21
132.632130
0
LINE
8
Layer 1
10
197.403372
20
132.632130
11
194.773320
21
137.236022
0
LINE
8
Layer 1
10
194.773320
20
137.236022
11
192.651347
21
141.887045
0
LINE
8
Layer 1
10
192.651347
20
141.887045
11
191.325744
21
145.683677
0
LINE
8
Layer 1
10
191.325744
20
145.683677
11
190.314746
21
149.611772
0
LINE
8
Layer 1
10
190.314746
20
149.611772
11
189.622075
21
153.591130
0
LINE
8
Layer 1
10
189.622075
20
153.591130
11
189.251452
21
157.541550
0
LINE
8
Layer 1
10
189.251452
20
157.541550
11
189.206597
21
161.382832
0
LINE
8
Layer 1
10
189.206597
20
161.382832
11
189.491230
21
165.034775
0
LINE
8
Layer 1
10
189.491230
20
165.034775
11
190.109074
21
168.417180
0
LINE
8
Layer 1
10
190.109074
20
168.417180
11
191.063847
21
171.449845
0
LINE
8
Layer 1
10
191.063847
20
171.449845
11
191.698847
21
173.002065
0
LINE
8
Layer 1
10
191.698847
20
173.002065
11
192.651348
21
170.144565
0
LINE
8
Layer 1
10
192.651348
20
170.144565
11
193.850793
21
167.040119
0
LINE
8
Layer 1
10
193.850793
20
167.040119
11
195.367738
21
163.618175
0
LINE
8
Layer 1
10
195.367738
20
163.618175
11
195.367690
21
163.618182
0
LINE
8
Layer 1
10
21.271690
20
165.911242
11
32.587053
21
156.183368
0
LINE
8
Layer 1
10
32.587053
20
156.183368
11
34.735704
21
154.084324
0
LINE
8
Layer 1
10
34.735704
20
154.084324
11
35.488690
21
152.964242
0
LINE
8
Layer 1
10
35.488690
20
152.964242
11
37.013904
21
146.868348
0
LINE
8
Layer 1
10
37.013904
20
146.868348
11
39.594145
21
135.470858
0
LINE
8
Layer 1
10
39.594145
20
135.470858
11
41.982563
21
124.423936
0
LINE
8
Layer 1
10
41.982563
20
124.423936
11
42.932310
21
119.379742
0
LINE
8
Layer 1
10
42.932310
20
119.379742
11
39.333970
21
122.272522
0
LINE
8
Layer 1
10
39.333970
20
122.272522
11
33.302015
21
127.008567
0
LINE
8
Layer 1
10
33.302015
20
127.008567
11
25.738785
21
132.406071
0
LINE
8
Layer 1
10
25.738785
20
132.406071
11
17.282598
21
138.028475
0
LINE
8
Layer 1
10
17.282598
20
138.028475
11
8.571770
21
143.439222
0
LINE
8
Layer 1
10
8.571770
20
143.439222
11
5.260065
21
145.516206
0
LINE
8
Layer 1
10
5.260065
20
145.516206
11
3.879820
21
146.614222
0
LINE
8
Layer 1
10
3.879820
20
146.614222
11
4.334919
21
148.208131
0
LINE
8
Layer 1
10
4.334919
20
148.208131
11
5.542843
21
151.203090
0
LINE
8
Layer 1
10
5.542843
20
151.203090
11
9.272933
21
159.406827
0
LINE
8
Layer 1
10
9.272933
20
159.406827
11
13.181615
21
167.246761
0
LINE
8
Layer 1
10
13.181615
20
167.246761
11
14.612782
21
169.786968
0
LINE
8
Layer 1
10
14.612782
20
169.786968
11
15.380420
21
170.744222
0
LINE
8
Layer 1
10
15.380420
20
170.744222
11
21.271810
21
165.911162
0
LINE
8
Layer 1
10
21.271810
20
165.911162
11
21.271690
21
165.911242
0
LINE
8
Layer 1
10
46.530590
20
138.641542
11
47.130313
21
98.989342
0
LINE
8
Layer 1
10
47.130313
20
98.989342
11
47.341980
21
88.794042
0
LINE
8
Layer 1
10
47.341980
20
88.794042
11
46.142530
21
89.534876
0
LINE
8
Layer 1
10
46.142530
20
89.534876
11
45.514697
21
89.994590
0
LINE
8
Layer 1
10
45.514697
20
89.994590
11
45.167981
21
90.434460
0
LINE
8
Layer 1
10
45.167981
20
90.434460
11
45.026318
21
91.033081
0
LINE
8
Layer 1
10
45.026318
20
91.033081
11
45.013640
21
91.969046
0
LINE
8
Layer 1
10
45.013640
20
91.969046
11
45.366418
21
132.115146
0
LINE
8
Layer 1
10
45.366418
20
132.115146
11
45.631002
21
158.913071
0
LINE
8
Layer 1
10
45.631002
20
158.913071
11
45.773215
21
166.777268
0
LINE
8
Layer 1
10
45.773215
20
166.777268
11
45.838121
21
168.794646
0
LINE
8
Layer 1
10
45.838121
20
168.794646
11
45.895585
21
169.333246
0
LINE
8
Layer 1
10
45.895585
20
169.333246
11
46.186627
21
159.808229
0
LINE
8
Layer 1
10
46.186627
20
159.808229
11
46.530585
21
138.641546
0
LINE
8
Layer 1
10
46.530585
20
138.641546
11
46.530590
21
138.641542
0
LINE
8
Layer 1
10
141.639490
20
131.021542
11
141.780602
21
97.666354
0
LINE
8
Layer 1
10
141.780602
20
97.666354
11
141.629568
21
92.931419
0
LINE
8
Layer 1
10
141.629568
20
92.931419
11
141.484185
21
92.163447
0
LINE
8
Layer 1
10
141.484185
20
92.163447
11
141.286712
21
91.933742
0
LINE
8
Layer 1
10
141.286712
20
91.933742
11
140.475323
21
91.863186
0
LINE
8
Layer 1
10
140.475323
20
91.863186
11
140.722268
21
108.196786
0
LINE
8
Layer 1
10
140.722268
20
108.196786
11
140.995671
21
126.333965
0
LINE
8
Layer 1
10
140.995671
20
126.333965
11
141.110324
21
147.249286
0
LINE
8
Layer 1
10
141.110324
20
147.249286
11
141.251435
21
170.003486
0
LINE
8
Layer 1
10
141.251435
20
170.003486
11
141.639491
21
131.021486
0
LINE
8
Layer 1
10
141.639491
20
131.021486
11
141.639490
21
131.021542
0
LINE
8
Layer 1
10
271.814490
20
159.243742
11
271.952845
21
155.852108
0
LINE
8
Layer 1
10
271.952845
20
155.852108
11
271.862997
21
151.716328
0
LINE
8
Layer 1
10
271.862997
20
151.716328
11
271.581326
21
147.560706
0
LINE
8
Layer 1
10
271.581326
20
147.560706
11
271.144212
21
144.109542
0
LINE
8
Layer 1
10
271.144212
20
144.109542
11
269.906731
21
139.090165
0
LINE
8
Layer 1
10
269.906731
20
139.090165
11
268.070632
21
133.958334
0
LINE
8
Layer 1
10
268.070632
20
133.958334
11
265.751668
21
128.998483
0
LINE
8
Layer 1
10
265.751668
20
128.998483
11
263.065592
21
124.495042
0
LINE
8
Layer 1
10
263.065592
20
124.495042
11
261.996784
21
123.035424
0
LINE
8
Layer 1
10
261.996784
20
123.035424
11
260.865139
21
121.787472
0
LINE
8
Layer 1
10
260.865139
20
121.787472
11
257.526982
21
119.026982
0
LINE
8
Layer 1
10
257.526982
20
119.026982
11
253.844862
21
116.420834
0
LINE
8
Layer 1
10
253.844862
20
116.420834
11
250.189202
21
114.052812
0
LINE
8
Layer 1
10
250.189202
20
114.052812
11
246.275022
21
111.795032
0
LINE
8
Layer 1
10
246.275022
20
111.795032
11
241.973890
21
109.537253
0
LINE
8
Layer 1
10
241.973890
20
109.537253
11
238.446663
21
107.861559
0
LINE
8
Layer 1
10
238.446663
20
107.861559
11
237.336033
21
107.423894
0
LINE
8
Layer 1
10
237.336033
20
107.423894
11
236.854202
21
107.350032
0
LINE
8
Layer 1
10
236.854202
20
107.350032
11
236.800183
21
107.764408
0
LINE
8
Layer 1
10
236.800183
20
107.764408
11
236.911528
21
108.647594
0
LINE
8
Layer 1
10
236.911528
20
108.647594
11
237.524480
21
111.406979
0
LINE
8
Layer 1
10
237.524480
20
111.406979
11
238.481390
21
114.801366
0
LINE
8
Layer 1
10
238.481390
20
114.801366
11
239.570592
21
118.003932
0
LINE
8
Layer 1
10
239.570592
20
118.003932
11
241.113514
21
121.543836
0
LINE
8
Layer 1
10
241.113514
20
121.543836
11
243.149636
21
125.520301
0
LINE
8
Layer 1
10
243.149636
20
125.520301
11
245.599995
21
129.810959
0
LINE
8
Layer 1
10
245.599995
20
129.810959
11
248.385631
21
134.293441
0
LINE
8
Layer 1
10
248.385631
20
134.293441
11
251.427580
21
138.845378
0
LINE
8
Layer 1
10
251.427580
20
138.845378
11
254.646882
21
143.344401
0
LINE
8
Layer 1
10
254.646882
20
143.344401
11
257.964573
21
147.668142
0
LINE
8
Layer 1
10
257.964573
20
147.668142
11
261.301692
21
151.694232
0
LINE
8
Layer 1
10
261.301692
20
151.694232
11
267.497357
21
158.397034
0
LINE
8
Layer 1
10
267.497357
20
158.397034
11
270.047833
21
160.921614
0
LINE
8
Layer 1
10
270.047833
20
160.921614
11
271.285312
21
161.924832
0
LINE
8
Layer 1
10
271.285312
20
161.924832
11
271.549895
21
161.139899
0
LINE
8
Layer 1
10
271.549895
20
161.139899
11
271.814479
21
159.243722
0
LINE
8
Layer 1
10
271.814479
20
159.243722
11
271.814490
21
159.243742
0
LINE
8
Layer 1
10
79.656490
20
158.397075
11
64.028390
21
142.522075
0
LINE
8
Layer 1
10
64.028390
20
142.522075
11
48.506190
21
126.999875
0
LINE
8
Layer 1
10
48.506190
20
126.999875
11
48.329801
21
140.123175
0
LINE
8
Layer 1
10
48.329801
20
140.123175
11
48.298933
21
150.009774
0
LINE
8
Layer 1
10
48.298933
20
150.009774
11
48.506190
21
153.705175
0
LINE
8
Layer 1
10
48.506190
20
153.705175
11
49.283198
21
154.185629
0
LINE
8
Layer 1
10
49.283198
20
154.185629
11
50.779956
21
154.757446
0
LINE
8
Layer 1
10
50.779956
20
154.757446
11
55.372132
21
156.037921
0
LINE
8
Layer 1
10
55.372132
20
156.037921
11
61.161537
21
157.272093
0
LINE
8
Layer 1
10
61.161537
20
157.272093
11
67.026990
21
158.185455
0
LINE
8
Layer 1
10
67.026990
20
158.185455
11
71.108736
21
158.540989
0
LINE
8
Layer 1
10
71.108736
20
158.540989
11
75.259936
21
158.701393
0
LINE
8
Layer 1
10
75.259936
20
158.701393
11
78.452039
21
158.656744
0
LINE
8
Layer 1
10
78.452039
20
158.656744
11
79.367005
21
158.554425
0
LINE
8
Layer 1
10
79.367005
20
158.554425
11
79.656490
21
158.397122
0
LINE
8
Layer 1
10
79.656490
20
158.397122
11
79.656490
21
158.397075
0
LINE
8
Layer 1
10
102.022590
20
153.528735
11
116.063190
21
143.756785
0
LINE
8
Layer 1
10
116.063190
20
143.756785
11
124.494580
21
137.935945
0
LINE
8
Layer 1
10
124.494580
20
137.935945
11
125.700090
21
136.954229
0
LINE
8
Layer 1
10
125.700090
20
136.954229
11
127.285938
21
135.268059
0
LINE
8
Layer 1
10
127.285938
20
135.268059
11
132.749590
21
128.446215
0
LINE
8
Layer 1
10
132.749590
20
128.446215
11
139.099590
21
120.191205
0
LINE
8
Layer 1
10
139.099590
20
120.191205
11
138.817368
21
106.044805
0
LINE
8
Layer 1
10
138.817368
20
106.044805
11
138.429312
21
91.722005
0
LINE
8
Layer 1
10
138.429312
20
91.722005
11
137.922056
21
91.825151
0
LINE
8
Layer 1
10
137.922056
20
91.825151
11
136.772358
21
92.315664
0
LINE
8
Layer 1
10
136.772358
20
92.315664
11
133.190560
21
94.116484
0
LINE
8
Layer 1
10
133.190560
20
94.116484
11
128.973763
21
96.439857
0
LINE
8
Layer 1
10
128.973763
20
96.439857
11
125.411812
21
98.601175
0
LINE
8
Layer 1
10
125.411812
20
98.601175
11
121.723622
21
101.161571
0
LINE
8
Layer 1
10
121.723622
20
101.161571
11
118.204110
21
103.837723
0
LINE
8
Layer 1
10
118.204110
20
103.837723
11
114.859890
21
106.623017
0
LINE
8
Layer 1
10
114.859890
20
106.623017
11
111.697575
21
109.510837
0
LINE
8
Layer 1
10
111.697575
20
109.510837
11
108.723776
21
112.494569
0
LINE
8
Layer 1
10
108.723776
20
112.494569
11
105.945107
21
115.567595
0
LINE
8
Layer 1
10
105.945107
20
115.567595
11
103.368182
21
118.723303
0
LINE
8
Layer 1
10
103.368182
20
118.723303
11
100.999612
21
121.955075
0
LINE
8
Layer 1
10
100.999612
20
121.955075
11
98.925526
21
125.208489
0
LINE
8
Layer 1
10
98.925526
20
125.208489
11
97.126773
21
128.575179
0
LINE
8
Layer 1
10
97.126773
20
128.575179
11
95.610792
21
132.029512
0
LINE
8
Layer 1
10
95.610792
20
132.029512
11
94.385027
21
135.545856
0
LINE
8
Layer 1
10
94.385027
20
135.545856
11
93.456918
21
139.098577
0
LINE
8
Layer 1
10
93.456918
20
139.098577
11
92.833906
21
142.662043
0
LINE
8
Layer 1
10
92.833906
20
142.662043
11
92.523434
21
146.210620
0
LINE
8
Layer 1
10
92.523434
20
146.210620
11
92.532942
21
149.718675
0
LINE
8
Layer 1
10
92.532942
20
149.718675
11
92.814614
21
152.960375
0
LINE
8
Layer 1
10
92.814614
20
152.960375
11
93.278187
21
155.861424
0
LINE
8
Layer 1
10
93.278187
20
155.861424
11
93.827750
21
157.948878
0
LINE
8
Layer 1
10
93.827750
20
157.948878
11
94.104806
21
158.539713
0
LINE
8
Layer 1
10
94.104806
20
158.539713
11
94.367392
21
158.749795
0
LINE
8
Layer 1
10
94.367392
20
158.749795
11
102.022672
21
153.528685
0
LINE
8
Layer 1
10
102.022672
20
153.528685
11
102.022590
21
153.528735
0
LINE
8
Layer 1
10
183.725990
20
154.834015
11
184.713767
21
151.570819
0
LINE
8
Layer 1
10
184.713767
20
151.570819
11
185.595710
21
147.990125
0
LINE
8
Layer 1
10
185.595710
20
147.990125
11
186.093872
21
144.666363
0
LINE
8
Layer 1
10
186.093872
20
144.666363
11
186.240633
21
141.343014
0
LINE
8
Layer 1
10
186.240633
20
141.343014
11
186.038475
21
138.030415
0
LINE
8
Layer 1
10
186.038475
20
138.030415
11
185.489878
21
134.738901
0
LINE
8
Layer 1
10
185.489878
20
134.738901
11
184.597322
21
131.478809
0
LINE
8
Layer 1
10
184.597322
20
131.478809
11
183.363289
21
128.260475
0
LINE
8
Layer 1
10
183.363289
20
128.260475
11
181.790258
21
125.094235
0
LINE
8
Layer 1
10
181.790258
20
125.094235
11
179.880710
21
121.990425
0
LINE
8
Layer 1
10
179.880710
20
121.990425
11
177.939672
21
119.342798
0
LINE
8
Layer 1
10
177.939672
20
119.342798
11
175.689815
21
116.638122
0
LINE
8
Layer 1
10
175.689815
20
116.638122
11
173.172893
21
113.915257
0
LINE
8
Layer 1
10
173.172893
20
113.915257
11
170.430661
21
111.213064
0
LINE
8
Layer 1
10
170.430661
20
111.213064
11
167.504873
21
108.570403
0
LINE
8
Layer 1
10
167.504873
20
108.570403
11
164.437282
21
106.026136
0
LINE
8
Layer 1
10
164.437282
20
106.026136
11
161.269643
21
103.619123
0
LINE
8
Layer 1
10
161.269643
20
103.619123
11
158.043710
21
101.388225
0
LINE
8
Layer 1
10
158.043710
20
101.388225
11
150.661834
21
96.991729
0
LINE
8
Layer 1
10
150.661834
20
96.991729
11
147.357860
21
95.211853
0
LINE
8
Layer 1
10
147.357860
20
95.211853
11
145.872910
21
94.579605
0
LINE
8
Layer 1
10
145.872910
20
94.579605
11
146.119855
21
96.308215
0
LINE
8
Layer 1
10
146.119855
20
96.308215
11
146.274195
21
97.854928
0
LINE
8
Layer 1
10
146.274195
20
97.854928
11
146.269786
21
99.977109
0
LINE
8
Layer 1
10
146.269786
20
99.977109
11
146.119855
21
102.231580
0
LINE
8
Layer 1
10
146.119855
20
102.231580
11
145.837633
21
104.175165
0
LINE
8
Layer 1
10
145.837633
20
104.175165
11
145.780307
21
104.915999
0
LINE
8
Layer 1
10
145.780307
20
104.915999
11
145.902125
21
105.078057
0
LINE
8
Layer 1
10
145.902125
20
105.078057
11
146.119855
21
105.127666
0
LINE
8
Layer 1
10
146.119855
20
105.127666
11
147.715625
21
105.690457
0
LINE
8
Layer 1
10
147.715625
20
105.690457
11
150.578091
21
107.089993
0
LINE
8
Layer 1
10
150.578091
20
107.089993
11
153.883739
21
108.893018
0
LINE
8
Layer 1
10
153.883739
20
108.893018
11
156.809055
21
110.666276
0
LINE
8
Layer 1
10
156.809055
20
110.666276
11
160.331116
21
113.114980
0
LINE
8
Layer 1
10
160.331116
20
113.114980
11
163.653498
21
115.677371
0
LINE
8
Layer 1
10
163.653498
20
115.677371
11
166.745197
21
118.321618
0
LINE
8
Layer 1
10
166.745197
20
118.321618
11
169.575208
21
121.015888
0
LINE
8
Layer 1
10
169.575208
20
121.015888
11
172.112524
21
123.728351
0
LINE
8
Layer 1
10
172.112524
20
123.728351
11
174.326140
21
126.427174
0
LINE
8
Layer 1
10
174.326140
20
126.427174
11
176.185053
21
129.080527
0
LINE
8
Layer 1
10
176.185053
20
129.080527
11
177.658255
21
131.656576
0
LINE
8
Layer 1
10
177.658255
20
131.656576
11
179.495458
21
135.866762
0
LINE
8
Layer 1
10
179.495458
20
135.866762
11
180.172833
21
137.992938
0
LINE
8
Layer 1
10
180.172833
20
137.992938
11
180.714195
21
140.255541
0
LINE
8
Layer 1
10
180.714195
20
140.255541
11
181.463298
21
145.557138
0
LINE
8
Layer 1
10
181.463298
20
145.557138
11
181.891595
21
152.505776
0
LINE
8
Layer 1
10
181.891595
20
152.505776
11
182.156179
21
156.598002
0
LINE
8
Layer 1
10
182.156179
20
156.598002
11
182.420762
21
158.150226
0
LINE
8
Layer 1
10
182.420762
20
158.150226
11
183.726042
21
154.834116
0
LINE
8
Layer 1
10
183.726042
20
154.834116
11
183.725990
21
154.834015
0
LINE
8
Layer 1
10
84.136790
20
149.577625
11
85.303713
21
145.240657
0
LINE
8
Layer 1
10
85.303713
20
145.240657
11
86.381340
21
140.467122
0
LINE
8
Layer 1
10
86.381340
20
140.467122
11
87.227458
21
135.944940
0
LINE
8
Layer 1
10
87.227458
20
135.944940
11
87.699850
21
132.362025
0
LINE
8
Layer 1
10
87.699850
20
132.362025
11
87.946795
21
129.469245
0
LINE
8
Layer 1
10
87.946795
20
129.469245
11
86.747345
21
129.045911
0
LINE
8
Layer 1
10
86.747345
20
129.045911
11
85.137244
21
128.395270
0
LINE
8
Layer 1
10
85.137244
20
128.395270
11
83.378315
21
127.492033
0
LINE
8
Layer 1
10
83.378315
20
127.492033
11
79.109701
21
124.711146
0
LINE
8
Layer 1
10
79.109701
20
124.711146
11
73.332959
21
120.269991
0
LINE
8
Layer 1
10
73.332959
20
120.269991
11
65.439545
21
113.735311
0
LINE
8
Layer 1
10
65.439545
20
113.735311
11
54.997345
21
104.951141
0
LINE
8
Layer 1
10
54.997345
20
104.951141
11
54.438412
21
104.323858
0
LINE
8
Layer 1
10
54.438412
20
104.323858
11
53.780259
21
103.160795
0
LINE
8
Layer 1
10
53.780259
20
103.160795
11
51.928175
21
98.777531
0
LINE
8
Layer 1
10
51.928175
20
98.777531
11
49.529285
21
92.251141
0
LINE
8
Layer 1
10
49.529285
20
92.251141
11
49.456998
21
92.119685
0
LINE
8
Layer 1
10
49.456998
20
92.119685
11
49.385900
21
92.234675
0
LINE
8
Layer 1
10
49.385900
20
92.234675
11
49.248716
21
93.164507
0
LINE
8
Layer 1
10
49.248716
20
93.164507
11
49.004528
21
97.547223
0
LINE
8
Layer 1
10
49.004528
20
97.547223
11
48.717896
21
114.193941
0
LINE
8
Layer 1
10
48.717896
20
114.193941
11
48.682618
21
124.495041
0
LINE
8
Layer 1
10
48.682618
20
124.495041
11
65.016218
21
140.828641
0
LINE
8
Layer 1
10
65.016218
20
140.828641
11
81.314518
21
157.162241
0
LINE
8
Layer 1
10
81.314518
20
157.162241
11
82.125907
21
155.468911
0
LINE
8
Layer 1
10
82.125907
20
155.468911
11
83.038721
21
153.025922
0
LINE
8
Layer 1
10
83.038721
20
153.025922
11
84.136737
21
149.577521
0
LINE
8
Layer 1
10
84.136737
20
149.577521
11
84.136790
21
149.577625
0
LINE
8
Layer 1
10
180.127690
20
152.329295
11
179.651439
21
145.822187
0
LINE
8
Layer 1
10
179.651439
20
145.822187
11
178.910605
21
140.886057
0
LINE
8
Layer 1
10
178.910605
20
140.886057
11
178.391360
21
138.774560
0
LINE
8
Layer 1
10
178.391360
20
138.774560
11
177.746438
21
136.776747
0
LINE
8
Layer 1
10
177.746438
20
136.776747
11
176.000190
21
132.750095
0
LINE
8
Layer 1
10
176.000190
20
132.750095
11
173.946914
21
129.199165
0
LINE
8
Layer 1
10
173.946914
20
129.199165
11
171.268560
21
125.668074
0
LINE
8
Layer 1
10
171.268560
20
125.668074
11
167.948596
21
122.123743
0
LINE
8
Layer 1
10
167.948596
20
122.123743
11
163.970490
21
118.533095
0
LINE
8
Layer 1
10
163.970490
20
118.533095
11
160.155525
21
115.448492
0
LINE
8
Layer 1
10
160.155525
20
115.448492
11
156.628298
21
112.879829
0
LINE
8
Layer 1
10
156.628298
20
112.879829
11
153.200291
21
110.694811
0
LINE
8
Layer 1
10
153.200291
20
110.694811
11
149.682990
21
108.761145
0
LINE
8
Layer 1
10
149.682990
20
108.761145
11
145.947951
21
107.045764
0
LINE
8
Layer 1
10
145.947951
20
107.045764
11
145.203258
21
106.960325
0
LINE
8
Layer 1
10
145.203258
20
106.960325
11
145.040718
21
107.086071
0
LINE
8
Layer 1
10
145.040718
20
107.086071
11
144.991040
21
107.314755
0
LINE
8
Layer 1
10
144.991040
20
107.314755
11
145.691635
21
108.933124
0
LINE
8
Layer 1
10
145.691635
20
108.933124
11
147.579549
21
112.218372
0
LINE
8
Layer 1
10
147.579549
20
112.218372
11
153.634100
21
121.672855
0
LINE
8
Layer 1
10
153.634100
20
121.672855
11
161.869248
21
133.545483
0
LINE
8
Layer 1
10
161.869248
20
133.545483
11
170.197013
21
144.978255
0
LINE
8
Layer 1
10
170.197013
20
144.978255
11
176.831445
21
153.586602
0
LINE
8
Layer 1
10
176.831445
20
153.586602
11
178.955554
21
156.086438
0
LINE
8
Layer 1
10
178.955554
20
156.086438
11
179.986600
21
156.985955
0
LINE
8
Layer 1
10
179.986600
20
156.985955
11
180.132672
21
156.704835
0
LINE
8
Layer 1
10
180.132672
20
156.704835
11
180.202677
21
155.848245
0
LINE
8
Layer 1
10
180.202677
20
155.848245
11
180.127711
21
152.329285
0
LINE
8
Layer 1
10
180.127711
20
152.329285
11
180.127690
21
152.329295
0
LINE
8
Layer 1
10
40.427690
20
152.435128
11
43.355750
21
151.553183
0
LINE
8
Layer 1
10
43.355750
20
151.553183
11
43.509401
21
150.977576
0
LINE
8
Layer 1
10
43.509401
20
150.977576
11
43.625845
21
149.567702
0
LINE
8
Layer 1
10
43.625845
20
149.567702
11
43.743806
21
144.876850
0
LINE
8
Layer 1
10
43.743806
20
144.876850
11
43.703016
21
138.744014
0
LINE
8
Layer 1
10
43.703016
20
138.744014
11
43.496861
21
132.432583
0
LINE
8
Layer 1
10
43.496861
20
132.432583
11
43.285194
21
127.564243
0
LINE
8
Layer 1
10
43.285194
20
127.564243
11
41.768244
21
134.408133
0
LINE
8
Layer 1
10
41.768244
20
134.408133
11
39.307620
21
145.322193
0
LINE
8
Layer 1
10
39.307620
20
145.322193
11
37.534904
21
152.505633
0
LINE
8
Layer 1
10
37.534904
20
152.505633
11
37.446158
21
152.921250
0
LINE
8
Layer 1
10
37.446158
20
152.921250
11
37.724522
21
153.052439
0
LINE
8
Layer 1
10
37.724522
20
153.052439
11
40.427684
21
152.435077
0
LINE
8
Layer 1
10
40.427684
20
152.435077
11
40.427690
21
152.435128
0
LINE
8
Layer 1
10
202.176690
20
146.261518
11
203.894277
21
145.804905
0
LINE
8
Layer 1
10
203.894277
20
145.804905
11
205.592021
21
145.168458
0
LINE
8
Layer 1
10
205.592021
20
145.168458
11
207.286458
21
144.341015
0
LINE
8
Layer 1
10
207.286458
20
144.341015
11
208.994123
21
143.311414
0
LINE
8
Layer 1
10
208.994123
20
143.311414
11
210.731552
21
142.068492
0
LINE
8
Layer 1
10
210.731552
20
142.068492
11
212.515283
21
140.601086
0
LINE
8
Layer 1
10
212.515283
20
140.601086
11
216.287790
21
136.948178
0
LINE
8
Layer 1
10
216.287790
20
136.948178
11
222.020435
21
130.527613
0
LINE
8
Layer 1
10
222.020435
20
130.527613
11
224.314595
21
127.651355
0
LINE
8
Layer 1
10
224.314595
20
127.651355
11
226.271410
21
124.953678
0
LINE
8
Layer 1
10
226.271410
20
124.953678
11
228.123494
21
121.950654
0
LINE
8
Layer 1
10
228.123494
20
121.950654
11
228.156565
21
121.515744
0
LINE
8
Layer 1
10
228.156565
20
121.515744
11
227.647240
21
121.672838
0
LINE
8
Layer 1
10
227.647240
20
121.672838
11
222.920010
21
123.930618
0
LINE
8
Layer 1
10
222.920010
20
123.930618
11
218.990730
21
125.915341
0
LINE
8
Layer 1
10
218.990730
20
125.915341
11
215.258651
21
128.080727
0
LINE
8
Layer 1
10
215.258651
20
128.080727
11
211.782064
21
130.379231
0
LINE
8
Layer 1
10
211.782064
20
130.379231
11
208.619260
21
132.763312
0
LINE
8
Layer 1
10
208.619260
20
132.763312
11
205.828531
21
135.185424
0
LINE
8
Layer 1
10
205.828531
20
135.185424
11
203.468169
21
137.598025
0
LINE
8
Layer 1
10
203.468169
20
137.598025
11
201.596465
21
139.953571
0
LINE
8
Layer 1
10
201.596465
20
139.953571
11
200.271710
21
142.204518
0
LINE
8
Layer 1
10
200.271710
20
142.204518
11
199.336847
21
144.334415
0
LINE
8
Layer 1
10
199.336847
20
144.334415
11
198.825320
21
145.802858
0
LINE
8
Layer 1
10
198.825320
20
145.802858
11
198.748701
21
146.449986
0
LINE
8
Layer 1
10
198.748701
20
146.449986
11
198.859427
21
146.630096
0
LINE
8
Layer 1
10
198.859427
20
146.630096
11
199.111952
21
146.720082
0
LINE
8
Layer 1
10
199.111952
20
146.720082
11
200.169735
21
146.646219
0
LINE
8
Layer 1
10
200.169735
20
146.646219
11
202.176710
21
146.261469
0
LINE
8
Layer 1
10
202.176710
20
146.261469
11
202.176690
21
146.261518
0
LINE
8
Layer 1
10
11.993690
20
139.064848
11
19.777395
21
134.090122
0
LINE
8
Layer 1
10
19.777395
20
134.090122
11
26.850053
21
129.270833
0
LINE
8
Layer 1
10
26.850053
20
129.270833
11
33.320779
21
124.524302
0
LINE
8
Layer 1
10
33.320779
20
124.524302
11
39.298690
21
119.767848
0
LINE
8
Layer 1
10
39.298690
20
119.767848
11
43.496750
21
116.275348
0
LINE
8
Layer 1
10
43.496750
20
116.275348
11
43.285083
21
107.808678
0
LINE
8
Layer 1
10
43.285083
20
107.808678
11
43.038138
21
95.567278
0
LINE
8
Layer 1
10
43.038138
20
95.567278
11
43.038138
21
91.721998
0
LINE
8
Layer 1
10
43.038138
20
91.721998
11
39.968968
21
94.085608
0
LINE
8
Layer 1
10
39.968968
20
94.085608
11
30.151943
21
101.663229
0
LINE
8
Layer 1
10
30.151943
20
101.663229
11
22.293671
21
107.908431
0
LINE
8
Layer 1
10
22.293671
20
107.908431
11
16.160161
21
113.053138
0
LINE
8
Layer 1
10
16.160161
20
113.053138
11
11.517418
21
117.329270
0
LINE
8
Layer 1
10
11.517418
20
117.329270
11
8.131450
21
120.968752
0
LINE
8
Layer 1
10
8.131450
20
120.968752
11
5.768265
21
124.203503
0
LINE
8
Layer 1
10
5.768265
20
124.203503
11
4.193868
21
127.265448
0
LINE
8
Layer 1
10
4.193868
20
127.265448
11
3.174268
21
130.386508
0
LINE
8
Layer 1
10
3.174268
20
130.386508
11
2.693057
21
133.107310
0
LINE
8
Layer 1
10
2.693057
20
133.107310
11
2.473122
21
136.304359
0
LINE
8
Layer 1
10
2.473122
20
136.304359
11
2.524385
21
139.514633
0
LINE
8
Layer 1
10
2.524385
20
139.514633
11
2.856768
21
142.275108
0
LINE
8
Layer 1
10
2.856768
20
142.275108
11
3.280102
21
144.250668
0
LINE
8
Layer 1
10
3.280102
20
144.250668
11
4.373712
21
143.686223
0
LINE
8
Layer 1
10
4.373712
20
143.686223
11
11.993712
21
139.064833
0
LINE
8
Layer 1
10
11.993712
20
139.064833
11
11.993690
21
139.064848
0
LINE
8
Layer 1
10
223.448690
20
133.032348
11
226.733936
21
128.490330
0
LINE
8
Layer 1
10
226.733936
20
128.490330
11
228.057406
21
126.444216
0
LINE
8
Layer 1
10
228.057406
20
126.444216
11
228.458140
21
125.588728
0
LINE
8
Layer 1
10
228.458140
20
125.588728
11
225.741750
21
128.975398
0
LINE
8
Layer 1
10
225.741750
20
128.975398
11
222.888659
21
132.472308
0
LINE
8
Layer 1
10
222.888659
20
132.472308
11
219.638690
21
136.101518
0
LINE
8
Layer 1
10
219.638690
20
136.101518
11
216.075630
21
139.840968
0
LINE
8
Layer 1
10
216.075630
20
139.840968
11
218.792020
21
137.618468
0
LINE
8
Layer 1
10
218.792020
20
137.618468
11
221.292338
21
135.351869
0
LINE
8
Layer 1
10
221.292338
20
135.351869
11
223.448690
21
133.032358
0
LINE
8
Layer 1
10
223.448690
20
133.032358
11
223.448690
21
133.032348
0
LINE
8
Layer 1
10
134.760290
20
133.561515
11
136.064466
21
131.584857
0
LINE
8
Layer 1
10
136.064466
20
131.584857
11
137.229736
21
129.363456
0
LINE
8
Layer 1
10
137.229736
20
129.363456
11
138.103963
21
127.221430
0
LINE
8
Layer 1
10
138.103963
20
127.221430
11
138.535010
21
125.482895
0
LINE
8
Layer 1
10
138.535010
20
125.482895
11
138.676121
21
124.001225
0
LINE
8
Layer 1
10
138.676121
20
124.001225
11
137.582511
21
125.235945
0
LINE
8
Layer 1
10
137.582511
20
125.235945
11
133.490286
21
130.430602
0
LINE
8
Layer 1
10
133.490286
20
130.430602
11
130.350561
21
134.831505
0
LINE
8
Layer 1
10
130.350561
20
134.831505
11
130.348356
21
135.037659
0
LINE
8
Layer 1
10
130.348356
20
135.037659
11
130.571048
21
135.184283
0
LINE
8
Layer 1
10
130.571048
20
135.184283
11
131.796951
21
135.325394
0
LINE
8
Layer 1
10
131.796951
20
135.325394
11
132.716381
21
135.307755
0
LINE
8
Layer 1
10
132.716381
20
135.307755
11
133.357997
21
135.104908
0
LINE
8
Layer 1
10
133.357997
20
135.104908
11
133.959925
21
134.571331
0
LINE
8
Layer 1
10
133.959925
20
134.571331
11
134.760291
21
133.561504
0
LINE
8
Layer 1
10
134.760291
20
133.561504
11
134.760290
21
133.561515
0
LINE
8
Layer 1
10
87.135290
20
126.647065
11
86.112230
21
124.001225
0
LINE
8
Layer 1
10
86.112230
20
124.001225
11
84.709249
21
121.465495
0
LINE
8
Layer 1
10
84.709249
20
121.465495
11
82.660518
21
118.584980
0
LINE
8
Layer 1
10
82.660518
20
118.584980
11
79.991668
21
115.385311
0
LINE
8
Layer 1
10
79.991668
20
115.385311
11
76.728330
21
111.892119
0
LINE
8
Layer 1
10
76.728330
20
111.892119
11
72.896136
21
108.131033
0
LINE
8
Layer 1
10
72.896136
20
108.131033
11
68.520718
21
104.127685
0
LINE
8
Layer 1
10
68.520718
20
104.127685
11
63.627705
21
99.907706
0
LINE
8
Layer 1
10
63.627705
20
99.907706
11
58.242730
21
95.496725
0
LINE
8
Layer 1
10
58.242730
20
95.496725
11
52.324879
21
90.822415
0
LINE
8
Layer 1
10
52.324879
20
90.822415
11
51.277570
21
90.119065
0
LINE
8
Layer 1
10
51.277570
20
90.119065
11
50.904950
21
90.063945
0
LINE
8
Layer 1
10
50.904950
20
90.063945
11
51.087403
21
91.114562
0
LINE
8
Layer 1
10
51.087403
20
91.114562
11
51.861862
21
93.494712
0
LINE
8
Layer 1
10
51.861862
20
93.494712
11
54.326900
21
99.835895
0
LINE
8
Layer 1
10
54.326900
20
99.835895
11
55.632180
21
102.834505
0
LINE
8
Layer 1
10
55.632180
20
102.834505
11
61.594130
21
107.914505
0
LINE
8
Layer 1
10
61.594130
20
107.914505
11
71.161572
21
115.994227
0
LINE
8
Layer 1
10
71.161572
20
115.994227
11
77.200143
21
120.932030
0
LINE
8
Layer 1
10
77.200143
20
120.932030
11
81.036057
21
123.779621
0
LINE
8
Layer 1
10
81.036057
20
123.779621
11
83.995530
21
125.588705
0
LINE
8
Layer 1
10
83.995530
20
125.588705
11
86.610496
21
126.885165
0
LINE
8
Layer 1
10
86.610496
20
126.885165
11
87.036584
21
126.928158
0
LINE
8
Layer 1
10
87.036584
20
126.928158
11
87.135250
21
126.647035
0
LINE
8
Layer 1
10
87.135250
20
126.647035
11
87.135290
21
126.647065
0
LINE
8
Layer 1
10
234.243290
20
90.698965
11
234.243290
21
78.069465
0
LINE
8
Layer 1
10
234.243290
20
78.069465
11
233.361345
21
78.245854
0
LINE
8
Layer 1
10
233.361345
20
78.245854
11
232.479400
21
78.386965
0
LINE
8
Layer 1
10
232.479400
20
78.386965
11
232.479400
21
90.451965
0
LINE
8
Layer 1
10
232.479400
20
90.451965
11
232.479400
21
102.481665
0
LINE
8
Layer 1
10
232.479400
20
102.481665
11
233.290789
21
102.869721
0
LINE
8
Layer 1
10
233.290789
20
102.869721
11
234.172734
21
103.328332
0
LINE
8
Layer 1
10
234.172734
20
103.328332
11
234.243290
21
90.698832
0
LINE
8
Layer 1
10
234.243290
20
90.698832
11
234.243290
21
90.698965
0
LINE
8
Layer 1
10
144.531890
20
98.530635
11
144.459681
21
98.381256
0
LINE
8
Layer 1
10
144.459681
20
98.381256
11
144.404008
21
98.446850
0
LINE
8
Layer 1
10
144.404008
20
98.446850
11
144.355501
21
99.130358
0
LINE
8
Layer 1
10
144.355501
20
99.130358
11
144.404008
21
99.818275
0
LINE
8
Layer 1
10
144.404008
20
99.818275
11
144.459681
21
99.894343
0
LINE
8
Layer 1
10
144.459681
20
99.894343
11
144.531890
21
99.765358
0
LINE
8
Layer 1
10
144.531890
20
99.765358
11
144.531890
21
98.530638
0
LINE
8
Layer 1
10
144.531890
20
98.530638
11
144.531890
21
98.530635
0
LINE
8
Layer 1
10
142.168280
20
78.281135
11
141.215779
21
77.787246
0
LINE
8
Layer 1
10
141.215779
20
77.787246
11
140.404390
21
77.575579
0
LINE
8
Layer 1
10
140.404390
20
77.575579
11
140.404390
21
83.537529
0
LINE
8
Layer 1
10
140.404390
20
83.537529
11
140.505814
21
88.758643
0
LINE
8
Layer 1
10
140.505814
20
88.758643
11
140.746695
21
89.540269
0
LINE
8
Layer 1
10
140.746695
20
89.540269
11
141.215779
21
89.852259
0
LINE
8
Layer 1
10
141.215779
20
89.852259
11
141.991891
21
90.205037
0
LINE
8
Layer 1
10
141.991891
20
90.205037
11
142.168280
21
84.348927
0
LINE
8
Layer 1
10
142.168280
20
84.348927
11
142.247655
21
80.150868
0
LINE
8
Layer 1
10
142.247655
20
80.150868
11
142.168280
21
78.281147
0
LINE
8
Layer 1
10
142.168280
20
78.281147
11
142.168280
21
78.281135
0
LINE
8
Layer 1
10
47.059380
20
86.712525
11
48.100077
21
86.086344
0
LINE
8
Layer 1
10
48.100077
20
86.086344
11
48.717440
21
85.936413
0
LINE
8
Layer 1
10
48.717440
20
85.936413
11
48.841463
21
85.368110
0
LINE
8
Layer 1
10
48.841463
20
85.368110
11
48.942336
21
83.665407
0
LINE
8
Layer 1
10
48.942336
20
83.665407
11
49.034940
21
77.822523
0
LINE
8
Layer 1
10
49.034940
20
77.822523
11
49.034940
21
69.496963
0
LINE
8
Layer 1
10
49.034940
20
69.496963
11
46.918270
21
69.496963
0
LINE
8
Layer 1
10
46.918270
20
69.496963
11
44.801600
21
69.496963
0
LINE
8
Layer 1
10
44.801600
20
69.496963
11
44.801600
21
78.880853
0
LINE
8
Layer 1
10
44.801600
20
78.880853
11
44.898614
21
86.275962
0
LINE
8
Layer 1
10
44.898614
20
86.275962
11
45.039725
21
87.686522
0
LINE
8
Layer 1
10
45.039725
20
87.686522
11
45.139219
21
87.954619
0
LINE
8
Layer 1
10
45.139219
20
87.954619
11
45.260211
21
87.982523
0
LINE
8
Layer 1
10
45.260211
20
87.982523
11
47.059381
21
86.712523
0
LINE
8
Layer 1
10
47.059381
20
86.712523
11
47.059380
21
86.712525
0
LINE
8
Layer 1
10
142.168280
20
67.909425
11
142.168280
21
59.619145
0
LINE
8
Layer 1
10
142.168280
20
59.619145
11
141.286335
21
59.619145
0
LINE
8
Layer 1
10
141.286335
20
59.619145
11
140.404390
21
59.619145
0
LINE
8
Layer 1
10
140.404390
20
59.619145
11
140.404390
21
67.697765
0
LINE
8
Layer 1
10
140.404390
20
67.697765
11
140.404390
21
75.811655
0
LINE
8
Layer 1
10
140.404390
20
75.811655
11
141.215779
21
75.952766
0
LINE
8
Layer 1
10
141.215779
20
75.952766
11
142.097724
21
76.164433
0
LINE
8
Layer 1
10
142.097724
20
76.164433
11
142.168280
21
67.909423
0
LINE
8
Layer 1
10
142.168280
20
67.909423
11
142.168280
21
67.909425
0
LINE
8
Layer 1
10
234.243380
20
68.262203
11
234.243380
21
60.677473
0
LINE
8
Layer 1
10
234.243380
20
60.677473
11
233.361435
21
60.677473
0
LINE
8
Layer 1
10
233.361435
20
60.677473
11
232.479490
21
60.677473
0
LINE
8
Layer 1
10
232.479490
20
60.677473
11
232.479490
21
68.262203
0
LINE
8
Layer 1
10
232.479490
20
68.262203
11
232.479490
21
75.846933
0
LINE
8
Layer 1
10
232.479490
20
75.846933
11
233.361435
21
75.846933
0
LINE
8
Layer 1
10
233.361435
20
75.846933
11
234.243380
21
75.846933
0
LINE
8
Layer 1
10
234.243380
20
75.846933
11
234.243380
21
68.262203
0
LINE
8
Layer 1
10
234.243380
20
68.262203
11
234.243380
21
68.262203
0
LINE
8
Layer 1
10
138.640580
20
67.697758
11
138.640580
21
59.901368
0
LINE
8
Layer 1
10
138.640580
20
59.901368
11
137.688079
21
60.113035
0
LINE
8
Layer 1
10
137.688079
20
60.113035
11
132.466969
21
60.677480
0
LINE
8
Layer 1
10
132.466969
20
60.677480
11
108.830869
21
63.358590
0
LINE
8
Layer 1
10
108.830869
20
63.358590
11
78.527269
21
66.851090
0
LINE
8
Layer 1
10
78.527269
20
66.851090
11
67.520569
21
68.191650
0
LINE
8
Layer 1
10
67.520569
20
68.191650
11
68.627409
21
68.354810
0
LINE
8
Layer 1
10
68.627409
20
68.354810
11
71.506959
21
68.544428
0
LINE
8
Layer 1
10
71.506959
20
68.544428
11
84.198159
21
69.333770
0
LINE
8
Layer 1
10
84.198159
20
69.333770
11
98.953059
21
70.414148
0
LINE
8
Layer 1
10
98.953059
20
70.414148
11
106.091853
21
71.033714
0
LINE
8
Layer 1
10
106.091853
20
71.033714
11
112.883379
21
71.772341
0
LINE
8
Layer 1
10
112.883379
20
71.772341
11
119.853495
21
72.696177
0
LINE
8
Layer 1
10
119.853495
20
72.696177
11
127.528059
21
73.871368
0
LINE
8
Layer 1
10
127.528059
20
73.871368
11
137.864459
21
75.458868
0
LINE
8
Layer 1
10
137.864459
20
75.458868
11
138.640571
21
75.494146
0
LINE
8
Layer 1
10
138.640571
20
75.494146
11
138.640571
21
67.697756
0
LINE
8
Layer 1
10
138.640571
20
67.697756
11
138.640580
21
67.697758
0
LINE
8
Layer 1
10
49.034980
20
58.913588
11
49.034980
21
50.446918
0
LINE
8
Layer 1
10
49.034980
20
50.446918
11
48.258868
21
50.305807
0
LINE
8
Layer 1
10
48.258868
20
50.305807
11
46.142198
21
49.953029
0
LINE
8
Layer 1
10
46.142198
20
49.953029
11
44.801638
21
49.776640
0
LINE
8
Layer 1
10
44.801638
20
49.776640
11
44.801638
21
58.596090
0
LINE
8
Layer 1
10
44.801638
20
58.596090
11
44.801638
21
67.380260
0
LINE
8
Layer 1
10
44.801638
20
67.380260
11
46.918308
21
67.380260
0
LINE
8
Layer 1
10
46.918308
20
67.380260
11
49.034978
21
67.380260
0
LINE
8
Layer 1
10
49.034978
20
67.380260
11
49.034978
21
58.913590
0
LINE
8
Layer 1
10
49.034978
20
58.913590
11
49.034980
21
58.913588
0
LINE
8
Layer 1
10
73.729480
20
65.475258
11
107.243380
21
61.524148
0
LINE
8
Layer 1
10
107.243380
20
61.524148
11
129.468380
21
58.948868
0
LINE
8
Layer 1
10
129.468380
20
58.948868
11
131.174944
21
58.706333
0
LINE
8
Layer 1
10
131.174944
20
58.706333
11
131.576780
21
58.586720
0
LINE
8
Layer 1
10
131.576780
20
58.586720
11
131.585050
21
58.490257
0
LINE
8
Layer 1
10
131.585050
20
58.490257
11
119.114333
21
57.154109
0
LINE
8
Layer 1
10
119.114333
20
57.154109
11
75.316950
21
52.881087
0
LINE
8
Layer 1
10
75.316950
20
52.881087
11
52.315850
21
50.588027
0
LINE
8
Layer 1
10
52.315850
20
50.588027
11
50.798900
21
50.376360
0
LINE
8
Layer 1
10
50.798900
20
50.376360
11
50.798900
21
58.913590
0
LINE
8
Layer 1
10
50.798900
20
58.913590
11
50.798900
21
67.486100
0
LINE
8
Layer 1
10
50.798900
20
67.486100
11
55.314460
21
67.274433
0
LINE
8
Layer 1
10
55.314460
20
67.274433
11
62.577266
21
66.665891
0
LINE
8
Layer 1
10
62.577266
20
66.665891
11
73.729460
21
65.475263
0
LINE
8
Layer 1
10
73.729460
20
65.475263
11
73.729480
21
65.475258
0
LINE
8
Layer 1
10
142.168380
20
52.069658
11
142.075776
21
48.158234
0
LINE
8
Layer 1
10
142.075776
20
48.158234
11
141.850880
21
46.389928
0
LINE
8
Layer 1
10
141.850880
20
46.389928
11
141.449595
21
46.425206
0
LINE
8
Layer 1
10
141.449595
20
46.425206
11
140.968935
21
46.777984
0
LINE
8
Layer 1
10
140.968935
20
46.777984
11
140.687264
21
47.244313
0
LINE
8
Layer 1
10
140.687264
20
47.244313
11
140.514733
21
48.153818
0
LINE
8
Layer 1
10
140.514733
20
48.153818
11
140.404490
21
52.175484
0
LINE
8
Layer 1
10
140.404490
20
52.175484
11
140.475046
21
55.681214
0
LINE
8
Layer 1
10
140.475046
20
55.681214
11
140.651435
21
57.255484
0
LINE
8
Layer 1
10
140.651435
20
57.255484
11
140.999803
21
57.431873
0
LINE
8
Layer 1
10
140.999803
20
57.431873
11
141.533380
21
57.502429
0
LINE
8
Layer 1
10
141.533380
20
57.502429
11
141.885607
21
57.362971
0
LINE
8
Layer 1
10
141.885607
20
57.362971
11
142.075776
21
56.677810
0
LINE
8
Layer 1
10
142.075776
20
56.677810
11
142.168380
21
52.069649
0
LINE
8
Layer 1
10
142.168380
20
52.069649
11
142.168380
21
52.069658
0
LINE
8
Layer 1
10
166.686480
20
56.796888
11
194.026780
21
56.091332
0
LINE
8
Layer 1
10
194.026780
20
56.091332
11
215.630043
21
55.368137
0
LINE
8
Layer 1
10
215.630043
20
55.368137
11
221.862641
21
55.009847
0
LINE
8
Layer 1
10
221.862641
20
55.009847
11
225.035980
21
54.644942
0
LINE
8
Layer 1
10
225.035980
20
54.644942
11
226.721596
21
54.090419
0
LINE
8
Layer 1
10
226.721596
20
54.090419
11
227.699454
21
53.357301
0
LINE
8
Layer 1
10
227.699454
20
53.357301
11
227.896101
21
52.963044
0
LINE
8
Layer 1
10
227.896101
20
52.963044
11
227.883562
21
52.571267
0
LINE
8
Layer 1
10
227.883562
20
52.571267
11
227.651088
21
52.197680
0
LINE
8
Layer 1
10
227.651088
20
52.197680
11
227.187930
21
51.857992
0
LINE
8
Layer 1
10
227.187930
20
51.857992
11
225.532628
21
51.306777
0
LINE
8
Layer 1
10
225.532628
20
51.306777
11
222.015319
21
50.543894
0
LINE
8
Layer 1
10
222.015319
20
50.543894
11
207.608730
21
48.012712
0
LINE
8
Layer 1
10
207.608730
20
48.012712
11
194.235702
21
45.779737
0
LINE
8
Layer 1
10
194.235702
20
45.779737
11
186.640505
21
44.674549
0
LINE
8
Layer 1
10
186.640505
20
44.674549
11
181.856496
21
44.356499
0
LINE
8
Layer 1
10
181.856496
20
44.356499
11
176.917030
21
44.484932
0
LINE
8
Layer 1
10
176.917030
20
44.484932
11
156.702830
21
44.978821
0
LINE
8
Layer 1
10
156.702830
20
44.978821
11
143.508930
21
45.261043
0
LINE
8
Layer 1
10
143.508930
20
45.261043
11
143.720597
21
46.001877
0
LINE
8
Layer 1
10
143.720597
20
46.001877
11
143.866118
21
48.105315
0
LINE
8
Layer 1
10
143.866118
20
48.105315
11
143.932264
21
52.140217
0
LINE
8
Layer 1
10
143.932264
20
52.140217
11
143.932264
21
57.537717
0
LINE
8
Layer 1
10
143.932264
20
57.537717
11
148.624214
21
57.326050
0
LINE
8
Layer 1
10
148.624214
20
57.326050
11
166.686414
21
56.796883
0
LINE
8
Layer 1
10
166.686414
20
56.796883
11
166.686480
21
56.796888
0
LINE
8
Layer 1
10
234.243480
20
50.587998
11
234.243480
21
43.708828
0
LINE
8
Layer 1
10
234.243480
20
43.708828
11
233.467368
21
43.814661
0
LINE
8
Layer 1
10
233.467368
20
43.814661
11
232.996630
21
43.987191
0
LINE
8
Layer 1
10
232.996630
20
43.987191
11
232.744173
21
44.771571
0
LINE
8
Layer 1
10
232.744173
20
44.771571
11
232.550145
21
50.729111
0
LINE
8
Layer 1
10
232.550145
20
50.729111
11
232.479589
21
57.502451
0
LINE
8
Layer 1
10
232.479589
20
57.502451
11
233.361534
21
57.502451
0
LINE
8
Layer 1
10
233.361534
20
57.502451
11
234.243479
21
57.502451
0
LINE
8
Layer 1
10
234.243479
20
57.502451
11
234.243479
21
50.588001
0
LINE
8
Layer 1
10
234.243479
20
50.588001
11
234.243480
21
50.587998
0
LINE
8
Layer 1
10
138.640680
20
52.175498
11
138.755333
21
48.422823
0
LINE
8
Layer 1
10
138.755333
20
48.422823
11
139.028736
21
46.495768
0
LINE
8
Layer 1
10
139.028736
20
46.495768
11
139.275681
21
45.719656
0
LINE
8
Layer 1
10
139.275681
20
45.719656
11
134.583731
21
45.896045
0
LINE
8
Layer 1
10
134.583731
20
45.896045
11
116.062931
21
46.742712
0
LINE
8
Layer 1
10
116.062931
20
46.742712
11
88.899031
21
47.977432
0
LINE
8
Layer 1
10
88.899031
20
47.977432
11
68.014531
21
48.894655
0
LINE
8
Layer 1
10
68.014531
20
48.894655
11
62.647894
21
49.159238
0
LINE
8
Layer 1
10
62.647894
20
49.159238
11
60.535641
21
49.423822
0
LINE
8
Layer 1
10
60.535641
20
49.423822
11
61.148593
21
49.648718
0
LINE
8
Layer 1
10
61.148593
20
49.648718
11
62.370091
21
49.741322
0
LINE
8
Layer 1
10
62.370091
20
49.741322
11
72.494791
21
50.623267
0
LINE
8
Layer 1
10
72.494791
20
50.623267
11
90.486491
21
52.387157
0
LINE
8
Layer 1
10
90.486491
20
52.387157
11
118.179591
21
55.174107
0
LINE
8
Layer 1
10
118.179591
20
55.174107
11
137.511791
21
57.114387
0
LINE
8
Layer 1
10
137.511791
20
57.114387
11
138.640681
21
57.149665
0
LINE
8
Layer 1
10
138.640681
20
57.149665
11
138.640681
21
52.175495
0
LINE
8
Layer 1
10
138.640681
20
52.175495
11
138.640680
21
52.175498
0
LINE
8
Layer 1
10
189.793480
20
20.672398
11
210.078180
21
18.802678
0
LINE
8
Layer 1
10
210.078180
20
18.802678
11
212.420848
21
18.575577
0
LINE
8
Layer 1
10
212.420848
20
18.575577
11
212.713681
21
18.445490
0
LINE
8
Layer 1
10
212.713681
20
18.445490
11
212.335961
21
18.282330
0
LINE
8
Layer 1
10
212.335961
20
18.282330
11
209.314197
21
17.790644
0
LINE
8
Layer 1
10
209.314197
20
17.790644
11
202.846230
21
16.968228
0
LINE
8
Layer 1
10
202.846230
20
16.968228
11
163.502668
21
12.157218
0
LINE
8
Layer 1
10
163.502668
20
12.157218
11
141.674530
21
9.700998
0
LINE
8
Layer 1
10
141.674530
20
9.700998
11
134.306443
21
9.229158
0
LINE
8
Layer 1
10
134.306443
20
9.229158
11
127.999980
21
9.286484
0
LINE
8
Layer 1
10
127.999980
20
9.286484
11
125.307905
21
9.509450
0
LINE
8
Layer 1
10
125.307905
20
9.509450
11
122.956893
21
9.859747
0
LINE
8
Layer 1
10
122.956893
20
9.859747
11
120.972161
21
10.335721
0
LINE
8
Layer 1
10
120.972161
20
10.335721
11
119.378930
21
10.935718
0
LINE
8
Layer 1
10
119.378930
20
10.935718
11
118.095356
21
11.742834
0
LINE
8
Layer 1
10
118.095356
20
11.742834
11
117.352111
21
12.630153
0
LINE
8
Layer 1
10
117.352111
20
12.630153
11
117.127284
21
13.558813
0
LINE
8
Layer 1
10
117.127284
20
13.558813
11
117.398965
21
14.489954
0
LINE
8
Layer 1
10
117.398965
20
14.489954
11
118.145242
21
15.384715
0
LINE
8
Layer 1
10
118.145242
20
15.384715
11
119.344204
21
16.204235
0
LINE
8
Layer 1
10
119.344204
20
16.204235
11
120.973940
21
16.909653
0
LINE
8
Layer 1
10
120.973940
20
16.909653
11
123.012540
21
17.462108
0
LINE
8
Layer 1
10
123.012540
20
17.462108
11
126.986262
21
18.065138
0
LINE
8
Layer 1
10
126.986262
20
18.065138
11
134.058918
21
18.926136
0
LINE
8
Layer 1
10
134.058918
20
18.926136
11
152.222540
21
20.813498
0
LINE
8
Layer 1
10
152.222540
20
20.813498
11
164.569740
21
22.048218
0
LINE
8
Layer 1
10
164.569740
20
22.048218
11
167.801515
21
22.354143
0
LINE
8
Layer 1
10
167.801515
20
22.354143
11
171.241649
21
22.326031
0
LINE
8
Layer 1
10
171.241649
20
22.326031
11
177.651728
21
21.815055
0
LINE
8
Layer 1
10
177.651728
20
21.815055
11
189.793340
21
20.672388
0
LINE
8
Layer 1
10
189.793340
20
20.672388
11
189.793480
21
20.672398
0
LINE
8
Layer 1
10
0.000000
20
37.641400
11
0.000000
21
36.759455
0
LINE
8
Layer 1
10
0.000000
20
36.759455
11
6.103060
21
36.547788
0
LINE
8
Layer 1
10
6.103060
20
36.547788
11
38.452760
21
35.806954
0
LINE
8
Layer 1
10
38.452760
20
35.806954
11
73.554160
21
34.925009
0
LINE
8
Layer 1
10
73.554160
20
34.925009
11
93.838860
21
34.219453
0
LINE
8
Layer 1
10
93.838860
20
34.219453
11
109.193523
21
33.513897
0
LINE
8
Layer 1
10
109.193523
20
33.513897
11
113.513971
21
33.098280
0
LINE
8
Layer 1
10
113.513971
20
33.098280
11
116.134460
21
32.596673
0
LINE
8
Layer 1
10
116.134460
20
32.596673
11
118.241274
21
31.820974
0
LINE
8
Layer 1
10
118.241274
20
31.820974
11
119.892096
21
30.902235
0
LINE
8
Layer 1
10
119.892096
20
30.902235
11
121.067495
21
29.889239
0
LINE
8
Layer 1
10
121.067495
20
29.889239
11
121.748040
21
28.830768
0
LINE
8
Layer 1
10
121.748040
20
28.830768
11
121.914301
21
27.775605
0
LINE
8
Layer 1
10
121.914301
20
27.775605
11
121.546846
21
26.772531
0
LINE
8
Layer 1
10
121.546846
20
26.772531
11
120.626246
21
25.870330
0
LINE
8
Layer 1
10
120.626246
20
25.870330
11
119.133070
21
25.117783
0
LINE
8
Layer 1
10
119.133070
20
25.117783
11
114.972495
21
24.159771
0
LINE
8
Layer 1
10
114.972495
20
24.159771
11
105.824523
21
22.586602
0
LINE
8
Layer 1
10
105.824523
20
22.586602
11
71.931370
21
17.462503
0
LINE
8
Layer 1
10
71.931370
20
17.462503
11
63.846136
21
16.369994
0
LINE
8
Layer 1
10
63.846136
20
16.369994
11
57.811420
21
15.919098
0
LINE
8
Layer 1
10
57.811420
20
15.919098
11
52.186804
21
16.063517
0
LINE
8
Layer 1
10
52.186804
20
16.063517
11
45.331870
21
16.756947
0
LINE
8
Layer 1
10
45.331870
20
16.756947
11
6.808470
21
21.272507
0
LINE
8
Layer 1
10
6.808470
20
21.272507
11
-0.000150
21
22.083896
0
LINE
8
Layer 1
10
-0.000150
20
22.083896
11
-0.000150
21
21.131395
0
LINE
8
Layer 1
10
-0.000150
20
21.131395
11
0.042845
21
20.485921
0
LINE
8
Layer 1
10
0.042845
20
20.485921
11
0.316111
21
20.265090
0
LINE
8
Layer 1
10
0.316111
20
20.265090
11
0.952354
21
20.068651
0
LINE
8
Layer 1
10
0.952354
20
20.068651
11
3.899161
21
19.618308
0
LINE
8
Layer 1
10
3.899161
20
19.618308
11
10.054050
21
18.873615
0
LINE
8
Layer 1
10
10.054050
20
18.873615
11
35.421553
21
15.866734
0
LINE
8
Layer 1
10
35.421553
20
15.866734
11
50.089950
21
14.291910
0
LINE
8
Layer 1
10
50.089950
20
14.291910
11
54.578837
21
13.935067
0
LINE
8
Layer 1
10
54.578837
20
13.935067
11
57.793172
21
13.808494
0
LINE
8
Layer 1
10
57.793172
20
13.808494
11
60.199696
21
13.869610
0
LINE
8
Layer 1
10
60.199696
20
13.869610
11
62.265150
21
14.075835
0
LINE
8
Layer 1
10
62.265150
20
14.075835
11
105.127650
21
20.461115
0
LINE
8
Layer 1
10
105.127650
20
20.461115
11
113.453210
21
21.872225
0
LINE
8
Layer 1
10
113.453210
20
21.872225
11
118.260913
21
22.873783
0
LINE
8
Layer 1
10
118.260913
20
22.873783
11
120.027699
21
23.456625
0
LINE
8
Layer 1
10
120.027699
20
23.456625
11
121.408360
21
24.116775
0
LINE
8
Layer 1
10
121.408360
20
24.116775
11
122.431833
21
24.871183
0
LINE
8
Layer 1
10
122.431833
20
24.871183
11
123.127057
21
25.736800
0
LINE
8
Layer 1
10
123.127057
20
25.736800
11
123.522970
21
26.730574
0
LINE
8
Layer 1
10
123.522970
20
26.730574
11
123.648510
21
27.869455
0
LINE
8
Layer 1
10
123.648510
20
27.869455
11
123.496926
21
29.259069
0
LINE
8
Layer 1
10
123.496926
20
29.259069
11
122.991461
21
30.440324
0
LINE
8
Layer 1
10
122.991461
20
30.440324
11
122.056048
21
31.535590
0
LINE
8
Layer 1
10
122.056048
20
31.535590
11
120.614620
21
32.667235
0
LINE
8
Layer 1
10
120.614620
20
32.667235
11
119.319814
21
33.446379
0
LINE
8
Layer 1
10
119.319814
20
33.446379
11
117.909253
21
34.078349
0
LINE
8
Layer 1
10
117.909253
20
34.078349
11
116.244032
21
34.584641
0
LINE
8
Layer 1
10
116.244032
20
34.584641
11
114.185245
21
34.986753
0
LINE
8
Layer 1
10
114.185245
20
34.986753
11
108.331350
21
35.564425
0
LINE
8
Layer 1
10
108.331350
20
35.564425
11
99.236320
21
35.983345
0
LINE
8
Layer 1
10
99.236320
20
35.983345
11
79.022120
21
36.688901
0
LINE
8
Layer 1
10
79.022120
20
36.688901
11
49.626857
21
37.526749
0
LINE
8
Layer 1
10
49.626857
20
37.526749
11
13.511220
21
38.311681
0
LINE
8
Layer 1
10
13.511220
20
38.311681
11
-0.000180
21
38.558626
0
LINE
8
Layer 1
10
-0.000180
20
38.558626
11
-0.000180
21
37.641403
0
LINE
8
Layer 1
10
-0.000180
20
37.641403
11
0.000000
21
37.641400
 0 
ENDSEC
 0 
EOF