999
"DXF R12 Output" (www.mydxf.blogspot.com)
 0 
SECTION
 2 
HEADER
 9 
$ACADVER
 1 
AC1009
 9 
$EXTMIN
 10 
 0 
 20 
 0 
 9 
$EXTMAX
 10 
 8.5 
 20 
 11 
 0 
ENDSEC
 0 
SECTION
 2 
ENTITIES
0
LINE
8
Layer 1
10
18.787400
20
52.154900
11
17.650707
21
51.914269
0
LINE
8
Layer 1
10
17.650707
20
51.914269
11
16.719296
21
51.475179
0
LINE
8
Layer 1
10
16.719296
20
51.475179
11
15.915642
21
50.785534
0
LINE
8
Layer 1
10
15.915642
20
50.785534
11
15.162220
21
49.793240
0
LINE
8
Layer 1
10
15.162220
20
49.793240
11
14.140986
21
47.697019
0
LINE
8
Layer 1
10
14.140986
20
47.697019
11
13.462090
21
45.605760
0
LINE
8
Layer 1
10
13.462090
20
45.605760
11
13.422398
21
45.334533
0
LINE
8
Layer 1
10
13.422398
20
45.334533
11
12.582256
21
45.294841
0
LINE
8
Layer 1
10
12.582256
20
45.294841
11
9.477204
21
44.881385
0
LINE
8
Layer 1
10
9.477204
20
44.881385
11
6.416806
21
44.011471
0
LINE
8
Layer 1
10
6.416806
20
44.011471
11
4.250298
21
42.991889
0
LINE
8
Layer 1
10
4.250298
20
42.991889
11
2.282246
21
41.689501
0
LINE
8
Layer 1
10
2.282246
20
41.689501
11
0.191816
21
39.665221
0
LINE
8
Layer 1
10
0.191816
20
39.665221
11
0.028915
21
39.346860
0
LINE
8
Layer 1
10
0.028915
20
39.346860
11
-0.000027
21
38.745696
0
LINE
8
Layer 1
10
-0.000027
20
38.745696
11
-0.000027
21
38.084167
0
LINE
8
Layer 1
10
-0.000027
20
38.084167
11
0.324122
21
38.540622
0
LINE
8
Layer 1
10
0.324122
20
38.540622
11
1.159302
21
39.578501
0
LINE
8
Layer 1
10
1.159302
20
39.578501
11
2.158210
21
40.562421
0
LINE
8
Layer 1
10
2.158210
20
40.562421
11
4.538062
21
42.271642
0
LINE
8
Layer 1
10
4.538062
20
42.271642
11
6.275608
21
43.119433
0
LINE
8
Layer 1
10
6.275608
20
43.119433
11
8.247584
21
43.794814
0
LINE
8
Layer 1
10
8.247584
20
43.794814
11
10.385769
21
44.279178
0
LINE
8
Layer 1
10
10.385769
20
44.279178
11
12.621942
21
44.553922
0
LINE
8
Layer 1
10
12.621942
20
44.553922
11
13.230549
21
44.600229
0
LINE
8
Layer 1
10
13.230549
20
44.600229
11
13.230549
21
44.408386
0
LINE
8
Layer 1
10
13.230549
20
44.408386
11
13.190858
21
43.813010
0
LINE
8
Layer 1
10
13.190858
20
43.813010
11
13.144551
21
43.409477
0
LINE
8
Layer 1
10
13.144551
20
43.409477
11
12.701327
21
43.237479
0
LINE
8
Layer 1
10
12.701327
20
43.237479
11
11.797305
21
42.761488
0
LINE
8
Layer 1
10
11.797305
20
42.761488
11
10.931737
21
42.083937
0
LINE
8
Layer 1
10
10.931737
20
42.083937
11
10.180280
21
41.273667
0
LINE
8
Layer 1
10
10.180280
20
41.273667
11
9.618597
21
40.399519
0
LINE
8
Layer 1
10
9.618597
20
40.399519
11
9.267263
21
39.487229
0
LINE
8
Layer 1
10
9.267263
20
39.487229
11
9.080277
21
38.494316
0
LINE
8
Layer 1
10
9.080277
20
38.494316
11
9.063222
21
37.476594
0
LINE
8
Layer 1
10
9.063222
20
37.476594
11
9.221680
21
36.489879
0
LINE
8
Layer 1
10
9.221680
20
36.489879
11
9.670692
21
35.276802
0
LINE
8
Layer 1
10
9.670692
20
35.276802
11
10.313200
21
34.167909
0
LINE
8
Layer 1
10
10.313200
20
34.167909
11
11.175669
21
33.177271
0
LINE
8
Layer 1
10
11.175669
20
33.177271
11
12.053020
21
32.395009
0
LINE
8
Layer 1
10
12.053020
20
32.395009
11
12.370554
21
32.150243
0
LINE
8
Layer 1
10
12.370554
20
32.150243
11
11.259184
21
31.898862
0
LINE
8
Layer 1
10
11.259184
20
31.898862
11
8.302154
21
31.250564
0
LINE
8
Layer 1
10
8.302154
20
31.250564
11
4.257729
21
30.380654
0
LINE
8
Layer 1
10
4.257729
20
30.380654
11
1.667014
21
30.185504
0
LINE
8
Layer 1
10
1.667014
20
30.185504
11
-0.000036
21
30.145813
0
LINE
8
Layer 1
10
-0.000036
20
30.145813
11
-0.000036
21
29.960585
0
LINE
8
Layer 1
10
-0.000036
20
29.960585
11
-0.000036
21
29.768742
0
LINE
8
Layer 1
10
-0.000036
20
29.768742
11
10.577764
21
29.755511
0
LINE
8
Layer 1
10
10.577764
20
29.755511
11
21.162264
21
29.735665
0
LINE
8
Layer 1
10
21.162264
20
29.735665
11
19.964894
21
28.412605
0
LINE
8
Layer 1
10
19.964894
20
28.412605
11
15.327574
21
23.695905
0
LINE
8
Layer 1
10
15.327574
20
23.695905
11
14.034284
21
22.667228
0
LINE
8
Layer 1
10
14.034284
20
22.667228
11
12.800534
21
21.936235
0
LINE
8
Layer 1
10
12.800534
20
21.936235
11
10.980505
21
21.235014
0
LINE
8
Layer 1
10
10.980505
20
21.235014
11
9.294434
21
20.891015
0
LINE
8
Layer 1
10
9.294434
20
20.891015
11
8.963669
21
20.871169
0
LINE
8
Layer 1
10
8.963669
20
20.871169
11
8.785056
21
21.433469
0
LINE
8
Layer 1
10
8.785056
20
21.433469
11
8.487368
21
22.392686
0
LINE
8
Layer 1
10
8.487368
20
22.392686
11
8.183065
21
22.855756
0
LINE
8
Layer 1
10
8.183065
20
22.855756
11
7.819224
21
22.816064
0
LINE
8
Layer 1
10
7.819224
20
22.816064
11
7.647226
21
22.626702
0
LINE
8
Layer 1
10
7.647226
20
22.626702
11
7.495075
21
22.094997
0
LINE
8
Layer 1
10
7.495075
20
22.094997
11
7.309847
21
21.221779
0
LINE
8
Layer 1
10
7.309847
20
21.221779
11
7.270155
21
20.983629
0
LINE
8
Layer 1
10
7.270155
20
20.983629
11
6.840161
21
21.142396
0
LINE
8
Layer 1
10
6.840161
20
21.142396
11
5.411260
21
21.779945
0
LINE
8
Layer 1
10
5.411260
20
21.779945
11
4.200661
21
22.571296
0
LINE
8
Layer 1
10
4.200661
20
22.571296
11
2.066405
21
24.662555
0
LINE
8
Layer 1
10
2.066405
20
24.662555
11
0.343951
21
27.115996
0
LINE
8
Layer 1
10
0.343951
20
27.115996
11
0.033032
21
27.665065
0
LINE
8
Layer 1
10
0.033032
20
27.665065
11
0.013186
21
26.930768
0
LINE
8
Layer 1
10
0.013186
20
26.930768
11
0.097531
21
26.026127
0
LINE
8
Layer 1
10
0.097531
20
26.026127
11
0.747483
21
25.032178
0
LINE
8
Layer 1
10
0.747483
20
25.032178
11
2.105376
21
23.405026
0
LINE
8
Layer 1
10
2.105376
20
23.405026
11
3.518464
21
22.096646
0
LINE
8
Layer 1
10
3.518464
20
22.096646
11
4.984887
21
21.108280
0
LINE
8
Layer 1
10
4.984887
20
21.108280
11
6.502783
21
20.441168
0
LINE
8
Layer 1
10
6.502783
20
20.441168
11
7.144466
21
20.229479
0
LINE
8
Layer 1
10
7.144466
20
20.229479
11
7.144466
21
19.561335
0
LINE
8
Layer 1
10
7.144466
20
19.561335
11
7.344372
21
16.802140
0
LINE
8
Layer 1
10
7.344372
20
16.802140
11
7.925069
21
14.237683
0
LINE
8
Layer 1
10
7.925069
20
14.237683
11
8.872915
21
11.908894
0
LINE
8
Layer 1
10
8.872915
20
11.908894
11
10.174266
21
9.856705
0
LINE
8
Layer 1
10
10.174266
20
9.856705
11
11.461560
21
8.416431
0
LINE
8
Layer 1
10
11.461560
20
8.416431
11
12.881572
21
7.210589
0
LINE
8
Layer 1
10
12.881572
20
7.210589
11
14.373527
21
6.282590
0
LINE
8
Layer 1
10
14.373527
20
6.282590
11
15.876646
21
5.675845
0
LINE
8
Layer 1
10
15.876646
20
5.675845
11
17.021090
21
5.514598
0
LINE
8
Layer 1
10
17.021090
20
5.514598
11
18.165536
21
5.556770
0
LINE
8
Layer 1
10
18.165536
20
5.556770
11
19.738115
21
6.121965
0
LINE
8
Layer 1
10
19.738115
20
6.121965
11
21.398759
21
7.245325
0
LINE
8
Layer 1
10
21.398759
20
7.245325
11
23.116459
21
8.902043
0
LINE
8
Layer 1
10
23.116459
20
8.902043
11
24.860206
21
11.067310
0
LINE
8
Layer 1
10
24.860206
20
11.067310
11
25.468813
21
11.953759
0
LINE
8
Layer 1
10
25.468813
20
11.953759
11
24.886667
21
12.370522
0
LINE
8
Layer 1
10
24.886667
20
12.370522
11
24.476519
21
11.854529
0
LINE
8
Layer 1
10
24.476519
20
11.854529
11
22.384432
21
9.289451
0
LINE
8
Layer 1
10
22.384432
20
9.289451
11
20.322119
21
7.389209
0
LINE
8
Layer 1
10
20.322119
20
7.389209
11
18.699717
21
6.504414
0
LINE
8
Layer 1
10
18.699717
20
6.504414
11
17.925728
21
6.326834
0
LINE
8
Layer 1
10
17.925728
20
6.326834
11
17.107089
21
6.304299
0
LINE
8
Layer 1
10
17.107089
20
6.304299
11
16.001508
21
6.468855
0
LINE
8
Layer 1
10
16.001508
20
6.468855
11
14.851279
21
6.945982
0
LINE
8
Layer 1
10
14.851279
20
6.945982
11
13.471991
21
7.771238
0
LINE
8
Layer 1
10
13.471991
20
7.771238
11
12.191929
21
8.824722
0
LINE
8
Layer 1
10
12.191929
20
8.824722
11
11.209545
21
9.860262
0
LINE
8
Layer 1
10
11.209545
20
9.860262
11
10.352361
21
10.989062
0
LINE
8
Layer 1
10
10.352361
20
10.989062
11
9.622159
21
12.206393
0
LINE
8
Layer 1
10
9.622159
20
12.206393
11
9.020724
21
13.507527
0
LINE
8
Layer 1
10
9.020724
20
13.507527
11
8.211282
21
16.342290
0
LINE
8
Layer 1
10
8.211282
20
16.342290
11
7.938299
21
19.455522
0
LINE
8
Layer 1
10
7.938299
20
19.455522
11
7.938299
21
20.110436
0
LINE
8
Layer 1
10
7.938299
20
20.110436
11
8.163219
21
20.110436
0
LINE
8
Layer 1
10
8.163219
20
20.110436
11
8.379870
21
20.058341
0
LINE
8
Layer 1
10
8.379870
20
20.058341
11
8.566752
21
19.812748
0
LINE
8
Layer 1
10
8.566752
20
19.812748
11
8.884286
21
19.429062
0
LINE
8
Layer 1
10
8.884286
20
19.429062
11
9.360587
21
19.283525
0
LINE
8
Layer 1
10
9.360587
20
19.283525
11
10.217680
21
19.315878
0
LINE
8
Layer 1
10
10.217680
20
19.315878
11
11.335250
21
19.552271
0
LINE
8
Layer 1
10
11.335250
20
19.552271
11
12.497473
21
19.933786
0
LINE
8
Layer 1
10
12.497473
20
19.933786
11
13.488527
21
20.401505
0
LINE
8
Layer 1
10
13.488527
20
20.401505
11
13.865599
21
20.619810
0
LINE
8
Layer 1
10
13.865599
20
20.619810
11
13.984674
21
20.249354
0
LINE
8
Layer 1
10
13.984674
20
20.249354
11
14.602377
21
19.011470
0
LINE
8
Layer 1
10
14.602377
20
19.011470
11
15.552494
21
17.907544
0
LINE
8
Layer 1
10
15.552494
20
17.907544
11
16.421061
21
17.302762
0
LINE
8
Layer 1
10
16.421061
20
17.302762
11
17.425448
21
16.909463
0
LINE
8
Layer 1
10
17.425448
20
16.909463
11
18.500535
21
16.745632
0
LINE
8
Layer 1
10
18.500535
20
16.745632
11
19.581204
21
16.829254
0
LINE
8
Layer 1
10
19.581204
20
16.829254
11
20.242733
21
17.001252
0
LINE
8
Layer 1
10
20.242733
20
17.001252
11
20.633035
21
16.663872
0
LINE
8
Layer 1
10
20.633035
20
16.663872
11
21.287226
21
15.858358
0
LINE
8
Layer 1
10
21.287226
20
15.858358
11
22.011498
21
15.206029
0
LINE
8
Layer 1
10
22.011498
20
15.206029
11
22.808951
21
14.703784
0
LINE
8
Layer 1
10
22.808951
20
14.703784
11
23.682685
21
14.348522
0
LINE
8
Layer 1
10
23.682685
20
14.348522
11
24.981762
21
14.185621
0
LINE
8
Layer 1
10
24.981762
20
14.185621
11
26.295725
21
14.374984
0
LINE
8
Layer 1
10
26.295725
20
14.374984
11
27.288845
21
14.837227
0
LINE
8
Layer 1
10
27.288845
20
14.837227
11
28.148005
21
15.552504
0
LINE
8
Layer 1
10
28.148005
20
15.552504
11
28.812841
21
16.393472
0
LINE
8
Layer 1
10
28.812841
20
16.393472
11
29.323872
21
17.368399
0
LINE
8
Layer 1
10
29.323872
20
17.368399
11
29.688538
21
18.492171
0
LINE
8
Layer 1
10
29.688538
20
18.492171
11
29.914285
21
19.779674
0
LINE
8
Layer 1
10
29.914285
20
19.779674
11
30.000284
21
20.487510
0
LINE
8
Layer 1
10
30.000284
20
20.487510
11
30.443508
21
20.341974
0
LINE
8
Layer 1
10
30.443508
20
20.341974
11
31.653280
21
20.043459
0
LINE
8
Layer 1
10
31.653280
20
20.043459
11
33.175618
21
19.997979
0
LINE
8
Layer 1
10
33.175618
20
19.997979
11
34.935288
21
20.196438
0
LINE
8
Layer 1
10
34.935288
20
20.196438
11
36.475823
21
20.771141
0
LINE
8
Layer 1
10
36.475823
20
20.771141
11
37.614478
21
21.598878
0
LINE
8
Layer 1
10
37.614478
20
21.598878
11
38.179258
21
22.296791
0
LINE
8
Layer 1
10
38.179258
20
22.296791
11
38.540619
21
23.113778
0
LINE
8
Layer 1
10
38.540619
20
23.113778
11
38.752618
21
24.631778
0
LINE
8
Layer 1
10
38.752618
20
24.631778
11
38.505062
21
26.237846
0
LINE
8
Layer 1
10
38.505062
20
26.237846
11
37.827099
21
27.826550
0
LINE
8
Layer 1
10
37.827099
20
27.826550
11
36.747879
21
29.292458
0
LINE
8
Layer 1
10
36.747879
20
29.292458
11
36.304655
21
29.768759
0
LINE
8
Layer 1
10
36.304655
20
29.768759
11
44.117315
21
29.768759
0
LINE
8
Layer 1
10
44.117315
20
29.768759
11
51.929975
21
29.768759
0
LINE
8
Layer 1
10
51.929975
20
29.768759
11
51.929975
21
29.967218
0
LINE
8
Layer 1
10
51.929975
20
29.967218
11
51.929975
21
30.165677
0
LINE
8
Layer 1
10
51.929975
20
30.165677
11
43.892395
21
30.165677
0
LINE
8
Layer 1
10
43.892395
20
30.165677
11
35.861435
21
30.165677
0
LINE
8
Layer 1
10
35.861435
20
30.165677
11
35.365288
21
30.483211
0
LINE
8
Layer 1
10
35.365288
20
30.483211
11
34.869141
21
30.833821
0
LINE
8
Layer 1
10
34.869141
20
30.833821
11
35.477748
21
31.224123
0
LINE
8
Layer 1
10
35.477748
20
31.224123
11
36.588291
21
31.950978
0
LINE
8
Layer 1
10
36.588291
20
31.950978
11
37.535108
21
32.811793
0
LINE
8
Layer 1
10
37.535108
20
32.811793
11
38.261962
21
33.657722
0
LINE
8
Layer 1
10
38.261962
20
33.657722
11
38.765548
21
34.518533
0
LINE
8
Layer 1
10
38.765548
20
34.518533
11
39.295496
21
36.123671
0
LINE
8
Layer 1
10
39.295496
20
36.123671
11
39.288983
21
37.655008
0
LINE
8
Layer 1
10
39.288983
20
37.655008
11
38.762755
21
39.023857
0
LINE
8
Layer 1
10
38.762755
20
39.023857
11
37.733558
21
40.141533
0
LINE
8
Layer 1
10
37.733558
20
40.141533
11
36.433758
21
40.903637
0
LINE
8
Layer 1
10
36.433758
20
40.903637
11
34.941079
21
41.415805
0
LINE
8
Layer 1
10
34.941079
20
41.415805
11
33.367777
21
41.651370
0
LINE
8
Layer 1
10
33.367777
20
41.651370
11
31.826108
21
41.583663
0
LINE
8
Layer 1
10
31.826108
20
41.583663
11
31.085196
21
41.477818
0
LINE
8
Layer 1
10
31.085196
20
41.477818
11
31.131503
21
41.894581
0
LINE
8
Layer 1
10
31.131503
20
41.894581
11
31.265772
21
43.526283
0
LINE
8
Layer 1
10
31.265772
20
43.526283
11
30.995063
21
45.030228
0
LINE
8
Layer 1
10
30.995063
20
45.030228
11
30.351003
21
46.305945
0
LINE
8
Layer 1
10
30.351003
20
46.305945
11
29.365223
21
47.252961
0
LINE
8
Layer 1
10
29.365223
20
47.252961
11
28.634231
21
47.607706
0
LINE
8
Layer 1
10
28.634231
20
47.607706
11
27.843703
21
47.808645
0
LINE
8
Layer 1
10
27.843703
20
47.808645
11
27.539399
21
47.894643
0
LINE
8
Layer 1
10
27.539399
20
47.894643
11
27.274788
21
48.218793
0
LINE
8
Layer 1
10
27.274788
20
48.218793
11
26.170036
21
49.445929
0
LINE
8
Layer 1
10
26.170036
20
49.445929
11
24.906518
21
50.534143
0
LINE
8
Layer 1
10
24.906518
20
50.534143
11
23.162563
21
51.437130
0
LINE
8
Layer 1
10
23.162563
20
51.437130
11
21.274728
21
52.002733
0
LINE
8
Layer 1
10
21.274728
20
52.002733
11
18.787378
21
52.154885
0
LINE
8
Layer 1
10
18.787378
20
52.154885
11
18.787400
21
52.154900
0
LINE
8
Layer 1
10
21.307830
20
51.175837
11
23.189054
21
50.534981
0
LINE
8
Layer 1
10
23.189054
20
50.534981
11
24.807320
21
49.581557
0
LINE
8
Layer 1
10
24.807320
20
49.581557
11
26.593450
21
47.768967
0
LINE
8
Layer 1
10
26.593450
20
47.768967
11
26.315608
21
47.669738
0
LINE
8
Layer 1
10
26.315608
20
47.669738
11
25.506063
21
47.365434
0
LINE
8
Layer 1
10
25.506063
20
47.365434
11
24.741168
21
46.842827
0
LINE
8
Layer 1
10
24.741168
20
46.842827
11
24.390558
21
46.512062
0
LINE
8
Layer 1
10
24.390558
20
46.512062
11
23.887796
21
46.650983
0
LINE
8
Layer 1
10
23.887796
20
46.650983
11
22.754927
21
46.793211
0
LINE
8
Layer 1
10
22.754927
20
46.793211
11
21.631986
21
46.677444
0
LINE
8
Layer 1
10
21.631986
20
46.677444
11
20.659020
21
46.295824
0
LINE
8
Layer 1
10
20.659020
20
46.295824
11
19.806992
21
45.698380
0
LINE
8
Layer 1
10
19.806992
20
45.698380
11
19.095126
21
44.902478
0
LINE
8
Layer 1
10
19.095126
20
44.902478
11
18.542646
21
43.925484
0
LINE
8
Layer 1
10
18.542646
20
43.925484
11
18.324341
21
43.316877
0
LINE
8
Layer 1
10
18.324341
20
43.316877
11
18.272246
21
43.208551
0
LINE
8
Layer 1
10
18.272246
20
43.208551
11
17.927424
21
43.363184
0
LINE
8
Layer 1
10
17.927424
20
43.363184
11
16.921900
21
43.715448
0
LINE
8
Layer 1
10
16.921900
20
43.715448
11
15.678224
21
43.819639
0
LINE
8
Layer 1
10
15.678224
20
43.819639
11
14.375014
21
43.713794
0
LINE
8
Layer 1
10
14.375014
20
43.713794
11
13.964866
21
43.614565
0
LINE
8
Layer 1
10
13.964866
20
43.614565
11
13.997942
21
44.018098
0
LINE
8
Layer 1
10
13.997942
20
44.018098
11
14.064095
21
44.507629
0
LINE
8
Layer 1
10
14.064095
20
44.507629
11
15.916375
21
44.520859
0
LINE
8
Layer 1
10
15.916375
20
44.520859
11
16.703595
21
44.434860
0
LINE
8
Layer 1
10
16.703595
20
44.434860
11
16.819363
21
44.484475
0
LINE
8
Layer 1
10
16.819363
20
44.484475
11
16.875593
21
44.752394
0
LINE
8
Layer 1
10
16.875593
20
44.752394
11
16.849132
21
45.122850
0
LINE
8
Layer 1
10
16.849132
20
45.122850
11
15.175462
21
45.314693
0
LINE
8
Layer 1
10
15.175462
20
45.314693
11
14.474241
21
45.354385
0
LINE
8
Layer 1
10
14.474241
20
45.354385
11
14.307825
21
45.393043
0
LINE
8
Layer 1
10
14.307825
20
45.393043
11
14.264206
21
45.524729
0
LINE
8
Layer 1
10
14.264206
20
45.524729
11
14.599932
21
46.637755
0
LINE
8
Layer 1
10
14.599932
20
46.637755
11
15.138148
21
48.028518
0
LINE
8
Layer 1
10
15.138148
20
48.028518
11
15.770011
21
49.235084
0
LINE
8
Layer 1
10
15.770011
20
49.235084
11
16.450250
21
50.184893
0
LINE
8
Layer 1
10
16.450250
20
50.184893
11
17.133592
21
50.805385
0
LINE
8
Layer 1
10
17.133592
20
50.805385
11
17.954198
21
51.170259
0
LINE
8
Layer 1
10
17.954198
20
51.170259
11
18.965200
21
51.357762
0
LINE
8
Layer 1
10
18.965200
20
51.357762
11
20.103961
21
51.361689
0
LINE
8
Layer 1
10
20.103961
20
51.361689
11
21.307842
21
51.175841
0
LINE
8
Layer 1
10
21.307842
20
51.175841
11
21.307830
21
51.175837
0
LINE
8
Layer 1
10
27.301280
20
46.459137
11
27.698197
21
45.314687
0
LINE
8
Layer 1
10
27.698197
20
45.314687
11
27.830503
21
43.693937
0
LINE
8
Layer 1
10
27.830503
20
43.693937
11
27.632044
21
42.066577
0
LINE
8
Layer 1
10
27.632044
20
42.066577
11
27.353271
21
41.224676
0
LINE
8
Layer 1
10
27.353271
20
41.224676
11
26.920073
21
40.392079
0
LINE
8
Layer 1
10
26.920073
20
40.392079
11
25.210844
21
38.137097
0
LINE
8
Layer 1
10
25.210844
20
38.137097
11
23.507407
21
35.804378
0
LINE
8
Layer 1
10
23.507407
20
35.804378
11
23.086096
21
34.861596
0
LINE
8
Layer 1
10
23.086096
20
34.861596
11
22.835954
21
33.863617
0
LINE
8
Layer 1
10
22.835954
20
33.863617
11
22.716879
21
33.188857
0
LINE
8
Layer 1
10
22.716879
20
33.188857
11
22.525036
21
33.678388
0
LINE
8
Layer 1
10
22.525036
20
33.678388
11
22.121503
21
34.697138
0
LINE
8
Layer 1
10
22.121503
20
34.697138
11
21.135825
21
37.607868
0
LINE
8
Layer 1
10
21.135825
20
37.607868
11
19.965748
21
40.996548
0
LINE
8
Layer 1
10
19.965748
20
40.996548
11
19.217395
21
42.370878
0
LINE
8
Layer 1
10
19.217395
20
42.370878
11
18.979245
21
42.675181
0
LINE
8
Layer 1
10
18.979245
20
42.675181
11
19.085090
21
43.012561
0
LINE
8
Layer 1
10
19.085090
20
43.012561
11
19.520045
21
44.018912
0
LINE
8
Layer 1
10
19.520045
20
44.018912
11
20.203070
21
44.891301
0
LINE
8
Layer 1
10
20.203070
20
44.891301
11
21.056442
21
45.572676
0
LINE
8
Layer 1
10
21.056442
20
45.572676
11
21.949510
21
45.916671
0
LINE
8
Layer 1
10
21.949510
20
45.916671
11
22.926921
21
45.950575
0
LINE
8
Layer 1
10
22.926921
20
45.950575
11
23.973790
21
45.751289
0
LINE
8
Layer 1
10
23.973790
20
45.751289
11
24.542705
21
45.579291
0
LINE
8
Layer 1
10
24.542705
20
45.579291
11
25.045467
21
45.982824
0
LINE
8
Layer 1
10
25.045467
20
45.982824
11
25.811186
21
46.557528
0
LINE
8
Layer 1
10
25.811186
20
46.557528
11
26.527287
21
46.849427
0
LINE
8
Layer 1
10
26.527287
20
46.849427
11
27.010203
21
46.961887
0
LINE
8
Layer 1
10
27.010203
20
46.961887
11
27.301276
21
46.459125
0
LINE
8
Layer 1
10
27.301276
20
46.459125
11
27.301280
21
46.459137
0
LINE
8
Layer 1
10
28.564800
20
46.736979
11
29.319770
21
46.164756
0
LINE
8
Layer 1
10
29.319770
20
46.164756
11
29.920930
21
45.413919
0
LINE
8
Layer 1
10
29.920930
20
45.413919
11
30.246113
21
44.574192
0
LINE
8
Layer 1
10
30.246113
20
44.574192
11
30.398885
21
43.672446
0
LINE
8
Layer 1
10
30.398885
20
43.672446
11
30.380486
21
42.678912
0
LINE
8
Layer 1
10
30.380486
20
42.678912
11
30.192157
21
41.563819
0
LINE
8
Layer 1
10
30.192157
20
41.563819
11
30.071428
21
41.152017
0
LINE
8
Layer 1
10
30.071428
20
41.152017
11
29.881238
21
41.008135
0
LINE
8
Layer 1
10
29.881238
20
41.008135
11
28.353108
21
40.035687
0
LINE
8
Layer 1
10
28.353108
20
40.035687
11
27.469863
21
39.190894
0
LINE
8
Layer 1
10
27.469863
20
39.190894
11
26.541344
21
38.010582
0
LINE
8
Layer 1
10
26.541344
20
38.010582
11
23.980398
21
33.837157
0
LINE
8
Layer 1
10
23.980398
20
33.837157
11
23.570250
21
33.142552
0
LINE
8
Layer 1
10
23.570250
20
33.142552
11
23.748863
21
34.234072
0
LINE
8
Layer 1
10
23.748863
20
34.234072
11
24.008100
21
34.999379
0
LINE
8
Layer 1
10
24.008100
20
34.999379
11
24.433545
21
35.777090
0
LINE
8
Layer 1
10
24.433545
20
35.777090
11
26.289133
21
38.143712
0
LINE
8
Layer 1
10
26.289133
20
38.143712
11
27.326182
21
39.489096
0
LINE
8
Layer 1
10
27.326182
20
39.489096
11
28.021511
21
40.695560
0
LINE
8
Layer 1
10
28.021511
20
40.695560
11
28.442718
21
41.909467
0
LINE
8
Layer 1
10
28.442718
20
41.909467
11
28.657403
21
43.277182
0
LINE
8
Layer 1
10
28.657403
20
43.277182
11
28.650788
21
44.759002
0
LINE
8
Layer 1
10
28.650788
20
44.759002
11
28.108334
21
46.670822
0
LINE
8
Layer 1
10
28.108334
20
46.670822
11
28.134795
21
46.902357
0
LINE
8
Layer 1
10
28.134795
20
46.902357
11
28.564789
21
46.736975
0
LINE
8
Layer 1
10
28.564789
20
46.736975
11
28.564800
21
46.736979
0
LINE
8
Layer 1
10
16.657300
20
42.900109
11
17.590056
21
42.562729
0
LINE
8
Layer 1
10
17.590056
20
42.562729
11
18.106049
21
42.331194
0
LINE
8
Layer 1
10
18.106049
20
42.331194
11
18.145741
21
41.557205
0
LINE
8
Layer 1
10
18.145741
20
41.557205
11
18.339238
21
40.185361
0
LINE
8
Layer 1
10
18.339238
20
40.185361
11
18.880038
21
38.342175
0
LINE
8
Layer 1
10
18.880038
20
38.342175
11
20.269248
21
34.842685
0
LINE
8
Layer 1
10
20.269248
20
34.842685
11
20.580167
21
34.068696
0
LINE
8
Layer 1
10
20.580167
20
34.068696
11
18.721267
21
35.160216
0
LINE
8
Layer 1
10
18.721267
20
35.160216
11
16.847278
21
36.590671
0
LINE
8
Layer 1
10
16.847278
20
36.590671
11
15.488044
21
38.159425
0
LINE
8
Layer 1
10
15.488044
20
38.159425
11
14.577824
21
39.965087
0
LINE
8
Layer 1
10
14.577824
20
39.965087
11
14.050877
21
42.106266
0
LINE
8
Layer 1
10
14.050877
20
42.106266
11
14.017800
21
42.754564
0
LINE
8
Layer 1
10
14.017800
20
42.754564
11
15.151496
21
42.971215
0
LINE
8
Layer 1
10
15.151496
20
42.971215
11
16.657300
21
42.900100
0
LINE
8
Layer 1
10
16.657300
20
42.900100
11
16.657300
21
42.900109
0
LINE
8
Layer 1
10
12.999040
20
40.935369
11
13.151192
21
38.745709
0
LINE
8
Layer 1
10
13.151192
20
38.745709
11
13.739540
21
36.870998
0
LINE
8
Layer 1
10
13.739540
20
36.870998
11
14.603249
21
35.189164
0
LINE
8
Layer 1
10
14.603249
20
35.189164
11
15.700148
21
33.764085
0
LINE
8
Layer 1
10
15.700148
20
33.764085
11
16.988062
21
32.659639
0
LINE
8
Layer 1
10
16.988062
20
32.659639
11
17.398210
21
32.368566
0
LINE
8
Layer 1
10
17.398210
20
32.368566
11
16.703605
21
32.381797
0
LINE
8
Layer 1
10
16.703605
20
32.381797
11
14.864555
21
32.348720
0
LINE
8
Layer 1
10
14.864555
20
32.348720
11
13.753185
21
32.269337
0
LINE
8
Layer 1
10
13.753185
20
32.269337
11
13.389344
21
32.487642
0
LINE
8
Layer 1
10
13.389344
20
32.487642
11
12.211409
21
33.342154
0
LINE
8
Layer 1
10
12.211409
20
33.342154
11
11.244336
21
34.337445
0
LINE
8
Layer 1
10
11.244336
20
34.337445
11
10.512933
21
35.443128
0
LINE
8
Layer 1
10
10.512933
20
35.443128
11
10.042004
21
36.628812
0
LINE
8
Layer 1
10
10.042004
20
36.628812
11
9.894814
21
37.914657
0
LINE
8
Layer 1
10
9.894814
20
37.914657
11
10.015543
21
39.155852
0
LINE
8
Layer 1
10
10.015543
20
39.155852
11
10.384552
21
40.056876
0
LINE
8
Layer 1
10
10.384552
20
40.056876
11
10.963183
21
40.906424
0
LINE
8
Layer 1
10
10.963183
20
40.906424
11
11.703062
21
41.648058
0
LINE
8
Layer 1
10
11.703062
20
41.648058
11
12.555813
21
42.225342
0
LINE
8
Layer 1
10
12.555813
20
42.225342
11
12.999037
21
42.470108
0
LINE
8
Layer 1
10
12.999037
20
42.470108
11
12.999037
21
40.935358
0
LINE
8
Layer 1
10
12.999037
20
40.935358
11
12.999040
21
40.935369
0
LINE
8
Layer 1
10
19.336490
20
40.253994
11
20.818310
21
35.748984
0
LINE
8
Layer 1
10
20.818310
20
35.748984
11
19.554790
21
38.944174
0
LINE
8
Layer 1
10
19.554790
20
38.944174
11
19.217410
21
40.148154
0
LINE
8
Layer 1
10
19.217410
20
40.148154
11
19.056162
21
40.898163
0
LINE
8
Layer 1
10
19.056162
20
40.898163
11
19.336485
21
40.253999
0
LINE
8
Layer 1
10
19.336485
20
40.253999
11
19.336490
21
40.253994
0
LINE
8
Layer 1
10
34.207690
20
40.717064
11
35.342212
21
40.420203
0
LINE
8
Layer 1
10
35.342212
20
40.420203
11
36.417200
21
39.969536
0
LINE
8
Layer 1
10
36.417200
20
39.969536
11
37.496321
21
39.190587
0
LINE
8
Layer 1
10
37.496321
20
39.190587
11
38.243020
21
38.203256
0
LINE
8
Layer 1
10
38.243020
20
38.203256
11
38.434863
21
37.706282
0
LINE
8
Layer 1
10
38.434863
20
37.706282
11
38.487786
21
37.045576
0
LINE
8
Layer 1
10
38.487786
20
37.045576
11
38.419152
21
35.978034
0
LINE
8
Layer 1
10
38.419152
20
35.978034
11
38.037946
21
34.935296
0
LINE
8
Layer 1
10
38.037946
20
34.935296
11
37.444327
21
33.980110
0
LINE
8
Layer 1
10
37.444327
20
33.980110
11
36.613176
21
33.073918
0
LINE
8
Layer 1
10
36.613176
20
33.073918
11
35.584809
21
32.253313
0
LINE
8
Layer 1
10
35.584809
20
32.253313
11
34.399536
21
31.554886
0
LINE
8
Layer 1
10
34.399536
20
31.554886
11
33.837236
21
31.270429
0
LINE
8
Layer 1
10
33.837236
20
31.270429
11
33.440319
21
31.349812
0
LINE
8
Layer 1
10
33.440319
20
31.349812
11
30.734668
21
31.659904
0
LINE
8
Layer 1
10
30.734668
20
31.659904
11
27.354249
21
31.687192
0
LINE
8
Layer 1
10
27.354249
20
31.687192
11
24.132599
21
31.442426
0
LINE
8
Layer 1
10
24.132599
20
31.442426
11
24.079677
21
31.468888
0
LINE
8
Layer 1
10
24.079677
20
31.468888
11
24.463364
21
31.786422
0
LINE
8
Layer 1
10
24.463364
20
31.786422
11
25.766574
21
32.977172
0
LINE
8
Layer 1
10
25.766574
20
32.977172
11
27.400033
21
34.734360
0
LINE
8
Layer 1
10
27.400033
20
34.734360
11
28.717819
21
36.451854
0
LINE
8
Layer 1
10
28.717819
20
36.451854
11
29.778850
21
38.216482
0
LINE
8
Layer 1
10
29.778850
20
38.216482
11
30.642044
21
40.115072
0
LINE
8
Layer 1
10
30.642044
20
40.115072
11
30.885982
21
40.512816
0
LINE
8
Layer 1
10
30.885982
20
40.512816
11
31.621107
21
40.717063
0
LINE
8
Layer 1
10
31.621107
20
40.717063
11
32.887106
21
40.806369
0
LINE
8
Layer 1
10
32.887106
20
40.806369
11
34.207687
21
40.717063
0
LINE
8
Layer 1
10
34.207687
20
40.717063
11
34.207690
21
40.717064
0
LINE
8
Layer 1
10
29.524060
20
39.645384
11
28.215059
21
37.247339
0
LINE
8
Layer 1
10
28.215059
20
37.247339
11
26.216420
21
34.650844
0
LINE
8
Layer 1
10
26.216420
20
34.650844
11
24.489830
21
32.977174
0
LINE
8
Layer 1
10
24.489830
20
32.977174
11
25.515200
21
34.796374
0
LINE
8
Layer 1
10
25.515200
20
34.796374
11
27.477460
21
37.811289
0
LINE
8
Layer 1
10
27.477460
20
37.811289
11
28.340446
21
38.824462
0
LINE
8
Layer 1
10
28.340446
20
38.824462
11
29.166840
21
39.565994
0
LINE
8
Layer 1
10
29.166840
20
39.565994
11
29.610064
21
39.890143
0
LINE
8
Layer 1
10
29.610064
20
39.890143
11
29.524065
21
39.645377
0
LINE
8
Layer 1
10
29.524065
20
39.645377
11
29.524060
21
39.645384
0
LINE
8
Layer 1
10
13.991360
20
39.281543
11
14.759559
21
37.798064
0
LINE
8
Layer 1
10
14.759559
20
37.798064
11
15.949490
21
36.324513
0
LINE
8
Layer 1
10
15.949490
20
36.324513
11
18.107729
21
34.594615
0
LINE
8
Layer 1
10
18.107729
20
34.594615
11
20.652960
21
33.142563
0
LINE
8
Layer 1
10
20.652960
20
33.142563
11
21.147453
21
32.862240
0
LINE
8
Layer 1
10
21.147453
20
32.862240
11
21.532794
21
32.328882
0
LINE
8
Layer 1
10
21.532794
20
32.328882
11
21.863558
21
31.775678
0
LINE
8
Layer 1
10
21.863558
20
31.775678
11
21.837097
21
31.713660
0
LINE
8
Layer 1
10
21.837097
20
31.713660
11
19.693747
21
32.150269
0
LINE
8
Layer 1
10
19.693747
20
32.150269
11
18.919759
21
32.456226
0
LINE
8
Layer 1
10
18.919759
20
32.456226
11
17.768697
21
33.129332
0
LINE
8
Layer 1
10
17.768697
20
33.129332
11
16.683688
21
33.980016
0
LINE
8
Layer 1
10
16.683688
20
33.980016
11
15.781631
21
34.958459
0
LINE
8
Layer 1
10
15.781631
20
34.958459
11
15.034619
21
36.100631
0
LINE
8
Layer 1
10
15.034619
20
36.100631
11
14.414747
21
37.442502
0
LINE
8
Layer 1
10
14.414747
20
37.442502
11
13.825986
21
39.559392
0
LINE
8
Layer 1
10
13.825986
20
39.559392
11
13.868985
21
39.599084
0
LINE
8
Layer 1
10
13.868985
20
39.599084
11
13.991368
21
39.281550
0
LINE
8
Layer 1
10
13.991368
20
39.281550
11
13.991360
21
39.281543
0
LINE
8
Layer 1
10
13.746594
20
31.429193
11
15.929640
21
30.737068
0
LINE
8
Layer 1
10
15.929640
20
30.737068
11
18.489754
21
30.317823
0
LINE
8
Layer 1
10
18.489754
20
30.317823
11
19.171025
21
30.254254
0
LINE
8
Layer 1
10
19.171025
20
30.254254
11
18.546811
21
30.211151
0
LINE
8
Layer 1
10
18.546811
20
30.211151
11
13.032144
21
30.178902
0
LINE
8
Layer 1
10
13.032144
20
30.178902
11
8.809108
21
30.196267
0
LINE
8
Layer 1
10
8.809108
20
30.196267
11
7.309914
21
30.238440
0
LINE
8
Layer 1
10
7.309914
20
30.238440
11
13.448904
21
31.548270
0
LINE
8
Layer 1
10
13.448904
20
31.548270
11
13.746592
21
31.429195
0
LINE
8
Layer 1
10
13.746592
20
31.429195
11
13.746594
21
31.429193
0
LINE
8
Layer 1
10
30.694994
20
30.833817
11
31.191141
21
30.787510
0
LINE
8
Layer 1
10
31.191141
20
30.787510
11
30.661918
21
30.727972
0
LINE
8
Layer 1
10
30.661918
20
30.727972
11
26.097368
21
30.727972
0
LINE
8
Layer 1
10
26.097368
20
30.727972
11
26.060984
21
30.787510
0
LINE
8
Layer 1
10
26.060984
20
30.787510
11
26.560438
21
30.827202
0
LINE
8
Layer 1
10
26.560438
20
30.827202
11
30.694998
21
30.833817
0
LINE
8
Layer 1
10
30.694998
20
30.833817
11
30.694994
21
30.833817
0
LINE
8
Layer 1
10
34.088634
20
30.337670
11
34.144037
21
30.216114
0
LINE
8
Layer 1
10
34.144037
20
30.216114
11
33.837253
21
30.198749
0
LINE
8
Layer 1
10
33.837253
20
30.198749
11
33.208800
21
30.231825
0
LINE
8
Layer 1
10
33.208800
20
30.231825
11
32.844959
21
30.245056
0
LINE
8
Layer 1
10
32.844959
20
30.245056
11
33.202185
21
30.304594
0
LINE
8
Layer 1
10
33.202185
20
30.304594
11
33.599102
21
30.397208
0
LINE
8
Layer 1
10
33.599102
20
30.397208
11
34.088633
21
30.337670
0
LINE
8
Layer 1
10
34.088633
20
30.337670
11
34.088634
21
30.337670
0
LINE
8
Layer 1
10
21.182234
20
30.225210
11
20.421476
21
30.225210
0
LINE
8
Layer 1
10
20.421476
20
30.225210
11
20.425611
21
30.272344
0
LINE
8
Layer 1
10
20.425611
20
30.272344
11
20.970545
21
30.284748
0
LINE
8
Layer 1
10
20.970545
20
30.284748
11
21.731303
21
30.278132
0
LINE
8
Layer 1
10
21.731303
20
30.278132
11
21.182234
21
30.225210
0
LINE
8
Layer 1
10
21.182234
20
30.225210
11
21.182234
21
30.225210
0
LINE
8
Layer 1
10
30.800864
20
29.768755
11
34.902344
21
29.768755
0
LINE
8
Layer 1
10
34.902344
20
29.768755
11
35.458028
21
29.325531
0
LINE
8
Layer 1
10
35.458028
20
29.325531
11
36.789355
21
27.863553
0
LINE
8
Layer 1
10
36.789355
20
27.863553
11
37.674148
21
26.064191
0
LINE
8
Layer 1
10
37.674148
20
26.064191
11
37.894933
21
24.774208
0
LINE
8
Layer 1
10
37.894933
20
24.774208
11
37.813069
21
23.563611
0
LINE
8
Layer 1
10
37.813069
20
23.563611
11
37.569970
21
22.936852
0
LINE
8
Layer 1
10
37.569970
20
22.936852
11
37.186786
21
22.376064
0
LINE
8
Layer 1
10
37.186786
20
22.376064
11
36.052573
21
21.480622
0
LINE
8
Layer 1
10
36.052573
20
21.480622
11
34.515240
21
20.933722
0
LINE
8
Layer 1
10
34.515240
20
20.933722
11
32.679599
21
20.791801
0
LINE
8
Layer 1
10
32.679599
20
20.791801
11
31.461558
21
20.919972
0
LINE
8
Layer 1
10
31.461558
20
20.919972
11
30.417169
21
21.221795
0
LINE
8
Layer 1
10
30.417169
20
21.221795
11
29.934253
21
21.400408
0
LINE
8
Layer 1
10
29.934253
20
21.400408
11
29.894561
21
21.731173
0
LINE
8
Layer 1
10
29.894561
20
21.731173
11
29.527413
21
23.182401
0
LINE
8
Layer 1
10
29.527413
20
23.182401
11
28.803041
21
24.906513
0
LINE
8
Layer 1
10
28.803041
20
24.906513
11
27.490733
21
27.150750
0
LINE
8
Layer 1
10
27.490733
20
27.150750
11
25.865851
21
29.127073
0
LINE
8
Layer 1
10
25.865851
20
29.127073
11
25.171246
21
29.854755
0
LINE
8
Layer 1
10
25.171246
20
29.854755
11
25.932004
21
29.815063
0
LINE
8
Layer 1
10
25.932004
20
29.815063
11
30.800854
21
29.768756
0
LINE
8
Layer 1
10
30.800854
20
29.768756
11
30.800864
21
29.768755
0
LINE
8
Layer 1
10
24.880184
20
28.227395
11
27.023534
21
25.270365
0
LINE
8
Layer 1
10
27.023534
20
25.270365
11
28.624434
21
22.319945
0
LINE
8
Layer 1
10
28.624434
20
22.319945
11
27.700773
21
23.165876
0
LINE
8
Layer 1
10
27.700773
20
23.165876
11
26.474464
21
24.542685
0
LINE
8
Layer 1
10
26.474464
20
24.542685
11
25.300251
21
26.308969
0
LINE
8
Layer 1
10
25.300251
20
26.308969
11
24.145884
21
28.392785
0
LINE
8
Layer 1
10
24.145884
20
28.392785
11
23.484355
21
29.748915
0
LINE
8
Layer 1
10
23.484355
20
29.748915
11
24.880185
21
28.227395
0
LINE
8
Layer 1
10
24.880185
20
28.227395
11
24.880184
21
28.227395
0
LINE
8
Layer 1
10
23.087444
20
28.564775
11
24.570921
21
25.859949
0
LINE
8
Layer 1
10
24.570921
20
25.859949
11
26.064324
21
23.695925
0
LINE
8
Layer 1
10
26.064324
20
23.695925
11
27.417151
21
22.217407
0
LINE
8
Layer 1
10
27.417151
20
22.217407
11
28.968434
21
20.977045
0
LINE
8
Layer 1
10
28.968434
20
20.977045
11
29.103221
21
20.799259
0
LINE
8
Layer 1
10
29.103221
20
20.799259
11
29.113970
21
20.308901
0
LINE
8
Layer 1
10
29.113970
20
20.308901
11
28.986626
21
19.134688
0
LINE
8
Layer 1
10
28.986626
20
19.134688
11
28.670746
21
18.000161
0
LINE
8
Layer 1
10
28.670746
20
18.000161
11
28.130773
21
16.889618
0
LINE
8
Layer 1
10
28.130773
20
16.889618
11
27.407226
21
16.002341
0
LINE
8
Layer 1
10
27.407226
20
16.002341
11
26.293377
21
15.241583
0
LINE
8
Layer 1
10
26.293377
20
15.241583
11
24.946336
21
15.016663
0
LINE
8
Layer 1
10
24.946336
20
15.016663
11
23.895644
21
15.158065
0
LINE
8
Layer 1
10
23.895644
20
15.158065
11
22.936117
21
15.587232
0
LINE
8
Layer 1
10
22.936117
20
15.587232
11
22.052252
21
16.311607
0
LINE
8
Layer 1
10
22.052252
20
16.311607
11
21.228546
21
17.338633
0
LINE
8
Layer 1
10
21.228546
20
17.338633
11
20.778706
21
17.953855
0
LINE
8
Layer 1
10
20.778706
20
17.953855
11
20.196560
21
17.821549
0
LINE
8
Layer 1
10
20.196560
20
17.821549
11
18.958676
21
17.609033
0
LINE
8
Layer 1
10
18.958676
20
17.609033
11
17.715830
21
17.689243
0
LINE
8
Layer 1
10
17.715830
20
17.689243
11
16.423368
21
18.294542
0
LINE
8
Layer 1
10
16.423368
20
18.294542
11
15.354170
21
19.415833
0
LINE
8
Layer 1
10
15.354170
20
19.415833
11
14.931618
21
20.185687
0
LINE
8
Layer 1
10
14.931618
20
20.185687
11
14.712487
21
20.891043
0
LINE
8
Layer 1
10
14.712487
20
20.891043
11
14.725718
21
21.130020
0
LINE
8
Layer 1
10
14.725718
20
21.130020
11
14.996944
21
21.334267
0
LINE
8
Layer 1
10
14.996944
20
21.334267
11
16.213329
21
22.263715
0
LINE
8
Layer 1
10
16.213329
20
22.263715
11
17.821674
21
23.748847
0
LINE
8
Layer 1
10
17.821674
20
23.748847
11
20.043586
21
26.076603
0
LINE
8
Layer 1
10
20.043586
20
26.076603
11
22.260534
21
28.796317
0
LINE
8
Layer 1
10
22.260534
20
28.796317
11
22.690528
21
29.305694
0
LINE
8
Layer 1
10
22.690528
20
29.305694
11
23.087445
21
28.564782
0
LINE
8
Layer 1
10
23.087445
20
28.564782
11
23.087444
21
28.564775
0
LINE
8
Layer 1
10
16.002464
20
23.179925
11
14.884484
21
22.260400
0
LINE
8
Layer 1
10
14.884484
20
22.260400
11
14.901849
21
22.326553
0
LINE
8
Layer 1
10
14.901849
20
22.326553
11
15.519552
21
22.849161
0
LINE
8
Layer 1
10
15.519552
20
22.849161
11
16.093428
21
23.312231
0
LINE
8
Layer 1
10
16.093428
20
23.312231
11
16.002468
21
23.179926
0
LINE
8
Layer 1
10
16.002468
20
23.179926
11
16.002464
21
23.179925
0
LINE
8
Layer 1
10
13.561424
20
21.367335
11
11.920834
21
20.547039
0
LINE
8
Layer 1
10
11.920834
20
20.547039
11
10.334815
21
20.108776
0
LINE
8
Layer 1
10
10.334815
20
20.108776
11
9.373944
21
20.057508
0
LINE
8
Layer 1
10
9.373944
20
20.057508
11
9.353271
21
20.135238
0
LINE
8
Layer 1
10
9.353271
20
20.135238
11
9.823784
21
20.222890
0
LINE
8
Layer 1
10
9.823784
20
20.222890
11
11.818294
21
20.710768
0
LINE
8
Layer 1
10
11.818294
20
20.710768
11
13.396044
21
21.367340
0
LINE
8
Layer 1
10
13.396044
20
21.367340
11
13.657348
21
21.496339
0
LINE
8
Layer 1
10
13.657348
20
21.496339
11
13.561426
21
21.367340
0
LINE
8
Layer 1
10
13.561426
20
21.367340
11
13.561424
21
21.367335
0
LINE
8
Layer 1
10
8.136884
20
20.904265
11
8.110423
21
20.838112
0
LINE
8
Layer 1
10
8.110423
20
20.838112
11
8.037655
21
20.904265
0
LINE
8
Layer 1
10
8.037655
20
20.904265
11
8.064116
21
20.970418
0
LINE
8
Layer 1
10
8.064116
20
20.970418
11
8.136884
21
20.904265
0
LINE
8
Layer 1
10
8.136884
20
20.904265
11
8.136884
21
20.904265
 0 
ENDSEC
 0 
EOF