<?xml version="1.0" standalone="no"?>
<!DOCTYPE svg PUBLIC "-//W3C//DTD SVG 20010904//EN"
 "http://www.w3.org/TR/2001/REC-SVG-20010904/DTD/svg10.dtd">
<svg version="1.0" xmlns="http://www.w3.org/2000/svg"
 width="170.078740pt" height="170.078740pt" viewBox="0 0 170.078740 170.078740"
 preserveAspectRatio="xMidYMid meet">
<metadata>
Created by potrace 1.16, written by Peter Selinger 2001-2019
</metadata>
<g transform="translate(0.000000,170.078740) scale(0.018752,-0.018752)"
fill="#000000" stroke="none">
<path d="M4512 7867 c2 -664 1 -1207 -1 -1207 -1 0 -35 29 -75 63 -409 364
-876 623 -1311 728 -129 31 -341 44 -486 31 -489 -46 -894 -280 -1209 -700
-317 -423 -492 -1084 -425 -1607 28 -212 93 -466 171 -668 19 -49 34 -91 34
-93 0 -2 -272 -4 -605 -4 l-605 0 0 -80 0 -79 641 0 641 0 80 -138 c299 -513
778 -1094 1483 -1798 428 -428 765 -729 1368 -1223 163 -134 297 -249 297
-255 0 -7 0 -199 0 -427 0 -230 4 -409 9 -402 4 7 8 196 8 420 l1 407 43 39
c24 21 100 84 169 139 640 516 1138 961 1570 1403 639 654 1095 1212 1360
1664 40 69 80 135 89 148 l16 23 648 -1 647 0 0 80 0 80 -614 0 -613 0 53 158
c116 344 157 568 156 847 -1 271 -33 483 -109 720 -153 482 -407 838 -770
1081 -384 257 -839 335 -1293 222 -255 -63 -547 -194 -810 -363 -139 -90 -357
-262 -481 -381 l-56 -53 -5 402 c-3 221 -7 767 -8 1212 -1 446 -4 812 -6 815
-3 2 -4 -539 -2 -1203z m-1594 -647 c370 -47 842 -283 1235 -619 62 -53 167
-149 235 -215 l122 -119 0 -928 0 -929 -1499 0 -1498 0 -36 79 c-206 450 -258
901 -161 1381 83 403 296 781 574 1014 194 162 344 244 555 299 169 45 317 56
473 37z m3643 -24 c261 -60 474 -183 690 -396 271 -267 448 -638 510 -1069 30
-204 24 -504 -14 -701 -31 -156 -95 -359 -162 -512 l-47 -108 -1503 0 -1502 0
-7 183 c-4 100 -6 515 -5 921 l2 739 116 115 c214 211 469 414 684 544 273
165 523 264 763 303 130 21 339 13 475 -19z m-2055 -2949 c2 -2 5 -688 6
-1524 l3 -1521 -45 36 c-658 532 -992 831 -1515 1356 -424 425 -721 757 -1015
1134 -138 177 -340 485 -340 518 0 8 2898 9 2906 1z m2944 0 c0 -31 -202 -336
-338 -512 -359 -462 -849 -999 -1312 -1439 -359 -340 -461 -430 -962 -849
l-308 -257 -1 107 c-1 60 -2 749 -3 1533 l-1 1425 1462 0 c805 0 1463 -4 1463
-8z"/>
</g>
</svg>
