999
"DXF R12 Output" (www.mydxf.blogspot.com)
 0 
SECTION
 2 
HEADER
 9 
$ACADVER
 1 
AC1009
 9 
$EXTMIN
 10 
 0 
 20 
 0 
 9 
$EXTMAX
 10 
 8.5 
 20 
 11 
 0 
ENDSEC
 0 
SECTION
 2 
ENTITIES
0
LINE
8
Layer 1
10
26.289200
20
46.379700
11
25.414122
21
46.132557
0
LINE
8
Layer 1
10
25.414122
20
46.132557
11
24.602301
21
45.697499
0
LINE
8
Layer 1
10
24.602301
20
45.697499
11
23.894673
21
45.102433
0
LINE
8
Layer 1
10
23.894673
20
45.102433
11
23.332170
21
44.375270
0
LINE
8
Layer 1
10
23.332170
20
44.375270
11
22.992930
21
43.636425
0
LINE
8
Layer 1
10
22.992930
20
43.636425
11
22.811216
21
42.820678
0
LINE
8
Layer 1
10
22.811216
20
42.820678
11
22.790750
21
41.960277
0
LINE
8
Layer 1
10
22.790750
20
41.960277
11
22.935253
21
41.087470
0
LINE
8
Layer 1
10
22.935253
20
41.087470
11
23.127096
21
40.571477
0
LINE
8
Layer 1
10
23.127096
20
40.571477
11
23.208960
21
40.357307
0
LINE
8
Layer 1
10
23.208960
20
40.357307
11
23.008021
21
40.406095
0
LINE
8
Layer 1
10
23.008021
20
40.406095
11
21.929731
21
40.518555
0
LINE
8
Layer 1
10
21.929731
20
40.518555
11
20.651325
21
40.381288
0
LINE
8
Layer 1
10
20.651325
20
40.381288
11
19.601151
21
39.876872
0
LINE
8
Layer 1
10
19.601151
20
39.876872
11
18.843236
21
39.242048
0
LINE
8
Layer 1
10
18.843236
20
39.242048
11
18.254942
21
38.490863
0
LINE
8
Layer 1
10
18.254942
20
38.490863
11
17.841539
21
37.656419
0
LINE
8
Layer 1
10
17.841539
20
37.656419
11
17.608299
21
36.771818
0
LINE
8
Layer 1
10
17.608299
20
36.771818
11
17.560493
21
35.870163
0
LINE
8
Layer 1
10
17.560493
20
35.870163
11
17.703394
21
34.984555
0
LINE
8
Layer 1
10
17.703394
20
34.984555
11
18.042273
21
34.148097
0
LINE
8
Layer 1
10
18.042273
20
34.148097
11
18.582401
21
33.393892
0
LINE
8
Layer 1
10
18.582401
20
33.393892
11
18.979318
21
32.963898
0
LINE
8
Layer 1
10
18.979318
20
32.963898
11
18.648553
21
32.639749
0
LINE
8
Layer 1
10
18.648553
20
32.639749
11
17.868774
21
31.519286
0
LINE
8
Layer 1
10
17.868774
20
31.519286
11
17.550413
21
30.106089
0
LINE
8
Layer 1
10
17.550413
20
30.106089
11
17.710524
21
28.571033
0
LINE
8
Layer 1
10
17.710524
20
28.571033
11
18.330191
21
27.197844
0
LINE
8
Layer 1
10
18.330191
20
27.197844
11
19.335612
21
26.101255
0
LINE
8
Layer 1
10
19.335612
20
26.101255
11
20.652983
21
25.395999
0
LINE
8
Layer 1
10
20.652983
20
25.395999
11
22.062043
21
25.237232
0
LINE
8
Layer 1
10
22.062043
20
25.237232
11
23.216414
21
25.324885
0
LINE
8
Layer 1
10
23.216414
20
25.324885
11
24.013553
21
25.700302
0
LINE
8
Layer 1
10
24.013553
20
25.700302
11
24.344318
21
25.925222
0
LINE
8
Layer 1
10
24.344318
20
25.925222
11
24.344318
21
25.713533
0
LINE
8
Layer 1
10
24.344318
20
25.713533
11
24.701544
21
24.516163
0
LINE
8
Layer 1
10
24.701544
20
24.516163
11
25.268806
21
23.872000
0
LINE
8
Layer 1
10
25.268806
20
23.872000
11
25.984914
21
23.411413
0
LINE
8
Layer 1
10
25.984914
20
23.411413
11
27.255054
21
23.252646
0
LINE
8
Layer 1
10
27.255054
20
23.252646
11
28.086100
21
23.280761
0
LINE
8
Layer 1
10
28.086100
20
23.280761
11
28.584724
21
23.457720
0
LINE
8
Layer 1
10
28.584724
20
23.457720
11
29.230542
21
23.897637
0
LINE
8
Layer 1
10
29.230542
20
23.897637
11
29.663014
21
24.436783
0
LINE
8
Layer 1
10
29.663014
20
24.436783
11
29.718624
21
24.362568
0
LINE
8
Layer 1
10
29.718624
20
24.362568
11
29.750667
21
23.585065
0
LINE
8
Layer 1
10
29.750667
20
23.585065
11
29.768859
21
18.258103
0
LINE
8
Layer 1
10
29.768859
20
18.258103
11
29.848243
21
11.788353
0
LINE
8
Layer 1
10
29.848243
20
11.788353
11
30.463464
21
11.708969
0
LINE
8
Layer 1
10
30.463464
20
11.708969
11
31.078683
21
11.788353
0
LINE
8
Layer 1
10
31.078683
20
11.788353
11
31.158066
21
18.291183
0
LINE
8
Layer 1
10
31.158066
20
18.291183
11
31.158066
21
24.708013
0
LINE
8
Layer 1
10
31.158066
20
24.708013
11
31.330064
21
24.410325
0
LINE
8
Layer 1
10
31.330064
20
24.410325
11
31.640983
21
23.960485
0
LINE
8
Layer 1
10
31.640983
20
23.960485
11
32.167726
21
23.569356
0
LINE
8
Layer 1
10
32.167726
20
23.569356
11
32.798663
21
23.312187
0
LINE
8
Layer 1
10
32.798663
20
23.312187
11
33.797573
21
23.222054
0
LINE
8
Layer 1
10
33.797573
20
23.222054
11
34.736943
21
23.325418
0
LINE
8
Layer 1
10
34.736943
20
23.325418
11
35.436096
21
23.643158
0
LINE
8
Layer 1
10
35.436096
20
23.643158
11
35.983923
21
24.125866
0
LINE
8
Layer 1
10
35.983923
20
24.125866
11
36.363060
21
24.752458
0
LINE
8
Layer 1
10
36.363060
20
24.752458
11
36.556143
21
25.501848
0
LINE
8
Layer 1
10
36.556143
20
25.501848
11
36.602450
21
25.859074
0
LINE
8
Layer 1
10
36.602450
20
25.859074
11
37.005983
21
25.634154
0
LINE
8
Layer 1
10
37.005983
20
25.634154
11
37.844472
21
25.302562
0
LINE
8
Layer 1
10
37.844472
20
25.302562
11
38.831803
21
25.204160
0
LINE
8
Layer 1
10
38.831803
20
25.204160
11
39.939866
21
25.314966
0
LINE
8
Layer 1
10
39.939866
20
25.314966
11
40.928853
21
25.693691
0
LINE
8
Layer 1
10
40.928853
20
25.693691
11
42.157645
21
26.601639
0
LINE
8
Layer 1
10
42.157645
20
26.601639
11
42.999443
21
27.876741
0
LINE
8
Layer 1
10
42.999443
20
27.876741
11
43.324419
21
28.866552
0
LINE
8
Layer 1
10
43.324419
20
28.866552
11
43.376515
21
30.000251
0
LINE
8
Layer 1
10
43.376515
20
30.000251
11
43.105288
21
31.441554
0
LINE
8
Layer 1
10
43.105288
20
31.441554
11
42.298225
21
32.619901
0
LINE
8
Layer 1
10
42.298225
20
32.619901
11
41.940999
21
32.983742
0
LINE
8
Layer 1
10
41.940999
20
32.983742
11
42.344532
21
33.393890
0
LINE
8
Layer 1
10
42.344532
20
33.393890
11
42.818170
21
34.000469
0
LINE
8
Layer 1
10
42.818170
20
34.000469
11
43.148082
21
34.684184
0
LINE
8
Layer 1
10
43.148082
20
34.684184
11
43.379825
21
36.194641
0
LINE
8
Layer 1
10
43.379825
20
36.194641
11
43.045961
21
37.748510
0
LINE
8
Layer 1
10
43.045961
20
37.748510
11
42.668864
21
38.486489
0
LINE
8
Layer 1
10
42.668864
20
38.486489
11
42.152689
21
39.169040
0
LINE
8
Layer 1
10
42.152689
20
39.169040
11
41.345622
21
39.853722
0
LINE
8
Layer 1
10
41.345622
20
39.853722
11
40.439329
21
40.359790
0
LINE
8
Layer 1
10
40.439329
20
40.359790
11
39.276690
21
40.544191
0
LINE
8
Layer 1
10
39.276690
20
40.544191
11
38.143819
21
40.425942
0
LINE
8
Layer 1
10
38.143819
20
40.425942
11
37.727056
21
40.306867
0
LINE
8
Layer 1
10
37.727056
20
40.306867
11
37.839516
21
40.631016
0
LINE
8
Layer 1
10
37.839516
20
40.631016
11
38.161185
21
42.131034
0
LINE
8
Layer 1
10
38.161185
20
42.131034
11
37.951976
21
43.660816
0
LINE
8
Layer 1
10
37.951976
20
43.660816
11
37.514850
21
44.539924
0
LINE
8
Layer 1
10
37.514850
20
44.539924
11
36.881126
21
45.290655
0
LINE
8
Layer 1
10
36.881126
20
45.290655
11
36.084915
21
45.881379
0
LINE
8
Layer 1
10
36.084915
20
45.881379
11
35.160326
21
46.280466
0
LINE
8
Layer 1
10
35.160326
20
46.280466
11
34.010092
21
46.402022
0
LINE
8
Layer 1
10
34.010092
20
46.402022
11
32.844976
21
46.280466
0
LINE
8
Layer 1
10
32.844976
20
46.280466
11
31.572360
21
45.646225
0
LINE
8
Layer 1
10
31.572360
20
45.646225
11
30.602396
21
44.719256
0
LINE
8
Layer 1
10
30.602396
20
44.719256
11
30.489936
21
44.553874
0
LINE
8
Layer 1
10
30.489936
20
44.553874
11
30.126095
21
44.964022
0
LINE
8
Layer 1
10
30.126095
20
44.964022
11
29.164398
21
45.793413
0
LINE
8
Layer 1
10
29.164398
20
45.793413
11
28.088585
21
46.280462
0
LINE
8
Layer 1
10
28.088585
20
46.280462
11
26.289225
21
46.379692
0
LINE
8
Layer 1
10
26.289225
20
46.379692
11
26.289200
21
46.379700
0
LINE
8
Layer 1
10
27.943020
20
45.870323
11
29.177599
21
45.258409
0
LINE
8
Layer 1
10
29.177599
20
45.258409
11
30.218680
21
44.170193
0
LINE
8
Layer 1
10
30.218680
20
44.170193
11
30.496522
21
43.917985
0
LINE
8
Layer 1
10
30.496522
20
43.917985
11
30.893440
21
44.355421
0
LINE
8
Layer 1
10
30.893440
20
44.355421
11
31.543909
21
45.082481
0
LINE
8
Layer 1
10
31.543909
20
45.082481
11
32.266940
21
45.592480
0
LINE
8
Layer 1
10
32.266940
20
45.592480
11
33.080519
21
45.894096
0
LINE
8
Layer 1
10
33.080519
20
45.894096
11
34.002630
21
45.996011
0
LINE
8
Layer 1
10
34.002630
20
45.996011
11
35.442285
21
45.732227
0
LINE
8
Layer 1
10
35.442285
20
45.732227
11
36.648750
21
44.917721
0
LINE
8
Layer 1
10
36.648750
20
44.917721
11
37.469047
21
43.721180
0
LINE
8
Layer 1
10
37.469047
20
43.721180
11
37.733660
21
42.271601
0
LINE
8
Layer 1
10
37.733660
20
42.271601
11
37.622854
21
41.296672
0
LINE
8
Layer 1
10
37.622854
20
41.296672
11
37.303666
21
40.406091
0
LINE
8
Layer 1
10
37.303666
20
40.406091
11
35.553923
21
38.206507
0
LINE
8
Layer 1
10
35.553923
20
38.206507
11
32.454656
21
34.895551
0
LINE
8
Layer 1
10
32.454656
20
34.895551
11
31.733589
21
34.167869
0
LINE
8
Layer 1
10
31.733589
20
34.167869
11
32.421579
21
34.915397
0
LINE
8
Layer 1
10
32.421579
20
34.915397
11
35.515883
21
38.477730
0
LINE
8
Layer 1
10
35.515883
20
38.477730
11
36.245011
21
39.605843
0
LINE
8
Layer 1
10
36.245011
20
39.605843
11
36.675209
21
40.631007
0
LINE
8
Layer 1
10
36.675209
20
40.631007
11
36.882764
21
42.059081
0
LINE
8
Layer 1
10
36.882764
20
42.059081
11
36.549518
21
43.363117
0
LINE
8
Layer 1
10
36.549518
20
43.363117
11
35.911245
21
44.241088
0
LINE
8
Layer 1
10
35.911245
20
44.241088
11
35.035441
21
44.835016
0
LINE
8
Layer 1
10
35.035441
20
44.835016
11
34.007074
21
45.106449
0
LINE
8
Layer 1
10
34.007074
20
45.106449
11
32.911108
21
45.016937
0
LINE
8
Layer 1
10
32.911108
20
45.016937
11
32.129573
21
44.686896
0
LINE
8
Layer 1
10
32.129573
20
44.686896
11
31.456572
21
44.157776
0
LINE
8
Layer 1
10
31.456572
20
44.157776
11
30.928693
21
43.466169
0
LINE
8
Layer 1
10
30.928693
20
43.466169
11
30.582528
21
42.648667
0
LINE
8
Layer 1
10
30.582528
20
42.648667
11
30.470068
21
42.264980
0
LINE
8
Layer 1
10
30.470068
20
42.264980
11
30.384069
21
42.615590
0
LINE
8
Layer 1
10
30.384069
20
42.615590
11
30.088862
21
43.381310
0
LINE
8
Layer 1
10
30.088862
20
43.381310
11
29.610080
21
44.037880
0
LINE
8
Layer 1
10
29.610080
20
44.037880
11
28.534270
21
44.852386
0
LINE
8
Layer 1
10
28.534270
20
44.852386
11
27.294730
21
45.116170
0
LINE
8
Layer 1
10
27.294730
20
45.116170
11
26.048574
21
44.889597
0
LINE
8
Layer 1
10
26.048574
20
44.889597
11
25.005840
21
44.216491
0
LINE
8
Layer 1
10
25.005840
20
44.216491
11
24.282293
21
43.167967
0
LINE
8
Layer 1
10
24.282293
20
43.167967
11
24.059854
21
41.841601
0
LINE
8
Layer 1
10
24.059854
20
41.841601
11
24.276299
21
40.604024
0
LINE
8
Layer 1
10
24.276299
20
40.604024
11
24.938035
21
39.234350
0
LINE
8
Layer 1
10
24.938035
20
39.234350
11
26.108321
21
37.630246
0
LINE
8
Layer 1
10
26.108321
20
37.630246
11
27.850414
21
35.689381
0
LINE
8
Layer 1
10
27.850414
20
35.689381
11
28.809631
21
34.657391
0
LINE
8
Layer 1
10
28.809631
20
34.657391
11
28.845615
21
34.607117
0
LINE
8
Layer 1
10
28.845615
20
34.607117
11
28.743996
21
34.700494
0
LINE
8
Layer 1
10
28.743996
20
34.700494
11
28.210122
21
35.235402
0
LINE
8
Layer 1
10
28.210122
20
35.235402
11
26.395051
21
37.118281
0
LINE
8
Layer 1
10
26.395051
20
37.118281
11
24.814410
21
38.841251
0
LINE
8
Layer 1
10
24.814410
20
38.841251
11
23.866356
21
40.076140
0
LINE
8
Layer 1
10
23.866356
20
40.076140
11
23.392122
21
41.069159
0
LINE
8
Layer 1
10
23.392122
20
41.069159
11
23.232941
21
42.066521
0
LINE
8
Layer 1
10
23.232941
20
42.066521
11
23.256818
21
42.873277
0
LINE
8
Layer 1
10
23.256818
20
42.873277
11
23.418996
21
43.569019
0
LINE
8
Layer 1
10
23.418996
20
43.569019
11
23.736220
21
44.201501
0
LINE
8
Layer 1
10
23.736220
20
44.201501
11
24.225235
21
44.818481
0
LINE
8
Layer 1
10
24.225235
20
44.818481
11
25.243162
21
45.602392
0
LINE
8
Layer 1
10
25.243162
20
45.602392
11
26.474435
21
45.969541
0
LINE
8
Layer 1
10
26.474435
20
45.969541
11
27.943025
21
45.870312
0
LINE
8
Layer 1
10
27.943025
20
45.870312
11
27.943020
21
45.870323
0
LINE
8
Layer 1
10
28.333322
20
44.467883
11
28.953402
21
44.087297
0
LINE
8
Layer 1
10
28.953402
20
44.087297
11
29.438903
21
43.576473
0
LINE
8
Layer 1
10
29.438903
20
43.576473
11
29.796645
21
42.929209
0
LINE
8
Layer 1
10
29.796645
20
42.929209
11
30.033452
21
42.139303
0
LINE
8
Layer 1
10
30.033452
20
42.139303
11
30.271602
21
38.864733
0
LINE
8
Layer 1
10
30.271602
20
38.864733
11
30.245141
21
36.040003
0
LINE
8
Layer 1
10
30.245141
20
36.040003
11
30.231910
21
33.737883
0
LINE
8
Layer 1
10
30.231910
20
33.737883
11
29.094080
21
34.961713
0
LINE
8
Layer 1
10
29.094080
20
34.961713
11
26.172603
21
38.223052
0
LINE
8
Layer 1
10
26.172603
20
38.223052
11
24.972750
21
40.055483
0
LINE
8
Layer 1
10
24.972750
20
40.055483
11
24.582965
21
41.132016
0
LINE
8
Layer 1
10
24.582965
20
41.132016
11
24.484046
21
42.123587
0
LINE
8
Layer 1
10
24.484046
20
42.123587
11
24.674132
21
43.007245
0
LINE
8
Layer 1
10
24.674132
20
43.007245
11
25.151363
21
43.760043
0
LINE
8
Layer 1
10
25.151363
20
43.760043
11
25.855994
21
44.332059
0
LINE
8
Layer 1
10
25.855994
20
44.332059
11
26.660475
21
44.649800
0
LINE
8
Layer 1
10
26.660475
20
44.649800
11
27.505887
21
44.699622
0
LINE
8
Layer 1
10
27.505887
20
44.699622
11
28.333313
21
44.467879
0
LINE
8
Layer 1
10
28.333313
20
44.467879
11
28.333322
21
44.467883
0
LINE
8
Layer 1
10
34.829532
20
44.461268
11
35.616752
21
43.919641
0
LINE
8
Layer 1
10
35.616752
20
43.919641
11
36.185662
21
43.164668
0
LINE
8
Layer 1
10
36.185662
20
43.164668
11
36.437043
21
42.152528
0
LINE
8
Layer 1
10
36.437043
20
42.152528
11
36.399005
21
41.300807
0
LINE
8
Layer 1
10
36.399005
20
41.300807
11
36.132740
21
40.419318
0
LINE
8
Layer 1
10
36.132740
20
40.419318
11
35.551421
21
39.326969
0
LINE
8
Layer 1
10
35.551421
20
39.326969
11
34.697220
21
38.110578
0
LINE
8
Layer 1
10
34.697220
20
38.110578
11
31.144810
21
34.167868
0
LINE
8
Layer 1
10
31.144810
20
34.167868
11
30.694970
21
33.704798
0
LINE
8
Layer 1
10
30.694970
20
33.704798
11
30.694970
21
37.045518
0
LINE
8
Layer 1
10
30.694970
20
37.045518
11
30.748719
21
40.808789
0
LINE
8
Layer 1
10
30.748719
20
40.808789
11
30.966197
21
42.483288
0
LINE
8
Layer 1
10
30.966197
20
42.483288
11
31.280217
21
43.247458
0
LINE
8
Layer 1
10
31.280217
20
43.247458
11
31.761686
21
43.878289
0
LINE
8
Layer 1
10
31.761686
20
43.878289
11
32.389519
21
44.354074
0
LINE
8
Layer 1
10
32.389519
20
44.354074
11
33.142627
21
44.653108
0
LINE
8
Layer 1
10
33.142627
20
44.653108
11
33.978633
21
44.686184
0
LINE
8
Layer 1
10
33.978633
20
44.686184
11
34.829527
21
44.461265
0
LINE
8
Layer 1
10
34.829527
20
44.461265
11
34.829532
21
44.461268
0
LINE
8
Layer 1
10
22.862432
20
39.982718
11
23.575230
21
39.470860
0
LINE
8
Layer 1
10
23.575230
20
39.470860
11
24.278102
21
38.765508
0
LINE
8
Layer 1
10
24.278102
20
38.765508
11
24.483176
21
38.500896
0
LINE
8
Layer 1
10
24.483176
20
38.500896
11
24.033336
21
38.719201
0
LINE
8
Layer 1
10
24.033336
20
38.719201
11
23.543805
21
38.899467
0
LINE
8
Layer 1
10
23.543805
20
38.899467
11
22.855816
21
38.930890
0
LINE
8
Layer 1
10
22.855816
20
38.930890
11
21.722946
21
38.810987
0
LINE
8
Layer 1
10
21.722946
20
38.810987
11
20.600006
21
38.368590
0
LINE
8
Layer 1
10
20.600006
20
38.368590
11
19.478715
21
37.627679
0
LINE
8
Layer 1
10
19.478715
20
37.627679
11
18.774186
21
36.728000
0
LINE
8
Layer 1
10
18.774186
20
36.728000
11
18.590611
21
36.263276
0
LINE
8
Layer 1
10
18.590611
20
36.263276
11
18.555881
21
35.689400
0
LINE
8
Layer 1
10
18.555881
20
35.689400
11
18.586477
21
35.132888
0
LINE
8
Layer 1
10
18.586477
20
35.132888
11
18.741109
21
34.730183
0
LINE
8
Layer 1
10
18.741109
20
34.730183
11
19.128827
21
34.160647
0
LINE
8
Layer 1
10
19.128827
20
34.160647
11
19.654846
21
33.681659
0
LINE
8
Layer 1
10
19.654846
20
33.681659
11
20.301182
21
33.306862
0
LINE
8
Layer 1
10
20.301182
20
33.306862
11
21.049849
21
33.049903
0
LINE
8
Layer 1
10
21.049849
20
33.049903
11
21.547649
21
32.913462
0
LINE
8
Layer 1
10
21.547649
20
32.913462
11
21.400459
21
32.851444
0
LINE
8
Layer 1
10
21.400459
20
32.851444
11
20.293225
21
32.514891
0
LINE
8
Layer 1
10
20.293225
20
32.514891
11
19.369569
21
32.004687
0
LINE
8
Layer 1
10
19.369569
20
32.004687
11
18.867427
21
31.439803
0
LINE
8
Layer 1
10
18.867427
20
31.439803
11
18.537696
21
30.710572
0
LINE
8
Layer 1
10
18.537696
20
30.710572
11
18.403943
21
29.895755
0
LINE
8
Layer 1
10
18.403943
20
29.895755
11
18.489735
21
29.074117
0
LINE
8
Layer 1
10
18.489735
20
29.074117
11
18.774192
21
28.327416
0
LINE
8
Layer 1
10
18.774192
20
28.327416
11
19.257109
21
27.684907
0
LINE
8
Layer 1
10
19.257109
20
27.684907
11
19.795634
21
27.222250
0
LINE
8
Layer 1
10
19.795634
20
27.222250
11
20.424706
21
26.881149
0
LINE
8
Layer 1
10
20.424706
20
26.881149
11
21.870149
21
26.593387
0
LINE
8
Layer 1
10
21.870149
20
26.593387
11
23.323031
21
26.905132
0
LINE
8
Layer 1
10
23.323031
20
26.905132
11
24.840419
21
27.717987
0
LINE
8
Layer 1
10
24.840419
20
27.717987
11
25.601177
21
28.260441
0
LINE
8
Layer 1
10
25.601177
20
28.260441
11
25.898865
21
28.472130
0
LINE
8
Layer 1
10
25.898865
20
28.472130
11
25.680560
21
28.214134
0
LINE
8
Layer 1
10
25.680560
20
28.214134
11
24.628730
21
26.758774
0
LINE
8
Layer 1
10
24.628730
20
26.758774
11
24.410425
21
26.414779
0
LINE
8
Layer 1
10
24.410425
20
26.414779
11
24.165659
21
26.275858
0
LINE
8
Layer 1
10
24.165659
20
26.275858
11
23.231043
21
25.780021
0
LINE
8
Layer 1
10
23.231043
20
25.780021
11
22.156264
21
25.593656
0
LINE
8
Layer 1
10
22.156264
20
25.593656
11
21.049235
21
25.718623
0
LINE
8
Layer 1
10
21.049235
20
25.718623
11
20.017869
21
26.156783
0
LINE
8
Layer 1
10
20.017869
20
26.156783
11
19.161603
21
26.845703
0
LINE
8
Layer 1
10
19.161603
20
26.845703
11
18.521161
21
27.689049
0
LINE
8
Layer 1
10
18.521161
20
27.689049
11
18.116388
21
28.652712
0
LINE
8
Layer 1
10
18.116388
20
28.652712
11
17.967129
21
29.702583
0
LINE
8
Layer 1
10
17.967129
20
29.702583
11
18.043722
21
30.617663
0
LINE
8
Layer 1
10
18.043722
20
30.617663
11
18.302028
21
31.406846
0
LINE
8
Layer 1
10
18.302028
20
31.406846
11
18.755073
21
32.098041
0
LINE
8
Layer 1
10
18.755073
20
32.098041
11
19.415879
21
32.719153
0
LINE
8
Layer 1
10
19.415879
20
32.719153
11
19.680491
21
32.924227
0
LINE
8
Layer 1
10
19.680491
20
32.924227
11
19.111576
21
33.479911
0
LINE
8
Layer 1
10
19.111576
20
33.479911
11
18.588039
21
34.074461
0
LINE
8
Layer 1
10
18.588039
20
34.074461
11
18.242494
21
34.673972
0
LINE
8
Layer 1
10
18.242494
20
34.673972
11
18.051996
21
35.333021
0
LINE
8
Layer 1
10
18.051996
20
35.333021
11
17.993596
21
36.106181
0
LINE
8
Layer 1
10
17.993596
20
36.106181
11
18.213554
21
37.428411
0
LINE
8
Layer 1
10
18.213554
20
37.428411
11
18.899891
21
38.646451
0
LINE
8
Layer 1
10
18.899891
20
38.646451
11
19.769284
21
39.472017
0
LINE
8
Layer 1
10
19.769284
20
39.472017
11
20.814190
21
40.001757
0
LINE
8
Layer 1
10
20.814190
20
40.001757
11
21.892585
21
40.187916
0
LINE
8
Layer 1
10
21.892585
20
40.187916
11
22.862451
21
39.982741
0
LINE
8
Layer 1
10
22.862451
20
39.982741
11
22.862432
21
39.982718
0
LINE
8
Layer 1
10
39.989432
20
40.042255
11
41.022758
21
39.556652
0
LINE
8
Layer 1
10
41.022758
20
39.556652
11
41.875613
21
38.821734
0
LINE
8
Layer 1
10
41.875613
20
38.821734
11
42.511405
21
37.878435
0
LINE
8
Layer 1
10
42.511405
20
37.878435
11
42.893542
21
36.767685
0
LINE
8
Layer 1
10
42.893542
20
36.767685
11
42.993598
21
35.982120
0
LINE
8
Layer 1
10
42.993598
20
35.982120
11
42.900157
21
35.266015
0
LINE
8
Layer 1
10
42.900157
20
35.266015
11
42.531355
21
34.348142
0
LINE
8
Layer 1
10
42.531355
20
34.348142
11
41.815247
21
33.479885
0
LINE
8
Layer 1
10
41.815247
20
33.479885
11
41.246332
21
32.924201
0
LINE
8
Layer 1
10
41.246332
20
32.924201
11
41.544020
21
32.686051
0
LINE
8
Layer 1
10
41.544020
20
32.686051
11
42.325140
21
31.899865
0
LINE
8
Layer 1
10
42.325140
20
31.899865
11
42.806713
21
31.020651
0
LINE
8
Layer 1
10
42.806713
20
31.020651
11
42.994320
21
30.034767
0
LINE
8
Layer 1
10
42.994320
20
30.034767
11
42.893540
21
28.928571
0
LINE
8
Layer 1
10
42.893540
20
28.928571
11
42.390779
21
27.626187
0
LINE
8
Layer 1
10
42.390779
20
27.626187
11
41.491100
21
26.566911
0
LINE
8
Layer 1
10
41.491100
20
26.566911
11
40.405367
21
25.905178
0
LINE
8
Layer 1
10
40.405367
20
25.905178
11
39.220402
21
25.604389
0
LINE
8
Layer 1
10
39.220402
20
25.604389
11
38.052801
21
25.675709
0
LINE
8
Layer 1
10
38.052801
20
25.675709
11
37.019160
21
26.130302
0
LINE
8
Layer 1
10
37.019160
20
26.130302
11
36.595781
21
26.394914
0
LINE
8
Layer 1
10
36.595781
20
26.394914
11
36.364246
21
26.758755
0
LINE
8
Layer 1
10
36.364246
20
26.758755
11
35.656410
21
27.751048
0
LINE
8
Layer 1
10
35.656410
20
27.751048
11
35.140417
21
28.412577
0
LINE
8
Layer 1
10
35.140417
20
28.412577
11
35.722563
21
28.009044
0
LINE
8
Layer 1
10
35.722563
20
28.009044
11
37.348376
21
27.026158
0
LINE
8
Layer 1
10
37.348376
20
27.026158
11
38.895423
21
26.620661
0
LINE
8
Layer 1
10
38.895423
20
26.620661
11
39.622549
21
26.635790
0
LINE
8
Layer 1
10
39.622549
20
26.635790
11
40.309751
21
26.796895
0
LINE
8
Layer 1
10
40.309751
20
26.796895
11
40.950284
21
27.104519
0
LINE
8
Layer 1
10
40.950284
20
27.104519
11
41.537403
21
27.559204
0
LINE
8
Layer 1
10
41.537403
20
27.559204
11
42.123683
21
28.256291
0
LINE
8
Layer 1
10
42.123683
20
28.256291
11
42.437082
21
29.047644
0
LINE
8
Layer 1
10
42.437082
20
29.047644
11
42.500651
21
30.322741
0
LINE
8
Layer 1
10
42.500651
20
30.322741
11
42.082338
21
31.409302
0
LINE
8
Layer 1
10
42.082338
20
31.409302
11
41.221214
21
32.247788
0
LINE
8
Layer 1
10
41.221214
20
32.247788
11
39.956352
21
32.778664
0
LINE
8
Layer 1
10
39.956352
20
32.778664
11
39.513128
21
32.917585
0
LINE
8
Layer 1
10
39.513128
20
32.917585
11
40.029121
21
33.082967
0
LINE
8
Layer 1
10
40.029121
20
33.082967
11
41.033715
21
33.494149
0
LINE
8
Layer 1
10
41.033715
20
33.494149
11
41.779693
21
34.085185
0
LINE
8
Layer 1
10
41.779693
20
34.085185
11
42.244107
21
34.830024
0
LINE
8
Layer 1
10
42.244107
20
34.830024
11
42.404011
21
35.702617
0
LINE
8
Layer 1
10
42.404011
20
35.702617
11
42.255787
21
36.485289
0
LINE
8
Layer 1
10
42.255787
20
36.485289
11
41.818558
21
37.215865
0
LINE
8
Layer 1
10
41.818558
20
37.215865
11
41.103485
21
37.879461
0
LINE
8
Layer 1
10
41.103485
20
37.879461
11
40.121731
21
38.461197
0
LINE
8
Layer 1
10
40.121731
20
38.461197
11
39.142667
21
38.837442
0
LINE
8
Layer 1
10
39.142667
20
38.837442
11
38.104071
21
38.930883
0
LINE
8
Layer 1
10
38.104071
20
38.930883
11
37.207700
21
38.842404
0
LINE
8
Layer 1
10
37.207700
20
38.842404
11
36.549481
21
38.540581
0
LINE
8
Layer 1
10
36.549481
20
38.540581
11
36.466790
21
38.522389
0
LINE
8
Layer 1
10
36.466790
20
38.522389
11
36.701633
21
38.811808
0
LINE
8
Layer 1
10
36.701633
20
38.811808
11
37.495363
21
39.589211
0
LINE
8
Layer 1
10
37.495363
20
39.589211
11
38.283512
21
40.044736
0
LINE
8
Layer 1
10
38.283512
20
40.044736
11
39.102672
21
40.191407
0
LINE
8
Layer 1
10
39.102672
20
40.191407
11
39.989433
21
40.042248
0
LINE
8
Layer 1
10
39.989433
20
40.042248
11
39.989432
21
40.042255
0
LINE
8
Layer 1
10
23.590132
20
38.447975
11
24.555965
21
37.898906
0
LINE
8
Layer 1
10
24.555965
20
37.898906
11
25.799642
21
36.893385
0
LINE
8
Layer 1
10
25.799642
20
36.893385
11
29.616662
21
33.215285
0
LINE
8
Layer 1
10
29.616662
20
33.215285
11
22.525072
21
33.235131
0
LINE
8
Layer 1
10
22.525072
20
33.235131
11
21.307858
21
33.417052
0
LINE
8
Layer 1
10
21.307858
20
33.417052
11
20.308952
21
33.737893
0
LINE
8
Layer 1
10
20.308952
20
33.737893
11
19.639153
21
34.253059
0
LINE
8
Layer 1
10
19.639153
20
34.253059
11
19.138042
21
34.922033
0
LINE
8
Layer 1
10
19.138042
20
34.922033
11
18.945268
21
35.761763
0
LINE
8
Layer 1
10
18.945268
20
35.761763
11
19.173599
21
36.584127
0
LINE
8
Layer 1
10
19.173599
20
36.584127
11
19.797606
21
37.344472
0
LINE
8
Layer 1
10
19.797606
20
37.344472
11
20.791862
21
37.998143
0
LINE
8
Layer 1
10
20.791862
20
37.998143
11
22.317514
21
38.515789
0
LINE
8
Layer 1
10
22.317514
20
38.515789
11
22.997545
21
38.556308
0
LINE
8
Layer 1
10
22.997545
20
38.556308
11
23.590132
21
38.447983
0
LINE
8
Layer 1
10
23.590132
20
38.447983
11
23.590132
21
38.447975
0
LINE
8
Layer 1
10
39.255132
20
38.361977
11
40.839494
21
37.518528
0
LINE
8
Layer 1
10
40.839494
20
37.518528
11
41.439418
21
36.977728
0
LINE
8
Layer 1
10
41.439418
20
36.977728
11
41.808632
21
36.436927
0
LINE
8
Layer 1
10
41.808632
20
36.436927
11
41.963988
21
35.858295
0
LINE
8
Layer 1
10
41.963988
20
35.858295
11
41.925227
21
35.290827
0
LINE
8
Layer 1
10
41.925227
20
35.290827
11
41.694209
21
34.745686
0
LINE
8
Layer 1
10
41.694209
20
34.745686
11
41.272794
21
34.234037
0
LINE
8
Layer 1
10
41.272794
20
34.234037
11
40.594727
21
33.742851
0
LINE
8
Layer 1
10
40.594727
20
33.742851
11
39.658664
21
33.400510
0
LINE
8
Layer 1
10
39.658664
20
33.400510
11
38.655621
21
33.268204
0
LINE
8
Layer 1
10
38.655621
20
33.268204
11
35.226424
21
33.215282
0
LINE
8
Layer 1
10
35.226424
20
33.215282
11
31.290324
21
33.195436
0
LINE
8
Layer 1
10
31.290324
20
33.195436
11
31.720318
21
33.625430
0
LINE
8
Layer 1
10
31.720318
20
33.625430
11
33.605678
21
35.424790
0
LINE
8
Layer 1
10
33.605678
20
35.424790
11
36.121970
21
37.737661
0
LINE
8
Layer 1
10
36.121970
20
37.737661
11
36.897923
21
38.248175
0
LINE
8
Layer 1
10
36.897923
20
38.248175
11
37.581468
21
38.507520
0
LINE
8
Layer 1
10
37.581468
20
38.507520
11
38.373648
21
38.521577
0
LINE
8
Layer 1
10
38.373648
20
38.521577
11
39.255138
21
38.361984
0
LINE
8
Layer 1
10
39.255138
20
38.361984
11
39.255132
21
38.361977
0
LINE
8
Layer 1
10
29.332202
20
32.196527
11
26.608976
21
29.707111
0
LINE
8
Layer 1
10
26.608976
20
29.707111
11
24.683306
21
28.147970
0
LINE
8
Layer 1
10
24.683306
20
28.147970
11
23.276109
21
27.318165
0
LINE
8
Layer 1
10
23.276109
20
27.318165
11
22.108302
21
27.016757
0
LINE
8
Layer 1
10
22.108302
20
27.016757
11
21.407354
21
27.028708
0
LINE
8
Layer 1
10
21.407354
20
27.028708
11
20.755167
21
27.186790
0
LINE
8
Layer 1
10
20.755167
20
27.186790
11
19.668089
21
27.870955
0
LINE
8
Layer 1
10
19.668089
20
27.870955
11
18.989090
21
28.928471
0
LINE
8
Layer 1
10
18.989090
20
28.928471
11
18.847002
21
29.553242
0
LINE
8
Layer 1
10
18.847002
20
29.553242
11
18.860192
21
30.218557
0
LINE
8
Layer 1
10
18.860192
20
30.218557
11
19.053379
21
30.927634
0
LINE
8
Layer 1
10
19.053379
20
30.927634
11
19.423319
21
31.485385
0
LINE
8
Layer 1
10
19.423319
20
31.485385
11
19.997921
21
31.919099
0
LINE
8
Layer 1
10
19.997921
20
31.919099
11
20.805092
21
32.256067
0
LINE
8
Layer 1
10
20.805092
20
32.256067
11
22.472146
21
32.652157
0
LINE
8
Layer 1
10
22.472146
20
32.652157
11
25.965022
21
32.745598
0
LINE
8
Layer 1
10
25.965022
20
32.745598
11
29.729122
21
32.798520
0
LINE
8
Layer 1
10
29.729122
20
32.798520
11
29.987118
21
32.811750
0
LINE
8
Layer 1
10
29.987118
20
32.811750
11
29.332204
21
32.196528
0
LINE
8
Layer 1
10
29.332204
20
32.196528
11
29.332202
21
32.196527
0
LINE
8
Layer 1
10
38.633302
20
32.646367
11
40.407028
21
32.177509
0
LINE
8
Layer 1
10
40.407028
20
32.177509
11
41.471262
21
31.515157
0
LINE
8
Layer 1
10
41.471262
20
31.515157
11
41.934332
21
30.796571
0
LINE
8
Layer 1
10
41.934332
20
30.796571
11
42.040177
21
29.834877
0
LINE
8
Layer 1
10
42.040177
20
29.834877
11
42.010408
21
29.116291
0
LINE
8
Layer 1
10
42.010408
20
29.116291
11
41.821872
21
28.630897
0
LINE
8
Layer 1
10
41.821872
20
28.630897
11
41.311357
21
27.924611
0
LINE
8
Layer 1
10
41.311357
20
27.924611
11
40.595562
21
27.391357
0
LINE
8
Layer 1
10
40.595562
20
27.391357
11
39.752009
21
27.072684
0
LINE
8
Layer 1
10
39.752009
20
27.072684
11
38.858222
21
27.010147
0
LINE
8
Layer 1
10
38.858222
20
27.010147
11
37.965158
21
27.233413
0
LINE
8
Layer 1
10
37.965158
20
27.233413
11
37.052252
21
27.625369
0
LINE
8
Layer 1
10
37.052252
20
27.625369
11
34.822902
21
29.279189
0
LINE
8
Layer 1
10
34.822902
20
29.279189
11
31.144802
21
32.626529
0
LINE
8
Layer 1
10
31.144802
20
32.626529
11
31.045573
21
32.778681
0
LINE
8
Layer 1
10
31.045573
20
32.778681
11
34.558293
21
32.758835
0
LINE
8
Layer 1
10
34.558293
20
32.758835
11
38.633313
21
32.646375
0
LINE
8
Layer 1
10
38.633313
20
32.646375
11
38.633302
21
32.646367
0
LINE
8
Layer 1
10
30.006962
20
31.409307
11
29.934194
21
29.702567
0
LINE
8
Layer 1
10
29.934194
20
29.702567
11
29.754754
21
26.640514
0
LINE
8
Layer 1
10
29.754754
20
26.640514
11
29.431432
21
24.972637
0
LINE
8
Layer 1
10
29.431432
20
24.972637
11
29.018803
21
24.311934
0
LINE
8
Layer 1
10
29.018803
20
24.311934
11
28.392832
21
23.834807
0
LINE
8
Layer 1
10
28.392832
20
23.834807
11
27.962012
21
23.677693
0
LINE
8
Layer 1
10
27.962012
20
23.677693
11
27.288082
21
23.649579
0
LINE
8
Layer 1
10
27.288082
20
23.649579
11
26.189942
21
23.801731
0
LINE
8
Layer 1
10
26.189942
20
23.801731
11
25.649451
21
24.104277
0
LINE
8
Layer 1
10
25.649451
20
24.104277
11
25.229896
21
24.520317
0
LINE
8
Layer 1
10
25.229896
20
24.520317
11
24.948021
21
25.026903
0
LINE
8
Layer 1
10
24.948021
20
25.026903
11
24.820572
21
25.601091
0
LINE
8
Layer 1
10
24.820572
20
25.601091
11
24.869360
21
26.284120
0
LINE
8
Layer 1
10
24.869360
20
26.284120
11
25.151337
21
26.897691
0
LINE
8
Layer 1
10
25.151337
20
26.897691
11
29.987117
21
31.879001
0
LINE
8
Layer 1
10
29.987117
20
31.879001
11
30.006963
21
31.409315
0
LINE
8
Layer 1
10
30.006963
20
31.409315
11
30.006962
21
31.409307
0
LINE
8
Layer 1
10
33.539522
20
29.325487
11
35.676263
21
27.029982
0
LINE
8
Layer 1
10
35.676263
20
27.029982
11
36.012195
21
26.417446
0
LINE
8
Layer 1
10
36.012195
20
26.417446
11
36.106252
21
25.825997
0
LINE
8
Layer 1
10
36.106252
20
25.825997
11
35.967331
21
24.919702
0
LINE
8
Layer 1
10
35.967331
20
24.919702
11
35.544882
21
24.302309
0
LINE
8
Layer 1
10
35.544882
20
24.302309
11
34.944441
21
23.870352
0
LINE
8
Layer 1
10
34.944441
20
23.870352
11
34.198877
21
23.640575
0
LINE
8
Layer 1
10
34.198877
20
23.640575
11
33.341061
21
23.629722
0
LINE
8
Layer 1
10
33.341061
20
23.629722
11
32.497610
21
23.886891
0
LINE
8
Layer 1
10
32.497610
20
23.886891
11
31.852621
21
24.377250
0
LINE
8
Layer 1
10
31.852621
20
24.377250
11
31.537981
21
24.898514
0
LINE
8
Layer 1
10
31.537981
20
24.898514
11
31.325052
21
25.674675
0
LINE
8
Layer 1
10
31.325052
20
25.674675
11
31.065401
21
28.743340
0
LINE
8
Layer 1
10
31.065401
20
28.743340
11
30.926480
21
31.349760
0
LINE
8
Layer 1
10
30.926480
20
31.349760
11
30.886788
21
31.905444
0
LINE
8
Layer 1
10
30.886788
20
31.905444
11
31.369704
21
31.468835
0
LINE
8
Layer 1
10
31.369704
20
31.468835
11
33.539524
21
29.325485
0
LINE
8
Layer 1
10
33.539524
20
29.325485
11
33.539522
21
29.325487
0
LINE
8
Layer 1
10
30.595722
20
28.247197
11
30.741258
21
19.534857
0
LINE
8
Layer 1
10
30.741258
20
19.534857
11
30.780950
21
12.172037
0
LINE
8
Layer 1
10
30.780950
20
12.172037
11
30.503108
21
12.172037
0
LINE
8
Layer 1
10
30.503108
20
12.172037
11
30.231881
21
12.172037
0
LINE
8
Layer 1
10
30.231881
20
12.172037
11
30.231881
21
19.137937
0
LINE
8
Layer 1
10
30.231881
20
19.137937
11
30.344341
21
27.982577
0
LINE
8
Layer 1
10
30.344341
20
27.982577
11
30.476647
21
29.735627
0
LINE
8
Layer 1
10
30.476647
20
29.735627
11
30.595722
21
28.247187
0
LINE
8
Layer 1
10
30.595722
20
28.247187
11
30.595722
21
28.247197
0
LINE
8
Layer 1
10
4.498400
20
6.714430
11
4.458708
21
6.515971
0
LINE
8
Layer 1
10
4.458708
20
6.515971
11
21.314508
21
6.429972
0
LINE
8
Layer 1
10
21.314508
20
6.429972
11
38.137208
21
6.449818
0
LINE
8
Layer 1
10
38.137208
20
6.449818
11
38.137208
21
6.615200
0
LINE
8
Layer 1
10
38.137208
20
6.615200
11
38.137208
21
6.780582
0
LINE
8
Layer 1
10
38.137208
20
6.780582
11
21.360808
21
6.800428
0
LINE
8
Layer 1
10
21.360808
20
6.800428
11
4.498408
21
6.714429
0
LINE
8
Layer 1
10
4.498408
20
6.714429
11
4.498400
21
6.714430
0
LINE
8
Layer 1
10
42.053400
20
6.767350
11
42.007093
21
6.568891
0
LINE
8
Layer 1
10
42.007093
20
6.568891
11
42.007093
21
6.416739
0
LINE
8
Layer 1
10
42.007093
20
6.416739
11
49.211143
21
6.416739
0
LINE
8
Layer 1
10
49.211143
20
6.416739
11
56.454883
21
6.515968
0
LINE
8
Layer 1
10
56.454883
20
6.515968
11
56.388730
21
6.714427
0
LINE
8
Layer 1
10
56.388730
20
6.714427
11
49.191290
21
6.813657
0
LINE
8
Layer 1
10
49.191290
20
6.813657
11
42.053390
21
6.767350
0
LINE
8
Layer 1
10
42.053390
20
6.767350
11
42.053400
21
6.767350
 0 
ENDSEC
 0 
EOF