999
"DXF R12 Output" (www.mydxf.blogspot.com)
 0 
SECTION
 2 
HEADER
 9 
$ACADVER
 1 
AC1009
 9 
$EXTMIN
 10 
 0 
 20 
 0 
 9 
$EXTMAX
 10 
 8.5 
 20 
 11 
 0 
ENDSEC
 0 
SECTION
 2 
ENTITIES
0
LINE
8
Layer 1
10
16.544800
20
43.766700
11
16.347995
21
43.582402
0
LINE
8
Layer 1
10
16.347995
20
43.582402
11
16.250419
21
42.748773
0
LINE
8
Layer 1
10
16.250419
20
42.748773
11
16.214035
21
35.722510
0
LINE
8
Layer 1
10
16.214035
20
35.722510
11
16.252073
21
28.389460
0
LINE
8
Layer 1
10
16.252073
20
28.389460
11
16.349855
21
27.041183
0
LINE
8
Layer 1
10
16.349855
20
27.041183
11
16.538184
21
26.037730
0
LINE
8
Layer 1
10
16.538184
20
26.037730
11
16.880008
21
24.833024
0
LINE
8
Layer 1
10
16.880008
20
24.833024
11
17.372535
21
23.653745
0
LINE
8
Layer 1
10
17.372535
20
23.653745
11
18.767534
21
21.453330
0
LINE
8
Layer 1
10
18.767534
20
21.453330
11
20.173385
21
20.001894
0
LINE
8
Layer 1
10
20.173385
20
20.001894
11
21.892430
21
18.772484
0
LINE
8
Layer 1
10
21.892430
20
18.772484
11
23.897999
21
17.778744
0
LINE
8
Layer 1
10
23.897999
20
17.778744
11
26.163424
21
17.034320
0
LINE
8
Layer 1
10
26.163424
20
17.034320
11
27.875129
21
16.711825
0
LINE
8
Layer 1
10
27.875129
20
16.711825
11
30.132594
21
16.637403
0
LINE
8
Layer 1
10
30.132594
20
16.637403
11
32.159353
21
16.695287
0
LINE
8
Layer 1
10
32.159353
20
16.695287
11
33.804084
21
16.981398
0
LINE
8
Layer 1
10
33.804084
20
16.981398
11
35.872915
21
17.606440
0
LINE
8
Layer 1
10
35.872915
20
17.606440
11
37.841895
21
18.523587
0
LINE
8
Layer 1
10
37.841895
20
18.523587
11
39.591330
21
19.665240
0
LINE
8
Layer 1
10
39.591330
20
19.665240
11
41.001524
21
20.963798
0
LINE
8
Layer 1
10
41.001524
20
20.963798
11
42.171913
21
22.501647
0
LINE
8
Layer 1
10
42.171913
20
22.501647
11
43.041514
21
24.137483
0
LINE
8
Layer 1
10
43.041514
20
24.137483
11
43.622110
21
25.899837
0
LINE
8
Layer 1
10
43.622110
20
25.899837
11
43.925484
21
27.817238
0
LINE
8
Layer 1
10
43.925484
20
27.817238
11
43.978406
21
35.987118
0
LINE
8
Layer 1
10
43.978406
20
35.987118
11
43.944503
21
42.183164
0
LINE
8
Layer 1
10
43.944503
20
42.183164
11
43.846100
21
43.502088
0
LINE
8
Layer 1
10
43.846100
20
43.502088
11
43.586450
21
43.762565
0
LINE
8
Layer 1
10
43.586450
20
43.762565
11
43.217647
21
43.859314
0
LINE
8
Layer 1
10
43.217647
20
43.859314
11
36.820657
21
40.717054
0
LINE
8
Layer 1
10
36.820657
20
40.717054
11
36.040053
21
40.320137
0
LINE
8
Layer 1
10
36.040053
20
40.320137
11
30.172293
21
40.320137
0
LINE
8
Layer 1
10
30.172293
20
40.320137
11
24.311143
21
40.320137
0
LINE
8
Layer 1
10
24.311143
20
40.320137
11
23.629768
21
40.637671
0
LINE
8
Layer 1
10
23.629768
20
40.637671
11
20.011208
21
42.410571
0
LINE
8
Layer 1
10
20.011208
20
42.410571
11
16.888788
21
43.859321
0
LINE
8
Layer 1
10
16.888788
20
43.859321
11
16.544793
21
43.766707
0
LINE
8
Layer 1
10
16.544793
20
43.766707
11
16.544800
21
43.766700
0
LINE
8
Layer 1
10
21.102730
20
40.320130
11
22.941780
21
39.393989
0
LINE
8
Layer 1
10
22.941780
20
39.393989
11
22.867358
21
39.217857
0
LINE
8
Layer 1
10
22.867358
20
39.217857
11
22.267020
21
38.739075
0
LINE
8
Layer 1
10
22.267020
20
38.739075
11
20.647927
21
37.332498
0
LINE
8
Layer 1
10
20.647927
20
37.332498
11
19.237220
21
35.861425
0
LINE
8
Layer 1
10
19.237220
20
35.861425
11
17.867850
21
33.784225
0
LINE
8
Layer 1
10
17.867850
20
33.784225
11
17.596623
21
33.268232
0
LINE
8
Layer 1
10
17.596623
20
33.268232
11
17.596623
21
37.634322
0
LINE
8
Layer 1
10
17.596623
20
37.634322
11
17.596623
21
42.000412
0
LINE
8
Layer 1
10
17.596623
20
42.000412
11
18.476457
21
41.583649
0
LINE
8
Layer 1
10
18.476457
20
41.583649
11
21.102727
21
40.320129
0
LINE
8
Layer 1
10
21.102727
20
40.320129
11
21.102730
21
40.320130
0
LINE
8
Layer 1
10
42.569330
20
37.674010
11
42.529638
21
33.341000
0
LINE
8
Layer 1
10
42.529638
20
33.341000
11
42.403947
21
33.559305
0
LINE
8
Layer 1
10
42.403947
20
33.559305
11
41.242137
21
35.438046
0
LINE
8
Layer 1
10
41.242137
20
35.438046
11
39.440297
21
37.435865
0
LINE
8
Layer 1
10
39.440297
20
37.435865
11
37.296947
21
39.188915
0
LINE
8
Layer 1
10
37.296947
20
39.188915
11
37.177872
21
39.314606
0
LINE
8
Layer 1
10
37.177872
20
39.314606
11
42.536252
21
42.007026
0
LINE
8
Layer 1
10
42.536252
20
42.007026
11
42.569329
21
37.674016
0
LINE
8
Layer 1
10
42.569329
20
37.674016
11
42.569330
21
37.674010
0
LINE
8
Layer 1
10
36.165730
20
38.322308
11
38.164167
21
36.683680
0
LINE
8
Layer 1
10
38.164167
20
36.683680
11
39.590797
21
35.290024
0
LINE
8
Layer 1
10
39.590797
20
35.290024
11
40.632914
21
33.932340
0
LINE
8
Layer 1
10
40.632914
20
33.932340
11
41.477810
21
32.401628
0
LINE
8
Layer 1
10
41.477810
20
32.401628
11
42.148435
21
30.630386
0
LINE
8
Layer 1
10
42.148435
20
30.630386
11
42.471756
21
28.864104
0
LINE
8
Layer 1
10
42.471756
20
28.864104
11
42.445295
21
27.125109
0
LINE
8
Layer 1
10
42.445295
20
27.125109
11
42.066571
21
25.435728
0
LINE
8
Layer 1
10
42.066571
20
25.435728
11
41.122548
21
23.439252
0
LINE
8
Layer 1
10
41.122548
20
23.439252
11
39.738814
21
21.669144
0
LINE
8
Layer 1
10
39.738814
20
21.669144
11
37.974289
21
20.188043
0
LINE
8
Layer 1
10
37.974289
20
20.188043
11
35.887891
21
19.058588
0
LINE
8
Layer 1
10
35.887891
20
19.058588
11
33.649441
21
18.357367
0
LINE
8
Layer 1
10
33.649441
20
18.357367
11
31.177801
21
17.973678
0
LINE
8
Layer 1
10
31.177801
20
17.973678
11
30.827191
21
17.947217
0
LINE
8
Layer 1
10
30.827191
20
17.947217
11
30.827191
21
20.368417
0
LINE
8
Layer 1
10
30.827191
20
20.368417
11
30.808172
21
22.474561
0
LINE
8
Layer 1
10
30.808172
20
22.474561
11
30.694885
21
23.007917
0
LINE
8
Layer 1
10
30.694885
20
23.007917
11
30.466244
21
23.236661
0
LINE
8
Layer 1
10
30.466244
20
23.236661
11
30.170624
21
23.334547
0
LINE
8
Layer 1
10
30.170624
20
23.334547
11
29.576905
21
23.120377
0
LINE
8
Layer 1
10
29.576905
20
23.120377
11
29.404907
21
22.954995
0
LINE
8
Layer 1
10
29.404907
20
22.954995
11
29.385061
21
20.461035
0
LINE
8
Layer 1
10
29.385061
20
20.461035
11
29.365215
21
17.973685
0
LINE
8
Layer 1
10
29.365215
20
17.973685
11
28.723532
21
18.019992
0
LINE
8
Layer 1
10
28.723532
20
18.019992
11
25.973329
21
18.493605
0
LINE
8
Layer 1
10
25.973329
20
18.493605
11
23.456935
21
19.462124
0
LINE
8
Layer 1
10
23.456935
20
19.462124
11
21.276679
21
20.872214
0
LINE
8
Layer 1
10
21.276679
20
20.872214
11
20.344581
21
21.726182
0
LINE
8
Layer 1
10
20.344581
20
21.726182
11
19.534892
21
22.670542
0
LINE
8
Layer 1
10
19.534892
20
22.670542
11
18.661674
21
24.158982
0
LINE
8
Layer 1
10
18.661674
20
24.158982
11
18.093277
21
25.552120
0
LINE
8
Layer 1
10
18.093277
20
25.552120
11
17.766130
21
26.948979
0
LINE
8
Layer 1
10
17.766130
20
26.948979
11
17.678374
21
28.373128
0
LINE
8
Layer 1
10
17.678374
20
28.373128
11
17.828147
21
29.848132
0
LINE
8
Layer 1
10
17.828147
20
29.848132
11
18.196226
21
31.204471
0
LINE
8
Layer 1
10
18.196226
20
31.204471
11
18.817959
21
32.641436
0
LINE
8
Layer 1
10
18.817959
20
32.641436
11
19.639391
21
34.051114
0
LINE
8
Layer 1
10
19.639391
20
34.051114
11
20.606567
21
35.325592
0
LINE
8
Layer 1
10
20.606567
20
35.325592
11
21.947817
21
36.629631
0
LINE
8
Layer 1
10
21.947817
20
36.629631
11
23.755447
21
38.117242
0
LINE
8
Layer 1
10
23.755447
20
38.117242
11
24.641896
21
38.825078
0
LINE
8
Layer 1
10
24.641896
20
38.825078
11
25.421673
21
38.946634
0
LINE
8
Layer 1
10
25.421673
20
38.946634
11
30.046586
21
38.963999
0
LINE
8
Layer 1
10
30.046586
20
38.963999
11
35.332206
21
38.963999
0
LINE
8
Layer 1
10
35.332206
20
38.963999
11
36.165733
21
38.322316
0
LINE
8
Layer 1
10
36.165733
20
38.322316
11
36.165730
21
38.322308
0
LINE
8
Layer 1
10
24.476600
20
32.573600
11
23.715842
21
32.474371
0
LINE
8
Layer 1
10
23.715842
20
32.474371
11
21.088745
21
31.920340
0
LINE
8
Layer 1
10
21.088745
20
31.920340
11
19.310062
21
31.237311
0
LINE
8
Layer 1
10
19.310062
20
31.237311
11
19.101060
21
30.922671
0
LINE
8
Layer 1
10
19.101060
20
30.922671
11
19.081835
21
30.570820
0
LINE
8
Layer 1
10
19.081835
20
30.570820
11
19.241222
21
30.236335
0
LINE
8
Layer 1
10
19.241222
20
30.236335
11
19.568058
21
29.973791
0
LINE
8
Layer 1
10
19.568058
20
29.973791
11
22.267098
21
28.869041
0
LINE
8
Layer 1
10
22.267098
20
28.869041
11
24.744526
21
27.947035
0
LINE
8
Layer 1
10
24.744526
20
27.947035
11
25.223514
21
27.891323
0
LINE
8
Layer 1
10
25.223514
20
27.891323
11
25.515208
21
28.022284
0
LINE
8
Layer 1
10
25.515208
20
28.022284
11
25.828607
21
28.422509
0
LINE
8
Layer 1
10
25.828607
20
28.422509
11
26.692728
21
30.192104
0
LINE
8
Layer 1
10
26.692728
20
30.192104
11
27.387333
21
31.832694
0
LINE
8
Layer 1
10
27.387333
20
31.832694
11
27.275700
21
32.230438
0
LINE
8
Layer 1
10
27.275700
20
32.230438
11
26.990416
21
32.514069
0
LINE
8
Layer 1
10
26.990416
20
32.514069
11
25.720276
21
32.606683
0
LINE
8
Layer 1
10
25.720276
20
32.606683
11
24.476606
21
32.573606
0
LINE
8
Layer 1
10
24.476606
20
32.573606
11
24.476600
21
32.573600
0
LINE
8
Layer 1
10
25.667350
20
31.263770
11
24.668441
21
29.437950
0
LINE
8
Layer 1
10
24.668441
20
29.437950
11
21.764331
21
30.569160
0
LINE
8
Layer 1
10
21.764331
20
30.569160
11
21.661794
21
30.646890
0
LINE
8
Layer 1
10
21.661794
20
30.646890
11
21.896637
21
30.734542
0
LINE
8
Layer 1
10
21.896637
20
30.734542
11
24.675057
21
31.217458
0
LINE
8
Layer 1
10
24.675057
20
31.217458
11
25.667350
21
31.263765
0
LINE
8
Layer 1
10
25.667350
20
31.263765
11
25.667350
21
31.263770
0
LINE
8
Layer 1
10
33.155800
20
32.514100
11
32.894496
21
32.176720
0
LINE
8
Layer 1
10
32.894496
20
32.176720
11
32.831651
21
31.759957
0
LINE
8
Layer 1
10
32.831651
20
31.759957
11
34.525161
21
28.154627
0
LINE
8
Layer 1
10
34.525161
20
28.154627
11
34.861714
21
27.920611
0
LINE
8
Layer 1
10
34.861714
20
27.920611
11
35.252843
21
27.870170
0
LINE
8
Layer 1
10
35.252843
20
27.870170
11
36.747903
21
28.399393
0
LINE
8
Layer 1
10
36.747903
20
28.399393
11
39.374173
21
29.437993
0
LINE
8
Layer 1
10
39.374173
20
29.437993
11
40.908923
21
30.106137
0
LINE
8
Layer 1
10
40.908923
20
30.106137
11
41.127227
21
30.440209
0
LINE
8
Layer 1
10
41.127227
20
30.440209
11
41.166919
21
30.853665
0
LINE
8
Layer 1
10
41.166919
20
30.853665
11
40.832847
21
31.301851
0
LINE
8
Layer 1
10
40.832847
20
31.301851
11
39.804169
21
31.720268
0
LINE
8
Layer 1
10
39.804169
20
31.720268
11
37.284570
21
32.377662
0
LINE
8
Layer 1
10
37.284570
20
32.377662
11
34.730239
21
32.593486
0
LINE
8
Layer 1
10
34.730239
20
32.593486
11
33.155799
21
32.514103
0
LINE
8
Layer 1
10
33.155799
20
32.514103
11
33.155800
21
32.514100
0
LINE
8
Layer 1
10
35.854840
20
31.191040
11
37.614506
21
30.922294
0
LINE
8
Layer 1
10
37.614506
20
30.922294
11
38.520800
21
30.628740
0
LINE
8
Layer 1
10
38.520800
20
30.628740
11
37.012510
21
30.000287
0
LINE
8
Layer 1
10
37.012510
20
30.000287
11
35.510840
21
29.391680
0
LINE
8
Layer 1
10
35.510840
20
29.391680
11
35.014693
21
30.278129
0
LINE
8
Layer 1
10
35.014693
20
30.278129
11
34.545007
21
31.243961
0
LINE
8
Layer 1
10
34.545007
20
31.243961
11
34.935309
21
31.263807
0
LINE
8
Layer 1
10
34.935309
20
31.263807
11
35.854834
21
31.191039
0
LINE
8
Layer 1
10
35.854834
20
31.191039
11
35.854840
21
31.191040
 0 
ENDSEC
 0 
EOF