999
"DXF R12 Output" (www.mydxf.blogspot.com)
 0 
SECTION
 2 
HEADER
 9 
$ACADVER
 1 
AC1009
 9 
$EXTMIN
 10 
 0 
 20 
 0 
 9 
$EXTMAX
 10 
 8.5 
 20 
 11 
 0 
ENDSEC
 0 
SECTION
 2 
ENTITIES
0
LINE
8
Layer 1
10
8.811570
20
30.198700
11
8.884338
21
10.716700
0
LINE
8
Layer 1
10
8.884338
20
10.716700
11
29.901138
21
10.716700
0
LINE
8
Layer 1
10
29.901138
20
10.716700
11
50.871638
21
10.716700
0
LINE
8
Layer 1
10
50.871638
20
10.716700
11
50.871638
21
26.328800
0
LINE
8
Layer 1
10
50.871638
20
26.328800
11
50.871638
21
41.940900
0
LINE
8
Layer 1
10
50.871638
20
41.940900
11
50.527643
21
41.947515
0
LINE
8
Layer 1
10
50.527643
20
41.947515
11
48.271833
21
41.947515
0
LINE
8
Layer 1
10
48.271833
20
41.947515
11
46.360013
21
41.934285
0
LINE
8
Layer 1
10
46.360013
20
41.934285
11
46.366628
21
26.917585
0
LINE
8
Layer 1
10
46.366628
20
26.917585
11
46.366628
21
11.907485
0
LINE
8
Layer 1
10
46.366628
20
11.907485
11
45.519871
21
11.907485
0
LINE
8
Layer 1
10
45.519871
20
11.907485
11
44.673114
21
11.907485
0
LINE
8
Layer 1
10
44.673114
20
11.907485
11
44.646653
21
12.813780
0
LINE
8
Layer 1
10
44.646653
20
12.813780
11
44.620192
21
19.759830
0
LINE
8
Layer 1
10
44.620192
20
19.759830
11
44.620192
21
25.799590
0
LINE
8
Layer 1
10
44.620192
20
25.799590
11
43.350052
21
25.799590
0
LINE
8
Layer 1
10
43.350052
20
25.799590
11
42.073302
21
25.799590
0
LINE
8
Layer 1
10
42.073302
20
25.799590
11
42.073302
21
32.017960
0
LINE
8
Layer 1
10
42.073302
20
32.017960
11
42.073302
21
38.229720
0
LINE
8
Layer 1
10
42.073302
20
38.229720
11
41.477926
21
38.249566
0
LINE
8
Layer 1
10
41.477926
20
38.249566
11
40.882550
21
38.269411
0
LINE
8
Layer 1
10
40.882550
20
38.269411
11
40.657630
21
38.897864
0
LINE
8
Layer 1
10
40.657630
20
38.897864
11
40.129777
21
40.171578
0
LINE
8
Layer 1
10
40.129777
20
40.171578
11
39.465019
21
41.357614
0
LINE
8
Layer 1
10
39.465019
20
41.357614
11
38.672192
21
42.447676
0
LINE
8
Layer 1
10
38.672192
20
42.447676
11
37.760134
21
43.433471
0
LINE
8
Layer 1
10
37.760134
20
43.433471
11
36.737683
21
44.306702
0
LINE
8
Layer 1
10
36.737683
20
44.306702
11
35.613677
21
45.059075
0
LINE
8
Layer 1
10
35.613677
20
45.059075
11
34.396954
21
45.682294
0
LINE
8
Layer 1
10
34.396954
20
45.682294
11
33.096350
21
46.168064
0
LINE
8
Layer 1
10
33.096350
20
46.168064
11
31.619486
21
46.527771
0
LINE
8
Layer 1
10
31.619486
20
46.527771
11
29.835010
21
46.604673
0
LINE
8
Layer 1
10
29.835010
20
46.604673
11
27.632120
21
46.452521
0
LINE
8
Layer 1
10
27.632120
20
46.452521
11
25.968685
21
45.971776
0
LINE
8
Layer 1
10
25.968685
20
45.971776
11
24.436108
21
45.275826
0
LINE
8
Layer 1
10
24.436108
20
45.275826
11
23.041212
21
44.367775
0
LINE
8
Layer 1
10
23.041212
20
44.367775
11
21.790820
21
43.250721
0
LINE
8
Layer 1
10
21.790820
20
43.250721
11
20.490089
21
41.709774
0
LINE
8
Layer 1
10
20.490089
20
41.709774
11
19.487045
21
40.096883
0
LINE
8
Layer 1
10
19.487045
20
40.096883
11
18.769287
21
38.387244
0
LINE
8
Layer 1
10
18.769287
20
38.387244
11
18.324410
21
36.556051
0
LINE
8
Layer 1
10
18.324410
20
36.556051
11
18.152412
21
35.729140
0
LINE
8
Layer 1
10
18.152412
20
35.729140
11
14.103852
21
35.689449
0
LINE
8
Layer 1
10
14.103852
20
35.689449
11
10.088372
21
35.689449
0
LINE
8
Layer 1
10
10.088372
20
35.689449
11
10.068526
21
42.093049
0
LINE
8
Layer 1
10
10.068526
20
42.093049
11
10.055296
21
48.490039
0
LINE
8
Layer 1
10
10.055296
20
48.490039
11
28.789796
21
48.490039
0
LINE
8
Layer 1
10
28.789796
20
48.490039
11
47.530896
21
48.490039
0
LINE
8
Layer 1
10
47.530896
20
48.490039
11
47.550741
21
49.085415
0
LINE
8
Layer 1
10
47.550741
20
49.085415
11
47.570587
21
49.680791
0
LINE
8
Layer 1
10
47.570587
20
49.680791
11
28.181187
21
49.680791
0
LINE
8
Layer 1
10
28.181187
20
49.680791
11
8.798387
21
49.680791
0
LINE
8
Layer 1
10
8.798387
20
49.680791
11
8.811618
21
30.198791
0
LINE
8
Layer 1
10
8.811618
20
30.198791
11
8.811570
21
30.198700
0
LINE
8
Layer 1
10
31.832770
20
45.248500
11
33.939844
21
44.545108
0
LINE
8
Layer 1
10
33.939844
20
44.545108
11
35.868924
21
43.397045
0
LINE
8
Layer 1
10
35.868924
20
43.397045
11
37.521401
21
41.878112
0
LINE
8
Layer 1
10
37.521401
20
41.878112
11
38.798670
21
40.062110
0
LINE
8
Layer 1
10
38.798670
20
40.062110
11
39.526352
21
38.388440
0
LINE
8
Layer 1
10
39.526352
20
38.388440
11
39.566044
21
38.236288
0
LINE
8
Layer 1
10
39.566044
20
38.236288
11
36.787624
21
38.236288
0
LINE
8
Layer 1
10
36.787624
20
38.236288
11
34.002584
21
38.236288
0
LINE
8
Layer 1
10
34.002584
20
38.236288
11
33.995968
21
37.726911
0
LINE
8
Layer 1
10
33.995968
20
37.726911
11
33.982738
21
31.521771
0
LINE
8
Layer 1
10
33.982738
20
31.521771
11
33.969507
21
25.832621
0
LINE
8
Layer 1
10
33.969507
20
25.832621
11
29.815107
21
25.812775
0
LINE
8
Layer 1
10
29.815107
20
25.812775
11
25.667317
21
25.799544
0
LINE
8
Layer 1
10
25.667317
20
25.799544
11
25.667317
21
28.624274
0
LINE
8
Layer 1
10
25.667317
20
28.624274
11
25.673933
21
31.455614
0
LINE
8
Layer 1
10
25.673933
20
31.455614
11
21.962753
21
31.475460
0
LINE
8
Layer 1
10
21.962753
20
31.475460
11
18.258193
21
31.488691
0
LINE
8
Layer 1
10
18.258193
20
31.488691
11
18.258193
21
21.698061
0
LINE
8
Layer 1
10
18.258193
20
21.698061
11
18.258193
21
11.907431
0
LINE
8
Layer 1
10
18.258193
20
11.907431
11
14.692553
21
11.907431
0
LINE
8
Layer 1
10
14.692553
20
11.907431
11
11.133523
21
11.907431
0
LINE
8
Layer 1
10
11.133523
20
11.907431
11
11.087216
21
12.258041
0
LINE
8
Layer 1
10
11.087216
20
12.258041
11
11.087216
21
21.519451
0
LINE
8
Layer 1
10
11.087216
20
21.519451
11
11.133523
21
21.764217
0
LINE
8
Layer 1
10
11.133523
20
21.764217
11
12.608733
21
21.764217
0
LINE
8
Layer 1
10
12.608733
20
21.764217
11
14.090553
21
21.764217
0
LINE
8
Layer 1
10
14.090553
20
21.764217
11
14.090553
21
19.647327
0
LINE
8
Layer 1
10
14.090553
20
19.647327
11
14.090553
21
17.530437
0
LINE
8
Layer 1
10
14.090553
20
17.530437
11
15.281303
21
17.530437
0
LINE
8
Layer 1
10
15.281303
20
17.530437
11
16.472053
21
17.530437
0
LINE
8
Layer 1
10
16.472053
20
17.530437
11
16.472053
21
25.998007
0
LINE
8
Layer 1
10
16.472053
20
25.998007
11
16.472053
21
34.465577
0
LINE
8
Layer 1
10
16.472053
20
34.465577
11
22.227353
21
34.465577
0
LINE
8
Layer 1
10
22.227353
20
34.465577
11
27.982653
21
34.465577
0
LINE
8
Layer 1
10
27.982653
20
34.465577
11
27.982653
21
35.027877
0
LINE
8
Layer 1
10
27.982653
20
35.027877
11
27.982653
21
35.629868
0
LINE
8
Layer 1
10
27.982653
20
35.629868
11
23.715792
21
35.662944
0
LINE
8
Layer 1
10
23.715792
20
35.662944
11
19.448932
21
35.649714
0
LINE
8
Layer 1
10
19.448932
20
35.649714
11
19.448932
21
35.808481
0
LINE
8
Layer 1
10
19.448932
20
35.808481
11
19.777216
21
37.480496
0
LINE
8
Layer 1
10
19.777216
20
37.480496
11
20.547072
21
39.460121
0
LINE
8
Layer 1
10
20.547072
20
39.460121
11
21.476522
21
41.016367
0
LINE
8
Layer 1
10
21.476522
20
41.016367
11
22.723502
21
42.443621
0
LINE
8
Layer 1
10
22.723502
20
42.443621
11
24.035396
21
43.595096
0
LINE
8
Layer 1
10
24.035396
20
43.595096
11
25.404348
21
44.431516
0
LINE
8
Layer 1
10
25.404348
20
44.431516
11
26.954394
21
45.014901
0
LINE
8
Layer 1
10
26.954394
20
45.014901
11
28.809572
21
45.407271
0
LINE
8
Layer 1
10
28.809572
20
45.407271
11
31.832762
21
45.248504
0
LINE
8
Layer 1
10
31.832762
20
45.248504
11
31.832770
21
45.248500
0
LINE
8
Layer 1
10
49.614670
20
26.328800
11
49.614670
21
11.907500
0
LINE
8
Layer 1
10
49.614670
20
11.907500
11
48.622377
21
11.907500
0
LINE
8
Layer 1
10
48.622377
20
11.907500
11
47.630083
21
11.907500
0
LINE
8
Layer 1
10
47.630083
20
11.907500
11
47.630083
21
26.328800
0
LINE
8
Layer 1
10
47.630083
20
26.328800
11
47.630083
21
40.750100
0
LINE
8
Layer 1
10
47.630083
20
40.750100
11
48.622377
21
40.750100
0
LINE
8
Layer 1
10
48.622377
20
40.750100
11
49.614670
21
40.750100
0
LINE
8
Layer 1
10
49.614670
20
40.750100
11
49.614670
21
26.328800
0
LINE
8
Layer 1
10
49.614670
20
26.328800
11
49.614670
21
26.328800
0
LINE
8
Layer 1
10
39.890190
20
27.294632
11
39.890190
21
17.550312
0
LINE
8
Layer 1
10
39.890190
20
17.550312
11
41.610170
21
17.583388
0
LINE
8
Layer 1
10
41.610170
20
17.583388
11
43.330150
21
17.616465
0
LINE
8
Layer 1
10
43.330150
20
17.616465
11
43.330150
21
14.758655
0
LINE
8
Layer 1
10
43.330150
20
14.758655
11
43.330150
21
11.907465
0
LINE
8
Layer 1
10
43.330150
20
11.907465
11
39.294820
21
11.907465
0
LINE
8
Layer 1
10
39.294820
20
11.907465
11
35.259490
21
11.907465
0
LINE
8
Layer 1
10
35.259490
20
11.907465
11
35.259490
21
24.469865
0
LINE
8
Layer 1
10
35.259490
20
24.469865
11
35.259490
21
37.038965
0
LINE
8
Layer 1
10
35.259490
20
37.038965
11
37.574840
21
37.038965
0
LINE
8
Layer 1
10
37.574840
20
37.038965
11
39.890190
21
37.038965
0
LINE
8
Layer 1
10
39.890190
20
37.038965
11
39.890190
21
27.294645
0
LINE
8
Layer 1
10
39.890190
20
27.294645
11
39.890190
21
27.294632
0
LINE
8
Layer 1
10
15.215190
20
28.743382
11
15.215190
21
23.021152
0
LINE
8
Layer 1
10
15.215190
20
23.021152
11
12.635230
21
23.021152
0
LINE
8
Layer 1
10
12.635230
20
23.021152
11
10.055270
21
23.021152
0
LINE
8
Layer 1
10
10.055270
20
23.021152
11
10.055270
21
28.743382
0
LINE
8
Layer 1
10
10.055270
20
28.743382
11
10.055270
21
34.465612
0
LINE
8
Layer 1
10
10.055270
20
34.465612
11
12.635230
21
34.465612
0
LINE
8
Layer 1
10
12.635230
20
34.465612
11
15.215190
21
34.465612
0
LINE
8
Layer 1
10
15.215190
20
34.465612
11
15.215190
21
28.743382
0
LINE
8
Layer 1
10
15.215190
20
28.743382
11
15.215190
21
28.743382
0
LINE
8
Layer 1
10
24.430290
20
22.921922
11
24.410444
21
15.612022
0
LINE
8
Layer 1
10
24.410444
20
15.612022
11
25.700424
21
15.612022
0
LINE
8
Layer 1
10
25.700424
20
15.612022
11
26.990404
21
15.612022
0
LINE
8
Layer 1
10
26.990404
20
15.612022
11
26.990404
21
13.759742
0
LINE
8
Layer 1
10
26.990404
20
13.759742
11
26.990404
21
11.907462
0
LINE
8
Layer 1
10
26.990404
20
11.907462
11
23.285844
21
11.907462
0
LINE
8
Layer 1
10
23.285844
20
11.907462
11
19.581284
21
11.907462
0
LINE
8
Layer 1
10
19.581284
20
11.907462
11
19.581284
21
21.069642
0
LINE
8
Layer 1
10
19.581284
20
21.069642
11
19.581284
21
30.231822
0
LINE
8
Layer 1
10
19.581284
20
30.231822
11
22.015714
21
30.231822
0
LINE
8
Layer 1
10
22.015714
20
30.231822
11
24.443524
21
30.231822
0
LINE
8
Layer 1
10
24.443524
20
30.231822
11
24.430294
21
22.921922
0
LINE
8
Layer 1
10
24.430294
20
22.921922
11
24.430290
21
22.921922
0
LINE
8
Layer 1
10
26.957330
20
20.705802
11
26.957330
21
16.835862
0
LINE
8
Layer 1
10
26.957330
20
16.835862
11
26.368569
21
16.816016
0
LINE
8
Layer 1
10
26.368569
20
16.816016
11
25.720271
21
16.882169
0
LINE
8
Layer 1
10
25.720271
20
16.882169
11
25.707040
21
24.403749
0
LINE
8
Layer 1
10
25.707040
20
24.403749
11
25.753347
21
24.615438
0
LINE
8
Layer 1
10
25.753347
20
24.615438
11
26.355338
21
24.595592
0
LINE
8
Layer 1
10
26.355338
20
24.595592
11
26.957329
21
24.575746
0
LINE
8
Layer 1
10
26.957329
20
24.575746
11
26.957329
21
20.705806
0
LINE
8
Layer 1
10
26.957329
20
20.705806
11
26.957330
21
20.705802
0
LINE
8
Layer 1
10
33.989380
20
22.683772
11
34.002611
21
20.791802
0
LINE
8
Layer 1
10
34.002611
20
20.791802
11
31.144801
21
20.752110
0
LINE
8
Layer 1
10
31.144801
20
20.752110
11
28.267151
21
20.732264
0
LINE
8
Layer 1
10
28.267151
20
20.732264
11
28.240689
21
24.582364
0
LINE
8
Layer 1
10
28.240689
20
24.582364
11
31.118339
21
24.595595
0
LINE
8
Layer 1
10
31.118339
20
24.595595
11
33.969529
21
24.575749
0
LINE
8
Layer 1
10
33.969529
20
24.575749
11
33.989375
21
22.683779
0
LINE
8
Layer 1
10
33.989375
20
22.683779
11
33.989380
21
22.683772
0
LINE
8
Layer 1
10
43.330170
20
21.737786
11
43.330170
21
18.873366
0
LINE
8
Layer 1
10
43.330170
20
18.873366
11
43.125096
21
18.827059
0
LINE
8
Layer 1
10
43.125096
20
18.827059
11
42.496643
21
18.787367
0
LINE
8
Layer 1
10
42.496643
20
18.787367
11
42.073264
21
18.787367
0
LINE
8
Layer 1
10
42.073264
20
18.787367
11
42.073264
21
21.651787
0
LINE
8
Layer 1
10
42.073264
20
21.651787
11
42.119571
21
24.562517
0
LINE
8
Layer 1
10
42.119571
20
24.562517
11
42.748024
21
24.608824
0
LINE
8
Layer 1
10
42.748024
20
24.608824
11
43.330170
21
24.608824
0
LINE
8
Layer 1
10
43.330170
20
24.608824
11
43.330170
21
21.737784
0
LINE
8
Layer 1
10
43.330170
20
21.737784
11
43.330170
21
21.737786
0
LINE
8
Layer 1
10
34.002610
20
15.711256
11
34.002610
21
11.907466
0
LINE
8
Layer 1
10
34.002610
20
11.907466
11
31.654180
21
11.907466
0
LINE
8
Layer 1
10
31.654180
20
11.907466
11
29.305750
21
11.907466
0
LINE
8
Layer 1
10
29.305750
20
11.907466
11
29.305750
21
15.711256
0
LINE
8
Layer 1
10
29.305750
20
15.711256
11
29.305750
21
19.515046
0
LINE
8
Layer 1
10
29.305750
20
19.515046
11
31.654180
21
19.515046
0
LINE
8
Layer 1
10
31.654180
20
19.515046
11
34.002610
21
19.515046
0
LINE
8
Layer 1
10
34.002610
20
19.515046
11
34.002610
21
15.711256
0
LINE
8
Layer 1
10
34.002610
20
15.711256
11
34.002610
21
15.711256
0
LINE
8
Layer 1
10
36.450200
20
28.776400
11
36.450200
21
25.997980
0
LINE
8
Layer 1
10
36.450200
20
25.997980
11
37.078653
21
25.997980
0
LINE
8
Layer 1
10
37.078653
20
25.997980
11
37.707106
21
25.997980
0
LINE
8
Layer 1
10
37.707106
20
25.997980
11
37.707106
21
28.776400
0
LINE
8
Layer 1
10
37.707106
20
28.776400
11
37.707106
21
31.554820
0
LINE
8
Layer 1
10
37.707106
20
31.554820
11
37.078653
21
31.554820
0
LINE
8
Layer 1
10
37.078653
20
31.554820
11
36.450200
21
31.554820
0
LINE
8
Layer 1
10
36.450200
20
31.554820
11
36.450200
21
28.776400
0
LINE
8
Layer 1
10
36.450200
20
28.776400
11
36.450200
21
28.776400
0
LINE
8
Layer 1
10
21.499700
20
24.562500
11
21.499700
21
23.153440
0
LINE
8
Layer 1
10
21.499700
20
23.153440
11
22.114922
21
23.186516
0
LINE
8
Layer 1
10
22.114922
20
23.186516
11
22.723529
21
23.212978
0
LINE
8
Layer 1
10
22.723529
20
23.212978
11
22.743375
21
24.569108
0
LINE
8
Layer 1
10
22.743375
20
24.569108
11
22.756605
21
25.925238
0
LINE
8
Layer 1
10
22.756605
20
25.925238
11
22.128152
21
25.945083
0
LINE
8
Layer 1
10
22.128152
20
25.945083
11
21.499699
21
25.964929
0
LINE
8
Layer 1
10
21.499699
20
25.964929
11
21.499699
21
24.562489
0
LINE
8
Layer 1
10
21.499699
20
24.562489
11
21.499700
21
24.562500
 0 
ENDSEC
 0 
EOF