<?xml version="1.0" standalone="no"?>
<!DOCTYPE svg PUBLIC "-//W3C//DTD SVG 20010904//EN"
 "http://www.w3.org/TR/2001/REC-SVG-20010904/DTD/svg10.dtd">
<svg version="1.0" xmlns="http://www.w3.org/2000/svg"
 width="113.385827pt" height="113.385827pt" viewBox="0 0 113.385827 113.385827"
 preserveAspectRatio="xMidYMid meet">
<metadata>
Created by potrace 1.16, written by Peter Selinger 2001-2019
</metadata>
<g transform="translate(0.000000,113.385827) scale(0.018741,-0.018741)"
fill="#000000" stroke="none">
<path d="M2365 5163 c-11 -3 -96 -45 -190 -93 l-170 -88 -140 -7 c-77 -4 -258
-14 -403 -23 -266 -17 -278 -16 -317 18 -11 10 -65 32 -120 48 -114 35 -504
142 -516 142 -16 0 -78 -73 -89 -105 -10 -29 -6 -43 31 -126 22 -52 81 -176
131 -277 l89 -182 -85 -112 c-47 -61 -86 -118 -86 -126 0 -9 16 -83 35 -166
19 -83 55 -241 80 -351 57 -255 67 -280 116 -311 21 -13 46 -24 55 -24 10 0
31 -10 48 -23 64 -48 144 -91 233 -126 l93 -37 83 -116 c445 -618 744 -922
1203 -1221 71 -46 173 -108 226 -138 53 -30 96 -57 95 -60 -1 -3 -76 -67 -167
-141 -289 -237 -369 -321 -389 -409 -14 -60 12 -264 40 -325 27 -56 104 -126
157 -142 48 -14 194 -15 357 -2 201 16 259 34 323 94 58 54 74 99 82 219 5 85
10 111 24 125 13 12 20 13 23 5 10 -27 47 -65 81 -82 74 -38 426 -94 817 -130
121 -12 240 -23 263 -26 94 -11 172 32 174 94 1 17 2 31 3 31 1 0 17 -8 36
-17 61 -32 217 -24 379 19 372 98 471 138 517 207 32 47 30 82 -17 332 -58
317 -129 741 -140 849 -6 52 -13 219 -16 370 -4 211 -9 285 -21 318 -23 66
-99 133 -222 196 -284 145 -1437 608 -1611 646 -127 28 -209 -42 -166 -142 5
-11 -25 1 -91 37 -98 54 -362 172 -481 215 -50 18 -67 21 -87 12 -23 -11 -24
-10 -15 14 19 50 -18 136 -111 261 -38 51 -69 95 -69 98 0 3 9 18 20 33 16 22
21 53 29 172 6 80 15 223 22 318 13 186 10 208 -33 235 -27 17 -84 27 -113 20z
m65 -81 c22 -17 22 -19 10 -167 -6 -83 -15 -211 -20 -285 -5 -74 -9 -137 -10
-139 0 -2 -50 68 -111 155 -122 176 -156 215 -211 247 -21 11 -38 23 -38 26 0
6 340 181 351 181 4 0 17 -8 29 -18z m-1622 -76 c139 -41 256 -77 259 -80 4
-4 -71 -85 -166 -180 -96 -96 -177 -180 -181 -187 -13 -21 -230 430 -230 478
0 25 19 43 45 43 11 0 134 -34 273 -74z m826 -160 l-89 -44 -35 36 -35 37 50
6 c28 3 83 7 124 7 l75 2 -90 -44z m-397 15 l73 -6 -83 -51 c-45 -28 -156 -98
-247 -156 -91 -57 -172 -108 -180 -112 -8 -5 64 71 160 168 123 124 179 174
190 170 8 -4 48 -10 87 -13z m626 -24 c-10 -13 -45 -53 -78 -90 -65 -73 -99
-85 -140 -49 -49 43 -50 49 -3 73 41 21 214 87 231 89 5 0 0 -10 -10 -23z
m190 -9 c25 -12 60 -49 105 -111 120 -162 207 -291 192 -284 -150 64 -515 228
-522 235 -5 5 25 48 69 100 85 100 81 98 156 60z m-607 -29 l32 -31 -71 -57
c-77 -61 -113 -107 -148 -185 -24 -56 -48 -178 -49 -251 l0 -50 -34 50 c-69
103 -180 182 -280 200 l-40 7 105 68 c151 99 441 280 447 280 4 0 21 -14 38
-31z m168 -163 c30 -20 51 -26 94 -26 48 0 86 -14 299 -106 134 -59 242 -108
241 -110 -2 -1 -77 -8 -168 -14 -331 -22 -395 -39 -489 -126 -84 -77 -99 -119
-129 -359 l-7 -60 -80 -42 c-62 -32 -91 -42 -131 -42 l-51 -1 23 48 c42 86 54
157 63 387 8 182 13 230 31 280 28 82 90 156 184 222 l31 21 25 -23 c14 -13
43 -35 64 -49z m-655 -260 c27 -14 53 -31 56 -37 6 -8 2 -8 -13 0 -36 19 -86
13 -111 -13 -31 -33 -24 -59 36 -131 l46 -58 -59 38 c-79 50 -113 82 -134 128
-20 45 -16 71 14 93 29 21 100 12 165 -20z m-231 -134 c47 -65 127 -125 245
-181 115 -55 117 -56 117 -89 0 -30 -17 -51 -148 -185 -81 -84 -156 -169 -166
-190 -11 -25 -17 -55 -14 -83 3 -36 1 -41 -10 -30 -16 16 -51 152 -127 494
l-54 243 62 84 62 84 6 -58 c3 -36 14 -70 27 -89z m1725 3 c37 -49 76 -112 86
-140 18 -46 18 -52 4 -75 -55 -86 -289 -385 -365 -465 l-90 -95 -67 36 c-110
61 -173 105 -236 169 -78 78 -116 149 -122 229 l-5 61 72 19 c175 45 360 179
360 261 0 9 -11 26 -25 39 l-25 23 133 15 c214 25 200 28 280 -77z m-1415 -4
c22 -13 68 -88 60 -97 -6 -5 -138 116 -138 127 0 9 40 -6 78 -30z m721 10
c-72 -45 -114 -104 -149 -210 -30 -88 -31 -98 -21 -155 27 -156 139 -292 337
-411 l58 -35 -75 -1 c-41 0 -121 -2 -179 -4 -109 -4 -352 9 -369 19 -5 3 23
54 63 114 99 144 106 160 105 229 -1 82 19 239 38 298 22 67 100 145 168 167
71 24 76 22 24 -11z m210 6 c-2 -2 -53 -27 -114 -56 -60 -28 -99 -42 -85 -31
39 31 158 86 194 89 5 1 7 -1 5 -2z m-39 -102 c0 -6 -80 -52 -112 -64 -49 -19
-30 -2 40 33 74 39 72 38 72 31z m-739 -205 c-6 -27 -30 -93 -53 -147 -33 -79
-42 -110 -42 -158 0 -69 30 -142 70 -174 13 -10 24 -21 24 -24 0 -14 -99 -29
-172 -25 -119 6 -187 47 -188 110 0 34 83 133 193 232 102 91 137 144 137 209
0 36 5 53 18 63 15 11 17 10 20 -12 2 -14 -1 -47 -7 -74z m1353 -77 c-86 -159
-154 -266 -262 -410 -105 -140 -107 -141 -118 -114 -6 15 -19 34 -27 43 -15
15 -11 22 59 90 77 74 206 229 324 391 36 48 66 87 68 87 2 0 -18 -39 -44 -87z
m288 6 c89 -38 195 -85 233 -104 115 -55 544 -317 792 -483 l232 -155 81 -128
c110 -175 260 -383 406 -564 231 -286 369 -484 398 -568 23 -69 20 -142 -8
-215 -32 -80 -59 -125 -98 -158 -46 -38 -72 -46 -183 -54 -124 -10 -177 -30
-207 -79 -21 -32 -23 -49 -23 -152 l0 -117 -75 54 c-182 132 -297 203 -344
215 l-50 12 52 17 c101 33 161 105 165 198 3 75 -16 106 -107 171 -147 105
-579 392 -689 457 -208 124 -495 274 -511 268 -9 -3 -16 -18 -16 -33 0 -24 17
-35 183 -125 206 -112 417 -236 417 -246 0 -6 -282 -219 -454 -343 l-89 -64
-59 17 c-151 46 -568 319 -822 539 -189 163 -466 484 -702 811 -103 143 -118
167 -79 126 50 -51 77 -56 289 -56 283 0 509 26 580 68 78 45 385 484 492 705
16 31 29 57 30 57 1 0 76 -32 166 -71z m901 -158 c480 -181 1105 -440 1305
-540 135 -68 202 -140 202 -218 0 -86 -169 -1125 -182 -1117 -4 3 -8 13 -8 23
0 36 -81 177 -170 300 -50 68 -164 216 -253 330 -201 254 -262 339 -370 511
-47 74 -94 146 -105 160 -11 14 -134 103 -273 197 -140 95 -290 201 -334 236
-87 70 -195 179 -195 197 0 17 42 30 83 25 22 -3 157 -50 300 -104z m-2380
-63 c-11 -13 -34 -42 -51 -66 l-31 -43 -16 24 c-22 34 -12 50 48 79 66 32 75
33 50 6z m-163 8 c0 -3 -4 -8 -10 -11 -5 -3 -10 -1 -10 4 0 6 5 11 10 11 6 0
10 -2 10 -4z m90 -260 c0 -4 -67 -116 -86 -144 -3 -5 -140 45 -177 65 l-32 18
91 6 c70 4 103 11 140 31 51 26 64 31 64 24z m799 -58 c21 -29 31 -66 24 -84
-7 -19 -191 -18 -498 1 -126 8 -241 15 -255 15 -48 1 -54 14 -26 56 l25 39
357 -2 357 -2 16 -23z m-410 -154 c9 -8 -285 -2 -304 6 -11 5 48 6 140 3 88
-3 162 -7 164 -9z m3615 -1019 c19 -117 110 -629 136 -769 32 -176 27 -197
-59 -241 -58 -29 -310 -105 -465 -140 -213 -47 -309 -26 -357 80 -21 44 -27
192 -9 225 14 27 63 41 176 50 121 10 158 24 222 84 49 46 80 98 112 188 14
39 23 52 39 53 12 1 25 6 30 11 8 9 29 126 98 538 l38 229 12 -109 c6 -60 18
-149 27 -199z m-1518 -377 c126 -128 244 -252 262 -275 l32 -41 -127 -42 c-71
-24 -222 -80 -338 -125 -115 -45 -257 -101 -315 -123 -58 -22 -117 -52 -131
-66 -34 -34 -49 -87 -49 -170 0 -144 -68 -216 -223 -236 -40 -5 -141 -14 -225
-20 -190 -14 -237 -4 -300 64 -45 49 -55 78 -72 214 -21 167 -2 191 408 519
l163 130 44 -9 c35 -7 50 -6 77 8 31 16 230 160 453 328 55 41 103 75 106 75
3 1 109 -104 235 -231z m312 -107 c48 -38 52 -45 52 -84 0 -89 12 -98 -295
232 l-50 54 120 -80 c66 -44 144 -99 173 -122z m47 -443 c251 -172 355 -258
355 -294 0 -43 -25 -46 -223 -29 -554 48 -929 112 -962 165 -15 25 34 50 210
110 277 94 387 121 465 115 60 -4 72 -10 155 -67z"/>
</g>
</svg>
