999
"DXF R12 Output" (www.mydxf.blogspot.com)
 0 
SECTION
 2 
HEADER
 9 
$ACADVER
 1 
AC1009
 9 
$EXTMIN
 10 
 0 
 20 
 0 
 9 
$EXTMAX
 10 
 8.5 
 20 
 11 
 0 
ENDSEC
 0 
SECTION
 2 
ENTITIES
0
LINE
8
Layer 1
10
262.820000
20
278.589000
11
248.382550
21
269.275651
0
LINE
8
Layer 1
10
248.382550
20
269.275651
11
235.585500
21
260.809000
0
LINE
8
Layer 1
10
235.585500
20
260.809000
11
234.218486
21
259.561048
0
LINE
8
Layer 1
10
234.218486
20
259.561048
11
233.327720
21
258.233720
0
LINE
8
Layer 1
10
233.327720
20
258.233720
11
232.692720
21
256.822610
0
LINE
8
Layer 1
10
232.692720
20
256.822610
11
228.318270
21
256.822610
0
LINE
8
Layer 1
10
228.318270
20
256.822610
11
225.808587
21
256.843005
0
LINE
8
Layer 1
10
225.808587
20
256.843005
11
224.353930
21
256.959311
0
LINE
8
Layer 1
10
224.353930
20
256.959311
11
223.461510
21
257.254212
0
LINE
8
Layer 1
10
223.461510
20
257.254212
11
222.638540
21
257.810388
0
LINE
8
Layer 1
10
222.638540
20
257.810388
11
218.028166
21
261.157363
0
LINE
8
Layer 1
10
218.028166
20
261.157363
11
210.494146
21
266.409338
0
LINE
8
Layer 1
10
210.494146
20
266.409338
11
199.355240
21
273.897088
0
LINE
8
Layer 1
10
199.355240
20
273.897088
11
198.731263
21
274.194744
0
LINE
8
Layer 1
10
198.731263
20
274.194744
11
198.226348
21
274.293963
0
LINE
8
Layer 1
10
198.226348
20
274.293963
11
196.885790
21
273.897088
0
LINE
8
Layer 1
10
196.885790
20
273.897088
11
196.077706
21
273.603841
0
LINE
8
Layer 1
10
196.077706
20
273.603841
11
195.527594
21
273.535490
0
LINE
8
Layer 1
10
195.527594
20
273.535490
11
195.030399
21
273.718494
0
LINE
8
Layer 1
10
195.030399
20
273.718494
11
194.381070
21
274.179310
0
LINE
8
Layer 1
10
194.381070
20
274.179310
11
193.496782
21
274.683535
0
LINE
8
Layer 1
10
193.496782
20
274.683535
11
192.558751
21
274.958730
0
LINE
8
Layer 1
10
192.558751
20
274.958730
11
191.599222
21
275.013990
0
LINE
8
Layer 1
10
191.599222
20
275.013990
11
190.650442
21
274.858409
0
LINE
8
Layer 1
10
190.650442
20
274.858409
11
189.744657
21
274.501084
0
LINE
8
Layer 1
10
189.744657
20
274.501084
11
188.914113
21
273.951109
0
LINE
8
Layer 1
10
188.914113
20
273.951109
11
188.191055
21
273.217579
0
LINE
8
Layer 1
10
188.191055
20
273.217579
11
187.607730
21
272.309590
0
LINE
8
Layer 1
10
187.607730
20
272.309590
11
187.351346
21
271.574061
0
LINE
8
Layer 1
10
187.351346
20
271.574061
11
187.164001
21
270.374271
0
LINE
8
Layer 1
10
187.164001
20
270.374271
11
186.994778
21
265.955175
0
LINE
8
Layer 1
10
186.994778
20
265.955175
11
187.096753
21
257.798837
0
LINE
8
Layer 1
10
187.096753
20
257.798837
11
187.466619
21
244.651790
0
LINE
8
Layer 1
10
187.466619
20
244.651790
11
187.916410
21
232.525052
0
LINE
8
Layer 1
10
187.916410
20
232.525052
11
188.171071
21
230.136070
0
LINE
8
Layer 1
10
188.171071
20
230.136070
11
188.524949
21
229.023690
0
LINE
8
Layer 1
10
188.524949
20
229.023690
11
189.189164
21
228.105917
0
LINE
8
Layer 1
10
189.189164
20
228.105917
11
190.108040
21
227.290670
0
LINE
8
Layer 1
10
190.108040
20
227.290670
11
191.099676
21
226.706932
0
LINE
8
Layer 1
10
191.099676
20
226.706932
11
191.982169
21
226.483690
0
LINE
8
Layer 1
10
191.982169
20
226.483690
11
192.250818
21
226.440351
0
LINE
8
Layer 1
10
192.250818
20
226.440351
11
192.371879
21
226.262653
0
LINE
8
Layer 1
10
192.371879
20
226.262653
11
192.030677
21
225.218099
0
LINE
8
Layer 1
10
192.030677
20
225.218099
11
188.031059
21
218.369800
0
LINE
8
Layer 1
10
188.031059
20
218.369800
11
175.741165
21
198.001300
0
LINE
8
Layer 1
10
175.741165
20
198.001300
11
167.076059
21
183.374200
0
LINE
8
Layer 1
10
167.076059
20
183.374200
11
165.523839
21
180.834200
0
LINE
8
Layer 1
10
165.523839
20
180.834200
11
156.611781
21
180.481422
0
LINE
8
Layer 1
10
156.611781
20
180.481422
11
129.469939
21
179.916977
0
LINE
8
Layer 1
10
129.469939
20
179.916977
11
69.418289
21
178.713119
0
LINE
8
Layer 1
10
69.418289
20
178.713119
11
61.981302
21
178.334434
0
LINE
8
Layer 1
10
61.981302
20
178.334434
11
60.518386
21
178.101063
0
LINE
8
Layer 1
10
60.518386
20
178.101063
11
59.267139
21
177.800307
0
LINE
8
Layer 1
10
59.267139
20
177.800307
11
52.103542
21
175.893859
0
LINE
8
Layer 1
10
52.103542
20
175.893859
11
45.270675
21
173.694303
0
LINE
8
Layer 1
10
45.270675
20
173.694303
11
38.768537
21
171.202879
0
LINE
8
Layer 1
10
38.768537
20
171.202879
11
32.597127
21
168.420826
0
LINE
8
Layer 1
10
32.597127
20
168.420826
11
26.756443
21
165.349383
0
LINE
8
Layer 1
10
26.756443
20
165.349383
11
21.246484
21
161.989789
0
LINE
8
Layer 1
10
21.246484
20
161.989789
11
16.067250
21
158.343284
0
LINE
8
Layer 1
10
16.067250
20
158.343284
11
11.218739
21
154.411107
0
LINE
8
Layer 1
10
11.218739
20
154.411107
11
8.709603
21
152.009459
0
LINE
8
Layer 1
10
8.709603
20
152.009459
11
5.909423
21
149.035649
0
LINE
8
Layer 1
10
5.909423
20
149.035649
11
3.241526
21
145.962619
0
LINE
8
Layer 1
10
3.241526
20
145.962619
11
1.129239
21
143.263307
0
LINE
8
Layer 1
10
1.129239
20
143.263307
11
0.000349
21
141.711087
0
LINE
8
Layer 1
10
0.000349
20
141.711087
11
0.000349
21
136.560527
0
LINE
8
Layer 1
10
0.000349
20
136.560527
11
0.110592
21
132.512398
0
LINE
8
Layer 1
10
0.110592
20
132.512398
11
0.243435
21
132.006382
0
LINE
8
Layer 1
10
0.243435
20
132.006382
11
0.458960
21
132.221357
0
LINE
8
Layer 1
10
0.458960
20
132.221357
11
1.025610
21
132.715798
0
LINE
8
Layer 1
10
1.025610
20
132.715798
11
2.372781
21
133.372297
0
LINE
8
Layer 1
10
2.372781
20
133.372297
11
8.467020
21
135.608027
0
LINE
8
Layer 1
10
8.467020
20
135.608027
11
25.788420
21
141.711087
0
LINE
8
Layer 1
10
25.788420
20
141.711087
11
35.525090
21
145.203587
0
LINE
8
Layer 1
10
35.525090
20
145.203587
11
32.314810
21
141.640527
0
LINE
8
Layer 1
10
32.314810
20
141.640527
11
27.969575
21
136.692122
0
LINE
8
Layer 1
10
27.969575
20
136.692122
11
23.673948
21
131.448543
0
LINE
8
Layer 1
10
23.673948
20
131.448543
11
19.480845
21
125.985031
0
LINE
8
Layer 1
10
19.480845
20
125.985031
11
15.443185
21
120.376827
0
LINE
8
Layer 1
10
15.443185
20
120.376827
11
11.613884
21
114.699173
0
LINE
8
Layer 1
10
11.613884
20
114.699173
11
8.045860
21
109.027311
0
LINE
8
Layer 1
10
8.045860
20
109.027311
11
4.792030
21
103.436482
0
LINE
8
Layer 1
10
4.792030
20
103.436482
11
1.905310
21
98.001927
0
LINE
8
Layer 1
10
1.905310
20
98.001927
11
0.000310
21
94.227207
0
LINE
8
Layer 1
10
0.000310
20
94.227207
11
0.070866
21
86.042757
0
LINE
8
Layer 1
10
0.070866
20
86.042757
11
0.176699
21
77.858307
0
LINE
8
Layer 1
10
0.176699
20
77.858307
11
1.023366
21
79.939697
0
LINE
8
Layer 1
10
1.023366
20
79.939697
11
5.115586
21
88.723867
0
LINE
8
Layer 1
10
5.115586
20
88.723867
11
7.814539
21
94.105646
0
LINE
8
Layer 1
10
7.814539
20
94.105646
11
10.675138
21
99.416269
0
LINE
8
Layer 1
10
10.675138
20
99.416269
11
13.681259
21
104.635840
0
LINE
8
Layer 1
10
13.681259
20
104.635840
11
16.816779
21
109.744464
0
LINE
8
Layer 1
10
16.816779
20
109.744464
11
20.065575
21
114.722244
0
LINE
8
Layer 1
10
20.065575
20
114.722244
11
23.411524
21
119.549285
0
LINE
8
Layer 1
10
23.411524
20
119.549285
11
26.838502
21
124.205692
0
LINE
8
Layer 1
10
26.838502
20
124.205692
11
30.330386
21
128.671567
0
LINE
8
Layer 1
10
30.330386
20
128.671567
11
33.871052
21
132.927016
0
LINE
8
Layer 1
10
33.871052
20
132.927016
11
37.444379
21
136.952142
0
LINE
8
Layer 1
10
37.444379
20
136.952142
11
41.034241
21
140.727051
0
LINE
8
Layer 1
10
41.034241
20
140.727051
11
44.624517
21
144.231845
0
LINE
8
Layer 1
10
44.624517
20
144.231845
11
48.199082
21
147.446630
0
LINE
8
Layer 1
10
48.199082
20
147.446630
11
51.741815
21
150.351509
0
LINE
8
Layer 1
10
51.741815
20
150.351509
11
55.236590
21
152.926586
0
LINE
8
Layer 1
10
55.236590
20
152.926586
11
58.667286
21
155.151967
0
LINE
8
Layer 1
10
58.667286
20
155.151967
11
61.912846
21
156.915857
0
LINE
8
Layer 1
10
61.912846
20
156.915857
11
59.125896
21
152.047517
0
LINE
8
Layer 1
10
59.125896
20
152.047517
11
47.272596
21
132.291917
0
LINE
8
Layer 1
10
47.272596
20
132.291917
11
29.210396
21
102.129417
0
LINE
8
Layer 1
10
29.210396
20
102.129417
11
11.536196
21
72.601917
0
LINE
8
Layer 1
10
11.536196
20
72.601917
11
0.000396
21
53.340217
0
LINE
8
Layer 1
10
0.000396
20
53.340217
11
0.000396
21
48.189657
0
LINE
8
Layer 1
10
0.000396
20
48.189657
11
0.097409
21
44.181220
0
LINE
8
Layer 1
10
0.097409
20
44.181220
11
0.238520
21
43.392429
0
LINE
8
Layer 1
10
0.238520
20
43.392429
11
0.459007
21
43.215487
0
LINE
8
Layer 1
10
0.459007
20
43.215487
11
14.640707
21
44.273817
0
LINE
8
Layer 1
10
14.640707
20
44.273817
11
40.309694
21
46.002431
0
LINE
8
Layer 1
10
40.309694
20
46.002431
11
50.024307
21
46.778537
0
LINE
8
Layer 1
10
50.024307
20
46.778537
11
51.444238
21
47.184231
0
LINE
8
Layer 1
10
51.444238
20
47.184231
11
52.705417
21
48.013257
0
LINE
8
Layer 1
10
52.705417
20
48.013257
11
53.904867
21
49.036317
0
LINE
8
Layer 1
10
53.904867
20
49.036317
11
54.116534
21
47.907427
0
LINE
8
Layer 1
10
54.116534
20
47.907427
11
54.550340
21
46.652308
0
LINE
8
Layer 1
10
54.550340
20
46.652308
11
55.311569
21
45.407112
0
LINE
8
Layer 1
10
55.311569
20
45.407112
11
56.304307
21
44.300823
0
LINE
8
Layer 1
10
56.304307
20
44.300823
11
57.432644
21
43.462427
0
LINE
8
Layer 1
10
57.432644
20
43.462427
11
58.442607
21
43.017183
0
LINE
8
Layer 1
10
58.442607
20
43.017183
11
59.843659
21
42.605839
0
LINE
8
Layer 1
10
59.843659
20
42.605839
11
63.888479
21
41.874927
0
LINE
8
Layer 1
10
63.888479
20
41.874927
11
69.706005
21
41.249847
0
LINE
8
Layer 1
10
69.706005
20
41.249847
11
77.435144
21
40.710757
0
LINE
8
Layer 1
10
77.435144
20
40.710757
11
81.668484
21
40.463812
0
LINE
8
Layer 1
10
81.668484
20
40.463812
11
79.728204
21
40.005201
0
LINE
8
Layer 1
10
79.728204
20
40.005201
11
78.092197
21
39.453985
0
LINE
8
Layer 1
10
78.092197
20
39.453985
11
77.011814
21
38.664641
0
LINE
8
Layer 1
10
77.011814
20
38.664641
11
76.235702
21
37.747418
0
LINE
8
Layer 1
10
76.235702
20
37.747418
11
75.671257
21
38.594085
0
LINE
8
Layer 1
10
75.671257
20
38.594085
11
74.935384
21
39.304603
0
LINE
8
Layer 1
10
74.935384
20
39.304603
11
73.832402
21
39.939053
0
LINE
8
Layer 1
10
73.832402
20
39.939053
11
72.590512
21
40.394909
0
LINE
8
Layer 1
10
72.590512
20
40.394909
11
71.437917
21
40.569645
0
LINE
8
Layer 1
10
71.437917
20
40.569645
11
68.187951
21
39.396658
0
LINE
8
Layer 1
10
68.187951
20
39.396658
11
61.630687
21
36.583255
0
LINE
8
Layer 1
10
61.630687
20
36.583255
11
53.526737
21
32.975548
0
LINE
8
Layer 1
10
53.526737
20
32.975548
11
48.048762
21
30.713910
0
LINE
8
Layer 1
10
48.048762
20
30.713910
11
43.920149
21
29.305554
0
LINE
8
Layer 1
10
43.920149
20
29.305554
11
39.864287
21
28.257695
0
LINE
8
Layer 1
10
39.864287
20
28.257695
11
35.575272
21
27.461327
0
LINE
8
Layer 1
10
35.575272
20
27.461327
11
31.289566
21
27.085812
0
LINE
8
Layer 1
10
31.289566
20
27.085812
11
26.980711
21
27.135283
0
LINE
8
Layer 1
10
26.980711
20
27.135283
11
22.622249
21
27.613876
0
LINE
8
Layer 1
10
22.622249
20
27.613876
11
18.187723
21
28.525725
0
LINE
8
Layer 1
10
18.187723
20
28.525725
11
13.650676
21
29.874963
0
LINE
8
Layer 1
10
13.650676
20
29.874963
11
8.984649
21
31.665725
0
LINE
8
Layer 1
10
8.984649
20
31.665725
11
4.163187
21
33.902145
0
LINE
8
Layer 1
10
4.163187
20
33.902145
11
0.000407
21
35.983535
0
LINE
8
Layer 1
10
0.000407
20
35.983535
11
0.000407
21
30.444925
0
LINE
8
Layer 1
10
0.000407
20
30.444925
11
0.000407
21
24.871035
0
LINE
8
Layer 1
10
0.000407
20
24.871035
11
3.281247
21
23.389365
0
LINE
8
Layer 1
10
3.281247
20
23.389365
11
8.071867
21
21.389554
0
LINE
8
Layer 1
10
8.071867
20
21.389554
11
12.793037
21
19.773390
0
LINE
8
Layer 1
10
12.793037
20
19.773390
11
17.494362
21
18.527644
0
LINE
8
Layer 1
10
17.494362
20
18.527644
11
22.225447
21
17.639085
0
LINE
8
Layer 1
10
22.225447
20
17.639085
11
25.882213
21
17.306702
0
LINE
8
Layer 1
10
25.882213
20
17.306702
11
30.180594
21
17.255439
0
LINE
8
Layer 1
10
30.180594
20
17.255439
11
34.558352
21
17.475374
0
LINE
8
Layer 1
10
34.558352
20
17.475374
11
38.453247
21
17.956585
0
LINE
8
Layer 1
10
38.453247
20
17.956585
11
45.004449
21
19.341790
0
LINE
8
Layer 1
10
45.004449
20
19.341790
11
48.173597
21
20.235518
0
LINE
8
Layer 1
10
48.173597
20
20.235518
11
51.413438
21
21.312389
0
LINE
8
Layer 1
10
51.413438
20
21.312389
11
58.530181
21
24.162736
0
LINE
8
Layer 1
10
58.530181
20
24.162736
11
67.204647
21
28.187185
0
LINE
8
Layer 1
10
67.204647
20
28.187185
11
71.616578
21
30.420158
0
LINE
8
Layer 1
10
71.616578
20
30.420158
11
74.374862
21
32.080970
0
LINE
8
Layer 1
10
74.374862
20
32.080970
11
75.233104
21
32.766062
0
LINE
8
Layer 1
10
75.233104
20
32.766062
11
75.796997
21
33.391210
0
LINE
8
Layer 1
10
75.796997
20
33.391210
11
76.106229
21
33.984111
0
LINE
8
Layer 1
10
76.106229
20
33.984111
11
76.200487
21
34.572465
0
LINE
8
Layer 1
10
76.200487
20
34.572465
11
76.290335
21
35.147934
0
LINE
8
Layer 1
10
76.290335
20
35.147934
11
76.575313
21
35.392673
0
LINE
8
Layer 1
10
76.575313
20
35.392673
11
77.078573
21
35.306683
0
LINE
8
Layer 1
10
77.078573
20
35.306683
11
77.823267
21
34.889965
0
LINE
8
Layer 1
10
77.823267
20
34.889965
11
78.450412
21
34.610430
0
LINE
8
Layer 1
10
78.450412
20
34.610430
11
79.473606
21
34.406549
0
LINE
8
Layer 1
10
79.473606
20
34.406549
11
83.432438
21
34.224097
0
LINE
8
Layer 1
10
83.432438
20
34.224097
11
91.148359
21
34.339301
0
LINE
8
Layer 1
10
91.148359
20
34.339301
11
104.069967
21
34.748854
0
LINE
8
Layer 1
10
104.069967
20
34.748854
11
131.586667
21
35.630799
0
LINE
8
Layer 1
10
131.586667
20
35.630799
11
140.855909
21
35.996806
0
LINE
8
Layer 1
10
140.855909
20
35.996806
11
146.050567
21
36.336355
0
LINE
8
Layer 1
10
146.050567
20
36.336355
11
147.892179
21
36.764099
0
LINE
8
Layer 1
10
147.892179
20
36.764099
11
148.565145
21
37.080497
0
LINE
8
Layer 1
10
148.565145
20
37.080497
11
149.088869
21
37.482885
0
LINE
8
Layer 1
10
149.088869
20
37.482885
11
149.475340
21
37.984492
0
LINE
8
Layer 1
10
149.475340
20
37.984492
11
149.736548
21
38.598546
0
LINE
8
Layer 1
10
149.736548
20
38.598546
11
149.931127
21
40.216915
0
LINE
8
Layer 1
10
149.931127
20
40.216915
11
149.931127
21
41.910245
0
LINE
8
Layer 1
10
149.931127
20
41.910245
11
145.062787
21
45.120525
0
LINE
8
Layer 1
10
145.062787
20
45.120525
11
134.232487
21
52.211365
0
LINE
8
Layer 1
10
134.232487
20
52.211365
11
128.235257
21
56.127205
0
LINE
8
Layer 1
10
128.235257
20
56.127205
11
122.767197
21
55.915538
0
LINE
8
Layer 1
10
122.767197
20
55.915538
11
110.067197
21
55.386371
0
LINE
8
Layer 1
10
110.067197
20
55.386371
11
90.311597
21
54.680815
0
LINE
8
Layer 1
10
90.311597
20
54.680815
11
71.296897
21
53.975259
0
LINE
8
Layer 1
10
71.296897
20
53.975259
11
66.671094
21
53.750363
0
LINE
8
Layer 1
10
66.671094
20
53.750363
11
64.664667
21
53.763592
0
LINE
8
Layer 1
10
64.664667
20
53.763592
11
65.633703
21
55.010992
0
LINE
8
Layer 1
10
65.633703
20
55.010992
11
68.977372
21
58.795084
0
LINE
8
Layer 1
10
68.977372
20
58.795084
11
84.137967
21
75.494692
0
LINE
8
Layer 1
10
84.137967
20
75.494692
11
97.437667
21
90.170292
0
LINE
8
Layer 1
10
97.437667
20
90.170292
11
101.917947
21
95.179742
0
LINE
8
Layer 1
10
101.917947
20
95.179742
11
105.727947
21
94.333075
0
LINE
8
Layer 1
10
105.727947
20
94.333075
11
132.750722
21
88.578386
0
LINE
8
Layer 1
10
132.750722
20
88.578386
11
165.276847
21
81.844775
0
LINE
8
Layer 1
10
165.276847
20
81.844775
11
179.776047
21
78.846165
0
LINE
8
Layer 1
10
179.776047
20
78.846165
11
180.166858
21
78.669776
0
LINE
8
Layer 1
10
180.166858
20
78.669776
11
180.362540
21
78.122970
0
LINE
8
Layer 1
10
180.362540
20
78.122970
11
180.340492
21
74.542275
0
LINE
8
Layer 1
10
180.340492
20
74.542275
11
180.071498
21
70.908663
0
LINE
8
Layer 1
10
180.071498
20
70.908663
11
179.799749
21
70.047664
0
LINE
8
Layer 1
10
179.799749
20
70.047664
11
179.352714
21
69.391715
0
LINE
8
Layer 1
10
179.352714
20
69.391715
11
178.821893
21
68.595484
0
LINE
8
Layer 1
10
178.821893
20
68.595484
11
178.446515
21
67.685151
0
LINE
8
Layer 1
10
178.446515
20
67.685151
11
178.226580
21
66.695443
0
LINE
8
Layer 1
10
178.226580
20
66.695443
11
178.162088
21
65.661088
0
LINE
8
Layer 1
10
178.162088
20
65.661088
11
178.253038
21
64.616810
0
LINE
8
Layer 1
10
178.253038
20
64.616810
11
178.499432
21
63.597338
0
LINE
8
Layer 1
10
178.499432
20
63.597338
11
178.901268
21
62.637397
0
LINE
8
Layer 1
10
178.901268
20
62.637397
11
179.458547
21
61.771715
0
LINE
8
Layer 1
10
179.458547
20
61.771715
11
180.101676
21
61.102333
0
LINE
8
Layer 1
10
180.101676
20
61.102333
11
181.078017
21
60.378793
0
LINE
8
Layer 1
10
181.078017
20
60.378793
11
184.503269
21
58.539381
0
LINE
8
Layer 1
10
184.503269
20
58.539381
11
190.680185
21
55.793762
0
LINE
8
Layer 1
10
190.680185
20
55.793762
11
200.554647
21
51.682215
0
LINE
8
Layer 1
10
200.554647
20
51.682215
11
220.596822
21
43.418393
0
LINE
8
Layer 1
10
220.596822
20
43.418393
11
223.697415
21
42.038158
0
LINE
8
Layer 1
10
223.697415
20
42.038158
11
224.367147
21
41.557515
0
LINE
8
Layer 1
10
224.367147
20
41.557515
11
223.485202
21
39.864185
0
LINE
8
Layer 1
10
223.485202
20
39.864185
11
222.881757
21
38.765818
0
LINE
8
Layer 1
10
222.881757
20
38.765818
11
222.447812
21
37.665385
0
LINE
8
Layer 1
10
222.447812
20
37.665385
11
222.184194
21
36.560819
0
LINE
8
Layer 1
10
222.184194
20
36.560819
11
222.091728
21
35.450051
0
LINE
8
Layer 1
10
222.091728
20
35.450051
11
222.171242
21
34.331015
0
LINE
8
Layer 1
10
222.171242
20
34.331015
11
222.423561
21
33.201644
0
LINE
8
Layer 1
10
222.423561
20
33.201644
11
222.849513
21
32.059870
0
LINE
8
Layer 1
10
222.849513
20
32.059870
11
223.449924
21
30.903625
0
LINE
8
Layer 1
10
223.449924
20
30.903625
11
224.333523
21
29.645752
0
LINE
8
Layer 1
10
224.333523
20
29.645752
11
225.332876
21
28.698764
0
LINE
8
Layer 1
10
225.332876
20
28.698764
11
226.510824
21
28.016359
0
LINE
8
Layer 1
10
226.510824
20
28.016359
11
227.930204
21
27.552235
0
LINE
8
Layer 1
10
227.930204
20
27.552235
11
238.054929
21
26.321922
0
LINE
8
Layer 1
10
238.054929
20
26.321922
11
259.821304
21
24.165565
0
LINE
8
Layer 1
10
259.821304
20
24.165565
11
273.650204
21
22.754455
0
LINE
8
Layer 1
10
273.650204
20
22.754455
11
278.977154
21
22.251747
0
LINE
8
Layer 1
10
278.977154
20
22.251747
11
280.357398
21
22.337736
0
LINE
8
Layer 1
10
280.357398
20
22.337736
11
281.340764
21
22.648622
0
LINE
8
Layer 1
10
281.340764
20
22.648622
11
281.850638
21
22.945176
0
LINE
8
Layer 1
10
281.850638
20
22.945176
11
282.112466
21
23.512928
0
LINE
8
Layer 1
10
282.112466
20
23.512928
11
282.222709
21
27.023072
0
LINE
8
Layer 1
10
282.222709
20
27.023072
11
282.108056
21
30.453838
0
LINE
8
Layer 1
10
282.108056
20
30.453838
11
281.895287
21
31.081123
0
LINE
8
Layer 1
10
281.895287
20
31.081123
11
281.517153
21
31.397522
0
LINE
8
Layer 1
10
281.517153
20
31.397522
11
275.859477
21
32.178045
0
LINE
8
Layer 1
10
275.859477
20
32.178045
11
263.243253
21
33.514192
0
LINE
8
Layer 1
10
263.243253
20
33.514192
11
239.007453
21
35.983642
0
LINE
8
Layer 1
10
239.007453
20
35.983642
11
231.034673
21
36.689198
0
LINE
8
Layer 1
10
231.034673
20
36.689198
11
229.553003
21
36.900865
0
LINE
8
Layer 1
10
229.553003
20
36.900865
11
229.676475
21
37.447671
0
LINE
8
Layer 1
10
229.676475
20
37.447671
11
230.329115
21
38.417815
0
LINE
8
Layer 1
10
230.329115
20
38.417815
11
238.196065
21
49.389215
0
LINE
8
Layer 1
10
238.196065
20
49.389215
11
257.104965
21
75.953415
0
LINE
8
Layer 1
10
257.104965
20
75.953415
11
258.573402
21
77.796683
0
LINE
8
Layer 1
10
258.573402
20
77.796683
11
259.327465
21
78.422865
0
LINE
8
Layer 1
10
259.327465
20
78.422865
11
265.390844
21
67.120732
0
LINE
8
Layer 1
10
265.390844
20
67.120732
11
276.931065
21
45.155865
0
LINE
8
Layer 1
10
276.931065
20
45.155865
11
281.728845
21
36.160025
0
LINE
8
Layer 1
10
281.728845
20
36.160025
11
281.871610
21
36.037862
0
LINE
8
Layer 1
10
281.871610
20
36.037862
11
281.984609
21
36.161679
0
LINE
8
Layer 1
10
281.984609
20
36.161679
11
282.134540
21
37.390338
0
LINE
8
Layer 1
10
282.134540
20
37.390338
11
282.222734
21
45.473365
0
LINE
8
Layer 1
10
282.222734
20
45.473365
11
282.222734
21
55.492265
0
LINE
8
Layer 1
10
282.222734
20
55.492265
11
279.083014
21
61.348375
0
LINE
8
Layer 1
10
279.083014
20
61.348375
11
271.604124
21
75.635875
0
LINE
8
Layer 1
10
271.604124
20
75.635875
11
268.766466
21
80.950146
0
LINE
8
Layer 1
10
268.766466
20
80.950146
11
266.762248
21
84.230435
0
LINE
8
Layer 1
10
266.762248
20
84.230435
11
265.973459
21
85.249431
0
LINE
8
Layer 1
10
265.973459
20
85.249431
11
265.273967
21
85.929844
0
LINE
8
Layer 1
10
265.273967
20
85.929844
11
264.624084
21
86.328313
0
LINE
8
Layer 1
10
264.624084
20
86.328313
11
263.984124
21
86.501475
0
LINE
8
Layer 1
10
263.984124
20
86.501475
11
263.449995
21
86.610064
0
LINE
8
Layer 1
10
263.449995
20
86.610064
11
263.124226
21
86.841023
0
LINE
8
Layer 1
10
263.124226
20
86.841023
11
262.937363
21
87.290263
0
LINE
8
Layer 1
10
262.937363
20
87.290263
11
262.819954
21
88.053695
0
LINE
8
Layer 1
10
262.819954
20
88.053695
11
262.531668
21
89.244874
0
LINE
8
Layer 1
10
262.531668
20
89.244874
11
262.048253
21
90.307066
0
LINE
8
Layer 1
10
262.048253
20
90.307066
11
261.386243
21
91.203893
0
LINE
8
Layer 1
10
261.386243
20
91.203893
11
260.562174
21
91.898975
0
LINE
8
Layer 1
10
260.562174
20
91.898975
11
259.847109
21
92.318519
0
LINE
8
Layer 1
10
259.847109
20
92.318519
11
259.022077
21
92.576419
0
LINE
8
Layer 1
10
259.022077
20
92.576419
11
257.844819
21
92.640015
0
LINE
8
Layer 1
10
257.844819
20
92.640015
11
256.073076
21
92.476649
0
LINE
8
Layer 1
10
256.073076
20
92.476649
11
249.777100
21
91.338389
0
LINE
8
Layer 1
10
249.777100
20
91.338389
11
238.196074
21
88.900365
0
LINE
8
Layer 1
10
238.196074
20
88.900365
11
227.824374
21
86.783695
0
LINE
8
Layer 1
10
227.824374
20
86.783695
11
227.672789
21
86.914333
0
LINE
8
Layer 1
10
227.672789
20
86.914333
11
227.590658
21
87.299632
0
LINE
8
Layer 1
10
227.590658
20
87.299632
11
227.647985
21
88.794525
0
LINE
8
Layer 1
10
227.647985
20
88.794525
11
234.244935
21
141.323125
0
LINE
8
Layer 1
10
234.244935
20
141.323125
11
234.452192
21
143.708788
0
LINE
8
Layer 1
10
234.452192
20
143.708788
11
234.103824
21
145.803405
0
LINE
8
Layer 1
10
234.103824
20
145.803405
11
233.574657
21
147.814235
0
LINE
8
Layer 1
10
233.574657
20
147.814235
11
238.548827
21
155.998685
0
LINE
8
Layer 1
10
238.548827
20
155.998685
11
243.593557
21
164.324245
0
LINE
8
Layer 1
10
243.593557
20
164.324245
11
244.863557
21
163.830356
0
LINE
8
Layer 1
10
244.863557
20
163.830356
11
245.759833
21
163.467379
0
LINE
8
Layer 1
10
245.759833
20
163.467379
11
246.662724
21
163.274729
0
LINE
8
Layer 1
10
246.662724
20
163.274729
11
247.552386
21
163.247443
0
LINE
8
Layer 1
10
247.552386
20
163.247443
11
248.408976
21
163.380562
0
LINE
8
Layer 1
10
248.408976
20
163.380562
11
249.212648
21
163.669124
0
LINE
8
Layer 1
10
249.212648
20
163.669124
11
249.943560
21
164.108168
0
LINE
8
Layer 1
10
249.943560
20
164.108168
11
250.581868
21
164.692732
0
LINE
8
Layer 1
10
250.581868
20
164.692732
11
251.107727
21
165.417856
0
LINE
8
Layer 1
10
251.107727
20
165.417856
11
251.672172
21
166.405634
0
LINE
8
Layer 1
10
251.672172
20
166.405634
11
253.330232
21
165.241464
0
LINE
8
Layer 1
10
253.330232
20
165.241464
11
254.587004
21
164.390385
0
LINE
8
Layer 1
10
254.587004
20
164.390385
11
255.341062
21
164.042014
0
LINE
8
Layer 1
10
255.341062
20
164.042014
11
257.246063
21
165.629515
0
LINE
8
Layer 1
10
257.246063
20
165.629515
11
261.267732
21
169.439514
0
LINE
8
Layer 1
10
261.267732
20
169.439514
11
266.806342
21
174.837014
0
LINE
8
Layer 1
10
266.806342
20
174.837014
11
266.030230
21
187.149014
0
LINE
8
Layer 1
10
266.030230
20
187.149014
11
264.760230
21
205.317114
0
LINE
8
Layer 1
10
264.760230
20
205.317114
11
263.701900
21
219.604614
0
LINE
8
Layer 1
10
263.701900
20
219.604614
11
263.166669
21
226.137633
0
LINE
8
Layer 1
10
263.166669
20
226.137633
11
262.781025
21
228.321002
0
LINE
8
Layer 1
10
262.781025
20
228.321002
11
262.198183
21
230.038039
0
LINE
8
Layer 1
10
262.198183
20
230.038039
11
261.329260
21
231.480567
0
LINE
8
Layer 1
10
261.329260
20
231.480567
11
260.085373
21
232.840408
0
LINE
8
Layer 1
10
260.085373
20
232.840408
11
256.117170
21
236.079314
0
LINE
8
Layer 1
10
256.117170
20
236.079314
11
255.235225
21
236.895115
0
LINE
8
Layer 1
10
255.235225
20
236.895115
11
255.164669
21
237.175685
0
LINE
8
Layer 1
10
255.164669
20
237.175685
11
255.305781
21
237.419874
0
LINE
8
Layer 1
10
255.305781
20
237.419874
11
255.786441
21
237.653589
0
LINE
8
Layer 1
10
255.786441
20
237.653589
11
256.505231
21
237.278763
0
LINE
8
Layer 1
10
256.505231
20
237.278763
11
257.228977
21
236.916202
0
LINE
8
Layer 1
10
257.228977
20
236.916202
11
258.048635
21
236.746290
0
LINE
8
Layer 1
10
258.048635
20
236.746290
11
258.921209
21
236.756626
0
LINE
8
Layer 1
10
258.921209
20
236.756626
11
259.803706
21
236.934806
0
LINE
8
Layer 1
10
259.803706
20
236.934806
11
260.653129
21
237.268429
0
LINE
8
Layer 1
10
260.653129
20
237.268429
11
261.426484
21
237.745093
0
LINE
8
Layer 1
10
261.426484
20
237.745093
11
262.080776
21
238.352395
0
LINE
8
Layer 1
10
262.080776
20
238.352395
11
262.573011
21
239.077933
0
LINE
8
Layer 1
10
262.573011
20
239.077933
11
264.707324
21
244.993581
0
LINE
8
Layer 1
10
264.707324
20
244.993581
11
268.508519
21
256.399337
0
LINE
8
Layer 1
10
268.508519
20
256.399337
11
272.137736
21
267.672791
0
LINE
8
Layer 1
10
272.137736
20
267.672791
11
273.756111
21
273.191533
0
LINE
8
Layer 1
10
273.756111
20
273.191533
11
273.656961
21
274.025659
0
LINE
8
Layer 1
10
273.656961
20
274.025659
11
273.379631
21
274.863920
0
LINE
8
Layer 1
10
273.379631
20
274.863920
11
272.411146
21
276.410631
0
LINE
8
Layer 1
10
272.411146
20
276.410631
11
271.092088
21
277.547238
0
LINE
8
Layer 1
10
271.092088
20
277.547238
11
270.376543
21
277.872869
0
LINE
8
Layer 1
10
270.376543
20
277.872869
11
269.663891
21
277.989313
0
LINE
8
Layer 1
10
269.663891
20
277.989313
11
268.984794
21
278.200980
0
LINE
8
Layer 1
10
268.984794
20
278.200980
11
268.252781
21
278.730147
0
LINE
8
Layer 1
10
268.252781
20
278.730147
11
267.309101
21
279.294592
0
LINE
8
Layer 1
10
267.309101
20
279.294592
11
266.100831
21
279.647370
0
LINE
8
Layer 1
10
266.100831
20
279.647370
11
265.350076
21
279.680443
0
LINE
8
Layer 1
10
265.350076
20
279.680443
11
264.645623
21
279.541537
0
LINE
8
Layer 1
10
264.645623
20
279.541537
11
262.819991
21
278.589040
0
LINE
8
Layer 1
10
262.819991
20
278.589040
11
262.820000
21
278.589000
0
LINE
8
Layer 1
10
259.503890
20
257.387000
11
254.776660
21
243.311200
0
LINE
8
Layer 1
10
254.776660
20
243.311200
11
252.730550
21
245.216200
0
LINE
8
Layer 1
10
252.730550
20
245.216200
11
250.543330
21
247.156480
0
LINE
8
Layer 1
10
250.543330
20
247.156480
11
251.531110
21
249.065892
0
LINE
8
Layer 1
10
251.531110
20
249.065892
11
254.106390
21
253.541760
0
LINE
8
Layer 1
10
254.106390
20
253.541760
11
259.697920
21
263.296075
0
LINE
8
Layer 1
10
259.697920
20
263.296075
11
262.855280
21
269.240360
0
LINE
8
Layer 1
10
262.855280
20
269.240360
11
264.090000
21
271.533420
0
LINE
8
Layer 1
10
264.090000
20
271.533420
11
259.503890
21
257.387020
0
LINE
8
Layer 1
10
259.503890
20
257.387020
11
259.503890
21
257.387000
0
LINE
8
Layer 1
10
210.185490
20
260.068110
11
215.194940
21
256.222830
0
LINE
8
Layer 1
10
215.194940
20
256.222830
11
212.796050
21
253.153660
0
LINE
8
Layer 1
10
212.796050
20
253.153660
11
207.539660
21
246.733100
0
LINE
8
Layer 1
10
207.539660
20
246.733100
11
204.752710
21
243.134760
0
LINE
8
Layer 1
10
204.752710
20
243.134760
11
203.588540
21
247.967820
0
LINE
8
Layer 1
10
203.588540
20
247.967820
11
200.519370
21
260.456120
0
LINE
8
Layer 1
10
200.519370
20
260.456120
11
198.614370
21
268.287790
0
LINE
8
Layer 1
10
198.614370
20
268.287790
11
199.311106
21
267.911310
0
LINE
8
Layer 1
10
199.311106
20
267.911310
11
201.436591
21
266.440115
0
LINE
8
Layer 1
10
201.436591
20
266.440115
11
210.185470
21
260.068060
0
LINE
8
Layer 1
10
210.185470
20
260.068060
11
210.185490
21
260.068110
0
LINE
8
Layer 1
10
259.221590
20
267.688110
11
252.307140
21
255.870010
0
LINE
8
Layer 1
10
252.307140
20
255.870010
11
248.461860
21
249.096670
0
LINE
8
Layer 1
10
248.461860
20
249.096670
11
245.674910
21
251.425000
0
LINE
8
Layer 1
10
245.674910
20
251.425000
11
241.759070
21
254.811670
0
LINE
8
Layer 1
10
241.759070
20
254.811670
11
240.594900
21
255.905280
0
LINE
8
Layer 1
10
240.594900
20
255.905280
11
249.308520
21
261.655560
0
LINE
8
Layer 1
10
249.308520
20
261.655560
11
258.551300
21
267.935010
0
LINE
8
Layer 1
10
258.551300
20
267.935010
11
259.077710
21
268.362753
0
LINE
8
Layer 1
10
259.077710
20
268.362753
11
259.402376
21
268.446538
0
LINE
8
Layer 1
10
259.402376
20
268.446538
11
259.469073
21
268.212822
0
LINE
8
Layer 1
10
259.469073
20
268.212822
11
259.221578
21
267.688065
0
LINE
8
Layer 1
10
259.221578
20
267.688065
11
259.221590
21
267.688110
0
LINE
8
Layer 1
10
199.672690
20
251.566110
11
202.389080
21
240.488910
0
LINE
8
Layer 1
10
202.389080
20
240.488910
11
199.707970
21
236.996410
0
LINE
8
Layer 1
10
199.707970
20
236.996410
11
197.026860
21
233.503910
0
LINE
8
Layer 1
10
197.026860
20
233.503910
11
196.815193
21
236.784750
0
LINE
8
Layer 1
10
196.815193
20
236.784750
11
196.391859
21
252.941950
0
LINE
8
Layer 1
10
196.391859
20
252.941950
11
196.325713
21
262.700656
0
LINE
8
Layer 1
10
196.325713
20
262.700656
11
196.416664
21
264.347137
0
LINE
8
Layer 1
10
196.416664
20
264.347137
11
196.497486
21
264.490942
0
LINE
8
Layer 1
10
196.497486
20
264.490942
11
196.603526
21
264.230850
0
LINE
8
Layer 1
10
196.603526
20
264.230850
11
199.672696
21
251.566150
0
LINE
8
Layer 1
10
199.672696
20
251.566150
11
199.672690
21
251.566110
0
LINE
8
Layer 1
10
233.433590
20
253.153610
11
234.183243
21
252.093072
0
LINE
8
Layer 1
10
234.183243
20
252.093072
11
235.726646
21
250.543054
0
LINE
8
Layer 1
10
235.726646
20
250.543054
11
242.676370
21
244.651660
0
LINE
8
Layer 1
10
242.676370
20
244.651660
11
251.178320
21
237.560820
0
LINE
8
Layer 1
10
251.178320
20
237.560820
11
250.926966
21
237.516723
0
LINE
8
Layer 1
10
250.926966
20
237.516723
11
250.331653
21
237.631376
0
LINE
8
Layer 1
10
250.331653
20
237.631376
11
249.460251
21
237.698830
0
LINE
8
Layer 1
10
249.460251
20
237.698830
11
248.513194
21
237.522785
0
LINE
8
Layer 1
10
248.513194
20
237.522785
11
247.530584
21
237.130939
0
LINE
8
Layer 1
10
247.530584
20
237.130939
11
246.552520
21
236.550991
0
LINE
8
Layer 1
10
246.552520
20
236.550991
11
245.619106
21
235.810638
0
LINE
8
Layer 1
10
245.619106
20
235.810638
11
244.770441
21
234.937581
0
LINE
8
Layer 1
10
244.770441
20
234.937581
11
244.046626
21
233.959517
0
LINE
8
Layer 1
10
244.046626
20
233.959517
11
243.487763
21
232.904146
0
LINE
8
Layer 1
10
243.487763
20
232.904146
11
242.735351
21
230.839292
0
LINE
8
Layer 1
10
242.735351
20
230.839292
11
242.283906
21
228.953032
0
LINE
8
Layer 1
10
242.283906
20
228.953032
11
242.143346
21
227.278438
0
LINE
8
Layer 1
10
242.143346
20
227.278438
11
242.323593
21
225.848586
0
LINE
8
Layer 1
10
242.323593
20
225.848586
11
242.929379
21
224.453458
0
LINE
8
Layer 1
10
242.929379
20
224.453458
11
243.915503
21
223.074868
0
LINE
8
Layer 1
10
243.915503
20
223.074868
11
245.146367
21
221.874872
0
LINE
8
Layer 1
10
245.146367
20
221.874872
11
246.486373
21
221.015526
0
LINE
8
Layer 1
10
246.486373
20
221.015526
11
247.689401
21
220.615481
0
LINE
8
Layer 1
10
247.689401
20
220.615481
11
248.986686
21
220.487461
0
LINE
8
Layer 1
10
248.986686
20
220.487461
11
250.323660
21
220.612449
0
LINE
8
Layer 1
10
250.323660
20
220.612449
11
251.645750
21
220.971428
0
LINE
8
Layer 1
10
251.645750
20
220.971428
11
252.898388
21
221.545381
0
LINE
8
Layer 1
10
252.898388
20
221.545381
11
254.027003
21
222.315292
0
LINE
8
Layer 1
10
254.027003
20
222.315292
11
254.977025
21
223.262142
0
LINE
8
Layer 1
10
254.977025
20
223.262142
11
255.693883
21
224.366916
0
LINE
8
Layer 1
10
255.693883
20
224.366916
11
256.399439
21
225.813306
0
LINE
8
Layer 1
10
256.399439
20
225.813306
11
256.611106
21
224.119976
0
LINE
8
Layer 1
10
256.611106
20
224.119976
11
258.763056
21
197.379376
0
LINE
8
Layer 1
10
258.763056
20
197.379376
11
259.151112
21
192.264096
0
LINE
8
Layer 1
10
259.151112
20
192.264096
11
259.221667
21
191.002914
0
LINE
8
Layer 1
10
259.221667
20
191.002914
11
259.071737
21
191.023861
0
LINE
8
Layer 1
10
259.071737
20
191.023861
11
258.763056
21
191.382151
0
LINE
8
Layer 1
10
258.763056
20
191.382151
11
256.293608
21
195.977084
0
LINE
8
Layer 1
10
256.293608
20
195.977084
11
251.178326
21
206.022451
0
LINE
8
Layer 1
10
251.178326
20
206.022451
11
238.240196
21
231.351901
0
LINE
8
Layer 1
10
238.240196
20
231.351901
11
228.741626
21
249.484651
0
LINE
8
Layer 1
10
228.741626
20
249.484651
11
226.131066
21
254.494101
0
LINE
8
Layer 1
10
226.131066
20
254.494101
11
227.096797
21
254.639621
0
LINE
8
Layer 1
10
227.096797
20
254.639621
11
229.411906
21
254.705768
0
LINE
8
Layer 1
10
229.411906
20
254.705768
11
232.692746
21
254.705768
0
LINE
8
Layer 1
10
232.692746
20
254.705768
11
233.433580
21
253.153548
0
LINE
8
Layer 1
10
233.433580
20
253.153548
11
233.433590
21
253.153610
0
LINE
8
Layer 1
10
229.306090
20
242.711410
11
237.067210
21
228.247510
0
LINE
8
Layer 1
10
237.067210
20
228.247510
11
241.666552
21
219.463326
0
LINE
8
Layer 1
10
241.666552
20
219.463326
11
244.651940
21
213.430810
0
LINE
8
Layer 1
10
244.651940
20
213.430810
11
240.383330
21
219.674980
0
LINE
8
Layer 1
10
240.383330
20
219.674980
11
237.116276
21
224.389525
0
LINE
8
Layer 1
10
237.116276
20
224.389525
11
234.857945
21
227.202378
0
LINE
8
Layer 1
10
234.857945
20
227.202378
11
233.946855
21
228.066201
0
LINE
8
Layer 1
10
233.946855
20
228.066201
11
233.095709
21
228.659241
0
LINE
8
Layer 1
10
233.095709
20
228.659241
11
232.240431
21
229.049710
0
LINE
8
Layer 1
10
232.240431
20
229.049710
11
231.316940
21
229.305820
0
LINE
8
Layer 1
10
231.316940
20
229.305820
11
228.721819
21
229.608988
0
LINE
8
Layer 1
10
228.721819
20
229.608988
11
225.610756
21
229.588042
0
LINE
8
Layer 1
10
225.610756
20
229.588042
11
222.645211
21
229.276054
0
LINE
8
Layer 1
10
222.645211
20
229.276054
11
220.486640
21
228.706097
0
LINE
8
Layer 1
10
220.486640
20
228.706097
11
219.430744
21
228.158636
0
LINE
8
Layer 1
10
219.430744
20
228.158636
11
218.487037
21
227.504721
0
LINE
8
Layer 1
10
218.487037
20
227.504721
11
216.945080
21
225.934579
0
LINE
8
Layer 1
10
216.945080
20
225.934579
11
215.878548
21
224.109776
0
LINE
8
Layer 1
10
215.878548
20
224.109776
11
215.305215
21
222.144412
0
LINE
8
Layer 1
10
215.305215
20
222.144412
11
215.242859
21
220.152590
0
LINE
8
Layer 1
10
215.242859
20
220.152590
11
215.709257
21
218.248412
0
LINE
8
Layer 1
10
215.709257
20
218.248412
11
216.146294
21
217.364846
0
LINE
8
Layer 1
10
216.146294
20
217.364846
11
216.722185
21
216.545980
0
LINE
8
Layer 1
10
216.722185
20
216.545980
11
217.439153
21
215.806076
0
LINE
8
Layer 1
10
217.439153
20
215.806076
11
218.299420
21
215.159397
0
LINE
8
Layer 1
10
218.299420
20
215.159397
11
220.316319
21
214.161696
0
LINE
8
Layer 1
10
220.316319
20
214.161696
11
221.284047
21
213.907999
0
LINE
8
Layer 1
10
221.284047
20
213.907999
11
222.237305
21
213.818840
0
LINE
8
Layer 1
10
222.237305
20
213.818840
11
223.185602
21
213.895045
0
LINE
8
Layer 1
10
223.185602
20
213.895045
11
224.138446
21
214.137442
0
LINE
8
Layer 1
10
224.138446
20
214.137442
11
226.095810
21
215.124119
0
LINE
8
Layer 1
10
226.095810
20
215.124119
11
227.353684
21
216.260725
0
LINE
8
Layer 1
10
227.353684
20
216.260725
11
228.406506
21
217.761133
0
LINE
8
Layer 1
10
228.406506
20
217.761133
11
229.062453
21
219.301229
0
LINE
8
Layer 1
10
229.062453
20
219.301229
11
229.181653
21
219.984874
0
LINE
8
Layer 1
10
229.181653
20
219.984874
11
229.129700
21
220.556899
0
LINE
8
Layer 1
10
229.129700
20
220.556899
11
228.918033
21
221.368288
0
LINE
8
Layer 1
10
228.918033
20
221.368288
11
229.623589
21
220.556899
0
LINE
8
Layer 1
10
229.623589
20
220.556899
11
233.715809
21
214.383279
0
LINE
8
Layer 1
10
233.715809
20
214.383279
11
245.428009
21
195.968279
0
LINE
8
Layer 1
10
245.428009
20
195.968279
11
251.354679
21
186.575570
0
LINE
8
Layer 1
10
251.354679
20
186.575570
11
253.894679
21
182.315779
0
LINE
8
Layer 1
10
253.894679
20
182.315779
11
253.854991
21
181.813071
0
LINE
8
Layer 1
10
253.854991
20
181.813071
11
253.259679
21
181.680779
0
LINE
8
Layer 1
10
253.259679
20
181.680779
11
252.483567
21
181.473522
0
LINE
8
Layer 1
10
252.483567
20
181.473522
11
251.707459
21
180.975223
0
LINE
8
Layer 1
10
251.707459
20
180.975223
11
250.966625
21
180.304945
0
LINE
8
Layer 1
10
250.966625
20
180.304945
11
246.239395
21
183.550505
0
LINE
8
Layer 1
10
246.239395
20
183.550505
11
232.833795
21
192.405235
0
LINE
8
Layer 1
10
232.833795
20
192.405235
11
217.064595
21
202.741635
0
LINE
8
Layer 1
10
217.064595
20
202.741635
11
209.127085
21
207.821635
0
LINE
8
Layer 1
10
209.127085
20
207.821635
11
208.511929
21
208.263710
0
LINE
8
Layer 1
10
208.511929
20
208.263710
11
207.618960
21
209.241565
0
LINE
8
Layer 1
10
207.618960
20
209.241565
11
204.364585
21
213.571915
0
LINE
8
Layer 1
10
204.364585
20
213.571915
11
203.588473
21
214.665525
0
LINE
8
Layer 1
10
203.588473
20
214.665525
11
204.435140
21
221.262475
0
LINE
8
Layer 1
10
204.435140
20
221.262475
11
205.630176
21
229.834973
0
LINE
8
Layer 1
10
205.630176
20
229.834973
11
205.987917
21
231.749902
0
LINE
8
Layer 1
10
205.987917
20
231.749902
11
206.269590
21
232.586675
0
LINE
8
Layer 1
10
206.269590
20
232.586675
11
213.254590
21
241.476685
0
LINE
8
Layer 1
10
213.254590
20
241.476685
11
221.509600
21
251.989485
0
LINE
8
Layer 1
10
221.509600
20
251.989485
11
222.691405
21
253.347680
0
LINE
8
Layer 1
10
222.691405
20
253.347680
11
223.344050
21
253.753375
0
LINE
8
Layer 1
10
223.344050
20
253.753375
11
229.306000
21
242.711375
0
LINE
8
Layer 1
10
229.306000
20
242.711375
11
229.306090
21
242.711410
0
LINE
8
Layer 1
10
254.353290
20
234.209460
11
256.081904
21
233.137898
0
LINE
8
Layer 1
10
256.081904
20
233.137898
11
257.387180
21
232.092790
0
LINE
8
Layer 1
10
257.387180
20
232.092790
11
258.374958
21
231.069730
0
LINE
8
Layer 1
10
258.374958
20
231.069730
11
257.598846
21
230.258341
0
LINE
8
Layer 1
10
257.598846
20
230.258341
11
257.047630
21
229.521918
0
LINE
8
Layer 1
10
257.047630
20
229.521918
11
256.787457
21
228.917781
0
LINE
8
Layer 1
10
256.787457
20
228.917781
11
256.731784
21
228.844470
0
LINE
8
Layer 1
10
256.731784
20
228.844470
11
256.580200
21
229.019205
0
LINE
8
Layer 1
10
256.580200
20
229.019205
11
256.081901
21
229.940841
0
LINE
8
Layer 1
10
256.081901
20
229.940841
11
254.973958
21
232.004041
0
LINE
8
Layer 1
10
254.973958
20
232.004041
11
253.674190
21
233.455392
0
LINE
8
Layer 1
10
253.674190
20
233.455392
11
252.043692
21
234.410650
0
LINE
8
Layer 1
10
252.043692
20
234.410650
11
249.943561
21
234.985571
0
LINE
8
Layer 1
10
249.943561
20
234.985571
11
248.973425
21
235.192828
0
LINE
8
Layer 1
10
248.973425
20
235.192828
11
250.437450
21
235.267793
0
LINE
8
Layer 1
10
250.437450
20
235.267793
11
251.446176
21
235.236374
0
LINE
8
Layer 1
10
251.446176
20
235.236374
11
252.342454
21
235.069356
0
LINE
8
Layer 1
10
252.342454
20
235.069356
11
254.353290
21
234.209463
0
LINE
8
Layer 1
10
254.353290
20
234.209463
11
254.353290
21
234.209460
0
LINE
8
Layer 1
10
199.813790
20
224.119960
11
199.249345
21
221.368290
0
LINE
8
Layer 1
10
199.249345
20
221.368290
11
199.122566
21
221.137331
0
LINE
8
Layer 1
10
199.122566
20
221.137331
11
198.870109
21
221.266866
0
LINE
8
Layer 1
10
198.870109
20
221.266866
11
197.802955
21
222.779400
0
LINE
8
Layer 1
10
197.802955
20
222.779400
11
196.497675
21
225.107730
0
LINE
8
Layer 1
10
196.497675
20
225.107730
11
196.987154
21
225.350265
0
LINE
8
Layer 1
10
196.987154
20
225.350265
11
198.191005
21
225.672175
0
LINE
8
Layer 1
10
198.191005
20
225.672175
11
200.060725
21
226.095509
0
LINE
8
Layer 1
10
200.060725
20
226.095509
11
200.096003
21
225.517835
0
LINE
8
Layer 1
10
200.096003
20
225.517835
11
199.813780
21
224.119949
0
LINE
8
Layer 1
10
199.813780
20
224.119949
11
199.813790
21
224.119960
0
LINE
8
Layer 1
10
196.497680
20
220.168850
11
197.445772
21
218.532843
0
LINE
8
Layer 1
10
197.445772
20
218.532843
11
197.732400
21
217.664130
0
LINE
8
Layer 1
10
197.732400
20
217.664130
11
196.303647
21
209.929463
0
LINE
8
Layer 1
10
196.303647
20
209.929463
11
195.086560
21
201.612730
0
LINE
8
Layer 1
10
195.086560
20
201.612730
11
195.288856
21
200.443604
0
LINE
8
Layer 1
10
195.288856
20
200.443604
11
195.778887
21
199.138876
0
LINE
8
Layer 1
10
195.778887
20
199.138876
11
196.460742
21
197.906908
0
LINE
8
Layer 1
10
196.460742
20
197.906908
11
197.238510
21
196.956060
0
LINE
8
Layer 1
10
197.238510
20
196.956060
11
218.722710
21
181.680760
0
LINE
8
Layer 1
10
218.722710
20
181.680760
11
239.889410
21
166.652460
0
LINE
8
Layer 1
10
239.889410
20
166.652460
11
240.233368
21
166.092425
0
LINE
8
Layer 1
10
240.233368
20
166.092425
11
239.889410
21
165.347180
0
LINE
8
Layer 1
10
239.889410
20
165.347180
11
235.232740
21
157.515510
0
LINE
8
Layer 1
10
235.232740
20
157.515510
11
230.823020
21
150.001340
0
LINE
8
Layer 1
10
230.823020
20
150.001340
11
230.524468
21
149.983288
0
LINE
8
Layer 1
10
230.524468
20
149.983288
11
229.744291
21
150.240568
0
LINE
8
Layer 1
10
229.744291
20
150.240568
11
226.479442
21
151.703495
0
LINE
8
Layer 1
10
226.479442
20
151.703495
11
211.314420
21
159.279400
0
LINE
8
Layer 1
10
211.314420
20
159.279400
11
180.869720
21
174.554700
0
LINE
8
Layer 1
10
180.869720
20
174.554700
11
172.998355
21
178.576368
0
LINE
8
Layer 1
10
172.998355
20
178.576368
11
170.615452
21
179.892670
0
LINE
8
Layer 1
10
170.615452
20
179.892670
11
169.757220
21
180.481370
0
LINE
8
Layer 1
10
169.757220
20
180.481370
11
182.382262
21
201.696553
0
LINE
8
Layer 1
10
182.382262
20
201.696553
11
194.980820
21
222.461970
0
LINE
8
Layer 1
10
194.980820
20
222.461970
11
196.497770
21
220.168910
0
LINE
8
Layer 1
10
196.497770
20
220.168910
11
196.497680
21
220.168850
0
LINE
8
Layer 1
10
206.587180
20
206.339950
11
213.713300
21
197.414670
0
LINE
8
Layer 1
10
213.713300
20
197.414670
11
217.346910
21
192.934390
0
LINE
8
Layer 1
10
217.346910
20
192.934390
11
213.572190
21
195.686060
0
LINE
8
Layer 1
10
213.572190
20
195.686060
11
206.058020
21
201.118840
0
LINE
8
Layer 1
10
206.058020
20
201.118840
11
202.318570
21
203.764680
0
LINE
8
Layer 1
10
202.318570
20
203.764680
11
202.389126
21
205.881350
0
LINE
8
Layer 1
10
202.389126
20
205.881350
11
202.680167
21
209.338571
0
LINE
8
Layer 1
10
202.680167
20
209.338571
11
202.865376
21
210.524789
0
LINE
8
Layer 1
10
202.865376
20
210.524789
11
203.024126
21
210.890800
0
LINE
8
Layer 1
10
203.024126
20
210.890800
11
206.587186
21
206.339960
0
LINE
8
Layer 1
10
206.587186
20
206.339960
11
206.587180
21
206.339950
0
LINE
8
Layer 1
10
224.719980
20
194.733550
11
242.358880
21
183.091850
0
LINE
8
Layer 1
10
242.358880
20
183.091850
11
249.590830
21
178.258790
0
LINE
8
Layer 1
10
249.590830
20
178.258790
11
249.484997
21
175.436570
0
LINE
8
Layer 1
10
249.484997
20
175.436570
11
249.511456
21
172.883336
0
LINE
8
Layer 1
10
249.511456
20
172.883336
11
249.908331
21
170.779900
0
LINE
8
Layer 1
10
249.908331
20
170.779900
11
250.437498
21
168.945450
0
LINE
8
Layer 1
10
250.437498
20
168.945450
11
249.132218
21
170.003780
0
LINE
8
Layer 1
10
249.132218
20
170.003780
11
237.309764
21
178.801199
0
LINE
8
Layer 1
10
237.309764
20
178.801199
11
225.355018
21
187.466280
0
LINE
8
Layer 1
10
225.355018
20
187.466280
11
224.336370
21
188.357046
0
LINE
8
Layer 1
10
224.336370
20
188.357046
11
223.238348
21
189.618230
0
LINE
8
Layer 1
10
223.238348
20
189.618230
11
219.251958
21
194.451290
0
LINE
8
Layer 1
10
219.251958
20
194.451290
11
213.616331
21
201.431884
0
LINE
8
Layer 1
10
213.616331
20
201.431884
11
212.802738
21
202.721175
0
LINE
8
Layer 1
10
212.802738
20
202.721175
11
212.966450
21
202.718625
0
LINE
8
Layer 1
10
212.966450
20
202.718625
11
213.536958
21
202.247680
0
LINE
8
Layer 1
10
213.536958
20
202.247680
11
224.720058
21
194.733510
0
LINE
8
Layer 1
10
224.720058
20
194.733510
11
224.719980
21
194.733550
0
LINE
8
Layer 1
10
257.528380
20
180.234350
11
258.092825
21
179.683134
0
LINE
8
Layer 1
10
258.092825
20
179.683134
11
257.704769
21
179.740461
0
LINE
8
Layer 1
10
257.704769
20
179.740461
11
255.588099
21
180.199072
0
LINE
8
Layer 1
10
255.588099
20
180.199072
11
254.542993
21
180.401919
0
LINE
8
Layer 1
10
254.542993
20
180.401919
11
255.058932
21
180.657683
0
LINE
8
Layer 1
10
255.058932
20
180.657683
11
255.876387
21
180.864389
0
LINE
8
Layer 1
10
255.876387
20
180.864389
11
256.439179
21
180.882579
0
LINE
8
Layer 1
10
256.439179
20
180.882579
11
256.929211
21
180.682488
0
LINE
8
Layer 1
10
256.929211
20
180.682488
11
257.528382
21
180.234349
0
LINE
8
Layer 1
10
257.528382
20
180.234349
11
257.528380
21
180.234350
0
LINE
8
Layer 1
10
170.956680
20
175.436570
11
173.814180
21
174.096010
0
LINE
8
Layer 1
10
173.814180
20
174.096010
11
179.599740
21
165.523500
0
LINE
8
Layer 1
10
179.599740
20
165.523500
11
188.313360
21
152.752900
0
LINE
8
Layer 1
10
188.313360
20
152.752900
11
191.206140
21
148.343170
0
LINE
8
Layer 1
10
191.206140
20
148.343170
11
191.047390
21
148.215288
0
LINE
8
Layer 1
10
191.047390
20
148.215288
11
190.676973
21
148.166781
0
LINE
8
Layer 1
10
190.676973
20
148.166781
11
189.884877
21
147.967241
0
LINE
8
Layer 1
10
189.884877
20
147.967241
11
189.049786
21
147.417127
0
LINE
8
Layer 1
10
189.049786
20
147.417127
11
188.260996
21
146.589201
0
LINE
8
Layer 1
10
188.260996
20
146.589201
11
187.607803
21
145.556221
0
LINE
8
Layer 1
10
187.607803
20
145.556221
11
187.115016
21
144.225033
0
LINE
8
Layer 1
10
187.115016
20
144.225033
11
186.602385
21
140.806940
0
LINE
8
Layer 1
10
186.602385
20
140.806940
11
184.326963
21
117.827821
0
LINE
8
Layer 1
10
184.326963
20
117.827821
11
182.739463
21
101.600021
0
LINE
8
Layer 1
10
182.739463
20
101.600021
11
181.504743
21
88.758921
0
LINE
8
Layer 1
10
181.504743
20
88.758921
11
180.763909
21
82.514751
0
LINE
8
Layer 1
10
180.763909
20
82.514751
11
180.481686
21
82.382459
0
LINE
8
Layer 1
10
180.481686
20
82.382459
11
179.987797
21
82.408918
0
LINE
8
Layer 1
10
179.987797
20
82.408918
11
156.563297
21
87.277258
0
LINE
8
Layer 1
10
156.563297
20
87.277258
11
109.396897
21
97.190318
0
LINE
8
Layer 1
10
109.396897
20
97.190318
11
103.434947
21
98.601428
0
LINE
8
Layer 1
10
103.434947
20
98.601428
11
103.580468
21
99.324622
0
LINE
8
Layer 1
10
103.580468
20
99.324622
11
104.175781
21
100.788648
0
LINE
8
Layer 1
10
104.175781
20
100.788648
11
105.062136
21
103.065166
0
LINE
8
Layer 1
10
105.062136
20
103.065166
11
105.948491
21
105.851007
0
LINE
8
Layer 1
10
105.948491
20
105.851007
11
106.715783
21
108.716218
0
LINE
8
Layer 1
10
106.715783
20
108.716218
11
107.244951
21
111.230848
0
LINE
8
Layer 1
10
107.244951
20
111.230848
11
107.524417
21
114.314352
0
LINE
8
Layer 1
10
107.524417
20
114.314352
11
107.575680
21
118.065932
0
LINE
8
Layer 1
10
107.575680
20
118.065932
11
107.408662
21
121.777820
0
LINE
8
Layer 1
10
107.408662
20
121.777820
11
107.033284
21
124.742248
0
LINE
8
Layer 1
10
107.033284
20
124.742248
11
105.918725
21
128.810776
0
LINE
8
Layer 1
10
105.918725
20
128.810776
11
104.334533
21
132.472509
0
LINE
8
Layer 1
10
104.334533
20
132.472509
11
103.372524
21
134.139457
0
LINE
8
Layer 1
10
103.372524
20
134.139457
11
102.300548
21
135.691062
0
LINE
8
Layer 1
10
102.300548
20
135.691062
11
101.121085
21
137.122775
0
LINE
8
Layer 1
10
101.121085
20
137.122775
11
99.836614
21
138.430048
0
LINE
8
Layer 1
10
99.836614
20
138.430048
11
98.561584
21
139.499613
0
LINE
8
Layer 1
10
98.561584
20
139.499613
11
97.210073
21
140.438126
0
LINE
8
Layer 1
10
97.210073
20
140.438126
11
95.761824
21
141.253442
0
LINE
8
Layer 1
10
95.761824
20
141.253442
11
94.196579
21
141.953417
0
LINE
8
Layer 1
10
94.196579
20
141.953417
11
90.634077
21
143.038761
0
LINE
8
Layer 1
10
90.634077
20
143.038761
11
86.360514
21
143.756998
0
LINE
8
Layer 1
10
86.360514
20
143.756998
11
84.314404
21
143.968665
0
LINE
8
Layer 1
10
84.314404
20
143.968665
11
84.314404
21
145.838385
0
LINE
8
Layer 1
10
84.314404
20
145.838385
11
84.173224
21
148.206477
0
LINE
8
Layer 1
10
84.173224
20
148.206477
11
83.760432
21
150.475765
0
LINE
8
Layer 1
10
83.760432
20
150.475765
11
83.092152
21
152.616897
0
LINE
8
Layer 1
10
83.092152
20
152.616897
11
82.184506
21
154.600520
0
LINE
8
Layer 1
10
82.184506
20
154.600520
11
81.053619
21
156.397283
0
LINE
8
Layer 1
10
81.053619
20
156.397283
11
79.715612
21
157.977833
0
LINE
8
Layer 1
10
79.715612
20
157.977833
11
78.186609
21
159.312817
0
LINE
8
Layer 1
10
78.186609
20
159.312817
11
76.482734
21
160.372885
0
LINE
8
Layer 1
10
76.482734
20
160.372885
11
74.428906
21
161.137420
0
LINE
8
Layer 1
10
74.428906
20
161.137420
11
72.143565
21
161.515002
0
LINE
8
Layer 1
10
72.143565
20
161.515002
11
69.805306
21
161.489095
0
LINE
8
Layer 1
10
69.805306
20
161.489095
11
67.592724
21
161.043163
0
LINE
8
Layer 1
10
67.592724
20
161.043163
11
65.789149
21
160.593371
0
LINE
8
Layer 1
10
65.789149
20
160.593371
11
65.345421
21
160.705819
0
LINE
8
Layer 1
10
65.345421
20
160.705819
11
64.911614
21
161.043163
0
LINE
8
Layer 1
10
64.911614
20
161.043163
11
63.866509
21
161.554691
0
LINE
8
Layer 1
10
63.866509
20
161.554691
11
62.265774
21
161.854552
0
LINE
8
Layer 1
10
62.265774
20
161.854552
11
61.208542
21
161.894791
0
LINE
8
Layer 1
10
61.208542
20
161.894791
11
60.290216
21
161.779587
0
LINE
8
Layer 1
10
60.290216
20
161.779587
11
58.102994
21
160.937329
0
LINE
8
Layer 1
10
58.102994
20
160.937329
11
55.761984
21
159.709220
0
LINE
8
Layer 1
10
55.761984
20
159.709220
11
52.762823
21
157.938717
0
LINE
8
Layer 1
10
52.762823
20
157.938717
11
46.390794
21
153.775939
0
LINE
8
Layer 1
10
46.390794
20
153.775939
11
44.826445
21
152.772726
0
LINE
8
Layer 1
10
44.826445
20
152.772726
11
42.898296
21
151.835660
0
LINE
8
Layer 1
10
42.898296
20
151.835660
11
35.807494
21
149.260379
0
LINE
8
Layer 1
10
35.807494
20
149.260379
11
15.522794
21
142.098989
0
LINE
8
Layer 1
10
15.522794
20
142.098989
11
3.210794
21
137.795099
0
LINE
8
Layer 1
10
3.210794
20
137.795099
11
4.124709
21
139.240386
0
LINE
8
Layer 1
10
4.124709
20
139.240386
11
6.606281
21
142.372388
0
LINE
8
Layer 1
10
6.606281
20
142.372388
11
9.630249
21
145.940946
0
LINE
8
Layer 1
10
9.630249
20
145.940946
11
12.171354
21
148.695899
0
LINE
8
Layer 1
10
12.171354
20
148.695899
11
16.532358
21
152.724538
0
LINE
8
Layer 1
10
16.532358
20
152.724538
11
21.203009
21
156.437740
0
LINE
8
Layer 1
10
21.203009
20
156.437740
11
26.225060
21
159.857414
0
LINE
8
Layer 1
10
26.225060
20
159.857414
11
31.640266
21
163.005474
0
LINE
8
Layer 1
10
31.640266
20
163.005474
11
37.490384
21
165.903831
0
LINE
8
Layer 1
10
37.490384
20
165.903831
11
43.817168
21
168.574396
0
LINE
8
Layer 1
10
43.817168
20
168.574396
11
50.662373
21
171.039081
0
LINE
8
Layer 1
10
50.662373
20
171.039081
11
58.067754
21
173.319799
0
LINE
8
Layer 1
10
58.067754
20
173.319799
11
63.676924
21
174.942579
0
LINE
8
Layer 1
10
63.676924
20
174.942579
11
92.957524
21
175.542302
0
LINE
8
Layer 1
10
92.957524
20
175.542302
11
133.174224
21
176.353691
0
LINE
8
Layer 1
10
133.174224
20
176.353691
11
156.104824
21
176.706469
0
LINE
8
Layer 1
10
156.104824
20
176.706469
11
168.099324
21
176.741747
0
LINE
8
Layer 1
10
168.099324
20
176.741747
11
170.956824
21
175.436467
0
LINE
8
Layer 1
10
170.956824
20
175.436467
11
170.956680
21
175.436570
0
LINE
8
Layer 1
10
258.586780
20
171.626570
11
255.865977
21
170.061119
0
LINE
8
Layer 1
10
255.865977
20
170.061119
11
252.907050
21
168.627960
0
LINE
8
Layer 1
10
252.907050
20
168.627960
11
252.513483
21
169.324696
0
LINE
8
Layer 1
10
252.513483
20
169.324696
11
252.060385
21
171.000390
0
LINE
8
Layer 1
10
252.060385
20
171.000390
11
251.686662
21
173.033272
0
LINE
8
Layer 1
10
251.686662
20
173.033272
11
251.531220
21
174.801570
0
LINE
8
Layer 1
10
251.531220
20
174.801570
11
251.531220
21
176.741850
0
LINE
8
Layer 1
10
251.531220
20
176.741850
11
255.059000
21
174.237130
0
LINE
8
Layer 1
10
255.059000
20
174.237130
11
258.586780
21
171.626570
0
LINE
8
Layer 1
10
258.586780
20
171.626570
11
258.586780
21
171.626570
0
LINE
8
Layer 1
10
190.853380
20
165.488230
11
204.435380
21
158.573780
0
LINE
8
Layer 1
10
204.435380
20
158.573780
11
219.534280
21
150.847940
0
LINE
8
Layer 1
10
219.534280
20
150.847940
11
228.397809
21
146.173630
0
LINE
8
Layer 1
10
228.397809
20
146.173630
11
230.428472
21
144.954341
0
LINE
8
Layer 1
10
230.428472
20
144.954341
11
231.070080
21
144.356820
0
LINE
8
Layer 1
10
231.070080
20
144.356820
11
230.717302
21
142.345990
0
LINE
8
Layer 1
10
230.717302
20
142.345990
11
229.217994
21
131.462801
0
LINE
8
Layer 1
10
229.217994
20
131.462801
11
226.131192
21
106.715390
0
LINE
8
Layer 1
10
226.131192
20
106.715390
11
224.085082
21
90.311190
0
LINE
8
Layer 1
10
224.085082
20
90.311190
11
223.485359
21
85.901470
0
LINE
8
Layer 1
10
223.485359
20
85.901470
11
218.722859
21
84.948969
0
LINE
8
Layer 1
10
218.722859
20
84.948969
11
202.565659
21
81.632859
0
LINE
8
Layer 1
10
202.565659
20
81.632859
11
191.065059
21
79.410359
0
LINE
8
Layer 1
10
191.065059
20
79.410359
11
191.241448
21
82.726469
0
LINE
8
Layer 1
10
191.241448
20
82.726469
11
192.440898
21
96.132069
0
LINE
8
Layer 1
10
192.440898
20
96.132069
11
194.381178
21
117.475169
0
LINE
8
Layer 1
10
194.381178
20
117.475169
11
196.140658
21
136.648669
0
LINE
8
Layer 1
10
196.140658
20
136.648669
11
196.497848
21
142.381269
0
LINE
8
Layer 1
10
196.497848
20
142.381269
11
196.320908
21
144.090587
0
LINE
8
Layer 1
10
196.320908
20
144.090587
11
195.823160
21
145.604777
0
LINE
8
Layer 1
10
195.823160
20
145.604777
11
195.054214
21
146.821309
0
LINE
8
Layer 1
10
195.054214
20
146.821309
11
194.063678
21
147.637659
0
LINE
8
Layer 1
10
194.063678
20
147.637659
11
193.492618
21
147.957364
0
LINE
8
Layer 1
10
193.492618
20
147.957364
11
193.225829
21
148.263840
0
LINE
8
Layer 1
10
193.225829
20
148.263840
11
193.210395
21
148.689378
0
LINE
8
Layer 1
10
193.210395
20
148.689378
11
193.393400
21
149.366269
0
LINE
8
Layer 1
10
193.393400
20
149.366269
11
193.538370
21
150.183172
0
LINE
8
Layer 1
10
193.538370
20
150.183172
11
193.177323
21
151.271270
0
LINE
8
Layer 1
10
193.177323
20
151.271270
11
191.989452
21
153.285410
0
LINE
8
Layer 1
10
191.989452
20
153.285410
11
189.653950
21
156.880439
0
LINE
8
Layer 1
10
189.653950
20
156.880439
11
182.880610
21
166.969939
0
LINE
8
Layer 1
10
182.880610
20
166.969939
11
181.103493
21
169.642232
0
LINE
8
Layer 1
10
181.103493
20
169.642232
11
180.517000
21
170.674109
0
LINE
8
Layer 1
10
180.517000
20
170.674109
11
190.853400
21
165.488269
0
LINE
8
Layer 1
10
190.853400
20
165.488269
11
190.853380
21
165.488230
0
LINE
8
Layer 1
10
256.293680
20
167.569620
11
255.103056
21
166.568612
0
LINE
8
Layer 1
10
255.103056
20
166.568612
11
254.805399
21
166.552626
0
LINE
8
Layer 1
10
254.805399
20
166.552626
11
254.706180
21
166.864064
0
LINE
8
Layer 1
10
254.706180
20
166.864064
11
255.026987
21
167.273617
0
LINE
8
Layer 1
10
255.026987
20
167.273617
11
255.764512
21
167.865072
0
LINE
8
Layer 1
10
255.764512
20
167.865072
11
256.581414
21
168.396995
0
LINE
8
Layer 1
10
256.581414
20
168.396995
11
257.140350
21
168.627954
0
LINE
8
Layer 1
10
257.140350
20
168.627954
11
256.968371
21
168.323684
0
LINE
8
Layer 1
10
256.968371
20
168.323684
11
256.293683
21
167.569624
0
LINE
8
Layer 1
10
256.293683
20
167.569624
11
256.293680
21
167.569620
0
LINE
8
Layer 1
10
72.566680
20
152.999920
11
73.393365
21
152.338392
0
LINE
8
Layer 1
10
73.393365
20
152.338392
11
74.100160
21
151.570617
0
LINE
8
Layer 1
10
74.100160
20
151.570617
11
74.686240
21
150.696182
0
LINE
8
Layer 1
10
74.686240
20
150.696182
11
75.150776
21
149.714674
0
LINE
8
Layer 1
10
75.150776
20
149.714674
11
75.711914
21
147.428784
0
LINE
8
Layer 1
10
75.711914
20
147.428784
11
75.776960
21
144.709640
0
LINE
8
Layer 1
10
75.776960
20
144.709640
11
75.671127
21
142.839920
0
LINE
8
Layer 1
10
75.671127
20
142.839920
11
72.813627
21
141.711030
0
LINE
8
Layer 1
10
72.813627
20
141.711030
11
69.995815
21
140.413466
0
LINE
8
Layer 1
10
69.995815
20
140.413466
11
67.230918
21
138.818247
0
LINE
8
Layer 1
10
67.230918
20
138.818247
11
64.558626
21
136.958448
0
LINE
8
Layer 1
10
64.558626
20
136.958448
11
62.018627
21
134.867140
0
LINE
8
Layer 1
10
62.018627
20
134.867140
11
58.667236
21
131.621584
0
LINE
8
Layer 1
10
58.667236
20
131.621584
11
54.045847
21
126.471020
0
LINE
8
Layer 1
10
54.045847
20
126.471020
11
52.528897
21
124.707130
0
LINE
8
Layer 1
10
52.528897
20
124.707130
11
53.728347
21
126.647410
0
LINE
8
Layer 1
10
53.728347
20
126.647410
11
59.003474
21
135.501607
0
LINE
8
Layer 1
10
59.003474
20
135.501607
11
63.729582
21
143.876235
0
LINE
8
Layer 1
10
63.729582
20
143.876235
11
67.132773
21
150.365701
0
LINE
8
Layer 1
10
67.132773
20
150.365701
11
68.096431
21
152.464249
0
LINE
8
Layer 1
10
68.096431
20
152.464249
11
68.439147
21
153.564410
0
LINE
8
Layer 1
10
68.439147
20
153.564410
11
68.487654
21
153.918842
0
LINE
8
Layer 1
10
68.487654
20
153.918842
11
68.694912
21
154.097987
0
LINE
8
Layer 1
10
68.694912
20
154.097987
11
69.956097
21
154.023021
0
LINE
8
Layer 1
10
69.956097
20
154.023021
11
71.327523
21
153.617326
0
LINE
8
Layer 1
10
71.327523
20
153.617326
11
72.566657
21
152.999961
0
LINE
8
Layer 1
10
72.566657
20
152.999961
11
72.566680
21
152.999920
0
LINE
8
Layer 1
10
86.571980
20
135.290420
11
88.724475
21
134.723219
0
LINE
8
Layer 1
10
88.724475
20
134.723219
11
90.562779
21
133.980731
0
LINE
8
Layer 1
10
90.562779
20
133.980731
11
92.222491
21
132.993502
0
LINE
8
Layer 1
10
92.222491
20
132.993502
11
93.839210
21
131.692080
0
LINE
8
Layer 1
10
93.839210
20
131.692080
11
94.936198
21
130.538386
0
LINE
8
Layer 1
10
94.936198
20
130.538386
11
95.940995
21
129.143259
0
LINE
8
Layer 1
10
95.940995
20
129.143259
11
96.837478
21
127.549693
0
LINE
8
Layer 1
10
96.837478
20
127.549693
11
97.609524
21
125.800683
0
LINE
8
Layer 1
10
97.609524
20
125.800683
11
98.241010
21
123.939222
0
LINE
8
Layer 1
10
98.241010
20
123.939222
11
98.715814
21
122.008305
0
LINE
8
Layer 1
10
98.715814
20
122.008305
11
99.017811
21
120.050926
0
LINE
8
Layer 1
10
99.017811
20
120.050926
11
99.130880
21
118.110080
0
LINE
8
Layer 1
10
99.130880
20
118.110080
11
99.130880
21
116.063970
0
LINE
8
Layer 1
10
99.130880
20
116.063970
11
97.931430
21
116.063970
0
LINE
8
Layer 1
10
97.931430
20
116.063970
11
97.339699
21
115.997480
0
LINE
8
Layer 1
10
97.339699
20
115.997480
11
96.736393
21
115.697412
0
LINE
8
Layer 1
10
96.736393
20
115.697412
11
96.014026
21
115.012872
0
LINE
8
Layer 1
10
96.014026
20
115.012872
11
95.065110
21
113.792966
0
LINE
8
Layer 1
10
95.065110
20
113.792966
11
92.057687
21
109.143471
0
LINE
8
Layer 1
10
92.057687
20
109.143471
11
86.854230
21
100.541770
0
LINE
8
Layer 1
10
86.854230
20
100.541770
11
75.525647
21
81.848958
0
LINE
8
Layer 1
10
75.525647
20
81.848958
11
69.038930
21
71.437570
0
LINE
8
Layer 1
10
69.038930
20
71.437570
11
68.809073
21
71.221493
0
LINE
8
Layer 1
10
68.809073
20
71.221493
11
69.105076
21
72.090206
0
LINE
8
Layer 1
10
69.105076
20
72.090206
11
73.378100
21
82.373670
0
LINE
8
Layer 1
10
73.378100
20
82.373670
11
80.664078
21
100.089743
0
LINE
8
Layer 1
10
80.664078
20
100.089743
11
85.205000
21
112.024658
0
LINE
8
Layer 1
10
85.205000
20
112.024658
11
86.613496
21
116.299607
0
LINE
8
Layer 1
10
86.613496
20
116.299607
11
87.536647
21
119.699778
0
LINE
8
Layer 1
10
87.536647
20
119.699778
11
88.041424
21
122.415342
0
LINE
8
Layer 1
10
88.041424
20
122.415342
11
88.194800
21
124.636470
0
LINE
8
Layer 1
10
88.194800
20
124.636470
11
88.081525
21
126.053440
0
LINE
8
Layer 1
10
88.081525
20
126.053440
11
87.758238
21
127.472476
0
LINE
8
Layer 1
10
87.758238
20
127.472476
11
87.249742
21
128.852652
0
LINE
8
Layer 1
10
87.249742
20
128.852652
11
86.580842
21
130.153039
0
LINE
8
Layer 1
10
86.580842
20
130.153039
11
85.776344
21
131.332709
0
LINE
8
Layer 1
10
85.776344
20
131.332709
11
84.861051
21
132.350734
0
LINE
8
Layer 1
10
84.861051
20
132.350734
11
83.859768
21
133.166187
0
LINE
8
Layer 1
10
83.859768
20
133.166187
11
82.797300
21
133.738140
0
LINE
8
Layer 1
10
82.797300
20
133.738140
11
81.593445
21
134.302585
0
LINE
8
Layer 1
10
81.593445
20
134.302585
11
81.591792
21
134.591423
0
LINE
8
Layer 1
10
81.591792
20
134.591423
11
81.844799
21
135.078700
0
LINE
8
Layer 1
10
81.844799
20
135.078700
11
82.305615
21
135.583062
0
LINE
8
Layer 1
10
82.305615
20
135.583062
11
83.123618
21
135.779846
0
LINE
8
Layer 1
10
83.123618
20
135.779846
11
84.484020
21
135.678974
0
LINE
8
Layer 1
10
84.484020
20
135.678974
11
86.572029
21
135.290367
0
LINE
8
Layer 1
10
86.572029
20
135.290367
11
86.571980
21
135.290420
0
LINE
8
Layer 1
10
67.874780
20
129.046250
11
61.470201
21
121.244894
0
LINE
8
Layer 1
10
61.470201
20
121.244894
11
48.070696
21
105.502725
0
LINE
8
Layer 1
10
48.070696
20
105.502725
11
33.857608
21
89.026344
0
LINE
8
Layer 1
10
33.857608
20
89.026344
11
25.012280
21
79.022350
0
LINE
8
Layer 1
10
25.012280
20
79.022350
11
23.570301
21
77.575959
0
LINE
8
Layer 1
10
23.570301
20
77.575959
11
23.481624
21
77.532689
0
LINE
8
Layer 1
10
23.481624
20
77.532689
11
23.499193
21
77.613443
0
LINE
8
Layer 1
10
23.499193
20
77.613443
11
23.848110
21
78.140405
0
LINE
8
Layer 1
10
23.848110
20
78.140405
11
26.172725
21
81.272756
0
LINE
8
Layer 1
10
26.172725
20
81.272756
11
29.533350
21
85.505194
0
LINE
8
Layer 1
10
29.533350
20
85.505194
11
38.797079
21
96.603915
0
LINE
8
Layer 1
10
38.797079
20
96.603915
11
50.508198
21
110.103731
0
LINE
8
Layer 1
10
50.508198
20
110.103731
11
63.535610
21
124.671805
0
LINE
8
Layer 1
10
63.535610
20
124.671805
11
67.477902
21
128.936013
0
LINE
8
Layer 1
10
67.477902
20
128.936013
11
68.030221
21
129.419429
0
LINE
8
Layer 1
10
68.030221
20
129.419429
11
67.874780
21
129.046255
0
LINE
8
Layer 1
10
67.874780
20
129.046255
11
67.874780
21
129.046250
0
LINE
8
Layer 1
10
79.516480
20
127.247080
11
79.979777
21
126.321246
0
LINE
8
Layer 1
10
79.979777
20
126.321246
11
80.259520
21
125.065921
0
LINE
8
Layer 1
10
80.259520
20
125.065921
11
80.357360
21
123.502190
0
LINE
8
Layer 1
10
80.357360
20
123.502190
11
80.274953
21
121.651136
0
LINE
8
Layer 1
10
80.274953
20
121.651136
11
79.576010
21
117.171399
0
LINE
8
Layer 1
10
79.576010
20
117.171399
11
78.175920
21
111.795380
0
LINE
8
Layer 1
10
78.175920
20
111.795380
11
76.019564
21
105.793744
0
LINE
8
Layer 1
10
76.019564
20
105.793744
11
72.566750
21
97.013980
0
LINE
8
Layer 1
10
72.566750
20
97.013980
11
59.002437
21
63.848455
0
LINE
8
Layer 1
10
59.002437
20
63.848455
11
54.116450
21
52.246480
0
LINE
8
Layer 1
10
54.116450
20
52.246480
11
52.846450
21
53.093147
0
LINE
8
Layer 1
10
52.846450
20
53.093147
11
51.717560
21
54.045648
0
LINE
8
Layer 1
10
51.717560
20
54.045648
11
41.698660
21
53.798703
0
LINE
8
Layer 1
10
41.698660
20
53.798703
11
22.366460
21
53.128425
0
LINE
8
Layer 1
10
22.366460
20
53.128425
11
15.791560
21
52.907939
0
LINE
8
Layer 1
10
15.791560
20
52.907939
11
13.053120
21
52.952036
0
LINE
8
Layer 1
10
13.053120
20
52.952036
11
14.323120
21
54.363146
0
LINE
8
Layer 1
10
14.323120
20
54.363146
11
22.538451
21
63.015030
0
LINE
8
Layer 1
10
22.538451
20
63.015030
11
33.373120
21
74.788946
0
LINE
8
Layer 1
10
33.373120
20
74.788946
11
45.289843
21
88.373098
0
LINE
8
Layer 1
10
45.289843
20
88.373098
11
58.354207
21
103.690283
0
LINE
8
Layer 1
10
58.354207
20
103.690283
11
69.573103
21
117.195076
0
LINE
8
Layer 1
10
69.573103
20
117.195076
11
73.555153
21
122.159878
0
LINE
8
Layer 1
10
73.555153
20
122.159878
11
75.953420
21
125.342046
0
LINE
8
Layer 1
10
75.953420
20
125.342046
11
77.589427
21
127.485171
0
LINE
8
Layer 1
10
77.589427
20
127.485171
11
78.458140
21
128.305386
0
LINE
8
Layer 1
10
78.458140
20
128.305386
11
79.516470
21
127.247056
0
LINE
8
Layer 1
10
79.516470
20
127.247056
11
79.516480
21
127.247080
0
LINE
8
Layer 1
10
95.532580
20
101.353180
11
94.289035
21
99.038076
0
LINE
8
Layer 1
10
94.289035
20
99.038076
11
92.251740
21
96.484840
0
LINE
8
Layer 1
10
92.251740
20
96.484840
11
91.692258
21
95.897242
0
LINE
8
Layer 1
10
91.692258
20
95.897242
11
91.591317
21
95.846117
0
LINE
8
Layer 1
10
91.591317
20
95.846117
11
91.612331
21
95.964491
0
LINE
8
Layer 1
10
91.612331
20
95.964491
11
92.957296
21
98.248730
0
LINE
8
Layer 1
10
92.957296
20
98.248730
11
95.038686
21
101.529570
0
LINE
8
Layer 1
10
95.038686
20
101.529570
11
96.132296
21
103.011240
0
LINE
8
Layer 1
10
96.132296
20
103.011240
11
95.532573
21
101.353180
0
LINE
8
Layer 1
10
95.532573
20
101.353180
11
95.532580
21
101.353180
0
LINE
8
Layer 1
10
253.435580
20
82.126780
11
248.496690
21
75.141780
0
LINE
8
Layer 1
10
248.496690
20
75.141780
11
229.693590
21
48.401180
0
LINE
8
Layer 1
10
229.693590
20
48.401180
11
229.537045
21
48.293900
0
LINE
8
Layer 1
10
229.537045
20
48.293900
11
229.221750
21
48.303615
0
LINE
8
Layer 1
10
229.221750
20
48.303615
11
227.929702
21
48.758368
0
LINE
8
Layer 1
10
227.929702
20
48.758368
11
221.403310
21
51.999520
0
LINE
8
Layer 1
10
221.403310
20
51.999520
11
209.360346
21
58.371573
0
LINE
8
Layer 1
10
209.360346
20
58.371573
11
198.613810
21
64.558420
0
LINE
8
Layer 1
10
198.613810
20
64.558420
11
191.911030
21
68.438980
0
LINE
8
Layer 1
10
191.911030
20
68.438980
11
190.658670
21
69.184223
0
LINE
8
Layer 1
10
190.658670
20
69.184223
11
190.740250
21
69.356753
0
LINE
8
Layer 1
10
190.740250
20
69.356753
11
191.205474
21
69.532590
0
LINE
8
Layer 1
10
191.205474
20
69.532590
11
200.540850
21
71.640438
0
LINE
8
Layer 1
10
200.540850
20
71.640438
11
226.836074
21
77.082040
0
LINE
8
Layer 1
10
226.836074
20
77.082040
11
249.413874
21
81.773990
0
LINE
8
Layer 1
10
249.413874
20
81.773990
11
252.932835
21
82.492775
0
LINE
8
Layer 1
10
252.932835
20
82.492775
11
253.471925
21
82.433795
0
LINE
8
Layer 1
10
253.471925
20
82.433795
11
253.435544
21
82.126768
0
LINE
8
Layer 1
10
253.435544
20
82.126768
11
253.435580
21
82.126780
0
LINE
8
Layer 1
10
194.204180
20
64.276180
11
196.594251
21
62.732776
0
LINE
8
Layer 1
10
196.594251
20
62.732776
11
197.449740
21
62.088960
0
LINE
8
Layer 1
10
197.449740
20
62.088960
11
193.604460
21
63.711740
0
LINE
8
Layer 1
10
193.604460
20
63.711740
11
187.960010
21
66.216460
0
LINE
8
Layer 1
10
187.960010
20
66.216460
11
186.513621
21
66.930837
0
LINE
8
Layer 1
10
186.513621
20
66.930837
11
185.913900
21
67.380630
0
LINE
8
Layer 1
10
185.913900
20
67.380630
11
186.143206
21
67.654033
0
LINE
8
Layer 1
10
186.143206
20
67.654033
11
186.690012
21
67.980353
0
LINE
8
Layer 1
10
186.690012
20
67.980353
11
187.298554
21
68.140757
0
LINE
8
Layer 1
10
187.298554
20
68.140757
11
188.277513
21
67.808374
0
LINE
8
Layer 1
10
188.277513
20
67.808374
11
194.204182
21
64.276183
0
LINE
8
Layer 1
10
194.204182
20
64.276183
11
194.204180
21
64.276180
0
LINE
8
Layer 1
10
135.008080
20
47.131180
11
143.510030
21
41.663120
0
LINE
8
Layer 1
10
143.510030
20
41.663120
11
144.039197
21
41.292703
0
LINE
8
Layer 1
10
144.039197
20
41.292703
11
144.145030
21
41.028120
0
LINE
8
Layer 1
10
144.145030
20
41.028120
11
142.319403
21
41.063398
0
LINE
8
Layer 1
10
142.319403
20
41.063398
11
138.218360
21
41.416176
0
LINE
8
Layer 1
10
138.218360
20
41.416176
11
123.472260
21
42.862566
0
LINE
8
Layer 1
10
123.472260
20
42.862566
11
104.598660
21
44.979236
0
LINE
8
Layer 1
10
104.598660
20
44.979236
11
65.969460
21
49.494796
0
LINE
8
Layer 1
10
65.969460
20
49.494796
11
61.912510
21
49.953407
0
LINE
8
Layer 1
10
61.912510
20
49.953407
11
66.498620
21
50.200352
0
LINE
8
Layer 1
10
66.498620
20
50.200352
11
87.312520
21
50.976464
0
LINE
8
Layer 1
10
87.312520
20
50.976464
11
111.125020
21
51.823131
0
LINE
8
Layer 1
10
111.125020
20
51.823131
11
123.013620
21
52.140631
0
LINE
8
Layer 1
10
123.013620
20
52.140631
11
127.352790
21
52.211187
0
LINE
8
Layer 1
10
127.352790
20
52.211187
11
135.008070
21
47.131187
0
LINE
8
Layer 1
10
135.008070
20
47.131187
11
135.008080
21
47.131180
 0 
ENDSEC
 0 
EOF