999
"DXF R12 Output" (www.mydxf.blogspot.com)
 0 
SECTION
 2 
HEADER
 9 
$ACADVER
 1 
AC1009
 9 
$EXTMIN
 10 
 0 
 20 
 0 
 9 
$EXTMAX
 10 
 8.5 
 20 
 11 
 0 
ENDSEC
 0 
SECTION
 2 
ENTITIES
0
LINE
8
Layer 1
10
0.000000
20
25.743800
11
15.544263
21
25.585050
0
LINE
8
Layer 1
10
15.544263
20
25.585050
11
52.916600
21
25.505675
0
LINE
8
Layer 1
10
52.916600
20
25.505675
11
90.288938
21
25.561899
0
LINE
8
Layer 1
10
90.288938
20
25.561899
11
105.833200
21
25.717341
0
LINE
8
Layer 1
10
105.833200
20
25.717341
11
90.288938
21
25.862861
0
LINE
8
Layer 1
10
90.288938
20
25.862861
11
52.916600
21
25.929007
0
LINE
8
Layer 1
10
52.916600
20
25.929007
11
15.544263
21
25.876090
0
LINE
8
Layer 1
10
15.544263
20
25.876090
11
0.000000
21
25.743799
0
LINE
8
Layer 1
10
0.000000
20
25.743799
11
0.000000
21
25.743800
0
LINE
8
Layer 1
10
35.586400
20
-12.753000
11
35.507025
21
-27.384400
0
LINE
8
Layer 1
10
35.507025
20
-27.384400
11
35.586400
21
-41.671900
0
LINE
8
Layer 1
10
35.586400
20
-41.671900
11
53.048900
21
-41.671900
0
LINE
8
Layer 1
10
53.048900
20
-41.671900
11
70.511400
21
-41.671900
0
LINE
8
Layer 1
10
70.511400
20
-41.671900
11
70.590775
21
-27.040500
0
LINE
8
Layer 1
10
70.590775
20
-27.040500
11
70.643692
21
-12.435500
0
LINE
8
Layer 1
10
70.643692
20
-12.435500
11
53.181192
21
-12.435500
0
LINE
8
Layer 1
10
53.181192
20
-12.435500
11
39.264104
21
-12.504953
0
LINE
8
Layer 1
10
39.264104
20
-12.504953
11
36.438027
21
-12.602932
0
LINE
8
Layer 1
10
36.438027
20
-12.602932
11
35.586392
21
-12.753000
0
LINE
8
Layer 1
10
35.586392
20
-12.753000
11
35.586400
21
-12.753000
0
LINE
8
Layer 1
10
69.849900
20
-27.119900
11
69.849900
21
-41.010500
0
LINE
8
Layer 1
10
69.849900
20
-41.010500
11
53.048900
21
-41.010500
0
LINE
8
Layer 1
10
53.048900
20
-41.010500
11
36.247900
21
-41.010500
0
LINE
8
Layer 1
10
36.247900
20
-41.010500
11
36.247900
21
-27.119900
0
LINE
8
Layer 1
10
36.247900
20
-27.119900
11
36.247900
21
-13.229300
0
LINE
8
Layer 1
10
36.247900
20
-13.229300
11
53.048900
21
-13.229300
0
LINE
8
Layer 1
10
53.048900
20
-13.229300
11
69.849900
21
-13.229300
0
LINE
8
Layer 1
10
69.849900
20
-13.229300
11
69.849900
21
-27.119900
0
LINE
8
Layer 1
10
69.849900
20
-27.119900
11
69.849900
21
-27.119900
0
LINE
8
Layer 1
10
39.872700
20
-20.664000
11
39.687492
21
-25.161910
0
LINE
8
Layer 1
10
39.687492
20
-25.161910
11
39.687492
21
-27.437320
0
LINE
8
Layer 1
10
39.687492
20
-27.437320
11
41.222072
21
-27.887111
0
LINE
8
Layer 1
10
41.222072
20
-27.887111
11
42.763683
21
-28.188901
0
LINE
8
Layer 1
10
42.763683
20
-28.188901
11
44.367304
21
-28.297215
0
LINE
8
Layer 1
10
44.367304
20
-28.297215
11
45.846902
21
-28.207091
0
LINE
8
Layer 1
10
45.846902
20
-28.207091
11
47.016442
21
-27.913569
0
LINE
8
Layer 1
10
47.016442
20
-27.913569
11
48.101232
21
-27.648986
0
LINE
8
Layer 1
10
48.101232
20
-27.648986
11
47.916024
21
-30.109606
0
LINE
8
Layer 1
10
47.916024
20
-30.109606
11
47.624983
21
-32.834806
0
LINE
8
Layer 1
10
47.624983
20
-32.834806
11
48.365817
21
-33.529335
0
LINE
8
Layer 1
10
48.365817
20
-33.529335
11
50.138523
21
-34.660426
0
LINE
8
Layer 1
10
50.138523
20
-34.660426
11
52.278339
21
-36.029641
0
LINE
8
Layer 1
10
52.278339
20
-36.029641
11
52.590465
21
-36.461242
0
LINE
8
Layer 1
10
52.590465
20
-36.461242
11
52.652063
21
-36.962296
0
LINE
8
Layer 1
10
52.652063
20
-36.962296
11
52.549537
21
-37.656827
0
LINE
8
Layer 1
10
52.549537
20
-37.656827
11
52.149355
21
-37.835420
0
LINE
8
Layer 1
10
52.149355
20
-37.835420
11
49.774722
21
-37.441854
0
LINE
8
Layer 1
10
49.774722
20
-37.441854
11
47.122275
21
-36.512510
0
LINE
8
Layer 1
10
47.122275
20
-36.512510
11
45.458707
21
-35.774985
0
LINE
8
Layer 1
10
45.458707
20
-35.774985
11
45.265645
21
-35.824181
0
LINE
8
Layer 1
10
45.265645
20
-35.824181
11
45.243735
21
-36.089177
0
LINE
8
Layer 1
10
45.243735
20
-36.089177
11
45.681950
21
-36.541448
0
LINE
8
Layer 1
10
45.681950
20
-36.541448
11
46.784930
21
-37.127664
0
LINE
8
Layer 1
10
46.784930
20
-37.127664
11
48.235175
21
-37.703959
0
LINE
8
Layer 1
10
48.235175
20
-37.703959
11
49.715185
21
-38.126467
0
LINE
8
Layer 1
10
49.715185
20
-38.126467
11
51.772732
21
-38.345162
0
LINE
8
Layer 1
10
51.772732
20
-38.345162
11
54.269320
21
-38.308368
0
LINE
8
Layer 1
10
54.269320
20
-38.308368
11
56.691493
21
-38.048333
0
LINE
8
Layer 1
10
56.691493
20
-38.048333
11
58.525795
21
-37.597301
0
LINE
8
Layer 1
10
58.525795
20
-37.597301
11
60.510170
21
-36.595192
0
LINE
8
Layer 1
10
60.510170
20
-36.595192
11
61.018666
21
-36.157389
0
LINE
8
Layer 1
10
61.018666
20
-36.157389
11
61.065795
21
-35.851051
0
LINE
8
Layer 1
10
61.065795
20
-35.851051
11
60.559780
21
-35.933734
0
LINE
8
Layer 1
10
60.559780
20
-35.933734
11
59.557675
21
-36.353759
0
LINE
8
Layer 1
10
59.557675
20
-36.353759
11
58.297599
21
-36.897807
0
LINE
8
Layer 1
10
58.297599
20
-36.897807
11
56.799399
21
-37.372401
0
LINE
8
Layer 1
10
56.799399
20
-37.372401
11
55.330964
21
-37.708089
0
LINE
8
Layer 1
10
55.330964
20
-37.708089
11
54.160185
21
-37.835419
0
LINE
8
Layer 1
10
54.160185
20
-37.835419
11
53.541722
21
-37.699820
0
LINE
8
Layer 1
10
53.541722
20
-37.699820
11
53.498728
21
-36.988753
0
LINE
8
Layer 1
10
53.498728
20
-36.988753
11
53.616550
21
-36.491833
0
LINE
8
Layer 1
10
53.616550
20
-36.491833
11
53.965056
21
-36.049484
0
LINE
8
Layer 1
10
53.965056
20
-36.049484
11
56.038728
21
-34.713343
0
LINE
8
Layer 1
10
56.038728
20
-34.713343
11
57.605141
21
-33.761670
0
LINE
8
Layer 1
10
57.605141
20
-33.761670
11
58.058601
21
-33.380402
0
LINE
8
Layer 1
10
58.058601
20
-33.380402
11
58.330677
21
-32.973710
0
LINE
8
Layer 1
10
58.330677
20
-32.973710
11
58.446018
21
-31.818641
0
LINE
8
Layer 1
10
58.446018
20
-31.818641
11
58.181848
21
-29.765643
0
LINE
8
Layer 1
10
58.181848
20
-29.765643
11
57.996640
21
-27.622523
0
LINE
8
Layer 1
10
57.996640
20
-27.622523
11
59.134350
21
-27.913564
0
LINE
8
Layer 1
10
59.134350
20
-27.913564
11
60.417992
21
-28.191377
0
LINE
8
Layer 1
10
60.417992
20
-28.191377
11
61.981925
21
-28.270751
0
LINE
8
Layer 1
10
61.981925
20
-28.270751
11
63.610351
21
-28.151689
0
LINE
8
Layer 1
10
63.610351
20
-28.151689
11
65.087470
21
-27.834189
0
LINE
8
Layer 1
10
65.087470
20
-27.834189
11
66.542680
21
-27.357940
0
LINE
8
Layer 1
10
66.542680
20
-27.357940
11
66.463305
21
-24.738570
0
LINE
8
Layer 1
10
66.463305
20
-24.738570
11
66.251639
21
-20.293580
0
LINE
8
Layer 1
10
66.251639
20
-20.293580
11
66.092889
21
-18.520870
0
LINE
8
Layer 1
10
66.092889
20
-18.520870
11
63.923309
21
-18.520870
0
LINE
8
Layer 1
10
63.923309
20
-18.520870
11
61.952165
21
-18.643240
0
LINE
8
Layer 1
10
61.952165
20
-18.643240
11
60.298519
21
-18.944203
0
LINE
8
Layer 1
10
60.298519
20
-18.944203
11
58.934674
21
-19.470062
0
LINE
8
Layer 1
10
58.934674
20
-19.470062
11
57.662608
21
-20.154671
0
LINE
8
Layer 1
10
57.662608
20
-20.154671
11
56.722925
21
-20.849200
0
LINE
8
Layer 1
10
56.722925
20
-20.849200
11
56.356229
21
-21.404823
0
LINE
8
Layer 1
10
56.356229
20
-21.404823
11
57.149978
21
-27.252103
0
LINE
8
Layer 1
10
57.149978
20
-27.252103
11
57.639457
21
-31.115016
0
LINE
8
Layer 1
10
57.639457
20
-31.115016
11
57.732061
21
-32.834803
0
LINE
8
Layer 1
10
57.732061
20
-32.834803
11
55.562481
21
-34.210633
0
LINE
8
Layer 1
10
55.562481
20
-34.210633
11
53.578111
21
-35.427713
0
LINE
8
Layer 1
10
53.578111
20
-35.427713
11
53.498736
21
-28.283973
0
LINE
8
Layer 1
10
53.498736
20
-28.283973
11
53.379674
21
-22.651665
0
LINE
8
Layer 1
10
53.379674
20
-22.651665
11
53.268052
21
-21.523464
0
LINE
8
Layer 1
10
53.268052
20
-21.523464
11
53.101861
21
-21.246063
0
LINE
8
Layer 1
10
53.101861
20
-21.246063
11
52.946832
21
-21.647485
0
LINE
8
Layer 1
10
52.946832
20
-21.647485
11
52.833971
21
-22.850096
0
LINE
8
Layer 1
10
52.833971
20
-22.850096
11
52.704987
21
-28.363343
0
LINE
8
Layer 1
10
52.704987
20
-28.363343
11
52.652071
21
-35.401253
0
LINE
8
Layer 1
10
52.652071
20
-35.401253
11
50.429571
21
-34.078333
0
LINE
8
Layer 1
10
50.429571
20
-34.078333
11
48.207071
21
-32.781873
0
LINE
8
Layer 1
10
48.207071
20
-32.781873
11
48.339363
21
-31.670623
0
LINE
8
Layer 1
10
48.339363
20
-31.670623
11
49.212487
21
-25.849793
0
LINE
8
Layer 1
10
49.212487
20
-25.849793
11
49.900403
21
-21.113753
0
LINE
8
Layer 1
10
49.900403
20
-21.113753
11
49.080196
21
-20.478754
0
LINE
8
Layer 1
10
49.080196
20
-20.478754
11
47.784565
21
-19.637875
0
LINE
8
Layer 1
10
47.784565
20
-19.637875
11
46.414521
21
-19.069849
0
LINE
8
Layer 1
10
46.414521
20
-19.069849
11
44.816274
21
-18.730026
0
LINE
8
Layer 1
10
44.816274
20
-18.730026
11
42.836036
21
-18.573754
0
LINE
8
Layer 1
10
42.836036
20
-18.573754
11
40.031456
21
-18.467921
0
LINE
8
Layer 1
10
40.031456
20
-18.467921
11
39.872706
21
-20.663961
0
LINE
8
Layer 1
10
39.872706
20
-20.663961
11
39.872700
21
-20.664000
0
LINE
8
Layer 1
10
46.884150
20
-20.029001
11
48.231457
21
-20.683429
0
LINE
8
Layer 1
10
48.231457
20
-20.683429
11
48.891675
21
-21.335378
0
LINE
8
Layer 1
10
48.891675
20
-21.335378
11
49.030996
21
-22.339554
0
LINE
8
Layer 1
10
49.030996
20
-22.339554
11
48.815610
21
-24.050661
0
LINE
8
Layer 1
10
48.815610
20
-24.050661
11
48.339361
21
-26.617121
0
LINE
8
Layer 1
10
48.339361
20
-26.617121
11
46.672491
21
-27.278578
0
LINE
8
Layer 1
10
46.672491
20
-27.278578
11
45.427712
21
-27.616335
0
LINE
8
Layer 1
10
45.427712
20
-27.616335
11
44.155647
21
-27.718447
0
LINE
8
Layer 1
10
44.155647
20
-27.718447
11
42.799247
21
-27.587396
0
LINE
8
Layer 1
10
42.799247
20
-27.587396
11
41.301461
21
-27.225661
0
LINE
8
Layer 1
10
41.301461
20
-27.225661
11
40.190211
21
-26.908161
0
LINE
8
Layer 1
10
40.190211
20
-26.908161
11
40.348961
21
-23.309831
0
LINE
8
Layer 1
10
40.348961
20
-23.309831
11
40.640002
21
-19.341091
0
LINE
8
Layer 1
10
40.640002
20
-19.341091
11
40.885516
21
-19.161206
0
LINE
8
Layer 1
10
40.885516
20
-19.161206
11
41.433338
21
-19.072788
0
LINE
8
Layer 1
10
41.433338
20
-19.072788
11
43.137005
21
-19.139347
0
LINE
8
Layer 1
10
43.137005
20
-19.139347
11
45.153211
21
-19.478757
0
LINE
8
Layer 1
10
45.153211
20
-19.478757
11
46.884162
21
-20.029007
0
LINE
8
Layer 1
10
46.884162
20
-20.029007
11
46.884150
21
-20.029001
0
LINE
8
Layer 1
10
65.696050
20
-21.616501
11
65.881258
21
-25.558791
0
LINE
8
Layer 1
10
65.881258
20
-25.558791
11
65.864722
21
-26.343856
0
LINE
8
Layer 1
10
65.864722
20
-26.343856
11
65.748967
21
-26.779177
0
LINE
8
Layer 1
10
65.748967
20
-26.779177
11
65.434775
21
-27.021022
0
LINE
8
Layer 1
10
65.434775
20
-27.021022
11
64.822928
21
-27.225661
0
LINE
8
Layer 1
10
64.822928
20
-27.225661
11
63.324727
21
-27.586982
0
LINE
8
Layer 1
10
63.324727
20
-27.586982
11
62.005121
21
-27.715139
0
LINE
8
Layer 1
10
62.005121
20
-27.715139
11
60.745045
21
-27.605172
0
LINE
8
Layer 1
10
60.745045
20
-27.605172
11
59.425438
21
-27.252119
0
LINE
8
Layer 1
10
59.425438
20
-27.252119
11
58.195126
21
-26.756026
0
LINE
8
Layer 1
10
58.195126
20
-26.756026
11
57.679188
21
-26.378995
0
LINE
8
Layer 1
10
57.679188
20
-26.378995
11
57.308772
21
-23.733165
0
LINE
8
Layer 1
10
57.308772
20
-23.733165
11
56.964814
21
-21.404835
0
LINE
8
Layer 1
10
56.964814
20
-21.404835
11
57.705646
21
-20.875669
0
LINE
8
Layer 1
10
57.705646
20
-20.875669
11
59.002931
21
-20.122020
0
LINE
8
Layer 1
10
59.002931
20
-20.122020
11
60.503612
21
-19.569289
0
LINE
8
Layer 1
10
60.503612
20
-19.569289
11
62.192808
21
-19.219959
0
LINE
8
Layer 1
10
62.192808
20
-19.219959
11
64.055636
21
-19.076509
0
LINE
8
Layer 1
10
64.055636
20
-19.076509
11
65.537296
21
-19.050051
0
LINE
8
Layer 1
10
65.537296
20
-19.050051
11
65.696046
21
-21.616511
0
LINE
8
Layer 1
10
65.696046
20
-21.616511
11
65.696050
21
-21.616501
0
LINE
8
Layer 1
10
42.624300
20
-20.320100
11
41.859542
21
-20.882752
0
LINE
8
Layer 1
10
41.859542
20
-20.882752
11
41.293531
21
-21.606635
0
LINE
8
Layer 1
10
41.293531
20
-21.606635
11
40.929057
21
-22.444619
0
LINE
8
Layer 1
10
40.929057
20
-22.444619
11
40.768912
21
-23.349576
0
LINE
8
Layer 1
10
40.768912
20
-23.349576
11
40.815886
21
-24.274377
0
LINE
8
Layer 1
10
40.815886
20
-24.274377
11
41.072769
21
-25.171892
0
LINE
8
Layer 1
10
41.072769
20
-25.171892
11
41.542352
21
-25.994992
0
LINE
8
Layer 1
10
41.542352
20
-25.994992
11
42.227426
21
-26.696550
0
LINE
8
Layer 1
10
42.227426
20
-26.696550
11
43.491223
21
-27.329481
0
LINE
8
Layer 1
10
43.491223
20
-27.329481
11
44.856720
21
-27.414231
0
LINE
8
Layer 1
10
44.856720
20
-27.414231
11
46.197412
21
-26.968160
0
LINE
8
Layer 1
10
46.197412
20
-26.968160
11
47.386796
21
-26.008634
0
LINE
8
Layer 1
10
47.386796
20
-26.008634
11
47.837001
21
-25.441435
0
LINE
8
Layer 1
10
47.837001
20
-25.441435
11
48.071405
21
-24.963532
0
LINE
8
Layer 1
10
48.071405
20
-24.963532
11
48.101170
21
-23.521554
0
LINE
8
Layer 1
10
48.101170
20
-23.521554
11
47.876274
21
-22.149030
0
LINE
8
Layer 1
10
47.876274
20
-22.149030
11
47.333879
21
-21.272594
0
LINE
8
Layer 1
10
47.333879
20
-21.272594
11
46.244542
21
-20.375908
0
LINE
8
Layer 1
10
46.244542
20
-20.375908
11
45.068388
21
-19.913302
0
LINE
8
Layer 1
10
45.068388
20
-19.913302
11
43.847584
21
-19.892217
0
LINE
8
Layer 1
10
43.847584
20
-19.892217
11
42.624299
21
-20.320095
0
LINE
8
Layer 1
10
42.624299
20
-20.320095
11
42.624300
21
-20.320100
0
LINE
8
Layer 1
10
46.381380
20
-21.193224
11
47.006871
21
-21.880726
0
LINE
8
Layer 1
10
47.006871
20
-21.880726
11
47.396717
21
-22.764184
0
LINE
8
Layer 1
10
47.396717
20
-22.764184
11
47.523634
21
-23.741899
0
LINE
8
Layer 1
10
47.523634
20
-23.741899
11
47.360337
21
-24.712174
0
LINE
8
Layer 1
10
47.360337
20
-24.712174
11
47.079218
21
-25.319785
0
LINE
8
Layer 1
10
47.079218
20
-25.319785
11
46.669115
21
-25.827558
0
LINE
8
Layer 1
10
46.669115
20
-25.827558
11
45.561174
21
-26.511340
0
LINE
8
Layer 1
10
45.561174
20
-26.511340
11
44.234953
21
-26.699029
0
LINE
8
Layer 1
10
44.234953
20
-26.699029
11
43.551998
21
-26.586686
0
LINE
8
Layer 1
10
43.551998
20
-26.586686
11
42.888887
21
-26.326134
0
LINE
8
Layer 1
10
42.888887
20
-26.326134
11
42.301843
21
-25.858567
0
LINE
8
Layer 1
10
42.301843
20
-25.858567
11
41.784251
21
-25.145434
0
LINE
8
Layer 1
10
41.784251
20
-25.145434
11
41.415487
21
-24.328121
0
LINE
8
Layer 1
10
41.415487
20
-24.328121
11
41.274927
21
-23.548014
0
LINE
8
Layer 1
10
41.274927
20
-23.548014
11
41.393163
21
-22.902680
0
LINE
8
Layer 1
10
41.393163
20
-22.902680
11
41.704874
21
-22.195334
0
LINE
8
Layer 1
10
41.704874
20
-22.195334
11
42.145570
21
-21.542558
0
LINE
8
Layer 1
10
42.145570
20
-21.542558
11
42.650757
21
-21.060934
0
LINE
8
Layer 1
10
42.650757
20
-21.060934
11
43.482953
21
-20.728138
0
LINE
8
Layer 1
10
43.482953
20
-20.728138
11
44.525987
21
-20.640909
0
LINE
8
Layer 1
10
44.525987
20
-20.640909
11
45.564062
21
-20.796765
0
LINE
8
Layer 1
10
45.564062
20
-20.796765
11
46.381377
21
-21.193226
0
LINE
8
Layer 1
10
46.381377
20
-21.193226
11
46.381380
21
-21.193224
0
LINE
8
Layer 1
10
60.166200
20
-20.214200
11
59.353588
21
-20.710138
0
LINE
8
Layer 1
10
59.353588
20
-20.710138
11
58.725461
21
-21.358935
0
LINE
8
Layer 1
10
58.725461
20
-21.358935
11
58.287711
21
-22.122453
0
LINE
8
Layer 1
10
58.287711
20
-22.122453
11
58.046228
21
-22.962556
0
LINE
8
Layer 1
10
58.046228
20
-22.962556
11
58.006902
21
-23.841107
0
LINE
8
Layer 1
10
58.006902
20
-23.841107
11
58.175625
21
-24.719967
0
LINE
8
Layer 1
10
58.175625
20
-24.719967
11
58.558287
21
-25.561001
0
LINE
8
Layer 1
10
58.558287
20
-25.561001
11
59.160780
21
-26.326070
0
LINE
8
Layer 1
10
59.160780
20
-26.326070
11
60.037213
21
-27.026804
0
LINE
8
Layer 1
10
60.037213
20
-27.026804
11
60.973176
21
-27.387711
0
LINE
8
Layer 1
10
60.973176
20
-27.387711
11
61.988514
21
-27.416235
0
LINE
8
Layer 1
10
61.988514
20
-27.416235
11
63.103070
21
-27.119819
0
LINE
8
Layer 1
10
63.103070
20
-27.119819
11
64.302427
21
-26.415625
0
LINE
8
Layer 1
10
64.302427
20
-26.415625
11
65.092818
21
-25.445091
0
LINE
8
Layer 1
10
65.092818
20
-25.445091
11
65.489434
21
-24.313947
0
LINE
8
Layer 1
10
65.489434
20
-24.313947
11
65.507469
21
-23.127923
0
LINE
8
Layer 1
10
65.507469
20
-23.127923
11
65.162115
21
-21.992748
0
LINE
8
Layer 1
10
65.162115
20
-21.992748
11
64.468565
21
-21.014153
0
LINE
8
Layer 1
10
64.468565
20
-21.014153
11
63.442013
21
-20.297867
0
LINE
8
Layer 1
10
63.442013
20
-20.297867
11
62.097650
21
-19.949619
0
LINE
8
Layer 1
10
62.097650
20
-19.949619
11
61.072392
21
-19.972770
0
LINE
8
Layer 1
10
61.072392
20
-19.972770
11
60.166190
21
-20.214202
0
LINE
8
Layer 1
10
60.166190
20
-20.214202
11
60.166200
21
-20.214200
0
LINE
8
Layer 1
10
63.923280
20
-21.537120
11
64.660805
21
-22.499540
0
LINE
8
Layer 1
10
64.660805
20
-22.499540
11
64.822862
21
-23.680240
0
LINE
8
Layer 1
10
64.822862
20
-23.680240
11
64.660805
21
-24.860940
0
LINE
8
Layer 1
10
64.660805
20
-24.860940
11
63.923280
21
-25.823360
0
LINE
8
Layer 1
10
63.923280
20
-25.823360
11
62.960860
21
-26.560885
0
LINE
8
Layer 1
10
62.960860
20
-26.560885
11
61.780160
21
-26.722942
0
LINE
8
Layer 1
10
61.780160
20
-26.722942
11
60.599460
21
-26.560885
0
LINE
8
Layer 1
10
60.599460
20
-26.560885
11
59.637040
21
-25.823360
0
LINE
8
Layer 1
10
59.637040
20
-25.823360
11
58.909437
21
-24.880783
0
LINE
8
Layer 1
10
58.909437
20
-24.880783
11
58.737458
21
-23.759610
0
LINE
8
Layer 1
10
58.737458
20
-23.759610
11
58.946644
21
-22.404861
0
LINE
8
Layer 1
10
58.946644
20
-22.404861
11
59.537821
21
-21.434586
0
LINE
8
Layer 1
10
59.537821
20
-21.434586
11
60.515952
21
-20.846303
0
LINE
8
Layer 1
10
60.515952
20
-20.846303
11
61.885998
21
-20.637530
0
LINE
8
Layer 1
10
61.885998
20
-20.637530
11
62.984019
21
-20.809509
0
LINE
8
Layer 1
10
62.984019
20
-20.809509
11
63.923288
21
-21.537112
0
LINE
8
Layer 1
10
63.923288
20
-21.537112
11
63.923280
21
-21.537120
 0 
ENDSEC
 0 
EOF