<?xml version="1.0" standalone="no"?>
<!DOCTYPE svg PUBLIC "-//W3C//DTD SVG 20010904//EN"
 "http://www.w3.org/TR/2001/REC-SVG-20010904/DTD/svg10.dtd">
<svg version="1.0" xmlns="http://www.w3.org/2000/svg"
 width="800.000000pt" height="800.000000pt" viewBox="0 0 800.000000 800.000000"
 preserveAspectRatio="xMidYMid meet">
<metadata>
Created by potrace 1.16, written by Peter Selinger 2001-2019
</metadata>
<g transform="translate(0.000000,800.000000) scale(0.100000,-0.100000)"
fill="#000000" stroke="none">
<path d="M3025 7778 c-7 -18 -37 -110 -66 -205 l-53 -171 -65 60 c-187 171
-402 258 -641 258 -231 0 -443 -86 -573 -230 l-47 -52 -56 52 c-117 106 -235
144 -424 138 -104 -4 -136 -9 -192 -31 -153 -59 -271 -164 -338 -300 -51 -104
-70 -181 -70 -280 0 -283 178 -526 446 -608 l74 -23 0 -88 0 -88 -41 26 c-71
45 -129 64 -218 73 -198 20 -385 -51 -543 -209 -62 -62 -86 -95 -122 -169 -62
-126 -80 -216 -73 -350 3 -70 12 -126 26 -165 12 -33 20 -60 19 -61 -60 -38
-68 -48 -68 -86 0 -41 9 -49 30 -24 17 21 25 19 27 -7 6 -81 55 -200 116 -285
17 -24 28 -46 24 -49 -3 -3 -49 -13 -101 -22 l-96 -15 0 -34 c0 -39 -4 -39
145 -13 l110 19 27 -32 26 -32 -48 -18 c-58 -22 -96 -63 -112 -123 l-12 -43
-68 72 -67 72 -1 -49 c0 -47 3 -52 76 -132 42 -46 73 -84 70 -84 -4 0 -33 13
-66 30 -33 16 -64 30 -70 30 -5 0 -10 -17 -10 -37 0 -37 2 -38 63 -62 90 -34
400 -190 535 -270 64 -38 137 -78 161 -91 l44 -22 -214 -206 c-118 -114 -299
-290 -402 -392 l-188 -186 3 -41 3 -42 64 59 c35 33 66 60 67 60 2 0 4 -12 4
-27 0 -71 80 -163 142 -163 16 0 28 -2 28 -5 0 -3 -25 -39 -56 -80 -56 -74
-57 -74 -113 -80 -150 -16 -141 -12 -141 -51 l0 -36 64 7 65 7 -29 -73 c-16
-41 -29 -82 -30 -91 0 -14 -8 -18 -35 -18 -33 0 -35 -2 -35 -35 0 -34 1 -35
40 -35 22 0 40 -3 40 -7 0 -3 -12 -36 -27 -72 -26 -62 -28 -75 -28 -216 0
-137 2 -156 27 -223 55 -151 161 -287 294 -377 33 -21 60 -40 61 -40 2 -1 -6
-25 -17 -53 -24 -62 -35 -172 -23 -227 8 -36 12 -40 38 -40 l30 0 1 100 c0 72
5 112 18 142 l18 42 38 -14 c89 -31 261 -41 341 -19 14 4 11 -18 -18 -142 -26
-113 -31 -149 -22 -160 21 -26 5 -33 469 209 63 33 255 132 425 219 171 88
390 203 489 255 98 52 182 91 186 86 5 -4 59 -144 120 -311 61 -167 131 -356
156 -420 91 -231 204 -537 204 -553 0 -24 -60 -74 -114 -94 -26 -10 -49 -16
-51 -13 -3 2 1 43 7 91 17 126 1 215 -58 337 -79 160 -203 266 -370 316 -42
13 -92 18 -179 18 -104 0 -130 -4 -200 -28 -112 -38 -176 -79 -255 -163 l-67
-72 -39 11 c-56 15 -137 4 -190 -27 -122 -72 -146 -248 -48 -349 41 -42 105
-75 145 -76 22 0 29 -10 57 -79 82 -199 234 -337 427 -386 79 -20 259 -20 339
1 140 36 265 127 346 251 43 67 47 70 108 87 34 10 88 34 119 52 31 19 57 33
58 32 3 -3 65 -176 129 -360 21 -58 44 -115 52 -125 14 -17 14 -17 29 1 8 10
30 64 49 120 64 191 108 311 116 319 4 4 28 -29 55 -75 85 -146 239 -280 393
-343 162 -66 381 -73 547 -17 212 71 363 199 455 384 21 43 42 90 48 106 8 22
19 30 62 41 133 34 208 191 151 316 -50 109 -159 156 -285 124 -127 -32 -202
-193 -147 -315 20 -44 92 -111 128 -120 28 -7 28 -10 2 -76 -57 -144 -183
-279 -333 -353 -123 -61 -209 -78 -356 -72 -188 8 -333 66 -461 185 -123 114
-233 297 -211 352 15 40 186 466 272 680 71 177 149 375 201 515 l20 53 160
-79 c88 -43 162 -79 164 -79 3 0 538 -259 940 -455 296 -144 281 -138 300
-119 17 17 16 27 -22 154 -14 47 -29 96 -33 110 l-7 26 101 1 c72 1 119 7 166
21 35 12 65 20 66 19 26 -33 38 -85 42 -174 4 -90 7 -103 24 -109 10 -3 25 0
33 6 23 19 19 150 -5 239 -12 41 -17 77 -13 81 4 4 35 27 68 52 173 130 272
298 305 512 15 97 -1 205 -41 295 -16 35 -29 65 -29 67 0 2 10 4 23 4 88 0
585 195 601 236 8 20 -14 41 -207 197 -81 66 -146 123 -145 126 2 3 17 33 33
66 43 85 42 168 -1 245 -88 155 -287 187 -408 65 l-31 -31 -195 171 c-107 93
-220 191 -250 218 -45 38 -52 49 -40 56 9 6 76 62 150 126 l135 116 345 172
c386 192 391 196 290 230 -30 10 -74 26 -98 34 l-42 15 57 66 c32 37 59 69 60
71 2 2 56 -3 120 -12 65 -9 159 -20 210 -23 l92 -7 7 27 c9 35 -2 47 -241 250
-221 188 -300 251 -373 296 -39 24 -52 37 -47 49 23 57 45 175 45 240 0 78
-26 205 -56 276 -57 137 -187 275 -324 344 -209 106 -446 99 -597 -16 l-43
-33 0 90 c0 64 4 92 13 94 6 2 44 11 82 20 122 30 211 80 295 165 117 118 170
224 192 383 19 134 -19 294 -97 413 -52 78 -155 170 -237 211 -209 105 -488
77 -651 -66 l-47 -42 -27 34 c-175 216 -396 317 -668 305 -214 -9 -386 -76
-526 -205 -65 -59 -146 -162 -163 -204 -6 -16 -13 -28 -16 -28 -3 0 -36 89
-74 198 -38 108 -75 209 -83 225 -19 38 -50 36 -68 -5z m1154 -68 c138 -39
273 -125 358 -229 67 -82 69 -91 39 -135 -59 -87 -96 -248 -79 -346 9 -52 7
-58 -20 -98 -73 -109 -107 -235 -107 -397 l0 -94 -92 -20 c-294 -67 -573 -129
-574 -127 -12 14 -424 985 -424 999 0 7 19 46 42 87 58 106 187 232 293 287
197 101 378 124 564 73z m-1811 -75 c156 -32 314 -119 442 -242 l71 -68 -101
-230 c-55 -126 -162 -368 -236 -536 l-135 -306 -87 24 c-48 12 -157 39 -242
59 -85 20 -156 37 -157 38 -1 1 4 24 12 51 20 64 19 207 -1 276 -24 83 -80
175 -145 238 l-59 58 0 63 c0 80 -22 165 -66 252 -41 81 -40 83 43 158 102 91
245 158 386 181 67 10 183 4 275 -16z m760 -266 c-17 -21 -36 -40 -44 -43 -18
-7 -94 73 -94 99 0 11 16 69 36 129 l36 108 49 -127 48 -128 -31 -38z m-1908
191 c89 -14 213 -76 272 -137 l48 -48 -19 -50 c-10 -28 -22 -65 -26 -82 -6
-29 -3 -34 20 -45 31 -14 39 -6 56 60 6 23 15 42 19 42 22 0 70 -154 70 -223
l0 -48 -32 18 c-25 13 -57 17 -128 18 -84 0 -101 -3 -146 -27 -66 -35 -138
-115 -162 -181 -11 -29 -22 -83 -26 -122 -4 -38 -8 -71 -10 -72 -2 -2 -26 8
-54 23 -76 39 -82 30 -82 -113 0 -130 11 -121 -97 -81 -211 78 -352 290 -353
528 0 148 52 270 161 381 129 131 303 188 489 159z m4070 -46 c141 -68 244
-180 299 -324 21 -55 25 -82 25 -175 0 -94 -4 -120 -26 -177 -76 -200 -227
-336 -425 -382 l-63 -14 0 119 c0 66 -4 127 -9 137 -5 9 -14 46 -21 82 -22
122 -83 210 -178 257 -48 24 -69 28 -137 28 -77 0 -94 -5 -187 -53 -26 -13 11
199 47 268 20 38 29 33 50 -30 18 -55 49 -75 71 -46 14 19 8 47 -28 134 l-23
54 46 42 c103 93 203 127 364 123 106 -2 113 -4 195 -43z m-2211 -254 c36 0
47 6 76 38 l35 37 0 -26 c0 -15 -14 -60 -31 -100 -17 -41 -38 -93 -47 -116 -9
-24 -19 -43 -22 -43 -9 0 -130 263 -130 281 0 8 17 -5 39 -29 34 -36 44 -42
80 -42z m-108 -126 c58 -125 67 -154 48 -154 -32 0 -137 -60 -168 -95 -19 -22
-45 -63 -59 -93 -20 -45 -23 -64 -20 -125 3 -40 8 -79 12 -88 5 -10 -45 -79
-165 -230 -94 -118 -174 -216 -177 -219 -16 -15 22 74 253 595 58 132 132 302
163 377 31 76 58 138 60 138 2 0 25 -48 53 -106z m458 -409 c104 -242 214
-496 245 -564 31 -68 55 -125 54 -127 -4 -4 -153 181 -286 357 l-111 146 14
39 c24 66 19 162 -11 222 -32 64 -98 132 -153 156 -22 11 -41 22 -41 26 0 7
47 123 70 173 8 15 17 24 21 20 5 -5 94 -206 198 -448z m-1850 264 c21 -6 47
-19 59 -28 22 -16 22 -17 6 -64 -19 -57 -80 -113 -132 -122 -23 -3 -54 0 -79
9 -38 13 -44 13 -58 0 -20 -21 -19 -27 11 -55 22 -21 35 -24 92 -24 105 1 190
59 228 156 9 21 20 39 24 39 10 0 70 -74 97 -120 50 -83 67 -227 41 -340 -10
-45 -14 -51 -32 -45 -12 3 -86 21 -166 39 -80 19 -165 42 -190 52 -56 22 -174
88 -219 122 l-34 25 5 81 c4 54 13 97 28 129 26 55 104 129 152 144 45 15 123
15 167 2z m3284 -18 c60 -29 110 -94 131 -172 32 -111 35 -105 -129 -203 -173
-104 -257 -144 -333 -157 -32 -6 -66 -13 -76 -16 -18 -5 -19 0 -13 118 6 133
23 207 64 277 l25 43 16 -23 c37 -57 98 -108 145 -124 66 -22 142 -13 175 20
l24 24 -21 21 c-20 20 -23 20 -51 6 -37 -19 -71 -19 -117 0 -50 21 -71 41 -99
96 -22 44 -22 48 -6 62 65 59 176 71 265 28z m-1892 -118 c-15 -27 -51 -86
-80 -133 l-51 -85 0 47 c0 75 35 140 103 189 22 16 44 29 48 29 5 0 -4 -21
-20 -47z m248 -14 c50 -50 81 -116 81 -168 -1 -64 -18 -46 -83 84 -37 74 -63
135 -58 135 6 0 32 -23 60 -51z m-72 -103 c30 -60 66 -127 80 -149 l25 -39
-28 -29 c-80 -83 -284 -68 -333 25 -13 24 -11 31 41 113 30 48 73 118 94 155
46 80 40 84 121 -76z m-1857 -231 c91 -51 198 -106 239 -122 l75 -28 -140 -6
c-92 -4 -159 -13 -198 -25 -61 -19 -140 -79 -151 -115 -4 -11 -9 -19 -11 -16
-2 2 -5 97 -6 210 -3 181 -1 207 12 202 8 -4 89 -48 180 -100z m3740 -102 l0
-197 -42 41 c-78 76 -177 103 -382 103 -66 0 -117 2 -114 5 2 3 30 10 61 16
83 15 138 41 382 183 44 25 83 46 87 46 5 0 8 -89 8 -197z m-2166 68 c90 -94
305 -102 386 -16 13 14 27 25 31 25 3 0 45 -51 91 -112 47 -62 121 -158 166
-213 45 -54 80 -101 78 -102 -1 -1 -18 2 -37 7 -19 6 -108 22 -199 37 -232 37
-412 37 -655 0 -99 -15 -197 -31 -217 -36 -21 -5 -38 -7 -38 -4 0 3 26 35 58
72 70 79 251 305 276 344 10 15 21 27 25 27 4 0 20 -13 35 -29z m-854 -190
c140 -34 281 -69 313 -78 64 -18 61 -7 27 -108 l-17 -50 -129 -3 c-71 -2 -229
0 -352 3 -200 7 -223 9 -217 24 3 8 11 63 17 122 10 92 14 107 32 115 12 5 20
17 19 28 -1 22 -17 25 307 -53z m2392 22 c6 -7 20 -13 32 -13 20 0 23 -7 33
-107 6 -60 10 -110 8 -111 -4 -4 -593 -51 -640 -52 -28 0 -32 5 -64 86 -18 47
-31 87 -29 89 3 3 135 34 294 70 159 36 303 69 319 73 24 7 31 5 34 -7 2 -9 8
-22 13 -28z m-2812 -68 c0 -25 -3 -45 -6 -45 -4 0 -22 14 -42 31 -19 17 -49
37 -66 45 -30 13 -28 13 42 14 l72 0 0 -45z m3054 31 c-16 -7 -47 -32 -66 -56
l-36 -42 -7 45 c-4 25 -4 50 0 56 3 6 36 11 73 11 65 -1 66 -1 36 -14z m-3803
-42 c59 -19 133 -67 159 -104 19 -26 20 -44 20 -304 0 -320 -1 -325 -97 -421
-104 -104 -221 -164 -351 -178 l-42 -5 -22 49 c-44 103 -168 164 -286 142 -31
-6 -64 -14 -73 -18 -27 -10 -59 119 -59 235 0 115 18 191 68 283 71 132 189
239 326 296 123 51 246 60 357 25z m4764 -6 c106 -35 176 -79 260 -163 124
-124 185 -267 185 -435 0 -72 -27 -201 -47 -221 -5 -5 -32 -5 -63 0 -74 12
-154 -2 -209 -37 -35 -21 -53 -42 -76 -88 l-30 -61 -40 5 c-63 6 -155 32 -199
54 -113 57 -232 164 -267 241 -17 38 -19 68 -19 305 l0 263 50 54 c80 83 185
119 325 108 39 -3 97 -14 130 -25z m-4385 -7 c-44 -63 -61 -150 -40 -206 15
-40 -7 -20 -25 22 -19 45 -19 74 0 119 13 31 68 94 82 94 2 0 -5 -13 -17 -29z
m3722 -18 c51 -53 60 -111 28 -178 l-18 -40 5 61 c6 66 -17 136 -60 183 -20
22 -20 23 -2 13 11 -6 32 -23 47 -39z m-3468 -7 c46 -27 76 -75 76 -120 0 -41
-39 -110 -77 -136 -71 -48 -181 -21 -217 54 -38 81 -10 175 65 214 52 28 91
25 153 -12z m3343 8 c12 -7 34 -30 49 -49 49 -65 28 -173 -44 -217 -43 -27
-113 -29 -159 -5 -74 39 -105 143 -63 211 46 75 150 104 217 60z m-1382 -178
c295 -52 278 -37 154 -132 -198 -152 -271 -192 -409 -222 -76 -17 -93 -17
-163 -5 -136 23 -226 65 -366 171 -168 127 -193 149 -176 155 15 6 228 42 370
62 157 22 350 13 590 -29z m1100 -61 c67 -115 208 -153 320 -86 24 14 45 19
61 15 21 -5 33 2 70 40 l44 46 0 -217 c0 -208 1 -220 24 -268 49 -105 212
-245 343 -295 146 -55 380 -66 478 -21 28 12 71 40 98 62 l47 40 0 -28 c0 -51
-41 -153 -92 -229 -27 -40 -53 -76 -58 -79 -32 -20 -680 99 -937 172 -90 25
-93 27 -119 72 -65 112 -156 233 -239 319 -134 139 -400 336 -585 433 l-45 24
95 8 c52 4 165 14 250 21 237 20 214 23 245 -29z m-3377 -44 c15 -15 30 -21
44 -18 13 4 34 -3 56 -18 92 -63 213 -52 290 26 23 22 44 49 47 60 6 18 18 19
209 19 112 0 244 -3 295 -7 l92 -6 -58 -37 c-32 -21 -103 -66 -158 -101 -130
-83 -321 -237 -411 -330 -67 -69 -194 -250 -242 -344 -23 -45 -47 -55 -254
-100 -161 -36 -725 -135 -768 -135 -39 0 -160 214 -174 308 l-6 44 47 -41 c82
-69 131 -85 268 -89 199 -6 326 33 472 145 86 65 123 110 160 190 l27 58 -2
230 -2 230 22 -30 c13 -16 33 -41 46 -54z m1329 -44 c180 -144 198 -157 286
-203 l79 -41 -88 -16 c-208 -39 -500 -90 -515 -91 -8 -1 -36 25 -62 56 l-46
57 43 67 c24 36 70 113 103 170 32 57 61 104 65 104 4 0 65 -46 135 -103z
m1360 6 c25 -43 67 -117 95 -166 l50 -87 -45 -49 c-25 -26 -55 -67 -66 -90
-19 -36 -24 -40 -42 -31 -11 6 -118 46 -237 90 -119 43 -228 82 -242 88 -24 9
-23 10 30 37 76 38 144 86 285 198 65 53 121 95 123 92 2 -2 24 -39 49 -82z
m-1638 -10 c-12 -21 -46 -75 -75 -120 l-53 -82 -43 15 c-24 8 -62 16 -85 16
-24 1 -43 4 -43 7 0 9 297 199 313 200 5 1 -1 -16 -14 -36z m1931 -102 l105
-66 -65 -6 c-36 -4 -78 -11 -93 -18 -16 -6 -30 -11 -32 -11 -5 0 -135 218
-135 226 0 8 96 -46 220 -125z m-2137 -142 c21 -5 40 -16 43 -24 3 -7 -45
-105 -106 -216 l-111 -204 -116 -80 c-64 -44 -125 -84 -134 -89 -14 -7 -37 6
-103 55 -47 35 -85 67 -86 72 0 12 96 163 147 230 65 84 165 181 220 214 78
45 175 62 246 42z m2344 -28 c108 -51 278 -232 379 -404 l33 -56 -87 -70 c-48
-38 -89 -66 -92 -62 -3 4 -43 29 -90 56 -155 89 -182 113 -241 222 -29 54 -79
145 -111 203 -32 57 -58 108 -58 111 0 15 58 27 130 28 63 1 85 -4 137 -28z
m-832 -95 c132 -48 256 -93 275 -100 l35 -14 -3 -75 c-4 -83 14 -164 53 -234
l23 -42 -28 6 c-42 8 -87 -10 -297 -122 l-192 -102 -6 56 c-10 83 -54 350 -65
391 -20 76 -128 140 -233 140 -107 0 -205 -49 -243 -121 -14 -28 -67 -297 -80
-412 -4 -31 -8 -57 -10 -57 -2 0 -99 48 -216 107 -176 88 -221 107 -258 108
l-46 0 27 65 c52 125 58 209 23 336 -6 24 6 27 436 100 502 84 492 85 805 -30z
m-1349 -12 l39 -56 -30 -25 c-26 -21 -183 -132 -222 -156 -7 -4 0 14 15 40 16
26 54 96 86 156 32 59 61 105 65 102 5 -2 26 -30 47 -61z m1955 -116 c28 -51
56 -99 62 -106 5 -7 8 -14 6 -16 -5 -5 -211 122 -249 152 l-24 19 28 44 c16
24 38 54 49 67 l21 22 28 -45 c15 -25 51 -87 79 -137z m-1893 -95 c-12 -181
-112 -315 -280 -372 -62 -22 -167 -34 -187 -22 -20 13 88 190 147 241 58 50
304 228 316 229 5 1 6 -34 4 -76z m-1860 39 c34 -15 82 -69 82 -92 0 -20 -120
-5 -172 21 -43 21 -98 66 -98 80 0 22 136 15 188 -9z m3736 -102 l139 -85 78
-117 c44 -65 79 -119 79 -121 0 -11 -90 -14 -144 -6 -205 33 -366 209 -366
401 l0 59 38 -23 c20 -13 100 -61 176 -108z m1824 120 c59 0 -16 -80 -100
-105 -52 -15 -128 -20 -128 -9 0 4 9 22 21 41 30 48 114 88 164 77 11 -2 30
-4 43 -4z m-2777 -11 c54 -18 87 -56 99 -113 15 -66 57 -320 55 -324 -1 -1
-36 32 -76 75 -91 96 -161 163 -171 163 -3 0 -57 -54 -119 -120 -62 -66 -114
-119 -115 -117 -3 2 8 63 41 234 14 68 31 134 40 147 37 55 161 83 246 55z
m3005 -96 c47 -36 217 -177 376 -313 42 -36 73 -66 68 -68 -9 -3 -643 68 -648
73 -2 1 18 35 43 74 49 76 79 151 90 226 4 25 11 45 15 45 4 0 29 -17 56 -37z
m-1304 -280 c31 -71 68 -162 83 -203 33 -92 85 -293 85 -326 l0 -25 -47 28
c-37 21 -61 28 -104 28 -79 0 -128 -34 -166 -114 -15 -33 -31 -60 -35 -60 -3
-1 -8 38 -10 87 -3 81 -9 100 -82 285 -44 108 -77 198 -75 200 63 45 205 156
239 186 25 22 48 40 51 41 3 0 31 -57 61 -127z m-3195 -108 c3 -2 -141 -346
-162 -388 -9 -18 -15 -59 -15 -101 l-1 -71 -21 40 c-25 50 -64 92 -102 112
-55 29 -144 13 -198 -35 -16 -14 -18 -14 -18 1 0 9 18 85 39 170 36 142 117
371 162 460 l20 38 147 -112 c81 -62 148 -113 149 -114z m71 148 c-17 -32 -35
-62 -39 -67 -9 -10 -59 19 -59 34 0 9 108 89 123 89 4 1 -7 -25 -25 -56z
m3212 47 c156 -47 749 -160 836 -160 19 0 34 -2 34 -6 0 -10 -111 -142 -124
-147 -25 -10 -58 -94 -58 -151 -1 -85 51 -150 135 -171 l28 -8 -39 -26 c-22
-14 -140 -75 -262 -136 -198 -99 -222 -108 -231 -93 -5 10 -45 60 -87 110 -72
86 -78 97 -80 143 -6 105 -84 380 -153 539 -23 50 -43 97 -46 104 -6 15 2 15
47 2z m-477 -38 c31 -19 57 -38 57 -43 0 -9 -49 -44 -54 -38 -6 7 -63 94 -71
108 -10 17 -5 15 68 -27z m-1280 -88 c61 -63 113 -119 115 -123 1 -3 -50 -33
-114 -64 l-116 -58 -119 52 c-66 29 -122 56 -126 62 -5 9 225 247 240 247 4 0
58 -52 120 -116z m-2043 26 c-143 -193 -272 -504 -302 -727 -7 -46 -15 -83
-20 -83 -12 0 -269 154 -372 223 l-89 59 44 22 c78 39 113 119 90 205 -13 47
-17 55 -99 150 -28 34 -52 66 -52 70 0 5 42 14 92 21 133 17 515 86 638 114
58 13 111 24 117 25 7 1 -14 -35 -47 -79z m2791 25 c95 -50 89 -198 -10 -225
-66 -17 -138 26 -162 97 -33 100 73 179 172 128z m-1621 -10 c54 -28 73 -94
46 -159 -50 -119 -236 -83 -236 46 0 33 35 85 72 108 39 24 79 25 118 5z
m-1119 -117 c-49 -132 -100 -321 -113 -421 l-12 -92 -80 -90 c-44 -49 -83 -91
-87 -93 -8 -3 13 121 35 203 24 92 72 219 126 330 48 101 148 260 157 251 3
-2 -9 -42 -26 -88z m2492 39 c-3 -12 2 -42 11 -67 8 -24 13 -46 11 -48 -2 -2
-57 4 -122 15 l-117 18 104 52 c58 28 108 52 111 52 3 1 4 -9 2 -22z m-1628
-26 c-9 -57 51 -252 136 -434 13 -28 11 -30 -107 -148 -116 -116 -134 -131
-134 -108 0 23 -43 70 -87 96 -92 53 -214 25 -276 -64 -15 -22 -27 -44 -27
-50 0 -7 -5 -15 -11 -19 -8 -5 -9 29 -4 122 4 71 8 140 10 154 2 14 36 102 75
195 40 94 77 182 83 198 11 26 13 27 93 27 85 0 190 25 229 54 27 21 28 21 20
-23z m522 -22 c78 -36 89 -49 46 -49 -16 0 -68 -9 -118 -19 -49 -10 -91 -18
-93 -16 -1 1 5 18 13 38 8 20 15 52 15 72 l0 35 33 -14 c17 -7 64 -29 104 -47z
m1525 41 c56 -33 151 -52 242 -48 l84 3 76 -185 c42 -102 78 -201 81 -220 10
-77 25 -335 29 -512 l6 -187 -106 -203 c-137 -263 -128 -250 -160 -238 -58 22
-188 7 -284 -34 -12 -5 -15 5 -15 61 0 70 -3 79 -111 341 -19 46 -34 89 -34
95 1 7 49 52 107 100 l106 88 32 -58 c40 -73 92 -111 162 -120 168 -19 294
167 239 351 -34 112 -113 178 -215 178 -85 0 -147 -38 -197 -120 -2 -4 -154
153 -202 209 l-32 36 69 154 c86 194 94 219 89 279 -1 28 -2 50 -1 50 1 0 17
-9 35 -20z m1977 -35 c74 -9 137 -18 139 -20 2 -2 -20 -31 -49 -65 -37 -43
-57 -59 -68 -54 -43 18 -236 74 -257 74 -31 0 -30 4 9 51 27 34 36 39 62 34
17 -2 91 -12 164 -20z m-3439 -234 c-35 -66 -70 -123 -79 -125 -21 -7 -238
-56 -245 -56 -3 0 24 58 58 128 l64 128 128 25 c71 14 131 24 132 23 2 -1 -24
-57 -58 -123z m908 109 c63 -11 117 -22 122 -25 9 -5 130 -229 130 -240 0 -13
-250 42 -266 59 -25 25 -124 226 -112 226 7 0 64 -9 126 -20z m-662 -36 l99
-46 -30 -15 c-30 -16 -285 -104 -285 -99 0 2 22 43 50 92 27 49 50 95 50 102
0 18 9 16 116 -34z m503 -46 c28 -50 50 -95 49 -99 -3 -8 -189 47 -253 75 -39
17 -39 18 -20 33 21 16 155 83 166 83 4 0 30 -41 58 -92z m496 47 l73 0 -13
-30 c-28 -64 -77 -165 -81 -165 -6 0 -114 218 -114 230 0 6 14 0 31 -12 25
-19 43 -23 104 -23z m-3493 -4 c28 -25 33 -36 33 -73 0 -58 -25 -94 -74 -109
-82 -24 -163 53 -140 133 22 80 118 106 181 49z m5478 12 c41 -28 49 -45 50
-100 0 -73 -27 -104 -98 -111 -49 -4 -54 -2 -87 31 -30 30 -35 42 -35 80 0 92
98 150 170 100z m-3561 -117 c-28 -64 -53 -115 -54 -114 -7 8 -85 198 -85 207
0 6 11 6 31 -1 34 -12 133 4 145 23 3 6 8 8 11 5 3 -2 -19 -57 -48 -120z
m3710 83 c17 -6 31 -14 31 -17 -1 -4 -14 -22 -29 -40 l-29 -34 -3 51 c-2 28
-4 51 -3 51 1 0 15 -5 33 -11z m185 -58 l48 -17 -28 -13 c-16 -8 -78 -36 -137
-62 l-109 -48 74 79 c40 43 80 78 88 78 8 0 37 -7 64 -17z m-3064 -41 c86 -42
100 -59 33 -41 -48 14 -187 14 -232 1 -19 -5 -36 -8 -38 -7 -1 2 32 22 75 45
42 22 77 41 78 41 0 1 38 -17 84 -39z m86 -130 c85 -41 157 -113 197 -197 29
-61 32 -77 32 -158 0 -123 -28 -196 -107 -280 -84 -90 -137 -110 -288 -110
-109 0 -118 2 -181 33 -222 108 -286 406 -128 597 88 106 171 144 318 145 84
0 100 -3 157 -30z m244 20 c11 -6 25 -20 31 -33 11 -21 11 -21 -17 3 -16 14
-33 28 -38 32 -14 11 2 10 24 -2z m-827 -24 c-15 -13 -30 -22 -32 -20 -7 7 31
44 46 44 8 0 2 -10 -14 -24z m59 -68 c-78 -103 -96 -155 -96 -278 -1 -58 3
-121 8 -140 8 -33 3 -30 -90 62 l-98 96 52 59 c50 58 258 263 267 263 2 0 -17
-28 -43 -62z m996 38 c62 -13 115 -26 118 -29 4 -4 -70 -192 -81 -205 -4 -5
-94 135 -124 196 -17 34 -30 62 -28 62 1 0 53 -11 115 -24z m-1214 -78 c-26
-45 -58 -100 -71 -122 l-25 -38 -45 96 c-25 54 -44 98 -42 100 7 4 224 53 227
50 2 -1 -18 -40 -44 -86z m995 13 c42 -39 107 -104 145 -146 l69 -76 -95 -93
-95 -93 16 63 c28 117 -16 283 -99 377 -50 57 -26 44 59 -32z m1444 56 c18 -8
49 -32 69 -55 46 -51 52 -90 47 -331 l-4 -180 -30 -31 c-80 -84 -166 -79 -220
13 -31 53 -84 203 -91 261 -13 94 63 287 126 318 42 22 61 22 103 5z m-3568
-24 c15 -15 35 -44 45 -63 22 -43 62 -202 62 -244 0 -62 -75 -237 -125 -293
-36 -40 -113 -26 -164 29 -37 40 -48 136 -44 405 1 78 3 84 33 119 70 79 143
97 193 47z m2696 -204 c93 -103 92 -106 -57 -233 -64 -54 -117 -97 -118 -95
-2 2 -23 63 -46 135 l-43 130 28 75 c16 41 37 94 48 118 l19 43 50 -48 c27
-27 81 -83 119 -125z m-1778 84 c72 -154 71 -141 19 -286 -25 -70 -48 -127
-51 -127 -7 0 -174 140 -223 187 -23 23 -34 41 -31 52 6 17 233 251 244 251 3
0 22 -35 42 -77z m-471 -23 c79 -22 128 -127 108 -232 -35 -182 -213 -214
-292 -53 -25 50 -29 97 -13 152 18 62 45 97 93 123 43 22 54 23 104 10z m2595
-9 c114 -52 138 -233 44 -333 -30 -33 -45 -41 -83 -45 -65 -7 -109 21 -144 92
-23 47 -26 65 -23 127 5 87 30 130 93 159 51 23 61 23 113 0z m818 -114 c25
-33 45 -64 45 -71 0 -6 -37 -47 -81 -91 -45 -44 -79 -72 -75 -62 3 10 6 94 6
185 l1 167 29 -35 c17 -19 51 -61 75 -93z m-4161 66 c-3 -27 -1 -103 3 -170 5
-68 7 -123 6 -123 -8 0 -62 53 -109 107 l-55 62 72 86 c40 47 76 85 80 85 5 0
6 -21 3 -47z m4435 -22 c-25 -21 -65 -54 -90 -73 l-45 -35 -18 25 c-22 29 -23
29 84 73 41 17 79 35 85 40 5 5 13 9 18 9 6 0 -10 -17 -34 -39z m-2960 -386
c-4 -4 -211 44 -217 50 -2 2 13 49 34 105 l37 102 74 -127 c41 -69 73 -128 72
-130z m1252 138 c16 -48 29 -88 29 -89 0 -2 -35 -10 -77 -19 -43 -9 -90 -20
-105 -25 -16 -5 -28 -5 -28 0 0 5 30 63 67 130 75 137 68 137 114 3z m-2978
-7 c25 -289 152 -592 327 -780 l60 -63 -113 -7 c-61 -4 -184 -13 -272 -21 -88
-8 -198 -17 -245 -20 -47 -4 -125 -10 -175 -15 -49 -4 -92 -6 -94 -4 -5 5 104
139 150 185 95 95 71 257 -45 310 -22 10 -51 19 -63 19 -16 0 38 58 215 235
130 129 240 235 243 235 3 0 9 -33 12 -74z m224 -78 c48 -50 52 -58 68 -137
25 -124 89 -344 141 -482 24 -67 42 -124 38 -128 -10 -10 -131 127 -190 215
-114 171 -195 409 -217 636 l-5 48 57 -49 c31 -27 79 -73 108 -103z m528 103
c9 -42 68 -106 121 -131 37 -18 56 -22 102 -17 75 8 128 45 167 119 17 31 33
59 36 63 7 6 229 -182 229 -195 0 -4 -13 -39 -30 -78 -16 -38 -50 -125 -76
-193 -37 -101 -45 -134 -42 -177 2 -43 0 -51 -12 -46 -95 41 -184 52 -252 31
-48 -15 -48 -15 -61 12 -8 14 -60 114 -115 222 -111 214 -112 215 -96 367 7
64 18 73 29 23z m2032 -28 c-14 -21 -38 -66 -55 -99 -27 -53 -35 -62 -64 -67
-18 -3 -42 -9 -53 -13 -11 -4 14 28 55 72 41 43 88 96 104 117 37 48 45 41 13
-10z m1692 -95 c-3 -266 -77 -511 -200 -658 l-50 -60 -76 0 c-67 0 -75 2 -70
18 3 9 28 71 56 137 59 143 116 327 135 438 l14 80 93 93 c52 52 95 94 97 94
1 0 2 -64 1 -142z m98 112 c73 -57 443 -384 443 -392 0 -4 -11 -8 -24 -8 -69
0 -150 -68 -165 -138 -18 -88 -4 -121 128 -277 35 -42 61 -78 59 -81 -3 -2
-68 2 -144 10 -76 9 -231 22 -343 31 -113 8 -206 17 -209 19 -2 3 15 29 37 58
22 30 56 88 75 129 82 180 109 306 110 516 1 84 3 153 4 153 2 0 15 -9 29 -20z
m-2661 -197 c-1 -2 -22 3 -45 10 -39 11 -48 19 -87 87 -24 41 -43 78 -43 82
-1 4 39 -34 88 -85 49 -51 88 -93 87 -94z m2034 30 c8 -11 33 -32 54 -47 48
-32 114 -35 169 -7 20 10 37 15 37 9 0 -55 -96 -353 -161 -501 -22 -51 -43
-100 -46 -109 -7 -23 -18 -23 -51 0 -15 10 -89 54 -164 96 -76 43 -138 80
-138 84 0 3 40 80 89 171 157 294 153 284 146 360 l-6 66 28 -51 c15 -28 35
-60 43 -71z m-3204 -223 c51 -96 103 -195 117 -219 l26 -45 -97 -64 c-53 -35
-125 -84 -160 -109 l-62 -44 -11 28 c-73 189 -101 270 -155 463 -48 169 -53
200 -29 180 30 -25 102 -39 142 -28 41 11 122 86 125 116 0 9 4 -10 7 -43 5
-50 21 -89 97 -235z m2354 75 l37 -90 -206 -36 c-113 -20 -230 -41 -260 -48
-30 -6 -55 -10 -56 -9 -2 2 29 62 69 135 l71 131 140 35 140 34 14 -31 c8 -17
31 -71 51 -121z m-1438 109 l107 -26 62 -101 c34 -56 69 -113 78 -126 l15 -24
-49 7 c-28 4 -93 14 -145 22 -52 8 -152 23 -221 32 l-125 17 45 118 46 118 40
-6 c22 -3 88 -17 147 -31z m319 -84 c49 -16 114 -43 146 -59 l57 -29 -92 -46
c-50 -25 -94 -46 -96 -46 -5 0 -114 179 -124 202 -6 14 18 9 109 -22z m679 24
c0 -4 -102 -193 -114 -211 -3 -4 -196 98 -196 103 0 7 84 43 190 79 97 34 120
40 120 29z m-293 -20 c-1 -1 -25 -13 -53 -27 l-51 -26 -57 27 -58 27 110 0
c61 0 110 -1 109 -1z m3037 -63 c87 -54 116 -174 63 -264 l-28 -48 -28 23
c-16 13 -83 70 -150 128 l-122 105 38 33 c20 18 51 37 67 42 47 14 119 6 160
-19z m-3023 -126 c60 -31 107 -60 104 -64 -3 -5 -54 -52 -113 -104 l-108 -94
-109 98 c-60 53 -110 101 -112 106 -2 8 191 109 215 111 7 1 62 -23 123 -53z
m2689 -12 c35 -20 50 -52 50 -103 0 -106 -138 -147 -200 -60 -23 32 -27 106
-7 130 39 50 105 64 157 33z m-5505 -7 c40 -17 65 -60 65 -112 0 -50 -53 -104
-101 -104 -66 1 -119 55 -119 120 1 88 71 131 155 96z m1917 -6 c101 -29 129
-169 44 -221 -39 -24 -60 -24 -113 1 -101 45 -112 169 -18 211 48 22 41 21 87
9z m1653 -6 c20 -9 40 -30 50 -51 46 -96 -73 -206 -172 -159 -84 40 -78 173
10 211 42 19 72 18 112 -1z m-1398 -19 c59 -9 114 -18 122 -21 17 -6 -2 -18
-130 -86 l-86 -45 0 51 c0 29 -8 66 -17 84 -9 17 -12 32 -7 32 6 0 59 -7 118
-15z m1164 -13 c-6 -12 -11 -43 -11 -71 0 -28 -2 -51 -4 -51 -2 0 -53 23 -112
52 l-109 51 107 18 c59 9 113 19 120 22 19 6 21 1 9 -21z m2449 -184 c-37 -22
-47 -43 -29 -64 15 -19 49 -12 89 18 l28 20 121 -97 c67 -53 121 -101 121
-107 0 -5 -4 -7 -9 -4 -9 6 -284 32 -461 44 l-95 7 -47 63 c-27 35 -48 66 -48
70 0 4 9 8 20 9 11 1 39 12 62 25 55 30 88 87 88 151 l0 48 95 -82 95 -82 -30
-19z m-3357 -62 c29 -146 41 -187 64 -220 104 -148 397 -114 447 53 7 25 28
115 46 199 19 83 37 152 42 152 5 0 72 -32 151 -71 173 -87 255 -119 306 -119
l39 0 -28 -52 c-16 -29 -33 -72 -40 -96 -17 -65 -14 -191 6 -241 9 -23 15 -43
13 -45 -2 -2 -157 -20 -344 -40 l-340 -36 -90 20 c-49 11 -220 51 -380 90
-159 39 -305 74 -322 77 -33 6 -33 6 -33 62 0 65 -20 135 -55 199 -14 24 -25
46 -25 48 0 2 17 4 38 4 65 0 131 27 297 120 88 49 162 86 166 82 3 -4 22 -88
42 -186z m478 -4 c-22 -88 -46 -170 -53 -181 -23 -37 -77 -56 -160 -56 -128 0
-150 28 -197 250 -16 77 -29 141 -27 142 1 1 50 -40 109 -92 59 -52 113 -95
119 -95 12 0 68 44 172 137 39 34 72 61 73 59 2 -2 -14 -76 -36 -164z m1042
117 c20 -5 37 -13 37 -17 0 -24 -83 -137 -125 -170 -60 -47 -332 -232 -341
-232 -4 0 -5 33 -2 73 5 81 35 159 84 216 59 70 185 130 294 140 8 0 32 -4 53
-10z m-2312 -24 c136 -48 235 -173 263 -332 3 -18 3 -33 0 -33 -3 0 -87 44
-186 98 l-181 97 -53 80 c-58 86 -63 101 -36 109 29 8 147 -3 193 -19z m2457
-37 l36 -22 -60 -27 c-32 -15 -63 -28 -67 -28 -5 -1 4 21 20 49 15 27 30 50
32 50 2 0 20 -10 39 -22z m-2700 -47 c13 -23 20 -41 15 -41 -4 1 -35 13 -68
28 l-59 28 34 20 c40 24 47 21 78 -35z m2903 -68 c49 -27 89 -51 89 -55 0 -9
-107 -164 -158 -228 -58 -74 -183 -187 -242 -219 -70 -38 -167 -55 -227 -39
-24 6 -45 14 -48 18 -3 4 22 56 54 116 32 60 83 157 114 215 31 58 63 111 70
117 21 18 231 122 246 122 7 0 53 -21 102 -47z m-2938 -28 c55 -24 94 -47 106
-64 18 -26 94 -163 190 -343 l51 -96 -36 -12 c-91 -30 -228 14 -341 109 -91
76 -290 325 -281 351 1 5 39 34 83 64 91 61 64 62 228 -9z m3502 -45 c314 -23
609 -48 642 -55 29 -7 98 -113 118 -182 6 -22 5 -21 -52 7 -83 42 -150 54
-273 47 -195 -11 -375 -82 -486 -192 -98 -97 -144 -206 -144 -345 l0 -75 -31
38 c-40 48 -80 70 -111 58 -16 -6 -30 -3 -48 8 -17 11 -47 16 -100 16 -68 0
-82 -4 -126 -30 -29 -18 -57 -46 -69 -68 l-20 -37 -191 0 c-105 0 -239 3 -297
6 l-106 7 45 29 c25 15 68 40 97 54 249 126 525 374 687 617 l85 128 50 -6
c27 -3 176 -14 330 -25z m-3838 -112 c184 -267 375 -430 698 -595 88 -45 152
-82 142 -83 -10 0 -93 -4 -185 -10 -338 -19 -442 -20 -442 -6 0 23 -73 98
-114 117 -51 23 -125 24 -174 3 -20 -9 -52 -16 -71 -15 -28 2 -42 -7 -89 -54
-30 -30 -55 -55 -56 -55 -1 0 -2 37 -3 83 -2 146 -59 266 -175 371 -119 109
-267 164 -459 173 -127 6 -195 -7 -278 -53 -24 -13 -46 -23 -47 -21 -2 2 14
40 36 85 44 93 32 86 200 101 425 39 683 57 836 59 l110 2 71 -102z m756 -45
c68 -36 107 -62 107 -72 -1 -31 -39 -100 -81 -145 l-42 -46 -98 185 c-55 102
-99 187 -99 190 0 3 24 -8 53 -25 28 -17 100 -56 160 -87z m1972 -59 c-46 -87
-88 -166 -93 -174 -8 -13 -16 -10 -44 18 -40 38 -84 120 -72 132 17 15 287
190 290 187 2 -2 -35 -75 -81 -163z m2155 130 c113 -8 212 -18 220 -20 18 -6
-165 -82 -312 -129 -59 -19 -110 -35 -113 -35 -3 0 -5 8 -5 18 0 10 -18 55
-40 101 -22 45 -40 84 -40 87 0 2 19 2 43 -1 23 -3 134 -12 247 -21z m-470
-170 c84 -19 99 -34 35 -34 -47 0 -115 24 -115 41 0 12 -1 12 80 -7z m-5414
-16 c-42 -22 -156 -37 -156 -21 0 15 90 41 145 42 l50 0 -39 -21z m2554 -128
c17 -1 6 -8 -38 -25 -34 -13 -93 -44 -130 -68 -86 -56 -377 -271 -386 -286 -4
-6 -11 -11 -15 -11 -9 0 -90 116 -158 227 l-51 81 47 50 c26 28 62 79 79 115
l32 64 297 -73 c164 -40 309 -74 323 -74z m2709 119 c35 -47 118 -81 199 -81
37 0 73 2 81 4 19 4 66 -66 86 -130 25 -78 22 -219 -5 -307 -47 -151 -154
-300 -274 -381 l-51 -35 -30 35 c-46 52 -118 102 -176 121 -59 20 -198 23
-244 5 -23 -9 -30 -8 -36 3 -5 7 -29 42 -55 77 l-46 63 4 151 c4 167 15 207
80 288 81 103 260 191 439 217 3 1 16 -13 28 -30z m-5034 6 c158 -40 311 -156
369 -279 29 -61 46 -174 45 -296 0 -58 -5 -72 -43 -135 -26 -42 -48 -69 -57
-67 -85 21 -135 25 -205 14 -97 -15 -182 -60 -239 -125 l-44 -50 -44 29 c-135
88 -239 227 -287 379 -28 89 -31 243 -7 326 22 75 57 126 83 119 10 -3 53 -5
94 -5 62 0 85 5 133 28 31 16 65 39 75 52 20 29 46 31 127 10z m3314 -151 l52
-56 -32 -62 c-63 -119 -123 -228 -135 -244 -1 -2 -78 51 -170 117 -92 67 -207
147 -257 179 l-89 57 54 7 c29 4 148 16 263 28 116 12 212 24 214 26 17 16 53
-3 100 -52z m-746 -45 c80 -22 184 -82 317 -184 30 -23 92 -67 138 -98 47 -32
78 -59 70 -62 -7 -2 -65 -14 -128 -25 -298 -53 -535 -64 -730 -35 -139 20
-363 65 -372 74 -7 6 257 203 367 274 41 27 191 76 234 76 14 1 60 -9 104 -20z
m-1035 -121 c61 -92 67 -102 56 -96 -5 3 -61 30 -124 61 -157 76 -164 82 -98
84 29 1 64 6 78 12 14 5 28 10 32 10 4 1 29 -32 56 -71z m2010 55 l73 -6 -38
-22 c-21 -12 -82 -47 -137 -79 -54 -31 -101 -55 -103 -52 -3 2 16 43 42 91 42
76 50 86 69 80 11 -3 54 -9 94 -12z m-2688 -225 c55 -38 75 -73 75 -131 0 -66
-31 -112 -93 -139 -170 -76 -298 177 -136 269 51 30 111 30 154 1z m3363 -11
c92 -70 65 -236 -42 -268 -103 -31 -211 46 -211 149 0 58 21 96 72 127 57 34
130 31 181 -8z m157 -135 c0 -55 -24 -106 -61 -133 -30 -21 -41 -12 -14 11 37
31 53 153 30 225 -4 11 5 2 19 -20 18 -27 26 -54 26 -83z m-3815 45 c-8 -53
16 -141 47 -174 27 -29 16 -30 -23 -2 -44 31 -62 74 -56 131 6 45 22 88 33 88
3 0 2 -19 -1 -43z m990 -38 c-44 -23 -176 -90 -292 -150 l-213 -108 0 42 c0
23 -7 83 -14 132 -8 50 -12 92 -10 94 2 2 106 8 231 12 125 5 242 11 258 12
17 2 50 4 75 5 l45 2 -80 -41z m2242 15 c80 -6 83 -7 77 -29 -3 -12 -9 -69
-12 -127 l-7 -104 -260 122 c-143 68 -273 130 -290 139 -27 13 -11 14 190 10
121 -3 257 -8 302 -11z m-1687 -40 c252 -48 489 -45 829 12 80 13 146 23 148
21 1 -2 -37 -53 -85 -113 -48 -60 -131 -169 -186 -241 l-98 -130 -43 43 c-100
100 -302 97 -388 -6 l-26 -30 -24 32 c-13 18 -68 94 -123 168 -54 74 -122 165
-151 202 -29 37 -53 70 -53 74 0 3 15 4 33 0 17 -4 93 -18 167 -32z m-74 -259
c49 -66 112 -151 138 -188 47 -66 48 -70 37 -106 -6 -21 -11 -65 -11 -98 0
-110 78 -224 188 -276 26 -12 49 -23 51 -24 2 -1 -24 -47 -58 -103 -34 -55
-61 -105 -61 -110 0 -35 -22 10 -72 143 -48 129 -184 492 -312 832 -19 50 -37
99 -41 110 -4 11 6 2 21 -20 16 -23 70 -95 120 -160z m1000 29 c-30 -76 -125
-314 -211 -529 -86 -214 -160 -398 -164 -408 -5 -14 -21 12 -60 102 -30 67
-52 123 -50 124 2 1 21 11 42 22 124 63 198 215 168 345 -8 37 -7 49 7 71 27
41 317 418 319 415 2 -1 -22 -65 -51 -142z m-2056 76 l0 -35 -72 4 c-65 4 -70
5 -41 14 17 5 46 24 65 41 37 35 48 29 48 -24z m3050 -14 l35 -15 -52 -1 c-28
0 -58 -3 -67 -6 -13 -5 -16 3 -16 47 l0 53 33 -32 c17 -17 48 -38 67 -46z
m498 0 c-2 -1 -11 -8 -20 -15 -17 -12 -18 -10 -18 35 l0 49 21 -34 c11 -18 19
-34 17 -35z m-108 -136 c0 -104 -2 -190 -3 -190 -2 0 -109 51 -238 114 l-234
114 50 6 c232 27 351 64 393 121 9 14 20 25 25 25 4 0 7 -85 7 -190z m-4008
155 c-2 -14 -8 -25 -13 -25 -12 0 -11 7 1 31 14 26 18 24 12 -6z m128 -10 c40
-48 145 -79 306 -90 49 -3 100 -8 113 -11 l24 -5 -29 -18 c-16 -9 -127 -68
-246 -129 l-218 -112 0 200 c0 191 1 200 18 191 10 -5 25 -17 32 -26z m-251
-31 c5 -5 2 -40 -7 -81 l-17 -72 -63 -12 c-89 -16 -281 5 -298 33 -9 14 63 86
108 109 21 11 55 24 75 29 45 11 190 7 202 -6z m4586 -19 c28 -13 70 -44 94
-69 l43 -44 -58 -18 c-70 -21 -243 -25 -266 -7 -12 11 -53 123 -53 148 0 33
166 26 240 -10z m-4495 -40 c11 -13 9 -20 -10 -40 -29 -31 -33 -27 -25 19 8
39 16 44 35 21z m4199 -7 c5 -13 12 -34 16 -47 l7 -25 -30 25 c-30 23 -40 48
-25 62 12 13 23 7 32 -15z m12 -134 c33 -14 36 -19 66 -122 17 -59 29 -109 27
-111 -2 -3 -47 17 -99 44 l-95 49 0 99 0 99 33 -21 c17 -12 48 -29 68 -37z
m-4179 9 c2 -16 2 -64 -1 -108 l-4 -80 -64 -32 c-63 -32 -65 -32 -60 -10 3 12
15 66 27 119 19 88 24 99 53 117 42 26 44 25 49 -6z m2165 -44 c24 -12 55 -36
69 -54 l25 -33 -93 -155 -92 -155 -88 155 c-48 86 -88 161 -88 168 0 19 56 66
96 80 57 21 121 18 171 -6z m-210 -327 c36 -62 63 -115 61 -118 -10 -9 -92 61
-122 104 -24 33 -30 55 -33 104 -4 59 -3 62 12 43 9 -11 46 -71 82 -133z m329
74 c-9 -57 -55 -128 -107 -166 -49 -35 -59 -33 -31 7 11 15 46 73 78 128 59
101 71 107 60 31z m-1095 24 c191 -35 368 -207 414 -402 61 -260 -88 -524
-346 -615 -93 -33 -248 -37 -344 -9 -149 43 -275 148 -344 286 -47 95 -50 113
-18 127 65 30 118 100 132 175 9 48 -17 137 -52 179 l-27 32 75 72 c46 44 100
84 140 104 110 54 250 73 370 51z m-703 -249 c12 -7 11 -14 -3 -41 -30 -58
-45 -124 -45 -197 0 -44 -4 -73 -10 -73 -24 0 -79 30 -104 56 -57 62 -55 153
6 211 48 45 122 66 156 44z m3351 -19 c50 -37 66 -70 66 -132 0 -44 -5 -66
-21 -86 -24 -33 -60 -60 -91 -69 -22 -6 -23 -4 -23 72 0 72 -13 126 -55 227
-8 18 -5 19 46 13 29 -4 65 -15 78 -25z m-151 -101 c17 -56 25 -143 15 -169
l-9 -23 -34 23 c-19 13 -45 39 -58 58 -31 45 -27 121 8 170 l23 33 22 -28 c13
-15 27 -44 33 -64z m-3079 4 c15 -56 -4 -118 -50 -160 -22 -20 -45 -33 -51
-29 -19 12 -2 148 27 211 l26 58 19 -23 c11 -13 24 -39 29 -57z m1547 -136
l52 -116 -64 -184 c-36 -101 -68 -187 -72 -191 -4 -4 -38 83 -75 193 l-68 201
59 92 c33 51 68 108 77 126 21 40 16 47 91 -121z"/>
<path d="M0 3598 c0 -34 1 -36 45 -40 30 -4 61 -18 96 -43 55 -39 80 -39 87
-1 8 39 -93 103 -179 113 l-49 6 0 -35z"/>
</g>
</svg>
