999
"DXF R12 Output" (www.mydxf.blogspot.com)
 0 
SECTION
 2 
HEADER
 9 
$ACADVER
 1 
AC1009
 9 
$EXTMIN
 10 
 0 
 20 
 0 
 9 
$EXTMAX
 10 
 8.5 
 20 
 11 
 0 
ENDSEC
 0 
SECTION
 2 
ENTITIES
0
LINE
8
Layer 1
10
49.207300
20
91.469800
11
47.864682
21
90.992774
0
LINE
8
Layer 1
10
47.864682
20
90.992774
11
46.760160
21
90.272690
0
LINE
8
Layer 1
10
46.760160
20
90.272690
11
46.046790
21
89.537929
0
LINE
8
Layer 1
10
46.046790
20
89.537929
11
45.482854
21
88.670478
0
LINE
8
Layer 1
10
45.482854
20
88.670478
11
45.111134
21
87.755903
0
LINE
8
Layer 1
10
45.111134
20
87.755903
11
44.974410
21
86.879770
0
LINE
8
Layer 1
10
44.974410
20
86.879770
11
44.815677
21
86.383729
0
LINE
8
Layer 1
10
44.815677
20
86.383729
11
44.546162
21
85.866193
0
LINE
8
Layer 1
10
44.546162
20
85.866193
11
44.445300
21
85.140319
0
LINE
8
Layer 1
10
44.445300
20
85.140319
11
44.605583
21
83.898357
0
LINE
8
Layer 1
10
44.605583
20
83.898357
11
45.008306
21
82.198798
0
LINE
8
Layer 1
10
45.008306
20
82.198798
11
45.536278
21
80.476917
0
LINE
8
Layer 1
10
45.536278
20
80.476917
11
46.072310
21
79.167989
0
LINE
8
Layer 1
10
46.072310
20
79.167989
11
46.973451
21
77.960958
0
LINE
8
Layer 1
10
46.973451
20
77.960958
11
47.532531
21
77.571978
0
LINE
8
Layer 1
10
47.532531
20
77.571978
11
48.182140
21
77.309489
0
LINE
8
Layer 1
10
48.182140
20
77.309489
11
48.762508
21
77.102805
0
LINE
8
Layer 1
10
48.762508
20
77.102805
11
48.182140
21
77.025092
0
LINE
8
Layer 1
10
48.182140
20
77.025092
11
45.648200
21
76.724987
0
LINE
8
Layer 1
10
45.648200
20
76.724987
11
43.387080
21
76.171901
0
LINE
8
Layer 1
10
43.387080
20
76.171901
11
41.079661
21
75.274066
0
LINE
8
Layer 1
10
41.079661
20
75.274066
11
39.431980
21
74.425841
0
LINE
8
Layer 1
10
39.431980
20
74.425841
11
39.213722
21
74.260494
0
LINE
8
Layer 1
10
39.213722
20
74.260494
11
38.916097
21
74.399385
0
LINE
8
Layer 1
10
38.916097
20
74.399385
11
38.214302
21
74.630974
0
LINE
8
Layer 1
10
38.214302
20
74.630974
11
37.413920
21
74.729252
0
LINE
8
Layer 1
10
37.413920
20
74.729252
11
35.847257
21
74.518435
0
LINE
8
Layer 1
10
35.847257
20
74.518435
11
35.058138
21
74.143510
0
LINE
8
Layer 1
10
35.058138
20
74.143510
11
34.390550
21
73.627214
0
LINE
8
Layer 1
10
34.390550
20
73.627214
11
33.864332
21
72.989388
0
LINE
8
Layer 1
10
33.864332
20
72.989388
11
33.499327
21
72.249875
0
LINE
8
Layer 1
10
33.499327
20
72.249875
11
33.352995
21
71.194134
0
LINE
8
Layer 1
10
33.352995
20
71.194134
11
33.400119
21
70.073905
0
LINE
8
Layer 1
10
33.400119
20
70.073905
11
33.406733
21
68.850335
0
LINE
8
Layer 1
10
33.406733
20
68.850335
11
33.241386
21
67.031515
0
LINE
8
Layer 1
10
33.241386
20
67.031515
11
33.069425
21
65.047355
0
LINE
8
Layer 1
10
33.069425
20
65.047355
11
32.904078
21
62.930915
0
LINE
8
Layer 1
10
32.904078
20
62.930915
11
32.507245
21
58.268125
0
LINE
8
Layer 1
10
32.507245
20
58.268125
11
32.341898
21
56.217825
0
LINE
8
Layer 1
10
32.341898
20
56.217825
11
32.209620
21
54.458535
0
LINE
8
Layer 1
10
32.209620
20
54.458535
11
32.184198
21
53.713957
0
LINE
8
Layer 1
10
32.184198
20
53.713957
11
32.279065
21
53.263903
0
LINE
8
Layer 1
10
32.279065
20
53.263903
11
32.542587
21
53.015984
0
LINE
8
Layer 1
10
32.542587
20
53.015984
11
33.023127
21
52.877815
0
LINE
8
Layer 1
10
33.023127
20
52.877815
11
33.433188
21
52.805062
0
LINE
8
Layer 1
10
33.433188
20
52.805062
11
33.155405
21
52.725696
0
LINE
8
Layer 1
10
33.155405
20
52.725696
11
32.877105
21
52.599205
0
LINE
8
Layer 1
10
32.877105
20
52.599205
11
32.709794
21
52.378466
0
LINE
8
Layer 1
10
32.709794
20
52.378466
11
32.606453
21
51.416146
0
LINE
8
Layer 1
10
32.606453
20
51.416146
11
32.672591
21
49.868496
0
LINE
8
Layer 1
10
32.672591
20
49.868496
11
32.996671
21
43.982146
0
LINE
8
Layer 1
10
32.996671
20
43.982146
11
33.138043
21
42.347691
0
LINE
8
Layer 1
10
33.138043
20
42.347691
11
33.591920
21
41.601146
0
LINE
8
Layer 1
10
33.591920
20
41.601146
11
33.863089
21
41.277066
0
LINE
8
Layer 1
10
33.863089
20
41.277066
11
32.884235
21
41.237382
0
LINE
8
Layer 1
10
32.884235
20
41.237382
11
32.011204
21
41.214234
0
LINE
8
Layer 1
10
32.011204
20
41.214234
11
31.614375
21
41.072035
0
LINE
8
Layer 1
10
31.614375
20
41.072035
11
31.148924
21
40.617331
0
LINE
8
Layer 1
10
31.148924
20
40.617331
11
30.886848
21
39.934445
0
LINE
8
Layer 1
10
30.886848
20
39.934445
11
30.840551
21
36.561365
0
LINE
8
Layer 1
10
30.840551
20
36.561365
11
30.867007
21
33.558665
0
LINE
8
Layer 1
10
30.867007
20
33.558665
11
31.032354
21
33.194902
0
LINE
8
Layer 1
10
31.032354
20
33.194902
11
32.758574
21
30.311252
0
LINE
8
Layer 1
10
32.758574
20
30.311252
11
32.971045
21
30.168227
0
LINE
8
Layer 1
10
32.971045
20
30.168227
11
33.228159
21
30.298025
0
LINE
8
Layer 1
10
33.228159
20
30.298025
11
33.400120
21
30.430303
0
LINE
8
Layer 1
10
33.400120
20
30.430303
11
33.400120
21
33.307343
0
LINE
8
Layer 1
10
33.400120
20
33.307343
11
33.419961
21
36.177763
0
LINE
8
Layer 1
10
33.419961
20
36.177763
11
33.849863
21
36.045485
0
LINE
8
Layer 1
10
33.849863
20
36.045485
11
34.636914
21
35.921474
0
LINE
8
Layer 1
10
34.636914
20
35.921474
11
35.384283
21
36.045485
0
LINE
8
Layer 1
10
35.384283
20
36.045485
11
35.754660
21
36.157921
0
LINE
8
Layer 1
10
35.754660
20
36.157921
11
35.847255
21
32.229281
0
LINE
8
Layer 1
10
35.847255
20
32.229281
11
35.847255
21
30.291411
0
LINE
8
Layer 1
10
35.847255
20
30.291411
11
36.012602
21
30.185589
0
LINE
8
Layer 1
10
36.012602
20
30.185589
11
36.373058
21
30.169054
0
LINE
8
Layer 1
10
36.373058
20
30.169054
11
36.793040
21
30.668402
0
LINE
8
Layer 1
10
36.793040
20
30.668402
11
37.765280
21
32.143302
0
LINE
8
Layer 1
10
37.765280
20
32.143302
11
38.459737
21
33.168452
0
LINE
8
Layer 1
10
38.459737
20
33.168452
11
38.459737
21
36.574602
0
LINE
8
Layer 1
10
38.459737
20
36.574602
11
38.410133
21
39.912958
0
LINE
8
Layer 1
10
38.410133
20
39.912958
11
38.297903
21
40.467905
0
LINE
8
Layer 1
10
38.297903
20
40.467905
11
38.082746
21
40.781032
0
LINE
8
Layer 1
10
38.082746
20
40.781032
11
37.585877
21
41.153889
0
LINE
8
Layer 1
10
37.585877
20
41.153889
11
36.707056
21
41.244004
0
LINE
8
Layer 1
10
36.707056
20
41.244004
11
35.959688
21
41.296915
0
LINE
8
Layer 1
10
35.959688
20
41.296915
11
36.184560
21
41.488718
0
LINE
8
Layer 1
10
36.184560
20
41.488718
11
36.638437
21
41.991372
0
LINE
8
Layer 1
10
36.638437
20
41.991372
11
36.898859
21
42.672598
0
LINE
8
Layer 1
10
36.898859
20
42.672598
11
37.401514
21
48.512658
0
LINE
8
Layer 1
10
37.401514
20
48.512658
11
37.566861
21
50.648938
0
LINE
8
Layer 1
10
37.566861
20
50.648938
11
37.632999
21
51.806368
0
LINE
8
Layer 1
10
37.632999
20
51.806368
11
37.559730
21
52.239267
0
LINE
8
Layer 1
10
37.559730
20
52.239267
11
37.349429
21
52.566137
0
LINE
8
Layer 1
10
37.349429
20
52.566137
11
37.016359
21
52.772718
0
LINE
8
Layer 1
10
37.016359
20
52.772718
11
36.574779
21
52.844748
0
LINE
8
Layer 1
10
36.574779
20
52.844748
11
36.211016
21
52.851361
0
LINE
8
Layer 1
10
36.211016
20
52.851361
11
36.515254
21
52.983639
0
LINE
8
Layer 1
10
36.515254
20
52.983639
11
36.905473
21
53.311027
0
LINE
8
Layer 1
10
36.905473
20
53.311027
11
37.037751
21
54.055089
0
LINE
8
Layer 1
10
37.037751
20
54.055089
11
37.070821
21
54.643724
0
LINE
8
Layer 1
10
37.070821
20
54.643724
11
37.322148
21
54.729705
0
LINE
8
Layer 1
10
37.322148
20
54.729705
11
37.877714
21
55.143899
0
LINE
8
Layer 1
10
37.877714
20
55.143899
11
38.155497
21
55.959885
0
LINE
8
Layer 1
10
38.155497
20
55.959885
11
38.525874
21
59.921595
0
LINE
8
Layer 1
10
38.525874
20
59.921595
11
38.697835
21
62.335665
0
LINE
8
Layer 1
10
38.697835
20
62.335665
11
38.942549
21
66.925695
0
LINE
8
Layer 1
10
38.942549
20
66.925695
11
38.889638
21
67.486221
0
LINE
8
Layer 1
10
38.889638
20
67.486221
11
38.697835
21
67.739202
0
LINE
8
Layer 1
10
38.697835
20
67.739202
11
38.429146
21
67.907029
0
LINE
8
Layer 1
10
38.429146
20
67.907029
11
37.877714
21
67.891321
0
LINE
8
Layer 1
10
37.877714
20
67.891321
11
37.322148
21
67.904549
0
LINE
8
Layer 1
10
37.322148
20
67.904549
11
37.752050
21
68.003757
0
LINE
8
Layer 1
10
37.752050
20
68.003757
11
38.545716
21
68.248471
0
LINE
8
Layer 1
10
38.545716
20
68.248471
11
38.982232
21
68.453501
0
LINE
8
Layer 1
10
38.982232
20
68.453501
11
39.154193
21
66.337061
0
LINE
8
Layer 1
10
39.154193
20
66.337061
11
39.445204
21
63.512931
0
LINE
8
Layer 1
10
39.445204
20
63.512931
11
40.013998
21
61.541991
0
LINE
8
Layer 1
10
40.013998
20
61.541991
11
40.814277
21
58.830301
0
LINE
8
Layer 1
10
40.814277
20
58.830301
11
41.475665
21
56.713861
0
LINE
8
Layer 1
10
41.475665
20
56.713861
11
42.864575
21
52.566961
0
LINE
8
Layer 1
10
42.864575
20
52.566961
11
43.055034
21
52.315427
0
LINE
8
Layer 1
10
43.055034
20
52.315427
11
43.430888
21
52.142019
0
LINE
8
Layer 1
10
43.430888
20
52.142019
11
45.470445
21
51.826206
0
LINE
8
Layer 1
10
45.470445
20
51.826206
11
48.750105
21
51.520314
0
LINE
8
Layer 1
10
48.750105
20
51.520314
11
51.687495
21
51.521968
0
LINE
8
Layer 1
10
51.687495
20
51.521968
11
56.888485
21
51.765028
0
LINE
8
Layer 1
10
56.888485
20
51.765028
11
58.929695
21
51.998167
0
LINE
8
Layer 1
10
58.929695
20
51.998167
11
59.700214
21
52.340435
0
LINE
8
Layer 1
10
59.700214
20
52.340435
11
60.054055
21
52.891041
0
LINE
8
Layer 1
10
60.054055
20
52.891041
11
60.550096
21
59.623971
0
LINE
8
Layer 1
10
60.550096
20
59.623971
11
60.748512
21
62.699421
0
LINE
8
Layer 1
10
60.748512
20
62.699421
11
61.079206
21
68.684981
0
LINE
8
Layer 1
10
61.079206
20
68.684981
11
61.154439
21
69.802727
0
LINE
8
Layer 1
10
61.154439
20
69.802727
11
61.204766
21
69.964765
0
LINE
8
Layer 1
10
61.204766
20
69.964765
11
61.264395
21
69.868861
0
LINE
8
Layer 1
10
61.264395
20
69.868861
11
61.509109
21
68.056661
0
LINE
8
Layer 1
10
61.509109
20
68.056661
11
61.681070
21
65.973291
0
LINE
8
Layer 1
10
61.681070
20
65.973291
11
62.104358
21
60.153081
0
LINE
8
Layer 1
10
62.104358
20
60.153081
11
62.296987
21
58.207772
0
LINE
8
Layer 1
10
62.296987
20
58.207772
11
62.613627
21
57.309111
0
LINE
8
Layer 1
10
62.613627
20
57.309111
11
63.691687
21
56.350098
0
LINE
8
Layer 1
10
63.691687
20
56.350098
11
64.002539
21
56.131840
0
LINE
8
Layer 1
10
64.002539
20
56.131840
11
63.579251
21
56.065701
0
LINE
8
Layer 1
10
63.579251
20
56.065701
11
63.039393
21
55.947478
0
LINE
8
Layer 1
10
63.039393
20
55.947478
11
62.712833
21
55.615957
0
LINE
8
Layer 1
10
62.712833
20
55.615957
11
62.661575
21
54.753674
0
LINE
8
Layer 1
10
62.661575
20
54.753674
11
62.798813
21
52.646327
0
LINE
8
Layer 1
10
62.798813
20
52.646327
11
63.169190
21
47.752057
0
LINE
8
Layer 1
10
63.169190
20
47.752057
11
63.334537
21
45.503337
0
LINE
8
Layer 1
10
63.334537
20
45.503337
11
63.499884
21
43.175247
0
LINE
8
Layer 1
10
63.499884
20
43.175247
11
63.572637
21
42.064117
0
LINE
8
Layer 1
10
63.572637
20
42.064117
11
63.367607
21
41.832631
0
LINE
8
Layer 1
10
63.367607
20
41.832631
11
62.875700
21
40.969520
0
LINE
8
Layer 1
10
62.875700
20
40.969520
11
62.626852
21
39.669891
0
LINE
8
Layer 1
10
62.626852
20
39.669891
11
62.583862
21
38.194167
0
LINE
8
Layer 1
10
62.583862
20
38.194167
11
62.759130
21
37.407941
0
LINE
8
Layer 1
10
62.759130
20
37.407941
11
62.886447
21
37.215312
0
LINE
8
Layer 1
10
62.886447
20
37.215312
11
62.706219
21
36.978039
0
LINE
8
Layer 1
10
62.706219
20
36.978039
11
62.474733
21
36.290195
0
LINE
8
Layer 1
10
62.474733
20
36.290195
11
62.368911
21
30.899885
0
LINE
8
Layer 1
10
62.368911
20
30.899885
11
62.533431
21
30.461716
0
LINE
8
Layer 1
10
62.533431
20
30.461716
11
62.871566
21
30.192200
0
LINE
8
Layer 1
10
62.871566
20
30.192200
11
63.215074
21
30.097746
0
LINE
8
Layer 1
10
63.215074
20
30.097746
11
63.556102
21
30.185586
0
LINE
8
Layer 1
10
63.556102
20
30.185586
11
64.498576
21
31.052004
0
LINE
8
Layer 1
10
64.498576
20
31.052004
11
65.675846
21
32.308644
0
LINE
8
Layer 1
10
65.675846
20
32.308644
11
67.759216
21
34.669804
0
LINE
8
Layer 1
10
67.759216
20
34.669804
11
68.162663
21
36.462164
0
LINE
8
Layer 1
10
68.162663
20
36.462164
11
68.235416
21
37.037572
0
LINE
8
Layer 1
10
68.235416
20
37.037572
11
68.255257
21
37.169850
0
LINE
8
Layer 1
10
68.255257
20
37.169850
11
68.552055
21
37.381494
0
LINE
8
Layer 1
10
68.552055
20
37.381494
11
68.784367
21
37.771713
0
LINE
8
Layer 1
10
68.784367
20
37.771713
11
68.788501
21
38.948158
0
LINE
8
Layer 1
10
68.788501
20
38.948158
11
68.619020
21
40.298213
0
LINE
8
Layer 1
10
68.619020
20
40.298213
11
68.323876
21
41.069557
0
LINE
8
Layer 1
10
68.323876
20
41.069557
11
67.904721
21
41.706973
0
LINE
8
Layer 1
10
67.904721
20
41.706973
11
67.640166
21
42.004598
0
LINE
8
Layer 1
10
67.640166
20
42.004598
11
67.719533
21
44.498028
0
LINE
8
Layer 1
10
67.719533
20
44.498028
11
67.865038
21
48.512658
0
LINE
8
Layer 1
10
67.865038
20
48.512658
11
67.970860
21
52.745538
0
LINE
8
Layer 1
10
67.970860
20
52.745538
11
68.010543
21
55.457228
0
LINE
8
Layer 1
10
68.010543
20
55.457228
11
67.785671
21
55.701942
0
LINE
8
Layer 1
10
67.785671
20
55.701942
11
67.281363
21
56.007834
0
LINE
8
Layer 1
10
67.281363
20
56.007834
11
66.370301
21
56.085547
0
LINE
8
Layer 1
10
66.370301
20
56.085547
11
65.708913
21
56.085547
0
LINE
8
Layer 1
10
65.708913
20
56.085547
11
66.165271
21
56.317033
0
LINE
8
Layer 1
10
66.165271
20
56.317033
11
66.767134
21
56.548519
0
LINE
8
Layer 1
10
66.767134
20
56.548519
11
67.354116
21
56.775045
0
LINE
8
Layer 1
10
67.354116
20
56.775045
11
67.891494
21
57.170224
0
LINE
8
Layer 1
10
67.891494
20
57.170224
11
68.251124
21
58.094514
0
LINE
8
Layer 1
10
68.251124
20
58.094514
11
68.189119
21
59.723184
0
LINE
8
Layer 1
10
68.189119
20
59.723184
11
67.825356
21
63.823794
0
LINE
8
Layer 1
10
67.825356
20
63.823794
11
67.468206
21
67.759054
0
LINE
8
Layer 1
10
67.468206
20
67.759054
11
67.296245
21
69.809354
0
LINE
8
Layer 1
10
67.296245
20
69.809354
11
66.977125
21
72.951775
0
LINE
8
Layer 1
10
66.977125
20
72.951775
11
66.529035
21
74.313404
0
LINE
8
Layer 1
10
66.529035
20
74.313404
11
65.794894
21
75.152540
0
LINE
8
Layer 1
10
65.794894
20
75.152540
11
64.802815
21
75.728774
0
LINE
8
Layer 1
10
64.802815
20
75.728774
11
63.850415
21
75.946206
0
LINE
8
Layer 1
10
63.850415
20
75.946206
11
62.898015
21
75.900735
0
LINE
8
Layer 1
10
62.898015
20
75.900735
11
62.097736
21
75.695705
0
LINE
8
Layer 1
10
62.097736
20
75.695705
11
61.760428
21
75.689091
0
LINE
8
Layer 1
10
61.760428
20
75.689091
11
59.717565
21
76.180172
0
LINE
8
Layer 1
10
59.717565
20
76.180172
11
56.449478
21
76.621648
0
LINE
8
Layer 1
10
56.449478
20
76.621648
11
54.994428
21
76.760539
0
LINE
8
Layer 1
10
54.994428
20
76.760539
11
52.593588
21
76.912658
0
LINE
8
Layer 1
10
52.593588
20
76.912658
11
51.138538
21
77.011866
0
LINE
8
Layer 1
10
51.138538
20
77.011866
11
51.330341
21
77.051550
0
LINE
8
Layer 1
10
51.330341
20
77.051550
11
52.194277
21
77.209353
0
LINE
8
Layer 1
10
52.194277
20
77.209353
11
53.112779
21
77.629437
0
LINE
8
Layer 1
10
53.112779
20
77.629437
11
53.971757
21
78.246698
0
LINE
8
Layer 1
10
53.971757
20
78.246698
11
54.657121
21
78.996030
0
LINE
8
Layer 1
10
54.657121
20
78.996030
11
55.588024
21
80.826420
0
LINE
8
Layer 1
10
55.588024
20
80.826420
11
56.290751
21
83.222300
0
LINE
8
Layer 1
10
56.290751
20
83.222300
11
56.528851
21
85.159340
0
LINE
8
Layer 1
10
56.528851
20
85.159340
11
56.454445
21
85.831166
0
LINE
8
Layer 1
10
56.454445
20
85.831166
11
56.251068
21
86.337440
0
LINE
8
Layer 1
10
56.251068
20
86.337440
11
56.125404
21
86.972372
0
LINE
8
Layer 1
10
56.125404
20
86.972372
11
55.800393
21
88.255565
0
LINE
8
Layer 1
10
55.800393
20
88.255565
11
55.082890
21
89.460014
0
LINE
8
Layer 1
10
55.082890
20
89.460014
11
54.061561
21
90.472250
0
LINE
8
Layer 1
10
54.061561
20
90.472250
11
52.825074
21
91.178802
0
LINE
8
Layer 1
10
52.825074
20
91.178802
11
50.996334
21
91.582248
0
LINE
8
Layer 1
10
50.996334
20
91.582248
11
49.207284
21
91.469813
0
LINE
8
Layer 1
10
49.207284
20
91.469813
11
49.207300
21
91.469800
0
LINE
8
Layer 1
10
51.528770
20
90.643065
11
52.339177
21
90.399695
0
LINE
8
Layer 1
10
52.339177
20
90.399695
11
53.135942
21
89.995731
0
LINE
8
Layer 1
10
53.135942
20
89.995731
11
53.848382
21
89.473957
0
LINE
8
Layer 1
10
53.848382
20
89.473957
11
54.405810
21
88.877155
0
LINE
8
Layer 1
10
54.405810
20
88.877155
11
54.910945
21
88.032233
0
LINE
8
Layer 1
10
54.910945
20
88.032233
11
55.173020
21
87.336125
0
LINE
8
Layer 1
10
55.173020
20
87.336125
11
55.192862
21
87.137709
0
LINE
8
Layer 1
10
55.192862
20
87.137709
11
54.035432
21
87.098026
0
LINE
8
Layer 1
10
54.035432
20
87.098026
11
52.997882
21
87.036847
0
LINE
8
Layer 1
10
52.997882
20
87.036847
11
52.461332
21
86.886382
0
LINE
8
Layer 1
10
52.461332
20
86.886382
11
51.761914
21
86.482935
0
LINE
8
Layer 1
10
51.761914
20
86.482935
11
51.330362
21
85.900914
0
LINE
8
Layer 1
10
51.330362
20
85.900914
11
51.146827
21
85.321993
0
LINE
8
Layer 1
10
51.146827
20
85.321993
11
51.156747
21
84.746792
0
LINE
8
Layer 1
10
51.156747
20
84.746792
11
51.352684
21
84.221194
0
LINE
8
Layer 1
10
51.352684
20
84.221194
11
51.727195
21
83.791084
0
LINE
8
Layer 1
10
51.727195
20
83.791084
11
51.906803
21
83.622740
0
LINE
8
Layer 1
10
51.906803
20
83.622740
11
51.978522
21
83.327285
0
LINE
8
Layer 1
10
51.978522
20
83.327285
11
51.852859
21
81.410084
0
LINE
8
Layer 1
10
51.852859
20
81.410084
11
51.561848
21
79.042314
0
LINE
8
Layer 1
10
51.561848
20
79.042314
11
50.067108
21
78.962947
0
LINE
8
Layer 1
10
50.067108
20
78.962947
11
48.645128
21
78.936492
0
LINE
8
Layer 1
10
48.645128
20
78.936492
11
48.466553
21
79.267186
0
LINE
8
Layer 1
10
48.466553
20
79.267186
11
47.514154
21
81.509296
0
LINE
8
Layer 1
10
47.514154
20
81.509296
11
46.760172
21
83.698486
0
LINE
8
Layer 1
10
46.760172
20
83.698486
11
46.925519
21
83.705099
0
LINE
8
Layer 1
10
46.925519
20
83.705099
11
47.386837
21
83.745609
0
LINE
8
Layer 1
10
47.386837
20
83.745609
11
47.858076
21
84.009337
0
LINE
8
Layer 1
10
47.858076
20
84.009337
11
48.252325
21
84.546406
0
LINE
8
Layer 1
10
48.252325
20
84.546406
11
48.383052
21
85.165941
0
LINE
8
Layer 1
10
48.383052
20
85.165941
11
48.249638
21
85.779274
0
LINE
8
Layer 1
10
48.249638
20
85.779274
11
47.851462
21
86.297737
0
LINE
8
Layer 1
10
47.851462
20
86.297737
11
47.343020
21
86.563119
0
LINE
8
Layer 1
10
47.343020
20
86.563119
11
46.502232
21
86.674728
0
LINE
8
Layer 1
10
46.502232
20
86.674728
11
45.840844
21
86.740867
0
LINE
8
Layer 1
10
45.840844
20
86.740867
11
45.910289
21
87.324543
0
LINE
8
Layer 1
10
45.910289
20
87.324543
11
46.237677
21
88.215767
0
LINE
8
Layer 1
10
46.237677
20
88.215767
11
47.135098
21
89.409782
0
LINE
8
Layer 1
10
47.135098
20
89.409782
11
48.407029
21
90.252845
0
LINE
8
Layer 1
10
48.407029
20
90.252845
11
49.917060
21
90.684192
0
LINE
8
Layer 1
10
49.917060
20
90.684192
11
51.528777
21
90.643057
0
LINE
8
Layer 1
10
51.528777
20
90.643057
11
51.528770
21
90.643065
0
LINE
8
Layer 1
10
55.450800
20
85.920755
11
55.610360
21
85.173386
0
LINE
8
Layer 1
10
55.610360
20
85.173386
11
55.556622
21
84.009345
0
LINE
8
Layer 1
10
55.556622
20
84.009345
11
54.826615
21
81.299309
0
LINE
8
Layer 1
10
54.826615
20
81.299309
11
54.318689
21
80.127208
0
LINE
8
Layer 1
10
54.318689
20
80.127208
11
53.803942
21
79.313495
0
LINE
8
Layer 1
10
53.803942
20
79.313495
11
52.851541
21
78.510735
0
LINE
8
Layer 1
10
52.851541
20
78.510735
11
51.799932
21
78.050245
0
LINE
8
Layer 1
10
51.799932
20
78.050245
11
51.323733
21
78.043631
0
LINE
8
Layer 1
10
51.323733
20
78.043631
11
51.489080
21
78.109770
0
LINE
8
Layer 1
10
51.489080
20
78.109770
11
52.022427
21
78.283901
0
LINE
8
Layer 1
10
52.022427
20
78.283901
11
52.680405
21
78.733955
0
LINE
8
Layer 1
10
52.680405
20
78.733955
11
53.329703
21
79.351424
0
LINE
8
Layer 1
10
53.329703
20
79.351424
11
53.837010
21
80.027800
0
LINE
8
Layer 1
10
53.837010
20
80.027800
11
54.774527
21
82.026845
0
LINE
8
Layer 1
10
54.774527
20
82.026845
11
55.364820
21
83.956440
0
LINE
8
Layer 1
10
55.364820
20
83.956440
11
55.329271
21
85.003086
0
LINE
8
Layer 1
10
55.329271
20
85.003086
11
54.802640
21
85.861240
0
LINE
8
Layer 1
10
54.802640
20
85.861240
11
54.531471
21
86.132409
0
LINE
8
Layer 1
10
54.531471
20
86.132409
11
54.928304
21
86.086112
0
LINE
8
Layer 1
10
54.928304
20
86.086112
11
55.450801
21
85.920765
0
LINE
8
Layer 1
10
55.450801
20
85.920765
11
55.450800
21
85.920755
0
LINE
8
Layer 1
10
47.295890
20
85.530536
11
47.476118
21
85.208936
0
LINE
8
Layer 1
10
47.476118
20
85.208936
11
47.388484
21
84.862534
0
LINE
8
Layer 1
10
47.388484
20
84.862534
11
47.204949
21
84.647583
0
LINE
8
Layer 1
10
47.204949
20
84.647583
11
46.892443
21
84.591365
0
LINE
8
Layer 1
10
46.892443
20
84.591365
11
46.650210
21
84.731910
0
LINE
8
Layer 1
10
46.650210
20
84.731910
11
46.403016
21
85.338733
0
LINE
8
Layer 1
10
46.403016
20
85.338733
11
46.323650
21
85.739700
0
LINE
8
Layer 1
10
46.323650
20
85.739700
11
46.700641
21
85.768635
0
LINE
8
Layer 1
10
46.700641
20
85.768635
11
47.072672
21
85.706630
0
LINE
8
Layer 1
10
47.072672
20
85.706630
11
47.295890
21
85.530535
0
LINE
8
Layer 1
10
47.295890
20
85.530535
11
47.295890
21
85.530536
0
LINE
8
Layer 1
10
52.348890
20
85.543764
11
52.183543
21
85.193228
0
LINE
8
Layer 1
10
52.183543
20
85.193228
11
52.117404
21
84.988198
0
LINE
8
Layer 1
10
52.117404
20
84.988198
11
52.051265
21
85.140317
0
LINE
8
Layer 1
10
52.051265
20
85.140317
11
52.256295
21
85.590061
0
LINE
8
Layer 1
10
52.256295
20
85.590061
11
52.478687
21
85.770289
0
LINE
8
Layer 1
10
52.478687
20
85.770289
11
52.348890
21
85.543764
0
LINE
8
Layer 1
10
52.348890
20
85.543764
11
52.348890
21
85.543764
0
LINE
8
Layer 1
10
45.477070
20
84.677346
11
46.647730
21
81.185216
0
LINE
8
Layer 1
10
46.647730
20
81.185216
11
47.487693
21
79.174596
0
LINE
8
Layer 1
10
47.487693
20
79.174596
11
47.752248
21
78.559505
0
LINE
8
Layer 1
10
47.752248
20
78.559505
11
47.421554
21
78.804219
0
LINE
8
Layer 1
10
47.421554
20
78.804219
11
47.005190
21
79.322065
0
LINE
8
Layer 1
10
47.005190
20
79.322065
11
46.630369
21
80.060031
0
LINE
8
Layer 1
10
46.630369
20
80.060031
11
45.834224
21
82.600589
0
LINE
8
Layer 1
10
45.834224
20
82.600589
11
45.377866
21
84.855919
0
LINE
8
Layer 1
10
45.377866
20
84.855919
11
45.477074
21
84.677344
0
LINE
8
Layer 1
10
45.477074
20
84.677344
11
45.477070
21
84.677346
0
LINE
8
Layer 1
10
54.299990
20
83.433936
11
53.530300
21
81.381152
0
LINE
8
Layer 1
10
53.530300
20
81.381152
11
52.765570
21
80.047626
0
LINE
8
Layer 1
10
52.765570
20
80.047626
11
52.663881
21
79.982314
0
LINE
8
Layer 1
10
52.663881
20
79.982314
11
52.646520
21
80.120379
0
LINE
8
Layer 1
10
52.646520
20
80.120379
11
52.739114
21
81.238129
0
LINE
8
Layer 1
10
52.739114
20
81.238129
11
52.878005
21
82.785779
0
LINE
8
Layer 1
10
52.878005
20
82.785779
11
52.924302
21
83.394256
0
LINE
8
Layer 1
10
52.924302
20
83.394256
11
53.202085
21
83.433939
0
LINE
8
Layer 1
10
53.202085
20
83.433939
11
53.931266
21
83.758846
0
LINE
8
Layer 1
10
53.931266
20
83.758846
11
54.372745
21
84.426021
0
LINE
8
Layer 1
10
54.372745
20
84.426021
11
54.465340
21
84.690576
0
LINE
8
Layer 1
10
54.465340
20
84.690576
11
54.485181
21
84.412793
0
LINE
8
Layer 1
10
54.485181
20
84.412793
11
54.299992
21
83.433939
0
LINE
8
Layer 1
10
54.299992
20
83.433939
11
54.299990
21
83.433936
0
LINE
8
Layer 1
10
53.241770
20
84.459086
11
53.142562
21
84.392947
0
LINE
8
Layer 1
10
53.142562
20
84.392947
11
53.043354
21
84.459086
0
LINE
8
Layer 1
10
53.043354
20
84.459086
11
53.142562
21
84.525225
0
LINE
8
Layer 1
10
53.142562
20
84.525225
11
53.241770
21
84.459086
0
LINE
8
Layer 1
10
53.241770
20
84.459086
11
53.241770
21
84.459086
0
LINE
8
Layer 1
10
51.700740
20
76.059456
11
52.515900
21
75.940406
0
LINE
8
Layer 1
10
52.515900
20
75.940406
11
52.844940
21
75.642782
0
LINE
8
Layer 1
10
52.844940
20
75.642782
11
52.982798
21
75.239231
0
LINE
8
Layer 1
10
52.982798
20
75.239231
11
52.876356
21
74.864823
0
LINE
8
Layer 1
10
52.876356
20
74.864823
11
52.519413
21
74.509017
0
LINE
8
Layer 1
10
52.519413
20
74.509017
11
51.905769
21
74.161272
0
LINE
8
Layer 1
10
51.905769
20
74.161272
11
51.619718
21
74.070331
0
LINE
8
Layer 1
10
51.619718
20
74.070331
11
51.581689
21
74.227411
0
LINE
8
Layer 1
10
51.581689
20
74.227411
11
51.303906
21
75.014463
0
LINE
8
Layer 1
10
51.303906
20
75.014463
11
50.801251
21
75.378226
0
LINE
8
Layer 1
10
50.801251
20
75.378226
11
50.444101
21
75.556801
0
LINE
8
Layer 1
10
50.444101
20
75.556801
11
48.287981
21
75.543573
0
LINE
8
Layer 1
10
48.287981
20
75.543573
11
45.146390
21
75.413775
0
LINE
8
Layer 1
10
45.146390
20
75.413775
11
44.463508
21
75.228277
0
LINE
8
Layer 1
10
44.463508
20
75.228277
11
44.088171
21
74.921868
0
LINE
8
Layer 1
10
44.088171
20
74.921868
11
43.879524
21
74.422934
0
LINE
8
Layer 1
10
43.879524
20
74.422934
11
43.902156
21
73.866955
0
LINE
8
Layer 1
10
43.902156
20
73.866955
11
44.131885
21
73.355620
0
LINE
8
Layer 1
10
44.131885
20
73.355620
11
44.544529
21
72.990618
0
LINE
8
Layer 1
10
44.544529
20
72.990618
11
45.109189
21
72.867434
0
LINE
8
Layer 1
10
45.109189
20
72.867434
11
47.117329
21
72.818657
0
LINE
8
Layer 1
10
47.117329
20
72.818657
11
49.425569
21
72.785587
0
LINE
8
Layer 1
10
49.425569
20
72.785587
11
49.452024
21
69.214087
0
LINE
8
Layer 1
10
49.452024
20
69.214087
11
49.498322
21
65.272217
0
LINE
8
Layer 1
10
49.498322
20
65.272217
11
49.626466
21
64.722439
0
LINE
8
Layer 1
10
49.626466
20
64.722439
11
49.987749
21
64.207387
0
LINE
8
Layer 1
10
49.987749
20
64.207387
11
50.225849
21
63.942832
0
LINE
8
Layer 1
10
50.225849
20
63.942832
11
47.811779
21
63.982516
0
LINE
8
Layer 1
10
47.811779
20
63.982516
11
43.611969
21
64.061882
0
LINE
8
Layer 1
10
43.611969
20
64.061882
11
41.812989
21
64.101566
0
LINE
8
Layer 1
10
41.812989
20
64.101566
11
41.779919
21
64.412418
0
LINE
8
Layer 1
10
41.779919
20
64.412418
11
41.581503
21
65.973298
0
LINE
8
Layer 1
10
41.581503
20
65.973298
11
41.303720
21
68.155878
0
LINE
8
Layer 1
10
41.303720
20
68.155878
11
40.602649
21
72.653318
0
LINE
8
Layer 1
10
40.602649
20
72.653318
11
40.238886
21
73.354389
0
LINE
8
Layer 1
10
40.238886
20
73.354389
11
40.014014
21
73.737994
0
LINE
8
Layer 1
10
40.014014
20
73.737994
11
41.424423
21
74.439065
0
LINE
8
Layer 1
10
41.424423
20
74.439065
11
43.618574
21
75.318714
0
LINE
8
Layer 1
10
43.618574
20
75.318714
11
45.449794
21
75.772591
0
LINE
8
Layer 1
10
45.449794
20
75.772591
11
47.553834
21
76.052855
0
LINE
8
Layer 1
10
47.553834
20
76.052855
11
51.700734
21
76.059468
0
LINE
8
Layer 1
10
51.700734
20
76.059468
11
51.700740
21
76.059456
0
LINE
8
Layer 1
10
55.106890
20
75.894109
11
60.060690
21
75.193038
0
LINE
8
Layer 1
10
60.060690
20
75.193038
11
60.867583
21
75.021077
0
LINE
8
Layer 1
10
60.867583
20
75.021077
11
61.077574
21
74.907814
0
LINE
8
Layer 1
10
61.077574
20
74.907814
11
60.900652
21
74.650700
0
LINE
8
Layer 1
10
60.900652
20
74.650700
11
60.463310
21
74.018248
0
LINE
8
Layer 1
10
60.463310
20
74.018248
11
60.259106
21
73.261790
0
LINE
8
Layer 1
10
60.259106
20
73.261790
11
60.219423
21
72.785591
0
LINE
8
Layer 1
10
60.219423
20
72.785591
11
57.110903
21
72.752521
0
LINE
8
Layer 1
10
57.110903
20
72.752521
11
53.889943
21
72.666541
0
LINE
8
Layer 1
10
53.889943
20
72.666541
11
53.632002
21
72.375530
0
LINE
8
Layer 1
10
53.632002
20
72.375530
11
53.447640
21
71.382621
0
LINE
8
Layer 1
10
53.447640
20
71.382621
11
53.307922
21
67.706130
0
LINE
8
Layer 1
10
53.307922
20
67.706130
11
53.193006
21
65.406979
0
LINE
8
Layer 1
10
53.193006
20
65.406979
11
53.068892
21
65.022857
0
LINE
8
Layer 1
10
53.068892
20
65.022857
11
52.844950
21
64.789410
0
LINE
8
Layer 1
10
52.844950
20
64.789410
11
52.384458
21
64.552964
0
LINE
8
Layer 1
10
52.384458
20
64.552964
11
52.057898
21
64.544696
0
LINE
8
Layer 1
10
52.057898
20
64.544696
11
51.932234
21
66.846326
0
LINE
8
Layer 1
10
51.932234
20
66.846326
11
51.740431
21
71.052756
0
LINE
8
Layer 1
10
51.740431
20
71.052756
11
51.694134
21
73.076606
0
LINE
8
Layer 1
10
51.694134
20
73.076606
11
52.322453
21
73.374231
0
LINE
8
Layer 1
10
52.322453
20
73.374231
11
53.023937
21
73.767551
0
LINE
8
Layer 1
10
53.023937
20
73.767551
11
53.529485
21
74.238997
0
LINE
8
Layer 1
10
53.529485
20
74.238997
11
53.821738
21
74.767488
0
LINE
8
Layer 1
10
53.821738
20
74.767488
11
53.883333
21
75.331941
0
LINE
8
Layer 1
10
53.883333
20
75.331941
11
53.797352
21
75.847824
0
LINE
8
Layer 1
10
53.797352
20
75.847824
11
53.780611
21
75.948996
0
LINE
8
Layer 1
10
53.780611
20
75.948996
11
53.901521
21
75.987542
0
LINE
8
Layer 1
10
53.901521
20
75.987542
11
55.106902
21
75.894121
0
LINE
8
Layer 1
10
55.106902
20
75.894121
11
55.106890
21
75.894109
0
LINE
8
Layer 1
10
62.864970
20
74.835889
11
62.441682
21
74.756522
0
LINE
8
Layer 1
10
62.441682
20
74.756522
11
62.568172
21
74.925176
0
LINE
8
Layer 1
10
62.568172
20
74.925176
11
62.957565
21
74.994622
0
LINE
8
Layer 1
10
62.957565
20
74.994622
11
63.261803
21
74.994622
0
LINE
8
Layer 1
10
63.261803
20
74.994622
11
62.864970
21
74.835889
0
LINE
8
Layer 1
10
62.864970
20
74.835889
11
62.864970
21
74.835889
0
LINE
8
Layer 1
10
49.405770
20
74.207570
11
49.405770
21
73.744598
0
LINE
8
Layer 1
10
49.405770
20
73.744598
11
47.176890
21
73.757826
0
LINE
8
Layer 1
10
47.176890
20
73.757826
11
44.948010
21
73.777667
0
LINE
8
Layer 1
10
44.948010
20
73.777667
11
44.848802
21
73.949628
0
LINE
8
Layer 1
10
44.848802
20
73.949628
11
44.797544
21
74.275362
0
LINE
8
Layer 1
10
44.797544
20
74.275362
11
44.954624
21
74.511808
0
LINE
8
Layer 1
10
44.954624
20
74.511808
11
46.958634
21
74.604403
0
LINE
8
Layer 1
10
46.958634
20
74.604403
11
49.127984
21
74.657314
0
LINE
8
Layer 1
10
49.127984
20
74.657314
11
49.405767
21
74.670541
0
LINE
8
Layer 1
10
49.405767
20
74.670541
11
49.405767
21
74.207569
0
LINE
8
Layer 1
10
49.405767
20
74.207569
11
49.405770
21
74.207570
0
LINE
8
Layer 1
10
50.497060
20
74.577947
11
50.629338
21
74.134817
0
LINE
8
Layer 1
10
50.629338
20
74.134817
11
50.604536
21
73.824791
0
LINE
8
Layer 1
10
50.604536
20
73.824791
11
50.450763
21
73.757826
0
LINE
8
Layer 1
10
50.450763
20
73.757826
11
50.265574
21
73.737984
0
LINE
8
Layer 1
10
50.265574
20
73.737984
11
50.265574
21
74.200956
0
LINE
8
Layer 1
10
50.265574
20
74.200956
11
50.318485
21
74.670541
0
LINE
8
Layer 1
10
50.318485
20
74.670541
11
50.497060
21
74.577947
0
LINE
8
Layer 1
10
50.497060
20
74.577947
11
50.497060
21
74.577947
0
LINE
8
Layer 1
10
61.423160
20
73.599093
11
61.284269
21
73.003844
0
LINE
8
Layer 1
10
61.284269
20
73.003844
11
61.178447
21
72.759957
0
LINE
8
Layer 1
10
61.178447
20
72.759957
11
61.112308
21
72.937705
0
LINE
8
Layer 1
10
61.112308
20
72.937705
11
61.416546
21
73.949625
0
LINE
8
Layer 1
10
61.416546
20
73.949625
11
61.489299
21
73.957892
0
LINE
8
Layer 1
10
61.489299
20
73.957892
11
61.423160
21
73.599089
0
LINE
8
Layer 1
10
61.423160
20
73.599089
11
61.423160
21
73.599093
0
LINE
8
Layer 1
10
64.273740
20
73.810737
11
64.992172
21
73.300642
0
LINE
8
Layer 1
10
64.992172
20
73.300642
11
65.497310
21
72.666537
0
LINE
8
Layer 1
10
65.497310
20
72.666537
11
65.677538
21
72.069635
0
LINE
8
Layer 1
10
65.677538
20
72.069635
11
65.669271
21
71.502497
0
LINE
8
Layer 1
10
65.669271
20
71.502497
11
65.309021
21
70.702629
0
LINE
8
Layer 1
10
65.309021
20
70.702629
11
64.682148
21
70.163184
0
LINE
8
Layer 1
10
64.682148
20
70.163184
11
63.859339
21
69.921366
0
LINE
8
Layer 1
10
63.859339
20
69.921366
11
62.911281
21
70.014377
0
LINE
8
Layer 1
10
62.911281
20
70.014377
11
62.354062
21
70.276452
0
LINE
8
Layer 1
10
62.354062
20
70.276452
11
62.223437
21
71.019687
0
LINE
8
Layer 1
10
62.223437
20
71.019687
11
62.236665
21
71.718278
0
LINE
8
Layer 1
10
62.236665
20
71.718278
11
62.587200
21
71.826580
0
LINE
8
Layer 1
10
62.587200
20
71.826580
11
62.891438
21
71.681075
0
LINE
8
Layer 1
10
62.891438
20
71.681075
11
63.133671
21
71.370222
0
LINE
8
Layer 1
10
63.133671
20
71.370222
11
63.559440
21
71.277628
0
LINE
8
Layer 1
10
63.559440
20
71.277628
11
64.029025
21
71.384277
0
LINE
8
Layer 1
10
64.029025
20
71.384277
11
64.320036
21
71.733986
0
LINE
8
Layer 1
10
64.320036
20
71.733986
11
64.357239
21
72.411908
0
LINE
8
Layer 1
10
64.357239
20
72.411908
11
63.923203
21
72.911256
0
LINE
8
Layer 1
10
63.923203
20
72.911256
11
63.461058
21
73.009637
0
LINE
8
Layer 1
10
63.461058
20
73.009637
11
62.984032
21
72.845117
0
LINE
8
Layer 1
10
62.984032
20
72.845117
11
62.523541
21
72.701265
0
LINE
8
Layer 1
10
62.523541
20
72.701265
11
62.216822
21
72.825275
0
LINE
8
Layer 1
10
62.216822
20
72.825275
11
62.304456
21
73.246083
0
LINE
8
Layer 1
10
62.304456
20
73.246083
11
62.640110
21
73.691693
0
LINE
8
Layer 1
10
62.640110
20
73.691693
11
63.419720
21
73.989318
0
LINE
8
Layer 1
10
63.419720
20
73.989318
11
64.273740
21
73.810743
0
LINE
8
Layer 1
10
64.273740
20
73.810743
11
64.273740
21
73.810737
0
LINE
8
Layer 1
10
36.766640
20
73.784281
11
36.204460
21
73.486656
0
LINE
8
Layer 1
10
36.204460
20
73.486656
11
35.139626
21
72.661573
0
LINE
8
Layer 1
10
35.139626
20
72.661573
11
34.550990
21
71.528946
0
LINE
8
Layer 1
10
34.550990
20
71.528946
11
34.512134
21
70.470726
0
LINE
8
Layer 1
10
34.512134
20
70.470726
11
34.994120
21
69.472026
0
LINE
8
Layer 1
10
34.994120
20
69.472026
11
35.214858
21
69.052045
0
LINE
8
Layer 1
10
35.214858
20
69.052045
11
34.795704
21
69.366204
0
LINE
8
Layer 1
10
34.795704
20
69.366204
11
34.349681
21
70.110989
0
LINE
8
Layer 1
10
34.349681
20
70.110989
11
34.218643
21
71.033728
0
LINE
8
Layer 1
10
34.218643
20
71.033728
11
34.397631
21
71.982510
0
LINE
8
Layer 1
10
34.397631
20
71.982510
11
34.881684
21
72.805424
0
LINE
8
Layer 1
10
34.881684
20
72.805424
11
35.485201
21
73.311386
0
LINE
8
Layer 1
10
35.485201
20
73.311386
11
36.178004
21
73.678456
0
LINE
8
Layer 1
10
36.178004
20
73.678456
11
36.621134
21
73.800813
0
LINE
8
Layer 1
10
36.621134
20
73.800813
11
36.766639
21
73.784278
0
LINE
8
Layer 1
10
36.766639
20
73.784278
11
36.766640
21
73.784281
0
LINE
8
Layer 1
10
39.094730
20
73.268398
11
39.590771
21
72.507802
0
LINE
8
Layer 1
10
39.590771
20
72.507802
11
39.438652
21
72.626852
0
LINE
8
Layer 1
10
39.438652
20
72.626852
11
38.995522
21
73.103051
0
LINE
8
Layer 1
10
38.995522
20
73.103051
11
38.769823
21
73.413904
0
LINE
8
Layer 1
10
38.769823
20
73.413904
11
39.094730
21
73.268398
0
LINE
8
Layer 1
10
39.094730
20
73.268398
11
39.094730
21
73.268398
0
LINE
8
Layer 1
10
50.755030
20
72.474732
11
50.893921
21
69.743202
0
LINE
8
Layer 1
10
50.893921
20
69.743202
11
51.059268
21
66.012972
0
LINE
8
Layer 1
10
51.059268
20
66.012972
11
51.059268
21
64.590992
0
LINE
8
Layer 1
10
51.059268
20
64.590992
11
50.815381
21
64.629022
0
LINE
8
Layer 1
10
50.815381
20
64.629022
11
50.497088
21
64.915072
0
LINE
8
Layer 1
10
50.497088
20
64.915072
11
50.381345
21
65.593822
0
LINE
8
Layer 1
10
50.381345
20
65.593822
11
50.344969
21
68.956152
0
LINE
8
Layer 1
10
50.344969
20
68.956152
11
50.325127
21
72.818662
0
LINE
8
Layer 1
10
50.325127
20
72.818662
11
50.516930
21
72.818662
0
LINE
8
Layer 1
10
50.516930
20
72.818662
11
50.690545
21
72.770712
0
LINE
8
Layer 1
10
50.690545
20
72.770712
11
50.755030
21
72.474740
0
LINE
8
Layer 1
10
50.755030
20
72.474740
11
50.755030
21
72.474732
0
LINE
8
Layer 1
10
36.786530
20
72.487960
11
37.295799
21
72.190335
0
LINE
8
Layer 1
10
37.295799
20
72.190335
11
37.864593
21
71.919993
0
LINE
8
Layer 1
10
37.864593
20
71.919993
11
38.195287
21
71.476036
0
LINE
8
Layer 1
10
38.195287
20
71.476036
11
38.281268
21
71.030426
0
LINE
8
Layer 1
10
38.281268
20
71.030426
11
38.188673
21
70.788192
0
LINE
8
Layer 1
10
38.188673
20
70.788192
11
38.036554
21
71.026292
0
LINE
8
Layer 1
10
38.036554
20
71.026292
11
37.731076
21
71.574004
0
LINE
8
Layer 1
10
37.731076
20
71.574004
11
37.274306
21
71.851373
0
LINE
8
Layer 1
10
37.274306
20
71.851373
11
36.760490
21
71.833598
0
LINE
8
Layer 1
10
36.760490
20
71.833598
11
36.283874
21
71.495877
0
LINE
8
Layer 1
10
36.283874
20
71.495877
11
36.107779
21
70.965113
0
LINE
8
Layer 1
10
36.107779
20
70.965113
11
36.244191
21
70.384747
0
LINE
8
Layer 1
10
36.244191
20
70.384747
11
36.703856
21
69.960632
0
LINE
8
Layer 1
10
36.703856
20
69.960632
11
37.223045
21
69.789498
0
LINE
8
Layer 1
10
37.223045
20
69.789498
11
37.423115
21
69.767176
0
LINE
8
Layer 1
10
37.423115
20
69.767176
11
37.176748
21
69.591082
0
LINE
8
Layer 1
10
37.176748
20
69.591082
11
36.594727
21
69.445577
0
LINE
8
Layer 1
10
36.594727
20
69.445577
11
36.278087
21
69.487741
0
LINE
8
Layer 1
10
36.278087
20
69.487741
11
35.986250
21
69.683677
0
LINE
8
Layer 1
10
35.986250
20
69.683677
11
35.589417
21
70.175894
0
LINE
8
Layer 1
10
35.589417
20
70.175894
11
35.405881
21
70.754298
0
LINE
8
Layer 1
10
35.405881
20
70.754298
11
35.443085
21
71.366183
0
LINE
8
Layer 1
10
35.443085
20
71.366183
11
35.708467
21
71.958847
0
LINE
8
Layer 1
10
35.708467
20
71.958847
11
36.588113
21
72.686374
0
LINE
8
Layer 1
10
36.588113
20
72.686374
11
36.786529
21
72.487958
0
LINE
8
Layer 1
10
36.786529
20
72.487958
11
36.786530
21
72.487960
0
LINE
8
Layer 1
10
58.387430
20
71.641383
11
58.069964
21
68.883393
0
LINE
8
Layer 1
10
58.069964
20
68.883393
11
57.904617
21
67.692893
0
LINE
8
Layer 1
10
57.904617
20
67.692893
11
57.302754
21
64.015573
0
LINE
8
Layer 1
10
57.302754
20
64.015573
11
55.245834
21
63.956048
0
LINE
8
Layer 1
10
55.245834
20
63.956048
11
53.221984
21
63.956048
0
LINE
8
Layer 1
10
53.221984
20
63.956048
11
53.519609
21
64.220603
0
LINE
8
Layer 1
10
53.519609
20
64.220603
11
53.949511
21
64.796011
0
LINE
8
Layer 1
10
53.949511
20
64.796011
11
54.096669
21
65.755023
0
LINE
8
Layer 1
10
54.096669
20
65.755023
11
54.293433
21
70.702201
0
LINE
8
Layer 1
10
54.293433
20
70.702201
11
54.333116
21
71.793491
0
LINE
8
Layer 1
10
54.333116
20
71.793491
11
56.019656
21
71.826561
0
LINE
8
Layer 1
10
56.019656
20
71.826561
11
58.153458
21
71.848056
0
LINE
8
Layer 1
10
58.153458
20
71.848056
11
58.366239
21
71.783777
0
LINE
8
Layer 1
10
58.366239
20
71.783777
11
58.387426
21
71.641372
0
LINE
8
Layer 1
10
58.387426
20
71.641372
11
58.387430
21
71.641383
0
LINE
8
Layer 1
10
60.265770
20
70.702212
11
59.921848
21
63.030112
0
LINE
8
Layer 1
10
59.921848
20
63.030112
11
59.690362
21
59.657032
0
LINE
8
Layer 1
10
59.690362
20
59.657032
11
59.220777
21
53.393692
0
LINE
8
Layer 1
10
59.220777
20
53.393692
11
59.155465
21
53.093587
0
LINE
8
Layer 1
10
59.155465
20
53.093587
11
58.976063
21
52.957176
0
LINE
8
Layer 1
10
58.976063
20
52.957176
11
56.085793
21
52.613254
0
LINE
8
Layer 1
10
56.085793
20
52.613254
11
50.735163
21
52.381768
0
LINE
8
Layer 1
10
50.735163
20
52.381768
11
50.510291
21
52.381768
0
LINE
8
Layer 1
10
50.510291
20
52.381768
11
50.768232
21
52.566957
0
LINE
8
Layer 1
10
50.768232
20
52.566957
11
51.118768
21
52.871195
0
LINE
8
Layer 1
10
51.118768
20
52.871195
11
54.095018
21
52.977017
0
LINE
8
Layer 1
10
54.095018
20
52.977017
11
56.978668
21
52.970403
0
LINE
8
Layer 1
10
56.978668
20
52.970403
11
57.130787
21
53.142364
0
LINE
8
Layer 1
10
57.130787
20
53.142364
11
57.269679
21
53.454043
0
LINE
8
Layer 1
10
57.269679
20
53.454043
11
57.130787
21
53.750841
0
LINE
8
Layer 1
10
57.130787
20
53.750841
11
56.991896
21
53.902960
0
LINE
8
Layer 1
10
56.991896
20
53.902960
11
54.419096
21
53.902960
0
LINE
8
Layer 1
10
54.419096
20
53.902960
11
51.852906
21
53.962485
0
LINE
8
Layer 1
10
51.852906
20
53.962485
11
51.952114
21
54.207199
0
LINE
8
Layer 1
10
51.952114
20
54.207199
11
52.047189
21
54.851225
0
LINE
8
Layer 1
10
52.047189
20
54.851225
11
51.938886
21
55.629179
0
LINE
8
Layer 1
10
51.938886
20
55.629179
11
51.423003
21
56.383161
0
LINE
8
Layer 1
10
51.423003
20
56.383161
11
50.941740
21
56.766146
0
LINE
8
Layer 1
10
50.941740
20
56.766146
11
50.340808
21
56.996598
0
LINE
8
Layer 1
10
50.340808
20
56.996598
11
48.182203
21
57.143757
0
LINE
8
Layer 1
10
48.182203
20
57.143757
11
46.575031
21
57.078032
0
LINE
8
Layer 1
10
46.575031
20
57.078032
11
45.458938
21
56.851093
0
LINE
8
Layer 1
10
45.458938
20
56.851093
11
44.707436
21
56.418296
0
LINE
8
Layer 1
10
44.707436
20
56.418296
11
44.194033
21
55.734997
0
LINE
8
Layer 1
10
44.194033
20
55.734997
11
44.045221
21
55.345605
0
LINE
8
Layer 1
10
44.045221
20
55.345605
11
44.015458
21
54.762757
0
LINE
8
Layer 1
10
44.015458
20
54.762757
11
44.114667
21
53.976531
0
LINE
8
Layer 1
10
44.114667
20
53.976531
11
44.551182
21
53.234947
0
LINE
8
Layer 1
10
44.551182
20
53.234947
11
44.776054
21
52.891025
0
LINE
8
Layer 1
10
44.776054
20
52.891025
11
43.770744
21
52.990233
0
LINE
8
Layer 1
10
43.770744
20
52.990233
11
43.517764
21
53.343249
0
LINE
8
Layer 1
10
43.517764
20
53.343249
11
43.056445
21
54.663543
0
LINE
8
Layer 1
10
43.056445
20
54.663543
11
42.461196
21
56.482363
0
LINE
8
Layer 1
10
42.461196
20
56.482363
11
42.130502
21
57.540583
0
LINE
8
Layer 1
10
42.130502
20
57.540583
11
41.932086
21
58.201971
0
LINE
8
Layer 1
10
41.932086
20
58.201971
11
40.992915
21
61.244351
0
LINE
8
Layer 1
10
40.992915
20
61.244351
11
40.801112
21
61.872670
0
LINE
8
Layer 1
10
40.801112
20
61.872670
11
40.490260
21
63.135920
0
LINE
8
Layer 1
10
40.490260
20
63.135920
11
41.065668
21
63.168990
0
LINE
8
Layer 1
10
41.065668
20
63.168990
11
41.211173
21
62.706018
0
LINE
8
Layer 1
10
41.211173
20
62.706018
11
41.412897
21
62.023135
0
LINE
8
Layer 1
10
41.412897
20
62.023135
11
41.773353
21
61.667638
0
LINE
8
Layer 1
10
41.773353
20
61.667638
11
46.760223
21
61.588271
0
LINE
8
Layer 1
10
46.760223
20
61.588271
11
51.522213
21
61.608113
0
LINE
8
Layer 1
10
51.522213
20
61.608113
11
51.733857
21
61.826371
0
LINE
8
Layer 1
10
51.733857
20
61.826371
11
51.922353
21
62.085965
0
LINE
8
Layer 1
10
51.922353
20
62.085965
11
51.971957
21
62.553898
0
LINE
8
Layer 1
10
51.971957
20
62.553898
11
51.998413
21
63.063167
0
LINE
8
Layer 1
10
51.998413
20
63.063167
11
54.630733
21
63.043325
0
LINE
8
Layer 1
10
54.630733
20
63.043325
11
57.534223
21
63.096236
0
LINE
8
Layer 1
10
57.534223
20
63.096236
11
57.832261
21
63.224587
0
LINE
8
Layer 1
10
57.832261
20
63.224587
11
58.033571
21
63.488108
0
LINE
8
Layer 1
10
58.033571
20
63.488108
11
58.334502
21
64.822456
0
LINE
8
Layer 1
10
58.334502
20
64.822456
11
59.227376
21
71.099026
0
LINE
8
Layer 1
10
59.227376
20
71.099026
11
59.306742
21
71.780256
0
LINE
8
Layer 1
10
59.306742
20
71.780256
11
59.809397
21
71.813326
0
LINE
8
Layer 1
10
59.809397
20
71.813326
11
60.285596
21
71.793484
0
LINE
8
Layer 1
10
60.285596
20
71.793484
11
60.265755
21
70.702194
0
LINE
8
Layer 1
10
60.265755
20
70.702194
11
60.265770
21
70.702212
0
LINE
8
Layer 1
10
66.363770
20
70.292151
11
66.601870
21
67.891311
0
LINE
8
Layer 1
10
66.601870
20
67.891311
11
66.806900
21
65.543381
0
LINE
8
Layer 1
10
66.806900
20
65.543381
11
67.269872
21
60.073701
0
LINE
8
Layer 1
10
67.269872
20
60.073701
11
67.421991
21
58.142451
0
LINE
8
Layer 1
10
67.421991
20
58.142451
11
67.276486
21
57.838213
0
LINE
8
Layer 1
10
67.276486
20
57.838213
11
67.064842
21
57.540588
0
LINE
8
Layer 1
10
67.064842
20
57.540588
11
67.104525
21
57.844826
0
LINE
8
Layer 1
10
67.104525
20
57.844826
11
67.210347
21
58.563258
0
LINE
8
Layer 1
10
67.210347
20
58.563258
11
67.097911
21
59.286656
0
LINE
8
Layer 1
10
67.097911
20
59.286656
11
66.674623
21
59.881905
0
LINE
8
Layer 1
10
66.674623
20
59.881905
11
66.357157
21
60.219213
0
LINE
8
Layer 1
10
66.357157
20
60.219213
11
66.211652
21
61.641193
0
LINE
8
Layer 1
10
66.211652
20
61.641193
11
65.609789
21
66.542083
0
LINE
8
Layer 1
10
65.609789
20
66.542083
11
65.176580
21
67.174536
0
LINE
8
Layer 1
10
65.176580
20
67.174536
11
64.366379
21
67.395274
0
LINE
8
Layer 1
10
64.366379
20
67.395274
11
63.808333
21
67.277051
0
LINE
8
Layer 1
10
63.808333
20
67.277051
11
63.334609
21
66.846322
0
LINE
8
Layer 1
10
63.334609
20
66.846322
11
63.155208
21
66.528856
0
LINE
8
Layer 1
10
63.155208
20
66.528856
11
63.129579
21
65.854240
0
LINE
8
Layer 1
10
63.129579
20
65.854240
11
63.215560
21
64.485170
0
LINE
8
Layer 1
10
63.215560
20
64.485170
11
63.394135
21
62.467940
0
LINE
8
Layer 1
10
63.394135
20
62.467940
11
63.552868
21
60.457320
0
LINE
8
Layer 1
10
63.552868
20
60.457320
11
63.577670
21
59.881086
0
LINE
8
Layer 1
10
63.577670
20
59.881086
11
63.453660
21
59.537991
0
LINE
8
Layer 1
10
63.453660
20
59.537991
11
63.294927
21
58.711256
0
LINE
8
Layer 1
10
63.294927
20
58.711256
11
63.222174
21
58.248284
0
LINE
8
Layer 1
10
63.222174
20
58.248284
11
62.871638
21
61.508924
0
LINE
8
Layer 1
10
62.871638
20
61.508924
11
62.368983
21
68.612234
0
LINE
8
Layer 1
10
62.368983
20
68.612234
11
62.335914
21
69.181028
0
LINE
8
Layer 1
10
62.335914
20
69.181028
11
62.712905
21
69.141345
0
LINE
8
Layer 1
10
62.712905
20
69.141345
11
63.709120
21
69.047924
0
LINE
8
Layer 1
10
63.709120
20
69.047924
11
64.670615
21
69.187642
0
LINE
8
Layer 1
10
64.670615
20
69.187642
11
65.445265
21
69.600183
0
LINE
8
Layer 1
10
65.445265
20
69.600183
11
66.046305
21
70.166496
0
LINE
8
Layer 1
10
66.046305
20
70.166496
11
66.272003
21
70.422784
0
LINE
8
Layer 1
10
66.272003
20
70.422784
11
66.363771
21
70.292160
0
LINE
8
Layer 1
10
66.363771
20
70.292160
11
66.363770
21
70.292151
0
LINE
8
Layer 1
10
38.962470
20
69.829179
11
38.836806
21
69.405891
0
LINE
8
Layer 1
10
38.836806
20
69.405891
11
37.765356
21
68.942919
0
LINE
8
Layer 1
10
37.765356
20
68.942919
11
38.122506
21
69.240544
0
LINE
8
Layer 1
10
38.122506
20
69.240544
11
38.704527
21
69.868863
0
LINE
8
Layer 1
10
38.704527
20
69.868863
11
38.949241
21
70.199557
0
LINE
8
Layer 1
10
38.949241
20
70.199557
11
38.962469
21
69.829180
0
LINE
8
Layer 1
10
38.962469
20
69.829180
11
38.962470
21
69.829179
0
LINE
8
Layer 1
10
40.344770
20
68.817259
11
40.913564
21
64.339659
0
LINE
8
Layer 1
10
40.913564
20
64.339659
11
40.959861
21
64.088332
0
LINE
8
Layer 1
10
40.959861
20
64.088332
11
40.629167
21
64.088332
0
LINE
8
Layer 1
10
40.629167
20
64.088332
11
40.225720
21
64.174313
0
LINE
8
Layer 1
10
40.225720
20
64.174313
11
40.086829
21
65.841013
0
LINE
8
Layer 1
10
40.086829
20
65.841013
11
39.941324
21
68.301373
0
LINE
8
Layer 1
10
39.941324
20
68.301373
11
39.901641
21
69.100825
0
LINE
8
Layer 1
10
39.901641
20
69.100825
11
40.020691
21
69.478643
0
LINE
8
Layer 1
10
40.020691
20
69.478643
11
40.219107
21
69.729970
0
LINE
8
Layer 1
10
40.219107
20
69.729970
11
40.344771
21
68.817255
0
LINE
8
Layer 1
10
40.344771
20
68.817255
11
40.344770
21
68.817259
0
LINE
8
Layer 1
10
34.709740
20
68.255079
11
35.139642
21
68.056663
0
LINE
8
Layer 1
10
35.139642
20
68.056663
11
35.285147
21
67.990524
0
LINE
8
Layer 1
10
35.285147
20
67.990524
11
35.060275
21
67.924386
0
LINE
8
Layer 1
10
35.060275
20
67.924386
11
34.610531
21
67.765653
0
LINE
8
Layer 1
10
34.610531
20
67.765653
11
34.425342
21
67.606920
0
LINE
8
Layer 1
10
34.425342
20
67.606920
11
34.418728
21
63.777480
0
LINE
8
Layer 1
10
34.418728
20
63.777480
11
34.445184
21
59.604120
0
LINE
8
Layer 1
10
34.445184
20
59.604120
11
34.593996
21
59.097331
0
LINE
8
Layer 1
10
34.593996
20
59.097331
11
34.941225
21
58.704632
0
LINE
8
Layer 1
10
34.941225
20
58.704632
11
35.675366
21
58.565741
0
LINE
8
Layer 1
10
35.675366
20
58.565741
11
36.173887
21
58.595503
0
LINE
8
Layer 1
10
36.173887
20
58.595503
11
36.488873
21
58.744316
0
LINE
8
Layer 1
10
36.488873
20
58.744316
11
36.872478
21
59.167604
0
LINE
8
Layer 1
10
36.872478
20
59.167604
11
37.560322
21
64.088334
0
LINE
8
Layer 1
10
37.560322
20
64.088334
11
37.930699
21
66.925684
0
LINE
8
Layer 1
10
37.930699
20
66.925684
11
38.036521
21
66.886000
0
LINE
8
Layer 1
10
38.036521
20
66.886000
11
37.798421
21
62.302580
0
LINE
8
Layer 1
10
37.798421
20
62.302580
11
37.368519
21
56.746920
0
LINE
8
Layer 1
10
37.368519
20
56.746920
11
37.302380
21
55.986324
0
LINE
8
Layer 1
10
37.302380
20
55.986324
11
37.123805
21
55.715155
0
LINE
8
Layer 1
10
37.123805
20
55.715155
11
37.037824
21
56.277335
0
LINE
8
Layer 1
10
37.037824
20
56.277335
11
36.914848
21
56.906377
0
LINE
8
Layer 1
10
36.914848
20
56.906377
11
36.644298
21
57.346304
0
LINE
8
Layer 1
10
36.644298
20
57.346304
11
36.210054
21
57.613856
0
LINE
8
Layer 1
10
36.210054
20
57.613856
11
35.595994
21
57.725775
0
LINE
8
Layer 1
10
35.595994
20
57.725775
11
34.769259
21
57.606725
0
LINE
8
Layer 1
10
34.769259
20
57.606725
11
34.376147
21
57.336589
0
LINE
8
Layer 1
10
34.376147
20
57.336589
11
34.104564
21
56.963525
0
LINE
8
Layer 1
10
34.104564
20
56.963525
11
33.955752
21
55.973095
0
LINE
8
Layer 1
10
33.955752
20
55.973095
11
34.150035
21
55.334753
0
LINE
8
Layer 1
10
34.150035
20
55.334753
11
34.542735
21
54.874367
0
LINE
8
Layer 1
10
34.542735
20
54.874367
11
35.101608
21
54.616117
0
LINE
8
Layer 1
10
35.101608
20
54.616117
11
35.794412
21
54.584185
0
LINE
8
Layer 1
10
35.794412
20
54.584185
11
36.111878
21
54.623869
0
LINE
8
Layer 1
10
36.111878
20
54.623869
11
36.111878
21
54.240264
0
LINE
8
Layer 1
10
36.111878
20
54.240264
11
36.085423
21
53.896342
0
LINE
8
Layer 1
10
36.085423
20
53.896342
11
35.900234
21
53.810362
0
LINE
8
Layer 1
10
35.900234
20
53.810362
11
34.379044
21
53.816975
0
LINE
8
Layer 1
10
34.379044
20
53.816975
11
33.069494
21
53.856659
0
LINE
8
Layer 1
10
33.069494
20
53.856659
11
33.069494
21
54.227036
0
LINE
8
Layer 1
10
33.069494
20
54.227036
11
33.135633
21
55.358006
0
LINE
8
Layer 1
10
33.135633
20
55.358006
11
33.499396
21
59.723166
0
LINE
8
Layer 1
10
33.499396
20
59.723166
11
33.664743
21
61.608126
0
LINE
8
Layer 1
10
33.664743
20
61.608126
11
33.896229
21
64.286746
0
LINE
8
Layer 1
10
33.896229
20
64.286746
11
34.127715
21
66.766946
0
LINE
8
Layer 1
10
34.127715
20
66.766946
11
34.233537
21
67.792096
0
LINE
8
Layer 1
10
34.233537
20
67.792096
11
34.359201
21
68.453484
0
LINE
8
Layer 1
10
34.359201
20
68.453484
11
34.709737
21
68.255068
0
LINE
8
Layer 1
10
34.709737
20
68.255068
11
34.709740
21
68.255079
0
LINE
8
Layer 1
10
36.826180
20
66.971989
11
36.469030
21
66.800028
0
LINE
8
Layer 1
10
36.469030
20
66.800028
11
35.847325
21
67.011672
0
LINE
8
Layer 1
10
35.847325
20
67.011672
11
36.826179
21
66.971989
0
LINE
8
Layer 1
10
36.826179
20
66.971989
11
36.826180
21
66.971989
0
LINE
8
Layer 1
10
64.644180
20
66.383354
11
64.826888
21
65.793065
0
LINE
8
Layer 1
10
64.826888
20
65.793065
11
65.113765
21
63.526154
0
LINE
8
Layer 1
10
65.113765
20
63.526154
11
65.345251
21
61.608124
0
LINE
8
Layer 1
10
65.345251
20
61.608124
11
65.411390
21
60.940122
0
LINE
8
Layer 1
10
65.411390
20
60.940122
11
65.411390
21
60.728478
0
LINE
8
Layer 1
10
65.411390
20
60.728478
11
64.968260
21
60.702023
0
LINE
8
Layer 1
10
64.968260
20
60.702023
11
64.478833
21
60.728478
0
LINE
8
Layer 1
10
64.478833
20
60.728478
11
64.075386
21
65.093638
0
LINE
8
Layer 1
10
64.075386
20
65.093638
11
64.053891
21
66.227921
0
LINE
8
Layer 1
10
64.053891
20
66.227921
11
64.151652
21
66.421791
0
LINE
8
Layer 1
10
64.151652
20
66.421791
11
64.339941
21
66.469328
0
LINE
8
Layer 1
10
64.339941
20
66.469328
11
64.644179
21
66.383348
0
LINE
8
Layer 1
10
64.644179
20
66.383348
11
64.644180
21
66.383354
0
LINE
8
Layer 1
10
35.615880
20
65.933610
11
36.416159
21
65.821174
0
LINE
8
Layer 1
10
36.416159
20
65.821174
11
36.905586
21
65.755035
0
LINE
8
Layer 1
10
36.905586
20
65.755035
11
36.806378
21
64.928300
0
LINE
8
Layer 1
10
36.806378
20
64.928300
11
36.416159
21
62.004970
0
LINE
8
Layer 1
10
36.416159
20
62.004970
11
36.124322
21
59.892665
0
LINE
8
Layer 1
10
36.124322
20
59.892665
11
35.966415
21
59.511540
0
LINE
8
Layer 1
10
35.966415
20
59.511540
11
35.675404
21
59.392490
0
LINE
8
Layer 1
10
35.675404
20
59.392490
11
35.478951
21
59.453565
0
LINE
8
Layer 1
10
35.478951
20
59.453565
11
35.373645
21
59.846368
0
LINE
8
Layer 1
10
35.373645
20
59.846368
11
35.305027
21
62.884620
0
LINE
8
Layer 1
10
35.305027
20
62.884620
11
35.291799
21
66.072510
0
LINE
8
Layer 1
10
35.291799
20
66.072510
11
35.615879
21
65.933619
0
LINE
8
Layer 1
10
35.615879
20
65.933619
11
35.615880
21
65.933610
0
LINE
8
Layer 1
10
49.392580
20
63.056570
11
51.059280
21
63.010273
0
LINE
8
Layer 1
10
51.059280
20
63.010273
11
51.059280
21
62.831698
0
LINE
8
Layer 1
10
51.059280
20
62.831698
11
51.039748
21
62.588328
0
LINE
8
Layer 1
10
51.039748
20
62.588328
11
50.635165
21
62.472068
0
LINE
8
Layer 1
10
50.635165
20
62.472068
11
46.594910
21
62.434865
0
LINE
8
Layer 1
10
46.594910
20
62.434865
11
42.143770
21
62.520845
0
LINE
8
Layer 1
10
42.143770
20
62.520845
11
42.031334
21
62.891222
0
LINE
8
Layer 1
10
42.031334
20
62.891222
11
41.985037
21
63.182233
0
LINE
8
Layer 1
10
41.985037
20
63.182233
11
44.848847
21
63.135936
0
LINE
8
Layer 1
10
44.848847
20
63.135936
11
49.392587
21
63.056570
0
LINE
8
Layer 1
10
49.392587
20
63.056570
11
49.392580
21
63.056570
0
LINE
8
Layer 1
10
65.193180
20
58.625270
11
65.067516
21
58.618656
0
LINE
8
Layer 1
10
65.067516
20
58.618656
11
65.107199
21
58.658340
0
LINE
8
Layer 1
10
65.107199
20
58.658340
11
65.193180
21
58.625270
0
LINE
8
Layer 1
10
65.193180
20
58.625270
11
65.193180
21
58.625270
0
LINE
8
Layer 1
10
66.304310
20
58.201982
11
66.018260
21
57.893610
0
LINE
8
Layer 1
10
66.018260
20
57.893610
11
65.682605
21
57.739010
0
LINE
8
Layer 1
10
65.682605
20
57.739010
11
65.867794
21
57.937426
0
LINE
8
Layer 1
10
65.867794
20
57.937426
11
66.258013
21
58.380556
0
LINE
8
Layer 1
10
66.258013
20
58.380556
11
66.390291
21
58.512834
0
LINE
8
Layer 1
10
66.390291
20
58.512834
11
66.304311
21
58.201982
0
LINE
8
Layer 1
10
66.304311
20
58.201982
11
66.304310
21
58.201982
0
LINE
8
Layer 1
10
65.232860
20
57.004872
11
65.510643
21
56.998258
0
LINE
8
Layer 1
10
65.510643
20
56.998258
11
65.298999
21
56.932119
0
LINE
8
Layer 1
10
65.298999
20
56.932119
11
64.937716
21
56.903184
0
LINE
8
Layer 1
10
64.937716
20
56.903184
11
64.750047
21
57.018100
0
LINE
8
Layer 1
10
64.750047
20
57.018100
11
64.855869
21
57.051169
0
LINE
8
Layer 1
10
64.855869
20
57.051169
11
65.232860
21
57.004872
0
LINE
8
Layer 1
10
65.232860
20
57.004872
11
65.232860
21
57.004872
0
LINE
8
Layer 1
10
35.847360
20
56.780000
11
36.078846
21
56.429464
0
LINE
8
Layer 1
10
36.078846
20
56.429464
11
36.151599
21
55.966492
0
LINE
8
Layer 1
10
36.151599
20
55.966492
11
36.116876
21
55.572140
0
LINE
8
Layer 1
10
36.116876
20
55.572140
11
35.675400
21
55.490293
0
LINE
8
Layer 1
10
35.675400
20
55.490293
11
35.281874
21
55.521709
0
LINE
8
Layer 1
10
35.281874
20
55.521709
11
35.047081
21
55.682096
0
LINE
8
Layer 1
10
35.047081
20
55.682096
11
34.856932
21
56.080582
0
LINE
8
Layer 1
10
34.856932
20
56.080582
11
34.954486
21
56.548514
0
LINE
8
Layer 1
10
34.954486
20
56.548514
11
35.324037
21
56.862673
0
LINE
8
Layer 1
10
35.324037
20
56.862673
11
35.847360
21
56.780000
0
LINE
8
Layer 1
10
35.847360
20
56.780000
11
35.847360
21
56.780000
0
LINE
8
Layer 1
10
50.265660
20
56.085543
11
50.916300
21
55.634972
0
LINE
8
Layer 1
10
50.916300
20
55.634972
11
51.125464
21
54.881813
0
LINE
8
Layer 1
10
51.125464
20
54.881813
11
50.922087
21
54.141058
0
LINE
8
Layer 1
10
50.922087
20
54.141058
11
50.729251
21
53.938714
0
LINE
8
Layer 1
10
50.729251
20
53.938714
11
50.530215
21
53.936028
0
LINE
8
Layer 1
10
50.530215
20
53.936028
11
50.464076
21
54.286564
0
LINE
8
Layer 1
10
50.464076
20
54.286564
11
50.375616
21
54.889254
0
LINE
8
Layer 1
10
50.375616
20
54.889254
11
50.093699
21
55.358014
0
LINE
8
Layer 1
10
50.093699
20
55.358014
11
49.583604
21
55.701109
0
LINE
8
Layer 1
10
49.583604
20
55.701109
11
48.711399
21
55.781302
0
LINE
8
Layer 1
10
48.711399
20
55.781302
11
47.775534
21
55.690361
0
LINE
8
Layer 1
10
47.775534
20
55.690361
11
47.216659
21
55.371241
0
LINE
8
Layer 1
10
47.216659
20
55.371241
11
46.879351
21
54.723081
0
LINE
8
Layer 1
10
46.879351
20
54.723081
11
46.859510
21
53.972406
0
LINE
8
Layer 1
10
46.859510
20
53.972406
11
47.157134
21
53.439991
0
LINE
8
Layer 1
10
47.157134
20
53.439991
11
47.666403
21
53.115911
0
LINE
8
Layer 1
10
47.666403
20
53.115911
11
48.909813
21
53.043158
0
LINE
8
Layer 1
10
48.909813
20
53.043158
11
49.798555
21
52.994381
0
LINE
8
Layer 1
10
49.798555
20
52.994381
11
49.293418
21
52.851355
0
LINE
8
Layer 1
10
49.293418
20
52.851355
11
46.826438
21
52.844742
0
LINE
8
Layer 1
10
46.826438
20
52.844742
11
45.955885
21
53.066306
0
LINE
8
Layer 1
10
45.955885
20
53.066306
11
45.358158
21
53.605338
0
LINE
8
Layer 1
10
45.358158
20
53.605338
11
44.933216
21
54.546162
0
LINE
8
Layer 1
10
44.933216
20
54.546162
11
45.034078
21
55.417538
0
LINE
8
Layer 1
10
45.034078
20
55.417538
11
45.551614
21
55.896217
0
LINE
8
Layer 1
10
45.551614
20
55.896217
11
46.495748
21
56.151679
0
LINE
8
Layer 1
10
46.495748
20
56.151679
11
50.265658
21
56.085540
0
LINE
8
Layer 1
10
50.265658
20
56.085540
11
50.265660
21
56.085543
0
LINE
8
Layer 1
10
67.124460
20
54.729693
11
66.932657
21
46.892243
0
LINE
8
Layer 1
10
66.932657
20
46.892243
11
66.826835
21
43.915993
0
LINE
8
Layer 1
10
66.826835
20
43.915993
11
66.721013
21
42.520463
0
LINE
8
Layer 1
10
66.721013
20
42.520463
11
65.563583
21
42.494008
0
LINE
8
Layer 1
10
65.563583
20
42.494008
11
64.452453
21
42.494008
0
LINE
8
Layer 1
10
64.452453
20
42.494008
11
64.406156
21
42.824702
0
LINE
8
Layer 1
10
64.406156
20
42.824702
11
64.287106
21
44.213612
0
LINE
8
Layer 1
10
64.287106
20
44.213612
11
64.115145
21
46.587992
0
LINE
8
Layer 1
10
64.115145
20
46.587992
11
63.923342
21
49.332752
0
LINE
8
Layer 1
10
63.923342
20
49.332752
11
63.724926
21
52.150262
0
LINE
8
Layer 1
10
63.724926
20
52.150262
11
63.579421
21
55.080212
0
LINE
8
Layer 1
10
63.579421
20
55.080212
11
65.371781
21
55.146350
0
LINE
8
Layer 1
10
65.371781
20
55.146350
11
67.098001
21
55.126509
0
LINE
8
Layer 1
10
67.098001
20
55.126509
11
67.124456
21
54.729676
0
LINE
8
Layer 1
10
67.124456
20
54.729676
11
67.124460
21
54.729693
0
LINE
8
Layer 1
10
49.392660
20
54.789218
11
49.515844
21
54.637926
0
LINE
8
Layer 1
10
49.515844
20
54.637926
11
49.524938
21
54.313019
0
LINE
8
Layer 1
10
49.524938
20
54.313019
11
49.505096
21
53.936028
0
LINE
8
Layer 1
10
49.505096
20
53.936028
11
48.876777
21
53.916186
0
LINE
8
Layer 1
10
48.876777
20
53.916186
11
48.158345
21
53.931894
0
LINE
8
Layer 1
10
48.158345
20
53.931894
11
47.831787
21
54.101375
0
LINE
8
Layer 1
10
47.831787
20
54.101375
11
47.692896
21
54.408094
0
LINE
8
Layer 1
10
47.692896
20
54.408094
11
47.851629
21
54.729694
0
LINE
8
Layer 1
10
47.851629
20
54.729694
11
48.082288
21
54.869413
0
LINE
8
Layer 1
10
48.082288
20
54.869413
11
48.625453
21
54.895041
0
LINE
8
Layer 1
10
48.625453
20
54.895041
11
49.392663
21
54.789219
0
LINE
8
Layer 1
10
49.392663
20
54.789219
11
49.392660
21
54.789218
0
LINE
8
Layer 1
10
35.106660
20
51.674078
11
34.842105
21
51.674078
0
LINE
8
Layer 1
10
34.842105
20
51.674078
11
34.954541
21
51.700534
0
LINE
8
Layer 1
10
34.954541
20
51.700534
11
35.106660
21
51.674078
0
LINE
8
Layer 1
10
35.106660
20
51.674078
11
35.106660
21
51.674078
0
LINE
8
Layer 1
10
36.647690
20
50.099978
11
36.475729
21
47.851258
0
LINE
8
Layer 1
10
36.475729
20
47.851258
11
36.277313
21
45.225548
0
LINE
8
Layer 1
10
36.277313
20
45.225548
11
36.125194
21
43.644828
0
LINE
8
Layer 1
10
36.125194
20
43.644828
11
36.067323
21
43.547273
0
LINE
8
Layer 1
10
36.067323
20
43.547273
11
35.979689
21
43.618373
0
LINE
8
Layer 1
10
35.979689
20
43.618373
11
35.973075
21
44.927923
0
LINE
8
Layer 1
10
35.973075
20
44.927923
11
36.270700
21
48.512643
0
LINE
8
Layer 1
10
36.270700
20
48.512643
11
36.436047
21
50.232253
0
LINE
8
Layer 1
10
36.436047
20
50.232253
11
36.588166
21
51.323543
0
LINE
8
Layer 1
10
36.588166
20
51.323543
11
36.674147
21
51.687306
0
LINE
8
Layer 1
10
36.674147
20
51.687306
11
36.693988
21
51.422751
0
LINE
8
Layer 1
10
36.693988
20
51.422751
11
36.647691
21
50.099971
0
LINE
8
Layer 1
10
36.647691
20
50.099971
11
36.647690
21
50.099978
0
LINE
8
Layer 1
10
33.598690
20
51.290478
11
33.850844
21
51.010215
0
LINE
8
Layer 1
10
33.850844
20
51.010215
11
34.365900
21
50.754754
0
LINE
8
Layer 1
10
34.365900
20
50.754754
11
35.384440
21
50.728299
0
LINE
8
Layer 1
10
35.384440
20
50.728299
11
35.542346
21
50.704323
0
LINE
8
Layer 1
10
35.542346
20
50.704323
11
35.516718
21
50.199189
0
LINE
8
Layer 1
10
35.516718
20
50.199189
11
35.318302
21
47.785119
0
LINE
8
Layer 1
10
35.318302
20
47.785119
11
35.100044
21
45.040359
0
LINE
8
Layer 1
10
35.100044
20
45.040359
11
35.020677
21
44.213624
0
LINE
8
Layer 1
10
35.020677
20
44.213624
11
34.656914
21
44.167326
0
LINE
8
Layer 1
10
34.656914
20
44.167326
11
34.107962
21
43.909385
0
LINE
8
Layer 1
10
34.107962
20
43.909385
11
33.902932
21
43.730810
0
LINE
8
Layer 1
10
33.902932
20
43.730810
11
33.803724
21
45.470260
0
LINE
8
Layer 1
10
33.803724
20
45.470260
11
33.486258
21
50.853960
0
LINE
8
Layer 1
10
33.486258
20
50.853960
11
33.519328
21
51.429368
0
LINE
8
Layer 1
10
33.519328
20
51.429368
11
33.598694
21
51.290477
0
LINE
8
Layer 1
10
33.598694
20
51.290477
11
33.598690
21
51.290478
0
LINE
8
Layer 1
10
35.020670
20
42.857778
11
34.888392
21
42.626292
0
LINE
8
Layer 1
10
34.888392
20
42.626292
11
34.736273
21
42.778411
0
LINE
8
Layer 1
10
34.736273
20
42.778411
11
34.756941
21
43.038006
0
LINE
8
Layer 1
10
34.756941
20
43.038006
11
34.901620
21
43.109105
0
LINE
8
Layer 1
10
34.901620
20
43.109105
11
35.020670
21
42.857778
0
LINE
8
Layer 1
10
35.020670
20
42.857778
11
35.020670
21
42.857778
0
LINE
8
Layer 1
10
66.641670
20
41.508548
11
66.456481
21
39.855078
0
LINE
8
Layer 1
10
66.456481
20
39.855078
11
66.179525
21
39.482221
0
LINE
8
Layer 1
10
66.179525
20
39.482221
11
65.669429
21
39.352423
0
LINE
8
Layer 1
10
65.669429
20
39.352423
11
65.389166
21
39.392106
0
LINE
8
Layer 1
10
65.389166
20
39.392106
11
65.173388
21
39.570681
0
LINE
8
Layer 1
10
65.173388
20
39.570681
11
64.895605
21
39.980742
0
LINE
8
Layer 1
10
64.895605
20
39.980742
11
64.584753
21
41.541622
0
LINE
8
Layer 1
10
64.584753
20
41.541622
11
65.616523
21
41.601147
0
LINE
8
Layer 1
10
65.616523
20
41.601147
11
66.641673
21
41.508553
0
LINE
8
Layer 1
10
66.641673
20
41.508553
11
66.641670
21
41.508548
0
LINE
8
Layer 1
10
64.022570
20
39.762488
11
64.262220
21
39.206508
0
LINE
8
Layer 1
10
64.262220
20
39.206508
11
64.610379
21
38.801821
0
LINE
8
Layer 1
10
64.610379
20
38.801821
11
65.061466
21
38.553387
0
LINE
8
Layer 1
10
65.061466
20
38.553387
11
65.609900
21
38.466168
0
LINE
8
Layer 1
10
65.609900
20
38.466168
11
66.283792
21
38.578397
0
LINE
8
Layer 1
10
66.283792
20
38.578397
11
66.824374
21
38.922526
0
LINE
8
Layer 1
10
66.824374
20
38.922526
11
67.212424
21
39.479953
0
LINE
8
Layer 1
10
67.212424
20
39.479953
11
67.428720
21
40.232078
0
LINE
8
Layer 1
10
67.428720
20
40.232078
11
67.527928
21
40.542930
0
LINE
8
Layer 1
10
67.527928
20
40.542930
11
67.790830
21
39.838553
0
LINE
8
Layer 1
10
67.790830
20
39.838553
11
67.924761
21
38.439720
0
LINE
8
Layer 1
10
67.924761
20
38.439720
11
67.924761
21
38.023046
0
LINE
8
Layer 1
10
67.924761
20
38.023046
11
65.927371
21
38.056115
0
LINE
8
Layer 1
10
65.927371
20
38.056115
11
63.698491
21
38.089185
0
LINE
8
Layer 1
10
63.698491
20
38.089185
11
63.473619
21
38.095799
0
LINE
8
Layer 1
10
63.473619
20
38.095799
11
63.513302
21
39.074653
0
LINE
8
Layer 1
10
63.513302
20
39.074653
11
63.632352
21
40.404043
0
LINE
8
Layer 1
10
63.632352
20
40.404043
11
63.718333
21
40.761193
0
LINE
8
Layer 1
10
63.718333
20
40.761193
11
63.797699
21
40.503252
0
LINE
8
Layer 1
10
63.797699
20
40.503252
11
64.022571
21
39.762497
0
LINE
8
Layer 1
10
64.022571
20
39.762497
11
64.022570
21
39.762488
0
LINE
8
Layer 1
10
32.805070
20
40.291598
11
32.666179
21
40.106409
0
LINE
8
Layer 1
10
32.666179
20
40.106409
11
32.355327
21
39.650051
0
LINE
8
Layer 1
10
32.355327
20
39.650051
11
32.204861
21
39.250738
0
LINE
8
Layer 1
10
32.204861
20
39.250738
11
32.183366
21
38.558761
0
LINE
8
Layer 1
10
32.183366
20
38.558761
11
32.213128
21
37.857690
0
LINE
8
Layer 1
10
32.213128
20
37.857690
11
32.361941
21
37.414561
0
LINE
8
Layer 1
10
32.361941
20
37.414561
11
32.547130
21
37.024342
0
LINE
8
Layer 1
10
32.547130
20
37.024342
11
32.547130
21
35.198912
0
LINE
8
Layer 1
10
32.547130
20
35.198912
11
32.474377
21
32.507062
0
LINE
8
Layer 1
10
32.474377
20
32.507062
11
32.070930
21
33.122153
0
LINE
8
Layer 1
10
32.070930
20
33.122153
11
31.733622
21
33.697561
0
LINE
8
Layer 1
10
31.733622
20
33.697561
11
31.733622
21
36.581211
0
LINE
8
Layer 1
10
31.733622
20
36.581211
11
31.791494
21
39.637651
0
LINE
8
Layer 1
10
31.791494
20
39.637651
11
31.899176
21
40.114574
0
LINE
8
Layer 1
10
31.899176
20
40.114574
11
32.097385
21
40.278371
0
LINE
8
Layer 1
10
32.097385
20
40.278371
11
32.805070
21
40.291599
0
LINE
8
Layer 1
10
32.805070
20
40.291599
11
32.805070
21
40.291598
0
LINE
8
Layer 1
10
37.375260
20
40.218845
11
37.519112
21
39.917914
0
LINE
8
Layer 1
10
37.519112
20
39.917914
11
37.573676
21
38.644745
0
LINE
8
Layer 1
10
37.573676
20
38.644745
11
37.580290
21
35.265055
0
LINE
8
Layer 1
10
37.580290
20
35.265055
11
37.531512
21
33.582650
0
LINE
8
Layer 1
10
37.531512
20
33.582650
11
37.408329
21
33.175065
0
LINE
8
Layer 1
10
37.408329
20
33.175065
11
37.018110
21
32.612885
0
LINE
8
Layer 1
10
37.018110
20
32.612885
11
36.707258
21
32.209438
0
LINE
8
Layer 1
10
36.707258
20
32.209438
11
36.687416
21
34.213448
0
LINE
8
Layer 1
10
36.687416
20
34.213448
11
36.660961
21
36.475398
0
LINE
8
Layer 1
10
36.660961
20
36.475398
11
36.649386
21
36.780464
0
LINE
8
Layer 1
10
36.649386
20
36.780464
11
36.865991
21
37.269064
0
LINE
8
Layer 1
10
36.865991
20
37.269064
11
37.098303
21
37.813056
0
LINE
8
Layer 1
10
37.098303
20
37.813056
11
37.137160
21
38.426494
0
LINE
8
Layer 1
10
37.137160
20
38.426494
11
37.025551
21
39.346651
0
LINE
8
Layer 1
10
37.025551
20
39.346651
11
36.660961
21
40.013824
0
LINE
8
Layer 1
10
36.660961
20
40.013824
11
36.442703
21
40.304835
0
LINE
8
Layer 1
10
36.442703
20
40.304835
11
36.832922
21
40.344519
0
LINE
8
Layer 1
10
36.832922
20
40.344519
11
37.375260
21
40.218855
0
LINE
8
Layer 1
10
37.375260
20
40.218855
11
37.375260
21
40.218845
0
LINE
8
Layer 1
10
34.736320
20
39.471477
11
34.577587
21
39.471477
0
LINE
8
Layer 1
10
34.577587
20
39.471477
11
34.656954
21
39.550844
0
LINE
8
Layer 1
10
34.656954
20
39.550844
11
34.736320
21
39.471477
0
LINE
8
Layer 1
10
34.736320
20
39.471477
11
34.736320
21
39.471477
0
LINE
8
Layer 1
10
33.565660
20
39.206922
11
34.041446
21
38.672335
0
LINE
8
Layer 1
10
34.041446
20
38.672335
11
34.678445
21
38.496757
0
LINE
8
Layer 1
10
34.678445
20
38.496757
11
35.303044
21
38.679569
0
LINE
8
Layer 1
10
35.303044
20
38.679569
11
35.741630
21
39.220150
0
LINE
8
Layer 1
10
35.741630
20
39.220150
11
35.913591
21
39.484705
0
LINE
8
Layer 1
10
35.913591
20
39.484705
11
36.158305
21
39.114328
0
LINE
8
Layer 1
10
36.158305
20
39.114328
11
36.297197
21
38.406643
0
LINE
8
Layer 1
10
36.297197
20
38.406643
11
36.059097
21
37.679118
0
LINE
8
Layer 1
10
36.059097
20
37.679118
11
35.613590
21
37.148871
0
LINE
8
Layer 1
10
35.613590
20
37.148871
11
35.044693
21
36.859824
0
LINE
8
Layer 1
10
35.044693
20
36.859824
11
34.417510
21
36.829958
0
LINE
8
Layer 1
10
34.417510
20
36.829958
11
33.797147
21
37.077255
0
LINE
8
Layer 1
10
33.797147
20
37.077255
11
33.252328
21
37.691519
0
LINE
8
Layer 1
10
33.252328
20
37.691519
11
33.069620
21
38.558765
0
LINE
8
Layer 1
10
33.069620
20
38.558765
11
33.182882
21
39.153188
0
LINE
8
Layer 1
10
33.182882
20
39.153188
11
33.380472
21
39.484708
0
LINE
8
Layer 1
10
33.380472
20
39.484708
11
33.565661
21
39.206925
0
LINE
8
Layer 1
10
33.565661
20
39.206925
11
33.565660
21
39.206922
0
LINE
8
Layer 1
10
65.173360
20
36.184382
11
64.683933
21
35.470083
0
LINE
8
Layer 1
10
64.683933
20
35.470083
11
63.777831
21
34.325883
0
LINE
8
Layer 1
10
63.777831
20
34.325883
11
63.347929
21
33.763703
0
LINE
8
Layer 1
10
63.347929
20
33.763703
11
63.308246
21
34.921133
0
LINE
8
Layer 1
10
63.308246
20
34.921133
11
63.328087
21
36.144703
0
LINE
8
Layer 1
10
63.328087
20
36.144703
11
63.857197
21
36.184387
0
LINE
8
Layer 1
10
63.857197
20
36.184387
11
65.173357
21
36.184387
0
LINE
8
Layer 1
10
65.173357
20
36.184387
11
65.173360
21
36.184382
0
LINE
8
Layer 1
10
67.197210
20
36.204224
11
67.104616
21
35.787550
0
LINE
8
Layer 1
10
67.104616
20
35.787550
11
66.965725
21
35.152618
0
LINE
8
Layer 1
10
66.965725
20
35.152618
11
66.575506
21
34.557369
0
LINE
8
Layer 1
10
66.575506
20
34.557369
11
65.847979
21
33.776931
0
LINE
8
Layer 1
10
65.847979
20
33.776931
11
65.431305
21
33.360257
0
LINE
8
Layer 1
10
65.431305
20
33.360257
11
65.504057
21
33.704179
0
LINE
8
Layer 1
10
65.504057
20
33.704179
11
65.781840
21
34.722719
0
LINE
8
Layer 1
10
65.781840
20
34.722719
11
66.132376
21
35.794168
0
LINE
8
Layer 1
10
66.132376
20
35.794168
11
66.800380
21
36.131479
0
LINE
8
Layer 1
10
66.800380
20
36.131479
11
67.197213
21
36.204232
0
LINE
8
Layer 1
10
67.197213
20
36.204232
11
67.197210
21
36.204224
0
LINE
8
Layer 1
10
64.498750
20
33.446234
11
64.247423
21
32.540132
0
LINE
8
Layer 1
10
64.247423
20
32.540132
11
63.817521
21
31.640644
0
LINE
8
Layer 1
10
63.817521
20
31.640644
11
63.276836
21
31.105746
0
LINE
8
Layer 1
10
63.276836
20
31.105746
11
63.242113
21
31.766308
0
LINE
8
Layer 1
10
63.242113
20
31.766308
11
63.301638
21
32.354943
0
LINE
8
Layer 1
10
63.301638
20
32.354943
11
63.698471
21
32.811301
0
LINE
8
Layer 1
10
63.698471
20
32.811301
11
64.333403
21
33.644650
0
LINE
8
Layer 1
10
64.333403
20
33.644650
11
64.594651
21
33.919953
0
LINE
8
Layer 1
10
64.594651
20
33.919953
11
64.498750
21
33.446234
0
LINE
8
Layer 1
10
64.498750
20
33.446234
11
64.498750
21
33.446234
0
LINE
8
Layer 1
10
64.908600
20
54.372600
11
64.478698
21
54.028678
0
LINE
8
Layer 1
10
64.478698
20
54.028678
11
64.319965
21
53.803806
0
LINE
8
Layer 1
10
64.319965
20
53.803806
11
64.333193
21
50.893696
0
LINE
8
Layer 1
10
64.333193
20
50.893696
11
64.419173
21
45.933286
0
LINE
8
Layer 1
10
64.419173
20
45.933286
11
64.500193
21
44.153327
0
LINE
8
Layer 1
10
64.500193
20
44.153327
11
64.630817
21
43.677956
0
LINE
8
Layer 1
10
64.630817
20
43.677956
11
64.993754
21
43.347262
0
LINE
8
Layer 1
10
64.993754
20
43.347262
11
65.530305
21
43.254668
0
LINE
8
Layer 1
10
65.530305
20
43.254668
11
66.076777
21
43.365450
0
LINE
8
Layer 1
10
66.076777
20
43.365450
11
66.489318
21
43.724253
0
LINE
8
Layer 1
10
66.489318
20
43.724253
11
66.605888
21
44.535280
0
LINE
8
Layer 1
10
66.605888
20
44.535280
11
66.687734
21
48.565613
0
LINE
8
Layer 1
10
66.687734
20
48.565613
11
66.707576
21
53.191198
0
LINE
8
Layer 1
10
66.707576
20
53.191198
11
66.598447
21
53.873563
0
LINE
8
Layer 1
10
66.598447
20
53.873563
11
66.370268
21
54.160953
0
LINE
8
Layer 1
10
66.370268
20
54.160953
11
65.671677
21
54.477593
0
LINE
8
Layer 1
10
65.671677
20
54.477593
11
64.908598
21
54.372597
0
LINE
8
Layer 1
10
64.908598
20
54.372597
11
64.908600
21
54.372600
0
LINE
8
Layer 1
10
65.788246
20
51.687360
11
65.755177
21
47.024570
0
LINE
8
Layer 1
10
65.755177
20
47.024570
11
65.708879
21
44.213670
0
LINE
8
Layer 1
10
65.708879
20
44.213670
11
65.563374
21
44.193828
0
LINE
8
Layer 1
10
65.563374
20
44.193828
11
65.439364
21
44.232685
0
LINE
8
Layer 1
10
65.439364
20
44.232685
11
65.384799
21
44.524522
0
LINE
8
Layer 1
10
65.384799
20
44.524522
11
65.235160
21
49.452690
0
LINE
8
Layer 1
10
65.235160
20
49.452690
11
65.259135
21
53.532622
0
LINE
8
Layer 1
10
65.259135
20
53.532622
11
65.543532
21
53.559078
0
LINE
8
Layer 1
10
65.543532
20
53.559078
11
65.775018
21
53.539236
0
LINE
8
Layer 1
10
65.775018
20
53.539236
11
65.788246
21
51.687346
0
LINE
8
Layer 1
10
65.788246
20
51.687346
11
65.788246
21
51.687360
0
LINE
8
Layer 1
10
45.113300
20
50.887000
11
44.974409
21
50.589375
0
LINE
8
Layer 1
10
44.974409
20
50.589375
11
45.106687
21
50.334741
0
LINE
8
Layer 1
10
45.106687
20
50.334741
11
45.358014
21
50.199156
0
LINE
8
Layer 1
10
45.358014
20
50.199156
11
48.975804
21
50.172701
0
LINE
8
Layer 1
10
48.975804
20
50.172701
11
55.179624
21
50.066879
0
LINE
8
Layer 1
10
55.179624
20
50.066879
11
58.036824
21
50.053651
0
LINE
8
Layer 1
10
58.036824
20
50.053651
11
58.356771
21
50.425681
0
LINE
8
Layer 1
10
58.356771
20
50.425681
11
58.215399
21
50.787792
0
LINE
8
Layer 1
10
58.215399
20
50.787792
11
54.712522
21
50.970500
0
LINE
8
Layer 1
10
54.712522
20
50.970500
11
47.970499
21
51.058961
0
LINE
8
Layer 1
10
47.970499
20
51.058961
11
45.245579
21
51.058961
0
LINE
8
Layer 1
10
45.245579
20
51.058961
11
45.113301
21
50.887000
0
LINE
8
Layer 1
10
45.113301
20
50.887000
11
45.113300
21
50.887000
0
LINE
8
Layer 1
10
55.490500
20
49.729600
11
46.455940
21
49.471659
0
LINE
8
Layer 1
10
46.455940
20
49.471659
11
43.206046
21
49.325327
0
LINE
8
Layer 1
10
43.206046
20
49.325327
11
42.451960
21
49.171244
0
LINE
8
Layer 1
10
42.451960
20
49.171244
11
41.905590
21
48.916093
0
LINE
8
Layer 1
10
41.905590
20
48.916093
11
41.234489
21
48.282400
0
LINE
8
Layer 1
10
41.234489
20
48.282400
11
40.817606
21
47.403168
0
LINE
8
Layer 1
10
40.817606
20
47.403168
11
40.698349
21
46.427208
0
LINE
8
Layer 1
10
40.698349
20
46.427208
11
40.920122
21
45.503333
0
LINE
8
Layer 1
10
40.920122
20
45.503333
11
41.253090
21
45.005638
0
LINE
8
Layer 1
10
41.253090
20
45.005638
11
41.693948
21
44.607151
0
LINE
8
Layer 1
10
41.693948
20
44.607151
11
42.194330
21
44.342595
0
LINE
8
Layer 1
10
42.194330
20
44.342595
11
42.705872
21
44.246693
0
LINE
8
Layer 1
10
42.705872
20
44.246693
11
42.897675
21
44.200396
0
LINE
8
Layer 1
10
42.897675
20
44.200396
11
41.641035
21
44.114415
0
LINE
8
Layer 1
10
41.641035
20
44.114415
11
40.407547
21
44.020168
0
LINE
8
Layer 1
10
40.407547
20
44.020168
11
39.967725
21
43.677899
0
LINE
8
Layer 1
10
39.967725
20
43.677899
11
39.888358
21
43.262052
0
LINE
8
Layer 1
10
39.888358
20
43.262052
11
39.967725
21
41.680509
0
LINE
8
Layer 1
10
39.967725
20
41.680509
11
40.212439
21
36.574589
0
LINE
8
Layer 1
10
40.212439
20
36.574589
11
40.622500
21
28.055909
0
LINE
8
Layer 1
10
40.622500
20
28.055909
11
40.734936
21
18.948599
0
LINE
8
Layer 1
10
40.734936
20
18.948599
11
40.860600
21
10.138909
0
LINE
8
Layer 1
10
40.860600
20
10.138909
11
41.026361
21
9.941836
0
LINE
8
Layer 1
10
41.026361
20
9.941836
11
41.383097
21
9.837151
0
LINE
8
Layer 1
10
41.383097
20
9.837151
11
43.552450
21
9.788373
0
LINE
8
Layer 1
10
43.552450
20
9.788373
11
45.749083
21
9.842938
0
LINE
8
Layer 1
10
45.749083
20
9.842938
11
46.099928
21
9.961368
0
LINE
8
Layer 1
10
46.099928
20
9.961368
11
46.264140
21
10.185206
0
LINE
8
Layer 1
10
46.264140
20
10.185206
11
46.350120
21
18.829546
0
LINE
8
Layer 1
10
46.350120
20
18.829546
11
46.330279
21
27.282086
0
LINE
8
Layer 1
10
46.330279
20
27.282086
11
46.171546
21
27.540027
0
LINE
8
Layer 1
10
46.171546
20
27.540027
11
45.794555
21
27.883949
0
LINE
8
Layer 1
10
45.794555
20
27.883949
11
45.576297
21
27.976544
0
LINE
8
Layer 1
10
45.576297
20
27.976544
11
45.615980
21
28.432902
0
LINE
8
Layer 1
10
45.615980
20
28.432902
11
45.556455
21
29.227394
0
LINE
8
Layer 1
10
45.556455
20
29.227394
11
45.159622
21
29.868112
0
LINE
8
Layer 1
10
45.159622
20
29.868112
11
44.835542
21
30.218648
0
LINE
8
Layer 1
10
44.835542
20
30.218648
11
45.020731
21
30.264945
0
LINE
8
Layer 1
10
45.020731
20
30.264945
11
45.643263
21
30.560089
0
LINE
8
Layer 1
10
45.643263
20
30.560089
11
46.072341
21
31.038769
0
LINE
8
Layer 1
10
46.072341
20
31.038769
11
46.727115
21
35.284879
0
LINE
8
Layer 1
10
46.727115
20
35.284879
11
47.057809
21
37.698949
0
LINE
8
Layer 1
10
47.057809
20
37.698949
11
47.190087
21
38.605051
0
LINE
8
Layer 1
10
47.190087
20
38.605051
11
47.289295
21
38.988656
0
LINE
8
Layer 1
10
47.289295
20
38.988656
11
52.124045
21
39.021725
0
LINE
8
Layer 1
10
52.124045
20
39.021725
11
56.912495
21
39.028339
0
LINE
8
Layer 1
10
56.912495
20
39.028339
11
56.945565
21
35.952889
0
LINE
8
Layer 1
10
56.945565
20
35.952889
11
56.978634
21
32.877439
0
LINE
8
Layer 1
10
56.978634
20
32.877439
11
57.170437
21
32.679023
0
LINE
8
Layer 1
10
57.170437
20
32.679023
11
57.665652
21
32.388013
0
LINE
8
Layer 1
10
57.665652
20
32.388013
11
58.230313
21
32.369825
0
LINE
8
Layer 1
10
58.230313
20
32.369825
11
58.732969
21
32.597176
0
LINE
8
Layer 1
10
58.732969
20
32.597176
11
59.042167
21
33.042786
0
LINE
8
Layer 1
10
59.042167
20
33.042786
11
59.121534
21
36.263746
0
LINE
8
Layer 1
10
59.121534
20
36.263746
11
59.194286
21
39.220146
0
LINE
8
Layer 1
10
59.194286
20
39.220146
11
59.968110
21
39.993970
0
LINE
8
Layer 1
10
59.968110
20
39.993970
11
60.304592
21
40.779369
0
LINE
8
Layer 1
10
60.304592
20
40.779369
11
60.318646
21
41.535000
0
LINE
8
Layer 1
10
60.318646
20
41.535000
11
60.113616
21
42.103794
0
LINE
8
Layer 1
10
60.113616
20
42.103794
11
59.161217
21
43.036351
0
LINE
8
Layer 1
10
59.161217
20
43.036351
11
59.275307
21
43.098356
0
LINE
8
Layer 1
10
59.275307
20
43.098356
11
60.133457
21
43.115718
0
LINE
8
Layer 1
10
60.133457
20
43.115718
11
61.277657
21
43.056193
0
LINE
8
Layer 1
10
61.277657
20
43.056193
11
61.013102
21
38.724103
0
LINE
8
Layer 1
10
61.013102
20
38.724103
11
60.748547
21
35.516373
0
LINE
8
Layer 1
10
60.748547
20
35.516373
11
60.278962
21
30.542733
0
LINE
8
Layer 1
10
60.278962
20
30.542733
11
60.207036
21
30.325302
0
LINE
8
Layer 1
10
60.207036
20
30.325302
11
59.961496
21
30.291406
0
LINE
8
Layer 1
10
59.961496
20
30.291406
11
59.617574
21
30.423684
0
LINE
8
Layer 1
10
59.617574
20
30.423684
11
59.095078
21
31.019760
0
LINE
8
Layer 1
10
59.095078
20
31.019760
11
58.374164
21
31.541434
0
LINE
8
Layer 1
10
58.374164
20
31.541434
11
57.445639
21
31.864584
0
LINE
8
Layer 1
10
57.445639
20
31.864584
11
56.595859
21
31.934133
0
LINE
8
Layer 1
10
56.595859
20
31.934133
11
55.886210
21
31.754422
0
LINE
8
Layer 1
10
55.886210
20
31.754422
11
55.378074
21
31.329790
0
LINE
8
Layer 1
10
55.378074
20
31.329790
11
55.075490
21
30.622931
0
LINE
8
Layer 1
10
55.075490
20
30.622931
11
55.060608
21
29.206730
0
LINE
8
Layer 1
10
55.060608
20
29.206730
11
55.113519
21
20.476410
0
LINE
8
Layer 1
10
55.113519
20
20.476410
11
55.146589
21
11.653490
0
LINE
8
Layer 1
10
55.146589
20
11.653490
11
55.166430
21
10.317490
0
LINE
8
Layer 1
10
55.166430
20
10.317490
11
55.417757
21
10.052935
0
LINE
8
Layer 1
10
55.417757
20
10.052935
11
55.669084
21
9.788380
0
LINE
8
Layer 1
10
55.669084
20
9.788380
11
57.964104
21
9.788380
0
LINE
8
Layer 1
10
57.964104
20
9.788380
11
60.259124
21
9.788380
0
LINE
8
Layer 1
10
60.259124
20
9.788380
11
60.417857
21
9.953727
0
LINE
8
Layer 1
10
60.417857
20
9.953727
11
60.575764
21
10.233163
0
LINE
8
Layer 1
10
60.575764
20
10.233163
11
60.431085
21
10.502679
0
LINE
8
Layer 1
10
60.431085
20
10.502679
11
60.012757
21
10.629169
0
LINE
8
Layer 1
10
60.012757
20
10.629169
11
58.136065
21
10.661412
0
LINE
8
Layer 1
10
58.136065
20
10.661412
11
55.986555
21
10.681253
0
LINE
8
Layer 1
10
55.986555
20
10.681253
11
55.966714
21
19.365273
0
LINE
8
Layer 1
10
55.966714
20
19.365273
11
55.986555
21
28.042683
0
LINE
8
Layer 1
10
55.986555
20
28.042683
11
56.290793
21
27.745058
0
LINE
8
Layer 1
10
56.290793
20
27.745058
11
57.005092
21
27.229175
0
LINE
8
Layer 1
10
57.005092
20
27.229175
11
57.466411
21
27.051427
0
LINE
8
Layer 1
10
57.466411
20
27.051427
11
58.036862
21
27.017531
0
LINE
8
Layer 1
10
58.036862
20
27.017531
11
58.884264
21
27.153116
0
LINE
8
Layer 1
10
58.884264
20
27.153116
11
59.399322
21
27.626008
0
LINE
8
Layer 1
10
59.399322
20
27.626008
11
59.591125
21
28.022841
0
LINE
8
Layer 1
10
59.591125
20
28.022841
11
59.644036
21
28.108822
0
LINE
8
Layer 1
10
59.644036
20
28.108822
11
59.758952
21
26.876162
0
LINE
8
Layer 1
10
59.758952
20
26.876162
11
59.789541
21
22.513482
0
LINE
8
Layer 1
10
59.789541
20
22.513482
11
59.789541
21
18.326892
0
LINE
8
Layer 1
10
59.789541
20
18.326892
11
59.935046
21
18.188001
0
LINE
8
Layer 1
10
59.935046
20
18.188001
11
60.210349
21
18.063164
0
LINE
8
Layer 1
10
60.210349
20
18.063164
11
60.490612
21
18.221070
0
LINE
8
Layer 1
10
60.490612
20
18.221070
11
60.649345
21
18.386417
0
LINE
8
Layer 1
10
60.649345
20
18.386417
11
60.636117
21
23.532017
0
LINE
8
Layer 1
10
60.636117
20
23.532017
11
60.570805
21
28.421329
0
LINE
8
Layer 1
10
60.570805
20
28.421329
11
60.426850
21
28.991571
0
LINE
8
Layer 1
10
60.426850
20
28.991571
11
60.133462
21
29.153817
0
LINE
8
Layer 1
10
60.133462
20
29.153817
11
59.888748
21
29.259639
0
LINE
8
Layer 1
10
59.888748
20
29.259639
11
60.186373
21
29.319164
0
LINE
8
Layer 1
10
60.186373
20
29.319164
11
60.651929
21
29.449581
0
LINE
8
Layer 1
10
60.651929
20
29.449581
11
60.929608
21
29.677967
0
LINE
8
Layer 1
10
60.929608
20
29.677967
11
61.171841
21
30.820514
0
LINE
8
Layer 1
10
61.171841
20
30.820514
11
61.343802
21
32.672404
0
LINE
8
Layer 1
10
61.343802
20
32.672404
11
62.005190
21
40.311434
0
LINE
8
Layer 1
10
62.005190
20
40.311434
11
62.163923
21
42.381574
0
LINE
8
Layer 1
10
62.163923
20
42.381574
11
62.179631
21
43.268662
0
LINE
8
Layer 1
10
62.179631
20
43.268662
11
61.952279
21
43.704354
0
LINE
8
Layer 1
10
61.952279
20
43.704354
11
61.415728
21
44.001152
0
LINE
8
Layer 1
10
61.415728
20
44.001152
11
59.743239
21
44.054890
0
LINE
8
Layer 1
10
59.743239
20
44.054890
11
58.342751
21
44.071425
0
LINE
8
Layer 1
10
58.342751
20
44.071425
11
58.262558
21
44.097674
0
LINE
8
Layer 1
10
58.262558
20
44.097674
11
58.460149
21
44.147484
0
LINE
8
Layer 1
10
58.460149
20
44.147484
11
59.607659
21
44.498847
0
LINE
8
Layer 1
10
59.607659
20
44.498847
11
60.298809
21
44.994061
0
LINE
8
Layer 1
10
60.298809
20
44.994061
11
60.760955
21
45.668678
0
LINE
8
Layer 1
10
60.760955
20
45.668678
11
60.900672
21
46.541711
0
LINE
8
Layer 1
10
60.900672
20
46.541711
11
60.788236
21
47.672681
0
LINE
8
Layer 1
10
60.788236
20
47.672681
11
60.491542
21
48.351224
0
LINE
8
Layer 1
10
60.491542
20
48.351224
11
60.056576
21
48.929318
0
LINE
8
Layer 1
10
60.056576
20
48.929318
11
59.511240
21
49.378441
0
LINE
8
Layer 1
10
59.511240
20
49.378441
11
58.883436
21
49.670071
0
LINE
8
Layer 1
10
58.883436
20
49.670071
11
57.916157
21
49.789121
0
LINE
8
Layer 1
10
57.916157
20
49.789121
11
55.490516
21
49.729596
0
LINE
8
Layer 1
10
55.490516
20
49.729596
11
55.490500
21
49.729600
0
LINE
8
Layer 1
10
58.883420
20
48.711060
11
59.314356
21
48.405684
0
LINE
8
Layer 1
10
59.314356
20
48.405684
11
59.667165
21
47.954596
0
LINE
8
Layer 1
10
59.667165
20
47.954596
11
60.034240
21
46.786420
0
LINE
8
Layer 1
10
60.034240
20
46.786420
11
60.036720
21
46.323448
0
LINE
8
Layer 1
10
60.036720
20
46.323448
11
59.895349
21
45.939843
0
LINE
8
Layer 1
10
59.895349
20
45.939843
11
59.372025
21
45.333846
0
LINE
8
Layer 1
10
59.372025
20
45.333846
11
59.088971
21
45.256236
0
LINE
8
Layer 1
10
59.088971
20
45.256236
11
58.843739
21
45.357822
0
LINE
8
Layer 1
10
58.843739
20
45.357822
11
58.097197
21
45.601709
0
LINE
8
Layer 1
10
58.097197
20
45.601709
11
55.490499
21
45.701744
0
LINE
8
Layer 1
10
55.490499
20
45.701744
11
51.456029
21
45.827408
0
LINE
8
Layer 1
10
51.456029
20
45.827408
11
48.426869
21
45.939844
0
LINE
8
Layer 1
10
48.426869
20
45.939844
11
46.965200
21
45.992755
0
LINE
8
Layer 1
10
46.965200
20
45.992755
11
46.793652
21
46.040292
0
LINE
8
Layer 1
10
46.793652
20
46.040292
11
46.793239
21
46.125033
0
LINE
8
Layer 1
10
46.793239
20
46.125033
11
46.912289
21
47.246912
0
LINE
8
Layer 1
10
46.912289
20
47.246912
11
46.455931
21
48.195173
0
LINE
8
Layer 1
10
46.455931
20
48.195173
11
46.231059
21
48.506025
0
LINE
8
Layer 1
10
46.231059
20
48.506025
11
46.912289
21
48.545708
0
LINE
8
Layer 1
10
46.912289
20
48.545708
11
49.141169
21
48.611847
0
LINE
8
Layer 1
10
49.141169
20
48.611847
11
54.293379
21
48.777194
0
LINE
8
Layer 1
10
54.293379
20
48.777194
11
57.917789
21
48.902858
0
LINE
8
Layer 1
10
57.917789
20
48.902858
11
58.883415
21
48.711055
0
LINE
8
Layer 1
10
58.883415
20
48.711055
11
58.883420
21
48.711060
0
LINE
8
Layer 1
10
42.745520
20
48.069514
11
42.365222
21
47.547017
0
LINE
8
Layer 1
10
42.365222
20
47.547017
11
42.262707
21
46.984834
0
LINE
8
Layer 1
10
42.262707
20
46.984834
11
42.361915
21
46.311872
0
LINE
8
Layer 1
10
42.361915
20
46.311872
11
42.699223
21
45.807564
0
LINE
8
Layer 1
10
42.699223
20
45.807564
11
43.209318
21
45.464469
0
LINE
8
Layer 1
10
43.209318
20
45.464469
11
44.002153
21
45.324751
0
LINE
8
Layer 1
10
44.002153
20
45.324751
11
44.511422
21
45.238771
0
LINE
8
Layer 1
10
44.511422
20
45.238771
11
43.864914
21
45.114760
0
LINE
8
Layer 1
10
43.864914
20
45.114760
11
42.752132
21
45.179246
0
LINE
8
Layer 1
10
42.752132
20
45.179246
11
42.149442
21
45.391716
0
LINE
8
Layer 1
10
42.149442
20
45.391716
11
41.779892
21
45.827406
0
LINE
8
Layer 1
10
41.779892
20
45.827406
11
41.615165
21
46.354036
0
LINE
8
Layer 1
10
41.615165
20
46.354036
11
41.617852
21
46.945152
0
LINE
8
Layer 1
10
41.617852
20
46.945152
11
41.774311
21
47.501545
0
LINE
8
Layer 1
10
41.774311
20
47.501545
11
42.070903
21
47.924006
0
LINE
8
Layer 1
10
42.070903
20
47.924006
11
42.891024
21
48.347294
0
LINE
8
Layer 1
10
42.891024
20
48.347294
11
42.942282
21
48.292729
0
LINE
8
Layer 1
10
42.942282
20
48.292729
11
42.745519
21
48.069511
0
LINE
8
Layer 1
10
42.745519
20
48.069511
11
42.745520
21
48.069514
0
LINE
8
Layer 1
10
45.629170
20
47.752048
11
46.039231
21
47.168373
0
LINE
8
Layer 1
10
46.039231
20
47.168373
11
45.953250
21
46.455728
0
LINE
8
Layer 1
10
45.953250
20
46.455728
11
45.830067
21
46.346599
0
LINE
8
Layer 1
10
45.830067
20
46.346599
11
45.741606
21
46.693828
0
LINE
8
Layer 1
10
45.741606
20
46.693828
11
45.305090
21
47.818188
0
LINE
8
Layer 1
10
45.305090
20
47.818188
11
45.172812
21
48.049674
0
LINE
8
Layer 1
10
45.172812
20
48.049674
11
45.629170
21
47.752049
0
LINE
8
Layer 1
10
45.629170
20
47.752049
11
45.629170
21
47.752048
0
LINE
8
Layer 1
10
44.471740
20
47.341987
11
44.823102
21
46.674811
0
LINE
8
Layer 1
10
44.823102
20
46.674811
11
44.961167
21
46.131647
0
LINE
8
Layer 1
10
44.961167
20
46.131647
11
43.506117
21
46.263925
0
LINE
8
Layer 1
10
43.506117
20
46.263925
11
43.316071
21
46.456141
0
LINE
8
Layer 1
10
43.316071
20
46.456141
11
43.220894
21
46.784768
0
LINE
8
Layer 1
10
43.220894
20
46.784768
11
43.367226
21
47.434585
0
LINE
8
Layer 1
10
43.367226
20
47.434585
11
43.904604
21
47.693353
0
LINE
8
Layer 1
10
43.904604
20
47.693353
11
44.471746
21
47.341991
0
LINE
8
Layer 1
10
44.471746
20
47.341991
11
44.471740
21
47.341987
0
LINE
8
Layer 1
10
48.545890
20
45.033747
11
52.877980
21
44.908083
0
LINE
8
Layer 1
10
52.877980
20
44.908083
11
55.490460
21
44.835330
0
LINE
8
Layer 1
10
55.490460
20
44.835330
11
55.920362
21
44.822102
0
LINE
8
Layer 1
10
55.920362
20
44.822102
11
55.556599
21
44.775805
0
LINE
8
Layer 1
10
55.556599
20
44.775805
11
54.101549
21
44.716280
0
LINE
8
Layer 1
10
54.101549
20
44.716280
11
49.967869
21
44.610458
0
LINE
8
Layer 1
10
49.967869
20
44.610458
11
45.305079
21
44.577389
0
LINE
8
Layer 1
10
45.305079
20
44.577389
11
45.391059
21
44.643528
0
LINE
8
Layer 1
10
45.391059
20
44.643528
11
45.721753
21
44.901469
0
LINE
8
Layer 1
10
45.721753
20
44.901469
11
45.957373
21
45.111459
0
LINE
8
Layer 1
10
45.957373
20
45.111459
11
46.178111
21
45.132955
0
LINE
8
Layer 1
10
46.178111
20
45.132955
11
48.545881
21
45.033747
0
LINE
8
Layer 1
10
48.545881
20
45.033747
11
48.545890
21
45.033747
0
LINE
8
Layer 1
10
52.567130
20
43.671287
11
51.508910
21
43.671287
0
LINE
8
Layer 1
10
51.508910
20
43.671287
11
51.431197
21
43.683688
0
LINE
8
Layer 1
10
51.431197
20
43.683688
11
52.018179
21
43.691129
0
LINE
8
Layer 1
10
52.018179
20
43.691129
11
52.615082
21
43.683688
0
LINE
8
Layer 1
10
52.615082
20
43.683688
11
52.567131
21
43.671287
0
LINE
8
Layer 1
10
52.567131
20
43.671287
11
52.567130
21
43.671287
0
LINE
8
Layer 1
10
42.857950
20
43.122335
11
43.043139
21
42.791641
0
LINE
8
Layer 1
10
43.043139
20
42.791641
11
43.311725
21
42.598598
0
LINE
8
Layer 1
10
43.311725
20
42.598598
11
43.872355
21
42.502284
0
LINE
8
Layer 1
10
43.872355
20
42.502284
11
47.077609
21
42.520472
0
LINE
8
Layer 1
10
47.077609
20
42.520472
11
52.150459
21
42.626294
0
LINE
8
Layer 1
10
52.150459
20
42.626294
11
55.318509
21
42.699047
0
LINE
8
Layer 1
10
55.318509
20
42.699047
11
56.502389
21
42.738730
0
LINE
8
Layer 1
10
56.502389
20
42.738730
11
56.337042
21
42.520472
0
LINE
8
Layer 1
10
56.337042
20
42.520472
11
55.957571
21
41.864044
0
LINE
8
Layer 1
10
55.957571
20
41.864044
11
55.860843
21
41.138172
0
LINE
8
Layer 1
10
55.860843
20
41.138172
11
55.903006
21
40.552017
0
LINE
8
Layer 1
10
55.903006
20
40.552017
11
56.138626
21
40.000582
0
LINE
8
Layer 1
10
56.138626
20
40.000582
11
51.740396
21
39.947671
0
LINE
8
Layer 1
10
51.740396
20
39.947671
11
47.057766
21
39.881532
0
LINE
8
Layer 1
10
47.057766
20
39.881532
11
46.614636
21
39.623591
0
LINE
8
Layer 1
10
46.614636
20
39.623591
11
46.396378
21
39.150699
0
LINE
8
Layer 1
10
46.396378
20
39.150699
11
46.197962
21
37.864301
0
LINE
8
Layer 1
10
46.197962
20
37.864301
11
45.794515
21
34.755781
0
LINE
8
Layer 1
10
45.794515
20
34.755781
11
45.602712
21
33.399931
0
LINE
8
Layer 1
10
45.602712
20
33.399931
11
45.437365
21
32.242501
0
LINE
8
Layer 1
10
45.437365
20
32.242501
11
45.347354
21
31.672364
0
LINE
8
Layer 1
10
45.347354
20
31.672364
11
45.193478
21
31.362028
0
LINE
8
Layer 1
10
45.193478
20
31.362028
11
44.200565
21
31.052001
0
LINE
8
Layer 1
10
44.200565
20
31.052001
11
42.891018
21
30.680797
0
LINE
8
Layer 1
10
42.891018
20
30.680797
11
42.117195
21
30.106216
0
LINE
8
Layer 1
10
42.117195
20
30.106216
11
41.714575
21
29.512620
0
LINE
8
Layer 1
10
41.714575
20
29.512620
11
41.555015
21
28.829736
0
LINE
8
Layer 1
10
41.555015
20
28.829736
11
41.469035
21
28.373378
0
LINE
8
Layer 1
10
41.469035
20
28.373378
11
41.376440
21
29.352232
0
LINE
8
Layer 1
10
41.376440
20
29.352232
11
41.270618
21
31.151212
0
LINE
8
Layer 1
10
41.270618
20
31.151212
11
41.006063
21
37.996582
0
LINE
8
Layer 1
10
41.006063
20
37.996582
11
40.873785
21
41.105102
0
LINE
8
Layer 1
10
40.873785
20
41.105102
11
40.794419
21
42.626292
0
LINE
8
Layer 1
10
40.794419
20
42.626292
11
40.774577
21
43.155402
0
LINE
8
Layer 1
10
40.774577
20
43.155402
11
41.369826
21
43.195086
0
LINE
8
Layer 1
10
41.369826
20
43.195086
11
42.612407
21
43.243036
0
LINE
8
Layer 1
10
42.612407
20
43.243036
11
42.857946
21
43.122333
0
LINE
8
Layer 1
10
42.857946
20
43.122333
11
42.857950
21
43.122335
0
LINE
8
Layer 1
10
58.784150
20
42.183164
11
59.269444
21
41.748301
0
LINE
8
Layer 1
10
59.269444
20
41.748301
11
59.452152
21
41.144784
0
LINE
8
Layer 1
10
59.452152
20
41.144784
11
59.445538
21
40.840546
0
LINE
8
Layer 1
10
59.445538
20
40.840546
11
59.319874
21
41.217537
0
LINE
8
Layer 1
10
59.319874
20
41.217537
11
58.806471
21
41.922742
0
LINE
8
Layer 1
10
58.806471
20
41.922742
11
58.030164
21
42.196391
0
LINE
8
Layer 1
10
58.030164
20
42.196391
11
57.541564
21
42.015336
0
LINE
8
Layer 1
10
57.541564
20
42.015336
11
57.097607
21
41.680508
0
LINE
8
Layer 1
10
57.097607
20
41.680508
11
56.912418
21
41.217536
0
LINE
8
Layer 1
10
56.912418
20
41.217536
11
56.809903
21
40.984397
0
LINE
8
Layer 1
10
56.809903
20
40.984397
11
56.747071
21
41.217536
0
LINE
8
Layer 1
10
56.747071
20
41.217536
11
57.009146
21
41.869830
0
LINE
8
Layer 1
10
57.009146
20
41.869830
11
57.653173
21
42.308826
0
LINE
8
Layer 1
10
57.653173
20
42.308826
11
58.201298
21
42.355123
0
LINE
8
Layer 1
10
58.201298
20
42.355123
11
58.784143
21
42.183162
0
LINE
8
Layer 1
10
58.784143
20
42.183162
11
58.784150
21
42.183164
0
LINE
8
Layer 1
10
58.188901
20
36.065324
11
58.169059
21
33.234584
0
LINE
8
Layer 1
10
58.169059
20
33.234584
11
58.003712
21
33.234584
0
LINE
8
Layer 1
10
58.003712
20
33.234584
11
57.838365
21
33.234584
0
LINE
8
Layer 1
10
57.838365
20
33.234584
11
57.818524
21
35.979344
0
LINE
8
Layer 1
10
57.818524
20
35.979344
11
57.838365
21
38.803474
0
LINE
8
Layer 1
10
57.838365
20
38.803474
11
58.036781
21
38.889454
0
LINE
8
Layer 1
10
58.036781
20
38.889454
11
58.202128
21
38.889454
0
LINE
8
Layer 1
10
58.202128
20
38.889454
11
58.188901
21
36.065324
0
LINE
8
Layer 1
10
58.188901
20
36.065324
11
58.188901
21
36.065324
0
LINE
8
Layer 1
10
56.264261
20
30.727924
11
55.960023
21
30.463369
0
LINE
8
Layer 1
10
55.960023
20
30.463369
11
56.303945
21
30.979252
0
LINE
8
Layer 1
10
56.303945
20
30.979252
11
56.462678
21
30.985039
0
LINE
8
Layer 1
10
56.462678
20
30.985039
11
56.264262
21
30.727925
0
LINE
8
Layer 1
10
56.264262
20
30.727925
11
56.264261
21
30.727924
0
LINE
8
Layer 1
10
58.162441
20
30.489824
11
58.329442
21
30.360853
0
LINE
8
Layer 1
10
58.329442
20
30.360853
11
58.149213
21
30.331091
0
LINE
8
Layer 1
10
58.149213
20
30.331091
11
57.746696
21
30.315900
0
LINE
8
Layer 1
10
57.746696
20
30.315900
11
57.364641
21
30.140115
0
LINE
8
Layer 1
10
57.364641
20
30.140115
11
57.065671
21
29.846521
0
LINE
8
Layer 1
10
57.065671
20
29.846521
11
56.912413
21
29.477900
0
LINE
8
Layer 1
10
56.912413
20
29.477900
11
56.912413
21
29.041384
0
LINE
8
Layer 1
10
56.912413
20
29.041384
11
56.859502
21
28.902493
0
LINE
8
Layer 1
10
56.859502
20
28.902493
11
56.725571
21
29.009142
0
LINE
8
Layer 1
10
56.725571
20
29.009142
11
56.680927
21
29.339009
0
LINE
8
Layer 1
10
56.680927
20
29.339009
11
56.865289
21
29.947486
0
LINE
8
Layer 1
10
56.865289
20
29.947486
11
57.441523
21
30.417069
0
LINE
8
Layer 1
10
57.441523
20
30.417069
11
57.816861
21
30.547693
0
LINE
8
Layer 1
10
57.816861
20
30.547693
11
58.162436
21
30.489822
0
LINE
8
Layer 1
10
58.162436
20
30.489822
11
58.162441
21
30.489824
0
LINE
8
Layer 1
10
44.041841
20
29.570495
11
44.497372
21
29.201771
0
LINE
8
Layer 1
10
44.497372
20
29.201771
11
44.709843
21
28.803285
0
LINE
8
Layer 1
10
44.709843
20
28.803285
11
44.709843
21
28.644552
0
LINE
8
Layer 1
10
44.709843
20
28.644552
11
44.365921
21
28.869424
0
LINE
8
Layer 1
10
44.365921
20
28.869424
11
43.521823
21
29.161261
0
LINE
8
Layer 1
10
43.521823
20
29.161261
11
42.732291
21
28.902493
0
LINE
8
Layer 1
10
42.732291
20
28.902493
11
42.461122
21
28.816513
0
LINE
8
Layer 1
10
42.461122
20
28.816513
11
42.638870
21
29.238974
0
LINE
8
Layer 1
10
42.638870
20
29.238974
11
42.990232
21
29.577109
0
LINE
8
Layer 1
10
42.990232
20
29.577109
11
43.513556
21
29.690372
0
LINE
8
Layer 1
10
43.513556
20
29.690372
11
44.041842
21
29.570495
0
LINE
8
Layer 1
10
44.041842
20
29.570495
11
44.041841
21
29.570495
0
LINE
8
Layer 1
10
58.665141
20
28.247715
11
58.407200
21
28.031937
0
LINE
8
Layer 1
10
58.407200
20
28.031937
11
57.950842
21
27.910407
0
LINE
8
Layer 1
10
57.950842
20
27.910407
11
57.653217
21
27.973239
0
LINE
8
Layer 1
10
57.653217
20
27.973239
11
57.950842
21
28.075754
0
LINE
8
Layer 1
10
57.950842
20
28.075754
11
58.466725
21
28.214645
0
LINE
8
Layer 1
10
58.466725
20
28.214645
11
58.665141
21
28.247714
0
LINE
8
Layer 1
10
58.665141
20
28.247714
11
58.665141
21
28.247715
0
LINE
8
Layer 1
10
43.783941
20
28.174962
11
43.651663
21
28.108823
0
LINE
8
Layer 1
10
43.651663
20
28.108823
11
43.519385
21
28.174962
0
LINE
8
Layer 1
10
43.519385
20
28.174962
11
43.651663
21
28.241101
0
LINE
8
Layer 1
10
43.651663
20
28.241101
11
43.783941
21
28.174962
0
LINE
8
Layer 1
10
43.783941
20
28.174962
11
43.783941
21
28.174962
0
LINE
8
Layer 1
10
44.279982
20
26.587632
11
43.936060
21
26.316463
0
LINE
8
Layer 1
10
43.936060
20
26.316463
11
43.322623
21
26.196587
0
LINE
8
Layer 1
10
43.322623
20
26.196587
11
42.758790
21
26.389216
0
LINE
8
Layer 1
10
42.758790
20
26.389216
11
42.605017
21
26.596727
0
LINE
8
Layer 1
10
42.605017
20
26.596727
11
42.877840
21
26.521494
0
LINE
8
Layer 1
10
42.877840
20
26.521494
11
43.541708
21
26.407405
0
LINE
8
Layer 1
10
43.541708
20
26.407405
11
44.180770
21
26.660385
0
LINE
8
Layer 1
10
44.180770
20
26.660385
11
44.366785
21
26.745539
0
LINE
8
Layer 1
10
44.366785
20
26.745539
11
44.279978
21
26.587632
0
LINE
8
Layer 1
10
44.279978
20
26.587632
11
44.279982
21
26.587632
0
LINE
8
Layer 1
10
45.503552
20
18.644362
11
45.503552
21
10.648182
0
LINE
8
Layer 1
10
45.503552
20
10.648182
11
43.572302
21
10.661410
0
LINE
8
Layer 1
10
43.572302
20
10.661410
11
41.634432
21
10.681252
0
LINE
8
Layer 1
10
41.634432
20
10.681252
11
41.621204
21
18.584842
0
LINE
8
Layer 1
10
41.621204
20
18.584842
11
41.601363
21
26.488432
0
LINE
8
Layer 1
10
41.601363
20
26.488432
11
41.813007
21
26.098213
0
LINE
8
Layer 1
10
41.813007
20
26.098213
11
42.256136
21
25.573236
0
LINE
8
Layer 1
10
42.256136
20
25.573236
11
42.937367
21
25.331003
0
LINE
8
Layer 1
10
42.937367
20
25.331003
11
43.679876
21
25.317568
0
LINE
8
Layer 1
10
43.679876
20
25.317568
11
44.353560
21
25.526112
0
LINE
8
Layer 1
10
44.353560
20
25.526112
11
44.904476
21
25.928111
0
LINE
8
Layer 1
10
44.904476
20
25.928111
11
45.278677
21
26.495043
0
LINE
8
Layer 1
10
45.278677
20
26.495043
11
45.437410
21
26.686846
0
LINE
8
Layer 1
10
45.437410
20
26.686846
11
45.503548
21
18.644366
0
LINE
8
Layer 1
10
45.503548
20
18.644366
11
45.503552
21
18.644362
0
LINE
8
Layer 1
10
43.049700
20
41.667300
11
42.777498
21
41.474154
0
LINE
8
Layer 1
10
42.777498
20
41.474154
11
42.642946
21
40.920758
0
LINE
8
Layer 1
10
42.642946
20
40.920758
11
42.593342
21
36.627520
0
LINE
8
Layer 1
10
42.593342
20
36.627520
11
42.611530
21
32.790641
0
LINE
8
Layer 1
10
42.611530
20
32.790641
11
42.719006
21
31.944890
0
LINE
8
Layer 1
10
42.719006
20
31.944890
11
43.063755
21
31.594354
0
LINE
8
Layer 1
10
43.063755
20
31.594354
11
43.572197
21
31.382710
0
LINE
8
Layer 1
10
43.572197
20
31.382710
11
44.164140
21
31.514161
0
LINE
8
Layer 1
10
44.164140
20
31.514161
11
44.676717
21
31.938276
0
LINE
8
Layer 1
10
44.676717
20
31.938276
11
44.842064
21
32.176376
0
LINE
8
Layer 1
10
44.842064
20
32.176376
11
44.848678
21
36.594446
0
LINE
8
Layer 1
10
44.848678
20
36.594446
11
44.836277
21
40.413965
0
LINE
8
Layer 1
10
44.836277
20
40.413965
11
44.729628
21
41.257236
0
LINE
8
Layer 1
10
44.729628
20
41.257236
11
44.440167
21
41.572429
0
LINE
8
Layer 1
10
44.440167
20
41.572429
11
44.006233
21
41.759891
0
LINE
8
Layer 1
10
44.006233
20
41.759891
11
43.514014
21
41.798541
0
LINE
8
Layer 1
10
43.514014
20
41.798541
11
43.049698
21
41.667297
0
LINE
8
Layer 1
10
43.049698
20
41.667297
11
43.049700
21
41.667300
0
LINE
8
Layer 1
10
43.856593
20
40.873634
11
43.964069
21
40.245315
0
LINE
8
Layer 1
10
43.964069
20
40.245315
11
43.982257
21
36.601064
0
LINE
8
Layer 1
10
43.982257
20
36.601064
11
43.982257
21
32.407864
0
LINE
8
Layer 1
10
43.982257
20
32.407864
11
43.810296
21
32.328497
0
LINE
8
Layer 1
10
43.810296
20
32.328497
11
43.596585
21
32.290778
0
LINE
8
Layer 1
10
43.596585
20
32.290778
11
43.489523
21
32.716236
0
LINE
8
Layer 1
10
43.489523
20
32.716236
11
43.466374
21
36.640747
0
LINE
8
Layer 1
10
43.466374
20
36.640747
11
43.539127
21
40.860407
0
LINE
8
Layer 1
10
43.539127
20
40.860407
11
43.856593
21
40.873635
0
LINE
8
Layer 1
10
43.856593
20
40.873635
11
43.856593
21
40.873634
 0 
ENDSEC
 0 
EOF