<?xml version="1.0" standalone="no"?>
<!DOCTYPE svg PUBLIC "-//W3C//DTD SVG 20010904//EN"
 "http://www.w3.org/TR/2001/REC-SVG-20010904/DTD/svg10.dtd">
<svg version="1.0" xmlns="http://www.w3.org/2000/svg"
 width="170.078740pt" height="170.078740pt" viewBox="0 0 170.078740 170.078740"
 preserveAspectRatio="xMidYMid meet">
<metadata>
Created by potrace 1.16, written by Peter Selinger 2001-2019
</metadata>
<g transform="translate(0.000000,170.078740) scale(0.018752,-0.018752)"
fill="#000000" stroke="none">
<path d="M2485 7610 c-179 -16 -333 -60 -500 -145 -508 -257 -850 -805 -947
-1520 -18 -138 -16 -457 5 -600 55 -373 156 -676 358 -1075 161 -320 301 -543
533 -855 337 -452 740 -890 1306 -1421 258 -241 625 -554 923 -786 l217 -169
33 22 c215 151 763 602 1062 874 275 250 787 772 1000 1020 181 210 451 572
611 817 602 924 793 1782 569 2563 -113 394 -303 709 -563 931 -474 406 -1048
455 -1735 148 -291 -129 -673 -382 -902 -596 l-75 -70 -39 34 c-369 318 -558
451 -836 588 -288 143 -536 219 -765 235 -47 3 -103 7 -125 9 -22 2 -80 0
-130 -4z m600 -225 c122 -22 327 -76 455 -120 216 -75 330 -141 558 -323 50
-41 92 -76 92 -78 0 -2 -21 9 -47 25 -134 82 -452 207 -675 266 -243 63 -351
78 -543 73 -179 -5 -303 -26 -490 -85 -371 -116 -719 -385 -874 -674 -82 -152
-161 -449 -183 -687 -17 -187 -5 -470 26 -636 96 -498 364 -1037 804 -1615
213 -279 475 -578 827 -941 l209 -215 -178 175 c-656 647 -1140 1276 -1426
1855 -166 337 -252 576 -307 855 -26 127 -27 153 -28 415 0 319 11 400 87 635
129 398 329 679 627 880 136 91 352 172 531 199 41 6 86 13 100 15 52 9 349
-4 435 -19z m3218 -5 c277 -58 492 -181 701 -401 250 -263 407 -619 462 -1051
60 -476 -77 -1067 -378 -1623 -415 -768 -1155 -1627 -2088 -2426 -191 -163
-614 -509 -623 -509 -2 0 -16 14 -33 32 l-29 32 29 -22 c15 -12 33 -19 40 -15
52 32 605 502 861 732 195 175 690 671 830 832 377 431 687 850 885 1194 302
525 432 919 447 1355 9 261 -18 470 -94 720 -69 228 -159 375 -334 547 -138
135 -223 196 -386 277 -137 68 -226 100 -383 138 -110 26 -149 31 -316 35
-221 6 -286 -2 -559 -71 -213 -55 -456 -144 -650 -241 -166 -82 -164 -78 32
70 147 111 208 149 319 201 173 81 573 188 795 213 127 15 357 5 472 -19z
m-3083 -205 c135 -22 374 -88 520 -142 167 -63 498 -230 621 -315 13 -9 39 2
130 54 141 81 272 147 383 193 252 104 552 190 775 221 371 51 815 -58 1126
-277 106 -76 284 -249 342 -334 51 -77 103 -180 138 -275 31 -89 88 -322 106
-435 16 -104 16 -438 0 -540 -28 -184 -63 -338 -102 -450 -239 -693 -802
-1498 -1619 -2315 -113 -113 -232 -230 -265 -260 -33 -30 -114 -105 -180 -166
-147 -136 -530 -464 -793 -680 l-26 -22 -36 26 c-62 47 -537 445 -647 544
-311 278 -799 768 -1069 1073 -211 238 -462 558 -611 780 -280 418 -498 896
-567 1245 -90 456 -38 982 131 1326 111 228 375 467 666 604 127 59 338 125
465 145 54 8 111 16 127 19 56 8 290 -3 385 -19z m1016 -5678 c4 -7 -4 -3 -17
9 -13 11 -95 80 -181 153 -86 72 -160 136 -164 142 -4 7 75 -57 174 -140 100
-83 184 -157 188 -164z m44 -32 c13 -14 21 -25 18 -25 -2 0 -15 11 -28 25 -13
14 -21 25 -18 25 2 0 15 -11 28 -25z"/>
</g>
</svg>
