<?xml version="1.0" standalone="no"?>
<!DOCTYPE svg PUBLIC "-//W3C//DTD SVG 20010904//EN"
 "http://www.w3.org/TR/2001/REC-SVG-20010904/DTD/svg10.dtd">
<svg version="1.0" xmlns="http://www.w3.org/2000/svg"
 width="170.078740pt" height="170.078740pt" viewBox="0 0 170.078740 170.078740"
 preserveAspectRatio="xMidYMid meet">
<metadata>
Created by potrace 1.16, written by Peter Selinger 2001-2019
</metadata>
<g transform="translate(0.000000,170.078740) scale(0.018752,-0.018752)"
fill="#000000" stroke="none">
<path d="M1332 4565 c2 -1620 6 -2945 11 -2945 4 0 1434 0 3177 0 l3170 0 0
2360 0 2360 -52 1 c-29 1 -183 1 -341 0 l-289 -2 1 -2270 0 -2269 -128 0 -128
0 -4 137 c-3 76 -4 549 -4 1050 l0 913 -192 0 -193 0 0 940 0 939 -90 3 -90 3
-34 95 c-184 530 -603 932 -1143 1099 -184 57 -247 66 -493 66 -198 0 -238 -3
-333 -23 -348 -75 -646 -238 -883 -484 -293 -305 -461 -629 -524 -1012 -11
-65 -22 -122 -26 -125 -3 -3 -279 -6 -612 -6 l-607 0 -3 968 -2 967 2832 0
2833 0 3 90 3 90 -2931 0 -2930 0 2 -2945z m3480 2275 c436 -92 840 -393 1053
-784 39 -73 92 -193 110 -253 l6 -23 -420 0 -421 0 -1 -77 c0 -43 -2 -465 -2
-938 l-2 -860 -628 -3 -627 -2 0 427 1 428 -561 3 -560 2 0 -1480 0 -1480
-539 0 -538 0 -7 53 c-8 67 -8 1350 0 1400 l7 37 223 0 224 0 0 -320 0 -320
180 0 180 0 0 1280 0 1280 870 0 870 0 0 85 c0 47 0 88 0 91 0 4 -290 6 -645
5 l-645 -2 0 24 c0 118 77 372 166 552 90 180 175 297 329 451 267 268 507
384 920 448 74 11 362 -4 457 -24z m2688 -2860 l0 -2180 -150 0 -150 0 0 2180
0 2180 150 0 150 0 0 -2180z m-1470 146 l0 -1473 260 5 260 5 0 -432 0 -431
-610 0 -610 0 0 1899 0 1900 350 0 350 0 0 -1473z m-3730 219 l0 -865 -390 0
-390 0 0 865 0 865 390 0 390 0 0 -865z m1393 -880 l-3 -1105 195 0 195 0 0
-280 0 -280 -560 0 -560 0 0 1385 0 1385 368 0 367 0 -2 -1105z m382 -335 l0
-585 -89 -3 c-65 -2 -92 1 -98 10 -9 15 -11 1090 -2 1137 l7 32 91 -3 91 -3 0
-585z m1063 299 l2 -286 -432 -6 c-238 -4 -433 -5 -435 -3 -5 5 -9 577 -4 582
3 2 198 3 435 2 l431 -3 3 -286z m1412 -143 l0 -433 -31 -7 c-17 -3 -60 -6
-95 -6 l-64 0 0 433 c0 239 3 437 7 440 3 4 46 7 95 7 l88 0 0 -434z m-1410
-911 l0 -575 -355 0 -355 0 0 575 0 575 355 0 355 0 0 -575z"/>
<path d="M5510 4350 l0 -420 95 0 95 0 0 420 0 420 -95 0 -95 0 0 -420z"/>
<path d="M3250 3713 l0 -213 93 5 92 4 3 205 2 205 -95 3 -95 3 0 -212z"/>
</g>
</svg>
