999
"DXF R12 Output" (www.mydxf.blogspot.com)
 0 
SECTION
 2 
HEADER
 9 
$ACADVER
 1 
AC1009
 9 
$EXTMIN
 10 
 0 
 20 
 0 
 9 
$EXTMAX
 10 
 8.5 
 20 
 11 
 0 
ENDSEC
 0 
SECTION
 2 
ENTITIES
0
LINE
8
Layer 1
10
29.848200
20
52.042400
11
29.841585
21
44.057740
0
LINE
8
Layer 1
10
29.841585
20
44.057740
11
29.345438
21
44.474503
0
LINE
8
Layer 1
10
29.345438
20
44.474503
11
27.253561
21
46.145176
0
LINE
8
Layer 1
10
27.253561
20
46.145176
11
25.073616
21
47.524982
0
LINE
8
Layer 1
10
25.073616
20
47.524982
11
22.861420
21
48.583530
0
LINE
8
Layer 1
10
22.861420
20
48.583530
11
20.672788
21
49.290433
0
LINE
8
Layer 1
10
20.672788
20
49.290433
11
19.104966
21
49.502122
0
LINE
8
Layer 1
10
19.104966
20
49.502122
11
17.457758
21
49.495507
0
LINE
8
Layer 1
10
17.457758
20
49.495507
11
15.136410
21
49.034298
0
LINE
8
Layer 1
10
15.136410
20
49.034298
11
13.027165
21
48.107951
0
LINE
8
Layer 1
10
13.027165
20
48.107951
11
11.133745
21
46.717707
0
LINE
8
Layer 1
10
11.133745
20
46.717707
11
9.459868
21
44.864807
0
LINE
8
Layer 1
10
9.459868
20
44.864807
11
8.073550
21
42.509763
0
LINE
8
Layer 1
10
8.073550
20
42.509763
11
7.101516
21
39.797492
0
LINE
8
Layer 1
10
7.101516
20
39.797492
11
6.605783
21
36.961179
0
LINE
8
Layer 1
10
6.605783
20
36.961179
11
6.648368
21
34.234007
0
LINE
8
Layer 1
10
6.648368
20
34.234007
11
7.089938
21
31.999692
0
LINE
8
Layer 1
10
7.089938
20
31.999692
11
7.779578
21
29.814997
0
LINE
8
Layer 1
10
7.779578
20
29.814997
11
8.004498
21
29.199775
0
LINE
8
Layer 1
10
8.004498
20
29.199775
11
4.002248
21
29.173314
0
LINE
8
Layer 1
10
4.002248
20
29.173314
11
-0.000002
21
29.173314
0
LINE
8
Layer 1
10
-0.000002
20
29.173314
11
-0.000002
21
28.644091
0
LINE
8
Layer 1
10
-0.000002
20
28.644091
11
-0.000002
21
28.121483
0
LINE
8
Layer 1
10
-0.000002
20
28.121483
11
4.240398
21
28.121483
0
LINE
8
Layer 1
10
4.240398
20
28.121483
11
8.480798
21
28.121483
0
LINE
8
Layer 1
10
8.480798
20
28.121483
11
9.010021
21
27.208573
0
LINE
8
Layer 1
10
9.010021
20
27.208573
11
10.721520
21
24.573311
0
LINE
8
Layer 1
10
10.721520
20
24.573311
11
12.908082
21
21.735247
0
LINE
8
Layer 1
10
12.908082
20
21.735247
11
15.598233
21
18.660270
0
LINE
8
Layer 1
10
15.598233
20
18.660270
11
18.820501
21
15.314273
0
LINE
8
Layer 1
10
18.820501
20
15.314273
11
22.911231
21
11.432752
0
LINE
8
Layer 1
10
22.911231
20
11.432752
11
27.870221
21
7.223773
0
LINE
8
Layer 1
10
27.870221
20
7.223773
11
29.834961
21
5.536873
0
LINE
8
Layer 1
10
29.834961
20
5.536873
11
29.834961
21
2.712143
0
LINE
8
Layer 1
10
29.834961
20
2.712143
11
29.894498
21
0.052793
0
LINE
8
Layer 1
10
29.894498
20
0.052793
11
29.947421
21
2.831213
0
LINE
8
Layer 1
10
29.947421
20
2.831213
11
29.954036
21
5.523633
0
LINE
8
Layer 1
10
29.954036
20
5.523633
11
30.238493
21
5.781629
0
LINE
8
Layer 1
10
30.238493
20
5.781629
11
31.356473
21
6.701154
0
LINE
8
Layer 1
10
31.356473
20
6.701154
11
37.065469
21
11.525353
0
LINE
8
Layer 1
10
37.065469
20
11.525353
11
41.742473
21
15.982404
0
LINE
8
Layer 1
10
41.742473
20
15.982404
11
44.685036
21
19.107094
0
LINE
8
Layer 1
10
44.685036
20
19.107094
11
47.168663
21
21.987428
0
LINE
8
Layer 1
10
47.168663
20
21.987428
11
49.188392
21
24.617199
0
LINE
8
Layer 1
10
49.188392
20
24.617199
11
50.739263
21
26.990204
0
LINE
8
Layer 1
10
50.739263
20
26.990204
11
51.328024
21
27.969267
0
LINE
8
Layer 1
10
51.328024
20
27.969267
11
51.433869
21
28.121419
0
LINE
8
Layer 1
10
51.433869
20
28.121419
11
55.720579
21
28.114804
0
LINE
8
Layer 1
10
55.720579
20
28.114804
11
60.000669
21
28.114804
0
LINE
8
Layer 1
10
60.000669
20
28.114804
11
60.000669
21
28.644027
0
LINE
8
Layer 1
10
60.000669
20
28.644027
11
60.000669
21
29.173250
0
LINE
8
Layer 1
10
60.000669
20
29.173250
11
55.938879
21
29.173250
0
LINE
8
Layer 1
10
55.938879
20
29.173250
11
51.883709
21
29.173250
0
LINE
8
Layer 1
10
51.883709
20
29.173250
11
52.234319
21
30.218470
0
LINE
8
Layer 1
10
52.234319
20
30.218470
11
53.040558
21
33.181291
0
LINE
8
Layer 1
10
53.040558
20
33.181291
11
53.266309
21
35.821620
0
LINE
8
Layer 1
10
53.266309
20
35.821620
11
53.091830
21
38.287470
0
LINE
8
Layer 1
10
53.091830
20
38.287470
11
52.545242
21
40.584630
0
LINE
8
Layer 1
10
52.545242
20
40.584630
11
51.660034
21
42.821114
0
LINE
8
Layer 1
10
51.660034
20
42.821114
11
50.519311
21
44.753088
0
LINE
8
Layer 1
10
50.519311
20
44.753088
11
49.118111
21
46.388616
0
LINE
8
Layer 1
10
49.118111
20
46.388616
11
47.451472
21
47.735760
0
LINE
8
Layer 1
10
47.451472
20
47.735760
11
45.465645
21
48.787590
0
LINE
8
Layer 1
10
45.465645
20
48.787590
11
43.348338
21
49.387927
0
LINE
8
Layer 1
10
43.348338
20
49.387927
11
41.144206
21
49.529327
0
LINE
8
Layer 1
10
41.144206
20
49.529327
11
38.897902
21
49.204350
0
LINE
8
Layer 1
10
38.897902
20
49.204350
11
36.238557
21
48.266631
0
LINE
8
Layer 1
10
36.238557
20
48.266631
11
33.539522
21
46.803000
0
LINE
8
Layer 1
10
33.539522
20
46.803000
11
31.911334
21
45.614726
0
LINE
8
Layer 1
10
31.911334
20
45.614726
11
30.357572
21
44.282570
0
LINE
8
Layer 1
10
30.357572
20
44.282570
11
29.987116
21
43.931960
0
LINE
8
Layer 1
10
29.987116
20
43.931960
11
29.954040
21
46.591310
0
LINE
8
Layer 1
10
29.954040
20
46.591310
11
29.901117
21
54.609040
0
LINE
8
Layer 1
10
29.901117
20
54.609040
11
29.861426
21
60.000500
0
LINE
8
Layer 1
10
29.861426
20
60.000500
11
29.848195
21
52.042310
0
LINE
8
Layer 1
10
29.848195
20
52.042310
11
29.848200
21
52.042400
0
LINE
8
Layer 1
10
19.303400
20
47.762310
11
21.246952
21
47.303891
0
LINE
8
Layer 1
10
21.246952
20
47.303891
11
23.331284
21
46.431809
0
LINE
8
Layer 1
10
23.331284
20
46.431809
11
25.444144
21
45.201263
0
LINE
8
Layer 1
10
25.444144
20
45.201263
11
27.473280
21
43.667450
0
LINE
8
Layer 1
10
27.473280
20
43.667450
11
29.027870
21
42.245160
0
LINE
8
Layer 1
10
29.027870
20
42.245160
11
29.834935
21
41.457940
0
LINE
8
Layer 1
10
29.834935
20
41.457940
11
29.834935
21
35.318950
0
LINE
8
Layer 1
10
29.834935
20
35.318950
11
29.834935
21
29.173350
0
LINE
8
Layer 1
10
29.834935
20
29.173350
11
19.918615
21
29.173350
0
LINE
8
Layer 1
10
19.918615
20
29.173350
11
10.008915
21
29.173350
0
LINE
8
Layer 1
10
10.008915
20
29.173350
11
9.770765
21
29.695958
0
LINE
8
Layer 1
10
9.770765
20
29.695958
11
8.939203
21
31.932753
0
LINE
8
Layer 1
10
8.939203
20
31.932753
11
8.486574
21
34.189396
0
LINE
8
Layer 1
10
8.486574
20
34.189396
11
8.409775
21
36.483249
0
LINE
8
Layer 1
10
8.409775
20
36.483249
11
8.705705
21
38.831678
0
LINE
8
Layer 1
10
8.705705
20
38.831678
11
9.272036
21
40.787736
0
LINE
8
Layer 1
10
9.272036
20
40.787736
11
10.120552
21
42.607353
0
LINE
8
Layer 1
10
10.120552
20
42.607353
11
11.210939
21
44.216108
0
LINE
8
Layer 1
10
11.210939
20
44.216108
11
12.502885
21
45.539578
0
LINE
8
Layer 1
10
12.502885
20
45.539578
11
14.296457
21
46.794003
0
LINE
8
Layer 1
10
14.296457
20
46.794003
11
16.174375
21
47.517548
0
LINE
8
Layer 1
10
16.174375
20
47.517548
11
17.771140
21
47.798698
0
LINE
8
Layer 1
10
17.771140
20
47.798698
11
19.303405
21
47.762314
0
LINE
8
Layer 1
10
19.303405
20
47.762314
11
19.303400
21
47.762310
0
LINE
8
Layer 1
10
43.402900
20
47.603543
11
44.643577
21
47.224921
0
LINE
8
Layer 1
10
44.643577
20
47.224921
11
45.796809
21
46.673268
0
LINE
8
Layer 1
10
45.796809
20
46.673268
11
46.894224
21
45.931840
0
LINE
8
Layer 1
10
46.894224
20
45.931840
11
47.967450
21
44.983893
0
LINE
8
Layer 1
10
47.967450
20
44.983893
11
49.193241
21
43.534731
0
LINE
8
Layer 1
10
49.193241
20
43.534731
11
50.172821
21
41.854859
0
LINE
8
Layer 1
10
50.172821
20
41.854859
11
50.893166
21
39.971567
0
LINE
8
Layer 1
10
50.893166
20
39.971567
11
51.341250
21
37.912143
0
LINE
8
Layer 1
10
51.341250
20
37.912143
11
51.463633
21
35.576117
0
LINE
8
Layer 1
10
51.463633
20
35.576117
11
51.248636
21
33.274823
0
LINE
8
Layer 1
10
51.248636
20
33.274823
11
50.802103
21
31.573864
0
LINE
8
Layer 1
10
50.802103
20
31.573864
11
50.176956
21
29.887793
0
LINE
8
Layer 1
10
50.176956
20
29.887793
11
49.866037
21
29.173342
0
LINE
8
Layer 1
10
49.866037
20
29.173342
11
39.923257
21
29.173342
0
LINE
8
Layer 1
10
39.923257
20
29.173342
11
29.987087
21
29.173342
0
LINE
8
Layer 1
10
29.987087
20
29.173342
11
29.940780
21
30.383942
0
LINE
8
Layer 1
10
29.940780
20
30.383942
11
29.907704
21
36.476622
0
LINE
8
Layer 1
10
29.907704
20
36.476622
11
29.920934
21
41.365322
0
LINE
8
Layer 1
10
29.920934
20
41.365322
11
30.688308
21
42.126080
0
LINE
8
Layer 1
10
30.688308
20
42.126080
11
32.948256
21
44.126380
0
LINE
8
Layer 1
10
32.948256
20
44.126380
11
35.213168
21
45.724800
0
LINE
8
Layer 1
10
35.213168
20
45.724800
11
37.818766
21
47.039589
0
LINE
8
Layer 1
10
37.818766
20
47.039589
11
40.260638
21
47.729230
0
LINE
8
Layer 1
10
40.260638
20
47.729230
11
41.816884
21
47.797864
0
LINE
8
Layer 1
10
41.816884
20
47.797864
11
43.402898
21
47.603539
0
LINE
8
Layer 1
10
43.402898
20
47.603539
11
43.402900
21
47.603543
0
LINE
8
Layer 1
10
29.808500
20
28.095043
11
29.848192
21
18.013343
0
LINE
8
Layer 1
10
29.848192
20
18.013343
11
29.868038
21
7.951443
0
LINE
8
Layer 1
10
29.868038
20
7.951443
11
29.570350
21
8.189593
0
LINE
8
Layer 1
10
29.570350
20
8.189593
11
24.224363
21
12.692124
0
LINE
8
Layer 1
10
24.224363
20
12.692124
11
19.548150
21
17.159923
0
LINE
8
Layer 1
10
19.548150
20
17.159923
11
15.868397
21
21.029867
0
LINE
8
Layer 1
10
15.868397
20
21.029867
11
12.833630
21
24.661663
0
LINE
8
Layer 1
10
12.833630
20
24.661663
11
11.366688
21
26.732252
0
LINE
8
Layer 1
10
11.366688
20
26.732252
11
10.584430
21
28.088383
0
LINE
8
Layer 1
10
10.584430
20
28.088383
11
29.808430
21
28.094998
0
LINE
8
Layer 1
10
29.808430
20
28.094998
11
29.808500
21
28.095043
0
LINE
8
Layer 1
10
49.283900
20
28.095043
11
48.503295
21
26.761234
0
LINE
8
Layer 1
10
48.503295
20
26.761234
11
47.047930
21
24.708013
0
LINE
8
Layer 1
10
47.047930
20
24.708013
11
42.966296
21
19.893739
0
LINE
8
Layer 1
10
42.966296
20
19.893739
11
38.368670
21
15.188613
0
LINE
8
Layer 1
10
38.368670
20
15.188613
11
35.538979
21
12.576402
0
LINE
8
Layer 1
10
35.538979
20
12.576402
11
32.004760
21
9.572233
0
LINE
8
Layer 1
10
32.004760
20
9.572233
11
29.967250
21
7.872103
0
LINE
8
Layer 1
10
29.967250
20
7.872103
11
29.960635
21
8.579939
0
LINE
8
Layer 1
10
29.960635
20
8.579939
11
29.940789
21
18.721139
0
LINE
8
Layer 1
10
29.940789
20
18.721139
11
29.934174
21
28.147929
0
LINE
8
Layer 1
10
29.934174
20
28.147929
11
39.605724
21
28.147929
0
LINE
8
Layer 1
10
39.605724
20
28.147929
11
49.283894
21
28.095007
0
LINE
8
Layer 1
10
49.283894
20
28.095007
11
49.283900
21
28.095043
 0 
ENDSEC
 0 
EOF