999
"DXF R12 Output" (www.mydxf.blogspot.com)
 0 
SECTION
 2 
HEADER
 9 
$ACADVER
 1 
AC1009
 9 
$EXTMIN
 10 
 0 
 20 
 0 
 9 
$EXTMAX
 10 
 8.5 
 20 
 11 
 0 
ENDSEC
 0 
SECTION
 2 
ENTITIES
0
LINE
8
Layer 1
10
56.338600
20
146.156000
11
56.162211
21
145.666521
0
LINE
8
Layer 1
10
56.162211
20
145.666521
11
56.091655
21
144.780170
0
LINE
8
Layer 1
10
56.091655
20
144.780170
11
56.091655
21
143.616000
0
LINE
8
Layer 1
10
56.091655
20
143.616000
11
50.941095
21
143.510167
0
LINE
8
Layer 1
10
50.941095
20
143.510167
11
47.950198
21
143.433548
0
LINE
8
Layer 1
10
47.950198
20
143.433548
11
46.328521
21
143.294091
0
LINE
8
Layer 1
10
46.328521
20
143.294091
11
45.513824
21
142.989269
0
LINE
8
Layer 1
10
45.513824
20
142.989269
11
44.943865
21
142.416557
0
LINE
8
Layer 1
10
44.943865
20
142.416557
11
44.458244
21
141.752342
0
LINE
8
Layer 1
10
44.458244
20
141.752342
11
44.233899
21
140.833464
0
LINE
8
Layer 1
10
44.233899
20
140.833464
11
44.344142
21
135.784327
0
LINE
8
Layer 1
10
44.344142
20
135.784327
11
44.555809
21
130.175157
0
LINE
8
Layer 1
10
44.555809
20
130.175157
11
37.958859
21
130.175157
0
LINE
8
Layer 1
10
37.958859
20
130.175157
11
32.200302
21
130.043417
0
LINE
8
Layer 1
10
32.200302
20
130.043417
11
30.410153
21
129.752857
0
LINE
8
Layer 1
10
30.410153
20
129.752857
11
29.196712
21
129.200608
0
LINE
8
Layer 1
10
29.196712
20
129.200608
11
28.447945
21
128.302747
0
LINE
8
Layer 1
10
28.447945
20
128.302747
11
28.051819
21
126.975352
0
LINE
8
Layer 1
10
28.051819
20
126.975352
11
27.896302
21
125.134499
0
LINE
8
Layer 1
10
27.896302
20
125.134499
11
27.869359
21
122.696267
0
LINE
8
Layer 1
10
27.869359
20
122.696267
11
27.767935
21
118.529076
0
LINE
8
Layer 1
10
27.767935
20
118.529076
11
27.556820
21
117.938722
0
LINE
8
Layer 1
10
27.556820
20
117.938722
11
27.163803
21
117.827927
0
LINE
8
Layer 1
10
27.163803
20
117.827927
11
26.815435
21
117.879190
0
LINE
8
Layer 1
10
26.815435
20
117.879190
11
26.599358
21
118.052823
0
LINE
8
Layer 1
10
26.599358
20
118.052823
11
26.458247
21
118.886257
0
LINE
8
Layer 1
10
26.458247
20
118.886257
11
26.317136
21
119.719693
0
LINE
8
Layer 1
10
26.317136
20
119.719693
11
26.101059
21
119.893325
0
LINE
8
Layer 1
10
26.101059
20
119.893325
11
25.752691
21
119.944587
0
LINE
8
Layer 1
10
25.752691
20
119.944587
11
25.404323
21
119.893324
0
LINE
8
Layer 1
10
25.404323
20
119.893324
11
25.188246
21
119.719691
0
LINE
8
Layer 1
10
25.188246
20
119.719691
11
25.047135
21
118.886257
0
LINE
8
Layer 1
10
25.047135
20
118.886257
11
25.047135
21
117.827927
0
LINE
8
Layer 1
10
25.047135
20
117.827927
11
21.201855
21
117.827927
0
LINE
8
Layer 1
10
21.201855
20
117.827927
11
17.321295
21
117.827927
0
LINE
8
Layer 1
10
17.321295
20
117.827927
11
17.215462
21
118.780428
0
LINE
8
Layer 1
10
17.215462
20
118.780428
11
16.931585
21
119.611110
0
LINE
8
Layer 1
10
16.931585
20
119.611110
11
16.479036
21
119.922546
0
LINE
8
Layer 1
10
16.479036
20
119.922546
11
16.059560
21
119.698201
0
LINE
8
Layer 1
10
16.059560
20
119.698201
11
15.874902
21
118.921539
0
LINE
8
Layer 1
10
15.874902
20
118.921539
11
15.777888
21
118.114558
0
LINE
8
Layer 1
10
15.777888
20
118.114558
11
15.522124
21
117.651539
0
LINE
8
Layer 1
10
15.522124
20
117.651539
11
15.377705
21
117.879192
0
LINE
8
Layer 1
10
15.377705
20
117.879192
11
15.266360
21
118.758382
0
LINE
8
Layer 1
10
15.266360
20
118.758382
11
15.169346
21
122.378769
0
LINE
8
Layer 1
10
15.169346
20
122.378769
11
15.227224
21
125.866308
0
LINE
8
Layer 1
10
15.227224
20
125.866308
11
15.364683
21
126.938491
0
LINE
8
Layer 1
10
15.364683
20
126.938491
11
15.632367
21
127.657206
0
LINE
8
Layer 1
10
15.632367
20
127.657206
11
16.073684
21
128.093149
0
LINE
8
Layer 1
10
16.073684
20
128.093149
11
16.732043
21
128.317011
0
LINE
8
Layer 1
10
16.732043
20
128.317011
11
18.873516
21
128.411269
0
LINE
8
Layer 1
10
18.873516
20
128.411269
11
20.500705
21
128.497259
0
LINE
8
Layer 1
10
20.500705
20
128.497259
11
21.466434
21
128.755227
0
LINE
8
Layer 1
10
21.466434
20
128.755227
11
21.701251
21
128.948703
0
LINE
8
Layer 1
10
21.701251
20
128.948703
11
21.770703
21
129.185174
0
LINE
8
Layer 1
10
21.770703
20
129.185174
11
21.413516
21
129.787099
0
LINE
8
Layer 1
10
21.413516
20
129.787099
11
20.626931
21
130.065463
0
LINE
8
Layer 1
10
20.626931
20
130.065463
11
19.248341
21
130.161925
0
LINE
8
Layer 1
10
19.248341
20
130.161925
11
17.638241
21
130.079794
0
LINE
8
Layer 1
10
17.638241
20
130.079794
11
16.157126
21
129.822377
0
LINE
8
Layer 1
10
16.157126
20
129.822377
11
14.859566
21
129.272264
0
LINE
8
Layer 1
10
14.859566
20
129.272264
11
14.436922
21
128.851273
0
LINE
8
Layer 1
10
14.436922
20
128.851273
11
14.137473
21
128.252516
0
LINE
8
Layer 1
10
14.137473
20
128.252516
11
13.825485
21
126.280265
0
LINE
8
Layer 1
10
13.825485
20
126.280265
11
13.758236
21
122.872647
0
LINE
8
Layer 1
10
13.758236
20
122.872647
11
13.758236
21
117.827917
0
LINE
8
Layer 1
10
13.758236
20
117.827917
11
12.276566
21
117.827917
0
LINE
8
Layer 1
10
12.276566
20
117.827917
11
10.943177
21
117.768937
0
LINE
8
Layer 1
10
10.943177
20
117.768937
11
9.970280
21
117.594201
0
LINE
8
Layer 1
10
9.970280
20
117.594201
11
9.374413
21
117.307018
0
LINE
8
Layer 1
10
9.374413
20
117.307018
11
9.172116
21
116.910694
0
LINE
8
Layer 1
10
9.172116
20
116.910694
11
9.286769
21
116.669813
0
LINE
8
Layer 1
10
9.286769
20
116.669813
11
9.666005
21
116.518228
0
LINE
8
Layer 1
10
9.666005
20
116.518228
11
11.429896
21
116.416805
0
LINE
8
Layer 1
10
11.429896
20
116.416805
11
13.722956
21
116.416805
0
LINE
8
Layer 1
10
13.722956
20
116.416805
11
13.828789
21
115.111525
0
LINE
8
Layer 1
10
13.828789
20
115.111525
11
14.040456
21
114.097286
0
LINE
8
Layer 1
10
14.040456
20
114.097286
11
14.225664
21
113.851443
0
LINE
8
Layer 1
10
14.225664
20
113.851443
11
14.463789
21
113.770965
0
LINE
8
Layer 1
10
14.463789
20
113.770965
11
14.701914
21
113.851442
0
LINE
8
Layer 1
10
14.701914
20
113.851442
11
14.887123
21
114.097285
0
LINE
8
Layer 1
10
14.887123
20
114.097285
11
15.098789
21
115.111525
0
LINE
8
Layer 1
10
15.098789
20
115.111525
11
15.270768
21
116.028748
0
LINE
8
Layer 1
10
15.270768
20
116.028748
11
15.522123
21
116.416805
0
LINE
8
Layer 1
10
15.522123
20
116.416805
11
15.786707
21
115.199722
0
LINE
8
Layer 1
10
15.786707
20
115.199722
11
15.945457
21
112.289305
0
LINE
8
Layer 1
10
15.945457
20
112.289305
11
16.051290
21
108.126525
0
LINE
8
Layer 1
10
16.051290
20
108.126525
11
21.166570
21
108.126525
0
LINE
8
Layer 1
10
21.166570
20
108.126525
11
26.281850
21
108.126525
0
LINE
8
Layer 1
10
26.281850
20
108.126525
11
26.458239
21
112.183475
0
LINE
8
Layer 1
10
26.458239
20
112.183475
11
26.705184
21
115.534866
0
LINE
8
Layer 1
10
26.705184
20
115.534866
11
26.924567
21
116.142306
0
LINE
8
Layer 1
10
26.924567
20
116.142306
11
27.269628
21
116.346255
0
LINE
8
Layer 1
10
27.269628
20
116.346255
11
27.586577
21
116.294440
0
LINE
8
Layer 1
10
27.586577
20
116.294440
11
27.767927
21
115.799449
0
LINE
8
Layer 1
10
27.767927
20
115.799449
11
27.869351
21
112.395145
0
LINE
8
Layer 1
10
27.869351
20
112.395145
11
28.049599
21
108.710270
0
LINE
8
Layer 1
10
28.049599
20
108.710270
11
28.343741
21
107.494357
0
LINE
8
Layer 1
10
28.343741
20
107.494357
11
28.835081
21
106.622816
0
LINE
8
Layer 1
10
28.835081
20
106.622816
11
29.569507
21
106.040663
0
LINE
8
Layer 1
10
29.569507
20
106.040663
11
30.592909
21
105.692914
0
LINE
8
Layer 1
10
30.592909
20
105.692914
11
31.951173
21
105.524586
0
LINE
8
Layer 1
10
31.951173
20
105.524586
11
33.690191
21
105.480695
0
LINE
8
Layer 1
10
33.690191
20
105.480695
11
36.688801
21
105.480695
0
LINE
8
Layer 1
10
36.688801
20
105.480695
11
36.688801
21
94.227095
0
LINE
8
Layer 1
10
36.688801
20
94.227095
11
36.688801
21
82.938195
0
LINE
8
Layer 1
10
36.688801
20
82.938195
11
34.854351
21
82.832362
0
LINE
8
Layer 1
10
34.854351
20
82.832362
11
33.350635
21
82.625105
0
LINE
8
Layer 1
10
33.350635
20
82.625105
11
33.013841
21
82.420604
0
LINE
8
Layer 1
10
33.013841
20
82.420604
11
32.878791
21
82.126806
0
LINE
8
Layer 1
10
32.878791
20
82.126806
11
32.887611
21
81.804345
0
LINE
8
Layer 1
10
32.887611
20
81.804345
11
33.134556
21
81.610868
0
LINE
8
Layer 1
10
33.134556
20
81.610868
11
34.713241
21
81.491806
0
LINE
8
Layer 1
10
34.713241
20
81.491806
11
36.653521
21
81.491806
0
LINE
8
Layer 1
10
36.653521
20
81.491806
11
36.759354
21
78.775416
0
LINE
8
Layer 1
10
36.759354
20
78.775416
11
36.865187
21
76.023746
0
LINE
8
Layer 1
10
36.865187
20
76.023746
11
40.675187
21
75.917913
0
LINE
8
Layer 1
10
40.675187
20
75.917913
11
44.449907
21
75.812080
0
LINE
8
Layer 1
10
44.449907
20
75.812080
11
44.449907
21
45.861180
0
LINE
8
Layer 1
10
44.449907
20
45.861180
11
44.449907
21
15.910280
0
LINE
8
Layer 1
10
44.449907
20
15.910280
11
43.321017
21
15.804447
0
LINE
8
Layer 1
10
43.321017
20
15.804447
11
42.406000
21
15.590575
0
LINE
8
Layer 1
10
42.406000
20
15.590575
11
42.059837
21
15.257641
0
LINE
8
Layer 1
10
42.059837
20
15.257641
11
42.308986
21
14.951165
0
LINE
8
Layer 1
10
42.308986
20
14.951165
11
43.179906
21
14.816669
0
LINE
8
Layer 1
10
43.179906
20
14.816669
11
43.880503
21
14.788557
0
LINE
8
Layer 1
10
43.880503
20
14.788557
11
44.260290
21
14.618231
0
LINE
8
Layer 1
10
44.260290
20
14.618231
11
44.435025
21
14.176706
0
LINE
8
Layer 1
10
44.435025
20
14.176706
11
44.520466
21
13.334999
0
LINE
8
Layer 1
10
44.520466
20
13.334999
11
44.725518
21
12.175795
0
LINE
8
Layer 1
10
44.725518
20
12.175795
11
45.049633
21
11.734272
0
LINE
8
Layer 1
10
45.049633
20
11.734272
11
45.219131
21
11.791942
0
LINE
8
Layer 1
10
45.219131
20
11.791942
11
45.373746
21
12.040195
0
LINE
8
Layer 1
10
45.373746
20
12.040195
11
45.578796
21
13.123332
0
LINE
8
Layer 1
10
45.578796
20
13.123332
11
45.684629
21
14.640282
0
LINE
8
Layer 1
10
45.684629
20
14.640282
11
57.044129
21
14.746115
0
LINE
8
Layer 1
10
57.044129
20
14.746115
11
68.403629
21
14.816670
0
LINE
8
Layer 1
10
68.403629
20
14.816670
11
68.509462
21
13.335000
0
LINE
8
Layer 1
10
68.509462
20
13.335000
11
68.747587
21
12.144374
0
LINE
8
Layer 1
10
68.747587
20
12.144374
11
68.936103
21
11.846717
0
LINE
8
Layer 1
10
68.936103
20
11.846717
11
69.144462
21
11.747498
0
LINE
8
Layer 1
10
69.144462
20
11.747498
11
69.352822
21
11.846717
0
LINE
8
Layer 1
10
69.352822
20
11.846717
11
69.541337
21
12.144374
0
LINE
8
Layer 1
10
69.541337
20
12.144374
11
69.779462
21
13.335000
0
LINE
8
Layer 1
10
69.779462
20
13.335000
11
69.885295
21
14.816670
0
LINE
8
Layer 1
10
69.885295
20
14.816670
11
134.761195
21
14.816670
0
LINE
8
Layer 1
10
134.761195
20
14.816670
11
199.637095
21
14.816670
0
LINE
8
Layer 1
10
199.637095
20
14.816670
11
199.742928
21
13.335000
0
LINE
8
Layer 1
10
199.742928
20
13.335000
11
199.981053
21
12.144374
0
LINE
8
Layer 1
10
199.981053
20
12.144374
11
200.169569
21
11.846717
0
LINE
8
Layer 1
10
200.169569
20
11.846717
11
200.377928
21
11.747498
0
LINE
8
Layer 1
10
200.377928
20
11.747498
11
200.586288
21
11.846717
0
LINE
8
Layer 1
10
200.586288
20
11.846717
11
200.774803
21
12.144374
0
LINE
8
Layer 1
10
200.774803
20
12.144374
11
201.012928
21
13.335000
0
LINE
8
Layer 1
10
201.012928
20
13.335000
11
201.118761
21
14.816670
0
LINE
8
Layer 1
10
201.118761
20
14.816670
11
214.418461
21
14.746115
0
LINE
8
Layer 1
10
214.418461
20
14.746115
11
225.857261
21
14.556497
0
LINE
8
Layer 1
10
225.857261
20
14.556497
11
227.396264
21
14.344279
0
LINE
8
Layer 1
10
227.396264
20
14.344279
11
227.601050
21
14.181325
0
LINE
8
Layer 1
10
227.601050
20
14.181325
11
227.612361
21
13.970003
0
LINE
8
Layer 1
10
227.612361
20
13.970003
11
227.584249
21
13.166329
0
LINE
8
Layer 1
10
227.584249
20
13.166329
11
227.731424
21
12.408959
0
LINE
8
Layer 1
10
227.731424
20
12.408959
11
228.004276
21
11.876486
0
LINE
8
Layer 1
10
228.004276
20
11.876486
11
228.353195
21
11.747503
0
LINE
8
Layer 1
10
228.353195
20
11.747503
11
228.705973
21
12.241393
0
LINE
8
Layer 1
10
228.705973
20
12.241393
11
228.952918
21
13.264453
0
LINE
8
Layer 1
10
228.952918
20
13.264453
11
229.085761
21
14.031745
0
LINE
8
Layer 1
10
229.085761
20
14.031745
11
229.301287
21
14.455078
0
LINE
8
Layer 1
10
229.301287
20
14.455078
11
229.721866
21
14.653516
0
LINE
8
Layer 1
10
229.721866
20
14.653516
11
230.469868
21
14.746123
0
LINE
8
Layer 1
10
230.469868
20
14.746123
11
231.510011
21
14.996926
0
LINE
8
Layer 1
10
231.510011
20
14.996926
11
231.832473
21
15.376714
0
LINE
8
Layer 1
10
231.832473
20
15.376714
11
231.447174
21
15.723428
0
LINE
8
Layer 1
10
231.447174
20
15.723428
11
230.364035
21
15.875013
0
LINE
8
Layer 1
10
230.364035
20
15.875013
11
228.952925
21
15.875013
0
LINE
8
Layer 1
10
228.952925
20
15.875013
11
228.952925
21
75.847313
0
LINE
8
Layer 1
10
228.952925
20
75.847313
11
228.952925
21
135.819613
0
LINE
8
Layer 1
10
228.952925
20
135.819613
11
229.693759
21
135.819613
0
LINE
8
Layer 1
10
229.693759
20
135.819613
11
230.442861
21
135.930958
0
LINE
8
Layer 1
10
230.442861
20
135.930958
11
231.109282
21
136.207668
0
LINE
8
Layer 1
10
231.109282
20
136.207668
11
231.544191
21
136.563753
0
LINE
8
Layer 1
10
231.544191
20
136.563753
11
231.598759
21
136.913223
0
LINE
8
Layer 1
10
231.598759
20
136.913223
11
231.074002
21
137.138119
0
LINE
8
Layer 1
10
231.074002
20
137.138119
11
230.152369
21
137.230723
0
LINE
8
Layer 1
10
230.152369
20
137.230723
11
229.503588
21
137.257181
0
LINE
8
Layer 1
10
229.503588
20
137.257181
11
229.142540
21
137.389472
0
LINE
8
Layer 1
10
229.142540
20
137.389472
11
228.986544
21
137.706971
0
LINE
8
Layer 1
10
228.986544
20
137.706971
11
228.952919
21
138.289053
0
LINE
8
Layer 1
10
228.952919
20
138.289053
11
228.791964
21
138.981930
0
LINE
8
Layer 1
10
228.791964
20
138.981930
11
228.432570
21
139.360615
0
LINE
8
Layer 1
10
228.432570
20
139.360615
11
228.059949
21
139.335811
0
LINE
8
Layer 1
10
228.059949
20
139.335811
11
227.859309
21
138.818220
0
LINE
8
Layer 1
10
227.859309
20
138.818220
11
227.753476
21
137.865719
0
LINE
8
Layer 1
10
227.753476
20
137.865719
11
227.108554
21
137.638618
0
LINE
8
Layer 1
10
227.108554
20
137.638618
11
224.948893
21
137.477663
0
LINE
8
Layer 1
10
224.948893
20
137.477663
11
214.418476
21
137.301274
0
LINE
8
Layer 1
10
214.418476
20
137.301274
11
201.118776
21
137.230718
0
LINE
8
Layer 1
10
201.118776
20
137.230718
11
201.012943
21
138.359608
0
LINE
8
Layer 1
10
201.012943
20
138.359608
11
200.774818
21
139.253128
0
LINE
8
Layer 1
10
200.774818
20
139.253128
11
200.377943
21
139.554643
0
LINE
8
Layer 1
10
200.377943
20
139.554643
11
199.981068
21
139.267460
0
LINE
8
Layer 1
10
199.981068
20
139.267460
11
199.742943
21
138.394886
0
LINE
8
Layer 1
10
199.742943
20
138.394886
11
199.637110
21
137.230716
0
LINE
8
Layer 1
10
199.637110
20
137.230716
11
178.152910
21
137.230716
0
LINE
8
Layer 1
10
178.152910
20
137.230716
11
159.839322
21
137.323320
0
LINE
8
Layer 1
10
159.839322
20
137.323320
11
157.133396
21
137.513489
0
LINE
8
Layer 1
10
157.133396
20
137.513489
11
156.671131
21
137.666245
0
LINE
8
Layer 1
10
156.671131
20
137.666245
11
156.527610
21
137.865716
0
LINE
8
Layer 1
10
156.527610
20
137.865716
11
156.104276
21
139.876546
0
LINE
8
Layer 1
10
156.104276
20
139.876546
11
155.619207
21
142.046133
0
LINE
8
Layer 1
10
155.619207
20
142.046133
11
155.310527
21
142.426474
0
LINE
8
Layer 1
10
155.310527
20
142.426474
11
154.869556
21
142.522386
0
LINE
8
Layer 1
10
154.869556
20
142.522386
11
154.435750
21
142.342138
0
LINE
8
Layer 1
10
154.435750
20
142.342138
11
153.833272
21
141.821239
0
LINE
8
Layer 1
10
153.833272
20
141.821239
11
152.188446
21
139.876546
0
LINE
8
Layer 1
10
152.188446
20
139.876546
11
150.212886
21
137.230706
0
LINE
8
Layer 1
10
150.212886
20
137.230706
11
110.031486
21
137.230706
0
LINE
8
Layer 1
10
110.031486
20
137.230706
11
69.850086
21
137.230706
0
LINE
8
Layer 1
10
69.850086
20
137.230706
11
69.850086
21
139.312096
0
LINE
8
Layer 1
10
69.850086
20
139.312096
11
69.638419
21
141.993206
0
LINE
8
Layer 1
10
69.638419
20
141.993206
11
69.398640
21
142.415919
0
LINE
8
Layer 1
10
69.398640
20
142.415919
11
69.029877
21
142.762150
0
LINE
8
Layer 1
10
69.029877
20
142.762150
11
67.786336
21
143.249976
0
LINE
8
Layer 1
10
67.786336
20
143.249976
11
65.669668
21
143.506292
0
LINE
8
Layer 1
10
65.669668
20
143.506292
11
62.441749
21
143.580706
0
LINE
8
Layer 1
10
62.441749
20
143.580706
11
57.502859
21
143.580706
0
LINE
8
Layer 1
10
57.502859
20
143.580706
11
57.502859
21
144.427373
0
LINE
8
Layer 1
10
57.502859
20
144.427373
11
57.405294
21
145.441608
0
LINE
8
Layer 1
10
57.405294
20
145.441608
11
57.145671
21
146.111885
0
LINE
8
Layer 1
10
57.145671
20
146.111885
11
56.773600
21
146.372059
0
LINE
8
Layer 1
10
56.773600
20
146.372059
11
56.338689
21
146.155983
0
LINE
8
Layer 1
10
56.338689
20
146.155983
11
56.338600
21
146.156000
0
LINE
8
Layer 1
10
56.091655
20
135.996000
11
56.091655
21
130.175160
0
LINE
8
Layer 1
10
56.091655
20
130.175160
11
51.505545
21
130.175160
0
LINE
8
Layer 1
10
51.505545
20
130.175160
11
46.919435
21
130.175160
0
LINE
8
Layer 1
10
46.919435
20
130.175160
11
46.919435
21
134.937660
0
LINE
8
Layer 1
10
46.919435
20
134.937660
11
46.818011
21
139.012245
0
LINE
8
Layer 1
10
46.818011
20
139.012245
11
46.606896
21
139.591020
0
LINE
8
Layer 1
10
46.606896
20
139.591020
11
46.213879
21
139.700160
0
LINE
8
Layer 1
10
46.213879
20
139.700160
11
45.756921
21
139.782291
0
LINE
8
Layer 1
10
45.756921
20
139.782291
11
45.548010
21
140.039709
0
LINE
8
Layer 1
10
45.548010
20
140.039709
11
45.583839
21
140.488950
0
LINE
8
Layer 1
10
45.583839
20
140.488950
11
45.861101
21
141.146550
0
LINE
8
Layer 1
10
45.861101
20
141.146550
11
46.206713
21
141.504289
0
LINE
8
Layer 1
10
46.206713
20
141.504289
11
46.959122
21
141.706585
0
LINE
8
Layer 1
10
46.959122
20
141.706585
11
51.152771
21
141.816828
0
LINE
8
Layer 1
10
51.152771
20
141.816828
11
56.091661
21
141.816828
0
LINE
8
Layer 1
10
56.091661
20
141.816828
11
56.091661
21
135.995988
0
LINE
8
Layer 1
10
56.091661
20
135.995988
11
56.091655
21
135.996000
0
LINE
8
Layer 1
10
68.368355
20
139.453220
11
68.474188
21
137.266000
0
LINE
8
Layer 1
10
68.474188
20
137.266000
11
66.957238
21
137.160167
0
LINE
8
Layer 1
10
66.957238
20
137.160167
11
66.017414
21
136.997007
0
LINE
8
Layer 1
10
66.017414
20
136.997007
11
65.524077
21
136.728014
0
LINE
8
Layer 1
10
65.524077
20
136.728014
11
65.553292
21
136.445791
0
LINE
8
Layer 1
10
65.553292
20
136.445791
11
66.181126
21
136.242944
0
LINE
8
Layer 1
10
66.181126
20
136.242944
11
67.531052
21
136.013638
0
LINE
8
Layer 1
10
67.531052
20
136.013638
11
68.196370
21
135.625582
0
LINE
8
Layer 1
10
68.196370
20
135.625582
11
68.418511
21
134.734817
0
LINE
8
Layer 1
10
68.418511
20
134.734817
11
68.438906
21
132.997384
0
LINE
8
Layer 1
10
68.438906
20
132.997384
11
68.438906
21
130.175164
0
LINE
8
Layer 1
10
68.438906
20
130.175164
11
62.970846
21
130.175164
0
LINE
8
Layer 1
10
62.970846
20
130.175164
11
57.502786
21
130.175164
0
LINE
8
Layer 1
10
57.502786
20
130.175164
11
57.502786
21
135.996004
0
LINE
8
Layer 1
10
57.502786
20
135.996004
11
57.502786
21
141.852114
0
LINE
8
Layer 1
10
57.502786
20
141.852114
11
62.900286
21
141.746281
0
LINE
8
Layer 1
10
62.900286
20
141.746281
11
68.262516
21
141.640448
0
LINE
8
Layer 1
10
68.262516
20
141.640448
11
68.368349
21
139.453228
0
LINE
8
Layer 1
10
68.368349
20
139.453228
11
68.368355
21
139.453220
0
LINE
8
Layer 1
10
154.834255
20
137.689330
11
154.770314
21
137.498610
0
LINE
8
Layer 1
10
154.770314
20
137.498610
11
154.534394
21
137.354191
0
LINE
8
Layer 1
10
154.534394
20
137.354191
11
153.599535
21
137.230719
0
LINE
8
Layer 1
10
153.599535
20
137.230719
11
152.364815
21
137.230719
0
LINE
8
Layer 1
10
152.364815
20
137.230719
11
153.352593
21
138.500719
0
LINE
8
Layer 1
10
153.352593
20
138.500719
11
154.230129
21
139.537005
0
LINE
8
Layer 1
10
154.230129
20
139.537005
11
154.409275
21
139.428416
0
LINE
8
Layer 1
10
154.409275
20
139.428416
11
154.552043
21
138.959330
0
LINE
8
Layer 1
10
154.552043
20
138.959330
11
154.834265
21
137.689330
0
LINE
8
Layer 1
10
154.834265
20
137.689330
11
154.834255
21
137.689330
0
LINE
8
Layer 1
10
86.007255
20
135.219880
11
86.298297
21
134.152728
0
LINE
8
Layer 1
10
86.298297
20
134.152728
11
86.430589
21
132.397660
0
LINE
8
Layer 1
10
86.430589
20
132.397660
11
86.430589
21
130.175160
0
LINE
8
Layer 1
10
86.430589
20
130.175160
11
78.140309
21
130.175160
0
LINE
8
Layer 1
10
78.140309
20
130.175160
11
69.850029
21
130.175160
0
LINE
8
Layer 1
10
69.850029
20
130.175160
11
69.850029
21
132.926830
0
LINE
8
Layer 1
10
69.850029
20
132.926830
11
70.026418
21
135.890170
0
LINE
8
Layer 1
10
70.026418
20
135.890170
11
72.425308
21
135.991593
0
LINE
8
Layer 1
10
72.425308
20
135.991593
11
77.893368
21
135.960726
0
LINE
8
Layer 1
10
77.893368
20
135.960726
11
84.305107
21
135.735830
0
LINE
8
Layer 1
10
84.305107
20
135.735830
11
85.513371
21
135.539046
0
LINE
8
Layer 1
10
85.513371
20
135.539046
11
86.007258
21
135.219892
0
LINE
8
Layer 1
10
86.007258
20
135.219892
11
86.007255
21
135.219880
0
LINE
8
Layer 1
10
148.907555
20
135.643214
11
147.214225
21
133.244324
0
LINE
8
Layer 1
10
147.214225
20
133.244324
11
142.967660
21
127.785082
0
LINE
8
Layer 1
10
142.967660
20
127.785082
11
140.229225
21
124.072094
0
LINE
8
Layer 1
10
140.229225
20
124.072094
11
139.840067
21
123.147706
0
LINE
8
Layer 1
10
139.840067
20
123.147706
11
139.878238
21
122.800234
0
LINE
8
Layer 1
10
139.878238
20
122.800234
11
140.079294
21
122.524283
0
LINE
8
Layer 1
10
140.079294
20
122.524283
11
140.993210
21
122.172058
0
LINE
8
Layer 1
10
140.993210
20
122.172058
11
142.628115
21
122.061264
0
LINE
8
Layer 1
10
142.628115
20
122.061264
11
144.780065
21
122.061264
0
LINE
8
Layer 1
10
144.780065
20
122.061264
11
142.345895
21
119.838764
0
LINE
8
Layer 1
10
142.345895
20
119.838764
11
140.634921
21
118.092515
0
LINE
8
Layer 1
10
140.634921
20
118.092515
11
140.242456
21
117.526969
0
LINE
8
Layer 1
10
140.242456
20
117.526969
11
140.193945
21
117.192934
0
LINE
8
Layer 1
10
140.193945
20
117.192934
11
140.613971
21
116.829132
0
LINE
8
Layer 1
10
140.613971
20
116.829132
11
141.199363
21
116.848976
0
LINE
8
Layer 1
10
141.199363
20
116.848976
11
141.969963
21
117.252465
0
LINE
8
Layer 1
10
141.969963
20
117.252465
11
142.945615
21
118.039601
0
LINE
8
Layer 1
10
142.945615
20
118.039601
11
143.986311
21
118.864220
0
LINE
8
Layer 1
10
143.986311
20
118.864220
11
144.497835
21
119.133211
0
LINE
8
Layer 1
10
144.497835
20
119.133211
11
144.162696
21
117.157655
0
LINE
8
Layer 1
10
144.162696
20
117.157655
11
143.086725
21
112.642091
0
LINE
8
Layer 1
10
143.086725
20
112.642091
11
141.931376
21
107.963376
0
LINE
8
Layer 1
10
141.931376
20
107.963376
11
141.463945
21
105.586531
0
LINE
8
Layer 1
10
141.463945
20
105.586531
11
141.585764
21
105.043584
0
LINE
8
Layer 1
10
141.585764
20
105.043584
11
141.909327
21
104.708997
0
LINE
8
Layer 1
10
141.909327
20
104.708997
11
142.371797
21
104.619149
0
LINE
8
Layer 1
10
142.371797
20
104.619149
11
142.910335
21
104.810419
0
LINE
8
Layer 1
10
142.910335
20
104.810419
11
143.554155
21
105.104768
0
LINE
8
Layer 1
10
143.554155
20
105.104768
11
143.753695
21
105.034902
0
LINE
8
Layer 1
10
143.753695
20
105.034902
11
143.880476
21
104.783961
0
LINE
8
Layer 1
10
143.880476
20
104.783961
11
143.942212
21
103.629715
0
LINE
8
Layer 1
10
143.942212
20
103.629715
11
143.792280
21
101.423749
0
LINE
8
Layer 1
10
143.792280
20
101.423749
11
143.479190
21
98.804373
0
LINE
8
Layer 1
10
143.479190
20
98.804373
11
143.192557
21
97.719579
0
LINE
8
Layer 1
10
143.192557
20
97.719579
11
141.957835
21
100.903407
0
LINE
8
Layer 1
10
141.957835
20
100.903407
11
139.347277
21
108.585179
0
LINE
8
Layer 1
10
139.347277
20
108.585179
11
136.647422
21
116.526532
0
LINE
8
Layer 1
10
136.647422
20
116.526532
11
135.025746
21
120.892729
0
LINE
8
Layer 1
10
135.025746
20
120.892729
11
134.039070
21
122.738776
0
LINE
8
Layer 1
10
134.039070
20
122.738776
11
133.645364
21
123.046433
0
LINE
8
Layer 1
10
133.645364
20
123.046433
11
133.244217
21
123.119679
0
LINE
8
Layer 1
10
133.244217
20
123.119679
11
132.547481
21
122.952109
0
LINE
8
Layer 1
10
132.547481
20
122.952109
11
132.115327
21
122.519956
0
LINE
8
Layer 1
10
132.115327
20
122.519956
11
128.869767
21
113.594676
0
LINE
8
Layer 1
10
128.869767
20
113.594676
11
125.730047
21
105.163286
0
LINE
8
Layer 1
10
125.730047
20
105.163286
11
125.588936
21
110.913566
0
LINE
8
Layer 1
10
125.588936
20
110.913566
11
125.588936
21
116.804956
0
LINE
8
Layer 1
10
125.588936
20
116.804956
11
126.647266
21
116.169956
0
LINE
8
Layer 1
10
126.647266
20
116.169956
11
127.573309
21
115.764261
0
LINE
8
Layer 1
10
127.573309
20
115.764261
11
127.867659
21
115.802846
0
LINE
8
Layer 1
10
127.867659
20
115.802846
11
128.128936
21
115.993567
0
LINE
8
Layer 1
10
128.128936
20
115.993567
11
128.364856
21
116.412491
0
LINE
8
Layer 1
10
128.364856
20
116.412491
11
128.111297
21
117.598705
0
LINE
8
Layer 1
10
128.111297
20
117.598705
11
124.812826
21
126.294667
0
LINE
8
Layer 1
10
124.812826
20
126.294667
11
122.832861
21
131.017480
0
LINE
8
Layer 1
10
122.832861
20
131.017480
11
122.257943
21
131.935254
0
LINE
8
Layer 1
10
122.257943
20
131.935254
11
121.778936
21
132.221337
0
LINE
8
Layer 1
10
121.778936
20
132.221337
11
121.401904
21
132.231810
0
LINE
8
Layer 1
10
121.401904
20
132.231810
11
121.143935
21
132.066997
0
LINE
8
Layer 1
10
121.143935
20
132.066997
11
120.826435
21
130.986617
0
LINE
8
Layer 1
10
120.826435
20
130.986617
11
117.580875
21
113.806317
0
LINE
8
Layer 1
10
117.580875
20
113.806317
11
116.910597
21
110.666597
0
LINE
8
Layer 1
10
116.910597
20
110.666597
11
113.594487
21
116.064097
0
LINE
8
Layer 1
10
113.594487
20
116.064097
11
111.358203
21
119.507541
0
LINE
8
Layer 1
10
111.358203
20
119.507541
11
109.859448
21
121.386636
0
LINE
8
Layer 1
10
109.859448
20
121.386636
11
109.298793
21
121.821201
0
LINE
8
Layer 1
10
109.298793
20
121.821201
11
108.817100
21
121.962656
0
LINE
8
Layer 1
10
108.817100
20
121.962656
11
108.379228
21
121.843662
0
LINE
8
Layer 1
10
108.379228
20
121.843662
11
107.950037
21
121.496877
0
LINE
8
Layer 1
10
107.950037
20
121.496877
11
106.657988
21
118.590867
0
LINE
8
Layer 1
10
106.657988
20
118.590867
11
104.492817
21
112.536317
0
LINE
8
Layer 1
10
104.492817
20
112.536317
11
102.239447
21
106.243640
0
LINE
8
Layer 1
10
102.239447
20
106.243640
11
101.670040
21
105.050258
0
LINE
8
Layer 1
10
101.670040
20
105.050258
11
101.497164
21
104.873799
0
LINE
8
Layer 1
10
101.497164
20
104.873799
11
101.388367
21
104.951587
0
LINE
8
Layer 1
10
101.388367
20
104.951587
11
99.060037
21
110.737147
0
LINE
8
Layer 1
10
99.060037
20
110.737147
11
97.013927
21
116.028817
0
LINE
8
Layer 1
10
97.013927
20
116.028817
11
97.340247
21
116.191977
0
LINE
8
Layer 1
10
97.340247
20
116.191977
11
98.142817
21
116.275762
0
LINE
8
Layer 1
10
98.142817
20
116.275762
11
99.179101
21
116.544755
0
LINE
8
Layer 1
10
99.179101
20
116.544755
11
100.083097
21
117.263540
0
LINE
8
Layer 1
10
100.083097
20
117.263540
11
100.522416
21
117.900745
0
LINE
8
Layer 1
10
100.522416
20
117.900745
11
100.766604
21
118.762846
0
LINE
8
Layer 1
10
100.766604
20
118.762846
11
100.894486
21
122.802150
0
LINE
8
Layer 1
10
100.894486
20
122.802150
11
100.866994
21
125.154808
0
LINE
8
Layer 1
10
100.866994
20
125.154808
11
100.727468
21
126.945639
0
LINE
8
Layer 1
10
100.727468
20
126.945639
11
100.390331
21
128.251124
0
LINE
8
Layer 1
10
100.390331
20
128.251124
11
99.770006
21
129.147745
0
LINE
8
Layer 1
10
99.770006
20
129.147745
11
98.780919
21
129.711983
0
LINE
8
Layer 1
10
98.780919
20
129.711983
11
97.337492
21
130.020319
0
LINE
8
Layer 1
10
97.337492
20
130.020319
11
92.745316
21
130.175210
0
LINE
8
Layer 1
10
92.745316
20
130.175210
11
87.912256
21
130.175210
0
LINE
8
Layer 1
10
87.912256
20
130.175210
11
87.771145
21
132.997430
0
LINE
8
Layer 1
10
87.771145
20
132.997430
11
87.665312
21
135.784380
0
LINE
8
Layer 1
10
87.665312
20
135.784380
11
89.252812
21
135.890213
0
LINE
8
Layer 1
10
89.252812
20
135.890213
11
100.012546
21
135.975651
0
LINE
8
Layer 1
10
100.012546
20
135.975651
11
120.350206
21
135.938720
0
LINE
8
Layer 1
10
120.350206
20
135.938720
11
140.052869
21
135.815799
0
LINE
8
Layer 1
10
140.052869
20
135.815799
11
148.907612
21
135.643268
0
LINE
8
Layer 1
10
148.907612
20
135.643268
11
148.907555
21
135.643214
0
LINE
8
Layer 1
10
155.716175
20
132.820994
11
157.550625
21
124.707104
0
LINE
8
Layer 1
10
157.550625
20
124.707104
11
158.608955
21
119.662374
0
LINE
8
Layer 1
10
158.608955
20
119.662374
11
157.515345
21
120.367930
0
LINE
8
Layer 1
10
157.515345
20
120.367930
11
156.633401
21
120.879458
0
LINE
8
Layer 1
10
156.633401
20
120.879458
11
156.294956
21
120.893790
0
LINE
8
Layer 1
10
156.294956
20
120.893790
11
155.963125
21
120.755986
0
LINE
8
Layer 1
10
155.963125
20
120.755986
11
155.580581
21
120.319975
0
LINE
8
Layer 1
10
155.580581
20
120.319975
11
155.654444
21
119.225811
0
LINE
8
Layer 1
10
155.654444
20
119.225811
11
157.832845
21
111.901256
0
LINE
8
Layer 1
10
157.832845
20
111.901256
11
159.340970
21
106.869756
0
LINE
8
Layer 1
10
159.340970
20
106.869756
11
159.843675
21
104.775136
0
LINE
8
Layer 1
10
159.843675
20
104.775136
11
157.797565
21
106.009856
0
LINE
8
Layer 1
10
157.797565
20
106.009856
11
155.826417
21
107.151975
0
LINE
8
Layer 1
10
155.826417
20
107.151975
11
155.351821
21
107.175677
0
LINE
8
Layer 1
10
155.351821
20
107.175677
11
155.045895
21
106.891801
0
LINE
8
Layer 1
10
155.045895
20
106.891801
11
155.059124
21
104.603155
0
LINE
8
Layer 1
10
155.059124
20
104.603155
11
155.363395
21
99.589301
0
LINE
8
Layer 1
10
155.363395
20
99.589301
11
156.509923
21
82.969049
0
LINE
8
Layer 1
10
156.509923
20
82.969049
11
157.656455
21
64.205701
0
LINE
8
Layer 1
10
157.656455
20
64.205701
11
157.973955
21
58.737641
0
LINE
8
Layer 1
10
157.973955
20
58.737641
11
152.964505
21
53.904581
0
LINE
8
Layer 1
10
152.964505
20
53.904581
11
147.990335
21
49.106801
0
LINE
8
Layer 1
10
147.990335
20
49.106801
11
146.332275
21
55.668471
0
LINE
8
Layer 1
10
146.332275
20
55.668471
11
144.638945
21
62.547641
0
LINE
8
Layer 1
10
144.638945
20
62.547641
11
145.609085
21
62.724030
0
LINE
8
Layer 1
10
145.609085
20
62.724030
11
147.955055
21
62.794586
0
LINE
8
Layer 1
10
147.955055
20
62.794586
11
150.367178
21
62.882780
0
LINE
8
Layer 1
10
150.367178
20
62.882780
11
151.482835
21
63.076808
0
LINE
8
Layer 1
10
151.482835
20
63.076808
11
151.712141
21
94.729821
0
LINE
8
Layer 1
10
151.712141
20
94.729821
11
151.729780
21
127.282408
0
LINE
8
Layer 1
10
151.729780
20
127.282408
11
151.481734
21
127.631879
0
LINE
8
Layer 1
10
151.481734
20
127.631879
11
150.988948
21
127.696922
0
LINE
8
Layer 1
10
150.988948
20
127.696922
11
150.469703
21
127.510611
0
LINE
8
Layer 1
10
150.469703
20
127.510611
11
150.142280
21
127.106019
0
LINE
8
Layer 1
10
150.142280
20
127.106019
11
150.036447
21
118.268940
0
LINE
8
Layer 1
10
150.036447
20
118.268940
11
150.036447
21
97.896019
0
LINE
8
Layer 1
10
150.036447
20
97.896019
11
150.001169
21
66.957419
0
LINE
8
Layer 1
10
150.001169
20
66.957419
11
149.860058
21
64.558529
0
LINE
8
Layer 1
10
149.860058
20
64.558529
11
147.108388
21
64.558529
0
LINE
8
Layer 1
10
147.108388
20
64.558529
11
144.321438
21
64.558529
0
LINE
8
Layer 1
10
144.321438
20
64.558529
11
143.792271
21
66.463529
0
LINE
8
Layer 1
10
143.792271
20
66.463529
11
143.498404
21
67.947885
0
LINE
8
Layer 1
10
143.498404
20
67.947885
11
143.333108
21
70.010606
0
LINE
8
Layer 1
10
143.333108
20
70.010606
11
143.399805
21
76.134064
0
LINE
8
Layer 1
10
143.399805
20
76.134064
11
144.015513
21
85.359755
0
LINE
8
Layer 1
10
144.015513
20
85.359755
11
145.203381
21
98.213529
0
LINE
8
Layer 1
10
145.203381
20
98.213529
11
145.742470
21
103.922474
0
LINE
8
Layer 1
10
145.742470
20
103.922474
11
145.838382
21
106.896292
0
LINE
8
Layer 1
10
145.838382
20
106.896292
11
145.701542
21
107.594202
0
LINE
8
Layer 1
10
145.701542
20
107.594202
11
145.431584
21
107.892340
0
LINE
8
Layer 1
10
145.431584
20
107.892340
11
145.021067
21
107.885376
0
LINE
8
Layer 1
10
145.021067
20
107.885376
11
144.462547
21
107.667979
0
LINE
8
Layer 1
10
144.462547
20
107.667979
11
143.580602
21
107.350479
0
LINE
8
Layer 1
10
143.580602
20
107.350479
11
145.520882
21
115.182149
0
LINE
8
Layer 1
10
145.520882
20
115.182149
11
146.870257
21
120.756044
0
LINE
8
Layer 1
10
146.870257
20
120.756044
11
147.320052
21
123.366599
0
LINE
8
Layer 1
10
147.320052
20
123.366599
11
147.096810
21
123.572202
0
LINE
8
Layer 1
10
147.096810
20
123.572202
11
146.618906
21
123.714967
0
LINE
8
Layer 1
10
146.618906
20
123.714967
11
144.780052
21
123.825210
0
LINE
8
Layer 1
10
144.780052
20
123.825210
11
143.170502
21
123.917814
0
LINE
8
Layer 1
10
143.170502
20
123.917814
11
142.592832
21
124.142710
0
LINE
8
Layer 1
10
142.592832
20
124.142710
11
144.081665
21
126.349226
0
LINE
8
Layer 1
10
144.081665
20
126.349226
11
147.095160
21
130.259002
0
LINE
8
Layer 1
10
147.095160
20
130.259002
11
150.168186
21
134.029882
0
LINE
8
Layer 1
10
150.168186
20
134.029882
11
151.835612
21
135.819710
0
LINE
8
Layer 1
10
151.835612
20
135.819710
11
152.730787
21
136.022557
0
LINE
8
Layer 1
10
152.730787
20
136.022557
11
153.811172
21
136.066655
0
LINE
8
Layer 1
10
153.811172
20
136.066655
11
155.045892
21
135.960822
0
LINE
8
Layer 1
10
155.045892
20
135.960822
11
155.716170
21
132.821102
0
LINE
8
Layer 1
10
155.716170
20
132.821102
11
155.716175
21
132.820994
0
LINE
8
Layer 1
10
199.072575
20
135.925444
11
199.260402
21
135.631508
0
LINE
8
Layer 1
10
199.260402
20
135.631508
11
199.404407
21
134.460313
0
LINE
8
Layer 1
10
199.404407
20
134.460313
11
199.584103
21
127.114811
0
LINE
8
Layer 1
10
199.584103
20
127.114811
11
199.672298
21
75.812044
0
LINE
8
Layer 1
10
199.672298
20
75.812044
11
199.672298
21
15.875044
0
LINE
8
Layer 1
10
199.672298
20
15.875044
11
134.761098
21
15.875044
0
LINE
8
Layer 1
10
134.761098
20
15.875044
11
69.849898
21
15.875044
0
LINE
8
Layer 1
10
69.849898
20
15.875044
11
69.849898
21
48.648144
0
LINE
8
Layer 1
10
69.849898
20
48.648144
11
69.849898
21
81.456544
0
LINE
8
Layer 1
10
69.849898
20
81.456544
11
71.507958
21
81.562377
0
LINE
8
Layer 1
10
71.507958
20
81.562377
11
72.817643
21
81.760815
0
LINE
8
Layer 1
10
72.817643
20
81.760815
11
73.110338
21
81.944369
0
LINE
8
Layer 1
10
73.110338
20
81.944369
11
73.201288
21
82.197377
0
LINE
8
Layer 1
10
73.201288
20
82.197377
11
73.110889
21
82.450385
0
LINE
8
Layer 1
10
73.110889
20
82.450385
11
72.822051
21
82.633940
0
LINE
8
Layer 1
10
72.822051
20
82.633940
11
71.543228
21
82.832377
0
LINE
8
Layer 1
10
71.543228
20
82.832377
11
69.849898
21
82.938210
0
LINE
8
Layer 1
10
69.849898
20
82.938210
11
69.849898
21
86.077930
0
LINE
8
Layer 1
10
69.849898
20
86.077930
11
69.849898
21
89.217650
0
LINE
8
Layer 1
10
69.849898
20
89.217650
11
71.190458
21
89.323483
0
LINE
8
Layer 1
10
71.190458
20
89.323483
11
72.202491
21
89.561608
0
LINE
8
Layer 1
10
72.202491
20
89.561608
11
72.539836
21
89.958483
0
LINE
8
Layer 1
10
72.539836
20
89.958483
11
72.202491
21
90.355358
0
LINE
8
Layer 1
10
72.202491
20
90.355358
11
71.190458
21
90.593483
0
LINE
8
Layer 1
10
71.190458
20
90.593483
11
69.849898
21
90.699316
0
LINE
8
Layer 1
10
69.849898
20
90.699316
11
69.849898
21
98.107656
0
LINE
8
Layer 1
10
69.849898
20
98.107656
11
69.849898
21
105.480716
0
LINE
8
Layer 1
10
69.849898
20
105.480716
11
76.693788
21
105.480716
0
LINE
8
Layer 1
10
76.693788
20
105.480716
11
83.537678
21
105.480716
0
LINE
8
Layer 1
10
83.537678
20
105.480716
11
81.456288
21
100.471266
0
LINE
8
Layer 1
10
81.456288
20
100.471266
11
79.374898
21
94.967926
0
LINE
8
Layer 1
10
79.374898
20
94.967926
11
79.564516
21
94.471281
0
LINE
8
Layer 1
10
79.564516
20
94.471281
11
80.098092
21
94.354974
0
LINE
8
Layer 1
10
80.098092
20
94.354974
11
80.922711
21
94.615699
0
LINE
8
Layer 1
10
80.922711
20
94.615699
11
81.985458
21
95.250148
0
LINE
8
Layer 1
10
81.985458
20
95.250148
11
83.608238
21
96.343758
0
LINE
8
Layer 1
10
83.608238
20
96.343758
11
83.608238
21
93.944868
0
LINE
8
Layer 1
10
83.608238
20
93.944868
11
83.220182
21
73.801268
0
LINE
8
Layer 1
10
83.220182
20
73.801268
11
82.986467
21
59.588718
0
LINE
8
Layer 1
10
82.986467
20
59.588718
11
83.056471
21
56.621534
0
LINE
8
Layer 1
10
83.056471
20
56.621534
11
83.255460
21
55.562668
0
LINE
8
Layer 1
10
83.255460
20
55.562668
11
84.005112
21
55.179022
0
LINE
8
Layer 1
10
84.005112
20
55.179022
11
85.231020
21
55.033501
0
LINE
8
Layer 1
10
85.231020
20
55.033501
11
86.324630
21
54.984994
0
LINE
8
Layer 1
10
86.324630
20
54.984994
11
86.783240
21
54.857112
0
LINE
8
Layer 1
10
86.783240
20
54.857112
11
84.948790
21
50.976552
0
LINE
8
Layer 1
10
84.948790
20
50.976552
11
83.775802
21
48.436001
0
LINE
8
Layer 1
10
83.775802
20
48.436001
11
83.505156
21
47.616137
0
LINE
8
Layer 1
10
83.505156
20
47.616137
11
83.449483
21
47.056308
0
LINE
8
Layer 1
10
83.449483
20
47.056308
11
83.612092
21
46.726336
0
LINE
8
Layer 1
10
83.612092
20
46.726336
11
83.996290
21
46.596042
0
LINE
8
Layer 1
10
83.996290
20
46.596042
11
85.442679
21
46.813772
0
LINE
8
Layer 1
10
85.442679
20
46.813772
11
87.559349
21
47.448772
0
LINE
8
Layer 1
10
87.559349
20
47.448772
11
87.660015
21
47.411703
0
LINE
8
Layer 1
10
87.660015
20
47.411703
11
87.643685
21
47.165447
0
LINE
8
Layer 1
10
87.643685
20
47.165447
11
87.255078
21
46.028839
0
LINE
8
Layer 1
10
87.255078
20
46.028839
11
85.019349
21
41.063492
0
LINE
8
Layer 1
10
85.019349
20
41.063492
11
82.770390
21
36.234845
0
LINE
8
Layer 1
10
82.770390
20
36.234845
11
81.844349
21
33.972652
0
LINE
8
Layer 1
10
81.844349
20
33.972652
11
81.916627
21
33.669414
0
LINE
8
Layer 1
10
81.916627
20
33.669414
11
82.144762
21
33.418680
0
LINE
8
Layer 1
10
82.144762
20
33.418680
11
83.136399
21
33.059838
0
LINE
8
Layer 1
10
83.136399
20
33.059838
11
84.954858
21
32.866360
0
LINE
8
Layer 1
10
84.954858
20
32.866360
11
87.735739
21
32.808482
0
LINE
8
Layer 1
10
87.735739
20
32.808482
11
92.251299
21
32.808482
0
LINE
8
Layer 1
10
92.251299
20
32.808482
11
92.145466
21
28.998482
0
LINE
8
Layer 1
10
92.145466
20
28.998482
11
92.163105
21
25.801431
0
LINE
8
Layer 1
10
92.163105
20
25.801431
11
92.324060
21
25.084299
0
LINE
8
Layer 1
10
92.324060
20
25.084299
11
92.604077
21
24.694592
0
LINE
8
Layer 1
10
92.604077
20
24.694592
11
92.966844
21
24.452539
0
LINE
8
Layer 1
10
92.966844
20
24.452539
11
93.263880
21
24.398589
0
LINE
8
Layer 1
10
93.263880
20
24.398589
11
93.498904
21
24.548865
0
LINE
8
Layer 1
10
93.498904
20
24.548865
11
93.675637
21
24.919488
0
LINE
8
Layer 1
10
93.675637
20
24.919488
11
93.869114
21
26.386274
0
LINE
8
Layer 1
10
93.869114
20
26.386274
11
93.874077
21
28.927932
0
LINE
8
Layer 1
10
93.874077
20
28.927932
11
93.768244
21
32.808492
0
LINE
8
Layer 1
10
93.768244
20
32.808492
11
98.354354
21
32.808492
0
LINE
8
Layer 1
10
98.354354
20
32.808492
11
101.405331
21
32.840462
0
LINE
8
Layer 1
10
101.405331
20
32.840462
11
103.130084
21
32.984881
0
LINE
8
Layer 1
10
103.130084
20
32.984881
11
103.895721
21
33.314507
0
LINE
8
Layer 1
10
103.895721
20
33.314507
11
104.069354
21
33.902102
0
LINE
8
Layer 1
10
104.069354
20
33.902102
11
102.340744
21
41.557382
0
LINE
8
Layer 1
10
102.340744
20
41.557382
11
97.856055
21
60.016520
0
LINE
8
Layer 1
10
97.856055
20
60.016520
11
97.345079
21
63.087899
0
LINE
8
Layer 1
10
97.345079
20
63.087899
11
97.387867
21
63.732273
0
LINE
8
Layer 1
10
97.387867
20
63.732273
11
97.578244
21
64.029382
0
LINE
8
Layer 1
10
97.578244
20
64.029382
11
97.903461
21
64.550281
0
LINE
8
Layer 1
10
97.903461
20
64.550281
11
98.036855
21
66.159279
0
LINE
8
Layer 1
10
98.036855
20
66.159279
11
97.754633
21
76.411882
0
LINE
8
Layer 1
10
97.754633
20
76.411882
11
97.227671
21
88.254209
0
LINE
8
Layer 1
10
97.227671
20
88.254209
11
96.528729
21
97.278720
0
LINE
8
Layer 1
10
96.528729
20
97.278720
11
95.551974
21
104.530512
0
LINE
8
Layer 1
10
95.551974
20
104.530512
11
94.191573
21
111.054682
0
LINE
8
Layer 1
10
94.191573
20
111.054682
11
93.133243
21
115.746632
0
LINE
8
Layer 1
10
93.133243
20
115.746632
11
93.411056
21
115.975938
0
LINE
8
Layer 1
10
93.411056
20
115.975938
11
94.085744
21
115.993577
0
LINE
8
Layer 1
10
94.085744
20
115.993577
11
94.665623
21
115.789076
0
LINE
8
Layer 1
10
94.665623
20
115.789076
11
95.232272
21
115.071945
0
LINE
8
Layer 1
10
95.232272
20
115.071945
11
97.225464
21
110.525517
0
LINE
8
Layer 1
10
97.225464
20
110.525517
11
99.412684
21
105.198567
0
LINE
8
Layer 1
10
99.412684
20
105.198567
11
98.248514
21
105.868845
0
LINE
8
Layer 1
10
98.248514
20
105.868845
11
97.094821
21
106.357224
0
LINE
8
Layer 1
10
97.094821
20
106.357224
11
96.780697
21
106.254560
0
LINE
8
Layer 1
10
96.780697
20
106.254560
11
96.638965
21
105.886486
0
LINE
8
Layer 1
10
96.638965
20
105.886486
11
96.864411
21
104.251580
0
LINE
8
Layer 1
10
96.864411
20
104.251580
11
97.754625
21
101.247455
0
LINE
8
Layer 1
10
97.754625
20
101.247455
11
98.645939
21
98.292941
0
LINE
8
Layer 1
10
98.645939
20
98.292941
11
99.037853
21
96.476135
0
LINE
8
Layer 1
10
99.037853
20
96.476135
11
98.999820
21
95.254642
0
LINE
8
Layer 1
10
98.999820
20
95.254642
11
98.601292
21
94.086065
0
LINE
8
Layer 1
10
98.601292
20
94.086065
11
98.236938
21
92.998515
0
LINE
8
Layer 1
10
98.236938
20
92.998515
11
98.094174
21
92.026721
0
LINE
8
Layer 1
10
98.094174
20
92.026721
11
98.169690
21
91.273209
0
LINE
8
Layer 1
10
98.169690
20
91.273209
11
98.460181
21
90.840505
0
LINE
8
Layer 1
10
98.460181
20
90.840505
11
99.231884
21
91.034533
0
LINE
8
Layer 1
10
99.231884
20
91.034533
11
100.612131
21
91.863565
0
LINE
8
Layer 1
10
100.612131
20
91.863565
11
102.517131
21
93.027735
0
LINE
8
Layer 1
10
102.517131
20
93.027735
11
102.270186
21
79.269435
0
LINE
8
Layer 1
10
102.270186
20
79.269435
11
102.062929
21
68.364173
0
LINE
8
Layer 1
10
102.062929
20
68.364173
11
102.126319
21
65.969137
0
LINE
8
Layer 1
10
102.126319
20
65.969137
11
102.305464
21
65.052435
0
LINE
8
Layer 1
10
102.305464
20
65.052435
11
102.750847
21
64.811554
0
LINE
8
Layer 1
10
102.750847
20
64.811554
11
103.672480
21
64.659970
0
LINE
8
Layer 1
10
103.672480
20
64.659970
11
107.632414
21
64.558546
0
LINE
8
Layer 1
10
107.632414
20
64.558546
11
112.536024
21
64.487990
0
LINE
8
Layer 1
10
112.536024
20
64.487990
11
110.772134
21
58.914100
0
LINE
8
Layer 1
10
110.772134
20
58.914100
11
109.427165
21
54.319167
0
LINE
8
Layer 1
10
109.427165
20
54.319167
11
109.338421
21
53.397535
0
LINE
8
Layer 1
10
109.338421
20
53.397535
11
109.537414
21
52.952150
0
LINE
8
Layer 1
10
109.537414
20
52.952150
11
110.128317
21
52.625830
0
LINE
8
Layer 1
10
110.128317
20
52.625830
11
110.983804
21
52.881595
0
LINE
8
Layer 1
10
110.983804
20
52.881595
11
111.729047
21
53.119720
0
LINE
8
Layer 1
10
111.729047
20
53.119720
11
111.654082
21
52.669928
0
LINE
8
Layer 1
10
111.654082
20
52.669928
11
107.367826
21
40.022840
0
LINE
8
Layer 1
10
107.367826
20
40.022840
11
103.716572
21
28.751628
0
LINE
8
Layer 1
10
103.716572
20
28.751628
11
103.834532
21
28.287504
0
LINE
8
Layer 1
10
103.834532
20
28.287504
11
104.131086
21
28.028431
0
LINE
8
Layer 1
10
104.131086
20
28.028431
11
104.520246
21
28.007485
0
LINE
8
Layer 1
10
104.520246
20
28.007485
11
104.916022
21
28.257739
0
LINE
8
Layer 1
10
104.916022
20
28.257739
11
105.277619
21
28.802341
0
LINE
8
Layer 1
10
105.277619
20
28.802341
11
105.983175
21
30.603718
0
LINE
8
Layer 1
10
105.983175
20
30.603718
11
110.595752
21
44.062239
0
LINE
8
Layer 1
10
110.595752
20
44.062239
11
112.897628
21
50.918256
0
LINE
8
Layer 1
10
112.897628
20
50.918256
11
113.876585
21
54.486826
0
LINE
8
Layer 1
10
113.876585
20
54.486826
11
113.919580
21
55.329773
0
LINE
8
Layer 1
10
113.919580
20
55.329773
11
113.691376
21
55.700603
0
LINE
8
Layer 1
10
113.691376
20
55.700603
11
113.211819
21
55.715898
0
LINE
8
Layer 1
10
113.211819
20
55.715898
11
112.500752
21
55.492239
0
LINE
8
Layer 1
10
112.500752
20
55.492239
11
111.605578
21
55.236475
0
LINE
8
Layer 1
10
111.605578
20
55.236475
11
111.513525
21
55.363254
0
LINE
8
Layer 1
10
111.513525
20
55.363254
11
111.583529
21
55.668628
0
LINE
8
Layer 1
10
111.583529
20
55.668628
11
114.405749
21
64.558638
0
LINE
8
Layer 1
10
114.405749
20
64.558638
11
117.651309
21
75.071438
0
LINE
8
Layer 1
10
117.651309
20
75.071438
11
118.171656
21
76.557514
0
LINE
8
Layer 1
10
118.171656
20
76.557514
11
118.533254
21
77.011718
0
LINE
8
Layer 1
10
118.533254
20
77.011718
11
122.978254
21
64.205918
0
LINE
8
Layer 1
10
122.978254
20
64.205918
11
128.128814
21
49.071718
0
LINE
8
Layer 1
10
128.128814
20
49.071718
11
129.010759
21
46.390608
0
LINE
8
Layer 1
10
129.010759
20
46.390608
11
125.469749
21
46.712518
0
LINE
8
Layer 1
10
125.469749
20
46.712518
11
121.955199
21
47.272553
0
LINE
8
Layer 1
10
121.955199
20
47.272553
11
121.179087
21
56.268393
0
LINE
8
Layer 1
10
121.179087
20
56.268393
11
120.777250
21
61.544078
0
LINE
8
Layer 1
10
120.777250
20
61.544078
11
120.398565
21
64.501352
0
LINE
8
Layer 1
10
120.398565
20
64.501352
11
120.183798
21
65.279049
0
LINE
8
Layer 1
10
120.183798
20
65.279049
11
119.933891
21
65.679300
0
LINE
8
Layer 1
10
119.933891
20
65.679300
11
119.635201
21
65.769493
0
LINE
8
Layer 1
10
119.635201
20
65.769493
11
119.274087
21
65.617013
0
LINE
8
Layer 1
10
119.274087
20
65.617013
11
119.022732
21
65.144621
0
LINE
8
Layer 1
10
119.022732
20
65.144621
11
118.956586
21
63.742881
0
LINE
8
Layer 1
10
118.956586
20
63.742881
11
119.379920
21
56.021453
0
LINE
8
Layer 1
10
119.379920
20
56.021453
11
120.614642
21
41.240065
0
LINE
8
Layer 1
10
120.614642
20
41.240065
11
122.166870
21
26.352853
0
LINE
8
Layer 1
10
122.166870
20
26.352853
11
122.307981
21
25.400352
0
LINE
8
Layer 1
10
122.307981
20
25.400352
11
118.991871
21
25.400352
0
LINE
8
Layer 1
10
118.991871
20
25.400352
11
115.711031
21
25.400352
0
LINE
8
Layer 1
10
115.711031
20
25.400352
11
115.711031
21
26.564522
0
LINE
8
Layer 1
10
115.711031
20
26.564522
11
116.381309
21
34.607862
0
LINE
8
Layer 1
10
116.381309
20
34.607862
11
117.395544
21
45.720362
0
LINE
8
Layer 1
10
117.395544
20
45.720362
11
117.343730
21
47.387243
0
LINE
8
Layer 1
10
117.343730
20
47.387243
11
117.198348
21
47.699792
0
LINE
8
Layer 1
10
117.198348
20
47.699792
11
116.981032
21
47.837062
0
LINE
8
Layer 1
10
116.981032
20
47.837062
11
116.456274
21
47.920846
0
LINE
8
Layer 1
10
116.456274
20
47.920846
11
116.063809
21
47.766506
0
LINE
8
Layer 1
10
116.063809
20
47.766506
11
115.570471
21
44.296051
0
LINE
8
Layer 1
10
115.570471
20
44.296051
11
114.842316
21
36.909760
0
LINE
8
Layer 1
10
114.842316
20
36.909760
11
114.213379
21
29.272117
0
LINE
8
Layer 1
10
114.213379
20
29.272117
11
114.017699
21
25.047606
0
LINE
8
Layer 1
10
114.017699
20
25.047606
11
114.123532
21
23.812886
0
LINE
8
Layer 1
10
114.123532
20
23.812886
11
118.744922
21
23.707053
0
LINE
8
Layer 1
10
118.744922
20
23.707053
11
122.479962
21
23.742331
0
LINE
8
Layer 1
10
122.479962
20
23.742331
11
123.353639
21
23.875725
0
LINE
8
Layer 1
10
123.353639
20
23.875725
11
123.754372
21
24.095109
0
LINE
8
Layer 1
10
123.754372
20
24.095109
11
123.898239
21
24.803422
0
LINE
8
Layer 1
10
123.898239
20
24.803422
11
123.846976
21
26.560151
0
LINE
8
Layer 1
10
123.846976
20
26.560151
11
123.119372
21
34.184609
0
LINE
8
Layer 1
10
123.119372
20
34.184609
11
122.061042
21
44.521009
0
LINE
8
Layer 1
10
122.061042
20
44.521009
11
122.127187
21
44.930011
0
LINE
8
Layer 1
10
122.127187
20
44.930011
11
122.510834
21
45.120732
0
LINE
8
Layer 1
10
122.510834
20
45.120732
11
125.341882
21
44.979620
0
LINE
8
Layer 1
10
125.341882
20
44.979620
11
128.600117
21
44.710076
0
LINE
8
Layer 1
10
128.600117
20
44.710076
11
130.294002
21
44.675349
0
LINE
8
Layer 1
10
130.294002
20
44.675349
11
130.710376
21
44.761546
0
LINE
8
Layer 1
10
130.710376
20
44.761546
11
130.922939
21
44.925050
0
LINE
8
Layer 1
10
130.922939
20
44.925050
11
130.986332
21
45.508787
0
LINE
8
Layer 1
10
130.986332
20
45.508787
11
129.141416
21
51.513728
0
LINE
8
Layer 1
10
129.141416
20
51.513728
11
125.116998
21
63.623926
0
LINE
8
Layer 1
10
125.116998
20
63.623926
11
121.019822
21
75.601830
0
LINE
8
Layer 1
10
121.019822
20
75.601830
11
118.956632
21
81.209887
0
LINE
8
Layer 1
10
118.956632
20
81.209887
11
118.586215
21
81.398954
0
LINE
8
Layer 1
10
118.586215
20
81.398954
11
118.189340
21
81.293672
0
LINE
8
Layer 1
10
118.189340
20
81.293672
11
117.805693
21
80.917192
0
LINE
8
Layer 1
10
117.805693
20
80.917192
11
117.474962
21
80.292664
0
LINE
8
Layer 1
10
117.474962
20
80.292664
11
117.336055
21
80.199509
0
LINE
8
Layer 1
10
117.336055
20
80.199509
11
117.236836
21
80.658672
0
LINE
8
Layer 1
10
117.236836
20
80.658672
11
117.157462
21
83.220724
0
LINE
8
Layer 1
10
117.157462
20
83.220724
11
117.122184
21
86.854334
0
LINE
8
Layer 1
10
117.122184
20
86.854334
11
118.109962
21
86.607389
0
LINE
8
Layer 1
10
118.109962
20
86.607389
11
119.803292
21
86.219333
0
LINE
8
Layer 1
10
119.803292
20
86.219333
11
120.433883
21
86.232563
0
LINE
8
Layer 1
10
120.433883
20
86.232563
11
120.932182
21
86.536833
0
LINE
8
Layer 1
10
120.932182
20
86.536833
11
121.054000
21
86.971743
0
LINE
8
Layer 1
10
121.054000
20
86.971743
11
120.848397
21
87.767147
0
LINE
8
Layer 1
10
120.848397
20
87.767147
11
119.203572
21
91.193503
0
LINE
8
Layer 1
10
119.203572
20
91.193503
11
117.901052
21
93.757758
0
LINE
8
Layer 1
10
117.901052
20
93.757758
11
117.514651
21
94.959408
0
LINE
8
Layer 1
10
117.514651
20
94.959408
11
117.678430
21
95.131939
0
LINE
8
Layer 1
10
117.678430
20
95.131939
11
118.087363
21
95.063036
0
LINE
8
Layer 1
10
118.087363
20
95.063036
11
119.662183
21
94.333223
0
LINE
8
Layer 1
10
119.662183
20
94.333223
11
120.541373
21
93.975484
0
LINE
8
Layer 1
10
120.541373
20
93.975484
11
121.324650
21
93.852563
0
LINE
8
Layer 1
10
121.324650
20
93.852563
11
121.929333
21
93.961153
0
LINE
8
Layer 1
10
121.929333
20
93.961153
11
122.272743
21
94.297945
0
LINE
8
Layer 1
10
122.272743
20
94.297945
11
121.809721
21
95.682599
0
LINE
8
Layer 1
10
121.809721
20
95.682599
11
120.473573
21
98.390165
0
LINE
8
Layer 1
10
120.473573
20
98.390165
11
118.533293
21
102.023775
0
LINE
8
Layer 1
10
118.533293
20
102.023775
11
119.803293
21
106.786275
0
LINE
8
Layer 1
10
119.803293
20
106.786275
11
120.733746
21
110.591870
0
LINE
8
Layer 1
10
120.733746
20
110.591870
11
120.820288
21
111.504132
0
LINE
8
Layer 1
10
120.820288
20
111.504132
11
120.685238
21
111.936835
0
LINE
8
Layer 1
10
120.685238
20
111.936835
11
120.217807
21
112.170551
0
LINE
8
Layer 1
10
120.217807
20
112.170551
11
119.591628
21
111.901558
0
LINE
8
Layer 1
10
119.591628
20
111.901558
11
118.886072
21
111.619336
0
LINE
8
Layer 1
10
118.886072
20
111.619336
11
122.202182
21
127.600136
0
LINE
8
Layer 1
10
122.202182
20
127.600136
11
123.238466
21
125.289439
0
LINE
8
Layer 1
10
123.238466
20
125.289439
11
125.518292
21
119.592076
0
LINE
8
Layer 1
10
125.518292
20
119.592076
11
125.571208
21
119.243708
0
LINE
8
Layer 1
10
125.571208
20
119.243708
11
125.094958
21
119.556798
0
LINE
8
Layer 1
10
125.094958
20
119.556798
11
124.638139
21
119.864101
0
LINE
8
Layer 1
10
124.638139
20
119.864101
11
124.291287
21
119.839020
0
LINE
8
Layer 1
10
124.291287
20
119.839020
11
124.042000
21
119.331074
0
LINE
8
Layer 1
10
124.042000
20
119.331074
11
123.877875
21
118.189782
0
LINE
8
Layer 1
10
123.877875
20
118.189782
11
123.755505
21
113.405226
0
LINE
8
Layer 1
10
123.755505
20
113.405226
11
123.824958
21
104.281498
0
LINE
8
Layer 1
10
123.824958
20
104.281498
11
124.071902
21
91.643210
0
LINE
8
Layer 1
10
124.071902
20
91.643210
11
124.281364
21
89.686381
0
LINE
8
Layer 1
10
124.281364
20
89.686381
11
124.436531
21
89.297903
0
LINE
8
Layer 1
10
124.436531
20
89.297903
11
124.636347
21
89.111998
0
LINE
8
Layer 1
10
124.636347
20
89.111998
11
125.023300
21
88.969233
0
LINE
8
Layer 1
10
125.023300
20
88.969233
11
125.403639
21
89.054672
0
LINE
8
Layer 1
10
125.403639
20
89.054672
11
126.541347
21
90.135058
0
LINE
8
Layer 1
10
126.541347
20
90.135058
11
127.776067
21
91.546168
0
LINE
8
Layer 1
10
127.776067
20
91.546168
11
127.493845
21
79.728068
0
LINE
8
Layer 1
10
127.493845
20
79.728068
11
127.220442
21
65.528780
0
LINE
8
Layer 1
10
127.220442
20
65.528780
11
127.292651
21
64.521426
0
LINE
8
Layer 1
10
127.292651
20
64.521426
11
127.434313
21
64.071344
0
LINE
8
Layer 1
10
127.434313
20
64.071344
11
127.652044
21
63.948677
0
LINE
8
Layer 1
10
127.652044
20
63.948677
11
127.952456
21
63.923568
0
LINE
8
Layer 1
10
127.952456
20
63.923568
11
128.369175
21
63.938451
0
LINE
8
Layer 1
10
128.369175
20
63.938451
11
128.613915
21
64.307214
0
LINE
8
Layer 1
10
128.613915
20
64.307214
11
128.904957
21
67.098568
0
LINE
8
Layer 1
10
128.904957
20
67.098568
11
129.328291
21
79.904368
0
LINE
8
Layer 1
10
129.328291
20
79.904368
11
129.698708
21
93.517180
0
LINE
8
Layer 1
10
129.698708
20
93.517180
11
129.903760
21
96.250660
0
LINE
8
Layer 1
10
129.903760
20
96.250660
11
130.174958
21
97.366868
0
LINE
8
Layer 1
10
130.174958
20
97.366868
11
131.059659
21
99.415183
0
LINE
8
Layer 1
10
131.059659
20
99.415183
11
132.093189
21
102.296939
0
LINE
8
Layer 1
10
132.093189
20
102.296939
11
132.908438
21
104.927342
0
LINE
8
Layer 1
10
132.908438
20
104.927342
11
133.138298
21
106.221598
0
LINE
8
Layer 1
10
133.138298
20
106.221598
11
132.639447
21
106.464133
0
LINE
8
Layer 1
10
132.639447
20
106.464133
11
131.713955
21
106.415626
0
LINE
8
Layer 1
10
131.713955
20
106.415626
11
130.504037
21
106.102535
0
LINE
8
Layer 1
10
130.504037
20
106.102535
11
129.151908
21
105.551320
0
LINE
8
Layer 1
10
129.151908
20
105.551320
11
128.137671
21
105.101528
0
LINE
8
Layer 1
10
128.137671
20
105.101528
11
127.705518
21
105.022153
0
LINE
8
Layer 1
10
127.705518
20
105.022153
11
130.139688
21
111.971883
0
LINE
8
Layer 1
10
130.139688
20
111.971883
11
132.820798
21
119.556613
0
LINE
8
Layer 1
10
132.820798
20
119.556613
11
133.085381
21
120.032863
0
LINE
8
Layer 1
10
133.085381
20
120.032863
11
133.349965
21
120.085780
0
LINE
8
Layer 1
10
133.349965
20
120.085780
11
134.664064
21
116.593278
0
LINE
8
Layer 1
10
134.664064
20
116.593278
11
137.406915
21
108.655780
0
LINE
8
Layer 1
10
137.406915
20
108.655780
11
141.287475
21
97.119980
0
LINE
8
Layer 1
10
141.287475
20
97.119980
11
141.313382
21
96.773817
0
LINE
8
Layer 1
10
141.313382
20
96.773817
11
141.124315
21
96.679007
0
LINE
8
Layer 1
10
141.124315
20
96.679007
11
140.796342
21
96.822323
0
LINE
8
Layer 1
10
140.796342
20
96.822323
11
140.405530
21
97.190535
0
LINE
8
Layer 1
10
140.405530
20
97.190535
11
139.948573
21
97.568118
0
LINE
8
Layer 1
10
139.948573
20
97.568118
11
139.475079
21
97.697654
0
LINE
8
Layer 1
10
139.475079
20
97.697654
11
139.061116
21
97.582450
0
LINE
8
Layer 1
10
139.061116
20
97.582450
11
138.782750
21
97.225813
0
LINE
8
Layer 1
10
138.782750
20
97.225813
11
138.786608
21
96.132753
0
LINE
8
Layer 1
10
138.786608
20
96.132753
11
139.078202
21
93.376128
0
LINE
8
Layer 1
10
139.078202
20
93.376128
11
140.617200
21
82.197513
0
LINE
8
Layer 1
10
140.617200
20
82.197513
11
141.287478
21
77.258623
0
LINE
8
Layer 1
10
141.287478
20
77.258623
11
141.463867
21
76.023903
0
LINE
8
Layer 1
10
141.463867
20
76.023903
11
141.005256
21
77.258623
0
LINE
8
Layer 1
10
141.005256
20
77.258623
11
140.427581
21
78.233171
0
LINE
8
Layer 1
10
140.427581
20
78.233171
11
140.087480
21
78.434364
0
LINE
8
Layer 1
10
140.087480
20
78.434364
11
139.664696
21
78.493343
0
LINE
8
Layer 1
10
139.664696
20
78.493343
11
139.164743
21
78.356090
0
LINE
8
Layer 1
10
139.164743
20
78.356090
11
138.760702
21
77.554072
0
LINE
8
Layer 1
10
138.760702
20
77.554072
11
137.512746
21
71.614173
0
LINE
8
Layer 1
10
137.512746
20
71.614173
11
136.207466
21
64.664443
0
LINE
8
Layer 1
10
136.207466
20
64.664443
11
135.819410
21
64.558610
0
LINE
8
Layer 1
10
135.819410
20
64.558610
11
135.660108
21
65.969171
0
LINE
8
Layer 1
10
135.660108
20
65.969171
11
135.550416
21
70.154546
0
LINE
8
Layer 1
10
135.550416
20
70.154546
11
135.466632
21
86.571910
0
LINE
8
Layer 1
10
135.466632
20
86.571910
11
135.382847
21
103.245085
0
LINE
8
Layer 1
10
135.382847
20
103.245085
11
135.273155
21
107.392988
0
LINE
8
Layer 1
10
135.273155
20
107.392988
11
135.113854
21
108.832210
0
LINE
8
Layer 1
10
135.113854
20
108.832210
11
134.699339
21
108.876307
0
LINE
8
Layer 1
10
134.699339
20
108.876307
11
134.231909
21
108.655821
0
LINE
8
Layer 1
10
134.231909
20
108.655821
11
134.077500
21
108.351275
0
LINE
8
Layer 1
10
134.077500
20
108.351275
11
133.955750
21
107.628356
0
LINE
8
Layer 1
10
133.955750
20
107.628356
11
133.795346
21
104.325471
0
LINE
8
Layer 1
10
133.795346
20
104.325471
11
133.702742
21
86.078021
0
LINE
8
Layer 1
10
133.702742
20
86.078021
11
133.768888
21
70.260346
0
LINE
8
Layer 1
10
133.768888
20
70.260346
11
133.914409
21
63.359121
0
LINE
8
Layer 1
10
133.914409
20
63.359121
11
134.311284
21
62.957836
0
LINE
8
Layer 1
10
134.311284
20
62.957836
11
134.972739
21
62.794676
0
LINE
8
Layer 1
10
134.972739
20
62.794676
11
135.568051
21
62.724121
0
LINE
8
Layer 1
10
135.568051
20
62.724121
11
135.819406
21
62.547731
0
LINE
8
Layer 1
10
135.819406
20
62.547731
11
134.231906
21
55.033561
0
LINE
8
Layer 1
10
134.231906
20
55.033561
11
130.629162
21
38.444186
0
LINE
8
Layer 1
10
130.629162
20
38.444186
11
129.891083
21
34.624261
0
LINE
8
Layer 1
10
129.891083
20
34.624261
11
129.751626
21
33.231861
0
LINE
8
Layer 1
10
129.751626
20
33.231861
11
130.017312
21
33.046653
0
LINE
8
Layer 1
10
130.017312
20
33.046653
11
130.686488
21
32.914361
0
LINE
8
Layer 1
10
130.686488
20
32.914361
11
133.420516
21
32.808527
0
LINE
8
Layer 1
10
133.420516
20
32.808527
11
136.948296
21
32.808527
0
LINE
8
Layer 1
10
136.948296
20
32.808527
11
136.701351
21
28.645747
0
LINE
8
Layer 1
10
136.701351
20
28.645747
11
136.591108
21
25.157651
0
LINE
8
Layer 1
10
136.591108
20
25.157651
11
136.716233
21
24.493435
0
LINE
8
Layer 1
10
136.716233
20
24.493435
11
136.983573
21
24.236017
0
LINE
8
Layer 1
10
136.983573
20
24.236017
11
137.477462
21
24.222788
0
LINE
8
Layer 1
10
137.477462
20
24.222788
11
137.865518
21
24.447684
0
LINE
8
Layer 1
10
137.865518
20
24.447684
11
138.385866
21
28.848594
0
LINE
8
Layer 1
10
138.385866
20
28.848594
11
139.170798
21
38.805784
0
LINE
8
Layer 1
10
139.170798
20
38.805784
11
140.229128
21
52.846384
0
LINE
8
Layer 1
10
140.229128
20
52.846384
11
140.528989
21
50.914926
0
LINE
8
Layer 1
10
140.528989
20
50.914926
11
141.675518
21
39.511384
0
LINE
8
Layer 1
10
141.675518
20
39.511384
11
142.698578
21
29.739434
0
LINE
8
Layer 1
10
142.698578
20
29.739434
11
143.159188
21
29.549678
0
LINE
8
Layer 1
10
143.159188
20
29.549678
11
144.266787
21
29.405397
0
LINE
8
Layer 1
10
144.266787
20
29.405397
11
147.571325
21
29.263184
0
LINE
8
Layer 1
10
147.571325
20
29.263184
11
150.908935
21
29.332637
0
LINE
8
Layer 1
10
150.908935
20
29.332637
11
152.057873
21
29.452940
0
LINE
8
Layer 1
10
152.057873
20
29.452940
11
152.576358
21
29.633601
0
LINE
8
Layer 1
10
152.576358
20
29.633601
11
151.839934
21
33.430379
0
LINE
8
Layer 1
10
151.839934
20
33.430379
11
150.071638
21
40.322801
0
LINE
8
Layer 1
10
150.071638
20
40.322801
11
150.072189
21
40.639750
0
LINE
8
Layer 1
10
150.072189
20
40.639750
11
150.499381
21
40.821100
0
LINE
8
Layer 1
10
150.499381
20
40.821100
11
153.599418
21
40.922524
0
LINE
8
Layer 1
10
153.599418
20
40.922524
11
156.712684
21
40.821100
0
LINE
8
Layer 1
10
156.712684
20
40.821100
11
157.220907
21
40.639750
0
LINE
8
Layer 1
10
157.220907
20
40.639750
11
157.338868
21
40.322801
0
LINE
8
Layer 1
10
157.338868
20
40.322801
11
156.633312
21
32.350021
0
LINE
8
Layer 1
10
156.633312
20
32.350021
11
156.218798
21
27.027482
0
LINE
8
Layer 1
10
156.218798
20
27.027482
11
156.174701
21
24.483071
0
LINE
8
Layer 1
10
156.174701
20
24.483071
11
156.404558
21
24.228409
0
LINE
8
Layer 1
10
156.404558
20
24.228409
11
156.981681
21
24.086196
0
LINE
8
Layer 1
10
156.981681
20
24.086196
11
159.773041
21
24.059737
0
LINE
8
Layer 1
10
159.773041
20
24.059737
11
163.159711
21
24.165570
0
LINE
8
Layer 1
10
163.159711
20
24.165570
11
163.018600
21
29.598350
0
LINE
8
Layer 1
10
163.018600
20
29.598350
11
162.877489
21
35.031130
0
LINE
8
Layer 1
10
162.877489
20
35.031130
11
166.793329
21
34.819463
0
LINE
8
Layer 1
10
166.793329
20
34.819463
11
170.047708
21
34.753317
0
LINE
8
Layer 1
10
170.047708
20
34.753317
11
170.722396
21
34.883956
0
LINE
8
Layer 1
10
170.722396
20
34.883956
11
171.026669
21
35.136963
0
LINE
8
Layer 1
10
171.026669
20
35.136963
11
171.113761
21
35.940084
0
LINE
8
Layer 1
10
171.113761
20
35.940084
11
170.876738
21
38.042968
0
LINE
8
Layer 1
10
170.876738
20
38.042968
11
168.980559
21
49.071663
0
LINE
8
Layer 1
10
168.980559
20
49.071663
11
167.922229
21
55.174723
0
LINE
8
Layer 1
10
167.922229
20
55.174723
11
168.111847
21
55.320244
0
LINE
8
Layer 1
10
168.111847
20
55.320244
11
168.592507
21
55.386390
0
LINE
8
Layer 1
10
168.592507
20
55.386390
11
169.274359
21
55.552857
0
LINE
8
Layer 1
10
169.274359
20
55.552857
11
169.734626
21
56.056668
0
LINE
8
Layer 1
10
169.734626
20
56.056668
11
169.976610
21
56.904438
0
LINE
8
Layer 1
10
169.976610
20
56.904438
11
170.003617
21
58.102780
0
LINE
8
Layer 1
10
170.003617
20
58.102780
11
169.940778
21
59.159459
0
LINE
8
Layer 1
10
169.940778
20
59.159459
11
169.997416
21
59.463936
0
LINE
8
Layer 1
10
169.997416
20
59.463936
11
170.162368
21
59.650591
0
LINE
8
Layer 1
10
170.162368
20
59.650591
11
170.966042
21
59.764693
0
LINE
8
Layer 1
10
170.966042
20
59.764693
11
172.649457
21
59.690280
0
LINE
8
Layer 1
10
172.649457
20
59.690280
11
173.813627
21
59.619725
0
LINE
8
Layer 1
10
173.813627
20
59.619725
11
172.296677
21
53.375555
0
LINE
8
Layer 1
10
172.296677
20
53.375555
11
170.744457
21
46.355275
0
LINE
8
Layer 1
10
170.744457
20
46.355275
11
170.883914
21
45.617196
0
LINE
8
Layer 1
10
170.883914
20
45.617196
11
171.278034
21
45.160237
0
LINE
8
Layer 1
10
171.278034
20
45.160237
11
171.890435
21
45.000935
0
LINE
8
Layer 1
10
171.890435
20
45.000935
11
172.684737
21
45.155825
0
LINE
8
Layer 1
10
172.684737
20
45.155825
11
173.469668
21
45.354262
0
LINE
8
Layer 1
10
173.469668
20
45.354262
11
173.538019
21
45.160785
0
LINE
8
Layer 1
10
173.538019
20
45.160785
11
173.460849
21
44.732491
0
LINE
8
Layer 1
10
173.460849
20
44.732491
11
171.974771
21
36.746474
0
LINE
8
Layer 1
10
171.974771
20
36.746474
11
171.372292
21
32.791500
0
LINE
8
Layer 1
10
171.372292
20
32.791500
11
171.203069
21
30.903591
0
LINE
8
Layer 1
10
171.203069
20
30.903591
11
171.448360
21
30.621920
0
LINE
8
Layer 1
10
171.448360
20
30.621920
11
172.027687
21
30.449389
0
LINE
8
Layer 1
10
172.027687
20
30.449389
11
174.836679
21
30.339146
0
LINE
8
Layer 1
10
174.836679
20
30.339146
11
178.258629
21
30.339146
0
LINE
8
Layer 1
10
178.258629
20
30.339146
11
178.046962
21
28.257756
0
LINE
8
Layer 1
10
178.046962
20
28.257756
11
177.980265
21
26.671358
0
LINE
8
Layer 1
10
177.980265
20
26.671358
11
178.099672
21
26.160518
0
LINE
8
Layer 1
10
178.099672
20
26.160518
11
178.360052
21
25.805948
0
LINE
8
Layer 1
10
178.360052
20
25.805948
11
178.790758
21
25.583669
0
LINE
8
Layer 1
10
178.790758
20
25.583669
11
179.421142
21
25.469705
0
LINE
8
Layer 1
10
179.421142
20
25.469705
11
181.398352
21
25.470806
0
LINE
8
Layer 1
10
181.398352
20
25.470806
11
183.973632
21
25.576639
0
LINE
8
Layer 1
10
183.973632
20
25.576639
11
183.973632
21
26.811359
0
LINE
8
Layer 1
10
183.973632
20
26.811359
11
183.691410
21
30.409699
0
LINE
8
Layer 1
10
183.691410
20
30.409699
11
183.444465
21
32.773309
0
LINE
8
Layer 1
10
183.444465
20
32.773309
11
186.513635
21
32.879142
0
LINE
8
Layer 1
10
186.513635
20
32.879142
11
189.124195
21
33.086398
0
LINE
8
Layer 1
10
189.124195
20
33.086398
11
189.569576
21
33.310743
0
LINE
8
Layer 1
10
189.569576
20
33.310743
11
189.723915
21
33.690531
0
LINE
8
Layer 1
10
189.723915
20
33.690531
11
189.053635
21
35.895392
0
LINE
8
Layer 1
10
189.053635
20
35.895392
11
187.325025
21
40.216921
0
LINE
8
Layer 1
10
187.325025
20
40.216921
11
184.608635
21
46.496371
0
LINE
8
Layer 1
10
184.608635
20
46.496371
11
184.608084
21
46.661184
0
LINE
8
Layer 1
10
184.608084
20
46.661184
11
184.815891
21
46.677169
0
LINE
8
Layer 1
10
184.815891
20
46.677169
11
185.843355
21
46.249426
0
LINE
8
Layer 1
10
185.843355
20
46.249426
11
186.928146
21
45.781443
0
LINE
8
Layer 1
10
186.928146
20
45.781443
11
187.827730
21
45.548279
0
LINE
8
Layer 1
10
187.827730
20
45.548279
11
188.502419
21
45.559854
0
LINE
8
Layer 1
10
188.502419
20
45.559854
11
188.912525
21
45.826092
0
LINE
8
Layer 1
10
188.912525
20
45.826092
11
188.625893
21
47.210745
0
LINE
8
Layer 1
10
188.625893
20
47.210745
11
187.677805
21
50.024152
0
LINE
8
Layer 1
10
187.677805
20
50.024152
11
186.266695
21
54.116372
0
LINE
8
Layer 1
10
186.266695
20
54.116372
11
186.729716
21
54.261892
0
LINE
8
Layer 1
10
186.729716
20
54.261892
11
187.854195
21
54.328039
0
LINE
8
Layer 1
10
187.854195
20
54.328039
11
189.097737
21
54.451511
0
LINE
8
Layer 1
10
189.097737
20
54.451511
11
189.653365
21
54.786650
0
LINE
8
Layer 1
10
189.653365
20
54.786650
11
189.155065
21
58.133633
0
LINE
8
Layer 1
10
189.155065
20
58.133633
11
187.677805
21
65.475850
0
LINE
8
Layer 1
10
187.677805
20
65.475850
11
185.561135
21
75.918050
0
LINE
8
Layer 1
10
185.561135
20
75.918050
11
185.860996
21
75.962147
0
LINE
8
Layer 1
10
185.860996
20
75.962147
11
186.584195
21
75.741661
0
LINE
8
Layer 1
10
186.584195
20
75.741661
11
187.411571
21
75.553145
0
LINE
8
Layer 1
10
187.411571
20
75.553145
11
188.096734
21
75.609369
0
LINE
8
Layer 1
10
188.096734
20
75.609369
11
188.563614
21
75.890489
0
LINE
8
Layer 1
10
188.563614
20
75.890489
11
188.736145
21
76.376661
0
LINE
8
Layer 1
10
188.736145
20
76.376661
11
186.619475
21
82.197501
0
LINE
8
Layer 1
10
186.619475
20
82.197501
11
184.502805
21
87.665561
0
LINE
8
Layer 1
10
184.502805
20
87.665561
11
185.772805
21
87.277505
0
LINE
8
Layer 1
10
185.772805
20
87.277505
11
186.945794
21
86.907088
0
LINE
8
Layer 1
10
186.945794
20
86.907088
11
187.290853
21
86.999692
0
LINE
8
Layer 1
10
187.290853
20
86.999692
11
187.642525
21
87.277505
0
LINE
8
Layer 1
10
187.642525
20
87.277505
11
187.861357
21
87.743832
0
LINE
8
Layer 1
10
187.861357
20
87.743832
11
187.673393
21
88.626878
0
LINE
8
Layer 1
10
187.673393
20
88.626878
11
185.455305
21
93.310005
0
LINE
8
Layer 1
10
185.455305
20
93.310005
11
182.738915
21
98.742785
0
LINE
8
Layer 1
10
182.738915
20
98.742785
11
183.797245
21
98.531118
0
LINE
8
Layer 1
10
183.797245
20
98.531118
11
184.657141
21
98.513479
0
LINE
8
Layer 1
10
184.657141
20
98.513479
11
185.067245
21
98.919174
0
LINE
8
Layer 1
10
185.067245
20
98.919174
11
185.114098
21
99.661661
0
LINE
8
Layer 1
10
185.114098
20
99.661661
11
184.648321
21
100.810944
0
LINE
8
Layer 1
10
184.648321
20
100.810944
11
181.398355
21
105.798344
0
LINE
8
Layer 1
10
181.398355
20
105.798344
11
177.703009
21
111.486890
0
LINE
8
Layer 1
10
177.703009
20
111.486890
11
176.705309
21
113.338975
0
LINE
8
Layer 1
10
176.705309
20
113.338975
11
176.494745
21
114.159184
0
LINE
8
Layer 1
10
176.494745
20
114.159184
11
177.941135
21
113.771128
0
LINE
8
Layer 1
10
177.941135
20
113.771128
11
179.096485
21
113.422759
0
LINE
8
Layer 1
10
179.096485
20
113.422759
11
179.469107
21
113.458589
0
LINE
8
Layer 1
10
179.469107
20
113.458589
11
179.775585
21
113.630017
0
LINE
8
Layer 1
10
179.775585
20
113.630017
11
180.269474
21
114.265017
0
LINE
8
Layer 1
10
180.269474
20
114.265017
11
176.397736
21
120.928112
0
LINE
8
Layer 1
10
176.397736
20
120.928112
11
171.732244
21
128.517217
0
LINE
8
Layer 1
10
171.732244
20
128.517217
11
171.022278
21
129.236002
0
LINE
8
Layer 1
10
171.022278
20
129.236002
11
170.285854
21
129.399162
0
LINE
8
Layer 1
10
170.285854
20
129.399162
11
169.946305
21
129.253296
0
LINE
8
Layer 1
10
169.946305
20
129.253296
11
169.560454
21
128.834166
0
LINE
8
Layer 1
10
169.560454
20
128.834166
11
168.477866
21
126.810655
0
LINE
8
Layer 1
10
168.477866
20
126.810655
11
163.865294
21
115.464462
0
LINE
8
Layer 1
10
163.865294
20
115.464462
11
161.819183
21
110.490294
0
LINE
8
Layer 1
10
161.819183
20
110.490294
11
160.831404
21
108.585292
0
LINE
8
Layer 1
10
160.831404
20
108.585292
11
159.345324
21
113.008247
0
LINE
8
Layer 1
10
159.345324
20
113.008247
11
158.044454
21
117.616412
0
LINE
8
Layer 1
10
158.044454
20
117.616412
11
158.300218
21
117.598773
0
LINE
8
Layer 1
10
158.300218
20
117.598773
11
158.926399
21
117.263634
0
LINE
8
Layer 1
10
158.926399
20
117.263634
11
159.646286
21
116.937865
0
LINE
8
Layer 1
10
159.646286
20
116.937865
11
160.266956
21
116.906446
0
LINE
8
Layer 1
10
160.266956
20
116.906446
11
160.702416
21
117.159454
0
LINE
8
Layer 1
10
160.702416
20
117.159454
11
160.866679
21
117.686968
0
LINE
8
Layer 1
10
160.866679
20
117.686968
11
159.138069
21
125.730308
0
LINE
8
Layer 1
10
159.138069
20
125.730308
11
157.162509
21
134.479198
0
LINE
8
Layer 1
10
157.162509
20
134.479198
11
156.915564
21
135.784478
0
LINE
8
Layer 1
10
156.915564
20
135.784478
11
158.961674
21
135.890311
0
LINE
8
Layer 1
10
158.961674
20
135.890311
11
180.022525
21
136.040241
0
LINE
8
Layer 1
10
180.022525
20
136.040241
11
199.072574
21
135.925588
0
LINE
8
Layer 1
10
199.072574
20
135.925588
11
199.072575
21
135.925444
0
LINE
8
Layer 1
10
227.823975
20
75.917944
11
227.894531
21
15.875144
0
LINE
8
Layer 1
10
227.894531
20
15.875144
11
214.488931
21
15.875144
0
LINE
8
Layer 1
10
214.488931
20
15.875144
11
201.083331
21
15.875144
0
LINE
8
Layer 1
10
201.083331
20
15.875144
11
201.083331
21
75.812144
0
LINE
8
Layer 1
10
201.083331
20
75.812144
11
201.171525
21
126.806232
0
LINE
8
Layer 1
10
201.171525
20
126.806232
11
201.351222
21
134.331424
0
LINE
8
Layer 1
10
201.351222
20
134.331424
11
201.495227
21
135.574684
0
LINE
8
Layer 1
10
201.495227
20
135.574684
11
201.683054
21
135.890244
0
LINE
8
Layer 1
10
201.683054
20
135.890244
11
214.982754
21
135.996077
0
LINE
8
Layer 1
10
214.982754
20
135.996077
11
227.718054
21
135.996077
0
LINE
8
Layer 1
10
227.718054
20
135.996077
11
227.823887
21
75.917977
0
LINE
8
Layer 1
10
227.823887
20
75.917977
11
227.823975
21
75.917944
0
LINE
8
Layer 1
10
44.449975
20
126.118244
11
44.449975
21
123.825184
0
LINE
8
Layer 1
10
44.449975
20
123.825184
11
42.156915
21
123.825184
0
LINE
8
Layer 1
10
42.156915
20
123.825184
11
40.341209
21
123.709429
0
LINE
8
Layer 1
10
40.341209
20
123.709429
11
38.849620
21
123.375393
0
LINE
8
Layer 1
10
38.849620
20
123.375393
11
37.741678
21
122.842920
0
LINE
8
Layer 1
10
37.741678
20
122.842920
11
37.076915
21
122.131854
0
LINE
8
Layer 1
10
37.076915
20
122.131854
11
36.803512
21
121.091158
0
LINE
8
Layer 1
10
36.803512
20
121.091158
11
36.688859
21
119.627134
0
LINE
8
Layer 1
10
36.688859
20
119.627134
11
36.618303
21
118.343902
0
LINE
8
Layer 1
10
36.618303
20
118.343902
11
36.441914
21
117.722134
0
LINE
8
Layer 1
10
36.441914
20
117.722134
11
32.914134
21
117.757412
0
LINE
8
Layer 1
10
32.914134
20
117.757412
11
29.633294
21
117.898523
0
LINE
8
Layer 1
10
29.633294
20
117.898523
11
29.633294
21
122.731583
0
LINE
8
Layer 1
10
29.633294
20
122.731583
11
29.739127
21
126.484260
0
LINE
8
Layer 1
10
29.739127
20
126.484260
11
29.871419
21
127.508968
0
LINE
8
Layer 1
10
29.871419
20
127.508968
11
30.056628
21
127.987973
0
LINE
8
Layer 1
10
30.056628
20
127.987973
11
30.648634
21
128.188064
0
LINE
8
Layer 1
10
30.648634
20
128.188064
11
32.014547
21
128.318702
0
LINE
8
Layer 1
10
32.014547
20
128.318702
11
37.464968
21
128.411307
0
LINE
8
Layer 1
10
37.464968
20
128.411307
11
44.449968
21
128.411307
0
LINE
8
Layer 1
10
44.449968
20
128.411307
11
44.449968
21
126.118247
0
LINE
8
Layer 1
10
44.449968
20
126.118247
11
44.449975
21
126.118244
0
LINE
8
Layer 1
10
68.438875
20
126.118244
11
68.438875
21
123.825184
0
LINE
8
Layer 1
10
68.438875
20
123.825184
11
56.973575
21
123.825184
0
LINE
8
Layer 1
10
56.973575
20
123.825184
11
45.508275
21
123.825184
0
LINE
8
Layer 1
10
45.508275
20
123.825184
11
45.508275
21
126.118244
0
LINE
8
Layer 1
10
45.508275
20
126.118244
11
45.508275
21
128.411304
0
LINE
8
Layer 1
10
45.508275
20
128.411304
11
56.973575
21
128.411304
0
LINE
8
Layer 1
10
56.973575
20
128.411304
11
68.438875
21
128.411304
0
LINE
8
Layer 1
10
68.438875
20
128.411304
11
68.438875
21
126.118244
0
LINE
8
Layer 1
10
68.438875
20
126.118244
11
68.438875
21
126.118244
0
LINE
8
Layer 1
10
86.430575
20
123.119634
11
86.430575
21
117.827964
0
LINE
8
Layer 1
10
86.430575
20
117.827964
11
81.844465
21
117.827964
0
LINE
8
Layer 1
10
81.844465
20
117.827964
11
77.258355
21
117.827964
0
LINE
8
Layer 1
10
77.258355
20
117.827964
11
77.258355
21
119.627134
0
LINE
8
Layer 1
10
77.258355
20
119.627134
11
77.143702
21
121.091162
0
LINE
8
Layer 1
10
77.143702
20
121.091162
11
76.870299
21
122.131854
0
LINE
8
Layer 1
10
76.870299
20
122.131854
11
76.208288
21
122.828040
0
LINE
8
Layer 1
10
76.208288
20
122.828040
11
75.119637
21
123.362167
0
LINE
8
Layer 1
10
75.119637
20
123.362167
11
73.680414
21
123.704469
0
LINE
8
Layer 1
10
73.680414
20
123.704469
11
71.966689
21
123.825184
0
LINE
8
Layer 1
10
71.966689
20
123.825184
11
69.850019
21
123.825184
0
LINE
8
Layer 1
10
69.850019
20
123.825184
11
69.850019
21
126.118244
0
LINE
8
Layer 1
10
69.850019
20
126.118244
11
69.850019
21
128.411304
0
LINE
8
Layer 1
10
69.850019
20
128.411304
11
78.140299
21
128.411304
0
LINE
8
Layer 1
10
78.140299
20
128.411304
11
86.430579
21
128.411304
0
LINE
8
Layer 1
10
86.430579
20
128.411304
11
86.430579
21
123.119634
0
LINE
8
Layer 1
10
86.430579
20
123.119634
11
86.430575
21
123.119634
0
LINE
8
Layer 1
10
98.707275
20
127.987974
11
98.892483
21
127.516133
0
LINE
8
Layer 1
10
98.892483
20
127.516133
11
99.024775
21
126.515126
0
LINE
8
Layer 1
10
99.024775
20
126.515126
11
99.130609
21
122.872694
0
LINE
8
Layer 1
10
99.130609
20
122.872694
11
99.020366
21
118.881893
0
LINE
8
Layer 1
10
99.020366
20
118.881893
11
98.818070
21
118.164759
0
LINE
8
Layer 1
10
98.818070
20
118.164759
11
98.460331
21
117.827964
0
LINE
8
Layer 1
10
98.460331
20
117.827964
11
97.404756
21
117.436601
0
LINE
8
Layer 1
10
97.404756
20
117.436601
11
96.988795
21
117.494341
0
LINE
8
Layer 1
10
96.988795
20
117.494341
11
96.603840
21
117.766228
0
LINE
8
Layer 1
10
96.603840
20
117.766228
11
95.796307
21
119.088043
0
LINE
8
Layer 1
10
95.796307
20
119.088043
11
94.720881
21
121.673244
0
LINE
8
Layer 1
10
94.720881
20
121.673244
11
93.239214
21
125.047237
0
LINE
8
Layer 1
10
93.239214
20
125.047237
11
92.657131
21
125.891907
0
LINE
8
Layer 1
10
92.657131
20
125.891907
11
92.127964
21
126.175576
0
LINE
8
Layer 1
10
92.127964
20
126.175576
11
91.612025
21
125.898659
0
LINE
8
Layer 1
10
91.612025
20
125.898659
11
91.069629
21
125.061569
0
LINE
8
Layer 1
10
91.069629
20
125.061569
11
89.746711
21
121.708522
0
LINE
8
Layer 1
10
89.746711
20
121.708522
11
88.697195
21
118.961261
0
LINE
8
Layer 1
10
88.697195
20
118.961261
11
88.123931
21
117.827962
0
LINE
8
Layer 1
10
88.123931
20
117.827962
11
87.916674
21
119.389004
0
LINE
8
Layer 1
10
87.916674
20
119.389004
11
87.841709
21
123.119632
0
LINE
8
Layer 1
10
87.841709
20
123.119632
11
87.841709
21
128.411302
0
LINE
8
Layer 1
10
87.841709
20
128.411302
11
93.062819
21
128.411302
0
LINE
8
Layer 1
10
93.062819
20
128.411302
11
97.128589
21
128.305468
0
LINE
8
Layer 1
10
97.128589
20
128.305468
11
98.212279
21
128.173177
0
LINE
8
Layer 1
10
98.212279
20
128.173177
11
98.707269
21
127.987968
0
LINE
8
Layer 1
10
98.707269
20
127.987968
11
98.707275
21
127.987974
0
LINE
8
Layer 1
10
173.954775
20
121.532134
11
177.094495
21
116.240464
0
LINE
8
Layer 1
10
177.094495
20
116.240464
11
175.612825
21
116.169908
0
LINE
8
Layer 1
10
175.612825
20
116.169908
11
174.329594
21
116.094943
0
LINE
8
Layer 1
10
174.329594
20
116.094943
11
174.149345
21
115.837526
0
LINE
8
Layer 1
10
174.149345
20
115.837526
11
174.131155
21
115.358519
0
LINE
8
Layer 1
10
174.131155
20
115.358519
11
175.013102
21
112.822929
0
LINE
8
Layer 1
10
175.013102
20
112.822929
11
177.059215
21
107.985459
0
LINE
8
Layer 1
10
177.059215
20
107.985459
11
179.810885
21
101.388509
0
LINE
8
Layer 1
10
179.810885
20
101.388509
11
176.741715
21
102.693789
0
LINE
8
Layer 1
10
176.741715
20
102.693789
11
174.556146
21
103.573530
0
LINE
8
Layer 1
10
174.556146
20
103.573530
11
173.015499
21
103.990249
0
LINE
8
Layer 1
10
173.015499
20
103.990249
11
172.103237
21
103.943946
0
LINE
8
Layer 1
10
172.103237
20
103.943946
11
171.877584
21
103.747162
0
LINE
8
Layer 1
10
171.877584
20
103.747162
11
171.802825
21
103.434623
0
LINE
8
Layer 1
10
171.802825
20
103.434623
11
173.355045
21
89.252923
0
LINE
8
Layer 1
10
173.355045
20
89.252923
11
174.782692
21
76.700647
0
LINE
8
Layer 1
10
174.782692
20
76.700647
11
175.409977
21
70.167636
0
LINE
8
Layer 1
10
175.409977
20
70.167636
11
175.471026
21
68.343934
0
LINE
8
Layer 1
10
175.471026
20
68.343934
11
175.389034
21
67.047744
0
LINE
8
Layer 1
10
175.389034
20
67.047744
11
174.871995
21
64.734823
0
LINE
8
Layer 1
10
174.871995
20
64.734823
11
174.417242
21
62.957154
0
LINE
8
Layer 1
10
174.417242
20
62.957154
11
174.065015
21
61.996385
0
LINE
8
Layer 1
10
174.065015
20
61.996385
11
173.666486
21
61.584625
0
LINE
8
Layer 1
10
173.666486
20
61.584625
11
173.072825
21
61.453983
0
LINE
8
Layer 1
10
173.072825
20
61.453983
11
171.983623
21
61.427525
0
LINE
8
Layer 1
10
171.983623
20
61.427525
11
170.815045
21
61.559816
0
LINE
8
Layer 1
10
170.815045
20
61.559816
11
169.615595
21
61.771483
0
LINE
8
Layer 1
10
169.615595
20
61.771483
11
169.721428
21
90.875683
0
LINE
8
Layer 1
10
169.721428
20
90.875683
11
169.730247
21
115.433458
0
LINE
8
Layer 1
10
169.730247
20
115.433458
11
169.572600
21
119.326708
0
LINE
8
Layer 1
10
169.572600
20
119.326708
11
169.438792
21
120.063895
0
LINE
8
Layer 1
10
169.438792
20
120.063895
11
169.262817
21
120.332683
0
LINE
8
Layer 1
10
169.262817
20
120.332683
11
168.768928
21
120.460566
0
LINE
8
Layer 1
10
168.768928
20
120.460566
11
168.380872
21
120.191572
0
LINE
8
Layer 1
10
168.380872
20
120.191572
11
168.241966
21
117.820791
0
LINE
8
Layer 1
10
168.241966
20
117.820791
11
168.142747
21
111.411806
0
LINE
8
Layer 1
10
168.142747
20
111.411806
11
168.063372
21
88.476872
0
LINE
8
Layer 1
10
168.063372
20
88.476872
11
168.023684
21
66.344472
0
LINE
8
Layer 1
10
168.023684
20
66.344472
11
167.851705
21
57.150172
0
LINE
8
Layer 1
10
167.851705
20
57.150172
11
167.667599
21
57.338137
0
LINE
8
Layer 1
10
167.667599
20
57.338137
11
167.463649
21
58.018888
0
LINE
8
Layer 1
10
167.463649
20
58.018888
11
166.863927
21
61.559892
0
LINE
8
Layer 1
10
166.863927
20
61.559892
11
166.224517
21
65.017117
0
LINE
8
Layer 1
10
166.224517
20
65.017117
11
165.946152
21
65.518725
0
LINE
8
Layer 1
10
165.946152
20
65.518725
11
165.558647
21
65.616842
0
LINE
8
Layer 1
10
165.558647
20
65.616842
11
164.509134
21
65.021530
0
LINE
8
Layer 1
10
164.509134
20
65.021530
11
162.877537
21
63.606012
0
LINE
8
Layer 1
10
162.877537
20
63.606012
11
160.831427
21
61.559902
0
LINE
8
Layer 1
10
160.831427
20
61.559902
11
161.043094
21
63.500182
0
LINE
8
Layer 1
10
161.043094
20
63.500182
11
161.973546
21
81.566812
0
LINE
8
Layer 1
10
161.973546
20
81.566812
11
162.377587
21
92.169441
0
LINE
8
Layer 1
10
162.377587
20
92.169441
11
162.454204
21
97.014082
0
LINE
8
Layer 1
10
162.454204
20
97.014082
11
162.033627
21
97.331583
0
LINE
8
Layer 1
10
162.033627
20
97.331583
11
161.417919
21
97.278666
0
LINE
8
Layer 1
10
161.417919
20
97.278666
11
160.623616
21
96.855332
0
LINE
8
Layer 1
10
160.623616
20
96.855332
11
159.667254
21
96.061581
0
LINE
8
Layer 1
10
159.667254
20
96.061581
11
158.750030
21
95.272241
0
LINE
8
Layer 1
10
158.750030
20
95.272241
11
158.506391
21
95.153730
0
LINE
8
Layer 1
10
158.506391
20
95.153730
11
158.467804
21
95.250192
0
LINE
8
Layer 1
10
158.467804
20
95.250192
11
159.631974
21
98.707412
0
LINE
8
Layer 1
10
159.631974
20
98.707412
11
160.456592
21
100.890225
0
LINE
8
Layer 1
10
160.456592
20
100.890225
11
160.777950
21
101.371438
0
LINE
8
Layer 1
10
160.777950
20
101.371438
11
161.043084
21
101.459082
0
LINE
8
Layer 1
10
161.043084
20
101.459082
11
161.523744
21
101.476721
0
LINE
8
Layer 1
10
161.523744
20
101.476721
11
162.030862
21
101.706027
0
LINE
8
Layer 1
10
162.030862
20
101.706027
11
162.296548
21
101.993211
0
LINE
8
Layer 1
10
162.296548
20
101.993211
11
162.410098
21
102.389534
0
LINE
8
Layer 1
10
162.410098
20
102.389534
11
162.207251
21
103.893247
0
LINE
8
Layer 1
10
162.207251
20
103.893247
11
162.063935
21
105.069542
0
LINE
8
Layer 1
10
162.063935
20
105.069542
11
162.383640
21
106.662557
0
LINE
8
Layer 1
10
162.383640
20
106.662557
11
163.497096
21
109.737243
0
LINE
8
Layer 1
10
163.497096
20
109.737243
11
165.735031
21
115.358547
0
LINE
8
Layer 1
10
165.735031
20
115.358547
11
169.734652
21
125.223085
0
LINE
8
Layer 1
10
169.734652
20
125.223085
11
170.403276
21
126.664530
0
LINE
8
Layer 1
10
170.403276
20
126.664530
11
170.638641
21
126.859147
0
LINE
8
Layer 1
10
170.638641
20
126.859147
11
173.954751
21
121.532197
0
LINE
8
Layer 1
10
173.954751
20
121.532197
11
173.954775
21
121.532134
0
LINE
8
Layer 1
10
92.498375
20
117.898524
11
91.100493
21
117.867656
0
LINE
8
Layer 1
10
91.100493
20
117.867656
11
90.416985
21
117.969080
0
LINE
8
Layer 1
10
90.416985
20
117.969080
11
90.520613
21
118.636050
0
LINE
8
Layer 1
10
90.520613
20
118.636050
11
90.954970
21
120.024010
0
LINE
8
Layer 1
10
90.954970
20
120.024010
11
91.969205
21
122.555190
0
LINE
8
Layer 1
10
91.969205
20
122.555190
11
92.153862
21
122.492351
0
LINE
8
Layer 1
10
92.153862
20
122.492351
11
92.467504
21
122.078939
0
LINE
8
Layer 1
10
92.467504
20
122.078939
11
93.309765
21
120.438520
0
LINE
8
Layer 1
10
93.309765
20
120.438520
11
94.403375
21
118.004350
0
LINE
8
Layer 1
10
94.403375
20
118.004350
11
92.498375
21
117.898517
0
LINE
8
Layer 1
10
92.498375
20
117.898517
11
92.498375
21
117.898524
0
LINE
8
Layer 1
10
44.449975
20
119.944634
11
44.449975
21
117.827964
0
LINE
8
Layer 1
10
44.449975
20
117.827964
11
41.274975
21
117.827964
0
LINE
8
Layer 1
10
41.274975
20
117.827964
11
38.099975
21
117.827964
0
LINE
8
Layer 1
10
38.099975
20
117.827964
11
38.099975
21
119.380184
0
LINE
8
Layer 1
10
38.099975
20
119.380184
11
38.237779
21
120.766492
0
LINE
8
Layer 1
10
38.237779
20
120.766492
11
38.446001
21
121.236196
0
LINE
8
Layer 1
10
38.446001
20
121.236196
11
38.779073
21
121.580637
0
LINE
8
Layer 1
10
38.779073
20
121.580637
11
39.915681
21
121.964832
0
LINE
8
Layer 1
10
39.915681
20
121.964832
11
41.839425
21
122.061294
0
LINE
8
Layer 1
10
41.839425
20
122.061294
11
44.449985
21
122.061294
0
LINE
8
Layer 1
10
44.449985
20
122.061294
11
44.449985
21
119.944624
0
LINE
8
Layer 1
10
44.449985
20
119.944624
11
44.449975
21
119.944634
0
LINE
8
Layer 1
10
68.438875
20
119.874078
11
68.438875
21
117.651578
0
LINE
8
Layer 1
10
68.438875
20
117.651578
11
62.794425
21
117.757411
0
LINE
8
Layer 1
10
62.794425
20
117.757411
11
58.825671
21
117.907342
0
LINE
8
Layer 1
10
58.825671
20
117.907342
11
57.185255
21
118.110189
0
LINE
8
Layer 1
10
57.185255
20
118.110189
11
57.114699
21
118.939218
0
LINE
8
Layer 1
10
57.114699
20
118.939218
11
56.917364
21
119.161909
0
LINE
8
Layer 1
10
56.917364
20
119.161909
11
56.620810
21
119.239079
0
LINE
8
Layer 1
10
56.620810
20
119.239079
11
56.250393
21
119.031822
0
LINE
8
Layer 1
10
56.250393
20
119.031822
11
56.091643
21
118.533523
0
LINE
8
Layer 1
10
56.091643
20
118.533523
11
55.979746
21
118.140507
0
LINE
8
Layer 1
10
55.979746
20
118.140507
11
55.381677
21
117.929391
0
LINE
8
Layer 1
10
55.381677
20
117.929391
11
51.152753
21
117.827967
0
LINE
8
Layer 1
10
51.152753
20
117.827967
11
45.966913
21
117.757412
0
LINE
8
Layer 1
10
45.966913
20
117.757412
11
45.733198
21
118.326267
0
LINE
8
Layer 1
10
45.733198
20
118.326267
11
45.578857
21
119.874082
0
LINE
8
Layer 1
10
45.578857
20
119.874082
11
45.473024
21
122.061302
0
LINE
8
Layer 1
10
45.473024
20
122.061302
11
56.973624
21
122.061302
0
LINE
8
Layer 1
10
56.973624
20
122.061302
11
68.438924
21
122.061302
0
LINE
8
Layer 1
10
68.438924
20
122.061302
11
68.438924
21
119.874082
0
LINE
8
Layer 1
10
68.438924
20
119.874082
11
68.438875
21
119.874078
0
LINE
8
Layer 1
10
75.494435
20
121.355748
11
75.721536
21
120.477111
0
LINE
8
Layer 1
10
75.721536
20
120.477111
11
75.776658
21
119.300816
0
LINE
8
Layer 1
10
75.776658
20
119.300816
11
75.673029
21
118.270043
0
LINE
8
Layer 1
10
75.673029
20
118.270043
11
75.423879
21
117.827968
0
LINE
8
Layer 1
10
75.423879
20
117.827968
11
72.495819
21
117.827968
0
LINE
8
Layer 1
10
72.495819
20
117.827968
11
69.849979
21
117.827968
0
LINE
8
Layer 1
10
69.849979
20
117.827968
11
69.849979
21
119.944638
0
LINE
8
Layer 1
10
69.849979
20
119.944638
11
69.849979
21
122.061308
0
LINE
8
Layer 1
10
69.849979
20
122.061308
11
72.495819
21
122.061308
0
LINE
8
Layer 1
10
72.495819
20
122.061308
11
74.735959
21
121.933427
0
LINE
8
Layer 1
10
74.735959
20
121.933427
11
75.214413
21
121.719004
0
LINE
8
Layer 1
10
75.214413
20
121.719004
11
75.494429
21
121.355752
0
LINE
8
Layer 1
10
75.494429
20
121.355752
11
75.494435
21
121.355748
0
LINE
8
Layer 1
10
108.620335
20
88.124048
11
108.655613
21
66.322348
0
LINE
8
Layer 1
10
108.655613
20
66.322348
11
106.186163
21
66.322348
0
LINE
8
Layer 1
10
106.186163
20
66.322348
11
103.716713
21
66.322348
0
LINE
8
Layer 1
10
103.716713
20
66.322348
11
103.716713
21
68.721238
0
LINE
8
Layer 1
10
103.716713
20
68.721238
11
104.069491
21
83.220438
0
LINE
8
Layer 1
10
104.069491
20
83.220438
11
104.267928
21
92.617568
0
LINE
8
Layer 1
10
104.267928
20
92.617568
11
104.213358
21
94.893534
0
LINE
8
Layer 1
10
104.213358
20
94.893534
11
104.069491
21
95.744038
0
LINE
8
Layer 1
10
104.069491
20
95.744038
11
103.535915
21
95.902788
0
LINE
8
Layer 1
10
103.535915
20
95.902788
11
102.658381
21
95.532371
0
LINE
8
Layer 1
10
102.658381
20
95.532371
11
102.077399
21
95.219832
0
LINE
8
Layer 1
10
102.077399
20
95.219832
11
101.741157
21
95.148725
0
LINE
8
Layer 1
10
101.741157
20
95.148725
11
101.537206
21
95.348816
0
LINE
8
Layer 1
10
101.537206
20
95.348816
11
101.353101
21
95.849871
0
LINE
8
Layer 1
10
101.353101
20
95.849871
11
101.353652
21
96.779221
0
LINE
8
Layer 1
10
101.353652
20
96.779221
11
101.807302
21
98.733828
0
LINE
8
Layer 1
10
101.807302
20
98.733828
11
104.563381
21
107.385671
0
LINE
8
Layer 1
10
104.563381
20
107.385671
11
108.126441
21
118.004271
0
LINE
8
Layer 1
10
108.126441
20
118.004271
11
108.338108
21
113.947321
0
LINE
8
Layer 1
10
108.338108
20
113.947321
11
108.518907
21
104.686896
0
LINE
8
Layer 1
10
108.518907
20
104.686896
11
108.620330
21
88.124021
0
LINE
8
Layer 1
10
108.620330
20
88.124021
11
108.620335
21
88.124048
0
LINE
8
Layer 1
10
112.712555
20
114.017948
11
115.252555
21
109.855168
0
LINE
8
Layer 1
10
115.252555
20
109.855168
11
115.476349
21
109.464357
0
LINE
8
Layer 1
10
115.476349
20
109.464357
11
115.481861
21
109.268675
0
LINE
8
Layer 1
10
115.481861
20
109.268675
11
114.652832
21
109.290723
0
LINE
8
Layer 1
10
114.652832
20
109.290723
11
113.792938
21
109.281904
0
LINE
8
Layer 1
10
113.792938
20
109.281904
11
113.635843
21
109.072442
0
LINE
8
Layer 1
10
113.635843
20
109.072442
11
113.594502
21
108.691000
0
LINE
8
Layer 1
10
113.594502
20
108.691000
11
114.026655
21
107.310758
0
LINE
8
Layer 1
10
114.026655
20
107.310758
11
115.040892
21
105.057390
0
LINE
8
Layer 1
10
115.040892
20
105.057390
11
115.870472
21
103.365710
0
LINE
8
Layer 1
10
115.870472
20
103.365710
11
116.253567
21
102.292493
0
LINE
8
Layer 1
10
116.253567
20
102.292493
11
116.286090
21
101.411099
0
LINE
8
Layer 1
10
116.286090
20
101.411099
11
116.063952
21
100.294890
0
LINE
8
Layer 1
10
116.063952
20
100.294890
11
115.578883
21
98.764718
0
LINE
8
Layer 1
10
115.578883
20
98.764718
11
115.270203
21
98.494072
0
LINE
8
Layer 1
10
115.270203
20
98.494072
11
114.829232
21
98.425170
0
LINE
8
Layer 1
10
114.829232
20
98.425170
11
114.239431
21
98.271932
0
LINE
8
Layer 1
10
114.239431
20
98.271932
11
113.841454
21
97.887184
0
LINE
8
Layer 1
10
113.841454
20
97.887184
11
113.708059
21
97.383374
0
LINE
8
Layer 1
10
113.708059
20
97.383374
11
113.912009
21
96.872950
0
LINE
8
Layer 1
10
113.912009
20
96.872950
11
116.368225
21
92.547010
0
LINE
8
Layer 1
10
116.368225
20
92.547010
11
118.533399
21
88.406280
0
LINE
8
Layer 1
10
118.533399
20
88.406280
11
118.162982
21
88.437149
0
LINE
8
Layer 1
10
118.162982
20
88.437149
11
117.263399
21
88.759058
0
LINE
8
Layer 1
10
117.263399
20
88.759058
11
116.178608
21
89.080969
0
LINE
8
Layer 1
10
116.178608
20
89.080969
11
115.570069
21
88.900169
0
LINE
8
Layer 1
10
115.570069
20
88.900169
11
115.366670
21
87.131866
0
LINE
8
Layer 1
10
115.366670
20
87.131866
11
115.292256
21
83.352728
0
LINE
8
Layer 1
10
115.292256
20
83.352728
11
115.356748
21
79.057660
0
LINE
8
Layer 1
10
115.356748
20
79.057660
11
115.570069
21
75.741569
0
LINE
8
Layer 1
10
115.570069
20
75.741569
11
115.380451
21
73.730733
0
LINE
8
Layer 1
10
115.380451
20
73.730733
11
114.476459
21
70.344069
0
LINE
8
Layer 1
10
114.476459
20
70.344069
11
113.206459
21
66.322399
0
LINE
8
Layer 1
10
113.206459
20
66.322399
11
111.795349
21
66.322399
0
LINE
8
Layer 1
10
111.795349
20
66.322399
11
110.419519
21
66.322399
0
LINE
8
Layer 1
10
110.419519
20
66.322399
11
110.419519
21
88.653199
0
LINE
8
Layer 1
10
110.419519
20
88.653199
11
110.353373
21
105.396937
0
LINE
8
Layer 1
10
110.353373
20
105.396937
11
110.207852
21
114.229599
0
LINE
8
Layer 1
10
110.207852
20
114.229599
11
110.124067
21
116.553524
0
LINE
8
Layer 1
10
110.124067
20
116.553524
11
110.278408
21
117.475159
0
LINE
8
Layer 1
10
110.278408
20
117.475159
11
111.125075
21
116.447695
0
LINE
8
Layer 1
10
111.125075
20
116.447695
11
112.712578
21
114.017939
0
LINE
8
Layer 1
10
112.712578
20
114.017939
11
112.712555
21
114.017948
0
LINE
8
Layer 1
10
25.047255
20
112.889058
11
25.047255
21
109.361278
0
LINE
8
Layer 1
10
25.047255
20
109.361278
11
21.166695
21
109.361278
0
LINE
8
Layer 1
10
21.166695
20
109.361278
11
17.286135
21
109.361278
0
LINE
8
Layer 1
10
17.286135
20
109.361278
11
17.286135
21
112.889058
0
LINE
8
Layer 1
10
17.286135
20
112.889058
11
17.286135
21
116.416838
0
LINE
8
Layer 1
10
17.286135
20
116.416838
11
21.166695
21
116.416838
0
LINE
8
Layer 1
10
21.166695
20
116.416838
11
25.047255
21
116.416838
0
LINE
8
Layer 1
10
25.047255
20
116.416838
11
25.047255
21
112.889058
0
LINE
8
Layer 1
10
25.047255
20
112.889058
11
25.047255
21
112.889058
0
LINE
8
Layer 1
10
36.688955
20
114.441278
11
36.803608
21
112.862598
0
LINE
8
Layer 1
10
36.803608
20
112.862598
11
37.077011
21
111.760168
0
LINE
8
Layer 1
10
37.077011
20
111.760168
11
37.741778
21
111.049103
0
LINE
8
Layer 1
10
37.741778
20
111.049103
11
38.849722
21
110.516630
0
LINE
8
Layer 1
10
38.849722
20
110.516630
11
40.341310
21
110.182594
0
LINE
8
Layer 1
10
40.341310
20
110.182594
11
42.157011
21
110.066838
0
LINE
8
Layer 1
10
42.157011
20
110.066838
11
44.485341
21
110.066838
0
LINE
8
Layer 1
10
44.485341
20
110.066838
11
44.379508
21
108.585168
0
LINE
8
Layer 1
10
44.379508
20
108.585168
11
44.273675
21
107.068218
0
LINE
8
Layer 1
10
44.273675
20
107.068218
11
41.451455
21
106.962385
0
LINE
8
Layer 1
10
41.451455
20
106.962385
11
39.153986
21
107.006483
0
LINE
8
Layer 1
10
39.153986
20
107.006483
11
37.782565
21
107.315163
0
LINE
8
Layer 1
10
37.782565
20
107.315163
11
37.077009
21
107.584157
0
LINE
8
Layer 1
10
37.077009
20
107.584157
11
36.794787
21
107.350441
0
LINE
8
Layer 1
10
36.794787
20
107.350441
11
36.489896
21
107.162132
0
LINE
8
Layer 1
10
36.489896
20
107.162132
11
35.810867
21
107.021365
0
LINE
8
Layer 1
10
35.810867
20
107.021365
11
33.791763
21
106.887420
0
LINE
8
Layer 1
10
33.791763
20
106.887420
11
31.660211
21
106.958527
0
LINE
8
Layer 1
10
31.660211
20
106.958527
11
30.338947
21
107.244608
0
LINE
8
Layer 1
10
30.338947
20
107.244608
11
30.084836
21
107.608962
0
LINE
8
Layer 1
10
30.084836
20
107.608962
11
29.893565
21
108.413186
0
LINE
8
Layer 1
10
29.893565
20
108.413186
11
29.633391
21
111.830718
0
LINE
8
Layer 1
10
29.633391
20
111.830718
11
29.598113
21
116.275718
0
LINE
8
Layer 1
10
29.598113
20
116.275718
11
33.231723
21
116.416829
0
LINE
8
Layer 1
10
33.231723
20
116.416829
11
36.688943
21
116.416829
0
LINE
8
Layer 1
10
36.688943
20
116.416829
11
36.688943
21
114.441269
0
LINE
8
Layer 1
10
36.688943
20
114.441269
11
36.688955
21
114.441278
0
LINE
8
Layer 1
10
44.379515
20
114.053222
11
44.485348
21
111.830722
0
LINE
8
Layer 1
10
44.485348
20
111.830722
11
41.663128
21
111.830722
0
LINE
8
Layer 1
10
41.663128
20
111.830722
11
39.722296
21
111.912302
0
LINE
8
Layer 1
10
39.722296
20
111.912302
11
39.093978
21
112.053965
0
LINE
8
Layer 1
10
39.093978
20
112.053965
11
38.651283
21
112.298153
0
LINE
8
Layer 1
10
38.651283
20
112.298153
11
38.362377
21
112.671326
0
LINE
8
Layer 1
10
38.362377
20
112.671326
11
38.195428
21
113.199941
0
LINE
8
Layer 1
10
38.195428
20
113.199941
11
38.100068
21
114.829332
0
LINE
8
Layer 1
10
38.100068
20
114.829332
11
38.100068
21
116.452112
0
LINE
8
Layer 1
10
38.100068
20
116.452112
11
41.204518
21
116.346279
0
LINE
8
Layer 1
10
41.204518
20
116.346279
11
44.273688
21
116.240446
0
LINE
8
Layer 1
10
44.273688
20
116.240446
11
44.379521
21
114.053226
0
LINE
8
Layer 1
10
44.379521
20
114.053226
11
44.379515
21
114.053222
0
LINE
8
Layer 1
10
55.915315
20
109.008492
11
55.915315
21
101.776542
0
LINE
8
Layer 1
10
55.915315
20
101.776542
11
54.257255
21
101.670709
0
LINE
8
Layer 1
10
54.257255
20
101.670709
11
52.566677
21
101.677875
0
LINE
8
Layer 1
10
52.566677
20
101.677875
11
52.019250
21
101.838761
0
LINE
8
Layer 1
10
52.019250
20
101.838761
11
51.633468
21
102.151369
0
LINE
8
Layer 1
10
51.633468
20
102.151369
11
51.381630
21
102.650839
0
LINE
8
Layer 1
10
51.381630
20
102.650839
11
51.236039
21
103.372310
0
LINE
8
Layer 1
10
51.236039
20
103.372310
11
51.152805
21
105.621819
0
LINE
8
Layer 1
10
51.152805
20
105.621819
11
50.995157
21
108.764851
0
LINE
8
Layer 1
10
50.995157
20
108.764851
11
50.762131
21
109.849781
0
LINE
8
Layer 1
10
50.762131
20
109.849781
11
50.394332
21
110.657724
0
LINE
8
Layer 1
10
50.394332
20
110.657724
11
49.867783
21
111.224236
0
LINE
8
Layer 1
10
49.867783
20
111.224236
11
49.158506
21
111.584868
0
LINE
8
Layer 1
10
49.158506
20
111.584868
11
48.242522
21
111.775175
0
LINE
8
Layer 1
10
48.242522
20
111.775175
11
47.095855
21
111.830709
0
LINE
8
Layer 1
10
47.095855
20
111.830709
11
45.508355
21
111.830709
0
LINE
8
Layer 1
10
45.508355
20
111.830709
11
45.508355
21
113.876819
0
LINE
8
Layer 1
10
45.508355
20
113.876819
11
45.578911
21
115.411402
0
LINE
8
Layer 1
10
45.578911
20
115.411402
11
45.755300
21
116.205149
0
LINE
8
Layer 1
10
45.755300
20
116.205149
11
47.382490
21
116.328622
0
LINE
8
Layer 1
10
47.382490
20
116.328622
11
50.941140
21
116.346260
0
LINE
8
Layer 1
10
50.941140
20
116.346260
11
55.915310
21
116.240427
0
LINE
8
Layer 1
10
55.915310
20
116.240427
11
55.915310
21
109.008477
0
LINE
8
Layer 1
10
55.915310
20
109.008477
11
55.915315
21
109.008492
0
LINE
8
Layer 1
10
68.438915
20
114.123772
11
68.438915
21
111.830712
0
LINE
8
Layer 1
10
68.438915
20
111.830712
11
66.110585
21
111.830712
0
LINE
8
Layer 1
10
66.110585
20
111.830712
11
64.842789
21
111.799844
0
LINE
8
Layer 1
10
64.842789
20
111.799844
11
64.011556
21
111.663143
0
LINE
8
Layer 1
10
64.011556
20
111.663143
11
63.391990
21
111.354461
0
LINE
8
Layer 1
10
63.391990
20
111.354461
11
62.759195
21
110.807652
0
LINE
8
Layer 1
10
62.759195
20
110.807652
11
62.182623
21
110.142885
0
LINE
8
Layer 1
10
62.182623
20
110.142885
11
61.877248
21
109.405359
0
LINE
8
Layer 1
10
61.877248
20
109.405359
11
61.757082
21
108.178354
0
LINE
8
Layer 1
10
61.757082
20
108.178354
11
61.736135
21
106.045152
0
LINE
8
Layer 1
10
61.736135
20
106.045152
11
61.672745
21
103.579565
0
LINE
8
Layer 1
10
61.672745
20
103.579565
11
61.551960
21
102.793876
0
LINE
8
Layer 1
10
61.551960
20
102.793876
11
61.334850
21
102.248380
0
LINE
8
Layer 1
10
61.334850
20
102.248380
11
60.993716
21
101.899668
0
LINE
8
Layer 1
10
60.993716
20
101.899668
11
60.500859
21
101.704331
0
LINE
8
Layer 1
10
60.500859
20
101.704331
11
58.949185
21
101.600152
0
LINE
8
Layer 1
10
58.949185
20
101.600152
11
57.502795
21
101.600152
0
LINE
8
Layer 1
10
57.502795
20
101.600152
11
57.502795
21
109.008492
0
LINE
8
Layer 1
10
57.502795
20
109.008492
11
57.502795
21
116.416832
0
LINE
8
Layer 1
10
57.502795
20
116.416832
11
62.970855
21
116.416832
0
LINE
8
Layer 1
10
62.970855
20
116.416832
11
68.438915
21
116.416832
0
LINE
8
Layer 1
10
68.438915
20
116.416832
11
68.438915
21
114.123772
0
LINE
8
Layer 1
10
68.438915
20
114.123772
11
68.438915
21
114.123772
0
LINE
8
Layer 1
10
75.847255
20
114.547106
11
75.728192
21
113.109535
0
LINE
8
Layer 1
10
75.728192
20
113.109535
11
75.423921
21
112.254046
0
LINE
8
Layer 1
10
75.423921
20
112.254046
11
74.400864
21
111.949775
0
LINE
8
Layer 1
10
74.400864
20
111.949775
11
72.425311
21
111.830712
0
LINE
8
Layer 1
10
72.425311
20
111.830712
11
69.850031
21
111.830712
0
LINE
8
Layer 1
10
69.850031
20
111.830712
11
69.850031
21
114.123772
0
LINE
8
Layer 1
10
69.850031
20
114.123772
11
69.850031
21
116.416832
0
LINE
8
Layer 1
10
69.850031
20
116.416832
11
72.848641
21
116.416832
0
LINE
8
Layer 1
10
72.848641
20
116.416832
11
75.847251
21
116.416832
0
LINE
8
Layer 1
10
75.847251
20
116.416832
11
75.847251
21
114.547112
0
LINE
8
Layer 1
10
75.847251
20
114.547112
11
75.847255
21
114.547106
0
LINE
8
Layer 1
10
86.324755
20
114.829328
11
86.290580
21
114.008569
0
LINE
8
Layer 1
10
86.290580
20
114.008569
11
86.077811
21
112.999294
0
LINE
8
Layer 1
10
86.077811
20
112.999294
11
85.090035
21
110.243218
0
LINE
8
Layer 1
10
85.090035
20
110.243218
11
83.749475
21
107.068218
0
LINE
8
Layer 1
10
83.749475
20
107.068218
11
76.799745
21
106.962385
0
LINE
8
Layer 1
10
76.799745
20
106.962385
11
69.850015
21
106.891830
0
LINE
8
Layer 1
10
69.850015
20
106.891830
11
69.850015
21
108.479330
0
LINE
8
Layer 1
10
69.850015
20
108.479330
11
69.850015
21
110.066830
0
LINE
8
Layer 1
10
69.850015
20
110.066830
11
72.107795
21
110.066830
0
LINE
8
Layer 1
10
72.107795
20
110.066830
11
73.874441
21
110.158332
0
LINE
8
Layer 1
10
73.874441
20
110.158332
11
75.287206
21
110.428427
0
LINE
8
Layer 1
10
75.287206
20
110.428427
11
76.309711
21
110.870501
0
LINE
8
Layer 1
10
76.309711
20
110.870501
11
76.905575
21
111.477940
0
LINE
8
Layer 1
10
76.905575
20
111.477940
11
77.161339
21
112.500998
0
LINE
8
Layer 1
10
77.161339
20
112.500998
11
77.258353
21
114.053220
0
LINE
8
Layer 1
10
77.258353
20
114.053220
11
77.328909
21
115.459922
0
LINE
8
Layer 1
10
77.328909
20
115.459922
11
77.505298
21
116.205170
0
LINE
8
Layer 1
10
77.505298
20
116.205170
11
78.925231
21
116.328642
0
LINE
8
Layer 1
10
78.925231
20
116.328642
11
81.985578
21
116.346281
0
LINE
8
Layer 1
10
81.985578
20
116.346281
11
86.254188
21
116.240448
0
LINE
8
Layer 1
10
86.254188
20
116.240448
11
86.324744
21
114.829338
0
LINE
8
Layer 1
10
86.324744
20
114.829338
11
86.324755
21
114.829328
0
LINE
8
Layer 1
10
91.828095
20
113.065438
11
92.674762
21
109.467098
0
LINE
8
Layer 1
10
92.674762
20
109.467098
11
92.776186
21
109.021716
0
LINE
8
Layer 1
10
92.776186
20
109.021716
11
92.321984
21
109.290709
0
LINE
8
Layer 1
10
92.321984
20
109.290709
11
91.806046
21
109.572932
0
LINE
8
Layer 1
10
91.806046
20
109.572932
11
91.369483
21
109.537654
0
LINE
8
Layer 1
10
91.369483
20
109.537654
11
91.210182
21
108.095674
0
LINE
8
Layer 1
10
91.210182
20
108.095674
11
91.100490
21
103.875564
0
LINE
8
Layer 1
10
91.100490
20
103.875564
11
91.016705
21
86.465954
0
LINE
8
Layer 1
10
91.016705
20
86.465954
11
91.051983
21
63.641254
0
LINE
8
Layer 1
10
91.051983
20
63.641254
11
89.464483
21
60.219304
0
LINE
8
Layer 1
10
89.464483
20
60.219304
11
87.876983
21
56.797354
0
LINE
8
Layer 1
10
87.876983
20
56.797354
11
86.254203
21
56.797354
0
LINE
8
Layer 1
10
86.254203
20
56.797354
11
84.631423
21
56.797354
0
LINE
8
Layer 1
10
84.631423
20
56.797354
11
84.913645
21
73.130954
0
LINE
8
Layer 1
10
84.913645
20
73.130954
11
85.195867
21
94.015454
0
LINE
8
Layer 1
10
85.195867
20
94.015454
11
85.090033
21
97.962158
0
LINE
8
Layer 1
10
85.090033
20
97.962158
11
84.868445
21
98.544793
0
LINE
8
Layer 1
10
84.868445
20
98.544793
11
84.455033
21
98.707404
0
LINE
8
Layer 1
10
84.455033
20
98.707404
11
83.802393
21
98.623620
0
LINE
8
Layer 1
10
83.802393
20
98.623620
11
83.255583
21
98.248793
0
LINE
8
Layer 1
10
83.255583
20
98.248793
11
82.673500
21
97.708602
0
LINE
8
Layer 1
10
82.673500
20
97.708602
11
82.561052
21
97.770062
0
LINE
8
Layer 1
10
82.561052
20
97.770062
11
82.567666
21
98.054765
0
LINE
8
Layer 1
10
82.567666
20
98.054765
11
83.784750
21
101.459073
0
LINE
8
Layer 1
10
83.784750
20
101.459073
11
84.715755
21
103.576846
0
LINE
8
Layer 1
10
84.715755
20
103.576846
11
85.517774
21
105.039773
0
LINE
8
Layer 1
10
85.517774
20
105.039773
11
86.220573
21
105.894158
0
LINE
8
Layer 1
10
86.220573
20
105.894158
11
86.853920
21
106.186303
0
LINE
8
Layer 1
10
86.853920
20
106.186303
11
87.279458
21
106.492779
0
LINE
8
Layer 1
10
87.279458
20
106.492779
11
87.638851
21
107.341651
0
LINE
8
Layer 1
10
87.638851
20
107.341651
11
87.905641
21
108.627087
0
LINE
8
Layer 1
10
87.905641
20
108.627087
11
88.053370
21
110.243253
0
LINE
8
Layer 1
10
88.053370
20
110.243253
11
88.317953
21
112.465756
0
LINE
8
Layer 1
10
88.317953
20
112.465756
11
88.794204
21
114.370753
0
LINE
8
Layer 1
10
88.794204
20
114.370753
11
89.446844
21
115.746585
0
LINE
8
Layer 1
10
89.446844
20
115.746585
11
89.816160
21
115.997938
0
LINE
8
Layer 1
10
89.816160
20
115.997938
11
90.311154
21
116.064083
0
LINE
8
Layer 1
10
90.311154
20
116.064083
11
90.821028
21
115.992425
0
LINE
8
Layer 1
10
90.821028
20
115.992425
11
91.162231
21
115.623111
0
LINE
8
Layer 1
10
91.162231
20
115.623111
11
91.828104
21
113.065473
0
LINE
8
Layer 1
10
91.828104
20
113.065473
11
91.828095
21
113.065438
0
LINE
8
Layer 1
10
49.388895
20
105.904048
11
49.679937
21
102.332170
0
LINE
8
Layer 1
10
49.679937
20
102.332170
11
49.994131
21
101.597949
0
LINE
8
Layer 1
10
49.994131
20
101.597949
11
50.553065
21
101.035708
0
LINE
8
Layer 1
10
50.553065
20
101.035708
11
51.140109
21
100.605760
0
LINE
8
Layer 1
10
51.140109
20
100.605760
11
51.783377
21
100.347791
0
LINE
8
Layer 1
10
51.783377
20
100.347791
11
53.833905
21
100.189041
0
LINE
8
Layer 1
10
53.833905
20
100.189041
11
56.091685
21
100.189041
0
LINE
8
Layer 1
10
56.091685
20
100.189041
11
56.091685
21
98.742651
0
LINE
8
Layer 1
10
56.091685
20
98.742651
11
56.210747
21
97.613761
0
LINE
8
Layer 1
10
56.210747
20
97.613761
11
56.404224
21
97.432963
0
LINE
8
Layer 1
10
56.404224
20
97.432963
11
56.726685
21
97.437371
0
LINE
8
Layer 1
10
56.726685
20
97.437371
11
57.005600
21
97.559190
0
LINE
8
Layer 1
10
57.005600
20
97.559190
11
57.211755
21
97.829837
0
LINE
8
Layer 1
10
57.211755
20
97.829837
11
57.432241
21
98.883761
0
LINE
8
Layer 1
10
57.432241
20
98.883761
11
57.538074
21
100.189041
0
LINE
8
Layer 1
10
57.538074
20
100.189041
11
59.548904
21
100.189041
0
LINE
8
Layer 1
10
59.548904
20
100.189041
11
61.299565
21
100.356611
0
LINE
8
Layer 1
10
61.299565
20
100.356611
11
62.441684
21
100.894597
0
LINE
8
Layer 1
10
62.441684
20
100.894597
11
62.939432
21
101.366989
0
LINE
8
Layer 1
10
62.939432
20
101.366989
11
63.222205
21
102.080814
0
LINE
8
Layer 1
10
63.222205
20
102.080814
11
63.500014
21
105.727657
0
LINE
8
Layer 1
10
63.500014
20
105.727657
11
63.676403
21
109.890437
0
LINE
8
Layer 1
10
63.676403
20
109.890437
11
66.075293
21
109.996270
0
LINE
8
Layer 1
10
66.075293
20
109.996270
11
68.438903
21
110.102103
0
LINE
8
Layer 1
10
68.438903
20
110.102103
11
68.438903
21
108.479323
0
LINE
8
Layer 1
10
68.438903
20
108.479323
11
68.302202
21
107.143177
0
LINE
8
Layer 1
10
68.302202
20
107.143177
11
68.037067
21
106.936472
0
LINE
8
Layer 1
10
68.037067
20
106.936472
11
67.556958
21
106.891823
0
LINE
8
Layer 1
10
67.556958
20
106.891823
11
66.955719
21
106.836977
0
LINE
8
Layer 1
10
66.955719
20
106.836977
11
66.490906
21
106.618421
0
LINE
8
Layer 1
10
66.490906
20
106.618421
11
66.146809
21
106.155124
0
LINE
8
Layer 1
10
66.146809
20
106.155124
11
65.907719
21
105.366059
0
LINE
8
Layer 1
10
65.907719
20
105.366059
11
65.681722
21
102.486510
0
LINE
8
Layer 1
10
65.681722
20
102.486510
11
65.687238
21
97.331543
0
LINE
8
Layer 1
10
65.687238
20
97.331543
11
65.793071
21
89.429313
0
LINE
8
Layer 1
10
65.793071
20
89.429313
11
67.133631
21
89.323480
0
LINE
8
Layer 1
10
67.133631
20
89.323480
11
68.438911
21
89.217647
0
LINE
8
Layer 1
10
68.438911
20
89.217647
11
68.438911
21
86.042647
0
LINE
8
Layer 1
10
68.438911
20
86.042647
11
68.438911
21
82.902927
0
LINE
8
Layer 1
10
68.438911
20
82.902927
11
63.006131
21
82.902927
0
LINE
8
Layer 1
10
63.006131
20
82.902927
11
58.349462
21
83.004351
0
LINE
8
Layer 1
10
58.349462
20
83.004351
11
57.628472
21
83.215467
0
LINE
8
Layer 1
10
57.628472
20
83.215467
11
57.396961
21
83.608483
0
LINE
8
Layer 1
10
57.396961
20
83.608483
11
57.105919
21
84.106782
0
LINE
8
Layer 1
10
57.105919
20
84.106782
11
56.656127
21
84.314039
0
LINE
8
Layer 1
10
56.656127
20
84.314039
11
56.254842
21
84.120012
0
LINE
8
Layer 1
10
56.254842
20
84.120012
11
56.091682
21
83.608483
0
LINE
8
Layer 1
10
56.091682
20
83.608483
11
55.985297
21
83.215467
0
LINE
8
Layer 1
10
55.985297
20
83.215467
11
55.425814
21
83.004351
0
LINE
8
Layer 1
10
55.425814
20
83.004351
11
51.505572
21
82.902927
0
LINE
8
Layer 1
10
51.505572
20
82.902927
11
46.919462
21
82.902927
0
LINE
8
Layer 1
10
46.919462
20
82.902927
11
46.919462
21
94.474027
0
LINE
8
Layer 1
10
46.919462
20
94.474027
11
46.818038
21
104.550265
0
LINE
8
Layer 1
10
46.818038
20
104.550265
11
46.606923
21
106.117370
0
LINE
8
Layer 1
10
46.606923
20
106.117370
11
46.213906
21
106.715427
0
LINE
8
Layer 1
10
46.213906
20
106.715427
11
45.689149
21
107.535635
0
LINE
8
Layer 1
10
45.689149
20
107.535635
11
45.508350
21
108.726257
0
LINE
8
Layer 1
10
45.508350
20
108.726257
11
45.508350
21
110.102087
0
LINE
8
Layer 1
10
45.508350
20
110.102087
11
47.378070
21
109.996254
0
LINE
8
Layer 1
10
47.378070
20
109.996254
11
49.212520
21
109.890421
0
LINE
8
Layer 1
10
49.212520
20
109.890421
11
49.388909
21
105.904031
0
LINE
8
Layer 1
10
49.388909
20
105.904031
11
49.388895
21
105.904048
0
LINE
8
Layer 1
10
86.113095
20
107.844328
11
85.813234
21
107.645891
0
LINE
8
Layer 1
10
85.813234
20
107.645891
11
85.936706
21
108.055995
0
LINE
8
Layer 1
10
85.936706
20
108.055995
11
86.148373
21
108.439642
0
LINE
8
Layer 1
10
86.148373
20
108.439642
11
86.360040
21
108.479329
0
LINE
8
Layer 1
10
86.360040
20
108.479329
11
86.368859
21
108.214746
0
LINE
8
Layer 1
10
86.368859
20
108.214746
11
86.113095
21
107.844329
0
LINE
8
Layer 1
10
86.113095
20
107.844329
11
86.113095
21
107.844328
0
LINE
8
Layer 1
10
94.156435
20
101.776548
11
94.764977
21
97.446200
0
LINE
8
Layer 1
10
94.764977
20
97.446200
11
95.214765
21
92.957098
0
LINE
8
Layer 1
10
95.214765
20
92.957098
11
95.982059
21
78.030197
0
LINE
8
Layer 1
10
95.982059
20
78.030197
11
96.197033
21
70.945423
0
LINE
8
Layer 1
10
96.197033
20
70.945423
11
96.167266
21
67.839298
0
LINE
8
Layer 1
10
96.167266
20
67.839298
11
96.021745
21
67.887805
0
LINE
8
Layer 1
10
96.021745
20
67.887805
11
95.955599
21
68.333187
0
LINE
8
Layer 1
10
95.955599
20
68.333187
11
95.809527
21
68.964329
0
LINE
8
Layer 1
10
95.809527
20
68.964329
11
95.448481
21
69.466486
0
LINE
8
Layer 1
10
95.448481
20
69.466486
11
94.988216
21
69.737133
0
LINE
8
Layer 1
10
94.988216
20
69.737133
11
94.544489
21
69.673747
0
LINE
8
Layer 1
10
94.544489
20
69.673747
11
94.050600
21
69.171039
0
LINE
8
Layer 1
10
94.050600
20
69.171039
11
93.450879
21
68.297917
0
LINE
8
Layer 1
10
93.450879
20
68.297917
11
93.229704
21
67.984483
0
LINE
8
Layer 1
10
93.229704
20
67.984483
11
93.063926
21
68.012940
0
LINE
8
Layer 1
10
93.063926
20
68.012940
11
92.868796
21
69.986843
0
LINE
8
Layer 1
10
92.868796
20
69.986843
11
92.815879
21
87.841817
0
LINE
8
Layer 1
10
92.815879
20
87.841817
11
92.939351
21
102.371867
0
LINE
8
Layer 1
10
92.939351
20
102.371867
11
93.044082
21
106.232024
0
LINE
8
Layer 1
10
93.044082
20
106.232024
11
93.104303
21
107.121343
0
LINE
8
Layer 1
10
93.104303
20
107.121343
11
93.168657
21
107.244617
0
LINE
8
Layer 1
10
93.168657
20
107.244617
11
94.156435
21
101.776557
0
LINE
8
Layer 1
10
94.156435
20
101.776557
11
94.156435
21
101.776548
0
LINE
8
Layer 1
10
117.827835
20
106.045158
11
117.510335
21
105.163213
0
LINE
8
Layer 1
10
117.510335
20
105.163213
11
117.327883
21
104.974146
0
LINE
8
Layer 1
10
117.327883
20
104.974146
11
117.135508
21
105.000053
0
LINE
8
Layer 1
10
117.135508
20
105.000053
11
116.628390
21
105.762936
0
LINE
8
Layer 1
10
116.628390
20
105.762936
11
116.125681
21
107.019706
0
LINE
8
Layer 1
10
116.125681
20
107.019706
11
116.360499
21
107.067661
0
LINE
8
Layer 1
10
116.360499
20
107.067661
11
116.945890
21
106.821266
0
LINE
8
Layer 1
10
116.945890
20
106.821266
11
117.572071
21
106.433210
0
LINE
8
Layer 1
10
117.572071
20
106.433210
11
117.827835
21
106.045154
0
LINE
8
Layer 1
10
117.827835
20
106.045154
11
117.827835
21
106.045158
0
LINE
8
Layer 1
10
44.379435
20
94.121258
11
44.449991
21
82.902958
0
LINE
8
Layer 1
10
44.449991
20
82.902958
11
41.274991
21
82.902958
0
LINE
8
Layer 1
10
41.274991
20
82.902958
11
38.099991
21
82.902958
0
LINE
8
Layer 1
10
38.099991
20
82.902958
11
38.099991
21
94.191858
0
LINE
8
Layer 1
10
38.099991
20
94.191858
11
38.099991
21
105.516058
0
LINE
8
Layer 1
10
38.099991
20
105.516058
11
41.204441
21
105.410225
0
LINE
8
Layer 1
10
41.204441
20
105.410225
11
44.273611
21
105.304392
0
LINE
8
Layer 1
10
44.273611
20
105.304392
11
44.379444
21
94.121292
0
LINE
8
Layer 1
10
44.379444
20
94.121292
11
44.379435
21
94.121258
0
LINE
8
Layer 1
10
68.438935
20
98.072368
11
68.346331
21
91.986948
0
LINE
8
Layer 1
10
68.346331
20
91.986948
11
68.185927
21
90.928613
0
LINE
8
Layer 1
10
68.185927
20
90.928613
11
67.909768
21
90.664028
0
LINE
8
Layer 1
10
67.909768
20
90.664028
11
67.633609
21
90.928611
0
LINE
8
Layer 1
10
67.633609
20
90.928611
11
67.473205
21
91.986945
0
LINE
8
Layer 1
10
67.473205
20
91.986945
11
67.380601
21
98.072368
0
LINE
8
Layer 1
10
67.380601
20
98.072368
11
67.473205
21
104.157788
0
LINE
8
Layer 1
10
67.473205
20
104.157788
11
67.633609
21
105.216124
0
LINE
8
Layer 1
10
67.633609
20
105.216124
11
67.909768
21
105.480708
0
LINE
8
Layer 1
10
67.909768
20
105.480708
11
68.185927
21
105.216125
0
LINE
8
Layer 1
10
68.185927
20
105.216125
11
68.346331
21
104.157792
0
LINE
8
Layer 1
10
68.346331
20
104.157792
11
68.438935
21
98.072368
0
LINE
8
Layer 1
10
68.438935
20
98.072368
11
68.438935
21
98.072368
0
LINE
8
Layer 1
10
129.257835
20
99.800978
11
127.022105
21
94.310870
0
LINE
8
Layer 1
10
127.022105
20
94.310870
11
126.216780
21
92.672105
0
LINE
8
Layer 1
10
126.216780
20
92.672105
11
125.765335
21
92.075138
0
LINE
8
Layer 1
10
125.765335
20
92.075138
11
125.637453
21
93.574446
0
LINE
8
Layer 1
10
125.637453
20
93.574446
11
125.588946
21
97.190418
0
LINE
8
Layer 1
10
125.588946
20
97.190418
11
125.694779
21
101.507538
0
LINE
8
Layer 1
10
125.694779
20
101.507538
11
125.886602
21
102.255540
0
LINE
8
Layer 1
10
125.886602
20
102.255540
11
126.223946
21
102.517368
0
LINE
8
Layer 1
10
126.223946
20
102.517368
11
128.763946
21
103.540428
0
LINE
8
Layer 1
10
128.763946
20
103.540428
11
130.810056
21
104.245984
0
LINE
8
Layer 1
10
130.810056
20
104.245984
11
129.257836
21
99.800984
0
LINE
8
Layer 1
10
129.257836
20
99.800984
11
129.257835
21
99.800978
0
LINE
8
Layer 1
10
158.997035
20
102.517368
11
158.185646
21
100.047918
0
LINE
8
Layer 1
10
158.185646
20
100.047918
11
157.599153
21
98.504515
0
LINE
8
Layer 1
10
157.599153
20
98.504515
11
157.436544
21
98.460418
0
LINE
8
Layer 1
10
157.436544
20
98.460418
11
157.303701
21
98.813198
0
LINE
8
Layer 1
10
157.303701
20
98.813198
11
157.122902
21
100.118478
0
LINE
8
Layer 1
10
157.122902
20
100.118478
11
157.021479
21
102.058758
0
LINE
8
Layer 1
10
157.021479
20
102.058758
11
156.986201
21
104.457648
0
LINE
8
Layer 1
10
156.986201
20
104.457648
11
158.079811
21
103.716814
0
LINE
8
Layer 1
10
158.079811
20
103.716814
11
158.776548
21
103.050945
0
LINE
8
Layer 1
10
158.776548
20
103.050945
11
158.997034
21
102.517364
0
LINE
8
Layer 1
10
158.997034
20
102.517364
11
158.997035
21
102.517368
0
LINE
8
Layer 1
10
100.718135
20
101.423758
11
100.541746
21
100.294868
0
LINE
8
Layer 1
10
100.541746
20
100.294868
11
100.444181
21
99.881457
0
LINE
8
Layer 1
10
100.444181
20
99.881457
11
100.211017
21
99.871535
0
LINE
8
Layer 1
10
100.211017
20
99.871535
11
99.931550
21
100.205572
0
LINE
8
Layer 1
10
99.931550
20
100.205572
11
99.695079
21
100.824035
0
LINE
8
Layer 1
10
99.695079
20
100.824035
11
99.271745
21
102.623205
0
LINE
8
Layer 1
10
99.271745
20
102.623205
11
99.024800
21
103.469872
0
LINE
8
Layer 1
10
99.024800
20
103.469872
11
99.942023
21
102.799594
0
LINE
8
Layer 1
10
99.942023
20
102.799594
11
100.634350
21
102.124907
0
LINE
8
Layer 1
10
100.634350
20
102.124907
11
100.750657
21
101.782603
0
LINE
8
Layer 1
10
100.750657
20
101.782603
11
100.718135
21
101.423764
0
LINE
8
Layer 1
10
100.718135
20
101.423764
11
100.718135
21
101.423758
0
LINE
8
Layer 1
10
177.235635
20
100.612369
11
180.375355
21
99.271809
0
LINE
8
Layer 1
10
180.375355
20
99.271809
11
182.809525
21
94.579859
0
LINE
8
Layer 1
10
182.809525
20
94.579859
11
184.480811
21
91.206419
0
LINE
8
Layer 1
10
184.480811
20
91.206419
11
185.067305
21
89.711519
0
LINE
8
Layer 1
10
185.067305
20
89.711519
11
184.617513
21
89.702700
0
LINE
8
Layer 1
10
184.617513
20
89.702700
11
183.797305
21
89.958464
0
LINE
8
Layer 1
10
183.797305
20
89.958464
11
182.805115
21
90.245097
0
LINE
8
Layer 1
10
182.805115
20
90.245097
11
182.492576
21
90.161863
0
LINE
8
Layer 1
10
182.492576
20
90.161863
11
182.209805
21
89.923187
0
LINE
8
Layer 1
10
182.209805
20
89.923187
11
182.021289
21
89.462370
0
LINE
8
Layer 1
10
182.021289
20
89.462370
11
182.209805
21
88.485615
0
LINE
8
Layer 1
10
182.209805
20
88.485615
11
184.114805
21
83.608457
0
LINE
8
Layer 1
10
184.114805
20
83.608457
11
186.443135
21
77.681787
0
LINE
8
Layer 1
10
186.443135
20
77.681787
11
185.243685
21
77.999287
0
LINE
8
Layer 1
10
185.243685
20
77.999287
11
184.273545
21
78.215363
0
LINE
8
Layer 1
10
184.273545
20
78.215363
11
183.726735
21
78.034564
0
LINE
8
Layer 1
10
183.726735
20
78.034564
11
183.529951
21
77.556661
0
LINE
8
Layer 1
10
183.529951
20
77.556661
11
183.713505
21
75.957589
0
LINE
8
Layer 1
10
183.713505
20
75.957589
11
186.055065
21
64.593764
0
LINE
8
Layer 1
10
186.055065
20
64.593764
11
187.677845
21
56.550424
0
LINE
8
Layer 1
10
187.677845
20
56.550424
11
187.610597
21
56.331041
0
LINE
8
Layer 1
10
187.610597
20
56.331041
11
187.404442
21
56.197647
0
LINE
8
Layer 1
10
187.404442
20
56.197647
11
186.548955
21
56.162368
0
LINE
8
Layer 1
10
186.548955
20
56.162368
11
185.384785
21
56.268201
0
LINE
8
Layer 1
10
185.384785
20
56.268201
11
183.021175
21
63.323761
0
LINE
8
Layer 1
10
183.021175
20
63.323761
11
181.133814
21
69.246028
0
LINE
8
Layer 1
10
181.133814
20
69.246028
11
179.881455
21
73.554361
0
LINE
8
Layer 1
10
179.881455
20
73.554361
11
179.197948
21
76.032626
0
LINE
8
Layer 1
10
179.197948
20
76.032626
11
178.646735
21
77.505471
0
LINE
8
Layer 1
10
178.646735
20
77.505471
11
178.405854
21
78.290403
0
LINE
8
Layer 1
10
178.405854
20
78.290403
11
178.254269
21
79.948459
0
LINE
8
Layer 1
10
178.254269
20
79.948459
11
178.152846
21
87.101031
0
LINE
8
Layer 1
10
178.152846
20
87.101031
11
178.086700
21
93.468676
0
LINE
8
Layer 1
10
178.086700
20
93.468676
11
177.941179
21
96.449651
0
LINE
8
Layer 1
10
177.941179
20
96.449651
11
177.620923
21
96.886214
0
LINE
8
Layer 1
10
177.620923
20
96.886214
11
177.125381
21
96.978818
0
LINE
8
Layer 1
10
177.125381
20
96.978818
11
176.438016
21
96.727464
0
LINE
8
Layer 1
10
176.438016
20
96.727464
11
175.542289
21
96.132151
0
LINE
8
Layer 1
10
175.542289
20
96.132151
11
174.413399
21
95.250206
0
LINE
8
Layer 1
10
174.413399
20
95.250206
11
174.060621
21
98.601596
0
LINE
8
Layer 1
10
174.060621
20
98.601596
11
173.884232
21
100.965210
0
LINE
8
Layer 1
10
173.884232
20
100.965210
11
173.919510
21
101.952986
0
LINE
8
Layer 1
10
173.919510
20
101.952986
11
177.235620
21
100.612426
0
LINE
8
Layer 1
10
177.235620
20
100.612426
11
177.235635
21
100.612369
0
LINE
8
Layer 1
10
182.527305
20
100.541814
11
182.305716
21
100.590321
0
LINE
8
Layer 1
10
182.305716
20
100.590321
11
182.024596
21
100.903412
0
LINE
8
Layer 1
10
182.024596
20
100.903412
11
181.680638
21
101.741264
0
LINE
8
Layer 1
10
181.680638
20
101.741264
11
181.718121
21
101.830010
0
LINE
8
Layer 1
10
181.718121
20
101.830010
11
181.821749
21
101.789771
0
LINE
8
Layer 1
10
181.821749
20
101.789771
11
182.174527
21
101.388486
0
LINE
8
Layer 1
10
182.174527
20
101.388486
11
182.483208
21
100.872548
0
LINE
8
Layer 1
10
182.483208
20
100.872548
11
182.527305
21
100.541819
0
LINE
8
Layer 1
10
182.527305
20
100.541819
11
182.527305
21
100.541814
0
LINE
8
Layer 1
10
118.886105
20
97.578474
11
119.485828
21
96.431946
0
LINE
8
Layer 1
10
119.485828
20
96.431946
11
119.382199
21
96.338240
0
LINE
8
Layer 1
10
119.382199
20
96.338240
11
119.027216
21
96.449584
0
LINE
8
Layer 1
10
119.027216
20
96.449584
11
117.721936
21
96.943473
0
LINE
8
Layer 1
10
117.721936
20
96.943473
11
117.267734
21
97.243334
0
LINE
8
Layer 1
10
117.267734
20
97.243334
11
117.263325
21
97.860696
0
LINE
8
Layer 1
10
117.263325
20
97.860696
11
117.474992
21
99.130696
0
LINE
8
Layer 1
10
117.474992
20
99.130696
11
117.541689
21
99.394177
0
LINE
8
Layer 1
10
117.541689
20
99.394177
11
117.770443
21
99.254169
0
LINE
8
Layer 1
10
117.770443
20
99.254169
11
118.886102
21
97.578476
0
LINE
8
Layer 1
10
118.886102
20
97.578476
11
118.886105
21
97.578474
0
LINE
8
Layer 1
10
142.098905
20
93.733194
11
142.542083
21
93.181427
0
LINE
8
Layer 1
10
142.542083
20
93.181427
11
142.733906
21
92.467603
0
LINE
8
Layer 1
10
142.733906
20
92.467603
11
142.522239
21
88.900134
0
LINE
8
Layer 1
10
142.522239
20
88.900134
11
142.063628
21
84.807914
0
LINE
8
Layer 1
10
142.063628
20
84.807914
11
141.499183
21
88.653194
0
LINE
8
Layer 1
10
141.499183
20
88.653194
11
140.864183
21
93.592084
0
LINE
8
Layer 1
10
140.864183
20
93.592084
11
140.809061
21
94.259055
0
LINE
8
Layer 1
10
140.809061
20
94.259055
11
141.005294
21
94.509306
0
LINE
8
Layer 1
10
141.005294
20
94.509306
11
141.439651
21
94.336224
0
LINE
8
Layer 1
10
141.439651
20
94.336224
11
142.098903
21
93.733195
0
LINE
8
Layer 1
10
142.098903
20
93.733195
11
142.098905
21
93.733194
0
LINE
8
Layer 1
10
160.478605
20
87.312634
11
159.671625
21
70.674734
0
LINE
8
Layer 1
10
159.671625
20
70.674734
11
159.314435
21
66.392934
0
LINE
8
Layer 1
10
159.314435
20
66.392934
11
159.168914
21
66.930920
0
LINE
8
Layer 1
10
159.168914
20
66.930920
11
159.102768
21
68.474324
0
LINE
8
Layer 1
10
159.102768
20
68.474324
11
158.397212
21
81.315424
0
LINE
8
Layer 1
10
158.397212
20
81.315424
11
157.656378
21
91.898724
0
LINE
8
Layer 1
10
157.656378
20
91.898724
11
159.173328
21
93.204004
0
LINE
8
Layer 1
10
159.173328
20
93.204004
11
160.760828
21
94.438724
0
LINE
8
Layer 1
10
160.760828
20
94.438724
11
160.478606
21
87.312604
0
LINE
8
Layer 1
10
160.478606
20
87.312604
11
160.478605
21
87.312634
0
LINE
8
Layer 1
10
176.388905
20
87.594856
11
176.340398
21
83.013148
0
LINE
8
Layer 1
10
176.340398
20
83.013148
11
176.212516
21
81.209576
0
LINE
8
Layer 1
10
176.212516
20
81.209576
11
175.365849
21
87.171526
0
LINE
8
Layer 1
10
175.365849
20
87.171526
11
174.902828
21
92.128053
0
LINE
8
Layer 1
10
174.902828
20
92.128053
11
174.983857
21
93.084965
0
LINE
8
Layer 1
10
174.983857
20
93.084965
11
175.260016
21
93.592086
0
LINE
8
Layer 1
10
175.260016
20
93.592086
11
175.723037
21
94.011010
0
LINE
8
Layer 1
10
175.723037
20
94.011010
11
176.106683
21
94.191809
0
LINE
8
Layer 1
10
176.106683
20
94.191809
11
176.300711
21
92.255938
0
LINE
8
Layer 1
10
176.300711
20
92.255938
11
176.388905
21
87.594859
0
LINE
8
Layer 1
10
176.388905
20
87.594859
11
176.388905
21
87.594856
0
LINE
8
Layer 1
10
44.449905
20
79.586796
11
44.374940
21
78.171277
0
LINE
8
Layer 1
10
44.374940
20
78.171277
11
44.167683
21
77.470126
0
LINE
8
Layer 1
10
44.167683
20
77.470126
11
40.992683
21
77.505404
0
LINE
8
Layer 1
10
40.992683
20
77.505404
11
38.099903
21
77.717071
0
LINE
8
Layer 1
10
38.099903
20
77.717071
11
38.099903
21
79.586791
0
LINE
8
Layer 1
10
38.099903
20
79.586791
11
38.099903
21
81.491791
0
LINE
8
Layer 1
10
38.099903
20
81.491791
11
41.274903
21
81.491791
0
LINE
8
Layer 1
10
41.274903
20
81.491791
11
44.449903
21
81.491791
0
LINE
8
Layer 1
10
44.449903
20
81.491791
11
44.449903
21
79.586791
0
LINE
8
Layer 1
10
44.449903
20
79.586791
11
44.449905
21
79.586796
0
LINE
8
Layer 1
10
56.091605
20
80.786246
11
56.232716
21
80.287947
0
LINE
8
Layer 1
10
56.232716
20
80.287947
11
56.585494
21
80.080690
0
LINE
8
Layer 1
10
56.585494
20
80.080690
11
57.022057
21
80.287947
0
LINE
8
Layer 1
10
57.022057
20
80.287947
11
57.326328
21
80.786246
0
LINE
8
Layer 1
10
57.326328
20
80.786246
11
57.578785
21
81.179262
0
LINE
8
Layer 1
10
57.578785
20
81.179262
11
58.314107
21
81.390378
0
LINE
8
Layer 1
10
58.314107
20
81.390378
11
63.006058
21
81.491802
0
LINE
8
Layer 1
10
63.006058
20
81.491802
11
68.438838
21
81.491802
0
LINE
8
Layer 1
10
68.438838
20
81.491802
11
68.438838
21
48.683402
0
LINE
8
Layer 1
10
68.438838
20
48.683402
11
68.438838
21
15.875002
0
LINE
8
Layer 1
10
68.438838
20
15.875002
11
56.973538
21
15.875002
0
LINE
8
Layer 1
10
56.973538
20
15.875002
11
45.508238
21
15.875002
0
LINE
8
Layer 1
10
45.508238
20
15.875002
11
45.508238
21
45.861102
0
LINE
8
Layer 1
10
45.508238
20
45.861102
11
45.596433
21
72.006352
0
LINE
8
Layer 1
10
45.596433
20
72.006352
11
45.805894
21
75.343949
0
LINE
8
Layer 1
10
45.805894
20
75.343949
11
45.980905
21
75.778508
0
LINE
8
Layer 1
10
45.980905
20
75.778508
11
46.213794
21
75.847202
0
LINE
8
Layer 1
10
46.213794
20
75.847202
11
46.591928
21
75.926026
0
LINE
8
Layer 1
10
46.591928
20
75.926026
11
46.804697
21
76.292584
0
LINE
8
Layer 1
10
46.804697
20
76.292584
11
46.919350
21
78.669422
0
LINE
8
Layer 1
10
46.919350
20
78.669422
11
46.919350
21
81.491642
0
LINE
8
Layer 1
10
46.919350
20
81.491642
11
51.505460
21
81.491642
0
LINE
8
Layer 1
10
51.505460
20
81.491642
11
55.425704
21
81.390218
0
LINE
8
Layer 1
10
55.425704
20
81.390218
11
55.985186
21
81.179103
0
LINE
8
Layer 1
10
55.985186
20
81.179103
11
56.091570
21
80.786086
0
LINE
8
Layer 1
10
56.091570
20
80.786086
11
56.091605
21
80.786246
0
LINE
8
Layer 1
10
141.675505
20
67.380646
11
147.050960
21
45.279108
0
LINE
8
Layer 1
10
147.050960
20
45.279108
11
150.494955
21
31.644246
0
LINE
8
Layer 1
10
150.494955
20
31.644246
11
150.502672
21
31.327297
0
LINE
8
Layer 1
10
150.502672
20
31.327297
11
150.133358
21
31.145947
0
LINE
8
Layer 1
10
150.133358
20
31.145947
11
147.496345
21
31.044523
0
LINE
8
Layer 1
10
147.496345
20
31.044523
11
144.286065
21
31.185634
0
LINE
8
Layer 1
10
144.286065
20
31.185634
11
143.756898
21
36.053974
0
LINE
8
Layer 1
10
143.756898
20
36.053974
11
142.279639
21
51.382176
0
LINE
8
Layer 1
10
142.279639
20
51.382176
11
141.463838
21
62.159574
0
LINE
8
Layer 1
10
141.463838
20
62.159574
11
141.394385
21
63.511156
0
LINE
8
Layer 1
10
141.394385
20
63.511156
11
141.172796
21
64.373256
0
LINE
8
Layer 1
10
141.172796
20
64.373256
11
140.779229
21
64.798793
0
LINE
8
Layer 1
10
140.779229
20
64.798793
11
140.193838
21
64.840684
0
LINE
8
Layer 1
10
140.193838
20
64.840684
11
139.852084
21
64.697368
0
LINE
8
Layer 1
10
139.852084
20
64.697368
11
139.602935
21
64.329156
0
LINE
8
Layer 1
10
139.602935
20
64.329156
11
139.276615
21
62.653464
0
LINE
8
Layer 1
10
139.276615
20
62.653464
11
138.363800
21
52.048079
0
LINE
8
Layer 1
10
138.363800
20
52.048079
11
137.371615
21
38.558764
0
LINE
8
Layer 1
10
137.371615
20
38.558764
11
137.159948
21
34.607654
0
LINE
8
Layer 1
10
137.159948
20
34.607654
11
134.514118
21
34.395987
0
LINE
8
Layer 1
10
134.514118
20
34.395987
11
132.617937
21
34.268105
0
LINE
8
Layer 1
10
132.617937
20
34.268105
11
131.727168
21
34.325431
0
LINE
8
Layer 1
10
131.727168
20
34.325431
11
131.852846
21
35.524877
0
LINE
8
Layer 1
10
131.852846
20
35.524877
11
132.494462
21
38.867452
0
LINE
8
Layer 1
10
132.494462
20
38.867452
11
135.325508
21
52.034931
0
LINE
8
Layer 1
10
135.325508
20
52.034931
11
137.658252
21
62.944600
0
LINE
8
Layer 1
10
137.658252
20
62.944600
11
139.170788
21
70.732131
0
LINE
8
Layer 1
10
139.170788
20
70.732131
11
139.621682
21
73.026291
0
LINE
8
Layer 1
10
139.621682
20
73.026291
11
139.814470
21
73.491655
0
LINE
8
Layer 1
10
139.814470
20
73.491655
11
140.026274
21
73.448522
0
LINE
8
Layer 1
10
140.026274
20
73.448522
11
140.629303
21
71.674711
0
LINE
8
Layer 1
10
140.629303
20
71.674711
11
141.675508
21
67.380741
0
LINE
8
Layer 1
10
141.675508
20
67.380741
11
141.675505
21
67.380646
0
LINE
8
Layer 1
10
184.255805
20
54.257346
11
186.407755
21
47.977896
0
LINE
8
Layer 1
10
186.407755
20
47.977896
11
184.714425
21
48.718730
0
LINE
8
Layer 1
10
184.714425
20
48.718730
11
183.625775
21
49.157497
0
LINE
8
Layer 1
10
183.625775
20
49.157497
11
182.778558
21
49.265536
0
LINE
8
Layer 1
10
182.778558
20
49.265536
11
182.228996
21
49.056074
0
LINE
8
Layer 1
10
182.228996
20
49.056074
11
182.033315
21
48.542341
0
LINE
8
Layer 1
10
182.033315
20
48.542341
11
182.862343
21
46.253695
0
LINE
8
Layer 1
10
182.862343
20
46.253695
11
184.855535
21
41.451501
0
LINE
8
Layer 1
10
184.855535
20
41.451501
11
187.677755
21
34.748721
0
LINE
8
Layer 1
10
187.677755
20
34.748721
11
186.826678
21
34.612019
0
LINE
8
Layer 1
10
186.826678
20
34.612019
11
184.784975
21
34.501776
0
LINE
8
Layer 1
10
184.784975
20
34.501776
11
181.856915
21
34.395943
0
LINE
8
Layer 1
10
181.856915
20
34.395943
11
181.927471
21
31.573723
0
LINE
8
Layer 1
10
181.927471
20
31.573723
11
182.209693
21
27.975383
0
LINE
8
Layer 1
10
182.209693
20
27.975383
11
182.276941
21
27.536064
0
LINE
8
Layer 1
10
182.276941
20
27.536064
11
182.165596
21
27.291876
0
LINE
8
Layer 1
10
182.165596
20
27.291876
11
181.116083
21
27.163994
0
LINE
8
Layer 1
10
181.116083
20
27.163994
11
179.846083
21
27.163994
0
LINE
8
Layer 1
10
179.846083
20
27.163994
11
179.951916
21
42.121794
0
LINE
8
Layer 1
10
179.951916
20
42.121794
11
179.969554
21
54.089806
0
LINE
8
Layer 1
10
179.969554
20
54.089806
11
179.862619
21
56.637514
0
LINE
8
Layer 1
10
179.862619
20
56.637514
11
179.669694
21
57.538194
0
LINE
8
Layer 1
10
179.669694
20
57.538194
11
179.267511
21
57.853008
0
LINE
8
Layer 1
10
179.267511
20
57.853008
11
178.952560
21
57.827584
0
LINE
8
Layer 1
10
178.952560
20
57.827584
11
178.712849
21
57.356500
0
LINE
8
Layer 1
10
178.712849
20
57.356500
11
178.536391
21
56.334338
0
LINE
8
Layer 1
10
178.536391
20
56.334338
11
178.325276
21
52.215095
0
LINE
8
Layer 1
10
178.325276
20
52.215095
11
178.223304
21
44.626494
0
LINE
8
Layer 1
10
178.223304
20
44.626494
11
178.082193
21
32.102894
0
LINE
8
Layer 1
10
178.082193
20
32.102894
11
175.506913
21
32.102894
0
LINE
8
Layer 1
10
175.506913
20
32.102894
11
172.966913
21
32.102894
0
LINE
8
Layer 1
10
172.966913
20
32.102894
11
173.249135
21
33.972614
0
LINE
8
Layer 1
10
173.249135
20
33.972614
11
174.660245
21
41.380954
0
LINE
8
Layer 1
10
174.660245
20
41.380954
11
175.336586
21
45.026693
0
LINE
8
Layer 1
10
175.336586
20
45.026693
11
175.467225
21
46.946028
0
LINE
8
Layer 1
10
175.467225
20
46.946028
11
175.306202
21
47.396785
0
LINE
8
Layer 1
10
175.306202
20
47.396785
11
174.982707
21
47.582132
0
LINE
8
Layer 1
10
174.982707
20
47.582132
11
173.813578
21
47.378184
0
LINE
8
Layer 1
10
173.813578
20
47.378184
11
172.614128
21
47.025406
0
LINE
8
Layer 1
10
172.614128
20
47.025406
11
173.813578
21
52.175966
0
LINE
8
Layer 1
10
173.813578
20
52.175966
11
176.150730
21
62.485905
0
LINE
8
Layer 1
10
176.150730
20
62.485905
11
177.270798
21
68.192066
0
LINE
8
Layer 1
10
177.270798
20
68.192066
11
178.011632
21
71.966786
0
LINE
8
Layer 1
10
178.011632
20
71.966786
11
178.237629
21
71.697792
0
LINE
8
Layer 1
10
178.237629
20
71.697792
11
178.708366
21
70.582130
0
LINE
8
Layer 1
10
178.708366
20
70.582130
11
180.093022
21
66.498726
0
LINE
8
Layer 1
10
180.093022
20
66.498726
11
184.255802
21
54.257326
0
LINE
8
Layer 1
10
184.255802
20
54.257326
11
184.255805
21
54.257346
0
LINE
8
Layer 1
10
97.190205
20
55.209847
11
101.000205
21
39.546547
0
LINE
8
Layer 1
10
101.000205
20
39.546547
11
101.798364
21
35.965848
0
LINE
8
Layer 1
10
101.798364
20
35.965848
11
101.888212
21
35.061854
0
LINE
8
Layer 1
10
101.888212
20
35.061854
11
101.776317
21
34.713487
0
LINE
8
Layer 1
10
101.776317
20
34.713487
11
100.418123
21
34.625293
0
LINE
8
Layer 1
10
100.418123
20
34.625293
11
97.684097
21
34.642931
0
LINE
8
Layer 1
10
97.684097
20
34.642931
11
94.015207
21
34.748764
0
LINE
8
Layer 1
10
94.015207
20
34.748764
11
93.944651
21
37.394594
0
LINE
8
Layer 1
10
93.944651
20
37.394594
11
93.874096
21
40.499044
0
LINE
8
Layer 1
10
93.874096
20
40.499044
11
93.627151
21
40.807725
0
LINE
8
Layer 1
10
93.627151
20
40.807725
11
93.062707
21
40.851822
0
LINE
8
Layer 1
10
93.062707
20
40.851822
11
92.607954
21
40.718979
0
LINE
8
Layer 1
10
92.607954
20
40.718979
11
92.361561
21
40.318245
0
LINE
8
Layer 1
10
92.361561
20
40.318245
11
92.216040
21
37.747372
0
LINE
8
Layer 1
10
92.216040
20
37.747372
11
92.145484
21
34.748762
0
LINE
8
Layer 1
10
92.145484
20
34.748762
11
88.053264
21
34.642929
0
LINE
8
Layer 1
10
88.053264
20
34.642929
11
83.961044
21
34.678207
0
LINE
8
Layer 1
10
83.961044
20
34.678207
11
87.524104
21
42.157097
0
LINE
8
Layer 1
10
87.524104
20
42.157097
11
90.165530
21
47.898561
0
LINE
8
Layer 1
10
90.165530
20
47.898561
11
90.654457
21
49.300854
0
LINE
8
Layer 1
10
90.654457
20
49.300854
11
90.663824
21
49.882937
0
LINE
8
Layer 1
10
90.663824
20
49.882937
11
90.250964
21
50.024599
0
LINE
8
Layer 1
10
90.250964
20
50.024599
11
89.451151
21
49.904986
0
LINE
8
Layer 1
10
89.451151
20
49.904986
11
86.148264
21
48.789327
0
LINE
8
Layer 1
10
86.148264
20
48.789327
11
86.332922
21
49.409995
0
LINE
8
Layer 1
10
86.332922
20
49.409995
11
87.122815
21
51.241132
0
LINE
8
Layer 1
10
87.122815
20
51.241132
11
90.028824
21
57.397107
0
LINE
8
Layer 1
10
90.028824
20
57.397107
11
94.438544
21
66.181277
0
LINE
8
Layer 1
10
94.438544
20
66.181277
11
97.190214
21
55.209877
0
LINE
8
Layer 1
10
97.190214
20
55.209877
11
97.190205
21
55.209847
0
LINE
8
Layer 1
10
165.840805
20
56.938457
11
169.333305
21
36.512657
0
LINE
8
Layer 1
10
169.333305
20
36.512657
11
168.411674
21
36.384775
0
LINE
8
Layer 1
10
168.411674
20
36.384775
11
166.193585
21
36.336268
0
LINE
8
Layer 1
10
166.193585
20
36.336268
11
163.486014
21
36.450921
0
LINE
8
Layer 1
10
163.486014
20
36.450921
11
163.038428
21
36.693455
0
LINE
8
Layer 1
10
163.038428
20
36.693455
11
162.842195
21
37.147657
0
LINE
8
Layer 1
10
162.842195
20
37.147657
11
162.696674
21
39.308423
0
LINE
8
Layer 1
10
162.696674
20
39.308423
11
162.630528
21
43.427107
0
LINE
8
Layer 1
10
162.630528
20
43.427107
11
162.524695
21
47.942664
0
LINE
8
Layer 1
10
162.524695
20
47.942664
11
162.362637
21
48.933751
0
LINE
8
Layer 1
10
162.362637
20
48.933751
11
162.101361
21
49.389057
0
LINE
8
Layer 1
10
162.101361
20
49.389057
11
161.572195
21
49.640411
0
LINE
8
Layer 1
10
161.572195
20
49.640411
11
161.043031
21
49.600724
0
LINE
8
Layer 1
10
161.043031
20
49.600724
11
160.754745
21
49.341652
0
LINE
8
Layer 1
10
160.754745
20
49.341652
11
160.615288
21
48.665862
0
LINE
8
Layer 1
10
160.615288
20
48.665862
11
160.690253
21
45.085164
0
LINE
8
Layer 1
10
160.690253
20
45.085164
11
161.325254
21
30.881439
0
LINE
8
Layer 1
10
161.325254
20
30.881439
11
161.431087
21
25.858764
0
LINE
8
Layer 1
10
161.431087
20
25.858764
11
159.596637
21
25.647097
0
LINE
8
Layer 1
10
159.596637
20
25.647097
11
157.903307
21
25.576541
0
LINE
8
Layer 1
10
157.903307
20
25.576541
11
158.009140
21
27.516821
0
LINE
8
Layer 1
10
158.009140
20
27.516821
11
158.573585
21
34.219601
0
LINE
8
Layer 1
10
158.573585
20
34.219601
11
159.667195
21
48.683501
0
LINE
8
Layer 1
10
159.667195
20
48.683501
11
160.302195
21
58.384891
0
LINE
8
Layer 1
10
160.302195
20
58.384891
11
162.454145
21
60.713221
0
LINE
8
Layer 1
10
162.454145
20
60.713221
11
164.676645
21
62.935721
0
LINE
8
Layer 1
10
164.676645
20
62.935721
11
165.840815
21
56.938491
0
LINE
8
Layer 1
10
165.840815
20
56.938491
11
165.840805
21
56.938457
0
LINE
8
Layer 1
10
158.009135
20
50.412067
11
157.479968
21
43.497617
0
LINE
8
Layer 1
10
157.479968
20
43.497617
11
157.303579
21
42.333447
0
LINE
8
Layer 1
10
157.303579
20
42.333447
11
153.493579
21
42.333447
0
LINE
8
Layer 1
10
153.493579
20
42.333447
11
149.683579
21
42.333447
0
LINE
8
Layer 1
10
149.683579
20
42.333447
11
149.083856
21
44.379557
0
LINE
8
Layer 1
10
149.083856
20
44.379557
11
148.519411
21
46.849007
0
LINE
8
Layer 1
10
148.519411
20
46.849007
11
149.070626
21
47.625119
0
LINE
8
Layer 1
10
149.070626
20
47.625119
11
150.389131
21
48.930397
0
LINE
8
Layer 1
10
150.389131
20
48.930397
11
155.222191
21
53.516507
0
LINE
8
Layer 1
10
155.222191
20
53.516507
11
158.291361
21
56.303457
0
LINE
8
Layer 1
10
158.291361
20
56.303457
11
158.009139
21
50.412067
0
LINE
8
Layer 1
10
158.009139
20
50.412067
11
158.009135
21
50.412067
 0 
ENDSEC
 0 
EOF