<?xml version="1.0" standalone="no"?>
<!DOCTYPE svg PUBLIC "-//W3C//DTD SVG 20010904//EN"
 "http://www.w3.org/TR/2001/REC-SVG-20010904/DTD/svg10.dtd">
<svg version="1.0" xmlns="http://www.w3.org/2000/svg"
 width="113.385827pt" height="113.385827pt" viewBox="0 0 113.385827 113.385827"
 preserveAspectRatio="xMidYMid meet">
<metadata>
Created by potrace 1.16, written by Peter Selinger 2001-2019
</metadata>
<g transform="translate(0.000000,113.385827) scale(0.018741,-0.018741)"
fill="#000000" stroke="none">
<path d="M2242 5275 c-81 -25 -140 -75 -180 -150 -24 -45 -27 -61 -27 -150 0
-112 14 -151 81 -225 86 -95 240 -124 356 -67 101 50 162 140 174 256 l7 61
81 0 81 0 -3 -205 -3 -205 25 -25 c25 -25 27 -25 196 -25 235 0 220 -17 220
255 l0 205 79 0 78 0 6 -60 c10 -110 77 -209 175 -257 114 -56 265 -29 357 62
150 150 109 414 -79 513 -45 24 -62 27 -146 27 -83 -1 -101 -4 -146 -27 -61
-32 -117 -94 -140 -155 l-17 -43 -387 0 -387 0 -12 42 c-18 58 -111 149 -175
171 -59 20 -154 21 -214 2z m203 -69 c95 -45 138 -115 138 -231 1 -57 -4 -80
-26 -121 -50 -98 -158 -156 -251 -136 -172 36 -265 227 -187 380 57 112 210
163 326 108z m1347 14 c97 -27 178 -135 178 -237 0 -85 -18 -132 -75 -190 -84
-87 -181 -102 -288 -45 -97 52 -145 160 -126 283 22 141 167 229 311 189z
m-609 -411 c-1 -105 -4 -193 -7 -196 -9 -9 -296 -8 -296 2 -1 6 -2 92 -3 192
-2 155 0 183 13 187 8 2 78 4 155 5 l140 1 -2 -191z"/>
<path d="M2305 5135 c-117 -42 -147 -186 -56 -276 127 -127 337 18 267 184
-17 42 -66 83 -114 97 -46 12 -48 12 -97 -5z m114 -71 c28 -20 53 -76 45 -101
-20 -62 -48 -83 -110 -83 -51 0 -94 45 -94 97 1 81 94 132 159 87z"/>
<path d="M3663 5141 c-46 -12 -77 -35 -103 -76 -18 -30 -22 -47 -18 -95 5 -74
39 -121 103 -145 137 -53 268 82 211 218 -15 38 -79 97 -104 97 -9 0 -26 2
-37 4 -11 3 -35 1 -52 -3z m96 -77 c30 -21 51 -71 44 -107 -3 -15 -19 -38 -35
-52 -79 -67 -197 20 -158 116 23 54 101 76 149 43z"/>
<path d="M2113 4506 l-28 -24 -3 -154 c-4 -172 6 -224 48 -245 19 -9 107 -13
344 -13 l318 0 -31 -29 -31 -29 0 -339 0 -338 -352 3 c-194 2 -372 0 -395 -3
-71 -10 -98 -42 -135 -158 -17 -56 -33 -104 -34 -105 -1 -2 -42 8 -91 22 -143
42 -204 31 -236 -41 -9 -21 -40 -112 -67 -202 -43 -142 -49 -169 -40 -197 6
-17 18 -39 28 -47 23 -21 466 -157 511 -157 64 0 95 29 130 121 18 46 30 92
27 101 -3 14 2 18 25 18 18 0 39 10 54 25 25 24 25 26 24 202 -1 278 -13 318
-100 345 -33 9 -44 8 -86 -13 -46 -23 -49 -28 -80 -109 -40 -107 -43 -90 -4
27 17 48 38 93 48 101 13 9 49 12 128 10 l110 -3 3 -253 c1 -162 6 -251 12
-247 7 4 10 -81 10 -240 0 -140 4 -254 10 -264 5 -10 17 -23 27 -27 10 -5 313
-11 673 -14 l655 -5 -781 -3 -781 -2 -159 -96 c-87 -54 -185 -113 -217 -132
-69 -41 -101 -80 -117 -142 -22 -81 9 -173 77 -229 21 -17 51 -34 68 -37 l31
-6 -23 -49 c-54 -112 -68 -319 -29 -440 98 -312 394 -505 701 -459 223 34 386
153 486 355 66 135 86 290 54 440 -8 38 -15 71 -15 72 0 2 68 3 151 3 l151 0
-6 -23 c-3 -12 -11 -67 -17 -122 -16 -140 3 -246 67 -375 145 -291 477 -427
782 -320 192 68 360 254 407 451 31 131 15 318 -36 423 -10 22 -19 41 -19 42
0 0 20 9 45 18 143 55 181 262 65 359 -17 15 -120 80 -228 145 l-197 117 -220
5 c-121 3 -180 7 -132 8 83 2 90 4 118 31 l29 29 0 227 c0 148 3 224 10 220 7
-4 11 81 12 247 1 139 2 262 2 273 1 19 8 20 118 20 104 0 120 -2 137 -20 19
-19 75 -189 68 -209 -2 -5 -14 26 -26 69 -29 98 -68 144 -126 151 -53 7 -104
-21 -128 -69 -16 -31 -20 -71 -24 -231 -3 -106 -3 -205 1 -220 7 -30 59 -66
93 -66 16 0 21 -5 17 -15 -7 -16 31 -138 53 -171 21 -32 66 -48 121 -41 26 4
141 36 256 71 235 73 261 88 260 154 0 40 -85 325 -114 382 -35 70 -89 78
-230 37 -47 -14 -86 -24 -88 -23 -1 2 -14 46 -28 97 -28 105 -55 143 -113 159
-21 6 -194 10 -409 10 l-372 0 2 28 c1 15 1 166 0 335 l-2 309 -31 29 -31 29
320 0 320 0 31 26 31 26 0 173 c0 95 -3 181 -6 190 -18 45 -9 45 -943 45
l-880 0 -28 -24z m1785 -48 c17 -17 17 -302 0 -315 -10 -8 -1701 -12 -1740 -4
-10 1 -11 315 -1 324 3 4 394 7 868 7 656 0 864 -3 873 -12z m-636 -472 c4 -6
8 -20 8 -30 0 -17 -4 -16 -30 9 -16 16 -30 32 -30 36 0 10 44 -2 52 -15z
m-431 -3 c-5 -10 -16 -27 -25 -38 -15 -20 -15 -20 -16 2 0 34 11 53 31 53 16
0 18 -4 10 -17z m300 -13 c79 -41 119 -151 85 -232 -31 -73 -109 -128 -181
-128 -73 0 -164 62 -186 127 -15 48 -13 116 5 151 20 39 80 90 114 98 15 3 32
7 37 10 20 7 88 -7 126 -26z m-208 -399 c102 -49 244 -14 314 78 l33 43 0
-157 c0 -89 -4 -165 -10 -176 -10 -18 -24 -19 -240 -19 l-230 0 0 176 0 176
45 -50 c25 -28 65 -60 88 -71z m877 -314 c0 -16 -3 -18 -12 -9 -16 16 -1493
18 -1503 2 -10 -17 -25 -11 -25 10 0 19 9 20 770 19 l770 -1 0 -21z m-1716
-70 c22 -23 24 -34 31 -198 4 -96 5 -187 4 -204 l-4 -30 -124 -3 c-137 -3
-160 4 -136 41 7 12 38 95 69 184 30 89 62 176 70 192 25 47 55 53 90 18z
m1973 3 c21 -24 155 -418 147 -431 -3 -5 -58 -9 -123 -9 -94 0 -121 3 -131 15
-10 12 -11 57 -3 212 9 186 10 197 32 214 30 25 57 24 78 -1z m-287 -16 c14
-35 9 -860 -5 -871 -5 -4 -340 -7 -742 -5 l-733 2 0 443 c0 244 3 447 7 450 3
4 334 7 735 7 l728 0 10 -26z m-2077 -139 c31 -9 57 -21 57 -27 0 -6 -27 -94
-60 -195 -33 -102 -60 -192 -60 -200 0 -9 -7 -12 -17 -9 -10 3 -38 10 -63 16
-72 17 -99 31 -105 51 -8 24 91 347 113 372 19 21 40 20 135 -8z m2809 8 c17
-20 118 -329 118 -361 0 -11 -6 -24 -13 -30 -15 -13 -159 -54 -165 -47 -12 11
-131 410 -124 416 10 10 111 37 143 38 14 1 33 -7 41 -16z m-130 -465 c-9 -8
-215 -68 -233 -68 -27 0 -40 17 -64 85 -14 37 -25 72 -25 76 0 5 26 9 58 9
137 0 176 37 169 160 l-4 75 53 -165 c29 -91 50 -168 46 -172z m-2590 244 c-4
-61 -1 -72 19 -96 27 -31 78 -45 161 -46 l57 0 -18 -52 c-27 -78 -42 -106 -59
-113 -14 -5 -241 51 -253 63 -6 6 87 312 94 312 2 0 1 -31 -1 -68z m316 -793
l-3 -131 -60 -22 c-85 -31 -166 -88 -238 -167 -67 -75 -83 -80 -135 -49 -46
28 -72 76 -72 133 0 89 3 93 290 267 148 90 164 98 198 99 23 1 23 1 20 -130z
m1792 11 l0 -120 -98 0 c-115 0 -213 -24 -313 -76 l-67 -35 -351 1 c-234 0
-358 -3 -371 -10 -16 -9 -26 -6 -53 14 -90 69 -231 108 -368 104 l-99 -3 0
123 0 122 860 0 860 0 0 -120z m143 104 c84 -43 375 -220 400 -242 71 -67 48
-200 -43 -247 -46 -24 -63 -18 -103 34 -60 79 -204 176 -297 201 -25 6 -25 7
-28 138 -2 128 -2 132 18 132 12 0 35 -7 53 -16z m-1619 -304 c150 -38 255
-112 330 -233 73 -118 99 -203 100 -327 1 -129 -24 -217 -94 -324 -83 -128
-201 -216 -336 -251 -62 -16 -74 -14 -74 15 0 41 -43 70 -180 121 -173 64
-237 104 -285 179 -61 97 -74 244 -29 340 39 83 99 155 191 227 46 36 89 73
96 84 12 16 19 17 48 9 19 -6 59 -10 89 -10 125 -1 225 -45 326 -145 110 -109
150 -223 108 -310 -37 -78 -175 -181 -269 -200 l-30 -7 32 22 c46 31 101 117
114 179 28 135 -32 273 -146 334 -32 18 -57 22 -130 22 -81 0 -95 -3 -143 -29
-60 -33 -101 -76 -134 -139 -19 -35 -23 -58 -23 -137 0 -87 3 -100 30 -148 70
-127 190 -188 349 -180 73 4 93 9 177 50 172 85 254 184 254 309 0 87 -49 189
-134 276 -105 108 -220 159 -381 169 l-100 7 0 59 0 58 83 0 c51 0 114 -8 161
-20z m1474 -42 l3 -58 -56 0 c-31 0 -91 -7 -133 -16 -138 -28 -232 -86 -321
-197 -73 -93 -101 -157 -101 -238 0 -114 62 -203 200 -283 100 -59 145 -71
260 -71 94 1 111 3 162 28 110 54 180 150 194 268 17 143 -83 293 -220 330
-55 15 -163 6 -211 -17 -105 -49 -175 -181 -160 -299 8 -70 56 -165 102 -206
31 -27 33 -30 12 -24 -62 19 -162 81 -208 130 -55 58 -77 116 -66 174 17 94
132 239 232 294 63 34 152 57 219 57 29 0 65 5 80 10 24 10 31 7 63 -23 20
-18 59 -50 88 -71 77 -55 141 -131 181 -215 31 -65 36 -83 35 -150 0 -95 -28
-171 -84 -235 -54 -61 -99 -86 -260 -146 -141 -52 -179 -79 -179 -126 0 -29 3
-28 -68 -8 -189 54 -327 185 -402 380 -32 82 -40 256 -15 339 78 270 296 438
560 432 l90 -2 3 -57z m-1786 -18 c3 -57 -7 -71 -109 -144 -125 -89 -228 -251
-239 -376 -12 -127 38 -264 125 -343 63 -56 143 -98 272 -143 110 -38 129 -48
129 -70 0 -19 -76 -18 -153 2 -188 49 -355 214 -413 409 -27 88 -24 249 5 335
45 131 130 244 236 315 47 30 112 62 137 64 3 1 8 -22 10 -49z m1963 7 c70
-37 179 -141 220 -211 160 -275 85 -618 -173 -790 -37 -24 -102 -56 -144 -70
-88 -30 -188 -36 -188 -11 0 21 32 38 150 80 150 53 196 79 266 149 72 73 102
141 111 255 13 178 -93 356 -295 491 -44 29 -62 46 -58 57 3 8 6 33 6 54 0 37
2 40 23 34 12 -4 49 -21 82 -38z m-1360 -59 l60 -63 -65 60 c-35 33 -66 61
-69 63 -2 1 0 2 5 2 5 0 36 -28 69 -62z m595 13 c0 -2 -15 -22 -33 -45 -19
-23 -39 -51 -46 -64 l-12 -23 -24 25 c-23 25 -29 26 -128 26 -57 0 -118 -5
-136 -11 -30 -10 -34 -17 -44 -74 -2 -14 -7 -8 -17 22 -7 22 -30 64 -51 92
l-38 50 107 3 c157 4 422 4 422 -1z m-519 -98 c13 -16 12 -17 -3 -4 -17 13
-22 21 -14 21 2 0 10 -8 17 -17z m357 -65 c-3 -9 -31 -14 -79 -16 -80 -3 -119
3 -119 18 0 6 42 10 101 10 76 0 100 -3 97 -12z m85 -73 c-3 -9 -8 -14 -10
-11 -3 3 -2 9 2 15 9 16 15 13 8 -4z m-888 -6 c24 -6 61 -26 82 -45 l38 -35
-48 33 c-45 30 -55 33 -126 33 -68 0 -83 -3 -119 -28 -66 -43 -96 -97 -100
-178 -4 -59 0 -77 22 -124 49 -99 139 -153 236 -142 30 4 38 3 25 -3 -32 -14
-88 -11 -140 7 -94 31 -175 142 -175 238 0 104 71 206 165 237 60 20 83 21
140 7z m1565 -19 c49 -25 104 -89 118 -139 18 -60 15 -139 -8 -187 -56 -114
-210 -184 -305 -139 l-30 14 30 -7 c86 -20 171 5 231 70 90 95 97 225 16 319
-84 98 -221 107 -316 20 -24 -22 -27 -23 -18 -5 38 74 188 102 282 54z m-1709
-85 c-39 -34 -65 -103 -58 -155 6 -47 45 -103 91 -131 54 -33 152 -20 211 29
12 9 6 3 -12 -14 -45 -42 -107 -59 -161 -45 -104 29 -169 149 -131 248 11 30
67 93 82 93 5 0 -5 -11 -22 -25z m1735 -52 c47 -99 -2 -213 -110 -258 -42 -18
-100 -13 -148 11 -28 14 -88 82 -88 99 0 5 12 -7 26 -27 100 -140 324 -78 324
90 0 60 -9 82 -54 131 l-31 34 31 -21 c17 -12 40 -39 50 -59z m-1548 33 c79
-41 71 -171 -14 -211 -65 -30 -141 2 -164 69 -31 94 88 189 178 142z m1419 -5
c108 -49 92 -203 -22 -217 -132 -17 -201 177 -80 227 32 12 57 10 102 -10z"/>
</g>
</svg>
