999
"DXF R12 Output" (www.mydxf.blogspot.com)
 0 
SECTION
 2 
HEADER
 9 
$ACADVER
 1 
AC1009
 9 
$EXTMIN
 10 
 0 
 20 
 0 
 9 
$EXTMAX
 10 
 8.5 
 20 
 11 
 0 
ENDSEC
 0 
SECTION
 2 
ENTITIES
0
LINE
8
Layer 1
10
7.993190
20
37.096600
11
6.551900
21
35.093340
0
LINE
8
Layer 1
10
6.551900
20
35.093340
11
5.895098
21
33.812485
0
LINE
8
Layer 1
10
5.895098
20
33.812485
11
5.348624
21
32.413243
0
LINE
8
Layer 1
10
5.348624
20
32.413243
11
4.995534
21
31.139201
0
LINE
8
Layer 1
10
4.995534
20
31.139201
11
4.918880
21
30.233950
0
LINE
8
Layer 1
10
4.918880
20
30.233950
11
4.814750
21
29.751317
0
LINE
8
Layer 1
10
4.814750
20
29.751317
11
3.927168
21
28.217470
0
LINE
8
Layer 1
10
3.927168
20
28.217470
11
2.750338
21
26.187770
0
LINE
8
Layer 1
10
2.750338
20
26.187770
11
0.118998
21
19.735030
0
LINE
8
Layer 1
10
0.118998
20
19.735030
11
0.017347
21
19.267272
0
LINE
8
Layer 1
10
0.017347
20
19.267272
11
0.059495
21
18.115230
0
LINE
8
Layer 1
10
0.059495
20
18.115230
11
0.231392
21
14.776470
0
LINE
8
Layer 1
10
0.231392
20
14.776470
11
0.396677
21
11.470770
0
LINE
8
Layer 1
10
0.396677
20
11.470770
11
0.515682
21
8.065890
0
LINE
8
Layer 1
10
0.515682
20
8.065890
11
0.244614
21
8.165061
0
LINE
8
Layer 1
10
0.244614
20
8.165061
11
0.006603
21
8.264232
0
LINE
8
Layer 1
10
0.006603
20
8.264232
11
0.006603
21
7.384914
0
LINE
8
Layer 1
10
0.006603
20
7.384914
11
-0.000008
21
6.512208
0
LINE
8
Layer 1
10
-0.000008
20
6.512208
11
0.251226
21
6.809721
0
LINE
8
Layer 1
10
0.251226
20
6.809721
11
0.628076
21
7.259297
0
LINE
8
Layer 1
10
0.628076
20
7.259297
11
0.766916
21
7.417971
0
LINE
8
Layer 1
10
0.766916
20
7.417971
11
1.414834
21
6.935338
0
LINE
8
Layer 1
10
1.414834
20
6.935338
11
2.062752
21
6.446094
0
LINE
8
Layer 1
10
2.062752
20
6.446094
11
1.031372
21
6.188249
0
LINE
8
Layer 1
10
1.031372
20
6.188249
11
-0.000008
21
5.937015
0
LINE
8
Layer 1
10
-0.000008
20
5.937015
11
-0.000008
21
5.745284
0
LINE
8
Layer 1
10
-0.000008
20
5.745284
11
0.052883
21
5.553553
0
LINE
8
Layer 1
10
0.052883
20
5.553553
11
2.479273
21
6.221305
0
LINE
8
Layer 1
10
2.479273
20
6.221305
11
2.981740
21
10.908795
0
LINE
8
Layer 1
10
2.981740
20
10.908795
11
3.147025
21
12.753375
0
LINE
8
Layer 1
10
3.147025
20
12.753375
11
4.760205
21
11.768275
0
LINE
8
Layer 1
10
4.760205
20
11.768275
11
6.492395
21
10.650945
0
LINE
8
Layer 1
10
6.492395
20
10.650945
11
7.246096
21
10.128644
0
LINE
8
Layer 1
10
7.246096
20
10.128644
11
6.247773
21
10.340209
0
LINE
8
Layer 1
10
6.247773
20
10.340209
11
5.170113
21
10.578220
0
LINE
8
Layer 1
10
5.170113
20
10.578220
11
3.788333
21
9.646011
0
LINE
8
Layer 1
10
3.788333
20
9.646011
11
3.669328
21
8.918756
0
LINE
8
Layer 1
10
3.669328
20
8.918756
11
3.649494
21
8.349349
0
LINE
8
Layer 1
10
3.649494
20
8.349349
11
3.768499
21
8.131998
0
LINE
8
Layer 1
10
3.768499
20
8.131998
11
3.920561
21
7.979936
0
LINE
8
Layer 1
10
3.920561
20
7.979936
11
5.844481
21
8.026216
0
LINE
8
Layer 1
10
5.844481
20
8.026216
11
8.561771
21
8.098942
0
LINE
8
Layer 1
10
8.561771
20
8.098942
11
9.060726
21
8.115057
0
LINE
8
Layer 1
10
9.060726
20
8.115057
11
9.132006
21
8.079108
0
LINE
8
Layer 1
10
9.132006
20
8.079108
11
7.649396
21
7.702257
0
LINE
8
Layer 1
10
7.649396
20
7.702257
11
6.529589
21
7.414660
0
LINE
8
Layer 1
10
6.529589
20
7.414660
11
6.307276
21
7.226235
0
LINE
8
Layer 1
10
6.307276
20
7.226235
11
6.703961
21
5.249425
0
LINE
8
Layer 1
10
6.703961
20
5.249425
11
8.008063
21
5.122982
0
LINE
8
Layer 1
10
8.008063
20
5.122982
11
9.282411
21
5.150254
0
LINE
8
Layer 1
10
9.282411
20
5.150254
11
9.460919
21
5.150254
0
LINE
8
Layer 1
10
9.460919
20
5.150254
11
10.012972
21
5.311407
0
LINE
8
Layer 1
10
10.012972
20
5.311407
11
11.497229
21
6.122131
0
LINE
8
Layer 1
10
11.497229
20
6.122131
11
12.083992
21
6.522947
0
LINE
8
Layer 1
10
12.083992
20
6.522947
11
12.125313
21
6.789883
0
LINE
8
Layer 1
10
12.125313
20
6.789883
11
10.095613
21
8.145223
0
LINE
8
Layer 1
10
10.095613
20
8.145223
11
10.525355
21
8.971649
0
LINE
8
Layer 1
10
10.525355
20
8.971649
11
11.027822
21
9.758407
0
LINE
8
Layer 1
10
11.027822
20
9.758407
11
10.941874
21
9.493951
0
LINE
8
Layer 1
10
10.941874
20
9.493951
11
10.883198
21
9.184041
0
LINE
8
Layer 1
10
10.883198
20
9.184041
11
11.047657
21
8.541908
0
LINE
8
Layer 1
10
11.047657
20
8.541908
11
11.358393
21
7.722093
0
LINE
8
Layer 1
10
11.358393
20
7.722093
11
11.751771
21
7.622921
0
LINE
8
Layer 1
10
11.751771
20
7.622921
11
13.394703
21
7.603088
0
LINE
8
Layer 1
10
13.394703
20
7.603088
11
15.331843
21
7.603088
0
LINE
8
Layer 1
10
15.331843
20
7.603088
11
15.457460
21
7.768373
0
LINE
8
Layer 1
10
15.457460
20
7.768373
11
15.635968
21
7.867544
0
LINE
8
Layer 1
10
15.635968
20
7.867544
11
27.840668
21
7.801430
0
LINE
8
Layer 1
10
27.840668
20
7.801430
11
39.999068
21
7.801430
0
LINE
8
Layer 1
10
39.999068
20
7.801430
11
39.999068
21
7.999772
0
LINE
8
Layer 1
10
39.999068
20
7.999772
11
39.999068
21
8.198114
0
LINE
8
Layer 1
10
39.999068
20
8.198114
11
28.032368
21
8.198114
0
LINE
8
Layer 1
10
28.032368
20
8.198114
11
17.790468
21
8.214642
0
LINE
8
Layer 1
10
17.790468
20
8.214642
11
16.131868
21
8.310508
0
LINE
8
Layer 1
10
16.131868
20
8.310508
11
17.189698
21
12.065788
0
LINE
8
Layer 1
10
17.189698
20
12.065788
11
17.235978
21
12.023640
0
LINE
8
Layer 1
10
17.235978
20
12.023640
11
17.282258
21
11.470761
0
LINE
8
Layer 1
10
17.282258
20
11.470761
11
17.361595
21
10.498884
0
LINE
8
Layer 1
10
17.361595
20
10.498884
11
17.558284
21
10.124513
0
LINE
8
Layer 1
10
17.558284
20
10.124513
11
17.943399
21
9.844354
0
LINE
8
Layer 1
10
17.943399
20
9.844354
11
18.838418
21
9.740224
0
LINE
8
Layer 1
10
18.838418
20
9.740224
11
22.743279
21
9.725349
0
LINE
8
Layer 1
10
22.743279
20
9.725349
11
28.032409
21
9.817908
0
LINE
8
Layer 1
10
28.032409
20
9.817908
11
30.432349
21
10.307152
0
LINE
8
Layer 1
10
30.432349
20
10.307152
11
30.462100
21
10.495578
0
LINE
8
Layer 1
10
30.462100
20
10.495578
11
30.313344
21
10.604665
0
LINE
8
Layer 1
10
30.313344
20
10.604665
11
29.354690
21
10.426157
0
LINE
8
Layer 1
10
29.354690
20
10.426157
11
27.269616
21
10.130297
0
LINE
8
Layer 1
10
27.269616
20
10.130297
11
22.809390
21
10.082364
0
LINE
8
Layer 1
10
22.809390
20
10.082364
11
18.570652
21
10.126991
0
LINE
8
Layer 1
10
18.570652
20
10.126991
11
17.998043
21
10.232981
0
LINE
8
Layer 1
10
17.998043
20
10.232981
11
17.817780
21
10.439380
0
LINE
8
Layer 1
10
17.817780
20
10.439380
11
17.685552
21
12.264130
0
LINE
8
Layer 1
10
17.685552
20
12.264130
11
17.639272
21
13.916980
0
LINE
8
Layer 1
10
17.639272
20
13.916980
11
16.872348
21
15.140090
0
LINE
8
Layer 1
10
16.872348
20
15.140090
11
15.527752
21
17.111943
0
LINE
8
Layer 1
10
15.527752
20
17.111943
11
15.093775
21
17.507180
0
LINE
8
Layer 1
10
15.093775
20
17.507180
11
14.664138
21
17.685480
0
LINE
8
Layer 1
10
14.664138
20
17.685480
11
14.512076
21
17.791263
0
LINE
8
Layer 1
10
14.512076
20
17.791263
11
13.976552
21
19.020983
0
LINE
8
Layer 1
10
13.976552
20
19.020983
11
13.123680
21
20.792843
0
LINE
8
Layer 1
10
13.123680
20
20.792843
11
12.310477
21
22.273803
0
LINE
8
Layer 1
10
12.310477
20
22.273803
11
11.794787
21
23.186178
0
LINE
8
Layer 1
10
11.794787
20
23.186178
11
13.262517
21
23.100230
0
LINE
8
Layer 1
10
13.262517
20
23.100230
11
15.973197
21
22.987836
0
LINE
8
Layer 1
10
15.973197
20
22.987836
11
17.242587
21
22.974613
0
LINE
8
Layer 1
10
17.242587
20
22.974613
11
17.526878
21
23.172955
0
LINE
8
Layer 1
10
17.526878
20
23.172955
11
17.957446
21
23.674596
0
LINE
8
Layer 1
10
17.957446
20
23.674596
11
18.551648
21
24.924975
0
LINE
8
Layer 1
10
18.551648
20
24.924975
11
18.802882
21
25.771235
0
LINE
8
Layer 1
10
18.802882
20
25.771235
11
16.958302
21
27.754655
0
LINE
8
Layer 1
10
16.958302
20
27.754655
11
14.981492
21
29.903365
0
LINE
8
Layer 1
10
14.981492
20
29.903365
11
14.796373
21
30.220713
0
LINE
8
Layer 1
10
14.796373
20
30.220713
11
14.902156
21
30.828963
0
LINE
8
Layer 1
10
14.902156
20
30.828963
11
15.371566
21
33.387583
0
LINE
8
Layer 1
10
15.371566
20
33.387583
11
15.948411
21
36.559406
0
LINE
8
Layer 1
10
15.948411
20
36.559406
11
15.972171
21
36.922415
0
LINE
8
Layer 1
10
15.972171
20
36.922415
11
15.900479
21
37.023863
0
LINE
8
Layer 1
10
15.900479
20
37.023863
11
15.621147
21
37.142042
0
LINE
8
Layer 1
10
15.621147
20
37.142042
11
15.054219
21
36.918080
0
LINE
8
Layer 1
10
15.054219
20
36.918080
11
13.725121
21
36.106220
0
LINE
8
Layer 1
10
13.725121
20
36.106220
11
12.677419
21
35.163578
0
LINE
8
Layer 1
10
12.677419
20
35.163578
11
11.947064
21
34.127962
0
LINE
8
Layer 1
10
11.947064
20
34.127962
11
11.570009
21
33.037180
0
LINE
8
Layer 1
10
11.570009
20
33.037180
11
11.583232
21
32.415707
0
LINE
8
Layer 1
10
11.583232
20
32.415707
11
13.474092
21
30.967807
0
LINE
8
Layer 1
10
13.474092
20
30.967807
11
14.214570
21
30.438894
0
LINE
8
Layer 1
10
14.214570
20
30.438894
11
13.870777
21
30.445506
0
LINE
8
Layer 1
10
13.870777
20
30.445506
11
11.583227
21
30.709962
0
LINE
8
Layer 1
10
11.583227
20
30.709962
11
11.695621
21
31.199206
0
LINE
8
Layer 1
10
11.695621
20
31.199206
11
11.822890
21
31.756217
0
LINE
8
Layer 1
10
11.822890
20
31.756217
11
11.662563
21
32.065301
0
LINE
8
Layer 1
10
11.662563
20
32.065301
11
11.484055
21
32.270255
0
LINE
8
Layer 1
10
11.484055
20
32.270255
11
10.075825
21
32.223975
0
LINE
8
Layer 1
10
10.075825
20
32.223975
11
8.660985
21
32.177695
0
LINE
8
Layer 1
10
8.660985
20
32.177695
11
8.654374
21
32.402483
0
LINE
8
Layer 1
10
8.654374
20
32.402483
11
8.601483
21
34.835483
0
LINE
8
Layer 1
10
8.601483
20
34.835483
11
8.534542
21
36.712295
0
LINE
8
Layer 1
10
8.534542
20
36.712295
11
8.422975
21
37.136253
0
LINE
8
Layer 1
10
8.422975
20
37.136253
11
8.218021
21
37.215590
0
LINE
8
Layer 1
10
8.218021
20
37.215590
11
7.993233
21
37.096584
0
LINE
8
Layer 1
10
7.993233
20
37.096584
11
7.993190
21
37.096600
0
LINE
8
Layer 1
10
14.690550
20
36.118111
11
12.863320
21
34.027252
0
LINE
8
Layer 1
10
12.863320
20
34.027252
11
12.214678
21
33.336361
0
LINE
8
Layer 1
10
12.214678
20
33.336361
11
11.993090
21
33.156201
0
LINE
8
Layer 1
10
11.993090
20
33.156201
11
12.171598
21
33.625611
0
LINE
8
Layer 1
10
12.171598
20
33.625611
11
12.945959
21
34.869384
0
LINE
8
Layer 1
10
12.945959
20
34.869384
11
14.260808
21
35.999111
0
LINE
8
Layer 1
10
14.260808
20
35.999111
11
14.928560
21
36.428853
0
LINE
8
Layer 1
10
14.928560
20
36.428853
11
14.690549
21
36.118117
0
LINE
8
Layer 1
10
14.690549
20
36.118117
11
14.690550
21
36.118111
0
LINE
8
Layer 1
10
15.312023
20
35.199125
11
14.809556
21
32.462005
0
LINE
8
Layer 1
10
14.809556
20
32.462005
11
14.478985
21
30.848825
0
LINE
8
Layer 1
10
14.478985
20
30.848825
11
14.102135
21
31.014110
0
LINE
8
Layer 1
10
14.102135
20
31.014110
11
12.032765
21
32.508290
0
LINE
8
Layer 1
10
12.032765
20
32.508290
11
12.515398
21
33.050426
0
LINE
8
Layer 1
10
12.515398
20
33.050426
11
14.247588
21
34.987566
0
LINE
8
Layer 1
10
14.247588
20
34.987566
11
15.523588
21
36.402406
0
LINE
8
Layer 1
10
15.523588
20
36.402406
11
15.312023
21
35.199126
0
LINE
8
Layer 1
10
15.312023
20
35.199126
11
15.312023
21
35.199125
0
LINE
8
Layer 1
10
8.191533
20
35.225571
11
8.237813
21
33.215701
0
LINE
8
Layer 1
10
8.237813
20
33.215701
11
8.284093
21
32.078541
0
LINE
8
Layer 1
10
8.284093
20
32.078541
11
8.125419
21
32.032261
0
LINE
8
Layer 1
10
8.125419
20
32.032261
11
6.108939
21
31.020711
0
LINE
8
Layer 1
10
6.108939
20
31.020711
11
5.699032
21
30.756255
0
LINE
8
Layer 1
10
5.699032
20
30.756255
11
6.247779
21
31.886805
0
LINE
8
Layer 1
10
6.247779
20
31.886805
11
8.039469
21
35.886705
0
LINE
8
Layer 1
10
8.039469
20
35.886705
11
8.158474
21
36.098270
0
LINE
8
Layer 1
10
8.158474
20
36.098270
11
8.191531
21
35.225564
0
LINE
8
Layer 1
10
8.191531
20
35.225564
11
8.191533
21
35.225571
0
LINE
8
Layer 1
10
7.543615
20
35.754484
11
5.408125
21
31.040544
0
LINE
8
Layer 1
10
5.408125
20
31.040544
11
5.415873
21
31.269257
0
LINE
8
Layer 1
10
5.415873
20
31.269257
11
5.658532
21
32.052090
0
LINE
8
Layer 1
10
5.658532
20
32.052090
11
6.380002
21
33.896674
0
LINE
8
Layer 1
10
6.380002
20
33.896674
11
7.576672
21
35.899934
0
LINE
8
Layer 1
10
7.576672
20
35.899934
11
7.543615
21
35.754483
0
LINE
8
Layer 1
10
7.543615
20
35.754483
11
7.543615
21
35.754484
0
LINE
8
Layer 1
10
10.551805
20
31.820694
11
6.366785
21
30.703364
0
LINE
8
Layer 1
10
6.366785
20
30.703364
11
7.933685
21
31.543013
0
LINE
8
Layer 1
10
7.933685
20
31.543013
11
8.505572
21
31.738876
0
LINE
8
Layer 1
10
8.505572
20
31.738876
11
9.454305
21
31.800858
0
LINE
8
Layer 1
10
9.454305
20
31.800858
11
10.538575
21
31.853749
0
LINE
8
Layer 1
10
10.538575
20
31.853749
11
10.551798
21
31.820692
0
LINE
8
Layer 1
10
10.551798
20
31.820692
11
10.551805
21
31.820694
0
LINE
8
Layer 1
10
11.298894
20
31.225667
11
11.173277
21
30.736423
0
LINE
8
Layer 1
10
11.173277
20
30.736423
11
10.902209
21
30.366184
0
LINE
8
Layer 1
10
10.902209
20
30.366184
11
10.289827
21
29.664546
0
LINE
8
Layer 1
10
10.289827
20
29.664546
11
9.910497
21
29.017454
0
LINE
8
Layer 1
10
9.910497
20
29.017454
11
9.943554
21
28.323256
0
LINE
8
Layer 1
10
9.943554
20
28.323256
11
10.012974
21
27.655504
0
LINE
8
Layer 1
10
10.012974
20
27.655504
11
9.784880
21
27.086926
0
LINE
8
Layer 1
10
9.784880
20
27.086926
11
9.346874
21
26.607598
0
LINE
8
Layer 1
10
9.346874
20
26.607598
11
8.720440
21
26.306780
0
LINE
8
Layer 1
10
8.720440
20
26.306780
11
7.632245
21
26.198621
0
LINE
8
Layer 1
10
7.632245
20
26.198621
11
6.649419
21
26.512560
0
LINE
8
Layer 1
10
6.649419
20
26.512560
11
5.892206
21
27.179796
0
LINE
8
Layer 1
10
5.892206
20
27.179796
11
5.480850
21
28.131530
0
LINE
8
Layer 1
10
5.480850
20
28.131530
11
5.520519
21
29.116630
0
LINE
8
Layer 1
10
5.520519
20
29.116630
11
5.560187
21
29.876942
0
LINE
8
Layer 1
10
5.560187
20
29.876942
11
5.508122
21
30.044706
0
LINE
8
Layer 1
10
5.508122
20
30.044706
11
5.738695
21
30.108341
0
LINE
8
Layer 1
10
5.738695
20
30.108341
11
10.974935
21
31.503351
0
LINE
8
Layer 1
10
10.974935
20
31.503351
11
11.367487
21
31.572771
0
LINE
8
Layer 1
10
11.367487
20
31.572771
11
11.298894
21
31.225672
0
LINE
8
Layer 1
10
11.298894
20
31.225672
11
11.298894
21
31.225667
0
LINE
8
Layer 1
10
13.639334
20
30.075277
11
14.485594
21
29.995940
0
LINE
8
Layer 1
10
14.485594
20
29.995940
11
14.670713
21
29.625701
0
LINE
8
Layer 1
10
14.670713
20
29.625701
11
15.338465
21
28.197641
0
LINE
8
Layer 1
10
15.338465
20
28.197641
11
15.953326
21
26.908421
0
LINE
8
Layer 1
10
15.953326
20
26.908421
11
16.023572
21
26.749747
0
LINE
8
Layer 1
10
16.023572
20
26.749747
11
15.702092
21
27.007592
0
LINE
8
Layer 1
10
15.702092
20
27.007592
11
12.826132
21
29.513312
0
LINE
8
Layer 1
10
12.826132
20
29.513312
11
12.264162
21
30.009168
0
LINE
8
Layer 1
10
12.264162
20
30.009168
11
11.999706
21
30.227345
0
LINE
8
Layer 1
10
11.999706
20
30.227345
11
12.396391
21
30.187676
0
LINE
8
Layer 1
10
12.396391
20
30.187676
11
13.639341
21
30.075282
0
LINE
8
Layer 1
10
13.639341
20
30.075282
11
13.639334
21
30.075277
0
LINE
8
Layer 1
10
11.358394
20
29.890158
11
11.427814
21
29.411657
0
LINE
8
Layer 1
10
11.427814
20
29.411657
11
11.239389
21
29.076955
0
LINE
8
Layer 1
10
11.239389
20
29.076955
11
11.016254
21
28.911670
0
LINE
8
Layer 1
10
11.016254
20
28.911670
11
10.703865
21
28.905058
0
LINE
8
Layer 1
10
10.703865
20
28.905058
11
10.340237
21
28.977783
0
LINE
8
Layer 1
10
10.340237
20
28.977783
11
11.232777
21
30.148003
0
LINE
8
Layer 1
10
11.232777
20
30.148003
11
11.358394
21
29.890158
0
LINE
8
Layer 1
10
11.358394
20
29.890158
11
11.358394
21
29.890158
0
LINE
8
Layer 1
10
14.102134
20
27.867068
11
15.840934
21
26.267108
0
LINE
8
Layer 1
10
15.840934
20
26.267108
11
14.016184
21
26.115046
0
LINE
8
Layer 1
10
14.016184
20
26.115046
11
11.708804
21
25.936538
0
LINE
8
Layer 1
10
11.708804
20
25.936538
11
11.221213
21
25.872076
0
LINE
8
Layer 1
10
11.221213
20
25.872076
11
11.041052
21
25.698527
0
LINE
8
Layer 1
10
11.041052
20
25.698527
11
10.798083
21
24.568800
0
LINE
8
Layer 1
10
10.798083
20
24.568800
11
10.922047
21
23.424197
0
LINE
8
Layer 1
10
10.922047
20
23.424197
11
11.160058
21
23.219243
0
LINE
8
Layer 1
10
11.160058
20
23.219243
11
11.398069
21
23.014289
0
LINE
8
Layer 1
10
11.398069
20
23.014289
11
11.993096
21
22.029189
0
LINE
8
Layer 1
10
11.993096
20
22.029189
11
12.495563
21
21.110203
0
LINE
8
Layer 1
10
12.495563
20
21.110203
11
11.133613
21
18.578033
0
LINE
8
Layer 1
10
11.133613
20
18.578033
11
10.214627
21
16.726843
0
LINE
8
Layer 1
10
10.214627
20
16.726843
11
9.646046
21
10.241053
0
LINE
8
Layer 1
10
9.646046
20
10.241053
11
9.500595
21
8.548533
0
LINE
8
Layer 1
10
9.500595
20
8.548533
11
8.138645
21
8.502253
0
LINE
8
Layer 1
10
8.138645
20
8.502253
11
6.049435
21
8.429527
0
LINE
8
Layer 1
10
6.049435
20
8.429527
11
5.388294
21
8.429527
0
LINE
8
Layer 1
10
5.388294
20
8.429527
11
6.902304
21
8.819600
0
LINE
8
Layer 1
10
6.902304
20
8.819600
11
8.449374
21
9.282399
0
LINE
8
Layer 1
10
8.449374
20
9.282399
11
8.440283
21
9.575781
0
LINE
8
Layer 1
10
8.440283
20
9.575781
11
7.999798
21
10.637739
0
LINE
8
Layer 1
10
7.999798
20
10.637739
11
7.457662
21
11.893909
0
LINE
8
Layer 1
10
7.457662
20
11.893909
11
8.251031
21
13.996339
0
LINE
8
Layer 1
10
8.251031
20
13.996339
11
9.554306
21
17.635920
0
LINE
8
Layer 1
10
9.554306
20
17.635920
11
10.684031
21
21.315169
0
LINE
8
Layer 1
10
10.684031
20
21.315169
11
11.012122
21
22.588693
0
LINE
8
Layer 1
10
11.012122
20
22.588693
11
10.948487
21
23.093639
0
LINE
8
Layer 1
10
10.948487
20
23.093639
11
10.769979
21
23.312642
0
LINE
8
Layer 1
10
10.769979
20
23.312642
11
10.234455
21
23.556438
0
LINE
8
Layer 1
10
10.234455
20
23.556438
11
9.076631
21
24.115103
0
LINE
8
Layer 1
10
9.076631
20
24.115103
11
7.735345
21
24.951448
0
LINE
8
Layer 1
10
7.735345
20
24.951448
11
6.214725
21
26.240668
0
LINE
8
Layer 1
10
6.214725
20
26.240668
11
6.604798
21
26.095217
0
LINE
8
Layer 1
10
6.604798
20
26.095217
11
7.502298
21
25.829934
0
LINE
8
Layer 1
10
7.502298
20
25.829934
11
8.449378
21
25.837372
0
LINE
8
Layer 1
10
8.449378
20
25.837372
11
9.390057
21
26.167530
0
LINE
8
Layer 1
10
9.390057
20
26.167530
11
10.054298
21
26.753054
0
LINE
8
Layer 1
10
10.054298
20
26.753054
11
10.388794
21
27.522044
0
LINE
8
Layer 1
10
10.388794
20
27.522044
11
10.340238
21
28.402602
0
LINE
8
Layer 1
10
10.340238
20
28.402602
11
10.363378
21
28.517476
0
LINE
8
Layer 1
10
10.363378
20
28.517476
11
10.664197
21
28.508385
0
LINE
8
Layer 1
10
10.664197
20
28.508385
11
11.131541
21
28.553942
0
LINE
8
Layer 1
10
11.131541
20
28.553942
11
11.502193
21
28.753834
0
LINE
8
Layer 1
10
11.502193
20
28.753834
11
11.746403
21
29.083890
0
LINE
8
Layer 1
10
11.746403
20
29.083890
11
11.834417
21
29.519935
0
LINE
8
Layer 1
10
11.834417
20
29.519935
11
11.834417
21
29.830671
0
LINE
8
Layer 1
10
11.834417
20
29.830671
11
12.065816
21
29.638940
0
LINE
8
Layer 1
10
12.065816
20
29.638940
11
14.102126
21
27.867080
0
LINE
8
Layer 1
10
14.102126
20
27.867080
11
14.102134
21
27.867068
0
LINE
8
Layer 1
10
5.156894
20
29.281908
11
5.092433
21
28.381931
0
LINE
8
Layer 1
10
5.092433
20
28.381931
11
5.256065
21
27.338158
0
LINE
8
Layer 1
10
5.256065
20
27.338158
11
5.520521
21
26.582803
0
LINE
8
Layer 1
10
5.520521
20
26.582803
11
5.903983
21
25.996038
0
LINE
8
Layer 1
10
5.903983
20
25.996038
11
6.635990
21
25.277873
0
LINE
8
Layer 1
10
6.635990
20
25.277873
11
7.733690
21
24.470455
0
LINE
8
Layer 1
10
7.733690
20
24.470455
11
8.977670
21
23.720060
0
LINE
8
Layer 1
10
8.977670
20
23.720060
11
10.148513
21
23.172968
0
LINE
8
Layer 1
10
10.148513
20
23.172968
11
10.467823
21
23.019149
0
LINE
8
Layer 1
10
10.467823
20
23.019149
11
10.605527
21
22.805208
0
LINE
8
Layer 1
10
10.605527
20
22.805208
11
10.412969
21
21.777958
0
LINE
8
Layer 1
10
10.412969
20
21.777958
11
7.999809
21
14.412848
0
LINE
8
Layer 1
10
7.999809
20
14.412848
11
7.358502
21
12.707108
0
LINE
8
Layer 1
10
7.358502
20
12.707108
11
7.239497
21
12.442652
0
LINE
8
Layer 1
10
7.239497
20
12.442652
11
4.965167
21
18.644152
0
LINE
8
Layer 1
10
4.965167
20
18.644152
11
4.026347
21
21.189542
0
LINE
8
Layer 1
10
4.026347
20
21.189542
11
3.470989
21
23.503532
0
LINE
8
Layer 1
10
3.470989
20
23.503532
11
3.081742
21
25.727443
0
LINE
8
Layer 1
10
3.081742
20
25.727443
11
3.172546
21
26.143031
0
LINE
8
Layer 1
10
3.172546
20
26.143031
11
3.451155
21
26.617502
0
LINE
8
Layer 1
10
3.451155
20
26.617502
11
5.203175
21
29.533132
0
LINE
8
Layer 1
10
5.203175
20
29.533132
11
5.156895
21
29.281898
0
LINE
8
Layer 1
10
5.156895
20
29.281898
11
5.156894
21
29.281908
0
LINE
8
Layer 1
10
16.825994
20
27.311708
11
17.817706
21
26.214218
0
LINE
8
Layer 1
10
17.817706
20
26.214218
11
17.110285
21
26.439006
0
LINE
8
Layer 1
10
17.110285
20
26.439006
11
16.535092
21
26.610903
0
LINE
8
Layer 1
10
16.535092
20
26.610903
11
16.098739
21
27.516666
0
LINE
8
Layer 1
10
16.098739
20
27.516666
11
15.668997
21
28.468709
0
LINE
8
Layer 1
10
15.668997
20
28.468709
11
15.688831
21
28.488543
0
LINE
8
Layer 1
10
15.688831
20
28.488543
11
16.825991
21
27.311713
0
LINE
8
Layer 1
10
16.825991
20
27.311713
11
16.825994
21
27.311708
0
LINE
8
Layer 1
10
17.487135
20
25.883648
11
17.875555
21
25.748114
0
LINE
8
Layer 1
10
17.875555
20
25.748114
11
17.698700
21
25.751420
0
LINE
8
Layer 1
10
17.698700
20
25.751420
11
17.136730
21
25.910094
0
LINE
8
Layer 1
10
17.136730
20
25.910094
11
16.954916
21
26.033231
0
LINE
8
Layer 1
10
16.954916
20
26.033231
11
17.487135
21
25.883648
0
LINE
8
Layer 1
10
17.487135
20
25.883648
11
17.487135
21
25.883648
0
LINE
8
Layer 1
10
16.839217
20
25.063833
11
17.159664
21
24.602997
0
LINE
8
Layer 1
10
17.159664
20
24.602997
11
17.206150
21
24.352279
0
LINE
8
Layer 1
10
17.206150
20
24.352279
11
16.105350
21
23.893613
0
LINE
8
Layer 1
10
16.105350
20
23.893613
11
15.186364
21
23.576265
0
LINE
8
Layer 1
10
15.186364
20
23.576265
11
14.716954
21
23.834110
0
LINE
8
Layer 1
10
14.716954
20
23.834110
11
11.741824
21
25.526630
0
LINE
8
Layer 1
10
11.741824
20
25.526630
11
12.072394
21
25.592744
0
LINE
8
Layer 1
10
12.072394
20
25.592744
11
14.313664
21
25.744806
0
LINE
8
Layer 1
10
14.313664
20
25.744806
11
16.257414
21
25.824143
0
LINE
8
Layer 1
10
16.257414
20
25.824143
11
16.839218
21
25.063831
0
LINE
8
Layer 1
10
16.839218
20
25.063831
11
16.839217
21
25.063833
0
LINE
8
Layer 1
10
17.738369
20
25.328289
11
18.121831
21
25.288620
0
LINE
8
Layer 1
10
18.121831
20
25.288620
11
17.903654
21
24.977884
0
LINE
8
Layer 1
10
17.903654
20
24.977884
11
17.639198
21
24.660536
0
LINE
8
Layer 1
10
17.639198
20
24.660536
11
17.315239
21
25.070443
0
LINE
8
Layer 1
10
17.315239
20
25.070443
11
17.106980
21
25.401840
0
LINE
8
Layer 1
10
17.106980
20
25.401840
11
17.196234
21
25.420848
0
LINE
8
Layer 1
10
17.196234
20
25.420848
11
17.738370
21
25.328288
0
LINE
8
Layer 1
10
17.738370
20
25.328288
11
17.738369
21
25.328289
0
LINE
8
Layer 1
10
11.801319
20
25.004330
11
14.545059
21
23.470480
0
LINE
8
Layer 1
10
14.545059
20
23.470480
11
14.313660
21
23.430811
0
LINE
8
Layer 1
10
14.313660
20
23.430811
11
12.627750
21
23.543205
0
LINE
8
Layer 1
10
12.627750
20
23.543205
11
11.259190
21
23.629153
0
LINE
8
Layer 1
10
11.259190
20
23.629153
11
11.191423
21
24.474589
0
LINE
8
Layer 1
10
11.191423
20
24.474589
11
11.292247
21
25.255563
0
LINE
8
Layer 1
10
11.292247
20
25.255563
11
11.801326
21
25.004329
0
LINE
8
Layer 1
10
11.801326
20
25.004329
11
11.801319
21
25.004330
0
LINE
8
Layer 1
10
3.371769
20
20.561460
11
2.710628
21
12.264140
0
LINE
8
Layer 1
10
2.710628
20
12.264140
11
2.545343
21
10.247660
0
LINE
8
Layer 1
10
2.545343
20
10.247660
11
2.347001
21
7.986560
0
LINE
8
Layer 1
10
2.347001
20
7.986560
11
2.247830
21
7.041128
0
LINE
8
Layer 1
10
2.247830
20
7.041128
11
1.606523
21
7.431201
0
LINE
8
Layer 1
10
1.606523
20
7.431201
11
0.958605
21
8.013005
0
LINE
8
Layer 1
10
0.958605
20
8.013005
11
0.899102
21
9.123725
0
LINE
8
Layer 1
10
0.899102
20
9.123725
11
0.727205
21
12.561655
0
LINE
8
Layer 1
10
0.727205
20
12.561655
11
0.495806
21
17.216085
0
LINE
8
Layer 1
10
0.495806
20
17.216085
11
0.390023
21
19.391235
0
LINE
8
Layer 1
10
0.390023
20
19.391235
11
1.487513
21
22.108525
0
LINE
8
Layer 1
10
1.487513
20
22.108525
11
2.657733
21
24.991095
0
LINE
8
Layer 1
10
2.657733
20
24.991095
11
2.780871
21
24.815066
0
LINE
8
Layer 1
10
2.780871
20
24.815066
11
3.087475
21
23.404355
0
LINE
8
Layer 1
10
3.087475
20
23.404355
11
3.451103
21
21.652335
0
LINE
8
Layer 1
10
3.451103
20
21.652335
11
3.371766
21
20.561455
0
LINE
8
Layer 1
10
3.371766
20
20.561455
11
3.371769
21
20.561460
0
LINE
8
Layer 1
10
17.606169
20
23.801050
11
17.338407
21
23.506016
0
LINE
8
Layer 1
10
17.338407
20
23.506016
11
16.911971
21
23.344863
0
LINE
8
Layer 1
10
16.911971
20
23.344863
11
15.893811
21
23.384531
0
LINE
8
Layer 1
10
15.893811
20
23.384531
11
17.639221
21
23.992781
0
LINE
8
Layer 1
10
17.639221
20
23.992781
11
17.606164
21
23.801050
0
LINE
8
Layer 1
10
17.606164
20
23.801050
11
17.606169
21
23.801050
0
LINE
8
Layer 1
10
5.665969
20
15.569840
11
7.252709
21
11.371590
0
LINE
8
Layer 1
10
7.252709
20
11.371590
11
7.649394
21
10.459215
0
LINE
8
Layer 1
10
7.649394
20
10.459215
11
7.067590
21
10.763340
0
LINE
8
Layer 1
10
7.067590
20
10.763340
11
3.285860
21
13.189730
0
LINE
8
Layer 1
10
3.285860
20
13.189730
11
3.298256
21
14.569034
0
LINE
8
Layer 1
10
3.298256
20
14.569034
11
3.742047
21
20.158160
0
LINE
8
Layer 1
10
3.742047
20
20.158160
11
3.788327
21
20.706907
0
LINE
8
Layer 1
10
3.788327
20
20.706907
11
4.112286
21
19.827589
0
LINE
8
Layer 1
10
4.112286
20
19.827589
11
5.665966
21
15.569839
0
LINE
8
Layer 1
10
5.665966
20
15.569839
11
5.665969
21
15.569840
0
LINE
8
Layer 1
10
13.513709
20
19.054050
11
14.148404
21
17.778050
0
LINE
8
Layer 1
10
14.148404
20
17.778050
11
13.976507
21
17.718547
0
LINE
8
Layer 1
10
13.976507
20
17.718547
11
13.758330
21
17.652433
0
LINE
8
Layer 1
10
13.758330
20
17.652433
11
13.004629
21
16.911955
0
LINE
8
Layer 1
10
13.004629
20
16.911955
11
12.687281
21
16.131809
0
LINE
8
Layer 1
10
12.687281
20
16.131809
11
12.538525
21
14.844235
0
LINE
8
Layer 1
10
12.538525
20
14.844235
11
12.687281
21
12.297189
0
LINE
8
Layer 1
10
12.687281
20
12.297189
11
12.839343
21
10.479049
0
LINE
8
Layer 1
10
12.839343
20
10.479049
11
12.859177
21
10.287318
0
LINE
8
Layer 1
10
12.859177
20
10.287318
11
12.045974
21
10.122033
0
LINE
8
Layer 1
10
12.045974
20
10.122033
11
11.199714
21
10.003028
0
LINE
8
Layer 1
10
11.199714
20
10.003028
11
11.563342
21
12.277358
0
LINE
8
Layer 1
10
11.563342
20
12.277358
11
12.766622
21
19.682138
0
LINE
8
Layer 1
10
12.766622
20
19.682138
11
12.865793
21
20.343279
0
LINE
8
Layer 1
10
12.865793
20
20.343279
11
13.513711
21
19.054059
0
LINE
8
Layer 1
10
13.513711
20
19.054059
11
13.513709
21
19.054050
0
LINE
8
Layer 1
10
12.257539
20
18.842485
11
11.001369
21
11.345145
0
LINE
8
Layer 1
10
11.001369
20
11.345145
11
10.769970
21
10.148475
0
LINE
8
Layer 1
10
10.769970
20
10.148475
11
10.333617
21
9.421220
0
LINE
8
Layer 1
10
10.333617
20
9.421220
11
9.903875
21
8.693965
0
LINE
8
Layer 1
10
9.903875
20
8.693965
11
9.943544
21
9.123707
0
LINE
8
Layer 1
10
9.943544
20
9.123707
11
10.287337
21
13.189727
0
LINE
8
Layer 1
10
10.287337
20
13.189727
11
10.591462
21
16.826007
0
LINE
8
Layer 1
10
10.591462
20
16.826007
11
11.199712
21
17.883837
0
LINE
8
Layer 1
10
11.199712
20
17.883837
11
12.105475
21
19.450737
0
LINE
8
Layer 1
10
12.105475
20
19.450737
11
12.402988
21
19.946593
0
LINE
8
Layer 1
10
12.402988
20
19.946593
11
12.257537
21
18.842483
0
LINE
8
Layer 1
10
12.257537
20
18.842483
11
12.257539
21
18.842485
0
LINE
8
Layer 1
10
14.716979
20
17.255745
11
15.236801
21
16.818565
0
LINE
8
Layer 1
10
15.236801
20
16.818565
11
16.098759
21
15.602895
0
LINE
8
Layer 1
10
16.098759
20
15.602895
11
17.077248
21
14.082275
0
LINE
8
Layer 1
10
17.077248
20
14.082275
11
17.249145
21
13.784762
0
LINE
8
Layer 1
10
17.249145
20
13.784762
11
17.030968
21
13.024450
0
LINE
8
Layer 1
10
17.030968
20
13.024450
11
16.363216
21
10.571620
0
LINE
8
Layer 1
10
16.363216
20
10.571620
11
15.867360
21
8.793150
0
LINE
8
Layer 1
10
15.867360
20
8.793150
11
14.776480
21
9.361731
0
LINE
8
Layer 1
10
14.776480
20
9.361731
11
13.493870
21
10.188157
0
LINE
8
Layer 1
10
13.493870
20
10.188157
11
13.249248
21
10.360054
0
LINE
8
Layer 1
10
13.249248
20
10.360054
11
13.169911
21
11.312097
0
LINE
8
Layer 1
10
13.169911
20
11.312097
11
12.916198
21
14.850854
0
LINE
8
Layer 1
10
12.916198
20
14.850854
11
13.083963
21
16.138427
0
LINE
8
Layer 1
10
13.083963
20
16.138427
11
13.380960
21
16.774153
0
LINE
8
Layer 1
10
13.380960
20
16.774153
11
13.754195
21
17.173109
0
LINE
8
Layer 1
10
13.754195
20
17.173109
11
14.200569
21
17.334057
0
LINE
8
Layer 1
10
14.200569
20
17.334057
11
14.716983
21
17.255757
0
LINE
8
Layer 1
10
14.716983
20
17.255757
11
14.716979
21
17.255745
0
LINE
8
Layer 1
10
6.737009
20
9.804685
11
7.746077
21
9.543534
0
LINE
8
Layer 1
10
7.746077
20
9.543534
11
7.827889
21
9.441057
0
LINE
8
Layer 1
10
7.827889
20
9.441057
11
4.522189
21
8.680745
0
LINE
8
Layer 1
10
4.522189
20
8.680745
11
5.414729
21
10.115425
0
LINE
8
Layer 1
10
5.414729
20
10.115425
11
6.737009
21
9.804689
0
LINE
8
Layer 1
10
6.737009
20
9.804689
11
6.737009
21
9.804685
0
LINE
8
Layer 1
10
4.423019
20
9.341886
11
4.066003
21
8.806362
0
LINE
8
Layer 1
10
4.066003
20
8.806362
11
4.079226
21
9.070818
0
LINE
8
Layer 1
10
4.079226
20
9.070818
11
4.383351
21
9.599731
0
LINE
8
Layer 1
10
4.383351
20
9.599731
11
4.707310
21
9.850965
0
LINE
8
Layer 1
10
4.707310
20
9.850965
11
4.423019
21
9.341886
0
LINE
8
Layer 1
10
4.423019
20
9.341886
11
4.423019
21
9.341886
0
LINE
8
Layer 1
10
12.231099
20
9.685679
11
11.854249
21
9.050984
0
LINE
8
Layer 1
10
11.854249
20
9.050984
11
11.477399
21
8.442734
0
LINE
8
Layer 1
10
11.477399
20
8.442734
11
11.365005
21
8.852641
0
LINE
8
Layer 1
10
11.365005
20
8.852641
11
11.302197
21
9.393950
0
LINE
8
Layer 1
10
11.302197
20
9.393950
11
11.517067
21
9.612953
0
LINE
8
Layer 1
10
11.517067
20
9.612953
11
11.801358
21
9.672455
0
LINE
8
Layer 1
10
11.801358
20
9.672455
11
12.231100
21
9.685678
0
LINE
8
Layer 1
10
12.231100
20
9.685678
11
12.231099
21
9.685679
0
LINE
8
Layer 1
10
14.359969
20
8.574959
11
14.994664
21
8.032823
0
LINE
8
Layer 1
10
14.994664
20
8.032823
11
14.240963
21
8.012988
0
LINE
8
Layer 1
10
14.240963
20
8.012988
11
12.733563
21
8.012988
0
LINE
8
Layer 1
10
12.733563
20
8.012988
11
11.979862
21
8.032823
0
LINE
8
Layer 1
10
11.979862
20
8.032823
11
12.356712
21
8.634461
0
LINE
8
Layer 1
10
12.356712
20
8.634461
11
12.879013
21
9.487333
0
LINE
8
Layer 1
10
12.879013
20
9.487333
11
13.024464
21
9.731955
0
LINE
8
Layer 1
10
13.024464
20
9.731955
11
13.374869
21
9.421219
0
LINE
8
Layer 1
10
13.374869
20
9.421219
11
14.359969
21
8.574959
0
LINE
8
Layer 1
10
14.359969
20
8.574959
11
14.359969
21
8.574959
0
LINE
8
Layer 1
10
15.120281
20
8.674130
11
15.565725
21
8.351824
0
LINE
8
Layer 1
10
15.565725
20
8.351824
11
15.589691
21
8.178274
0
LINE
8
Layer 1
10
15.589691
20
8.178274
11
15.444240
21
8.138605
0
LINE
8
Layer 1
10
15.444240
20
8.138605
11
14.796322
21
8.720409
0
LINE
8
Layer 1
10
14.796322
20
8.720409
11
14.214518
21
9.236099
0
LINE
8
Layer 1
10
14.214518
20
9.236099
11
15.120281
21
8.674129
0
LINE
8
Layer 1
10
15.120281
20
8.674129
11
15.120281
21
8.674130
0
LINE
8
Layer 1
10
10.862531
20
7.206400
11
11.636066
21
6.677487
0
LINE
8
Layer 1
10
11.636066
20
6.677487
11
9.804706
21
5.646107
0
LINE
8
Layer 1
10
9.804706
20
5.646107
11
10.055940
21
7.722087
0
LINE
8
Layer 1
10
10.055940
20
7.722087
11
10.862532
21
7.206397
0
LINE
8
Layer 1
10
10.862532
20
7.206397
11
10.862531
21
7.206400
0
LINE
8
Layer 1
10
8.660931
20
7.318794
11
7.649381
21
6.426254
0
LINE
8
Layer 1
10
7.649381
20
6.426254
11
7.048569
21
5.934530
0
LINE
8
Layer 1
10
7.048569
20
5.934530
11
6.908903
21
5.963455
0
LINE
8
Layer 1
10
6.908903
20
5.963455
11
6.703949
21
7.054335
0
LINE
8
Layer 1
10
6.703949
20
7.054335
11
8.892329
21
7.596471
0
LINE
8
Layer 1
10
8.892329
20
7.596471
11
8.660930
21
7.318792
0
LINE
8
Layer 1
10
8.660930
20
7.318792
11
8.660931
21
7.318794
0
LINE
8
Layer 1
10
8.991502
20
6.875830
11
8.867538
21
6.421295
0
LINE
8
Layer 1
10
8.867538
20
6.421295
11
8.951834
21
5.837840
0
LINE
8
Layer 1
10
8.951834
20
5.837840
11
9.044393
21
5.487435
0
LINE
8
Layer 1
10
9.044393
20
5.487435
11
8.343584
21
5.494046
0
LINE
8
Layer 1
10
8.343584
20
5.494046
11
7.654345
21
5.509438
0
LINE
8
Layer 1
10
7.654345
20
5.509438
11
7.406416
21
5.597350
0
LINE
8
Layer 1
10
7.406416
20
5.597350
11
8.145242
21
6.360141
0
LINE
8
Layer 1
10
8.145242
20
6.360141
11
9.077451
21
7.133676
0
LINE
8
Layer 1
10
9.077451
20
7.133676
11
8.991503
21
6.875831
0
LINE
8
Layer 1
10
8.991503
20
6.875831
11
8.991502
21
6.875830
0
LINE
8
Layer 1
10
9.467524
20
6.446088
11
9.361741
21
5.784947
0
LINE
8
Layer 1
10
9.361741
20
5.784947
11
9.302238
21
6.128740
0
LINE
8
Layer 1
10
9.302238
20
6.128740
11
9.388187
21
6.803104
0
LINE
8
Layer 1
10
9.388187
20
6.803104
11
9.560084
21
7.120452
0
LINE
8
Layer 1
10
9.560084
20
7.120452
11
9.467524
21
6.446088
0
LINE
8
Layer 1
10
9.467524
20
6.446088
11
9.467524
21
6.446088
 0 
ENDSEC
 0 
EOF