999
"DXF R12 Output" (www.mydxf.blogspot.com)
 0 
SECTION
 2 
HEADER
 9 
$ACADVER
 1 
AC1009
 9 
$EXTMIN
 10 
 0 
 20 
 0 
 9 
$EXTMAX
 10 
 8.5 
 20 
 11 
 0 
ENDSEC
 0 
SECTION
 2 
ENTITIES
0
LINE
8
Layer 1
10
0.899582
20
23.680100
11
0.853280
21
23.293147
0
LINE
8
Layer 1
10
0.853280
20
23.293147
11
1.005415
21
22.965726
0
LINE
8
Layer 1
10
1.005415
20
22.965726
11
1.353094
21
22.802428
0
LINE
8
Layer 1
10
1.353094
20
22.802428
11
1.723098
21
22.869815
0
LINE
8
Layer 1
10
1.723098
20
22.869815
11
1.998843
21
23.110833
0
LINE
8
Layer 1
10
1.998843
20
23.110833
11
2.063745
21
23.468434
0
LINE
8
Layer 1
10
2.063745
20
23.468434
11
1.866961
21
23.836370
0
LINE
8
Layer 1
10
1.866961
20
23.836370
11
1.521349
21
24.010829
0
LINE
8
Layer 1
10
1.521349
20
24.010829
11
1.155892
21
23.967008
0
LINE
8
Layer 1
10
1.155892
20
23.967008
11
0.899575
21
23.680100
0
LINE
8
Layer 1
10
0.899575
20
23.680100
11
0.899582
21
23.680100
0
LINE
8
Layer 1
10
103.029000
20
23.680100
11
102.965335
21
23.312164
0
LINE
8
Layer 1
10
102.965335
20
23.312164
11
103.075302
21
23.018643
0
LINE
8
Layer 1
10
103.075302
20
23.018643
11
103.334097
21
22.824340
0
LINE
8
Layer 1
10
103.334097
20
22.824340
11
103.716916
21
22.754060
0
LINE
8
Layer 1
10
103.716916
20
22.754060
11
104.102629
21
22.816485
0
LINE
8
Layer 1
10
104.102629
20
22.816485
11
104.341994
21
22.995492
0
LINE
8
Layer 1
10
104.341994
20
22.995492
11
104.427570
21
23.278678
0
LINE
8
Layer 1
10
104.427570
20
23.278678
11
104.351915
21
23.653642
0
LINE
8
Layer 1
10
104.351915
20
23.653642
11
104.081957
21
23.955432
0
LINE
8
Layer 1
10
104.081957
20
23.955432
11
103.680535
21
24.063746
0
LINE
8
Layer 1
10
103.680535
20
24.063746
11
103.284075
21
23.973622
0
LINE
8
Layer 1
10
103.284075
20
23.973622
11
103.029005
21
23.680100
0
LINE
8
Layer 1
10
103.029005
20
23.680100
11
103.029000
21
23.680100
0
LINE
8
Layer 1
10
27.331400
20
0.105733
11
25.059038
21
-0.550143
0
LINE
8
Layer 1
10
25.059038
20
-0.550143
11
22.884346
21
-1.490033
0
LINE
8
Layer 1
10
22.884346
20
-1.490033
11
20.835539
21
-2.690373
0
LINE
8
Layer 1
10
20.835539
20
-2.690373
11
18.940832
21
-4.127598
0
LINE
8
Layer 1
10
18.940832
20
-4.127598
11
17.228440
21
-5.778145
0
LINE
8
Layer 1
10
17.228440
20
-5.778145
11
15.726578
21
-7.618448
0
LINE
8
Layer 1
10
15.726578
20
-7.618448
11
14.463459
21
-9.624944
0
LINE
8
Layer 1
10
14.463459
20
-9.624944
11
13.467300
21
-11.774067
0
LINE
8
Layer 1
10
13.467300
20
-11.774067
11
12.798609
21
-13.849185
0
LINE
8
Layer 1
10
12.798609
20
-13.849185
11
12.379204
21
-15.972676
0
LINE
8
Layer 1
10
12.379204
20
-15.972676
11
12.207845
21
-18.123454
0
LINE
8
Layer 1
10
12.207845
20
-18.123454
11
12.283292
21
-20.280433
0
LINE
8
Layer 1
10
12.283292
20
-20.280433
11
12.604306
21
-22.422530
0
LINE
8
Layer 1
10
12.604306
20
-22.422530
11
13.169645
21
-24.528657
0
LINE
8
Layer 1
10
13.169645
20
-24.528657
11
13.978069
21
-26.577732
0
LINE
8
Layer 1
10
13.978069
20
-26.577732
11
15.028340
21
-28.548667
0
LINE
8
Layer 1
10
15.028340
20
-28.548667
11
16.261132
21
-30.408603
0
LINE
8
Layer 1
10
16.261132
20
-30.408603
11
17.846148
21
-32.315668
0
LINE
8
Layer 1
10
17.846148
20
-32.315668
11
20.185225
21
-34.713865
0
LINE
8
Layer 1
10
20.185225
20
-34.713865
11
23.680200
21
-38.047197
0
LINE
8
Layer 1
10
23.680200
20
-38.047197
11
34.263500
21
-48.021977
0
LINE
8
Layer 1
10
34.263500
20
-48.021977
11
49.063587
21
-61.998577
0
LINE
8
Layer 1
10
49.063587
20
-61.998577
11
52.652000
21
-65.219877
0
LINE
8
Layer 1
10
52.652000
20
-65.219877
11
57.335112
21
-60.979937
0
LINE
8
Layer 1
10
57.335112
20
-60.979937
11
73.686300
21
-45.508477
0
LINE
8
Layer 1
10
73.686300
20
-45.508477
11
82.567202
21
-37.032725
0
LINE
8
Layer 1
10
82.567202
20
-37.032725
11
87.504163
21
-32.094114
0
LINE
8
Layer 1
10
87.504163
20
-32.094114
11
88.941699
21
-30.472195
0
LINE
8
Layer 1
10
88.941699
20
-30.472195
11
89.930892
21
-29.159710
0
LINE
8
Layer 1
10
89.930892
20
-29.159710
11
91.281100
21
-26.696577
0
LINE
8
Layer 1
10
91.281100
20
-26.696577
11
92.172001
21
-24.470771
0
LINE
8
Layer 1
10
92.172001
20
-24.470771
11
92.752845
21
-22.264809
0
LINE
8
Layer 1
10
92.752845
20
-22.264809
11
93.040994
21
-19.999317
0
LINE
8
Layer 1
10
93.040994
20
-19.999317
11
93.053810
21
-17.594917
0
LINE
8
Layer 1
10
93.053810
20
-17.594917
11
92.695382
21
-14.552628
0
LINE
8
Layer 1
10
92.695382
20
-14.552628
11
91.912795
21
-11.790626
0
LINE
8
Layer 1
10
91.912795
20
-11.790626
11
90.668843
21
-9.212169
0
LINE
8
Layer 1
10
90.668843
20
-9.212169
11
88.926320
21
-6.720517
0
LINE
8
Layer 1
10
88.926320
20
-6.720517
11
87.886797
21
-5.551441
0
LINE
8
Layer 1
10
87.886797
20
-5.551441
11
86.692245
21
-4.437246
0
LINE
8
Layer 1
10
86.692245
20
-4.437246
11
83.952154
21
-2.444192
0
LINE
8
Layer 1
10
83.952154
20
-2.444192
11
80.934245
21
-0.882740
0
LINE
8
Layer 1
10
80.934245
20
-0.882740
11
79.392422
21
-0.308048
0
LINE
8
Layer 1
10
79.392422
20
-0.308048
11
77.866720
21
0.105723
0
LINE
8
Layer 1
10
77.866720
20
0.105723
11
75.095729
21
0.503425
0
LINE
8
Layer 1
10
75.095729
20
0.503425
11
72.248462
21
0.489370
0
LINE
8
Layer 1
10
72.248462
20
0.489370
11
69.337943
21
0.068518
0
LINE
8
Layer 1
10
69.337943
20
0.068518
11
66.377196
21
-0.754169
0
LINE
8
Layer 1
10
66.377196
20
-0.754169
11
63.379246
21
-1.973732
0
LINE
8
Layer 1
10
63.379246
20
-1.973732
11
60.357117
21
-3.585208
0
LINE
8
Layer 1
10
60.357117
20
-3.585208
11
57.323834
21
-5.583637
0
LINE
8
Layer 1
10
57.323834
20
-5.583637
11
54.292420
21
-7.964057
0
LINE
8
Layer 1
10
54.292420
20
-7.964057
11
52.741303
21
-9.144759
0
LINE
8
Layer 1
10
52.741303
20
-9.144759
11
52.301845
21
-9.344435
0
LINE
8
Layer 1
10
52.301845
20
-9.344435
11
52.043460
21
-9.313427
0
LINE
8
Layer 1
10
52.043460
20
-9.313427
11
49.609300
21
-7.381967
0
LINE
8
Layer 1
10
49.609300
20
-7.381967
11
45.405739
21
-4.316112
0
LINE
8
Layer 1
10
45.405739
20
-4.316112
11
41.539520
21
-1.984477
0
LINE
8
Layer 1
10
41.539520
20
-1.984477
11
39.824279
21
-1.201219
0
LINE
8
Layer 1
10
39.824279
20
-1.201219
11
38.047025
21
-0.560278
0
LINE
8
Layer 1
10
38.047025
20
-0.560278
11
34.395780
21
0.281013
0
LINE
8
Layer 1
10
34.395780
20
0.281013
11
32.566437
21
0.474542
0
LINE
8
Layer 1
10
32.566437
20
0.474542
11
30.764380
21
0.512112
0
LINE
8
Layer 1
10
30.764380
20
0.512112
11
29.011933
21
0.390312
0
LINE
8
Layer 1
10
29.011933
20
0.390312
11
27.331420
21
0.105733
0
LINE
8
Layer 1
10
27.331420
20
0.105733
11
27.331400
21
0.105733
0
LINE
8
Layer 1
10
35.189520
20
-7.831757
11
36.750558
21
-8.443605
0
LINE
8
Layer 1
10
36.750558
20
-8.443605
11
38.470350
21
-9.313417
0
LINE
8
Layer 1
10
38.470350
20
-9.313417
11
43.160083
21
-12.557865
0
LINE
8
Layer 1
10
43.160083
20
-12.557865
11
46.698880
21
-15.345907
0
LINE
8
Layer 1
10
46.698880
20
-15.345907
11
46.662500
21
-15.759319
0
LINE
8
Layer 1
10
46.662500
20
-15.759319
11
46.328464
21
-16.351327
0
LINE
8
Layer 1
10
46.328464
20
-16.351327
11
45.628146
21
-17.517973
0
LINE
8
Layer 1
10
45.628146
20
-17.517973
11
45.170915
21
-18.759033
0
LINE
8
Layer 1
10
45.170915
20
-18.759033
11
44.922044
21
-20.198530
0
LINE
8
Layer 1
10
44.922044
20
-20.198530
11
44.846804
21
-21.960487
0
LINE
8
Layer 1
10
44.846804
20
-21.960487
11
45.023330
21
-24.353311
0
LINE
8
Layer 1
10
45.023330
20
-24.353311
11
45.286311
21
-25.370508
0
LINE
8
Layer 1
10
45.286311
20
-25.370508
11
45.703391
21
-26.339336
0
LINE
8
Layer 1
10
45.703391
20
-26.339336
11
47.112708
21
-28.345204
0
LINE
8
Layer 1
10
47.112708
20
-28.345204
11
49.477004
21
-30.797557
0
LINE
8
Layer 1
10
49.477004
20
-30.797557
11
51.610208
21
-32.775315
0
LINE
8
Layer 1
10
51.610208
20
-32.775315
11
52.652004
21
-33.602137
0
LINE
8
Layer 1
10
52.652004
20
-33.602137
11
56.038664
21
-30.480057
0
LINE
8
Layer 1
10
56.038664
20
-30.480057
11
58.740719
21
-27.652324
0
LINE
8
Layer 1
10
58.740719
20
-27.652324
11
59.376131
21
-26.725870
0
LINE
8
Layer 1
10
59.376131
20
-26.725870
11
59.795744
21
-25.796937
0
LINE
8
Layer 1
10
59.795744
20
-25.796937
11
60.422888
21
-23.348302
0
LINE
8
Layer 1
10
60.422888
20
-23.348302
11
60.486966
21
-20.852541
0
LINE
8
Layer 1
10
60.486966
20
-20.852541
11
60.000382
21
-18.441115
0
LINE
8
Layer 1
10
60.000382
20
-18.441115
11
59.554467
21
-17.308110
0
LINE
8
Layer 1
10
59.554467
20
-17.308110
11
58.975537
21
-16.245487
0
LINE
8
Layer 1
10
58.975537
20
-16.245487
11
58.396762
21
-15.200382
0
LINE
8
Layer 1
10
58.396762
20
-15.200382
11
58.391388
21
-14.920918
0
LINE
8
Layer 1
10
58.391388
20
-14.920918
11
58.552204
21
-14.710907
0
LINE
8
Layer 1
10
58.552204
20
-14.710907
11
62.305975
21
-11.876563
0
LINE
8
Layer 1
10
62.305975
20
-11.876563
11
65.643024
21
-9.577997
0
LINE
8
Layer 1
10
65.643024
20
-9.577997
11
67.376714
21
-8.691334
0
LINE
8
Layer 1
10
67.376714
20
-8.691334
11
69.084671
21
-8.016131
0
LINE
8
Layer 1
10
69.084671
20
-8.016131
11
70.765963
21
-7.553008
0
LINE
8
Layer 1
10
70.765963
20
-7.553008
11
72.419661
21
-7.302584
0
LINE
8
Layer 1
10
72.419661
20
-7.302584
11
74.044837
21
-7.265481
0
LINE
8
Layer 1
10
74.044837
20
-7.265481
11
75.640559
21
-7.442317
0
LINE
8
Layer 1
10
75.640559
20
-7.442317
11
77.205898
21
-7.833712
0
LINE
8
Layer 1
10
77.205898
20
-7.833712
11
78.739924
21
-8.440287
0
LINE
8
Layer 1
10
78.739924
20
-8.440287
11
80.236060
21
-9.313411
0
LINE
8
Layer 1
10
80.236060
20
-9.313411
11
81.719793
21
-10.484191
0
LINE
8
Layer 1
10
81.719793
20
-10.484191
11
83.029891
21
-11.803800
0
LINE
8
Layer 1
10
83.029891
20
-11.803800
11
84.005124
21
-13.123407
0
LINE
8
Layer 1
10
84.005124
20
-13.123407
11
84.930751
21
-15.290094
0
LINE
8
Layer 1
10
84.930751
20
-15.290094
11
85.357804
21
-17.677542
0
LINE
8
Layer 1
10
85.357804
20
-17.677542
11
85.273881
21
-20.129482
0
LINE
8
Layer 1
10
85.273881
20
-20.129482
11
84.666581
21
-22.489647
0
LINE
8
Layer 1
10
84.666581
20
-22.489647
11
84.238183
21
-23.511288
0
LINE
8
Layer 1
10
84.238183
20
-23.511288
11
83.650415
21
-24.536030
0
LINE
8
Layer 1
10
83.650415
20
-24.536030
11
82.699258
21
-25.777813
0
LINE
8
Layer 1
10
82.699258
20
-25.777813
11
81.180693
21
-27.450577
0
LINE
8
Layer 1
10
81.180693
20
-27.450577
11
75.625265
21
-32.944809
0
LINE
8
Layer 1
10
75.625265
20
-32.944809
11
65.351981
21
-42.730247
0
LINE
8
Layer 1
10
65.351981
20
-42.730247
11
55.244881
21
-52.361067
0
LINE
8
Layer 1
10
55.244881
20
-52.361067
11
52.651971
21
-54.848147
0
LINE
8
Layer 1
10
52.651971
20
-54.848147
11
48.498021
21
-50.905857
0
LINE
8
Layer 1
10
48.498021
20
-50.905857
11
32.166658
21
-35.427744
0
LINE
8
Layer 1
10
32.166658
20
-35.427744
11
23.177421
21
-26.696557
0
LINE
8
Layer 1
10
23.177421
20
-26.696557
11
21.761128
21
-24.808612
0
LINE
8
Layer 1
10
21.761128
20
-24.808612
11
20.746979
21
-22.789820
0
LINE
8
Layer 1
10
20.746979
20
-22.789820
11
20.135287
21
-20.690411
0
LINE
8
Layer 1
10
20.135287
20
-20.690411
11
19.926359
21
-18.560616
0
LINE
8
Layer 1
10
19.926359
20
-18.560616
11
20.120507
21
-16.450663
0
LINE
8
Layer 1
10
20.120507
20
-16.450663
11
20.718040
21
-14.410782
0
LINE
8
Layer 1
10
20.718040
20
-14.410782
11
21.719269
21
-12.491204
0
LINE
8
Layer 1
10
21.719269
20
-12.491204
11
23.124504
21
-10.742157
0
LINE
8
Layer 1
10
23.124504
20
-10.742157
11
24.334196
21
-9.668632
0
LINE
8
Layer 1
10
24.334196
20
-9.668632
11
25.653338
21
-8.791684
0
LINE
8
Layer 1
10
25.653338
20
-8.791684
11
27.069839
21
-8.114414
0
LINE
8
Layer 1
10
27.069839
20
-8.114414
11
28.571607
21
-7.639922
0
LINE
8
Layer 1
10
28.571607
20
-7.639922
11
30.146550
21
-7.371309
0
LINE
8
Layer 1
10
30.146550
20
-7.371309
11
31.782575
21
-7.311675
0
LINE
8
Layer 1
10
31.782575
20
-7.311675
11
33.467590
21
-7.464121
0
LINE
8
Layer 1
10
33.467590
20
-7.464121
11
35.189504
21
-7.831747
0
LINE
8
Layer 1
10
35.189504
20
-7.831747
11
35.189520
21
-7.831757
0
LINE
8
Layer 1
10
52.916620
20
-21.960457
11
52.843860
21
-22.516081
0
LINE
8
Layer 1
10
52.843860
20
-22.516081
11
52.652037
21
-22.754206
0
LINE
8
Layer 1
10
52.652037
20
-22.754206
11
52.475924
21
-22.572305
0
LINE
8
Layer 1
10
52.475924
20
-22.572305
11
52.394069
21
-22.152279
0
LINE
8
Layer 1
10
52.394069
20
-22.152279
11
52.421354
21
-21.682644
0
LINE
8
Layer 1
10
52.421354
20
-21.682644
11
52.572662
21
-21.351916
0
LINE
8
Layer 1
10
52.572662
20
-21.351916
11
52.749188
21
-21.197714
0
LINE
8
Layer 1
10
52.749188
20
-21.197714
11
52.853781
21
-21.229546
0
LINE
8
Layer 1
10
52.853781
20
-21.229546
11
52.916620
21
-21.960457
0
LINE
8
Layer 1
10
52.916620
20
-21.960457
11
52.916620
21
-21.960457
0
LINE
8
Layer 1
10
1.137710
20
-77.179000
11
0.878088
21
-77.422499
0
LINE
8
Layer 1
10
0.878088
20
-77.422499
11
0.806981
21
-77.817307
0
LINE
8
Layer 1
10
0.806981
20
-77.817307
11
0.914468
21
-78.217077
0
LINE
8
Layer 1
10
0.914468
20
-78.217077
11
1.190627
21
-78.475460
0
LINE
8
Layer 1
10
1.190627
20
-78.475460
11
1.555255
21
-78.486622
0
LINE
8
Layer 1
10
1.555255
20
-78.486622
11
1.944686
21
-78.326632
0
LINE
8
Layer 1
10
1.944686
20
-78.326632
11
2.254743
21
-78.062462
0
LINE
8
Layer 1
10
2.254743
20
-78.062462
11
2.381247
21
-77.761086
0
LINE
8
Layer 1
10
2.381247
20
-77.761086
11
2.239033
21
-77.517587
0
LINE
8
Layer 1
10
2.239033
20
-77.517587
11
1.898383
21
-77.301373
0
LINE
8
Layer 1
10
1.898383
20
-77.301373
11
1.137707
21
-77.179003
0
LINE
8
Layer 1
10
1.137707
20
-77.179003
11
1.137710
21
-77.179000
0
LINE
8
Layer 1
10
103.214000
20
-77.364200
11
103.059798
21
-77.732962
0
LINE
8
Layer 1
10
103.059798
20
-77.732962
11
103.091630
21
-78.131490
0
LINE
8
Layer 1
10
103.091630
20
-78.131490
11
103.277252
21
-78.450642
0
LINE
8
Layer 1
10
103.277252
20
-78.450642
11
103.584416
21
-78.581280
0
LINE
8
Layer 1
10
103.584416
20
-78.581280
11
104.245874
21
-78.184406
0
LINE
8
Layer 1
10
104.245874
20
-78.184406
11
104.444311
21
-77.787532
0
LINE
8
Layer 1
10
104.444311
20
-77.787532
11
104.245874
21
-77.390657
0
LINE
8
Layer 1
10
104.245874
20
-77.390657
11
103.729938
21
-77.010319
0
LINE
8
Layer 1
10
103.729938
20
-77.010319
11
103.214004
21
-77.364199
0
LINE
8
Layer 1
10
103.214004
20
-77.364199
11
103.214000
21
-77.364200
 0 
ENDSEC
 0 
EOF