<?xml version="1.0" standalone="no"?>
<!DOCTYPE svg PUBLIC "-//W3C//DTD SVG 20010904//EN"
 "http://www.w3.org/TR/2001/REC-SVG-20010904/DTD/svg10.dtd">
<svg version="1.0" xmlns="http://www.w3.org/2000/svg"
 width="170.078740pt" height="170.078740pt" viewBox="0 0 170.078740 170.078740"
 preserveAspectRatio="xMidYMid meet">
<metadata>
Created by potrace 1.16, written by Peter Selinger 2001-2019
</metadata>
<g transform="translate(0.000000,170.078740) scale(0.018752,-0.018752)"
fill="#000000" stroke="none">
<path d="M3974 7011 c-180 -29 -351 -145 -447 -303 -84 -139 -106 -322 -60
-497 7 -31 21 -66 29 -78 22 -35 17 -43 -18 -25 -26 13 -61 17 -163 17 -158 0
-240 -23 -352 -97 -339 -228 -413 -697 -154 -980 l60 -65 -50 -49 c-103 -100
-156 -224 -166 -383 -19 -318 177 -617 469 -712 63 -21 92 -24 213 -24 158 0
209 12 295 70 l50 34 0 -32 c0 -48 25 -132 54 -181 37 -63 127 -141 194 -167
49 -20 76 -23 192 -24 131 0 137 1 201 31 69 33 137 95 163 148 14 28 16 -60
16 -934 0 -738 3 -969 12 -978 16 -16 170 -16 186 0 9 9 12 241 12 983 l0 970
26 -45 c14 -25 35 -55 47 -68 37 -40 117 -85 175 -98 79 -19 226 -18 293 2
155 46 256 167 275 329 l7 54 61 -34 c84 -47 162 -65 276 -65 128 0 213 20
317 74 146 76 245 180 313 330 49 108 63 184 57 321 -7 174 -48 275 -163 396
l-54 55 61 62 c220 226 207 612 -29 873 -62 68 -177 148 -259 180 -87 33 -266
38 -347 10 -33 -12 -61 -19 -63 -18 -2 2 6 24 17 49 59 133 65 319 17 458 -66
188 -225 337 -422 396 -81 25 -266 24 -350 0 -126 -37 -274 -140 -339 -236
l-17 -25 -55 62 c-88 99 -197 169 -308 199 -65 18 -206 25 -272 15z m250 -77
c124 -30 259 -131 344 -257 38 -56 40 -55 102 28 125 169 272 247 470 248 160
0 287 -52 400 -163 112 -111 164 -238 164 -400 0 -99 -23 -200 -65 -282 -52
-102 -409 -507 -733 -833 l-109 -110 104 113 c459 497 574 651 643 864 48 150
42 288 -19 413 -99 203 -328 307 -550 250 -166 -44 -303 -183 -352 -358 l-17
-58 -13 53 c-23 87 -57 150 -117 215 -103 111 -214 163 -350 163 -136 0 -251
-46 -346 -136 -100 -95 -144 -208 -143 -359 3 -243 160 -498 573 -930 63 -66
128 -136 145 -156 45 -52 -165 161 -365 372 -393 413 -467 530 -478 748 -8
177 33 290 150 416 94 101 203 157 340 174 74 9 141 5 222 -15z m59 -212 c139
-64 221 -178 257 -352 21 -101 40 -361 36 -495 -1 -44 -3 -236 -4 -427 l-2
-348 -172 185 c-430 461 -540 597 -623 770 -108 224 -98 423 27 560 128 140
320 183 481 107z m982 -1 c85 -39 164 -114 205 -196 27 -54 33 -78 38 -153 5
-98 -5 -158 -46 -262 -33 -85 -129 -239 -217 -349 -66 -83 -389 -441 -537
-596 l-68 -70 0 505 c0 543 8 700 41 822 45 166 166 287 329 328 68 18 184 5
255 -29z m-1809 -677 c54 -26 162 -119 214 -184 l31 -40 -68 33 c-64 30 -74
32 -178 32 -136 -1 -207 -19 -341 -85 -131 -64 -229 -152 -276 -248 -30 -60
-33 -75 -33 -157 0 -79 3 -97 28 -145 63 -123 189 -215 349 -254 91 -22 92
-23 53 -30 -104 -18 -240 -75 -307 -128 -117 -92 -174 -282 -133 -443 24 -90
52 -141 116 -210 98 -105 241 -164 395 -165 127 0 309 69 449 170 39 28 90 65
115 82 l45 32 -33 -39 c-85 -104 -129 -164 -159 -220 -18 -33 -33 -56 -33 -52
0 5 -17 -5 -37 -21 -167 -131 -434 -138 -627 -18 -193 121 -307 318 -310 536
-2 199 64 336 219 456 l40 31 -86 84 c-125 123 -169 226 -169 397 0 142 43
263 137 384 148 193 424 286 599 202z m2589 9 c224 -70 390 -257 439 -495 20
-96 20 -145 1 -227 -25 -103 -69 -177 -164 -270 l-86 -84 45 -36 c188 -150
253 -332 204 -568 -28 -139 -104 -267 -212 -357 -201 -169 -489 -197 -676 -66
-31 22 -60 40 -64 40 -4 0 -20 25 -35 55 -14 29 -63 97 -107 150 -45 53 -80
98 -78 100 2 2 42 -25 88 -61 332 -256 654 -281 879 -68 77 72 114 134 136
225 64 272 -82 492 -375 564 -39 10 -69 19 -67 21 2 3 37 14 78 25 227 63 359
209 359 396 0 162 -121 309 -345 417 -116 57 -177 71 -305 71 -111 0 -172 -16
-235 -59 -23 -15 -18 -6 23 41 163 190 309 245 497 186z m-2479 -241 c74 -26
204 -117 334 -235 112 -101 573 -545 577 -556 4 -8 -937 -5 -1072 3 -111 6
-268 42 -335 76 -65 33 -146 115 -177 179 -83 168 14 347 250 465 160 81 314
105 423 68z m2368 -13 c170 -57 340 -186 386 -291 51 -117 23 -234 -81 -333
-65 -62 -127 -94 -244 -126 -77 -21 -104 -23 -670 -28 -324 -3 -592 -5 -595
-3 -3 2 27 31 65 65 39 33 167 156 285 272 353 347 461 430 601 466 51 12 184
1 253 -22z m-1500 -932 c-648 -609 -862 -762 -1092 -783 -290 -27 -530 210
-491 484 23 160 106 248 294 308 211 68 201 67 780 74 292 3 548 7 569 8 l39
2 -99 -93z m1406 68 c208 -35 364 -97 429 -171 72 -82 86 -123 86 -254 0 -110
-1 -119 -33 -182 -77 -157 -268 -261 -448 -245 -67 7 -202 52 -273 93 -73 42
-237 165 -337 250 -193 167 -542 485 -556 506 l-15 23 531 -3 c407 -2 551 -6
616 -17z m-1304 -187 c-3 -40 -8 -156 -11 -258 -12 -390 -35 -606 -76 -715
-27 -71 -87 -138 -157 -172 -52 -26 -66 -28 -167 -28 -90 1 -120 5 -166 23
-120 48 -198 151 -207 272 -5 79 8 131 50 196 30 46 713 749 731 753 5 0 6
-32 3 -71z m534 -315 c351 -354 381 -395 388 -529 4 -72 1 -89 -21 -137 -65
-142 -215 -216 -397 -195 -86 10 -179 56 -225 113 -76 92 -97 211 -119 660 -9
171 -18 348 -21 394 l-6 84 73 -66 c40 -36 188 -182 328 -324z m-445 -163 c13
-160 17 -447 22 -1317 l6 -1113 -42 0 -41 0 0 1053 c0 895 2 1095 17 1337 10
157 19 276 20 265 2 -11 10 -112 18 -225z"/>
<path d="M680 1015 c-7 -8 -10 -22 -6 -30 5 -13 285 -15 2548 -13 l2543 3 0
25 0 25 -2536 3 c-2236 2 -2538 0 -2549 -13z"/>
<path d="M6357 1023 c-4 -3 -7 -17 -7 -30 l0 -23 1089 0 c949 0 1090 2 1095
15 3 8 -2 21 -10 30 -14 13 -139 15 -1088 15 -590 0 -1076 -3 -1079 -7z"/>
</g>
</svg>
