<?xml version="1.0" standalone="no"?>
<!DOCTYPE svg PUBLIC "-//W3C//DTD SVG 20010904//EN"
 "http://www.w3.org/TR/2001/REC-SVG-20010904/DTD/svg10.dtd">
<svg version="1.0" xmlns="http://www.w3.org/2000/svg"
 width="100" height="100" viewBox="0 0 100 100"
 preserveAspectRatio="xMidYMid meet">
<metadata>
Created by potrace 1.16, written by Peter Selinger 2001-2019
</metadata>
<g transform="translate(0.000000,400.000000) scale(0.100000,-0.100000)"
fill="#000000" stroke="none">
<path d="M1000 3285 l0 -355 1005 0 1005 0 0 355 c0 348 0 355 -20 355 -20 0
-20 -7 -20 -330 l0 -330 -965 0 -965 0 0 330 c0 323 0 330 -20 330 -20 0 -20
-7 -20 -355z"/>
<path d="M1110 2610 c0 -20 7 -20 335 -20 l335 0 0 -415 0 -415 105 0 105 0 0
-90 0 -90 -700 0 c-693 0 -700 0 -700 -20 0 -20 7 -20 700 -20 l700 0 0 -60 0
-60 -315 0 -315 0 0 -25 0 -26 313 1 312 2 3 -121 3 -121 -131 0 c-123 0 -130
-1 -130 -20 0 -20 7 -20 285 -20 278 0 285 0 285 20 0 19 -7 20 -135 20 l-136
0 3 121 3 121 308 -2 307 -1 0 26 0 25 -310 0 -310 0 0 60 0 60 685 0 c678 0
685 0 685 20 0 20 -7 20 -685 20 l-685 0 0 90 0 89 108 3 107 3 3 413 2 412
325 0 c318 0 325 0 325 20 0 20 -7 20 -350 20 l-350 0 0 -412 0 -413 -168 0
c-92 1 -177 2 -189 3 l-23 2 0 410 0 410 -355 0 c-348 0 -355 0 -355 -20z"/>
<path d="M0 830 c0 -20 7 -20 2000 -20 1993 0 2000 0 2000 20 0 20 -7 20
-2000 20 -1993 0 -2000 0 -2000 -20z"/>
</g>
</svg>
