999
"DXF R12 Output" (www.mydxf.blogspot.com)
 0 
SECTION
 2 
HEADER
 9 
$ACADVER
 1 
AC1009
 9 
$EXTMIN
 10 
 0 
 20 
 0 
 9 
$EXTMAX
 10 
 8.5 
 20 
 11 
 0 
ENDSEC
 0 
SECTION
 2 
ENTITIES
0
LINE
8
Layer 1
10
31.058800
20
55.661000
11
28.426537
21
55.203511
0
LINE
8
Layer 1
10
28.426537
20
55.203511
11
25.594579
21
54.447094
0
LINE
8
Layer 1
10
25.594579
20
54.447094
11
22.807281
21
53.467410
0
LINE
8
Layer 1
10
22.807281
20
53.467410
11
20.309000
21
52.340120
0
LINE
8
Layer 1
10
20.309000
20
52.340120
11
18.536063
21
51.316456
0
LINE
8
Layer 1
10
18.536063
20
51.316456
11
16.875768
21
50.143017
0
LINE
8
Layer 1
10
16.875768
20
50.143017
11
15.330982
21
48.823214
0
LINE
8
Layer 1
10
15.330982
20
48.823214
11
13.904575
21
47.360457
0
LINE
8
Layer 1
10
13.904575
20
47.360457
11
12.599415
21
45.758159
0
LINE
8
Layer 1
10
12.599415
20
45.758159
11
11.418370
21
44.019730
0
LINE
8
Layer 1
10
11.418370
20
44.019730
11
10.364309
21
42.148580
0
LINE
8
Layer 1
10
10.364309
20
42.148580
11
9.440100
21
40.148120
0
LINE
8
Layer 1
10
9.440100
20
40.148120
11
8.331213
21
36.946319
0
LINE
8
Layer 1
10
8.331213
20
36.946319
11
7.614280
21
33.804060
0
LINE
8
Layer 1
10
7.614280
20
33.804060
11
7.346257
21
31.409842
0
LINE
8
Layer 1
10
7.346257
20
31.409842
11
7.256227
21
28.874844
0
LINE
8
Layer 1
10
7.256227
20
28.874844
11
7.343570
21
26.249304
0
LINE
8
Layer 1
10
7.343570
20
26.249304
11
7.607665
21
23.583460
0
LINE
8
Layer 1
10
7.607665
20
23.583460
11
8.267953
21
20.363672
0
LINE
8
Layer 1
10
8.267953
20
20.363672
11
9.367331
21
17.075662
0
LINE
8
Layer 1
10
9.367331
20
17.075662
11
10.804088
21
13.973702
0
LINE
8
Layer 1
10
10.804088
20
13.973702
11
12.476515
21
11.312060
0
LINE
8
Layer 1
10
12.476515
20
11.312060
11
14.457175
21
9.003323
0
LINE
8
Layer 1
10
14.457175
20
9.003323
11
16.811183
21
6.868239
0
LINE
8
Layer 1
10
16.811183
20
6.868239
11
19.410785
21
5.008515
0
LINE
8
Layer 1
10
19.410785
20
5.008515
11
22.128225
21
3.525860
0
LINE
8
Layer 1
10
22.128225
20
3.525860
11
23.795073
21
2.818230
0
LINE
8
Layer 1
10
23.795073
20
2.818230
11
25.267182
21
2.340068
0
LINE
8
Layer 1
10
25.267182
20
2.340068
11
26.669830
21
2.057884
0
LINE
8
Layer 1
10
26.669830
20
2.057884
11
28.128295
21
1.938190
0
LINE
8
Layer 1
10
28.128295
20
1.938190
11
29.779637
21
1.970440
0
LINE
8
Layer 1
10
29.779637
20
1.970440
11
31.555015
21
2.255724
0
LINE
8
Layer 1
10
31.555015
20
2.255724
11
33.799975
21
2.797868
0
LINE
8
Layer 1
10
33.799975
20
2.797868
11
36.039353
21
3.511804
0
LINE
8
Layer 1
10
36.039353
20
3.511804
11
38.317183
21
4.413034
0
LINE
8
Layer 1
10
38.317183
20
4.413034
11
40.677495
21
5.517064
0
LINE
8
Layer 1
10
40.677495
20
5.517064
11
43.290225
21
6.986483
0
LINE
8
Layer 1
10
43.290225
20
6.986483
11
45.702635
21
8.654363
0
LINE
8
Layer 1
10
45.702635
20
8.654363
11
47.813634
21
10.443800
0
LINE
8
Layer 1
10
47.813634
20
10.443800
11
49.522135
21
12.277894
0
LINE
8
Layer 1
10
49.522135
20
12.277894
11
51.036105
21
14.374529
0
LINE
8
Layer 1
10
51.036105
20
14.374529
11
52.425418
21
16.716755
0
LINE
8
Layer 1
10
52.425418
20
16.716755
11
53.634880
21
19.202864
0
LINE
8
Layer 1
10
53.634880
20
19.202864
11
54.609295
21
21.731144
0
LINE
8
Layer 1
10
54.609295
20
21.731144
11
55.281574
21
24.012590
0
LINE
8
Layer 1
10
55.281574
20
24.012590
11
55.720665
21
26.229544
0
LINE
8
Layer 1
10
55.720665
20
26.229544
11
55.895143
21
27.616272
0
LINE
8
Layer 1
10
55.895143
20
27.616272
11
55.925739
21
29.305654
0
LINE
8
Layer 1
10
55.925739
20
29.305654
11
55.806664
21
31.885614
0
LINE
8
Layer 1
10
55.806664
20
31.885614
11
55.628051
21
33.228514
0
LINE
8
Layer 1
10
55.628051
20
33.228514
11
54.781294
21
36.556004
0
LINE
8
Layer 1
10
54.781294
20
36.556004
11
53.958310
21
38.578320
0
LINE
8
Layer 1
10
53.958310
20
38.578320
11
52.960435
21
40.430083
0
LINE
8
Layer 1
10
52.960435
20
40.430083
11
51.687199
21
42.278124
0
LINE
8
Layer 1
10
51.687199
20
42.278124
11
50.038134
21
44.289274
0
LINE
8
Layer 1
10
50.038134
20
44.289274
11
48.110914
21
46.317172
0
LINE
8
Layer 1
10
48.110914
20
46.317172
11
45.778714
21
48.470964
0
LINE
8
Layer 1
10
45.778714
20
48.470964
11
43.229448
21
50.586304
0
LINE
8
Layer 1
10
43.229448
20
50.586304
11
40.651034
21
52.498844
0
LINE
8
Layer 1
10
40.651034
20
52.498844
11
37.913130
21
54.235770
0
LINE
8
Layer 1
10
37.913130
20
54.235770
11
35.587030
21
55.280574
0
LINE
8
Layer 1
10
35.587030
20
55.280574
11
33.394889
21
55.725040
0
LINE
8
Layer 1
10
33.394889
20
55.725040
11
31.058864
21
55.660954
0
LINE
8
Layer 1
10
31.058864
20
55.660954
11
31.058800
21
55.661000
0
LINE
8
Layer 1
10
31.085261
20
53.841800
11
30.776927
21
53.094169
0
LINE
8
Layer 1
10
30.776927
20
53.094169
11
30.618056
21
52.018461
0
LINE
8
Layer 1
10
30.618056
20
52.018461
11
30.582499
21
46.538520
0
LINE
8
Layer 1
10
30.582499
20
46.538520
11
30.570922
21
39.027705
0
LINE
8
Layer 1
10
30.570922
20
39.027705
11
30.430347
21
33.804120
0
LINE
8
Layer 1
10
30.430347
20
33.804120
11
30.099582
21
30.734630
0
LINE
8
Layer 1
10
30.099582
20
30.734630
11
28.313452
21
28.994810
0
LINE
8
Layer 1
10
28.313452
20
28.994810
11
25.281993
21
25.979894
0
LINE
8
Layer 1
10
25.281993
20
25.979894
11
21.367402
21
21.367380
0
LINE
8
Layer 1
10
21.367402
20
21.367380
11
19.687122
21
19.343100
0
LINE
8
Layer 1
10
19.687122
20
19.343100
11
18.721290
21
18.192040
0
LINE
8
Layer 1
10
18.721290
20
18.192040
11
17.530540
21
16.743290
0
LINE
8
Layer 1
10
17.530540
20
16.743290
11
15.923020
21
14.765320
0
LINE
8
Layer 1
10
15.923020
20
14.765320
11
14.445329
21
12.759234
0
LINE
8
Layer 1
10
14.445329
20
12.759234
11
14.201080
21
12.207063
0
LINE
8
Layer 1
10
14.201080
20
12.207063
11
14.183200
21
11.775210
0
LINE
8
Layer 1
10
14.183200
20
11.775210
11
14.194777
21
11.609828
0
LINE
8
Layer 1
10
14.194777
20
11.609828
11
14.136893
21
11.642904
0
LINE
8
Layer 1
10
14.136893
20
11.642904
11
12.909860
21
13.349648
0
LINE
8
Layer 1
10
12.909860
20
13.349648
11
11.886868
21
15.096084
0
LINE
8
Layer 1
10
11.886868
20
15.096084
11
11.006519
21
17.001287
0
LINE
8
Layer 1
10
11.006519
20
17.001287
11
10.207413
21
19.184334
0
LINE
8
Layer 1
10
10.207413
20
19.184334
11
9.214291
21
23.022028
0
LINE
8
Layer 1
10
9.214291
20
23.022028
11
8.732203
21
27.400524
0
LINE
8
Layer 1
10
8.732203
20
27.400524
11
8.716492
21
29.779137
0
LINE
8
Layer 1
10
8.716492
20
29.779137
11
8.933970
21
32.333880
0
LINE
8
Layer 1
10
8.933970
20
32.333880
11
9.364792
21
34.905988
0
LINE
8
Layer 1
10
9.364792
20
34.905988
11
9.989113
21
37.336694
0
LINE
8
Layer 1
10
9.989113
20
37.336694
11
10.850341
21
39.717679
0
LINE
8
Layer 1
10
10.850341
20
39.717679
11
11.927393
21
41.941760
0
LINE
8
Layer 1
10
11.927393
20
41.941760
11
13.237635
21
44.043045
0
LINE
8
Layer 1
10
13.237635
20
44.043045
11
14.798433
21
46.055644
0
LINE
8
Layer 1
10
14.798433
20
46.055644
11
16.536601
21
47.888079
0
LINE
8
Layer 1
10
16.536601
20
47.888079
11
18.502993
21
49.462514
0
LINE
8
Layer 1
10
18.502993
20
49.462514
11
20.596112
21
50.765415
0
LINE
8
Layer 1
10
20.596112
20
50.765415
11
23.042739
21
51.927536
0
LINE
8
Layer 1
10
23.042739
20
51.927536
11
25.779618
21
52.922210
0
LINE
8
Layer 1
10
25.779618
20
52.922210
11
28.743493
21
53.722764
0
LINE
8
Layer 1
10
28.743493
20
53.722764
11
31.210993
21
54.139527
0
LINE
8
Layer 1
10
31.210993
20
54.139527
11
31.085302
21
53.841839
0
LINE
8
Layer 1
10
31.085302
20
53.841839
11
31.085261
21
53.841800
0
LINE
8
Layer 1
10
35.279351
20
53.802108
11
36.787947
21
53.103885
0
LINE
8
Layer 1
10
36.787947
20
53.103885
11
38.670512
21
51.982076
0
LINE
8
Layer 1
10
38.670512
20
51.982076
11
42.999391
21
48.827408
0
LINE
8
Layer 1
10
42.999391
20
48.827408
11
45.162693
21
46.976780
0
LINE
8
Layer 1
10
45.162693
20
46.976780
11
47.232349
21
45.012038
0
LINE
8
Layer 1
10
47.232349
20
45.012038
11
49.082460
21
43.059702
0
LINE
8
Layer 1
10
49.082460
20
43.059702
11
50.587131
21
41.246288
0
LINE
8
Layer 1
10
50.587131
20
41.246288
11
52.055622
21
39.001533
0
LINE
8
Layer 1
10
52.055622
20
39.001533
11
53.176190
21
36.614757
0
LINE
8
Layer 1
10
53.176190
20
36.614757
11
53.948216
21
34.087819
0
LINE
8
Layer 1
10
53.948216
20
34.087819
11
54.371081
21
31.422578
0
LINE
8
Layer 1
10
54.371081
20
31.422578
11
54.476926
21
28.543272
0
LINE
8
Layer 1
10
54.476926
20
28.543272
11
54.106469
21
25.634198
0
LINE
8
Layer 1
10
54.106469
20
25.634198
11
53.374343
21
22.758513
0
LINE
8
Layer 1
10
53.374343
20
22.758513
11
52.233516
21
19.745763
0
LINE
8
Layer 1
10
52.233516
20
19.745763
11
50.793761
21
16.845881
0
LINE
8
Layer 1
10
50.793761
20
16.845881
11
49.164849
21
14.308798
0
LINE
8
Layer 1
10
49.164849
20
14.308798
11
48.543012
21
13.481887
0
LINE
8
Layer 1
10
48.543012
20
13.481887
11
48.212248
21
13.521579
0
LINE
8
Layer 1
10
48.212248
20
13.521579
11
47.689640
21
13.667115
0
LINE
8
Layer 1
10
47.689640
20
13.667115
11
46.752026
21
14.395934
0
LINE
8
Layer 1
10
46.752026
20
14.395934
11
45.175003
21
15.910526
0
LINE
8
Layer 1
10
45.175003
20
15.910526
11
40.551740
21
20.838085
0
LINE
8
Layer 1
10
40.551740
20
20.838085
11
35.820979
21
25.838416
0
LINE
8
Layer 1
10
35.820979
20
25.838416
11
34.143075
21
27.345359
0
LINE
8
Layer 1
10
34.143075
20
27.345359
11
32.692780
21
28.412595
0
LINE
8
Layer 1
10
32.692780
20
28.412595
11
30.999270
21
29.239506
0
LINE
8
Layer 1
10
30.999270
20
29.239506
11
30.908310
21
29.295736
0
LINE
8
Layer 1
10
30.908310
20
29.295736
11
31.124961
21
29.550425
0
LINE
8
Layer 1
10
31.124961
20
29.550425
11
31.425647
21
29.929460
0
LINE
8
Layer 1
10
31.425647
20
29.929460
11
31.615320
21
30.434393
0
LINE
8
Layer 1
10
31.615320
20
30.434393
11
31.852643
21
32.613305
0
LINE
8
Layer 1
10
31.852643
20
32.613305
11
32.039525
21
37.173724
0
LINE
8
Layer 1
10
32.039525
20
37.173724
11
32.077563
21
44.884705
0
LINE
8
Layer 1
10
32.077563
20
44.884705
11
32.137101
21
52.267365
0
LINE
8
Layer 1
10
32.137101
20
52.267365
11
32.459596
21
53.180274
0
LINE
8
Layer 1
10
32.459596
20
53.180274
11
33.069857
21
53.735955
0
LINE
8
Layer 1
10
33.069857
20
53.735955
11
34.095225
21
54.017105
0
LINE
8
Layer 1
10
34.095225
20
54.017105
11
35.279367
21
53.802108
0
LINE
8
Layer 1
10
35.279367
20
53.802108
11
35.279351
21
53.802108
0
LINE
8
Layer 1
10
30.986031
20
27.632008
11
32.070941
21
26.996940
0
LINE
8
Layer 1
10
32.070941
20
26.996940
11
34.465671
21
25.032200
0
LINE
8
Layer 1
10
34.465671
20
25.032200
11
34.333365
21
25.111584
0
LINE
8
Layer 1
10
34.333365
20
25.111584
11
33.717316
21
25.503436
0
LINE
8
Layer 1
10
33.717316
20
25.503436
11
33.116151
21
25.582096
0
LINE
8
Layer 1
10
33.116151
20
25.582096
11
32.584448
21
25.354386
0
LINE
8
Layer 1
10
32.584448
20
25.354386
11
32.176785
21
24.827127
0
LINE
8
Layer 1
10
32.176785
20
24.827127
11
32.008922
21
24.340902
0
LINE
8
Layer 1
10
32.008922
20
24.340902
11
31.965096
21
23.318837
0
LINE
8
Layer 1
10
31.965096
20
23.318837
11
32.051095
21
19.548117
0
LINE
8
Layer 1
10
32.051095
20
19.548117
11
32.165209
21
12.847644
0
LINE
8
Layer 1
10
32.165209
20
12.847644
11
32.090787
21
7.144417
0
LINE
8
Layer 1
10
32.090787
20
7.144417
11
31.919616
21
5.339271
0
LINE
8
Layer 1
10
31.919616
20
5.339271
11
31.788447
21
5.109906
0
LINE
8
Layer 1
10
31.788447
20
5.109906
11
31.574794
21
5.126757
0
LINE
8
Layer 1
10
31.574794
20
5.126757
11
31.267183
21
5.461656
0
LINE
8
Layer 1
10
31.267183
20
5.461656
11
30.999264
21
6.416737
0
LINE
8
Layer 1
10
30.999264
20
6.416737
11
30.407919
21
10.351803
0
LINE
8
Layer 1
10
30.407919
20
10.351803
11
30.093796
21
15.129082
0
LINE
8
Layer 1
10
30.093796
20
15.129082
11
30.073640
21
20.253663
0
LINE
8
Layer 1
10
30.073640
20
20.253663
11
30.364196
21
25.230637
0
LINE
8
Layer 1
10
30.364196
20
25.230637
11
30.417118
21
26.904307
0
LINE
8
Layer 1
10
30.417118
20
26.904307
11
30.122738
21
27.426915
0
LINE
8
Layer 1
10
30.122738
20
27.426915
11
29.610053
21
27.731218
0
LINE
8
Layer 1
10
29.610053
20
27.731218
11
29.414902
21
27.865177
0
LINE
8
Layer 1
10
29.414902
20
27.865177
11
30.013586
21
27.889985
0
LINE
8
Layer 1
10
30.013586
20
27.889985
11
30.986034
21
27.631989
0
LINE
8
Layer 1
10
30.986034
20
27.631989
11
30.986031
21
27.632008
0
LINE
8
Layer 1
10
28.816211
20
25.091738
11
28.580541
21
19.572108
0
LINE
8
Layer 1
10
28.580541
20
19.572108
11
28.677290
21
13.481938
0
LINE
8
Layer 1
10
28.677290
20
13.481938
11
29.032862
21
9.078635
0
LINE
8
Layer 1
10
29.032862
20
9.078635
11
29.438048
21
6.416808
0
LINE
8
Layer 1
10
29.438048
20
6.416808
11
29.867215
21
4.858908
0
LINE
8
Layer 1
10
29.867215
20
4.858908
11
30.489878
21
4.015458
0
LINE
8
Layer 1
10
30.489878
20
4.015458
11
30.741259
21
3.671463
0
LINE
8
Layer 1
10
30.741259
20
3.671463
11
28.869129
21
3.406851
0
LINE
8
Layer 1
10
28.869129
20
3.406851
11
26.877099
21
3.564791
0
LINE
8
Layer 1
10
26.877099
20
3.564791
11
24.522879
21
4.174225
0
LINE
8
Layer 1
10
24.522879
20
4.174225
11
22.412704
21
5.073284
0
LINE
8
Layer 1
10
22.412704
20
5.073284
11
20.303150
21
6.256386
0
LINE
8
Layer 1
10
20.303150
20
6.256386
11
18.229569
21
7.699965
0
LINE
8
Layer 1
10
18.229569
20
7.699965
11
16.227309
21
9.380455
0
LINE
8
Layer 1
10
16.227309
20
9.380455
11
15.612087
21
9.989062
0
LINE
8
Layer 1
10
15.612087
20
9.989062
11
15.929621
21
10.068446
0
LINE
8
Layer 1
10
15.929621
20
10.068446
11
16.580400
21
10.266904
0
LINE
8
Layer 1
10
16.580400
20
10.266904
11
17.166681
21
10.683668
0
LINE
8
Layer 1
10
17.166681
20
10.683668
11
19.488651
21
13.693628
0
LINE
8
Layer 1
10
19.488651
20
13.693628
11
23.831590
21
19.436529
0
LINE
8
Layer 1
10
23.831590
20
19.436529
11
26.785311
21
23.120418
0
LINE
8
Layer 1
10
26.785311
20
23.120418
11
28.829431
21
25.468848
0
LINE
8
Layer 1
10
28.829431
20
25.468848
11
28.816201
21
25.091776
0
LINE
8
Layer 1
10
28.816201
20
25.091776
11
28.816211
21
25.091738
0
LINE
8
Layer 1
10
36.542871
20
22.954998
11
39.360981
21
19.878888
0
LINE
8
Layer 1
10
39.360981
20
19.878888
11
42.192321
21
16.822628
0
LINE
8
Layer 1
10
42.192321
20
16.822628
11
43.462461
21
15.433418
0
LINE
8
Layer 1
10
43.462461
20
15.433418
11
41.843369
21
17.011993
0
LINE
8
Layer 1
10
41.843369
20
17.011993
11
38.765601
21
20.341968
0
LINE
8
Layer 1
10
38.765601
20
20.341968
11
37.469001
21
21.764258
0
LINE
8
Layer 1
10
37.469001
20
21.764258
11
34.862581
21
24.641908
0
LINE
8
Layer 1
10
34.862581
20
24.641908
11
34.869300
21
24.682530
0
LINE
8
Layer 1
10
34.869300
20
24.682530
11
35.174326
21
24.391354
0
LINE
8
Layer 1
10
35.174326
20
24.391354
11
36.542861
21
22.955008
0
LINE
8
Layer 1
10
36.542861
20
22.955008
11
36.542871
21
22.954998
0
LINE
8
Layer 1
10
25.601171
20
23.986988
11
25.488711
21
23.874528
0
LINE
8
Layer 1
10
25.488711
20
23.874528
11
25.403539
21
23.815818
0
LINE
8
Layer 1
10
25.403539
20
23.815818
11
25.462250
21
23.900990
0
LINE
8
Layer 1
10
25.462250
20
23.900990
11
25.601171
21
23.986988
0
LINE
8
Layer 1
10
25.601171
20
23.986988
11
25.601171
21
23.986988
0
LINE
8
Layer 1
10
35.510871
20
21.665018
11
37.832841
21
19.085058
0
LINE
8
Layer 1
10
37.832841
20
19.085058
11
41.039604
21
15.648416
0
LINE
8
Layer 1
10
41.039604
20
15.648416
11
43.462451
21
13.501758
0
LINE
8
Layer 1
10
43.462451
20
13.501758
11
45.271735
21
12.152240
0
LINE
8
Layer 1
10
45.271735
20
12.152240
11
46.366561
21
11.636248
0
LINE
8
Layer 1
10
46.366561
20
11.636248
11
46.697326
21
11.517173
0
LINE
8
Layer 1
10
46.697326
20
11.517173
11
44.421666
21
9.585513
0
LINE
8
Layer 1
10
44.421666
20
9.585513
11
42.578790
21
8.326128
0
LINE
8
Layer 1
10
42.578790
20
8.326128
11
40.559164
21
7.161011
0
LINE
8
Layer 1
10
40.559164
20
7.161011
11
38.372088
21
6.095122
0
LINE
8
Layer 1
10
38.372088
20
6.095122
11
36.026866
21
5.133423
0
LINE
8
Layer 1
10
36.026866
20
5.133423
11
33.089676
21
4.200667
0
LINE
8
Layer 1
10
33.089676
20
4.200667
11
33.162444
21
4.379280
0
LINE
8
Layer 1
10
33.162444
20
4.379280
11
33.386537
21
4.989541
0
LINE
8
Layer 1
10
33.386537
20
4.989541
11
33.546131
21
5.986800
0
LINE
8
Layer 1
10
33.546131
20
5.986800
11
33.652803
21
11.411339
0
LINE
8
Layer 1
10
33.652803
20
11.411339
11
33.605669
21
18.006800
0
LINE
8
Layer 1
10
33.605669
20
18.006800
11
33.479978
21
22.108280
0
LINE
8
Layer 1
10
33.479978
20
22.108280
11
33.440286
21
23.874560
0
LINE
8
Layer 1
10
33.440286
20
23.874560
11
33.790896
21
23.530565
0
LINE
8
Layer 1
10
33.790896
20
23.530565
11
35.510876
21
21.665055
0
LINE
8
Layer 1
10
35.510876
20
21.665055
11
35.510871
21
21.665018
0
LINE
8
Layer 1
10
24.794071
20
23.007918
11
19.839221
21
16.637398
0
LINE
8
Layer 1
10
19.839221
20
16.637398
11
16.513384
21
12.263863
0
LINE
8
Layer 1
10
16.513384
20
12.263863
11
15.995324
21
11.676238
0
LINE
8
Layer 1
10
15.995324
20
11.676238
11
15.777431
21
11.576698
0
LINE
8
Layer 1
10
15.777431
20
11.576698
11
15.639337
21
11.679235
0
LINE
8
Layer 1
10
15.639337
20
11.679235
11
15.684817
21
11.920693
0
LINE
8
Layer 1
10
15.684817
20
11.920693
11
18.820467
21
15.909713
0
LINE
8
Layer 1
10
18.820467
20
15.909713
11
19.918607
21
17.206313
0
LINE
8
Layer 1
10
19.918607
20
17.206313
11
21.109357
21
18.615373
0
LINE
8
Layer 1
10
21.109357
20
18.615373
11
22.028882
21
19.739973
0
LINE
8
Layer 1
10
22.028882
20
19.739973
11
23.213022
21
21.208563
0
LINE
8
Layer 1
10
23.213022
20
21.208563
11
25.376222
21
23.748833
0
LINE
8
Layer 1
10
25.376222
20
23.748833
11
24.794076
21
23.007921
0
LINE
8
Layer 1
10
24.794076
20
23.007921
11
24.794071
21
23.007918
 0 
ENDSEC
 0 
EOF