<?xml version="1.0" standalone="no"?>
<!DOCTYPE svg PUBLIC "-//W3C//DTD SVG 20010904//EN"
 "http://www.w3.org/TR/2001/REC-SVG-20010904/DTD/svg10.dtd">
<svg version="1.0" xmlns="http://www.w3.org/2000/svg"
 width="170.078740pt" height="170.078740pt" viewBox="0 0 170.078740 170.078740"
 preserveAspectRatio="xMidYMid meet">
<metadata>
Created by potrace 1.16, written by Peter Selinger 2001-2019
</metadata>
<g transform="translate(0.000000,170.078740) scale(0.018752,-0.018752)"
fill="#000000" stroke="none">
<path d="M3756 7589 c6 -146 5 -163 -10 -174 -9 -7 -85 -68 -168 -136 -82 -68
-257 -211 -387 -318 -130 -106 -256 -210 -281 -230 -25 -21 -144 -118 -265
-216 -121 -99 -247 -202 -281 -230 -33 -27 -138 -113 -232 -189 -95 -77 -172
-144 -172 -148 0 -8 125 -251 391 -758 77 -148 113 -226 105 -228 -7 -2 -44 9
-81 23 -37 14 -69 24 -70 23 -6 -7 -155 -472 -155 -484 0 -8 -5 -14 -12 -14
-6 0 -113 52 -236 116 l-225 116 -82 -83 c-44 -46 -238 -248 -431 -449 -192
-201 -460 -478 -596 -617 -137 -138 -248 -255 -248 -260 1 -4 27 -39 59 -77
l58 -69 -104 -256 c-57 -141 -156 -389 -219 -553 l-114 -296 0 -344 0 -344 62
-35 c35 -20 126 -72 203 -116 77 -44 223 -128 325 -185 l185 -105 804 -6 c722
-6 807 -5 835 10 44 22 654 371 697 398 33 21 37 28 48 97 18 116 63 363 66
366 2 2 70 21 151 42 82 21 295 77 474 123 179 47 389 102 467 121 l142 36
244 0 c134 0 460 -3 724 -7 l481 -6 5 -66 5 -65 -135 -220 c-100 -162 -133
-223 -126 -234 5 -8 176 -119 380 -247 l371 -232 16 61 c10 34 21 68 25 75 8
12 111 -119 299 -377 l17 -24 475 236 475 237 230 53 230 53 -3 464 -3 464
211 215 210 215 -4 45 c-2 25 -40 297 -84 605 -44 308 -109 764 -143 1013 -38
268 -68 452 -74 452 -6 0 -82 -35 -168 -78 -87 -43 -156 -76 -155 -73 2 4 71
70 153 148 83 78 183 175 224 216 l74 75 -139 178 c-76 97 -192 245 -257 328
-65 83 -127 165 -138 182 -19 31 -19 45 -9 685 5 360 10 737 10 840 l0 185
-247 12 c-137 7 -383 19 -548 27 -165 8 -520 26 -790 40 -269 13 -593 29 -720
35 -126 6 -342 17 -480 26 -223 13 -1318 74 -1338 74 -4 0 -5 -73 -1 -161z
m464 -99 c223 -13 862 -47 1145 -61 480 -23 865 -45 870 -51 3 -3 4 -137 3
-299 l-3 -293 -38 52 c-106 149 -283 299 -440 376 -208 100 -358 136 -577 136
-266 0 -464 -61 -735 -225 l-109 -66 -71 27 c-38 15 -113 47 -165 70 l-95 43
-3 151 -3 150 28 0 c16 0 102 -5 193 -10z m2880 -150 c239 -11 459 -23 488
-26 l52 -5 0 -422 c0 -232 -3 -716 -7 -1074 l-6 -653 -26 0 c-14 0 -253 -29
-531 -64 -641 -82 -594 -79 -598 -41 -2 17 3 38 10 47 7 10 173 98 368 197
l355 179 3 817 2 817 -25 -6 c-22 -6 -226 -93 -602 -260 l-103 -45 0 286 0
285 93 -6 c50 -3 288 -15 527 -26z m-1665 -254 c118 -30 271 -104 367 -176 74
-57 214 -209 201 -219 -14 -12 -271 -131 -282 -131 -13 0 -265 95 -526 198
-110 44 -278 110 -373 148 -95 37 -169 71 -165 75 32 31 268 111 379 129 100
15 287 4 399 -24z m-1676 -883 l-1 -788 -354 -265 c-195 -146 -380 -284 -413
-307 l-58 -43 -75 26 -76 25 -176 352 c-97 194 -176 359 -176 367 0 8 53 71
118 140 64 69 245 263 402 430 692 740 796 850 807 850 2 0 3 -354 2 -787z
m360 695 c56 -24 101 -46 101 -51 0 -4 -27 -40 -61 -80 -34 -39 -82 -107 -107
-149 -26 -43 -49 -77 -52 -78 -3 0 -4 90 -2 200 1 110 7 200 12 200 4 0 54
-19 109 -42z m2851 -713 l0 -565 -208 -104 c-114 -57 -224 -111 -245 -119
l-37 -16 0 582 0 583 43 16 c23 10 130 55 237 102 107 47 198 85 203 86 4 0 7
-254 7 -565z m-2190 366 c-92 -90 -126 -144 -156 -246 -24 -84 -22 -212 5
-295 38 -119 145 -251 243 -301 21 -11 38 -23 38 -27 0 -7 -516 -216 -563
-227 -22 -6 -30 2 -75 77 -133 220 -172 443 -122 701 35 182 12 156 289 330
l243 154 93 -39 92 -40 -87 -87z m1459 -483 l0 -473 -28 115 c-40 161 -149
647 -157 696 l-6 42 93 45 c52 25 95 46 97 46 1 1 2 -212 1 -471z m-1007 362
c109 -40 177 -143 178 -266 0 -92 -32 -159 -102 -215 -122 -96 -271 -89 -380
18 -220 216 14 572 304 463z m429 -105 c22 -12 28 -21 24 -38 -3 -12 -12 -55
-20 -96 -9 -41 -17 -76 -19 -78 -2 -2 -6 34 -10 79 -3 46 -9 98 -12 116 -7 37
-4 38 37 17z m-2873 -13 c-34 -47 -483 -511 -488 -504 -4 4 -17 24 -29 44
l-22 36 172 139 c94 76 213 170 264 210 52 40 96 77 100 83 3 5 8 10 11 10 3
0 -1 -8 -8 -18z m3152 -477 c28 -126 69 -305 91 -396 21 -91 39 -176 39 -188
0 -13 -20 -48 -44 -79 -109 -141 -249 -252 -394 -313 -78 -32 -231 -74 -292
-81 l-35 -3 -3 397 c-3 317 -1 399 10 408 7 7 125 58 263 114 l249 103 12 49
c6 27 19 89 29 137 10 48 19 86 21 85 1 -2 25 -106 54 -233z m-1869 -441 c17
-25 29 -47 27 -49 -2 -2 -25 -13 -51 -24 l-47 -20 1 112 0 112 19 -43 c11 -23
33 -63 51 -88z m999 -262 l0 -359 -32 4 c-178 22 -324 69 -448 143 -82 49
-234 166 -283 218 l-28 29 173 72 c95 39 270 111 388 160 118 49 218 90 223
90 4 1 7 -160 7 -357z m2919 165 c55 -70 101 -133 101 -138 0 -13 -89 -101
-464 -458 -152 -145 -293 -283 -312 -307 -23 -27 -62 -57 -114 -83 -43 -23
-81 -41 -84 -41 -3 0 -6 133 -6 295 l0 295 23 5 c28 6 270 38 497 65 96 11
187 23 203 26 l27 6 0 246 c0 209 2 244 14 232 7 -8 59 -73 115 -143z m-4014
-179 c186 -192 182 -186 160 -203 -26 -19 -442 -307 -477 -329 -26 -17 -31
-16 -237 51 -116 37 -209 71 -208 75 1 3 88 71 192 150 105 78 251 189 325
245 74 56 140 102 145 103 6 0 51 -42 100 -92z m2013 -344 l-246 -245 -83 6
c-46 3 -118 8 -159 12 l-75 5 94 25 c108 28 262 90 335 135 82 50 205 150 290
237 44 44 82 78 85 75 3 -3 -105 -115 -241 -250z m491 -270 c-173 -174 -379
-384 -459 -465 -80 -82 -147 -149 -150 -149 -3 0 -4 98 -2 218 l3 218 217 221
217 221 78 7 c43 4 145 15 225 25 81 9 156 18 166 19 12 0 -102 -121 -295
-315z m-1951 181 c41 -20 72 -38 70 -40 -5 -6 -339 15 -371 23 -27 7 -25 9 55
63 l83 56 45 -33 c25 -17 78 -49 118 -69z m-1746 -84 c178 -60 397 -135 488
-166 91 -31 188 -64 215 -73 28 -9 52 -17 54 -19 2 -1 -11 -57 -27 -125 -17
-68 -72 -287 -122 -488 -123 -492 -128 -510 -150 -529 -10 -9 -110 -126 -222
-261 -112 -135 -237 -285 -279 -335 -41 -49 -129 -154 -194 -233 -86 -103
-123 -141 -134 -137 -44 18 -469 167 -551 195 -52 17 -99 35 -103 40 -5 4 13
74 38 156 26 82 98 311 161 509 202 641 281 895 359 1145 91 294 135 430 140
430 2 0 149 -49 327 -109z m4098 -195 c0 -89 -3 -190 -6 -223 l-6 -59 -269
-140 -268 -139 -1 -285 -1 -285 -92 -64 c-51 -35 -217 -148 -370 -251 -153
-104 -281 -191 -284 -194 -7 -7 21 -40 199 -234 l149 -162 -420 0 -421 0 0
475 0 476 33 -6 c17 -3 95 -16 172 -30 212 -37 628 -105 646 -105 20 0 24 32
40 310 l11 195 176 180 c413 420 697 705 704 705 5 0 8 -74 8 -164z m1268
-151 c55 -407 92 -672 142 -1031 28 -193 50 -364 50 -380 0 -21 -17 -47 -63
-98 l-62 -68 -122 153 c-173 219 -278 352 -358 457 -38 50 -75 91 -82 91 -7 1
-87 -45 -179 -100 l-168 -102 -48 54 c-27 30 -110 126 -185 214 -75 88 -169
196 -207 240 -39 44 -79 90 -89 102 -18 21 -18 21 45 56 52 29 731 377 1168
599 63 32 117 55 121 50 3 -4 20 -110 37 -237z m-3818 164 c157 -12 286 -22
287 -23 1 -1 3 -170 3 -376 l2 -375 -24 2 c-28 4 -270 46 -438 78 -69 13 -160
29 -202 36 l-78 12 0 340 0 339 83 -6 c45 -3 210 -15 367 -27z m-2429 -64
c140 -71 170 -89 164 -103 -12 -31 -62 -185 -144 -439 -80 -248 -82 -253 -130
-302 -27 -28 -107 -119 -178 -203 -71 -84 -183 -214 -249 -289 -65 -74 -148
-172 -184 -217 -36 -45 -68 -80 -72 -79 -4 1 -76 87 -160 191 -84 104 -190
234 -235 290 -46 55 -83 104 -83 107 0 7 1089 1129 1096 1129 2 0 81 -38 175
-85z m2969 16 c52 -6 131 -13 175 -16 94 -7 587 -52 663 -61 l52 -5 0 -418 c0
-230 -2 -420 -5 -423 -3 -3 -38 0 -78 8 -40 7 -166 29 -282 49 -115 20 -319
57 -453 81 -134 24 -245 44 -248 44 -2 0 -4 171 -4 381 l0 380 43 -5 c23 -3
85 -10 137 -15z m-1210 -631 l0 -100 -25 0 c-14 0 -25 3 -25 8 0 12 44 192 47
192 2 0 3 -45 3 -100z m3011 -190 c121 -136 269 -309 269 -313 0 -2 -44 -7
-97 -10 -87 -5 -183 -27 -265 -62 -17 -7 -18 9 -18 251 0 219 2 256 14 244 7
-8 51 -58 97 -110z m-4967 -420 c-52 -162 -113 -356 -135 -430 -23 -74 -42
-136 -44 -138 -5 -5 -365 121 -365 127 0 3 32 42 71 86 89 99 470 541 524 606
21 26 40 47 41 46 2 -1 -40 -135 -92 -297z m2176 220 c381 -81 485 -106 484
-119 -1 -6 -2 -206 -2 -444 l-2 -433 -77 -18 c-43 -10 -179 -45 -303 -77 -596
-156 -692 -180 -696 -177 -3 4 251 1298 260 1324 5 14 10 13 336 -56z m975
-588 l1 -392 -133 0 -133 0 0 413 c0 228 2 416 5 418 2 3 62 -7 132 -21 l128
-26 0 -392z m2971 29 l221 -277 -44 -50 c-24 -27 -96 -111 -160 -186 -64 -76
-117 -137 -119 -135 -1 1 4 27 13 57 23 85 20 257 -5 362 -38 154 -94 265
-194 381 -28 32 -49 60 -47 61 11 10 104 66 108 65 4 0 105 -125 227 -278z
m-801 194 c341 -72 560 -423 475 -761 -58 -230 -222 -402 -440 -460 -146 -39
-342 -14 -476 61 -221 124 -343 407 -290 675 25 128 74 220 165 310 156 156
360 218 566 175z m-6329 -135 c137 -164 235 -290 227 -290 -8 0 -254 87 -366
130 -32 12 -57 25 -55 29 83 190 103 231 109 229 3 -2 42 -46 85 -98z m5511
23 c-60 -79 -92 -138 -112 -203 -9 -30 -19 -61 -21 -69 -3 -10 -26 6 -69 49
-36 36 -64 68 -63 72 4 9 290 207 301 208 5 0 -12 -26 -36 -57z m-3041 -179
c-8 -33 -49 -234 -91 -449 -42 -214 -78 -397 -81 -405 -3 -8 -35 64 -70 160
-36 96 -78 208 -94 249 l-30 74 48 56 c26 31 79 92 117 136 39 44 102 117 139
163 38 46 70 81 73 79 2 -3 -3 -31 -11 -63z m-2494 -109 c101 -36 190 -68 198
-71 10 -3 -45 -64 -171 -190 l-185 -184 -117 0 c-71 0 -117 4 -117 10 0 10
175 452 191 482 5 10 12 18 14 18 3 0 87 -29 187 -65z m553 -176 c42 -16 63
-34 125 -110 41 -50 77 -95 78 -100 2 -5 -110 -9 -262 -9 -146 0 -266 2 -266
5 0 3 55 59 123 125 80 78 127 117 137 114 8 -3 38 -14 65 -25z m429 -156
c110 -41 249 -91 310 -113 175 -61 386 -137 450 -163 55 -23 59 -27 86 -88 15
-35 57 -131 94 -213 62 -139 66 -149 49 -162 -10 -7 -99 -71 -197 -142 l-180
-129 -135 166 c-74 91 -196 240 -271 331 -195 236 -460 578 -460 595 0 10 51
-7 254 -82z m4400 -32 c17 -139 89 -284 207 -421 l73 -84 -105 84 c-57 46
-139 113 -181 148 l-78 65 0 165 0 164 38 -33 c33 -29 40 -42 46 -88z m-3239
-101 c26 -69 60 -160 76 -203 16 -43 40 -105 54 -138 27 -63 27 -71 -1 -210
-3 -18 -22 -38 -57 -61 -67 -45 -117 -71 -124 -64 -3 2 -57 123 -120 268 -99
227 -113 266 -102 283 26 43 214 262 220 256 4 -3 28 -62 54 -131z m5125 -329
l0 -229 -63 -11 c-35 -6 -66 -11 -70 -11 -6 0 -117 158 -117 167 0 6 240 313
246 313 2 0 4 -103 4 -229z m-6722 47 c33 -40 59 -75 57 -78 -5 -9 -1155 0
-1155 9 0 5 14 39 31 75 l31 66 488 0 488 0 60 -72z m4989 -331 c122 -105 136
-122 57 -71 -33 20 -108 69 -169 107 -60 38 -118 76 -128 85 -16 15 -16 16 4
38 l22 23 56 -47 c31 -26 102 -86 158 -135z m1282 67 c40 -63 72 -117 70 -119
-2 -2 -163 -82 -358 -178 l-354 -176 -38 47 c-21 26 -82 103 -137 172 l-99
125 77 42 76 41 140 -5 c103 -4 157 -1 210 10 95 20 210 69 276 117 29 21 55
39 58 39 3 0 38 -51 79 -115z m-4790 -135 l19 -32 -190 -114 c-163 -98 -193
-112 -205 -101 -12 12 7 29 129 114 78 54 160 113 182 131 23 18 42 32 44 32
1 1 11 -13 21 -30z m-706 -217 c15 -15 27 -30 27 -33 0 -2 -264 -2 -587 -1
l-587 4 -56 28 -55 29 616 1 615 0 27 -28z"/>
<path d="M5065 6431 c-178 -46 -265 -251 -170 -401 54 -86 134 -133 225 -134
105 -1 205 58 253 148 29 55 31 184 3 236 -25 48 -84 108 -128 131 -42 22
-137 32 -183 20z m126 -35 c80 -14 146 -88 169 -190 31 -138 -85 -276 -232
-276 -97 0 -177 50 -218 137 -66 141 18 302 173 332 23 5 49 7 57 6 8 -2 31
-6 51 -9z"/>
</g>
</svg>
