999
"DXF R12 Output" (www.mydxf.blogspot.com)
 0 
SECTION
 2 
HEADER
 9 
$ACADVER
 1 
AC1009
 9 
$EXTMIN
 10 
 0 
 20 
 0 
 9 
$EXTMAX
 10 
 8.5 
 20 
 11 
 0 
ENDSEC
 0 
SECTION
 2 
ENTITIES
0
LINE
8
Layer 1
10
29.272700
20
48.721500
11
27.672628
21
47.971699
0
LINE
8
Layer 1
10
27.672628
20
47.971699
11
26.166823
21
47.064370
0
LINE
8
Layer 1
10
26.166823
20
47.064370
11
24.740401
21
45.988352
0
LINE
8
Layer 1
10
24.740401
20
45.988352
11
23.378480
21
44.732480
0
LINE
8
Layer 1
10
23.378480
20
44.732480
11
22.272381
21
43.498420
0
LINE
8
Layer 1
10
22.272381
20
43.498420
11
21.560100
21
42.376612
0
LINE
8
Layer 1
10
21.560100
20
42.376612
11
21.191401
21
41.263486
0
LINE
8
Layer 1
10
21.191401
20
41.263486
11
21.116050
21
40.055470
0
LINE
8
Layer 1
10
21.116050
20
40.055470
11
21.400507
21
38.586880
0
LINE
8
Layer 1
10
21.400507
20
38.586880
11
21.936345
21
37.369670
0
LINE
8
Layer 1
10
21.936345
20
37.369670
11
22.214187
21
36.880139
0
LINE
8
Layer 1
10
22.214187
20
36.880139
11
21.711425
21
36.688296
0
LINE
8
Layer 1
10
21.711425
20
36.688296
11
18.372358
21
35.173392
0
LINE
8
Layer 1
10
18.372358
20
35.173392
11
16.829341
21
34.265856
0
LINE
8
Layer 1
10
16.829341
20
34.265856
11
15.598895
21
33.380646
0
LINE
8
Layer 1
10
15.598895
20
33.380646
11
15.216035
21
32.899383
0
LINE
8
Layer 1
10
15.216035
20
32.899383
11
15.115979
21
32.428044
0
LINE
8
Layer 1
10
15.115979
20
32.428044
11
15.500493
21
31.940993
0
LINE
8
Layer 1
10
15.500493
20
31.940993
11
16.802879
21
31.151294
0
LINE
8
Layer 1
10
16.802879
20
31.151294
11
20.259368
21
29.432971
0
LINE
8
Layer 1
10
20.259368
20
29.432971
11
24.608919
21
27.784114
0
LINE
8
Layer 1
10
24.608919
20
27.784114
11
26.540583
21
27.005991
0
LINE
8
Layer 1
10
26.540583
20
27.005991
11
27.519649
21
26.282444
0
LINE
8
Layer 1
10
27.519649
20
26.282444
11
28.115025
21
25.329842
0
LINE
8
Layer 1
10
28.115025
20
25.329842
11
28.281544
21
24.878969
0
LINE
8
Layer 1
10
28.281544
20
24.878969
11
28.266350
21
24.665005
0
LINE
8
Layer 1
10
28.266350
20
24.665005
11
27.341036
21
24.635237
0
LINE
8
Layer 1
10
27.341036
20
24.635237
11
23.153556
21
25.078461
0
LINE
8
Layer 1
10
23.153556
20
25.078461
11
21.187266
21
25.498429
0
LINE
8
Layer 1
10
21.187266
20
25.498429
11
19.618511
21
26.021967
0
LINE
8
Layer 1
10
19.618511
20
26.021967
11
18.348684
21
26.690628
0
LINE
8
Layer 1
10
18.348684
20
26.690628
11
17.279176
21
27.545961
0
LINE
8
Layer 1
10
17.279176
20
27.545961
11
15.564989
21
29.639701
0
LINE
8
Layer 1
10
15.564989
20
29.639701
11
13.984766
21
32.229591
0
LINE
8
Layer 1
10
13.984766
20
32.229591
11
13.614310
21
32.772045
0
LINE
8
Layer 1
10
13.614310
20
32.772045
11
13.235585
21
32.872928
0
LINE
8
Layer 1
10
13.235585
20
32.872928
11
12.866782
21
32.705892
0
LINE
8
Layer 1
10
12.866782
20
32.705892
11
12.719488
21
32.487587
0
LINE
8
Layer 1
10
12.719488
20
32.487587
11
12.725380
21
32.194861
0
LINE
8
Layer 1
10
12.725380
20
32.194861
11
13.263699
21
31.118222
0
LINE
8
Layer 1
10
13.263699
20
31.118222
11
14.719686
21
28.869749
0
LINE
8
Layer 1
10
14.719686
20
28.869749
11
16.060317
21
27.191223
0
LINE
8
Layer 1
10
16.060317
20
27.191223
11
17.373659
21
25.987757
0
LINE
8
Layer 1
10
17.373659
20
25.987757
11
18.747779
21
25.164462
0
LINE
8
Layer 1
10
18.747779
20
25.164462
11
21.532819
21
24.251552
0
LINE
8
Layer 1
10
21.532819
20
24.251552
11
24.262453
21
23.780213
0
LINE
8
Layer 1
10
24.262453
20
23.780213
11
26.977199
21
23.576792
0
LINE
8
Layer 1
10
26.977199
20
23.576792
11
28.511949
21
23.530485
0
LINE
8
Layer 1
10
28.511949
20
23.530485
11
28.511949
21
22.465425
0
LINE
8
Layer 1
10
28.511949
20
22.465425
11
28.445796
21
20.672685
0
LINE
8
Layer 1
10
28.445796
20
20.672685
11
27.711499
21
15.797215
0
LINE
8
Layer 1
10
27.711499
20
15.797215
11
26.144499
21
15.695505
0
LINE
8
Layer 1
10
26.144499
20
15.695505
11
17.080699
21
15.678140
0
LINE
8
Layer 1
10
17.080699
20
15.678140
11
6.297799
21
15.618602
0
LINE
8
Layer 1
10
6.297799
20
15.618602
11
5.563503
21
15.183648
0
LINE
8
Layer 1
10
5.563503
20
15.183648
11
5.166589
21
14.500622
0
LINE
8
Layer 1
10
5.166589
20
14.500622
11
5.177339
21
13.896978
0
LINE
8
Layer 1
10
5.177339
20
13.896978
11
5.530430
21
13.382642
0
LINE
8
Layer 1
10
5.530430
20
13.382642
11
5.661780
21
13.209973
0
LINE
8
Layer 1
10
5.661780
20
13.209973
11
5.891584
21
13.084128
0
LINE
8
Layer 1
10
5.891584
20
13.084128
11
8.131897
21
12.944380
0
LINE
8
Layer 1
10
8.131897
20
12.944380
11
30.132730
21
12.912956
0
LINE
8
Layer 1
10
30.132730
20
12.912956
11
53.749330
21
12.932802
0
LINE
8
Layer 1
10
53.749330
20
12.932802
11
54.133017
21
13.118030
0
LINE
8
Layer 1
10
54.133017
20
13.118030
11
54.687047
21
13.591024
0
LINE
8
Layer 1
10
54.687047
20
13.591024
11
54.873929
21
14.262480
0
LINE
8
Layer 1
10
54.873929
20
14.262480
11
54.701105
21
14.881010
0
LINE
8
Layer 1
10
54.701105
20
14.881010
11
54.285168
21
15.340770
0
LINE
8
Layer 1
10
54.285168
20
15.340770
11
53.876158
21
15.544191
0
LINE
8
Layer 1
10
53.876158
20
15.544191
11
52.675177
21
15.643420
0
LINE
8
Layer 1
10
52.675177
20
15.643420
11
42.933368
21
15.678150
0
LINE
8
Layer 1
10
42.933368
20
15.678150
11
33.906827
21
15.700477
0
LINE
8
Layer 1
10
33.906827
20
15.700477
11
32.322468
21
15.797225
0
LINE
8
Layer 1
10
32.322468
20
15.797225
11
31.760168
21
19.316555
0
LINE
8
Layer 1
10
31.760168
20
19.316555
11
31.555094
21
22.511745
0
LINE
8
Layer 1
10
31.555094
20
22.511745
11
31.555094
21
23.550345
0
LINE
8
Layer 1
10
31.555094
20
23.550345
11
32.302622
21
23.550345
0
LINE
8
Layer 1
10
32.302622
20
23.550345
11
35.334286
21
23.711696
0
LINE
8
Layer 1
10
35.334286
20
23.711696
11
38.143926
21
24.161433
0
LINE
8
Layer 1
10
38.143926
20
24.161433
11
40.561614
21
24.862963
0
LINE
8
Layer 1
10
40.561614
20
24.862963
11
42.417422
21
25.779695
0
LINE
8
Layer 1
10
42.417422
20
25.779695
11
44.104322
21
27.335116
0
LINE
8
Layer 1
10
44.104322
20
27.335116
11
45.811062
21
29.570255
0
LINE
8
Layer 1
10
45.811062
20
29.570255
11
47.365652
21
32.302365
0
LINE
8
Layer 1
10
47.365652
20
32.302365
11
47.174636
21
32.684398
0
LINE
8
Layer 1
10
47.174636
20
32.684398
11
46.790122
21
32.877895
0
LINE
8
Layer 1
10
46.790122
20
32.877895
11
46.417185
21
32.731532
0
LINE
8
Layer 1
10
46.417185
20
32.731532
11
46.069055
21
32.203135
0
LINE
8
Layer 1
10
46.069055
20
32.203135
11
44.124155
21
29.107175
0
LINE
8
Layer 1
10
44.124155
20
29.107175
11
42.927613
21
27.713003
0
LINE
8
Layer 1
10
42.927613
20
27.713003
11
41.716185
21
26.666135
0
LINE
8
Layer 1
10
41.716185
20
26.666135
11
40.589930
21
26.055254
0
LINE
8
Layer 1
10
40.589930
20
26.055254
11
39.141181
21
25.539881
0
LINE
8
Layer 1
10
39.141181
20
25.539881
11
37.407150
21
25.131180
0
LINE
8
Layer 1
10
37.407150
20
25.131180
11
35.425045
21
24.840315
0
LINE
8
Layer 1
10
35.425045
20
24.840315
11
31.740325
21
24.648472
0
LINE
8
Layer 1
10
31.740325
20
24.648472
11
31.985091
21
25.448922
0
LINE
8
Layer 1
10
31.985091
20
25.448922
11
32.405989
21
26.176604
0
LINE
8
Layer 1
10
32.405989
20
26.176604
11
32.970769
21
26.685982
0
LINE
8
Layer 1
10
32.970769
20
26.685982
11
33.811737
21
27.158149
0
LINE
8
Layer 1
10
33.811737
20
27.158149
11
35.788879
21
27.883352
0
LINE
8
Layer 1
10
35.788879
20
27.883352
11
40.165720
21
29.597539
0
LINE
8
Layer 1
10
40.165720
20
29.597539
11
43.793379
21
31.455612
0
LINE
8
Layer 1
10
43.793379
20
31.455612
11
44.626905
21
31.974913
0
LINE
8
Layer 1
10
44.626905
20
31.974913
11
44.884899
21
32.315600
0
LINE
8
Layer 1
10
44.884899
20
32.315600
11
44.936788
21
32.626312
0
LINE
8
Layer 1
10
44.936788
20
32.626312
11
44.813785
21
32.950668
0
LINE
8
Layer 1
10
44.813785
20
32.950668
11
43.978604
21
33.744500
0
LINE
8
Layer 1
10
43.978604
20
33.744500
11
41.597104
21
35.246170
0
LINE
8
Layer 1
10
41.597104
20
35.246170
11
38.600374
21
36.615540
0
LINE
8
Layer 1
10
38.600374
20
36.615540
11
37.918999
21
36.886767
0
LINE
8
Layer 1
10
37.918999
20
36.886767
11
38.262994
21
37.647525
0
LINE
8
Layer 1
10
38.262994
20
37.647525
11
38.833149
21
39.230647
0
LINE
8
Layer 1
10
38.833149
20
39.230647
11
38.944368
21
40.717020
0
LINE
8
Layer 1
10
38.944368
20
40.717020
11
38.594172
21
42.138894
0
LINE
8
Layer 1
10
38.594172
20
42.138894
11
37.780078
21
43.528515
0
LINE
8
Layer 1
10
37.780078
20
43.528515
11
35.941026
21
45.447778
0
LINE
8
Layer 1
10
35.941026
20
45.447778
11
33.605828
21
47.272765
0
LINE
8
Layer 1
10
33.605828
20
47.272765
11
31.807296
21
48.279941
0
LINE
8
Layer 1
10
31.807296
20
48.279941
11
30.132798
21
48.979505
0
LINE
8
Layer 1
10
30.132798
20
48.979505
11
29.272810
21
48.721509
0
LINE
8
Layer 1
10
29.272810
20
48.721509
11
29.272700
21
48.721500
0
LINE
8
Layer 1
10
31.224210
20
47.305830
11
33.093856
21
46.262269
0
LINE
8
Layer 1
10
33.093856
20
46.262269
11
35.107390
21
44.692790
0
LINE
8
Layer 1
10
35.107390
20
44.692790
11
36.903441
21
42.820661
0
LINE
8
Layer 1
10
36.903441
20
42.820661
11
37.462849
21
41.944754
0
LINE
8
Layer 1
10
37.462849
20
41.944754
11
37.766740
21
41.146990
0
LINE
8
Layer 1
10
37.766740
20
41.146990
11
37.833720
21
40.270462
0
LINE
8
Layer 1
10
37.833720
20
40.270462
11
37.707202
21
39.334400
0
LINE
8
Layer 1
10
37.707202
20
39.334400
11
37.440937
21
38.523200
0
LINE
8
Layer 1
10
37.440937
20
38.523200
11
36.946444
21
37.568120
0
LINE
8
Layer 1
10
36.946444
20
37.568120
11
36.599142
21
36.791651
0
LINE
8
Layer 1
10
36.599142
20
36.791651
11
36.708294
21
36.278140
0
LINE
8
Layer 1
10
36.708294
20
36.278140
11
37.015906
21
36.033374
0
LINE
8
Layer 1
10
37.015906
20
36.033374
11
37.978434
21
35.629842
0
LINE
8
Layer 1
10
37.978434
20
35.629842
11
41.037179
21
34.224094
0
LINE
8
Layer 1
10
41.037179
20
34.224094
11
43.436044
21
32.778652
0
LINE
8
Layer 1
10
43.436044
20
32.778652
11
43.614657
21
32.639731
0
LINE
8
Layer 1
10
43.614657
20
32.639731
11
43.058973
21
32.322197
0
LINE
8
Layer 1
10
43.058973
20
32.322197
11
39.261793
21
30.397147
0
LINE
8
Layer 1
10
39.261793
20
30.397147
11
34.895703
21
28.743327
0
LINE
8
Layer 1
10
34.895703
20
28.743327
11
33.316199
21
28.139268
0
LINE
8
Layer 1
10
33.316199
20
28.139268
11
32.202452
21
27.493036
0
LINE
8
Layer 1
10
32.202452
20
27.493036
11
31.424846
21
26.707885
0
LINE
8
Layer 1
10
31.424846
20
26.707885
11
30.853763
21
25.687067
0
LINE
8
Layer 1
10
30.853763
20
25.687067
11
30.628843
21
25.171074
0
LINE
8
Layer 1
10
30.628843
20
25.171074
11
30.615613
21
36.066474
0
LINE
8
Layer 1
10
30.615613
20
36.066474
11
30.595767
21
46.955274
0
LINE
8
Layer 1
10
30.595767
20
46.955274
11
30.437000
21
47.127272
0
LINE
8
Layer 1
10
30.437000
20
47.127272
11
30.033467
21
47.305885
0
LINE
8
Layer 1
10
30.033467
20
47.305885
11
29.629935
21
47.127272
0
LINE
8
Layer 1
10
29.629935
20
47.127272
11
29.471168
21
46.955274
0
LINE
8
Layer 1
10
29.471168
20
46.955274
11
29.438091
21
35.967274
0
LINE
8
Layer 1
10
29.438091
20
35.967274
11
29.397573
21
28.280319
0
LINE
8
Layer 1
10
29.397573
20
28.280319
11
29.352093
21
25.237274
0
LINE
8
Layer 1
10
29.352093
20
25.237274
11
29.001483
21
26.117108
0
LINE
8
Layer 1
10
29.001483
20
26.117108
11
28.454791
21
26.971826
0
LINE
8
Layer 1
10
28.454791
20
26.971826
11
27.674290
21
27.660953
0
LINE
8
Layer 1
10
27.674290
20
27.660953
11
26.550208
21
28.259533
0
LINE
8
Layer 1
10
26.550208
20
28.259533
11
24.972773
21
28.842608
0
LINE
8
Layer 1
10
24.972773
20
28.842608
11
20.646373
21
30.496428
0
LINE
8
Layer 1
10
20.646373
20
30.496428
11
16.591203
21
32.580248
0
LINE
8
Layer 1
10
16.591203
20
32.580248
11
16.581279
21
32.705111
0
LINE
8
Layer 1
10
16.581279
20
32.705111
11
16.988120
21
33.023472
0
LINE
8
Layer 1
10
16.988120
20
33.023472
11
19.349780
21
34.432532
0
LINE
8
Layer 1
10
19.349780
20
34.432532
11
22.227430
21
35.696052
0
LINE
8
Layer 1
10
22.227430
20
35.696052
11
23.055790
21
36.044802
0
LINE
8
Layer 1
10
23.055790
20
36.044802
11
23.446299
21
36.382388
0
LINE
8
Layer 1
10
23.446299
20
36.382388
11
23.457255
21
36.821684
0
LINE
8
Layer 1
10
23.457255
20
36.821684
11
23.146955
21
37.475562
0
LINE
8
Layer 1
10
23.146955
20
37.475562
11
22.636027
21
38.508065
0
LINE
8
Layer 1
10
22.636027
20
38.508065
11
22.329140
21
39.449401
0
LINE
8
Layer 1
10
22.329140
20
39.449401
11
22.219471
21
40.324997
0
LINE
8
Layer 1
10
22.219471
20
40.324997
11
22.300198
21
41.160282
0
LINE
8
Layer 1
10
22.300198
20
41.160282
11
22.662074
21
42.053864
0
LINE
8
Layer 1
10
22.662074
20
42.053864
11
23.374354
21
43.074582
0
LINE
8
Layer 1
10
23.374354
20
43.074582
11
24.397966
21
44.173443
0
LINE
8
Layer 1
10
24.397966
20
44.173443
11
25.693838
21
45.301452
0
LINE
8
Layer 1
10
25.693838
20
45.301452
11
27.527100
21
46.595567
0
LINE
8
Layer 1
10
27.527100
20
46.595567
11
29.405018
21
47.537422
0
LINE
8
Layer 1
10
29.405018
20
47.537422
11
30.150891
21
47.711900
0
LINE
8
Layer 1
10
30.150891
20
47.711900
11
31.224218
21
47.305887
0
LINE
8
Layer 1
10
31.224218
20
47.305887
11
31.224210
21
47.305830
0
LINE
8
Layer 1
10
30.933137
20
17.331930
11
31.248190
21
15.430859
0
LINE
8
Layer 1
10
31.248190
20
15.430859
11
31.488821
21
14.785040
0
LINE
8
Layer 1
10
31.488821
20
14.785040
11
31.640973
21
14.619658
0
LINE
8
Layer 1
10
31.640973
20
14.619658
11
42.417273
21
14.619658
0
LINE
8
Layer 1
10
42.417273
20
14.619658
11
53.451573
21
14.513813
0
LINE
8
Layer 1
10
53.451573
20
14.513813
11
53.716185
21
14.341815
0
LINE
8
Layer 1
10
53.716185
20
14.341815
11
42.324685
21
14.302123
0
LINE
8
Layer 1
10
42.324685
20
14.302123
11
30.926585
21
14.321969
0
LINE
8
Layer 1
10
30.926585
20
14.321969
11
30.681819
21
14.487351
0
LINE
8
Layer 1
10
30.681819
20
14.487351
11
30.470130
21
14.785039
0
LINE
8
Layer 1
10
30.470130
20
14.785039
11
30.635512
21
18.688059
0
LINE
8
Layer 1
10
30.635512
20
18.688059
11
30.648743
21
19.151129
0
LINE
8
Layer 1
10
30.648743
20
19.151129
11
30.701665
21
18.820364
0
LINE
8
Layer 1
10
30.701665
20
18.820364
11
30.933200
21
17.331924
0
LINE
8
Layer 1
10
30.933200
20
17.331924
11
30.933137
21
17.331930
0
LINE
8
Layer 1
10
29.557157
20
15.248110
11
29.584445
21
14.775944
0
LINE
8
Layer 1
10
29.584445
20
14.775944
11
29.477774
21
14.546889
0
LINE
8
Layer 1
10
29.477774
20
14.546889
11
29.338853
21
14.374891
0
LINE
8
Layer 1
10
29.338853
20
14.374891
11
27.023503
21
14.335199
0
LINE
8
Layer 1
10
27.023503
20
14.335199
11
15.479803
21
14.288892
0
LINE
8
Layer 1
10
15.479803
20
14.288892
11
7.958220
21
14.305431
0
LINE
8
Layer 1
10
7.958220
20
14.305431
11
6.350703
21
14.381506
0
LINE
8
Layer 1
10
6.350703
20
14.381506
11
6.685601
21
14.519187
0
LINE
8
Layer 1
10
6.685601
20
14.519187
11
7.992942
21
14.589888
0
LINE
8
Layer 1
10
7.992942
20
14.589888
11
17.662803
21
14.619656
0
LINE
8
Layer 1
10
17.662803
20
14.619656
11
27.063153
21
14.636195
0
LINE
8
Layer 1
10
27.063153
20
14.636195
11
28.564803
21
14.751962
0
LINE
8
Layer 1
10
28.564803
20
14.751962
11
28.771530
21
15.189398
0
LINE
8
Layer 1
10
28.771530
20
15.189398
11
29.067565
21
16.901932
0
LINE
8
Layer 1
10
29.067565
20
16.901932
11
29.358638
21
18.721132
0
LINE
8
Layer 1
10
29.358638
20
18.721132
11
29.379620
21
18.747904
0
LINE
8
Layer 1
10
29.379620
20
18.747904
11
29.402464
21
18.533424
0
LINE
8
Layer 1
10
29.402464
20
18.533424
11
29.451252
21
17.398072
0
LINE
8
Layer 1
10
29.451252
20
17.398072
11
29.557097
21
15.248102
0
LINE
8
Layer 1
10
29.557097
20
15.248102
11
29.557157
21
15.248110
0
LINE
8
Layer 1
10
30.086380
20
14.738733
11
30.054130
21
14.589889
0
LINE
8
Layer 1
10
30.054130
20
14.589889
11
30.006996
21
14.639504
0
LINE
8
Layer 1
10
30.006996
20
14.639504
11
30.006996
21
15.069498
0
LINE
8
Layer 1
10
30.006996
20
15.069498
11
30.056611
21
15.300206
0
LINE
8
Layer 1
10
30.056611
20
15.300206
11
30.086380
21
15.168727
0
LINE
8
Layer 1
10
30.086380
20
15.168727
11
30.086380
21
14.738733
0
LINE
8
Layer 1
10
30.086380
20
14.738733
11
30.086380
21
14.738733
0
LINE
8
Layer 1
10
30.529604
20
14.269047
11
32.084195
21
14.112761
0
LINE
8
Layer 1
10
32.084195
20
14.112761
11
38.897944
21
14.030897
0
LINE
8
Layer 1
10
38.897944
20
14.030897
11
40.761803
21
14.005780
0
LINE
8
Layer 1
10
40.761803
20
14.005780
11
39.410631
21
13.988725
0
LINE
8
Layer 1
10
39.410631
20
13.988725
11
26.130444
21
13.971359
0
LINE
8
Layer 1
10
26.130444
20
13.971359
11
6.913044
21
14.011051
0
LINE
8
Layer 1
10
6.913044
20
14.011051
11
9.718753
21
14.041647
0
LINE
8
Layer 1
10
9.718753
20
14.041647
11
16.835984
21
14.037512
0
LINE
8
Layer 1
10
16.835984
20
14.037512
11
28.240784
21
14.070589
0
LINE
8
Layer 1
10
28.240784
20
14.070589
11
29.557224
21
14.255817
0
LINE
8
Layer 1
10
29.557224
20
14.255817
11
30.045929
21
14.388950
0
LINE
8
Layer 1
10
30.045929
20
14.388950
11
30.529672
21
14.269047
0
LINE
8
Layer 1
10
30.529672
20
14.269047
11
30.529604
21
14.269047
 0 
ENDSEC
 0 
EOF