999
"DXF R12 Output" (www.mydxf.blogspot.com)
 0 
SECTION
 2 
HEADER
 9 
$ACADVER
 1 
AC1009
 9 
$EXTMIN
 10 
 0 
 20 
 0 
 9 
$EXTMAX
 10 
 8.5 
 20 
 11 
 0 
ENDSEC
 0 
SECTION
 2 
ENTITIES
0
LINE
8
Layer 1
10
29.504200
20
51.956400
11
29.570353
21
45.546180
0
LINE
8
Layer 1
10
29.570353
20
45.546180
11
29.636506
21
52.002700
0
LINE
8
Layer 1
10
29.636506
20
52.002700
11
29.570353
21
58.412920
0
LINE
8
Layer 1
10
29.570353
20
58.412920
11
29.504200
21
51.956400
0
LINE
8
Layer 1
10
29.504200
20
51.956400
11
29.504200
21
51.956400
0
LINE
8
Layer 1
10
22.968300
20
44.163600
11
21.837189
21
43.868703
0
LINE
8
Layer 1
10
21.837189
20
43.868703
11
20.840656
21
43.436744
0
LINE
8
Layer 1
10
20.840656
20
43.436744
11
19.942113
21
42.847259
0
LINE
8
Layer 1
10
19.942113
20
42.847259
11
19.104970
21
42.079780
0
LINE
8
Layer 1
10
19.104970
20
42.079780
11
17.960630
21
40.584829
0
LINE
8
Layer 1
10
17.960630
20
40.584829
11
17.094750
21
38.807693
0
LINE
8
Layer 1
10
17.094750
20
38.807693
11
16.517875
21
36.776280
0
LINE
8
Layer 1
10
16.517875
20
36.776280
11
16.240550
21
34.518500
0
LINE
8
Layer 1
10
16.240550
20
34.518500
11
16.300088
21
33.479900
0
LINE
8
Layer 1
10
16.300088
20
33.479900
11
16.548161
21
33.186346
0
LINE
8
Layer 1
10
16.548161
20
33.186346
11
16.855772
21
33.076367
0
LINE
8
Layer 1
10
16.855772
20
33.076367
11
17.294861
21
33.256634
0
LINE
8
Layer 1
10
17.294861
20
33.256634
11
17.768682
21
33.982662
0
LINE
8
Layer 1
10
17.768682
20
33.982662
11
18.710534
21
35.541391
0
LINE
8
Layer 1
10
18.710534
20
35.541391
11
19.746652
21
36.747852
0
LINE
8
Layer 1
10
19.746652
20
36.747852
11
20.857195
21
37.681437
0
LINE
8
Layer 1
10
20.857195
20
37.681437
11
22.062002
21
38.242912
0
LINE
8
Layer 1
10
22.062002
20
38.242912
11
23.077137
21
38.503182
0
LINE
8
Layer 1
10
23.077137
20
38.503182
11
24.140028
21
38.618329
0
LINE
8
Layer 1
10
24.140028
20
38.618329
11
26.361942
21
38.408294
0
LINE
8
Layer 1
10
26.361942
20
38.408294
11
27.294698
21
38.335526
0
LINE
8
Layer 1
10
27.294698
20
38.335526
11
27.690788
21
38.751462
0
LINE
8
Layer 1
10
27.690788
20
38.751462
11
27.585771
21
39.341046
0
LINE
8
Layer 1
10
27.585771
20
39.341046
11
27.142546
21
39.643695
0
LINE
8
Layer 1
10
27.142546
20
39.643695
11
26.024561
21
39.857039
0
LINE
8
Layer 1
10
26.024561
20
39.857039
11
24.059201
21
39.949446
0
LINE
8
Layer 1
10
24.059201
20
39.949446
11
22.248886
21
39.683388
0
LINE
8
Layer 1
10
22.248886
20
39.683388
11
20.604777
21
39.062585
0
LINE
8
Layer 1
10
20.604777
20
39.062585
11
19.138041
21
38.090759
0
LINE
8
Layer 1
10
19.138041
20
38.090759
11
17.993591
21
36.780929
0
LINE
8
Layer 1
10
17.993591
20
36.780929
11
17.934053
21
36.714776
0
LINE
8
Layer 1
10
17.934053
20
36.714776
11
18.562506
21
38.831666
0
LINE
8
Layer 1
10
18.562506
20
38.831666
11
19.443166
21
40.389568
0
LINE
8
Layer 1
10
19.443166
20
40.389568
11
20.586786
21
41.669626
0
LINE
8
Layer 1
10
20.586786
20
41.669626
11
21.716349
21
42.363405
0
LINE
8
Layer 1
10
21.716349
20
42.363405
11
22.994756
21
42.814076
0
LINE
8
Layer 1
10
22.994756
20
42.814076
11
24.780886
21
42.906690
0
LINE
8
Layer 1
10
24.780886
20
42.906690
11
25.918716
21
42.866998
0
LINE
8
Layer 1
10
25.918716
20
42.866998
11
26.117175
21
43.032380
0
LINE
8
Layer 1
10
26.117175
20
43.032380
11
26.313877
21
43.290066
0
LINE
8
Layer 1
10
26.313877
20
43.290066
11
26.361114
21
43.580623
0
LINE
8
Layer 1
10
26.361114
20
43.580623
11
26.024561
21
44.104060
0
LINE
8
Layer 1
10
26.024561
20
44.104060
11
24.675042
21
44.240501
0
LINE
8
Layer 1
10
24.675042
20
44.240501
11
22.968301
21
44.163598
0
LINE
8
Layer 1
10
22.968301
20
44.163598
11
22.968300
21
44.163600
0
LINE
8
Layer 1
10
33.671800
20
44.209900
11
33.281498
21
44.150362
0
LINE
8
Layer 1
10
33.281498
20
44.150362
11
32.966755
21
44.005343
0
LINE
8
Layer 1
10
32.966755
20
44.005343
11
32.782870
21
43.734426
0
LINE
8
Layer 1
10
32.782870
20
43.734426
11
32.754032
21
43.405213
0
LINE
8
Layer 1
10
32.754032
20
43.405213
11
32.904426
21
43.085302
0
LINE
8
Layer 1
10
32.904426
20
43.085302
11
33.063193
21
42.900074
0
LINE
8
Layer 1
10
33.063193
20
42.900074
11
34.511943
21
42.900074
0
LINE
8
Layer 1
10
34.511943
20
42.900074
11
36.233572
21
42.800845
0
LINE
8
Layer 1
10
36.233572
20
42.800845
11
37.548363
21
42.304698
0
LINE
8
Layer 1
10
37.548363
20
42.304698
11
38.348504
21
41.800386
0
LINE
8
Layer 1
10
38.348504
20
41.800386
11
39.112053
21
41.093274
0
LINE
8
Layer 1
10
39.112053
20
41.093274
11
39.794977
21
40.231116
0
LINE
8
Layer 1
10
39.794977
20
40.231116
11
40.353243
21
39.261668
0
LINE
8
Layer 1
10
40.353243
20
39.261668
11
41.193385
21
36.807398
0
LINE
8
Layer 1
10
41.193385
20
36.807398
11
41.028003
21
36.992626
0
LINE
8
Layer 1
10
41.028003
20
36.992626
11
39.327873
21
38.613376
0
LINE
8
Layer 1
10
39.327873
20
38.613376
11
37.793952
21
39.403902
0
LINE
8
Layer 1
10
37.793952
20
39.403902
11
36.145923
21
39.857046
0
LINE
8
Layer 1
10
36.145923
20
39.857046
11
34.805604
21
39.950177
0
LINE
8
Layer 1
10
34.805604
20
39.950177
11
33.401405
21
39.882681
0
LINE
8
Layer 1
10
33.401405
20
39.882681
11
32.226673
21
39.684945
0
LINE
8
Layer 1
10
32.226673
20
39.684945
11
31.574753
21
39.387360
0
LINE
8
Layer 1
10
31.574753
20
39.387360
11
31.415986
21
38.916021
0
LINE
8
Layer 1
10
31.415986
20
38.916021
11
31.594599
21
38.454604
0
LINE
8
Layer 1
10
31.594599
20
38.454604
11
31.800500
21
38.318991
0
LINE
8
Layer 1
10
31.800500
20
38.318991
11
32.170129
21
38.322298
0
LINE
8
Layer 1
10
32.170129
20
38.322298
11
33.175649
21
38.474450
0
LINE
8
Layer 1
10
33.175649
20
38.474450
11
34.796399
21
38.593525
0
LINE
8
Layer 1
10
34.796399
20
38.593525
11
36.470069
21
38.414912
0
LINE
8
Layer 1
10
36.470069
20
38.414912
11
37.697205
21
37.959285
0
LINE
8
Layer 1
10
37.697205
20
37.959285
11
38.745729
21
37.349852
0
LINE
8
Layer 1
10
38.745729
20
37.349852
11
40.107651
21
35.951547
0
LINE
8
Layer 1
10
40.107651
20
35.951547
11
41.345539
21
34.002512
0
LINE
8
Layer 1
10
41.345539
20
34.002512
11
41.933472
21
33.162370
0
LINE
8
Layer 1
10
41.933472
20
33.162370
11
42.213485
21
33.075957
0
LINE
8
Layer 1
10
42.213485
20
33.075957
11
42.536289
21
33.175601
0
LINE
8
Layer 1
10
42.536289
20
33.175601
11
42.754490
21
33.332714
0
LINE
8
Layer 1
10
42.754490
20
33.332714
11
42.867880
21
33.584095
0
LINE
8
Layer 1
10
42.867880
20
33.584095
11
42.867054
21
34.776501
0
LINE
8
Layer 1
10
42.867054
20
34.776501
11
42.436233
21
37.603713
0
LINE
8
Layer 1
10
42.436233
20
37.603713
11
42.015851
21
38.891112
0
LINE
8
Layer 1
10
42.015851
20
38.891112
11
41.444764
21
40.148121
0
LINE
8
Layer 1
10
41.444764
20
40.148121
11
40.245744
21
41.915234
0
LINE
8
Layer 1
10
40.245744
20
41.915234
11
38.699414
21
43.211001
0
LINE
8
Layer 1
10
38.699414
20
43.211001
11
37.806558
21
43.690506
0
LINE
8
Layer 1
10
37.806558
20
43.690506
11
36.885173
21
44.015586
0
LINE
8
Layer 1
10
36.885173
20
44.015586
11
34.783164
21
44.249601
0
LINE
8
Layer 1
10
34.783164
20
44.249601
11
33.671794
21
44.209910
0
LINE
8
Layer 1
10
33.671794
20
44.209910
11
33.671800
21
44.209900
0
LINE
8
Layer 1
10
23.133700
20
37.277100
11
22.009928
21
36.738781
0
LINE
8
Layer 1
10
22.009928
20
36.738781
11
21.288030
21
35.868040
0
LINE
8
Layer 1
10
21.288030
20
35.868040
11
21.106936
21
35.407451
0
LINE
8
Layer 1
10
21.106936
20
35.407451
11
21.069725
21
34.862520
0
LINE
8
Layer 1
10
21.069725
20
34.862520
11
21.166370
21
34.138972
0
LINE
8
Layer 1
10
21.166370
20
34.138972
11
21.500546
21
33.519616
0
LINE
8
Layer 1
10
21.500546
20
33.519616
11
22.138611
21
32.920108
0
LINE
8
Layer 1
10
22.138611
20
32.920108
11
23.146925
21
32.256100
0
LINE
8
Layer 1
10
23.146925
20
32.256100
11
24.620480
21
31.189384
0
LINE
8
Layer 1
10
24.620480
20
31.189384
11
24.975846
21
30.663468
0
LINE
8
Layer 1
10
24.975846
20
30.663468
11
25.210895
21
29.993670
0
LINE
8
Layer 1
10
25.210895
20
29.993670
11
25.396123
21
27.321090
0
LINE
8
Layer 1
10
25.396123
20
27.321090
11
25.435815
21
25.171120
0
LINE
8
Layer 1
10
25.435815
20
25.171120
11
25.614428
21
24.833740
0
LINE
8
Layer 1
10
25.614428
20
24.833740
11
25.927310
21
24.379559
0
LINE
8
Layer 1
10
25.927310
20
24.379559
11
26.321436
21
24.063058
0
LINE
8
Layer 1
10
26.321436
20
24.063058
11
27.420398
21
23.808370
0
LINE
8
Layer 1
10
27.420398
20
23.808370
11
28.181156
21
23.755448
0
LINE
8
Layer 1
10
28.181156
20
23.755448
11
28.449075
21
23.500759
0
LINE
8
Layer 1
10
28.449075
20
23.500759
11
28.578073
21
23.087304
0
LINE
8
Layer 1
10
28.578073
20
23.087304
11
28.297750
21
22.286855
0
LINE
8
Layer 1
10
28.297750
20
22.286855
11
27.585779
21
21.665014
0
LINE
8
Layer 1
10
27.585779
20
21.665014
11
26.611781
21
21.303033
0
LINE
8
Layer 1
10
26.611781
20
21.303033
11
25.305986
21
20.996869
0
LINE
8
Layer 1
10
25.305986
20
20.996869
11
22.525079
21
20.705797
0
LINE
8
Layer 1
10
22.525079
20
20.705797
11
20.913430
21
20.857121
0
LINE
8
Layer 1
10
20.913430
20
20.857121
11
19.465509
21
21.301173
0
LINE
8
Layer 1
10
19.465509
20
21.301173
11
18.216045
21
22.023066
0
LINE
8
Layer 1
10
18.216045
20
22.023066
11
17.199769
21
23.007917
0
LINE
8
Layer 1
10
17.199769
20
23.007917
11
16.528732
21
24.044036
0
LINE
8
Layer 1
10
16.528732
20
24.044036
11
16.018940
21
25.273653
0
LINE
8
Layer 1
10
16.018940
20
25.273653
11
15.662953
21
26.721574
0
LINE
8
Layer 1
10
15.662953
20
26.721574
11
15.453329
21
28.412607
0
LINE
8
Layer 1
10
15.453329
20
28.412607
11
15.359888
21
29.350323
0
LINE
8
Layer 1
10
15.359888
20
29.350323
11
15.221794
21
29.662897
0
LINE
8
Layer 1
10
15.221794
20
29.662897
11
14.696705
21
29.851433
0
LINE
8
Layer 1
10
14.696705
20
29.851433
11
14.196424
21
29.563667
0
LINE
8
Layer 1
10
14.196424
20
29.563667
11
14.089752
21
28.710297
0
LINE
8
Layer 1
10
14.089752
20
28.710297
11
14.156732
21
27.321087
0
LINE
8
Layer 1
10
14.156732
20
27.321087
11
14.791800
21
24.622047
0
LINE
8
Layer 1
10
14.791800
20
24.622047
11
15.676595
21
22.820209
0
LINE
8
Layer 1
10
15.676595
20
22.820209
11
16.849160
21
21.360707
0
LINE
8
Layer 1
10
16.849160
20
21.360707
11
17.699843
21
20.716336
0
LINE
8
Layer 1
10
17.699843
20
20.716336
11
18.688210
21
20.169954
0
LINE
8
Layer 1
10
18.688210
20
20.169954
11
19.760922
21
19.747608
0
LINE
8
Layer 1
10
19.760922
20
19.747608
11
20.864640
21
19.475347
0
LINE
8
Layer 1
10
20.864640
20
19.475347
11
22.812845
21
19.398445
0
LINE
8
Layer 1
10
22.812845
20
19.398445
11
24.999200
21
19.574577
0
LINE
8
Layer 1
10
24.999200
20
19.574577
11
27.017689
21
20.025243
0
LINE
8
Layer 1
10
27.017689
20
20.025243
11
28.485460
21
20.560255
0
LINE
8
Layer 1
10
28.485460
20
20.560255
11
29.020472
21
20.972056
0
LINE
8
Layer 1
10
29.020472
20
20.972056
11
29.431446
21
21.493011
0
LINE
8
Layer 1
10
29.431446
20
21.493011
11
29.550521
21
21.724546
0
LINE
8
Layer 1
10
29.550521
20
21.724546
11
29.656366
21
21.519472
0
LINE
8
Layer 1
10
29.656366
20
21.519472
11
30.093801
21
20.986941
0
LINE
8
Layer 1
10
30.093801
20
20.986941
11
30.675116
21
20.553640
0
LINE
8
Layer 1
10
30.675116
20
20.553640
11
32.572879
21
19.895418
0
LINE
8
Layer 1
10
32.572879
20
19.895418
11
34.941976
21
19.455500
0
LINE
8
Layer 1
10
34.941976
20
19.455500
11
36.679317
21
19.385212
0
LINE
8
Layer 1
10
36.679317
20
19.385212
11
38.243006
21
19.488576
0
LINE
8
Layer 1
10
38.243006
20
19.488576
11
39.479033
21
19.784714
0
LINE
8
Layer 1
10
39.479033
20
19.784714
11
40.604665
21
20.235277
0
LINE
8
Layer 1
10
40.604665
20
20.235277
11
41.616182
21
20.838405
0
LINE
8
Layer 1
10
41.616182
20
20.838405
11
42.509866
21
21.592236
0
LINE
8
Layer 1
10
42.509866
20
21.592236
11
43.209430
21
22.413564
0
LINE
8
Layer 1
10
43.209430
20
22.413564
11
43.789921
21
23.370094
0
LINE
8
Layer 1
10
43.789921
20
23.370094
11
44.266222
21
24.492835
0
LINE
8
Layer 1
10
44.266222
20
24.492835
11
44.653216
21
25.812796
0
LINE
8
Layer 1
10
44.653216
20
25.812796
11
45.017884
21
28.062820
0
LINE
8
Layer 1
10
45.017884
20
28.062820
11
44.950904
21
29.504126
0
LINE
8
Layer 1
10
44.950904
20
29.504126
11
44.734460
21
29.756334
0
LINE
8
Layer 1
10
44.734460
20
29.756334
11
44.454757
21
29.864659
0
LINE
8
Layer 1
10
44.454757
20
29.864659
11
44.160170
21
29.824141
0
LINE
8
Layer 1
10
44.160170
20
29.824141
11
43.899074
21
29.629817
0
LINE
8
Layer 1
10
43.899074
20
29.629817
11
43.726249
21
29.208093
0
LINE
8
Layer 1
10
43.726249
20
29.208093
11
43.627847
21
27.923077
0
LINE
8
Layer 1
10
43.627847
20
27.923077
11
43.455849
21
26.600017
0
LINE
8
Layer 1
10
43.455849
20
26.600017
11
43.131454
21
25.345942
0
LINE
8
Layer 1
10
43.131454
20
25.345942
11
42.697674
21
24.246525
0
LINE
8
Layer 1
10
42.697674
20
24.246525
11
42.152417
21
23.299518
0
LINE
8
Layer 1
10
42.152417
20
23.299518
11
41.493588
21
22.502673
0
LINE
8
Layer 1
10
41.493588
20
22.502673
11
40.719095
21
21.853742
0
LINE
8
Layer 1
10
40.719095
20
21.853742
11
39.826844
21
21.350476
0
LINE
8
Layer 1
10
39.826844
20
21.350476
11
38.814743
21
20.990627
0
LINE
8
Layer 1
10
38.814743
20
20.990627
11
37.680699
21
20.771947
0
LINE
8
Layer 1
10
37.680699
20
20.771947
11
35.972713
21
20.742695
0
LINE
8
Layer 1
10
35.972713
20
20.742695
11
34.019135
21
20.969578
0
LINE
8
Layer 1
10
34.019135
20
20.969578
11
32.273939
21
21.373834
0
LINE
8
Layer 1
10
32.273939
20
21.373834
11
31.191099
21
21.876697
0
LINE
8
Layer 1
10
31.191099
20
21.876697
11
30.694125
21
22.563860
0
LINE
8
Layer 1
10
30.694125
20
22.563860
11
30.589108
21
23.305597
0
LINE
8
Layer 1
10
30.589108
20
23.305597
11
30.840489
21
23.666957
0
LINE
8
Layer 1
10
30.840489
20
23.666957
11
31.687248
21
23.814974
0
LINE
8
Layer 1
10
31.687248
20
23.814974
11
32.699388
21
24.039894
0
LINE
8
Layer 1
10
32.699388
20
24.039894
11
33.202977
21
24.444254
0
LINE
8
Layer 1
10
33.202977
20
24.444254
11
33.552760
21
24.972650
0
LINE
8
Layer 1
10
33.552760
20
24.972650
11
33.688373
21
25.564719
0
LINE
8
Layer 1
10
33.688373
20
25.564719
11
33.744603
21
27.486460
0
LINE
8
Layer 1
10
33.744603
20
27.486460
11
33.841352
21
29.736485
0
LINE
8
Layer 1
10
33.841352
20
29.736485
11
34.220904
21
30.780870
0
LINE
8
Layer 1
10
34.220904
20
30.780870
11
34.774935
21
31.466380
0
LINE
8
Layer 1
10
34.774935
20
31.466380
11
35.854884
21
32.176700
0
LINE
8
Layer 1
10
35.854884
20
32.176700
11
37.351591
21
33.182225
0
LINE
8
Layer 1
10
37.351591
20
33.182225
11
37.732177
21
33.644676
0
LINE
8
Layer 1
10
37.732177
20
33.644676
11
37.985004
21
34.187750
0
LINE
8
Layer 1
10
37.985004
20
34.187750
11
38.077618
21
35.042363
0
LINE
8
Layer 1
10
38.077618
20
35.042363
11
37.808045
21
35.889533
0
LINE
8
Layer 1
10
37.808045
20
35.889533
11
37.233341
21
36.625068
0
LINE
8
Layer 1
10
37.233341
20
36.625068
11
36.410564
21
37.144780
0
LINE
8
Layer 1
10
36.410564
20
37.144780
11
35.333926
21
37.357296
0
LINE
8
Layer 1
10
35.333926
20
37.357296
11
34.167984
21
37.316778
0
LINE
8
Layer 1
10
34.167984
20
37.316778
11
33.488366
21
37.105709
0
LINE
8
Layer 1
10
33.488366
20
37.105709
11
32.878829
21
36.754478
0
LINE
8
Layer 1
10
32.878829
20
36.754478
11
32.369761
21
36.284173
0
LINE
8
Layer 1
10
32.369761
20
36.284173
11
31.991554
21
35.715878
0
LINE
8
Layer 1
10
31.991554
20
35.715878
11
31.693039
21
34.826949
0
LINE
8
Layer 1
10
31.693039
20
34.826949
11
31.687251
21
34.101748
0
LINE
8
Layer 1
10
31.687251
20
34.101748
11
32.065149
21
33.662658
0
LINE
8
Layer 1
10
32.065149
20
33.662658
11
32.646468
21
33.684985
0
LINE
8
Layer 1
10
32.646468
20
33.684985
11
32.915214
21
33.959520
0
LINE
8
Layer 1
10
32.915214
20
33.959520
11
33.050001
21
34.511896
0
LINE
8
Layer 1
10
33.050001
20
34.511896
11
33.185615
21
35.059311
0
LINE
8
Layer 1
10
33.185615
20
35.059311
11
33.519687
21
35.497574
0
LINE
8
Layer 1
10
33.519687
20
35.497574
11
34.056353
21
35.861415
0
LINE
8
Layer 1
10
34.056353
20
35.861415
11
34.776597
21
36.026797
0
LINE
8
Layer 1
10
34.776597
20
36.026797
11
35.601029
21
35.964779
0
LINE
8
Layer 1
10
35.601029
20
35.964779
11
36.271657
21
35.590188
0
LINE
8
Layer 1
10
36.271657
20
35.590188
11
36.583092
21
35.221076
0
LINE
8
Layer 1
10
36.583092
20
35.221076
11
36.694209
21
34.845141
0
LINE
8
Layer 1
10
36.694209
20
34.845141
11
36.605626
21
34.472927
0
LINE
8
Layer 1
10
36.605626
20
34.472927
11
36.317964
21
34.114978
0
LINE
8
Layer 1
10
36.317964
20
34.114978
11
35.411669
21
33.506371
0
LINE
8
Layer 1
10
35.411669
20
33.506371
11
33.756191
21
32.384251
0
LINE
8
Layer 1
10
33.756191
20
32.384251
11
32.924319
21
31.277021
0
LINE
8
Layer 1
10
32.924319
20
31.277021
11
32.482748
21
29.992002
0
LINE
8
Layer 1
10
32.482748
20
29.992002
11
32.348789
21
27.684921
0
LINE
8
Layer 1
10
32.348789
20
27.684921
11
32.249560
21
25.448951
0
LINE
8
Layer 1
10
32.249560
20
25.448951
11
32.124696
21
25.238916
0
LINE
8
Layer 1
10
32.124696
20
25.238916
11
31.885719
21
25.257108
0
LINE
8
Layer 1
10
31.885719
20
25.257108
11
31.764163
21
25.318300
0
LINE
8
Layer 1
10
31.764163
20
25.318300
11
31.865873
21
25.389414
0
LINE
8
Layer 1
10
31.865873
20
25.389414
11
32.037871
21
25.548181
0
LINE
8
Layer 1
10
32.037871
20
25.548181
11
29.530681
21
25.640795
0
LINE
8
Layer 1
10
29.530681
20
25.640795
11
26.990411
21
25.614334
0
LINE
8
Layer 1
10
26.990411
20
25.614334
11
27.169024
21
25.389414
0
LINE
8
Layer 1
10
27.169024
20
25.389414
11
27.347637
21
25.204186
0
LINE
8
Layer 1
10
27.347637
20
25.204186
11
27.169024
21
25.204186
0
LINE
8
Layer 1
10
27.169024
20
25.204186
11
26.988137
21
25.267445
0
LINE
8
Layer 1
10
26.988137
20
25.267445
11
26.882912
21
25.571334
0
LINE
8
Layer 1
10
26.882912
20
25.571334
11
26.785337
21
27.585686
0
LINE
8
Layer 1
10
26.785337
20
27.585686
11
26.724145
21
29.396621
0
LINE
8
Layer 1
10
26.724145
20
29.396621
11
26.573648
21
30.245036
0
LINE
8
Layer 1
10
26.573648
20
30.245036
11
26.232443
21
31.209627
0
LINE
8
Layer 1
10
26.232443
20
31.209627
11
25.744255
21
31.988165
0
LINE
8
Layer 1
10
25.744255
20
31.988165
11
25.048926
21
32.652588
0
LINE
8
Layer 1
10
25.048926
20
32.652588
11
24.086298
21
33.274836
0
LINE
8
Layer 1
10
24.086298
20
33.274836
11
22.784736
21
34.148053
0
LINE
8
Layer 1
10
22.784736
20
34.148053
11
22.508548
21
34.504659
0
LINE
8
Layer 1
10
22.508548
20
34.504659
11
22.425858
21
34.862506
0
LINE
8
Layer 1
10
22.425858
20
34.862506
11
22.639821
21
35.418397
0
LINE
8
Layer 1
10
22.639821
20
35.418397
11
23.189924
21
35.831647
0
LINE
8
Layer 1
10
23.189924
20
35.831647
11
23.938486
21
36.036513
0
LINE
8
Layer 1
10
23.938486
20
36.036513
11
24.747828
21
35.967256
0
LINE
8
Layer 1
10
24.747828
20
35.967256
11
25.260410
21
35.746057
0
LINE
8
Layer 1
10
25.260410
20
35.746057
11
25.648335
21
35.418187
0
LINE
8
Layer 1
10
25.648335
20
35.418187
11
25.913465
21
34.981163
0
LINE
8
Layer 1
10
25.913465
20
34.981163
11
26.057658
21
34.432506
0
LINE
8
Layer 1
10
26.057658
20
34.432506
11
26.328885
21
33.790823
0
LINE
8
Layer 1
10
26.328885
20
33.790823
11
26.616650
21
33.630092
0
LINE
8
Layer 1
10
26.616650
20
33.630092
11
26.924260
21
33.626268
0
LINE
8
Layer 1
10
26.924260
20
33.626268
11
27.207063
21
33.767566
0
LINE
8
Layer 1
10
27.207063
20
33.767566
11
27.420405
21
34.042204
0
LINE
8
Layer 1
10
27.420405
20
34.042204
11
27.505577
21
34.329142
0
LINE
8
Layer 1
10
27.505577
20
34.329142
11
27.427020
21
34.789732
0
LINE
8
Layer 1
10
27.427020
20
34.789732
11
27.132639
21
35.660470
0
LINE
8
Layer 1
10
27.132639
20
35.660470
11
26.619955
21
36.377402
0
LINE
8
Layer 1
10
26.619955
20
36.377402
11
25.934446
21
36.928952
0
LINE
8
Layer 1
10
25.934446
20
36.928952
11
25.105055
21
37.277081
0
LINE
8
Layer 1
10
25.105055
20
37.277081
11
24.106973
21
37.366387
0
LINE
8
Layer 1
10
24.106973
20
37.366387
11
23.133695
21
37.277081
0
LINE
8
Layer 1
10
23.133695
20
37.277081
11
23.133700
21
37.277100
0
LINE
8
Layer 1
10
0.661529
20
29.973800
11
7.574509
21
29.967185
0
LINE
8
Layer 1
10
7.574509
20
29.967185
11
13.792879
21
30.000261
0
LINE
8
Layer 1
10
13.792879
20
30.000261
11
6.879899
21
30.006876
0
LINE
8
Layer 1
10
6.879899
20
30.006876
11
2.200409
21
29.997780
0
LINE
8
Layer 1
10
2.200409
20
29.997780
11
0.936372
21
29.987341
0
LINE
8
Layer 1
10
0.936372
20
29.987341
11
0.661529
21
29.973800
0
LINE
8
Layer 1
10
0.661529
20
29.973800
11
0.661529
21
29.973800
0
LINE
8
Layer 1
10
45.314700
20
29.987000
11
59.306000
21
29.987000
0
LINE
8
Layer 1
10
59.306000
20
29.987000
11
59.302822
21
29.990049
0
LINE
8
Layer 1
10
59.302822
20
29.990049
11
59.008932
21
29.994029
0
LINE
8
Layer 1
10
59.008932
20
29.994029
11
57.658792
21
30.003538
0
LINE
8
Layer 1
10
57.658792
20
30.003538
11
52.677480
21
30.020076
0
LINE
8
Layer 1
10
52.677480
20
30.020076
11
45.314660
21
29.987000
0
LINE
8
Layer 1
10
45.314660
20
29.987000
11
45.314700
21
29.987000
0
LINE
8
Layer 1
10
34.617800
20
29.252700
11
36.379948
21
26.946444
0
LINE
8
Layer 1
10
36.379948
20
26.946444
11
37.303610
21
25.051990
0
LINE
8
Layer 1
10
37.303610
20
25.051990
11
37.540934
21
23.476726
0
LINE
8
Layer 1
10
37.540934
20
23.476726
11
37.316841
21
22.154490
0
LINE
8
Layer 1
10
37.316841
20
22.154490
11
37.182054
21
21.586402
0
LINE
8
Layer 1
10
37.182054
20
21.586402
11
37.369763
21
21.162197
0
LINE
8
Layer 1
10
37.369763
20
21.162197
11
37.645951
21
20.998365
0
LINE
8
Layer 1
10
37.645951
20
20.998365
11
37.951909
21
20.987719
0
LINE
8
Layer 1
10
37.951909
20
20.987719
11
38.494363
21
21.393732
0
LINE
8
Layer 1
10
38.494363
20
21.393732
11
38.742333
21
22.030143
0
LINE
8
Layer 1
10
38.742333
20
22.030143
11
38.875569
21
22.887960
0
LINE
8
Layer 1
10
38.875569
20
22.887960
11
38.765590
21
24.793992
0
LINE
8
Layer 1
10
38.765590
20
24.793992
11
38.123079
21
26.623119
0
LINE
8
Layer 1
10
38.123079
20
26.623119
11
37.158070
21
28.055332
0
LINE
8
Layer 1
10
37.158070
20
28.055332
11
36.393177
21
28.619285
0
LINE
8
Layer 1
10
36.393177
20
28.619285
11
35.166870
21
29.133622
0
LINE
8
Layer 1
10
35.166870
20
29.133622
11
34.678992
21
29.289908
0
LINE
8
Layer 1
10
34.678992
20
29.289908
11
34.617801
21
29.252697
0
LINE
8
Layer 1
10
34.617801
20
29.252697
11
34.617800
21
29.252700
0
LINE
8
Layer 1
10
23.881200
20
29.107200
11
22.776450
21
28.677206
0
LINE
8
Layer 1
10
22.776450
20
28.677206
11
22.036468
21
28.137854
0
LINE
8
Layer 1
10
22.036468
20
28.137854
11
21.371529
21
27.309496
0
LINE
8
Layer 1
10
21.371529
20
27.309496
11
20.807057
21
26.230583
0
LINE
8
Layer 1
10
20.807057
20
26.230583
11
20.368480
21
24.939566
0
LINE
8
Layer 1
10
20.368480
20
24.939566
11
20.205578
21
23.388280
0
LINE
8
Layer 1
10
20.205578
20
23.388280
11
20.355249
21
21.975916
0
LINE
8
Layer 1
10
20.355249
20
21.975916
11
20.757128
21
21.200275
0
LINE
8
Layer 1
10
20.757128
20
21.200275
11
21.307851
21
20.970396
0
LINE
8
Layer 1
10
21.307851
20
20.970396
11
21.732057
21
21.185393
0
LINE
8
Layer 1
10
21.732057
20
21.185393
11
21.962765
21
21.579003
0
LINE
8
Layer 1
10
21.962765
20
21.579003
11
21.784152
21
22.167764
0
LINE
8
Layer 1
10
21.784152
20
22.167764
11
21.629520
21
22.660604
0
LINE
8
Layer 1
10
21.629520
20
22.660604
11
21.598924
21
23.451134
0
LINE
8
Layer 1
10
21.598924
20
23.451134
11
21.757691
21
24.873424
0
LINE
8
Layer 1
10
21.757691
20
24.873424
11
22.582949
21
26.757127
0
LINE
8
Layer 1
10
22.582949
20
26.757127
11
24.132581
21
28.829364
0
LINE
8
Layer 1
10
24.132581
20
28.829364
11
24.529498
21
29.299050
0
LINE
8
Layer 1
10
24.529498
20
29.299050
11
23.881200
21
29.107207
0
LINE
8
Layer 1
10
23.881200
20
29.107207
11
23.881200
21
29.107200
0
LINE
8
Layer 1
10
23.987000
20
18.516100
11
23.798464
21
18.024088
0
LINE
8
Layer 1
10
23.798464
20
18.024088
11
24.086229
21
17.279040
0
LINE
8
Layer 1
10
24.086229
20
17.279040
11
24.666410
21
16.394037
0
LINE
8
Layer 1
10
24.666410
20
16.394037
11
25.373729
21
15.696331
0
LINE
8
Layer 1
10
25.373729
20
15.696331
11
26.221210
21
15.174757
0
LINE
8
Layer 1
10
26.221210
20
15.174757
11
27.221879
21
14.818150
0
LINE
8
Layer 1
10
27.221879
20
14.818150
11
29.396657
21
14.600672
0
LINE
8
Layer 1
10
29.396657
20
14.600672
11
31.720279
21
14.785074
0
LINE
8
Layer 1
10
31.720279
20
14.785074
11
32.819656
21
15.132376
0
LINE
8
Layer 1
10
32.819656
20
15.132376
11
33.737942
21
15.688060
0
LINE
8
Layer 1
10
33.737942
20
15.688060
11
34.492499
21
16.467011
0
LINE
8
Layer 1
10
34.492499
20
16.467011
11
35.100689
21
17.484114
0
LINE
8
Layer 1
10
35.100689
20
17.484114
11
35.287571
21
17.943876
0
LINE
8
Layer 1
10
35.287571
20
17.943876
11
35.266071
21
18.205181
0
LINE
8
Layer 1
10
35.266071
20
18.205181
11
35.017998
21
18.594656
0
LINE
8
Layer 1
10
35.017998
20
18.594656
11
34.631003
21
18.721174
0
LINE
8
Layer 1
10
34.631003
20
18.721174
11
34.207625
21
18.555791
0
LINE
8
Layer 1
10
34.207625
20
18.555791
11
33.764400
21
17.874417
0
LINE
8
Layer 1
10
33.764400
20
17.874417
11
33.175639
21
17.025178
0
LINE
8
Layer 1
10
33.175639
20
17.025178
11
32.507490
21
16.458747
0
LINE
8
Layer 1
10
32.507490
20
16.458747
11
31.621041
21
16.134598
0
LINE
8
Layer 1
10
31.621041
20
16.134598
11
30.912379
21
16.003119
0
LINE
8
Layer 1
10
30.912379
20
16.003119
11
29.603381
21
15.975831
0
LINE
8
Layer 1
10
29.603381
20
15.975831
11
27.651871
21
16.094906
0
LINE
8
Layer 1
10
27.651871
20
16.094906
11
26.906307
21
16.332436
0
LINE
8
Layer 1
10
26.906307
20
16.332436
11
26.306486
21
16.680359
0
LINE
8
Layer 1
10
26.306486
20
16.680359
11
25.807136
21
17.172166
0
LINE
8
Layer 1
10
25.807136
20
17.172166
11
25.362981
21
17.841346
0
LINE
8
Layer 1
10
25.362981
20
17.841346
11
24.884200
21
18.571508
0
LINE
8
Layer 1
10
24.884200
20
18.571508
11
24.450071
21
18.721180
0
LINE
8
Layer 1
10
24.450071
20
18.721180
11
23.987001
21
18.516106
0
LINE
8
Layer 1
10
23.987001
20
18.516106
11
23.987000
21
18.516100
0
LINE
8
Layer 1
10
29.504200
20
6.813660
11
29.570353
21
1.587580
0
LINE
8
Layer 1
10
29.570353
20
1.587580
11
29.636506
21
6.813660
0
LINE
8
Layer 1
10
29.636506
20
6.813660
11
29.570353
21
12.039740
0
LINE
8
Layer 1
10
29.570353
20
12.039740
11
29.504200
21
6.813660
0
LINE
8
Layer 1
10
29.504200
20
6.813660
11
29.504200
21
6.813660
 0 
ENDSEC
 0 
EOF