999
"DXF R12 Output" (www.mydxf.blogspot.com)
 0 
SECTION
 2 
HEADER
 9 
$ACADVER
 1 
AC1009
 9 
$EXTMIN
 10 
 0 
 20 
 0 
 9 
$EXTMAX
 10 
 8.5 
 20 
 11 
 0 
ENDSEC
 0 
SECTION
 2 
ENTITIES
0
LINE
8
Layer 1
10
33.473400
20
42.324500
11
32.679565
21
41.841584
0
LINE
8
Layer 1
10
32.679565
20
41.841584
11
29.370269
21
39.869401
0
LINE
8
Layer 1
10
29.370269
20
39.869401
11
27.916555
21
38.825014
0
LINE
8
Layer 1
10
27.916555
20
38.825014
11
27.043337
21
37.693804
0
LINE
8
Layer 1
10
27.043337
20
37.693804
11
26.454576
21
38.103952
0
LINE
8
Layer 1
10
26.454576
20
38.103952
11
25.501974
21
38.944094
0
LINE
8
Layer 1
10
25.501974
20
38.944094
11
22.167864
21
41.444674
0
LINE
8
Layer 1
10
22.167864
20
41.444674
11
21.347568
21
42.026820
0
LINE
8
Layer 1
10
21.347568
20
42.026820
11
20.844806
21
42.344354
0
LINE
8
Layer 1
10
20.844806
20
42.344354
11
20.580194
21
42.106203
0
LINE
8
Layer 1
10
20.580194
20
42.106203
11
20.368505
21
41.808515
0
LINE
8
Layer 1
10
20.368505
20
41.808515
11
20.606655
21
40.273765
0
LINE
8
Layer 1
10
20.606655
20
40.273765
11
21.109417
21
37.157965
0
LINE
8
Layer 1
10
21.109417
20
37.157965
11
21.340952
21
35.543835
0
LINE
8
Layer 1
10
21.340952
20
35.543835
11
19.435752
21
35.411529
0
LINE
8
Layer 1
10
19.435752
20
35.411529
11
17.543782
21
35.292454
0
LINE
8
Layer 1
10
17.543782
20
35.292454
11
18.516230
21
33.797394
0
LINE
8
Layer 1
10
18.516230
20
33.797394
11
22.240640
21
27.717944
0
LINE
8
Layer 1
10
22.240640
20
27.717944
11
22.520136
21
27.135798
0
LINE
8
Layer 1
10
22.520136
20
27.135798
11
22.412638
21
26.672724
0
LINE
8
Layer 1
10
22.412638
20
26.672724
11
22.260486
21
26.328729
0
LINE
8
Layer 1
10
22.260486
20
26.328729
11
21.565881
21
26.778569
0
LINE
8
Layer 1
10
21.565881
20
26.778569
11
18.425272
21
28.993866
0
LINE
8
Layer 1
10
18.425272
20
28.993866
11
14.679361
21
31.938499
0
LINE
8
Layer 1
10
14.679361
20
31.938499
11
14.037678
21
32.414800
0
LINE
8
Layer 1
10
14.037678
20
32.414800
11
13.885526
21
32.308955
0
LINE
8
Layer 1
10
13.885526
20
32.308955
11
13.673837
21
32.156803
0
LINE
8
Layer 1
10
13.673837
20
32.156803
11
13.727586
21
31.991421
0
LINE
8
Layer 1
10
13.727586
20
31.991421
11
14.361827
21
31.448967
0
LINE
8
Layer 1
10
14.361827
20
31.448967
11
17.939871
21
28.652354
0
LINE
8
Layer 1
10
17.939871
20
28.652354
11
20.838197
21
26.560267
0
LINE
8
Layer 1
10
20.838197
20
26.560267
11
21.942947
21
25.759817
0
LINE
8
Layer 1
10
21.942947
20
25.759817
11
21.843718
21
25.422437
0
LINE
8
Layer 1
10
21.843718
20
25.422437
11
20.736486
21
22.503439
0
LINE
8
Layer 1
10
20.736486
20
22.503439
11
19.614368
21
18.760837
0
LINE
8
Layer 1
10
19.614368
20
18.760837
11
19.468832
21
18.178691
0
LINE
8
Layer 1
10
19.468832
20
18.178691
11
19.601138
21
17.900849
0
LINE
8
Layer 1
10
19.601138
20
17.900849
11
19.753290
21
17.603161
0
LINE
8
Layer 1
10
19.753290
20
17.603161
11
20.950660
21
18.158845
0
LINE
8
Layer 1
10
20.950660
20
18.158845
11
26.361970
21
20.705735
0
LINE
8
Layer 1
10
26.361970
20
20.705735
11
27.671800
21
18.774075
0
LINE
8
Layer 1
10
27.671800
20
18.774075
11
29.577831
21
16.008882
0
LINE
8
Layer 1
10
29.577831
20
16.008882
11
30.694990
21
14.672595
0
LINE
8
Layer 1
10
30.694990
20
14.672595
11
31.072062
21
14.381522
0
LINE
8
Layer 1
10
31.072062
20
14.381522
11
31.158060
21
15.320893
0
LINE
8
Layer 1
10
31.158060
20
15.320893
11
31.583094
21
18.030685
0
LINE
8
Layer 1
10
31.583094
20
18.030685
11
31.986007
21
19.113627
0
LINE
8
Layer 1
10
31.986007
20
19.113627
11
32.553890
21
20.150053
0
LINE
8
Layer 1
10
32.553890
20
20.150053
11
32.811886
21
20.553586
0
LINE
8
Layer 1
10
32.811886
20
20.553586
11
33.433723
21
20.236052
0
LINE
8
Layer 1
10
33.433723
20
20.236052
11
39.361023
21
17.583322
0
LINE
8
Layer 1
10
39.361023
20
17.583322
11
40.062244
21
17.292249
0
LINE
8
Layer 1
10
40.062244
20
17.292249
11
40.273933
21
17.649475
0
LINE
8
Layer 1
10
40.273933
20
17.649475
11
40.406239
21
18.039777
0
LINE
8
Layer 1
10
40.406239
20
18.039777
11
39.943169
21
19.290067
0
LINE
8
Layer 1
10
39.943169
20
19.290067
11
39.301486
21
21.076197
0
LINE
8
Layer 1
10
39.301486
20
21.076197
11
37.098596
21
26.262587
0
LINE
8
Layer 1
10
37.098596
20
26.262587
11
36.767831
21
26.950577
0
LINE
8
Layer 1
10
36.767831
20
26.950577
11
37.297054
21
27.453339
0
LINE
8
Layer 1
10
37.297054
20
27.453339
11
38.739184
21
28.974859
0
LINE
8
Layer 1
10
38.739184
20
28.974859
11
40.221004
21
30.628679
0
LINE
8
Layer 1
10
40.221004
20
30.628679
11
41.279454
21
31.819429
0
LINE
8
Layer 1
10
41.279454
20
31.819429
11
42.675284
21
33.374019
0
LINE
8
Layer 1
10
42.675284
20
33.374019
11
43.574963
21
34.372928
0
LINE
8
Layer 1
10
43.574963
20
34.372928
11
43.389735
21
34.558156
0
LINE
8
Layer 1
10
43.389735
20
34.558156
11
43.138354
21
34.703692
0
LINE
8
Layer 1
10
43.138354
20
34.703692
11
38.170274
21
34.101701
0
LINE
8
Layer 1
10
38.170274
20
34.101701
11
36.893524
21
33.969395
0
LINE
8
Layer 1
10
36.893524
20
33.969395
11
36.810420
21
33.961540
0
LINE
8
Layer 1
10
36.810420
20
33.961540
11
36.814141
21
34.070279
0
LINE
8
Layer 1
10
36.814141
20
34.070279
11
37.230904
21
35.193225
0
LINE
8
Layer 1
10
37.230904
20
35.193225
11
38.428274
21
38.838245
0
LINE
8
Layer 1
10
38.428274
20
38.838245
11
39.096418
21
41.808515
0
LINE
8
Layer 1
10
39.096418
20
41.808515
11
38.831806
21
42.165741
0
LINE
8
Layer 1
10
38.831806
20
42.165741
11
38.560579
21
42.456814
0
LINE
8
Layer 1
10
38.560579
20
42.456814
11
37.323519
21
41.715902
0
LINE
8
Layer 1
10
37.323519
20
41.715902
11
34.392949
21
39.969462
0
LINE
8
Layer 1
10
34.392949
20
39.969462
11
34.240797
21
41.920972
0
LINE
8
Layer 1
10
34.240797
20
41.920972
11
34.062184
21
42.397273
0
LINE
8
Layer 1
10
34.062184
20
42.397273
11
33.903417
21
42.602347
0
LINE
8
Layer 1
10
33.903417
20
42.602347
11
33.473423
21
42.324505
0
LINE
8
Layer 1
10
33.473423
20
42.324505
11
33.473400
21
42.324500
0
LINE
8
Layer 1
10
33.771088
20
40.419300
11
33.817395
21
39.658542
0
LINE
8
Layer 1
10
33.817395
20
39.658542
11
33.400632
21
39.420392
0
LINE
8
Layer 1
10
33.400632
20
39.420392
11
31.918812
21
38.567020
0
LINE
8
Layer 1
10
31.918812
20
38.567020
11
29.537312
21
37.270420
0
LINE
8
Layer 1
10
29.537312
20
37.270420
11
28.214252
21
36.589045
0
LINE
8
Layer 1
10
28.214252
20
36.589045
11
27.830565
21
36.952886
0
LINE
8
Layer 1
10
27.830565
20
36.952886
11
27.446878
21
37.310112
0
LINE
8
Layer 1
10
27.446878
20
37.310112
11
27.678413
21
37.660722
0
LINE
8
Layer 1
10
27.678413
20
37.660722
11
28.322577
21
38.397502
0
LINE
8
Layer 1
10
28.322577
20
38.397502
11
29.140393
21
39.069782
0
LINE
8
Layer 1
10
29.140393
20
39.069782
11
33.109563
21
41.431442
0
LINE
8
Layer 1
10
33.109563
20
41.431442
11
33.638786
21
41.729130
0
LINE
8
Layer 1
10
33.638786
20
41.729130
11
33.678478
21
41.451288
0
LINE
8
Layer 1
10
33.678478
20
41.451288
11
33.771092
21
40.419298
0
LINE
8
Layer 1
10
33.771092
20
40.419298
11
33.771088
21
40.419300
0
LINE
8
Layer 1
10
38.474558
20
41.530670
11
37.913085
21
39.103685
0
LINE
8
Layer 1
10
37.913085
20
39.103685
11
37.297038
21
37.078580
0
LINE
8
Layer 1
10
37.297038
20
37.078580
11
36.099668
21
33.896630
0
LINE
8
Layer 1
10
36.099668
20
33.896630
11
35.451370
21
33.837092
0
LINE
8
Layer 1
10
35.451370
20
33.837092
11
34.822917
21
33.790785
0
LINE
8
Layer 1
10
34.822917
20
33.790785
11
34.710457
21
35.299075
0
LINE
8
Layer 1
10
34.710457
20
35.299075
11
34.485537
21
38.064265
0
LINE
8
Layer 1
10
34.485537
20
38.064265
11
34.439230
21
39.341015
0
LINE
8
Layer 1
10
34.439230
20
39.341015
11
38.269480
21
41.616675
0
LINE
8
Layer 1
10
38.269480
20
41.616675
11
38.429074
21
41.672905
0
LINE
8
Layer 1
10
38.429074
20
41.672905
11
38.474554
21
41.530677
0
LINE
8
Layer 1
10
38.474554
20
41.530677
11
38.474558
21
41.530670
0
LINE
8
Layer 1
10
23.418158
20
39.817310
11
26.500888
21
37.303500
0
LINE
8
Layer 1
10
26.500888
20
37.303500
11
26.646424
21
37.144733
0
LINE
8
Layer 1
10
26.646424
20
37.144733
11
26.289198
21
36.549357
0
LINE
8
Layer 1
10
26.289198
20
36.549357
11
25.879050
21
35.861367
0
LINE
8
Layer 1
10
25.879050
20
35.861367
11
22.558170
21
35.583525
0
LINE
8
Layer 1
10
22.558170
20
35.583525
11
21.936333
21
35.563679
0
LINE
8
Layer 1
10
21.936333
20
35.563679
11
21.684952
21
37.078579
0
LINE
8
Layer 1
10
21.684952
20
37.078579
11
21.036654
21
41.398359
0
LINE
8
Layer 1
10
21.036654
20
41.398359
11
21.117691
21
41.474435
0
LINE
8
Layer 1
10
21.117691
20
41.474435
11
21.585723
21
41.173439
0
LINE
8
Layer 1
10
21.585723
20
41.173439
11
23.418163
21
39.817309
0
LINE
8
Layer 1
10
23.418163
20
39.817309
11
23.418158
21
39.817310
0
LINE
8
Layer 1
10
33.870358
20
38.778710
11
34.068817
21
36.185520
0
LINE
8
Layer 1
10
34.068817
20
36.185520
11
34.247430
21
33.764320
0
LINE
8
Layer 1
10
34.247430
20
33.764320
11
34.035741
21
33.718013
0
LINE
8
Layer 1
10
34.035741
20
33.718013
11
33.828186
21
33.743647
0
LINE
8
Layer 1
10
33.828186
20
33.743647
11
33.585901
21
34.002470
0
LINE
8
Layer 1
10
33.585901
20
34.002470
11
32.798682
21
34.754131
0
LINE
8
Layer 1
10
32.798682
20
34.754131
11
31.852691
21
35.371840
0
LINE
8
Layer 1
10
31.852691
20
35.371840
11
30.781015
21
35.719969
0
LINE
8
Layer 1
10
30.781015
20
35.719969
11
29.610111
21
35.854756
0
LINE
8
Layer 1
10
29.610111
20
35.854756
11
29.079234
21
35.881217
0
LINE
8
Layer 1
10
29.079234
20
35.881217
11
28.836122
21
36.026754
0
LINE
8
Layer 1
10
28.836122
20
36.026754
11
28.650894
21
36.205367
0
LINE
8
Layer 1
10
28.650894
20
36.205367
11
29.557189
21
36.648591
0
LINE
8
Layer 1
10
29.557189
20
36.648591
11
32.117309
21
38.031191
0
LINE
8
Layer 1
10
32.117309
20
38.031191
11
33.824049
21
38.963947
0
LINE
8
Layer 1
10
33.824049
20
38.963947
11
33.870356
21
38.778719
0
LINE
8
Layer 1
10
33.870356
20
38.778719
11
33.870358
21
38.778710
0
LINE
8
Layer 1
10
27.413838
20
36.589050
11
27.599066
21
36.397207
0
LINE
8
Layer 1
10
27.599066
20
36.397207
11
27.116150
21
36.159057
0
LINE
8
Layer 1
10
27.116150
20
36.159057
11
26.606773
21
35.953983
0
LINE
8
Layer 1
10
26.606773
20
35.953983
11
27.162457
21
36.780894
0
LINE
8
Layer 1
10
27.162457
20
36.780894
11
27.413838
21
36.589051
0
LINE
8
Layer 1
10
27.413838
20
36.589051
11
27.413838
21
36.589050
0
LINE
8
Layer 1
10
29.047818
20
35.133690
11
31.025788
21
33.440180
0
LINE
8
Layer 1
10
31.025788
20
33.440180
11
30.807483
21
33.407104
0
LINE
8
Layer 1
10
30.807483
20
33.407104
11
26.037863
21
32.844804
0
LINE
8
Layer 1
10
26.037863
20
32.844804
11
25.091877
21
32.699268
0
LINE
8
Layer 1
10
25.091877
20
32.699268
11
26.176787
21
35.186618
0
LINE
8
Layer 1
10
26.176787
20
35.186618
11
28.220907
21
35.312309
0
LINE
8
Layer 1
10
28.220907
20
35.312309
11
28.716227
21
35.294943
0
LINE
8
Layer 1
10
28.716227
20
35.294943
11
29.047818
21
35.133696
0
LINE
8
Layer 1
10
29.047818
20
35.133696
11
29.047818
21
35.133690
0
LINE
8
Layer 1
10
30.661948
20
35.160151
11
31.654241
21
34.836002
0
LINE
8
Layer 1
10
31.654241
20
34.836002
11
32.650670
21
34.159590
0
LINE
8
Layer 1
10
32.650670
20
34.159590
11
33.056681
21
33.632022
0
LINE
8
Layer 1
10
33.056681
20
33.632022
11
32.434844
21
33.565869
0
LINE
8
Layer 1
10
32.434844
20
33.565869
11
31.832853
21
33.519562
0
LINE
8
Layer 1
10
31.832853
20
33.519562
11
30.853790
21
34.366319
0
LINE
8
Layer 1
10
30.853790
20
34.366319
11
29.841650
21
35.239537
0
LINE
8
Layer 1
10
29.841650
20
35.239537
11
30.661946
21
35.160154
0
LINE
8
Layer 1
10
30.661946
20
35.160154
11
30.661948
21
35.160151
0
LINE
8
Layer 1
10
25.535098
20
35.166766
11
25.277102
21
34.650773
0
LINE
8
Layer 1
10
25.277102
20
34.650773
11
24.470037
21
32.705873
0
LINE
8
Layer 1
10
24.470037
20
32.705873
11
24.353443
21
32.519818
0
LINE
8
Layer 1
10
24.353443
20
32.519818
11
24.033428
21
32.388339
0
LINE
8
Layer 1
10
24.033428
20
32.388339
11
23.031418
21
32.002895
0
LINE
8
Layer 1
10
23.031418
20
32.002895
11
22.323377
21
31.567216
0
LINE
8
Layer 1
10
22.323377
20
31.567216
11
21.903101
21
31.075721
0
LINE
8
Layer 1
10
21.903101
20
31.075721
11
21.764388
21
30.522829
0
LINE
8
Layer 1
10
21.764388
20
30.522829
11
21.830541
21
30.000221
0
LINE
8
Layer 1
10
21.830541
20
30.000221
11
22.809604
21
28.697011
0
LINE
8
Layer 1
10
22.809604
20
28.697011
11
23.100677
21
28.379477
0
LINE
8
Layer 1
10
23.100677
20
28.379477
11
23.001448
21
28.134711
0
LINE
8
Layer 1
10
23.001448
20
28.134711
11
22.842681
21
27.870099
0
LINE
8
Layer 1
10
22.842681
20
27.870099
11
22.591300
21
28.194248
0
LINE
8
Layer 1
10
22.591300
20
28.194248
11
19.243960
21
33.731248
0
LINE
8
Layer 1
10
19.243960
20
33.731248
11
18.655199
21
34.796308
0
LINE
8
Layer 1
10
18.655199
20
34.796308
11
21.420389
21
34.895538
0
LINE
8
Layer 1
10
21.420389
20
34.895538
11
21.671769
21
33.519558
0
LINE
8
Layer 1
10
21.671769
20
33.519558
11
21.929765
21
31.978198
0
LINE
8
Layer 1
10
21.929765
20
31.978198
11
21.992611
21
31.807854
0
LINE
8
Layer 1
10
21.992611
20
31.807854
11
22.234068
21
31.845892
0
LINE
8
Layer 1
10
22.234068
20
31.845892
11
22.464777
21
31.938506
0
LINE
8
Layer 1
10
22.464777
20
31.938506
11
22.472219
21
32.150195
0
LINE
8
Layer 1
10
22.472219
20
32.150195
11
22.055456
21
34.816155
0
LINE
8
Layer 1
10
22.055456
20
34.816155
11
22.066205
21
34.970787
0
LINE
8
Layer 1
10
22.066205
20
34.970787
11
22.339913
21
35.001383
0
LINE
8
Layer 1
10
22.339913
20
35.001383
11
23.848202
21
35.087382
0
LINE
8
Layer 1
10
23.848202
20
35.087382
11
25.535103
21
35.166765
0
LINE
8
Layer 1
10
25.535103
20
35.166765
11
25.535098
21
35.166766
0
LINE
8
Layer 1
10
42.404098
20
33.956166
11
42.000565
21
33.473250
0
LINE
8
Layer 1
10
42.000565
20
33.473250
11
40.697355
21
32.017890
0
LINE
8
Layer 1
10
40.697355
20
32.017890
11
39.327985
21
30.496370
0
LINE
8
Layer 1
10
39.327985
20
30.496370
11
38.236465
21
29.305620
0
LINE
8
Layer 1
10
38.236465
20
29.305620
11
37.058945
21
28.035480
0
LINE
8
Layer 1
10
37.058945
20
28.035480
11
36.509876
21
27.459950
0
LINE
8
Layer 1
10
36.509876
20
27.459950
11
36.331263
21
27.764253
0
LINE
8
Layer 1
10
36.331263
20
27.764253
11
35.795425
21
28.624241
0
LINE
8
Layer 1
10
35.795425
20
28.624241
11
35.485333
21
29.182406
0
LINE
8
Layer 1
10
35.485333
20
29.182406
11
35.378662
21
29.755451
0
LINE
8
Layer 1
10
35.378662
20
29.755451
11
35.312509
21
30.330981
0
LINE
8
Layer 1
10
35.312509
20
30.330981
11
35.610197
21
31.091739
0
LINE
8
Layer 1
10
35.610197
20
31.091739
11
36.536338
21
33.314479
0
LINE
8
Layer 1
10
36.536338
20
33.314479
11
37.508786
21
33.466631
0
LINE
8
Layer 1
10
37.508786
20
33.466631
11
41.934416
21
33.976008
0
LINE
8
Layer 1
10
41.934416
20
33.976008
11
42.404102
21
33.956163
0
LINE
8
Layer 1
10
42.404102
20
33.956163
11
42.404098
21
33.956166
0
LINE
8
Layer 1
10
35.530808
20
32.421416
11
35.193428
21
31.534967
0
LINE
8
Layer 1
10
35.193428
20
31.534967
11
35.147121
21
31.396046
0
LINE
8
Layer 1
10
35.147121
20
31.396046
11
34.908971
21
33.208636
0
LINE
8
Layer 1
10
34.908971
20
33.208636
11
35.841727
21
33.261559
0
LINE
8
Layer 1
10
35.841727
20
33.261559
11
35.530808
21
32.421417
0
LINE
8
Layer 1
10
35.530808
20
32.421417
11
35.530808
21
32.421416
0
LINE
8
Layer 1
10
33.658678
20
32.897717
11
34.141594
21
32.150189
0
LINE
8
Layer 1
10
34.141594
20
32.150189
11
34.538511
21
31.025589
0
LINE
8
Layer 1
10
34.538511
20
31.025589
11
34.631125
21
30.377291
0
LINE
8
Layer 1
10
34.631125
20
30.377291
11
34.062210
21
31.038820
0
LINE
8
Layer 1
10
34.062210
20
31.038820
11
32.917760
21
32.335420
0
LINE
8
Layer 1
10
32.917760
20
32.335420
11
32.355460
21
32.970488
0
LINE
8
Layer 1
10
32.355460
20
32.970488
11
32.878068
21
33.063103
0
LINE
8
Layer 1
10
32.878068
20
33.063103
11
33.420522
21
33.135871
0
LINE
8
Layer 1
10
33.420522
20
33.135871
11
33.658672
21
32.897721
0
LINE
8
Layer 1
10
33.658672
20
32.897721
11
33.658678
21
32.897717
0
LINE
8
Layer 1
10
34.333438
20
33.036638
11
34.267285
21
32.977101
0
LINE
8
Layer 1
10
34.267285
20
32.977101
11
34.201132
21
33.082946
0
LINE
8
Layer 1
10
34.201132
20
33.082946
11
34.267285
21
33.142483
0
LINE
8
Layer 1
10
34.267285
20
33.142483
11
34.333438
21
33.036638
0
LINE
8
Layer 1
10
34.333438
20
33.036638
11
34.333438
21
33.036638
0
LINE
8
Layer 1
10
32.044548
20
32.461108
11
34.426048
21
29.722378
0
LINE
8
Layer 1
10
34.426048
20
29.722378
11
34.803120
21
29.246077
0
LINE
8
Layer 1
10
34.803120
20
29.246077
11
34.842812
21
28.200857
0
LINE
8
Layer 1
10
34.842812
20
28.200857
11
34.803120
21
26.692567
0
LINE
8
Layer 1
10
34.803120
20
26.692567
11
34.723737
21
26.222881
0
LINE
8
Layer 1
10
34.723737
20
26.222881
11
33.685137
21
25.706888
0
LINE
8
Layer 1
10
33.685137
20
25.706888
11
31.885777
21
24.754286
0
LINE
8
Layer 1
10
31.885777
20
24.754286
11
29.755657
21
23.325386
0
LINE
8
Layer 1
10
29.755657
20
23.325386
11
29.434814
21
23.426269
0
LINE
8
Layer 1
10
29.434814
20
23.426269
11
28.359827
21
24.271372
0
LINE
8
Layer 1
10
28.359827
20
24.271372
11
25.454889
21
26.835625
0
LINE
8
Layer 1
10
25.454889
20
26.835625
11
23.815127
21
28.511772
0
LINE
8
Layer 1
10
23.815127
20
28.511772
11
24.106200
21
29.543762
0
LINE
8
Layer 1
10
24.106200
20
29.543762
11
24.807421
21
31.925262
0
LINE
8
Layer 1
10
24.807421
20
31.925262
11
24.926496
21
32.044337
0
LINE
8
Layer 1
10
24.926496
20
32.044337
11
27.427076
21
32.487561
0
LINE
8
Layer 1
10
27.427076
20
32.487561
11
31.449176
21
32.937401
0
LINE
8
Layer 1
10
31.449176
20
32.937401
11
32.044552
21
32.461100
0
LINE
8
Layer 1
10
32.044552
20
32.461100
11
32.044548
21
32.461108
0
LINE
8
Layer 1
10
24.178968
20
31.706965
11
23.940818
21
30.893284
0
LINE
8
Layer 1
10
23.940818
20
30.893284
11
23.345442
21
29.021154
0
LINE
8
Layer 1
10
23.345442
20
29.021154
11
22.425917
21
30.132524
0
LINE
8
Layer 1
10
22.425917
20
30.132524
11
22.293611
21
30.542672
0
LINE
8
Layer 1
10
22.293611
20
30.542672
11
22.649183
21
31.099183
0
LINE
8
Layer 1
10
22.649183
20
31.099183
11
23.669591
21
31.660652
0
LINE
8
Layer 1
10
23.669591
20
31.660652
11
24.120258
21
31.812804
0
LINE
8
Layer 1
10
24.120258
20
31.812804
11
24.178968
21
31.706959
0
LINE
8
Layer 1
10
24.178968
20
31.706959
11
24.178968
21
31.706965
0
LINE
8
Layer 1
10
35.795368
20
27.579025
11
36.013673
21
27.063032
0
LINE
8
Layer 1
10
36.013673
20
27.063032
11
35.378605
21
26.593346
0
LINE
8
Layer 1
10
35.378605
20
26.593346
11
35.398451
21
26.910880
0
LINE
8
Layer 1
10
35.398451
20
26.910880
11
35.451373
21
27.638562
0
LINE
8
Layer 1
10
35.451373
20
27.638562
11
35.491065
21
28.048710
0
LINE
8
Layer 1
10
35.491065
20
28.048710
11
35.795368
21
27.579024
0
LINE
8
Layer 1
10
35.795368
20
27.579024
11
35.795368
21
27.579025
0
LINE
8
Layer 1
10
26.196578
20
25.369515
11
27.943018
21
23.881075
0
LINE
8
Layer 1
10
27.943018
20
23.881075
11
28.961768
21
23.047548
0
LINE
8
Layer 1
10
28.961768
20
23.047548
11
29.127150
21
22.908627
0
LINE
8
Layer 1
10
29.127150
20
22.908627
11
28.902230
21
22.743245
0
LINE
8
Layer 1
10
28.902230
20
22.743245
11
26.626570
21
21.519415
0
LINE
8
Layer 1
10
26.626570
20
21.519415
11
23.735690
21
26.262575
0
LINE
8
Layer 1
10
23.735690
20
26.262575
11
23.285023
21
27.144062
0
LINE
8
Layer 1
10
23.285023
20
27.144062
11
23.385080
21
27.678245
0
LINE
8
Layer 1
10
23.385080
20
27.678245
11
23.490925
21
27.929626
0
LINE
8
Layer 1
10
23.490925
20
27.929626
11
24.397220
21
27.043177
0
LINE
8
Layer 1
10
24.397220
20
27.043177
11
26.196580
21
25.369507
0
LINE
8
Layer 1
10
26.196580
20
25.369507
11
26.196578
21
25.369515
0
LINE
8
Layer 1
10
36.582578
20
25.997968
11
37.721233
21
23.467620
0
LINE
8
Layer 1
10
37.721233
20
23.467620
11
39.063308
21
20.044208
0
LINE
8
Layer 1
10
39.063308
20
20.044208
11
39.691761
21
18.377158
0
LINE
8
Layer 1
10
39.691761
20
18.377158
11
39.751299
21
18.059624
0
LINE
8
Layer 1
10
39.751299
20
18.059624
11
39.116231
21
18.317620
0
LINE
8
Layer 1
10
39.116231
20
18.317620
11
37.548411
21
18.985764
0
LINE
8
Layer 1
10
37.548411
20
18.985764
11
34.663321
21
20.282362
0
LINE
8
Layer 1
10
34.663321
20
20.282362
11
33.142631
21
21.102654
0
LINE
8
Layer 1
10
33.142631
20
21.102654
11
33.420473
21
21.645108
0
LINE
8
Layer 1
10
33.420473
20
21.645108
11
34.445841
21
23.777711
0
LINE
8
Layer 1
10
34.445841
20
23.777711
11
35.153683
21
25.667208
0
LINE
8
Layer 1
10
35.153683
20
25.667208
11
35.709367
21
26.169970
0
LINE
8
Layer 1
10
35.709367
20
26.169970
11
36.265051
21
26.520580
0
LINE
8
Layer 1
10
36.265051
20
26.520580
11
36.582585
21
25.997972
0
LINE
8
Layer 1
10
36.582585
20
25.997972
11
36.582578
21
25.997968
0
LINE
8
Layer 1
10
23.285878
20
25.951661
11
23.360300
21
25.746587
0
LINE
8
Layer 1
10
23.360300
20
25.746587
11
23.047728
21
25.898739
0
LINE
8
Layer 1
10
23.047728
20
25.898739
11
22.810405
21
26.069083
0
LINE
8
Layer 1
10
22.810405
20
26.069083
11
22.836039
21
26.269195
0
LINE
8
Layer 1
10
22.836039
20
26.269195
11
22.908807
21
26.480884
0
LINE
8
Layer 1
10
22.908807
20
26.480884
11
23.027882
21
26.322117
0
LINE
8
Layer 1
10
23.027882
20
26.322117
11
23.285878
21
25.951661
0
LINE
8
Layer 1
10
23.285878
20
25.951661
11
23.285878
21
25.951661
0
LINE
8
Layer 1
10
24.073098
20
24.562451
11
25.587998
21
22.101561
0
LINE
8
Layer 1
10
25.587998
20
22.101561
11
25.984088
21
21.403649
0
LINE
8
Layer 1
10
25.984088
20
21.403649
11
25.978300
21
21.201882
0
LINE
8
Layer 1
10
25.978300
20
21.201882
11
21.519590
21
19.065142
0
LINE
8
Layer 1
10
21.519590
20
19.065142
11
20.313951
21
18.521035
0
LINE
8
Layer 1
10
20.313951
20
18.521035
11
20.157664
21
18.495814
0
LINE
8
Layer 1
10
20.157664
20
18.495814
11
20.150220
21
18.582226
0
LINE
8
Layer 1
10
20.150220
20
18.582226
11
21.288050
21
22.359556
0
LINE
8
Layer 1
10
21.288050
20
22.359556
11
22.465570
21
25.481976
0
LINE
8
Layer 1
10
22.465570
20
25.481976
11
23.206482
21
25.177673
0
LINE
8
Layer 1
10
23.206482
20
25.177673
11
24.073085
21
24.562451
0
LINE
8
Layer 1
10
24.073085
20
24.562451
11
24.073098
21
24.562451
0
LINE
8
Layer 1
10
34.531898
20
25.415823
11
33.440378
21
22.928473
0
LINE
8
Layer 1
10
33.440378
20
22.928473
11
32.560544
21
21.347423
0
LINE
8
Layer 1
10
32.560544
20
21.347423
11
30.496574
21
22.630793
0
LINE
8
Layer 1
10
30.496574
20
22.630793
11
30.112887
21
22.908635
0
LINE
8
Layer 1
10
30.112887
20
22.908635
11
30.549496
21
23.239400
0
LINE
8
Layer 1
10
30.549496
20
23.239400
11
33.281606
21
24.866760
0
LINE
8
Layer 1
10
33.281606
20
24.866760
11
34.531896
21
25.415829
0
LINE
8
Layer 1
10
34.531896
20
25.415829
11
34.531898
21
25.415823
0
LINE
8
Layer 1
10
30.179038
20
22.167713
11
31.455788
21
21.334186
0
LINE
8
Layer 1
10
31.455788
20
21.334186
11
32.243008
21
20.838039
0
LINE
8
Layer 1
10
32.243008
20
20.838039
11
32.004858
21
20.295585
0
LINE
8
Layer 1
10
32.004858
20
20.295585
11
31.094430
21
18.374670
0
LINE
8
Layer 1
10
31.094430
20
18.374670
11
30.714878
21
16.299945
0
LINE
8
Layer 1
10
30.714878
20
16.299945
11
30.622264
21
15.645031
0
LINE
8
Layer 1
10
30.622264
20
15.645031
11
27.757844
21
19.647281
0
LINE
8
Layer 1
10
27.757844
20
19.647281
11
26.930933
21
20.996801
0
LINE
8
Layer 1
10
26.930933
20
20.996801
11
27.771075
21
21.479717
0
LINE
8
Layer 1
10
27.771075
20
21.479717
11
29.107365
21
22.220629
0
LINE
8
Layer 1
10
29.107365
20
22.220629
11
29.616742
21
22.551394
0
LINE
8
Layer 1
10
29.616742
20
22.551394
11
30.179042
21
22.167707
0
LINE
8
Layer 1
10
30.179042
20
22.167707
11
30.179038
21
22.167713
 0 
ENDSEC
 0 
EOF