999
"DXF R12 Output" (www.mydxf.blogspot.com)
 0 
SECTION
 2 
HEADER
 9 
$ACADVER
 1 
AC1009
 9 
$EXTMIN
 10 
 0 
 20 
 0 
 9 
$EXTMAX
 10 
 8.5 
 20 
 11 
 0 
ENDSEC
 0 
SECTION
 2 
ENTITIES
0
LINE
8
Layer 1
10
29.887900
20
42.860400
11
29.868054
21
29.603400
0
LINE
8
Layer 1
10
29.868054
20
29.603400
11
29.094065
21
29.603400
0
LINE
8
Layer 1
10
29.094065
20
29.603400
11
28.273769
21
29.557093
0
LINE
8
Layer 1
10
28.273769
20
29.557093
11
30.040049
21
29.510786
0
LINE
8
Layer 1
10
30.040049
20
29.510786
11
31.403625
21
29.532286
0
LINE
8
Layer 1
10
31.403625
20
29.532286
11
31.477325
21
29.551718
0
LINE
8
Layer 1
10
31.477325
20
29.551718
11
31.224189
21
29.583554
0
LINE
8
Layer 1
10
31.224189
20
29.583554
11
30.317894
21
29.623246
0
LINE
8
Layer 1
10
30.317894
20
29.623246
11
30.078090
21
29.637303
0
LINE
8
Layer 1
10
30.078090
20
29.637303
11
30.006975
21
29.834935
0
LINE
8
Layer 1
10
30.006975
20
29.834935
11
29.967283
21
43.058935
0
LINE
8
Layer 1
10
29.967283
20
43.058935
11
29.934207
21
56.084435
0
LINE
8
Layer 1
10
29.934207
20
56.084435
11
29.887900
21
42.860435
0
LINE
8
Layer 1
10
29.887900
20
42.860435
11
29.887900
21
42.860400
0
LINE
8
Layer 1
10
45.810900
20
54.232100
11
44.620150
21
52.366590
0
LINE
8
Layer 1
10
44.620150
20
52.366590
11
43.486455
21
49.763474
0
LINE
8
Layer 1
10
43.486455
20
49.763474
11
42.695100
21
46.922210
0
LINE
8
Layer 1
10
42.695100
20
46.922210
11
42.516487
21
46.042376
0
LINE
8
Layer 1
10
42.516487
20
46.042376
11
42.245260
21
46.273911
0
LINE
8
Layer 1
10
42.245260
20
46.273911
11
40.882819
21
47.349929
0
LINE
8
Layer 1
10
40.882819
20
47.349929
11
39.457741
21
48.283306
0
LINE
8
Layer 1
10
39.457741
20
48.283306
11
37.974368
21
49.070321
0
LINE
8
Layer 1
10
37.974368
20
49.070321
11
36.437040
21
49.707251
0
LINE
8
Layer 1
10
36.437040
20
49.707251
11
35.340556
21
50.032227
0
LINE
8
Layer 1
10
35.340556
20
50.032227
11
34.789830
21
50.004939
0
LINE
8
Layer 1
10
34.789830
20
50.004939
11
34.523565
21
49.728751
0
LINE
8
Layer 1
10
34.523565
20
49.728751
11
34.465681
21
49.006030
0
LINE
8
Layer 1
10
34.465681
20
49.006030
11
34.560259
21
47.592736
0
LINE
8
Layer 1
10
34.560259
20
47.592736
11
34.825387
21
46.104399
0
LINE
8
Layer 1
10
34.825387
20
46.104399
11
35.233157
21
44.664434
0
LINE
8
Layer 1
10
35.233157
20
44.664434
11
35.755661
21
43.396260
0
LINE
8
Layer 1
10
35.755661
20
43.396260
11
36.411775
21
42.273961
0
LINE
8
Layer 1
10
36.411775
20
42.273961
11
37.186733
21
41.278334
0
LINE
8
Layer 1
10
37.186733
20
41.278334
11
38.069137
21
40.416356
0
LINE
8
Layer 1
10
38.069137
20
40.416356
11
39.047593
21
39.695005
0
LINE
8
Layer 1
10
39.047593
20
39.695005
11
40.110705
21
39.121257
0
LINE
8
Layer 1
10
40.110705
20
39.121257
11
41.247076
21
38.702091
0
LINE
8
Layer 1
10
41.247076
20
38.702091
11
42.445310
21
38.444482
0
LINE
8
Layer 1
10
42.445310
20
38.444482
11
43.694011
21
38.355410
0
LINE
8
Layer 1
10
43.694011
20
38.355410
11
45.182451
21
38.534023
0
LINE
8
Layer 1
10
45.182451
20
38.534023
11
45.957266
21
38.708501
0
LINE
8
Layer 1
10
45.957266
20
38.708501
11
46.737041
21
38.540638
0
LINE
8
Layer 1
10
46.737041
20
38.540638
11
47.402704
21
38.377737
0
LINE
8
Layer 1
10
47.402704
20
38.377737
11
48.390861
21
38.348795
0
LINE
8
Layer 1
10
48.390861
20
38.348795
11
50.497832
21
38.567927
0
LINE
8
Layer 1
10
50.497832
20
38.567927
11
52.465881
21
39.288166
0
LINE
8
Layer 1
10
52.465881
20
39.288166
11
53.690535
21
40.006753
0
LINE
8
Layer 1
10
53.690535
20
40.006753
11
54.781231
21
40.948606
0
LINE
8
Layer 1
10
54.781231
20
40.948606
11
55.980666
21
42.418028
0
LINE
8
Layer 1
10
55.980666
20
42.418028
11
56.894815
21
44.155368
0
LINE
8
Layer 1
10
56.894815
20
44.155368
11
57.516237
21
46.143261
0
LINE
8
Layer 1
10
57.516237
20
46.143261
11
57.837491
21
48.364346
0
LINE
8
Layer 1
10
57.837491
20
48.364346
11
57.811030
21
49.654326
0
LINE
8
Layer 1
10
57.811030
20
49.654326
11
57.634071
21
49.938784
0
LINE
8
Layer 1
10
57.634071
20
49.938784
11
57.318191
21
50.039667
0
LINE
8
Layer 1
10
57.318191
20
50.039667
11
55.833060
21
49.700633
0
LINE
8
Layer 1
10
55.833060
20
49.700633
11
54.135516
21
49.089752
0
LINE
8
Layer 1
10
54.135516
20
49.089752
11
52.572550
21
48.336229
0
LINE
8
Layer 1
10
52.572550
20
48.336229
11
51.139821
21
47.436343
0
LINE
8
Layer 1
10
51.139821
20
47.436343
11
49.832990
21
46.386373
0
LINE
8
Layer 1
10
49.832990
20
46.386373
11
49.369920
21
45.998552
0
LINE
8
Layer 1
10
49.369920
20
45.998552
11
49.283921
21
46.062224
0
LINE
8
Layer 1
10
49.283921
20
46.062224
11
48.715006
21
49.052334
0
LINE
8
Layer 1
10
48.715006
20
49.052334
11
47.869074
21
51.521489
0
LINE
8
Layer 1
10
47.869074
20
51.521489
11
46.829646
21
53.623504
0
LINE
8
Layer 1
10
46.829646
20
53.623504
11
46.267346
21
54.285033
0
LINE
8
Layer 1
10
46.267346
20
54.285033
11
46.016792
21
54.365244
0
LINE
8
Layer 1
10
46.016792
20
54.365244
11
45.810891
21
54.232111
0
LINE
8
Layer 1
10
45.810891
20
54.232111
11
45.810900
21
54.232100
0
LINE
8
Layer 1
10
46.465814
20
51.949820
11
47.133029
21
50.413727
0
LINE
8
Layer 1
10
47.133029
20
50.413727
11
47.660702
21
48.780269
0
LINE
8
Layer 1
10
47.660702
20
48.780269
11
48.025886
21
47.135648
0
LINE
8
Layer 1
10
48.025886
20
47.135648
11
48.205634
21
45.566070
0
LINE
8
Layer 1
10
48.205634
20
45.566070
11
48.245326
21
44.725928
0
LINE
8
Layer 1
10
48.245326
20
44.725928
11
47.987330
21
44.375318
0
LINE
8
Layer 1
10
47.987330
20
44.375318
11
46.340120
21
41.854888
0
LINE
8
Layer 1
10
46.340120
20
41.854888
11
45.929972
21
41.206590
0
LINE
8
Layer 1
10
45.929972
20
41.206590
11
45.632284
21
41.689506
0
LINE
8
Layer 1
10
45.632284
20
41.689506
11
44.950909
21
42.833956
0
LINE
8
Layer 1
10
44.950909
20
42.833956
11
44.071075
21
44.223166
0
LINE
8
Layer 1
10
44.071075
20
44.223166
11
43.574928
21
44.944233
0
LINE
8
Layer 1
10
43.574928
20
44.944233
11
43.621235
21
45.579301
0
LINE
8
Layer 1
10
43.621235
20
45.579301
11
43.988383
21
47.701985
0
LINE
8
Layer 1
10
43.988383
20
47.701985
11
44.712755
21
49.978471
0
LINE
8
Layer 1
10
44.712755
20
49.978471
11
46.082125
21
52.657661
0
LINE
8
Layer 1
10
46.082125
20
52.657661
11
46.465812
21
51.949825
0
LINE
8
Layer 1
10
46.465812
20
51.949825
11
46.465814
21
51.949820
0
LINE
8
Layer 1
10
36.549494
20
48.476790
11
39.242744
21
47.136366
0
LINE
8
Layer 1
10
39.242744
20
47.136366
11
41.663114
21
45.255140
0
LINE
8
Layer 1
10
41.663114
20
45.255140
11
42.190683
21
44.730878
0
LINE
8
Layer 1
10
42.190683
20
44.730878
11
42.271721
21
44.395152
0
LINE
8
Layer 1
10
42.271721
20
44.395152
11
42.542948
21
42.370872
0
LINE
8
Layer 1
10
42.542948
20
42.370872
11
43.081267
21
41.000680
0
LINE
8
Layer 1
10
43.081267
20
41.000680
11
43.952008
21
39.843832
0
LINE
8
Layer 1
10
43.952008
20
39.843832
11
44.348925
21
39.427069
0
LINE
8
Layer 1
10
44.348925
20
39.427069
11
43.819702
21
39.427069
0
LINE
8
Layer 1
10
43.819702
20
39.427069
11
42.409611
21
39.573742
0
LINE
8
Layer 1
10
42.409611
20
39.573742
11
40.998279
21
39.990196
0
LINE
8
Layer 1
10
40.998279
20
39.990196
11
39.676254
21
40.641078
0
LINE
8
Layer 1
10
39.676254
20
40.641078
11
38.534082
21
41.491039
0
LINE
8
Layer 1
10
38.534082
20
41.491039
11
37.182082
21
43.121706
0
LINE
8
Layer 1
10
37.182082
20
43.121706
11
36.251802
21
45.030219
0
LINE
8
Layer 1
10
36.251802
20
45.030219
11
35.789558
21
46.872578
0
LINE
8
Layer 1
10
35.789558
20
46.872578
11
35.590273
21
48.476789
0
LINE
8
Layer 1
10
35.590273
20
48.476789
11
35.593167
21
48.707497
0
LINE
8
Layer 1
10
35.593167
20
48.707497
11
35.677926
21
48.784400
0
LINE
8
Layer 1
10
35.677926
20
48.784400
11
36.549490
21
48.476789
0
LINE
8
Layer 1
10
36.549490
20
48.476789
11
36.549494
21
48.476790
0
LINE
8
Layer 1
10
55.833094
20
48.437098
11
52.193859
21
45.337007
0
LINE
8
Layer 1
10
52.193859
20
45.337007
11
49.283954
21
42.390718
0
LINE
8
Layer 1
10
49.283954
20
42.390718
11
48.871325
21
41.940879
0
LINE
8
Layer 1
10
48.871325
20
41.940879
11
48.880421
21
42.066569
0
LINE
8
Layer 1
10
48.880421
20
42.066569
11
49.323645
21
43.945309
0
LINE
8
Layer 1
10
49.323645
20
43.945309
11
49.369952
21
44.454686
0
LINE
8
Layer 1
10
49.369952
20
44.454686
11
50.071173
21
45.136061
0
LINE
8
Layer 1
10
50.071173
20
45.136061
11
52.109507
21
46.805596
0
LINE
8
Layer 1
10
52.109507
20
46.805596
11
54.311573
21
47.993871
0
LINE
8
Layer 1
10
54.311573
20
47.993871
11
56.031553
21
48.615708
0
LINE
8
Layer 1
10
56.031553
20
48.615708
11
55.833094
21
48.437095
0
LINE
8
Layer 1
10
55.833094
20
48.437095
11
55.833094
21
48.437098
0
LINE
8
Layer 1
10
56.653390
20
47.418348
11
56.248204
21
45.577645
0
LINE
8
Layer 1
10
56.248204
20
45.577645
11
55.634640
21
44.024708
0
LINE
8
Layer 1
10
55.634640
20
44.024708
11
54.898689
21
42.768631
0
LINE
8
Layer 1
10
54.898689
20
42.768631
11
53.974200
21
41.696128
0
LINE
8
Layer 1
10
53.974200
20
41.696128
11
52.518840
21
40.545068
0
LINE
8
Layer 1
10
52.518840
20
40.545068
11
50.702114
21
39.765291
0
LINE
8
Layer 1
10
50.702114
20
39.765291
11
48.622430
21
39.446928
0
LINE
8
Layer 1
10
48.622430
20
39.446928
11
47.729366
21
39.473390
0
LINE
8
Layer 1
10
47.729366
20
39.473390
11
48.199052
21
39.843846
0
LINE
8
Layer 1
10
48.199052
20
39.843846
11
50.018252
21
41.623356
0
LINE
8
Layer 1
10
50.018252
20
41.623356
11
54.377732
21
45.843916
0
LINE
8
Layer 1
10
54.377732
20
45.843916
11
56.633542
21
47.630046
0
LINE
8
Layer 1
10
56.633542
20
47.630046
11
56.653388
21
47.418357
0
LINE
8
Layer 1
10
56.653388
20
47.418357
11
56.653390
21
47.418348
0
LINE
8
Layer 1
10
43.859390
20
42.523038
11
44.606918
21
41.226438
0
LINE
8
Layer 1
10
44.606918
20
41.226438
11
45.017066
21
40.432603
0
LINE
8
Layer 1
10
45.017066
20
40.432603
11
44.584591
21
40.789829
0
LINE
8
Layer 1
10
44.584591
20
40.789829
11
44.018157
21
41.643203
0
LINE
8
Layer 1
10
44.018157
20
41.643203
11
43.522010
21
43.065493
0
LINE
8
Layer 1
10
43.522010
20
43.065493
11
43.859390
21
42.523039
0
LINE
8
Layer 1
10
43.859390
20
42.523039
11
43.859390
21
42.523038
0
LINE
8
Layer 1
10
47.239800
20
41.034598
11
46.809806
21
40.419376
0
LINE
8
Layer 1
10
46.809806
20
40.419376
11
46.981804
21
40.783217
0
LINE
8
Layer 1
10
46.981804
20
40.783217
11
47.279492
21
41.266133
0
LINE
8
Layer 1
10
47.279492
20
41.266133
11
47.398567
21
41.398439
0
LINE
8
Layer 1
10
47.398567
20
41.398439
11
47.239800
21
41.034598
0
LINE
8
Layer 1
10
47.239800
20
41.034598
11
47.239800
21
41.034598
0
LINE
8
Layer 1
10
12.291200
20
53.358800
11
11.519899
21
51.913565
0
LINE
8
Layer 1
10
11.519899
20
51.913565
11
10.863951
21
50.335611
0
LINE
8
Layer 1
10
10.863951
20
50.335611
11
10.354368
21
48.713004
0
LINE
8
Layer 1
10
10.354368
20
48.713004
11
10.022160
21
47.133810
0
LINE
8
Layer 1
10
10.022160
20
47.133810
11
9.883239
21
46.247361
0
LINE
8
Layer 1
10
9.883239
20
46.247361
11
9.771606
21
46.194439
0
LINE
8
Layer 1
10
9.771606
20
46.194439
11
9.307709
21
46.617817
0
LINE
8
Layer 1
10
9.307709
20
46.617817
11
8.208436
21
47.569798
0
LINE
8
Layer 1
10
8.208436
20
47.569798
11
7.027916
21
48.369214
0
LINE
8
Layer 1
10
7.027916
20
48.369214
11
5.697311
21
49.056997
0
LINE
8
Layer 1
10
5.697311
20
49.056997
11
4.147779
21
49.674077
0
LINE
8
Layer 1
10
4.147779
20
49.674077
11
2.532821
21
50.127224
0
LINE
8
Layer 1
10
2.532821
20
50.127224
11
1.468589
21
50.242992
0
LINE
8
Layer 1
10
1.468589
20
50.242992
11
1.208112
21
49.922150
0
LINE
8
Layer 1
10
1.208112
20
49.922150
11
1.051826
21
48.966242
0
LINE
8
Layer 1
10
1.051826
20
48.966242
11
1.103094
21
46.760871
0
LINE
8
Layer 1
10
1.103094
20
46.760871
11
1.600895
21
44.461232
0
LINE
8
Layer 1
10
1.600895
20
44.461232
11
2.388425
21
42.636654
0
LINE
8
Layer 1
10
2.388425
20
42.636654
11
3.500310
21
41.027900
0
LINE
8
Layer 1
10
3.500310
20
41.027900
11
4.891278
21
39.687064
0
LINE
8
Layer 1
10
4.891278
20
39.687064
11
6.516055
21
38.666242
0
LINE
8
Layer 1
10
6.516055
20
38.666242
11
8.411336
21
37.984040
0
LINE
8
Layer 1
10
8.411336
20
37.984040
11
10.465385
21
37.773178
0
LINE
8
Layer 1
10
10.465385
20
37.773178
11
11.827310
21
37.843465
0
LINE
8
Layer 1
10
11.827310
20
37.843465
11
12.906425
21
38.077481
0
LINE
8
Layer 1
10
12.906425
20
38.077481
11
13.415802
21
38.236248
0
LINE
8
Layer 1
10
13.415802
20
38.236248
11
13.905333
21
38.077481
0
LINE
8
Layer 1
10
13.905333
20
38.077481
11
14.986521
21
37.841708
0
LINE
8
Layer 1
10
14.986521
20
37.841708
11
16.238878
21
37.769043
0
LINE
8
Layer 1
10
16.238878
20
37.769043
11
17.533407
21
37.858866
0
LINE
8
Layer 1
10
17.533407
20
37.858866
11
18.741113
21
38.110557
0
LINE
8
Layer 1
10
18.741113
20
38.110557
11
20.346045
21
38.760819
0
LINE
8
Layer 1
10
20.346045
20
38.760819
11
21.796550
21
39.710630
0
LINE
8
Layer 1
10
21.796550
20
39.710630
11
23.077125
21
40.946966
0
LINE
8
Layer 1
10
23.077125
20
40.946966
11
24.172263
21
42.456807
0
LINE
8
Layer 1
10
24.172263
20
42.456807
11
24.508816
21
43.038953
0
LINE
8
Layer 1
10
24.508816
20
43.038953
11
24.483182
21
43.105105
0
LINE
8
Layer 1
10
24.483182
20
43.105105
11
24.218570
21
43.230796
0
LINE
8
Layer 1
10
24.218570
20
43.230796
11
24.020111
21
43.402794
0
LINE
8
Layer 1
10
24.020111
20
43.402794
11
23.907651
21
43.217566
0
LINE
8
Layer 1
10
23.907651
20
43.217566
11
22.493633
21
41.277633
0
LINE
8
Layer 1
10
22.493633
20
41.277633
11
21.010151
21
39.923156
0
LINE
8
Layer 1
10
21.010151
20
39.923156
11
19.877904
21
39.273927
0
LINE
8
Layer 1
10
19.877904
20
39.273927
11
18.739455
21
38.807652
0
LINE
8
Layer 1
10
18.739455
20
38.807652
11
17.603486
21
38.528674
0
LINE
8
Layer 1
10
17.603486
20
38.528674
11
16.478681
21
38.441336
0
LINE
8
Layer 1
10
16.478681
20
38.441336
11
15.777460
21
38.441336
0
LINE
8
Layer 1
10
15.777460
20
38.441336
11
16.505142
21
38.633179
0
LINE
8
Layer 1
10
16.505142
20
38.633179
11
19.123142
21
39.570899
0
LINE
8
Layer 1
10
19.123142
20
39.570899
11
20.244847
21
40.194185
0
LINE
8
Layer 1
10
20.244847
20
40.194185
11
21.235072
21
40.915459
0
LINE
8
Layer 1
10
21.235072
20
40.915459
11
22.477919
21
42.215366
0
LINE
8
Layer 1
10
22.477919
20
42.215366
11
23.457812
21
43.674039
0
LINE
8
Layer 1
10
23.457812
20
43.674039
11
23.670328
21
44.158610
0
LINE
8
Layer 1
10
23.670328
20
44.158610
11
23.550426
21
44.256186
0
LINE
8
Layer 1
10
23.550426
20
44.256186
11
23.371813
21
44.355415
0
LINE
8
Layer 1
10
23.371813
20
44.355415
11
23.213046
21
44.348800
0
LINE
8
Layer 1
10
23.213046
20
44.348800
11
22.915358
21
43.932037
0
LINE
8
Layer 1
10
22.915358
20
43.932037
11
21.643567
21
42.264156
0
LINE
8
Layer 1
10
21.643567
20
42.264156
11
20.143548
21
40.889007
0
LINE
8
Layer 1
10
20.143548
20
40.889007
11
17.887738
21
39.724717
0
LINE
8
Layer 1
10
17.887738
20
39.724717
11
15.877516
21
39.177301
0
LINE
8
Layer 1
10
15.877516
20
39.177301
11
15.032723
21
39.032592
0
LINE
8
Layer 1
10
15.032723
20
39.032592
11
14.785168
21
39.076419
0
LINE
8
Layer 1
10
14.785168
20
39.076419
11
15.380544
21
39.579181
0
LINE
8
Layer 1
10
15.380544
20
39.579181
11
16.472068
21
40.676491
0
LINE
8
Layer 1
10
16.472068
20
40.676491
11
17.940664
21
42.622211
0
LINE
8
Layer 1
10
17.940664
20
42.622211
11
19.593660
21
44.797812
0
LINE
8
Layer 1
10
19.593660
20
44.797812
11
21.261544
21
46.611231
0
LINE
8
Layer 1
10
21.261544
20
46.611231
11
22.973249
21
48.167478
0
LINE
8
Layer 1
10
22.973249
20
48.167478
11
24.397194
21
49.158121
0
LINE
8
Layer 1
10
24.397194
20
49.158121
11
24.807342
21
49.429348
0
LINE
8
Layer 1
10
24.807342
20
49.429348
11
25.005801
21
49.700575
0
LINE
8
Layer 1
10
25.005801
20
49.700575
11
25.191856
21
49.976763
0
LINE
8
Layer 1
10
25.191856
20
49.976763
11
25.085185
21
50.163645
0
LINE
8
Layer 1
10
25.085185
20
50.163645
11
24.749458
21
50.267008
0
LINE
8
Layer 1
10
24.749458
20
50.267008
11
23.927505
21
50.137183
0
LINE
8
Layer 1
10
23.927505
20
50.137183
11
21.265676
21
49.300348
0
LINE
8
Layer 1
10
21.265676
20
49.300348
11
18.787425
21
48.007063
0
LINE
8
Layer 1
10
18.787425
20
48.007063
11
17.260120
21
46.786542
0
LINE
8
Layer 1
10
17.260120
20
46.786542
11
16.472075
21
45.863713
0
LINE
8
Layer 1
10
16.472075
20
45.863713
11
16.410056
21
43.883263
0
LINE
8
Layer 1
10
16.410056
20
43.883263
11
16.253770
21
43.019143
0
LINE
8
Layer 1
10
16.253770
20
43.019143
11
15.615395
21
41.304128
0
LINE
8
Layer 1
10
15.615395
20
41.304128
11
14.897640
21
40.134873
0
LINE
8
Layer 1
10
14.897640
20
40.134873
11
13.534890
21
39.096273
0
LINE
8
Layer 1
10
13.534890
20
39.096273
11
13.089184
21
39.829744
0
LINE
8
Layer 1
10
13.089184
20
39.829744
11
12.112600
21
41.987153
0
LINE
8
Layer 1
10
12.112600
20
41.987153
11
11.040920
21
44.262813
0
LINE
8
Layer 1
10
11.040920
20
44.262813
11
10.432313
21
45.460183
0
LINE
8
Layer 1
10
10.432313
20
45.460183
11
10.478620
21
45.962945
0
LINE
8
Layer 1
10
10.478620
20
45.962945
11
10.835845
21
48.071567
0
LINE
8
Layer 1
10
10.835845
20
48.071567
11
11.470914
21
50.170265
0
LINE
8
Layer 1
10
11.470914
20
50.170265
11
12.959354
21
53.239755
0
LINE
8
Layer 1
10
12.959354
20
53.239755
11
13.230581
21
53.689595
0
LINE
8
Layer 1
10
13.230581
20
53.689595
11
12.833664
21
54.040205
0
LINE
8
Layer 1
10
12.833664
20
54.040205
11
12.291210
21
53.358830
0
LINE
8
Layer 1
10
12.291210
20
53.358830
11
12.291200
21
53.358800
0
LINE
8
Layer 1
10
3.777320
20
49.111780
11
5.769349
21
48.295618
0
LINE
8
Layer 1
10
5.769349
20
48.295618
11
7.627420
21
47.186730
0
LINE
8
Layer 1
10
7.627420
20
47.186730
11
8.976940
21
46.015820
0
LINE
8
Layer 1
10
8.976940
20
46.015820
11
9.790621
21
45.228600
0
LINE
8
Layer 1
10
9.790621
20
45.228600
11
9.790621
21
44.580302
0
LINE
8
Layer 1
10
9.790621
20
44.580302
11
9.910523
21
43.332493
0
LINE
8
Layer 1
10
9.910523
20
43.332493
11
10.214000
21
42.099572
0
LINE
8
Layer 1
10
10.214000
20
42.099572
11
10.419074
21
41.510811
0
LINE
8
Layer 1
10
10.419074
20
41.510811
11
10.388582
21
41.475254
0
LINE
8
Layer 1
10
10.388582
20
41.475254
11
10.175136
21
41.702654
0
LINE
8
Layer 1
10
10.175136
20
41.702654
11
9.062944
21
43.105091
0
LINE
8
Layer 1
10
9.062944
20
43.105091
11
6.349019
21
46.280429
0
LINE
8
Layer 1
10
6.349019
20
46.280429
11
3.764094
21
48.681781
0
LINE
8
Layer 1
10
3.764094
20
48.681781
11
3.003336
21
49.263927
0
LINE
8
Layer 1
10
3.003336
20
49.263927
11
2.922402
21
49.330390
0
LINE
8
Layer 1
10
2.922402
20
49.330390
11
3.015740
21
49.329253
0
LINE
8
Layer 1
10
3.015740
20
49.329253
11
3.777325
21
49.111775
0
LINE
8
Layer 1
10
3.777325
20
49.111775
11
3.777320
21
49.111780
0
LINE
8
Layer 1
10
23.193220
20
49.197779
11
21.716150
21
47.959790
0
LINE
8
Layer 1
10
21.716150
20
47.959790
11
20.227916
21
46.487990
0
LINE
8
Layer 1
10
20.227916
20
46.487990
11
18.811625
21
44.871067
0
LINE
8
Layer 1
10
18.811625
20
44.871067
11
17.550380
21
43.197709
0
LINE
8
Layer 1
10
17.550380
20
43.197709
11
16.564702
21
41.828339
0
LINE
8
Layer 1
10
16.564702
20
41.828339
11
16.703623
21
42.304640
0
LINE
8
Layer 1
10
16.703623
20
42.304640
11
17.040176
21
43.642580
0
LINE
8
Layer 1
10
17.040176
20
43.642580
11
17.153463
21
45.010290
0
LINE
8
Layer 1
10
17.153463
20
45.010290
11
17.160078
21
45.857047
0
LINE
8
Layer 1
10
17.160078
20
45.857047
11
17.517304
21
46.201042
0
LINE
8
Layer 1
10
17.517304
20
46.201042
11
19.070244
21
47.402542
0
LINE
8
Layer 1
10
19.070244
20
47.402542
11
20.950644
21
48.470082
0
LINE
8
Layer 1
10
20.950644
20
48.470082
11
23.351994
21
49.343300
0
LINE
8
Layer 1
10
23.351994
20
49.343300
11
23.193227
21
49.197764
0
LINE
8
Layer 1
10
23.193227
20
49.197764
11
23.193220
21
49.197779
0
LINE
8
Layer 1
10
2.824720
20
48.575942
11
4.175064
21
47.467882
0
LINE
8
Layer 1
10
4.175064
20
47.467882
11
5.689140
21
46.002592
0
LINE
8
Layer 1
10
5.689140
20
46.002592
11
7.252004
21
44.299154
0
LINE
8
Layer 1
10
7.252004
20
44.299154
11
8.904170
21
42.238492
0
LINE
8
Layer 1
10
8.904170
20
42.238492
11
10.519956
21
40.330807
0
LINE
8
Layer 1
10
10.519956
20
40.330807
11
11.907510
21
39.162382
0
LINE
8
Layer 1
10
11.907510
20
39.162382
11
12.139045
21
39.016846
0
LINE
8
Layer 1
10
12.139045
20
39.016846
11
11.609822
21
39.063153
0
LINE
8
Layer 1
10
11.609822
20
39.063153
11
10.198594
21
39.290760
0
LINE
8
Layer 1
10
10.198594
20
39.290760
11
8.739613
21
39.727989
0
LINE
8
Layer 1
10
8.739613
20
39.727989
11
7.346372
21
40.333907
0
LINE
8
Layer 1
10
7.346372
20
40.333907
11
6.132362
21
41.067583
0
LINE
8
Layer 1
10
6.132362
20
41.067583
11
4.963936
21
42.121068
0
LINE
8
Layer 1
10
4.963936
20
42.121068
11
3.949312
21
43.343243
0
LINE
8
Layer 1
10
3.949312
20
43.343243
11
3.321273
21
44.449960
0
LINE
8
Layer 1
10
3.321273
20
44.449960
11
2.829674
21
45.677614
0
LINE
8
Layer 1
10
2.829674
20
45.677614
11
2.479477
21
47.013180
0
LINE
8
Layer 1
10
2.479477
20
47.013180
11
2.275642
21
48.443633
0
LINE
8
Layer 1
10
2.275642
20
48.443633
11
2.275642
21
48.953010
0
LINE
8
Layer 1
10
2.275642
20
48.953010
11
2.824711
21
48.575938
0
LINE
8
Layer 1
10
2.824711
20
48.575938
11
2.824720
21
48.575942
0
LINE
8
Layer 1
10
1.719970
20
47.795338
11
1.956777
21
46.435894
0
LINE
8
Layer 1
10
1.956777
20
46.435894
11
2.349249
21
45.131029
0
LINE
8
Layer 1
10
2.349249
20
45.131029
11
2.881882
21
43.917951
0
LINE
8
Layer 1
10
2.881882
20
43.917951
11
3.539170
21
42.833868
0
LINE
8
Layer 1
10
3.539170
20
42.833868
11
4.873703
21
41.292607
0
LINE
8
Layer 1
10
4.873703
20
41.292607
11
6.470571
21
40.084388
0
LINE
8
Layer 1
10
6.470571
20
40.084388
11
8.396137
21
39.167656
0
LINE
8
Layer 1
10
8.396137
20
39.167656
11
10.716760
21
38.500858
0
LINE
8
Layer 1
10
10.716760
20
38.500858
11
10.810098
21
38.473260
0
LINE
8
Layer 1
10
10.810098
20
38.473260
11
10.739087
21
38.458685
0
LINE
8
Layer 1
10
10.739087
20
38.458685
11
10.022155
21
38.461166
0
LINE
8
Layer 1
10
10.022155
20
38.461166
11
8.498160
21
38.629856
0
LINE
8
Layer 1
10
8.498160
20
38.629856
11
7.078355
21
39.116080
0
LINE
8
Layer 1
10
7.078355
20
39.116080
11
5.192169
21
40.294428
0
LINE
8
Layer 1
10
5.192169
20
40.294428
11
3.598715
21
41.934190
0
LINE
8
Layer 1
10
3.598715
20
41.934190
11
2.490653
21
43.912161
0
LINE
8
Layer 1
10
2.490653
20
43.912161
11
1.819205
21
46.088590
0
LINE
8
Layer 1
10
1.819205
20
46.088590
11
1.587670
21
48.317940
0
LINE
8
Layer 1
10
1.587670
20
48.317940
11
1.624054
21
48.441150
0
LINE
8
Layer 1
10
1.624054
20
48.441150
11
1.719976
21
47.795332
0
LINE
8
Layer 1
10
1.719976
20
47.795332
11
1.719970
21
47.795338
0
LINE
8
Layer 1
10
10.855690
20
43.217558
11
12.476440
21
39.579148
0
LINE
8
Layer 1
10
12.476440
20
39.579148
11
12.059677
21
39.976065
0
LINE
8
Layer 1
10
12.059677
20
39.976065
11
11.159996
21
41.424815
0
LINE
8
Layer 1
10
11.159996
20
41.424815
11
10.558007
21
43.330015
0
LINE
8
Layer 1
10
10.558007
20
43.330015
11
10.485239
21
43.925391
0
LINE
8
Layer 1
10
10.485239
20
43.925391
11
10.855695
21
43.217555
0
LINE
8
Layer 1
10
10.855695
20
43.217555
11
10.855690
21
43.217558
0
LINE
8
Layer 1
10
24.807300
20
48.298100
11
24.873453
21
48.159179
0
LINE
8
Layer 1
10
24.873453
20
48.159179
11
24.939606
21
48.251793
0
LINE
8
Layer 1
10
24.939606
20
48.251793
11
24.873453
21
48.390714
0
LINE
8
Layer 1
10
24.873453
20
48.390714
11
24.807300
21
48.298100
0
LINE
8
Layer 1
10
24.807300
20
48.298100
11
24.807300
21
48.298100
0
LINE
8
Layer 1
10
24.681600
20
47.325700
11
24.721292
21
47.286008
0
LINE
8
Layer 1
10
24.721292
20
47.286008
11
24.714676
21
47.411699
0
LINE
8
Layer 1
10
24.714676
20
47.411699
11
24.681600
21
47.325701
0
LINE
8
Layer 1
10
24.681600
20
47.325701
11
24.681600
21
47.325700
0
LINE
8
Layer 1
10
16.346400
20
45.208800
11
16.386092
21
45.169108
0
LINE
8
Layer 1
10
16.386092
20
45.169108
11
16.379476
21
45.294799
0
LINE
8
Layer 1
10
16.379476
20
45.294799
11
16.346400
21
45.208801
0
LINE
8
Layer 1
10
16.346400
20
45.208801
11
16.346400
21
45.208800
0
LINE
8
Layer 1
10
0.000000
20
29.570300
11
14.011200
21
29.510762
0
LINE
8
Layer 1
10
14.011200
20
29.510762
11
23.814250
21
29.533916
0
LINE
8
Layer 1
10
23.814250
20
29.533916
11
27.718100
21
29.576915
0
LINE
8
Layer 1
10
27.718100
20
29.576915
11
0.000000
21
29.570300
0
LINE
8
Layer 1
10
0.000000
20
29.570300
11
0.000000
21
29.570300
0
LINE
8
Layer 1
10
32.216500
20
29.570300
11
46.029200
21
29.510762
0
LINE
8
Layer 1
10
46.029200
20
29.510762
11
60.000700
21
29.570300
0
LINE
8
Layer 1
10
60.000700
20
29.570300
11
32.216500
21
29.570300
0
LINE
8
Layer 1
10
32.216500
20
29.570300
11
32.216500
21
29.570300
0
LINE
8
Layer 1
10
29.914300
20
14.725500
11
29.934146
21
0.006500
0
LINE
8
Layer 1
10
29.934146
20
0.006500
11
29.967222
21
25.038800
0
LINE
8
Layer 1
10
29.967222
20
25.038800
11
29.957622
21
25.696712
0
LINE
8
Layer 1
10
29.957622
20
25.696712
11
29.948720
21
25.740022
0
LINE
8
Layer 1
10
29.948720
20
25.740022
11
29.933319
21
24.099435
0
LINE
8
Layer 1
10
29.933319
20
24.099435
11
29.914300
21
14.725600
0
LINE
8
Layer 1
10
29.914300
20
14.725600
11
29.914300
21
14.725500
0
LINE
8
Layer 1
10
46.492300
20
22.359600
11
45.743119
21
21.144867
0
LINE
8
Layer 1
10
45.743119
20
21.144867
11
44.805400
21
19.091650
0
LINE
8
Layer 1
10
44.805400
20
19.091650
11
44.141390
21
17.093004
0
LINE
8
Layer 1
10
44.141390
20
17.093004
11
43.760180
21
15.208470
0
LINE
8
Layer 1
10
43.760180
20
15.208470
11
43.627874
21
14.368328
0
LINE
8
Layer 1
10
43.627874
20
14.368328
11
42.966345
21
14.851244
0
LINE
8
Layer 1
10
42.966345
20
14.851244
11
40.820509
21
16.250379
0
LINE
8
Layer 1
10
40.820509
20
16.250379
11
38.243025
21
17.391514
0
LINE
8
Layer 1
10
38.243025
20
17.391514
11
35.530755
21
18.099350
0
LINE
8
Layer 1
10
35.530755
20
18.099350
11
35.070476
21
18.115578
0
LINE
8
Layer 1
10
35.070476
20
18.115578
11
34.800593
21
18.005909
0
LINE
8
Layer 1
10
34.800593
20
18.005909
11
34.675832
21
17.726310
0
LINE
8
Layer 1
10
34.675832
20
17.726310
11
34.650921
21
17.232747
0
LINE
8
Layer 1
10
34.650921
20
17.232747
11
34.821782
21
15.707611
0
LINE
8
Layer 1
10
34.821782
20
15.707611
11
35.228932
21
14.041696
0
LINE
8
Layer 1
10
35.228932
20
14.041696
11
35.818417
21
12.416713
0
LINE
8
Layer 1
10
35.818417
20
12.416713
11
36.536281
21
11.014377
0
LINE
8
Layer 1
10
36.536281
20
11.014377
11
37.321848
21
9.967506
0
LINE
8
Layer 1
10
37.321848
20
9.967506
11
38.216561
21
9.049637
0
LINE
8
Layer 1
10
38.216561
20
9.049637
11
39.588408
21
8.087111
0
LINE
8
Layer 1
10
39.588408
20
8.087111
11
40.935441
21
7.442117
0
LINE
8
Layer 1
10
40.935441
20
7.442117
11
41.252975
21
7.296581
0
LINE
8
Layer 1
10
41.252975
20
7.296581
11
40.002685
21
7.647191
0
LINE
8
Layer 1
10
40.002685
20
7.647191
11
39.709958
21
7.733190
0
LINE
8
Layer 1
10
39.709958
20
7.733190
11
39.506538
21
7.660422
0
LINE
8
Layer 1
10
39.506538
20
7.660422
11
39.224561
21
7.371829
0
LINE
8
Layer 1
10
39.224561
20
7.371829
11
39.195619
21
7.038585
0
LINE
8
Layer 1
10
39.195619
20
7.038585
11
39.492480
21
6.705339
0
LINE
8
Layer 1
10
39.492480
20
6.705339
11
40.260679
21
6.416748
0
LINE
8
Layer 1
10
40.260679
20
6.416748
11
41.738372
21
6.055387
0
LINE
8
Layer 1
10
41.738372
20
6.055387
11
43.330169
21
5.986754
0
LINE
8
Layer 1
10
43.330169
20
5.986754
11
44.591212
21
6.014869
0
LINE
8
Layer 1
10
44.591212
20
6.014869
11
45.380909
21
6.171982
0
LINE
8
Layer 1
10
45.380909
20
6.171982
11
46.426129
21
6.529208
0
LINE
8
Layer 1
10
46.426129
20
6.529208
11
46.856123
21
6.628437
0
LINE
8
Layer 1
10
46.856123
20
6.628437
11
48.622403
21
6.059522
0
LINE
8
Layer 1
10
48.622403
20
6.059522
11
49.851195
21
5.956778
0
LINE
8
Layer 1
10
49.851195
20
5.956778
11
51.228829
21
6.021484
0
LINE
8
Layer 1
10
51.228829
20
6.021484
11
52.403043
21
6.217669
0
LINE
8
Layer 1
10
52.403043
20
6.217669
11
53.021573
21
6.509362
0
LINE
8
Layer 1
10
53.021573
20
6.509362
11
53.115841
21
6.849223
0
LINE
8
Layer 1
10
53.115841
20
6.849223
11
53.021573
21
7.184122
0
LINE
8
Layer 1
10
53.021573
20
7.184122
11
52.928132
21
7.356120
0
LINE
8
Layer 1
10
52.928132
20
7.356120
11
53.008342
21
7.409042
0
LINE
8
Layer 1
10
53.008342
20
7.409042
11
54.880472
21
8.368259
0
LINE
8
Layer 1
10
54.880472
20
8.368259
11
55.958765
21
9.237341
0
LINE
8
Layer 1
10
55.958765
20
9.237341
11
56.937832
21
10.319769
0
LINE
8
Layer 1
10
56.937832
20
10.319769
11
57.797510
21
11.776992
0
LINE
8
Layer 1
10
57.797510
20
11.776992
11
58.521366
21
13.597644
0
LINE
8
Layer 1
10
58.521366
20
13.597644
11
59.020715
21
15.512564
0
LINE
8
Layer 1
10
59.020715
20
15.512564
11
59.206872
21
17.252589
0
LINE
8
Layer 1
10
59.206872
20
17.252589
11
59.167904
21
17.786464
0
LINE
8
Layer 1
10
59.167904
20
17.786464
11
58.999318
21
18.060482
0
LINE
8
Layer 1
10
58.999318
20
18.060482
11
58.623592
21
18.122397
0
LINE
8
Layer 1
10
58.623592
20
18.122397
11
57.963202
21
18.019963
0
LINE
8
Layer 1
10
57.963202
20
18.019963
11
55.883833
21
17.473065
0
LINE
8
Layer 1
10
55.883833
20
17.473065
11
53.915475
21
16.715924
0
LINE
8
Layer 1
10
53.915475
20
16.715924
11
52.092238
21
15.764046
0
LINE
8
Layer 1
10
52.092238
20
15.764046
11
50.448232
21
14.632933
0
LINE
8
Layer 1
10
50.448232
20
14.632933
11
49.912394
21
14.216170
0
LINE
8
Layer 1
10
49.912394
20
14.216170
11
49.833011
21
14.831392
0
LINE
8
Layer 1
10
49.833011
20
14.831392
11
49.139232
21
17.864501
0
LINE
8
Layer 1
10
49.139232
20
17.864501
11
47.874881
21
20.957152
0
LINE
8
Layer 1
10
47.874881
20
20.957152
11
47.086834
21
22.253748
0
LINE
8
Layer 1
10
47.086834
20
22.253748
11
46.789248
21
22.430706
0
LINE
8
Layer 1
10
46.789248
20
22.430706
11
46.492281
21
22.359592
0
LINE
8
Layer 1
10
46.492281
20
22.359592
11
46.492300
21
22.359600
0
LINE
8
Layer 1
10
47.180290
20
19.865640
11
48.204006
21
17.249291
0
LINE
8
Layer 1
10
48.204006
20
17.249291
11
48.781190
21
14.632950
0
LINE
8
Layer 1
10
48.781190
20
14.632950
11
48.887861
21
13.467835
0
LINE
8
Layer 1
10
48.887861
20
13.467835
11
48.721652
21
12.952670
0
LINE
8
Layer 1
10
48.721652
20
12.952670
11
47.841818
21
11.503096
0
LINE
8
Layer 1
10
47.841818
20
11.503096
11
46.961982
21
9.611950
0
LINE
8
Layer 1
10
46.961982
20
9.611950
11
46.770139
21
9.195187
0
LINE
8
Layer 1
10
46.770139
20
9.195187
11
46.412913
21
9.975791
0
LINE
8
Layer 1
10
46.412913
20
9.975791
11
44.950933
21
12.780671
0
LINE
8
Layer 1
10
44.950933
20
12.780671
11
44.587092
21
13.309894
0
LINE
8
Layer 1
10
44.587092
20
13.309894
11
44.653245
21
14.017730
0
LINE
8
Layer 1
10
44.653245
20
14.017730
11
45.213065
21
16.935900
0
LINE
8
Layer 1
10
45.213065
20
16.935900
11
46.373225
21
19.958260
0
LINE
8
Layer 1
10
46.373225
20
19.958260
11
46.756912
21
20.639635
0
LINE
8
Layer 1
10
46.756912
20
20.639635
11
47.180291
21
19.865646
0
LINE
8
Layer 1
10
47.180291
20
19.865646
11
47.180290
21
19.865640
0
LINE
8
Layer 1
10
37.674120
20
16.458770
11
39.294867
21
15.795587
0
LINE
8
Layer 1
10
39.294867
20
15.795587
11
40.935460
21
14.943870
0
LINE
8
Layer 1
10
40.935460
20
14.943870
11
43.072200
21
13.376050
0
LINE
8
Layer 1
10
43.072200
20
13.376050
11
43.508809
21
12.998978
0
LINE
8
Layer 1
10
43.508809
20
12.998978
11
43.548501
21
12.138990
0
LINE
8
Layer 1
10
43.548501
20
12.138990
11
43.713883
21
10.815930
0
LINE
8
Layer 1
10
43.713883
20
10.815930
11
43.832958
21
10.333014
0
LINE
8
Layer 1
10
43.832958
20
10.333014
11
42.886972
21
11.331923
0
LINE
8
Layer 1
10
42.886972
20
11.331923
11
40.215223
21
13.957364
0
LINE
8
Layer 1
10
40.215223
20
13.957364
11
37.211052
21
16.300003
0
LINE
8
Layer 1
10
37.211052
20
16.300003
11
36.673559
21
16.744054
0
LINE
8
Layer 1
10
36.673559
20
16.744054
11
37.674122
21
16.458770
0
LINE
8
Layer 1
10
37.674122
20
16.458770
11
37.674120
21
16.458770
0
LINE
8
Layer 1
10
57.255420
20
16.749843
11
56.309434
21
16.075083
0
LINE
8
Layer 1
10
56.309434
20
16.075083
11
53.589724
21
13.949919
0
LINE
8
Layer 1
10
53.589724
20
13.949919
11
50.845204
21
11.398073
0
LINE
8
Layer 1
10
50.845204
20
11.398073
11
49.634604
21
10.213933
0
LINE
8
Layer 1
10
49.634604
20
10.213933
11
49.740449
21
10.756387
0
LINE
8
Layer 1
10
49.740449
20
10.756387
11
50.011676
21
12.707897
0
LINE
8
Layer 1
10
50.011676
20
12.707897
11
50.082790
21
13.025431
0
LINE
8
Layer 1
10
50.082790
20
13.025431
11
50.560745
21
13.442194
0
LINE
8
Layer 1
10
50.560745
20
13.442194
11
51.962877
21
14.452472
0
LINE
8
Layer 1
10
51.962877
20
14.452472
11
53.447494
21
15.327552
0
LINE
8
Layer 1
10
53.447494
20
15.327552
11
54.980483
21
16.048825
0
LINE
8
Layer 1
10
54.980483
20
16.048825
11
56.527735
21
16.597684
0
LINE
8
Layer 1
10
56.527735
20
16.597684
11
57.201668
21
16.782912
0
LINE
8
Layer 1
10
57.201668
20
16.782912
11
57.255417
21
16.749836
0
LINE
8
Layer 1
10
57.255417
20
16.749836
11
57.255420
21
16.749843
0
LINE
8
Layer 1
10
57.817720
20
15.003403
11
57.364882
21
13.462867
0
LINE
8
Layer 1
10
57.364882
20
13.462867
11
56.849407
21
12.215057
0
LINE
8
Layer 1
10
56.849407
20
12.215057
11
56.226020
21
11.170667
0
LINE
8
Layer 1
10
56.226020
20
11.170667
11
55.449450
21
10.240393
0
LINE
8
Layer 1
10
55.449450
20
10.240393
11
54.261387
21
9.237970
0
LINE
8
Layer 1
10
54.261387
20
9.237970
11
52.866183
21
8.497263
0
LINE
8
Layer 1
10
52.866183
20
8.497263
11
51.242749
21
8.009591
0
LINE
8
Layer 1
10
51.242749
20
8.009591
11
49.370000
21
7.766273
0
LINE
8
Layer 1
10
49.370000
20
7.766273
11
48.655549
21
7.719966
0
LINE
8
Layer 1
10
48.655549
20
7.719966
11
48.986314
21
8.004423
0
LINE
8
Layer 1
10
48.986314
20
8.004423
11
50.203524
21
9.221633
0
LINE
8
Layer 1
10
50.203524
20
9.221633
11
53.060502
21
12.056288
0
LINE
8
Layer 1
10
53.060502
20
12.056288
11
55.793444
21
14.374943
0
LINE
8
Layer 1
10
55.793444
20
14.374943
11
58.002954
21
15.876613
0
LINE
8
Layer 1
10
58.002954
20
15.876613
11
57.817726
21
15.003395
0
LINE
8
Layer 1
10
57.817726
20
15.003395
11
57.817720
21
15.003403
0
LINE
8
Layer 1
10
36.853820
20
15.228323
11
39.800930
21
12.857568
0
LINE
8
Layer 1
10
39.800930
20
12.857568
11
42.668660
21
9.955933
0
LINE
8
Layer 1
10
42.668660
20
9.955933
11
44.653250
21
7.911813
0
LINE
8
Layer 1
10
44.653250
20
7.911813
11
44.884785
21
7.726585
0
LINE
8
Layer 1
10
44.884785
20
7.726585
11
44.322485
21
7.766277
0
LINE
8
Layer 1
10
44.322485
20
7.766277
11
43.077156
21
7.929178
0
LINE
8
Layer 1
10
43.077156
20
7.929178
11
41.901285
21
8.235963
0
LINE
8
Layer 1
10
41.901285
20
8.235963
11
40.350206
21
8.909379
0
LINE
8
Layer 1
10
40.350206
20
8.909379
11
39.013710
21
9.817844
0
LINE
8
Layer 1
10
39.013710
20
9.817844
11
37.910404
21
10.945854
0
LINE
8
Layer 1
10
37.910404
20
10.945854
11
37.058895
21
12.277903
0
LINE
8
Layer 1
10
37.058895
20
12.277903
11
36.251003
21
14.417123
0
LINE
8
Layer 1
10
36.251003
20
14.417123
11
35.914445
21
15.876623
0
LINE
8
Layer 1
10
35.914445
20
15.876623
11
36.853816
21
15.228325
0
LINE
8
Layer 1
10
36.853816
20
15.228325
11
36.853820
21
15.228323
0
LINE
8
Layer 1
10
45.361080
20
9.764093
11
45.504136
21
9.334099
0
LINE
8
Layer 1
10
45.504136
20
9.334099
11
45.453694
21
9.301023
0
LINE
8
Layer 1
10
45.453694
20
9.301023
11
44.917856
21
10.591003
0
LINE
8
Layer 1
10
44.917856
20
10.591003
11
45.067527
21
10.408256
0
LINE
8
Layer 1
10
45.067527
20
10.408256
11
45.361080
21
9.764092
0
LINE
8
Layer 1
10
45.361080
20
9.764092
11
45.361080
21
9.764093
0
LINE
8
Layer 1
10
48.324730
20
9.929475
11
48.027042
21
9.327484
0
LINE
8
Layer 1
10
48.027042
20
9.327484
11
48.331345
21
10.134549
0
LINE
8
Layer 1
10
48.331345
20
10.134549
11
48.390056
21
10.168452
0
LINE
8
Layer 1
10
48.390056
20
10.168452
11
48.324730
21
9.929475
0
LINE
8
Layer 1
10
48.324730
20
9.929475
11
48.324730
21
9.929475
0
LINE
8
Layer 1
10
13.151200
20
22.214100
11
12.351576
21
20.913367
0
LINE
8
Layer 1
10
12.351576
20
20.913367
11
11.417990
21
18.774150
0
LINE
8
Layer 1
10
11.417990
20
18.774150
11
10.761423
21
16.450529
0
LINE
8
Layer 1
10
10.761423
20
16.450529
11
10.452158
21
14.513900
0
LINE
8
Layer 1
10
10.452158
20
14.513900
11
10.412466
21
14.202981
0
LINE
8
Layer 1
10
10.412466
20
14.202981
11
9.903089
21
14.546976
0
LINE
8
Layer 1
10
9.903089
20
14.546976
11
7.714257
21
16.016401
0
LINE
8
Layer 1
10
7.714257
20
16.016401
11
5.014389
21
17.292326
0
LINE
8
Layer 1
10
5.014389
20
17.292326
11
2.308739
21
18.059700
0
LINE
8
Layer 1
10
2.308739
20
18.059700
11
1.977974
21
17.934009
0
LINE
8
Layer 1
10
1.977974
20
17.934009
11
1.844015
21
17.717358
0
LINE
8
Layer 1
10
1.844015
20
17.717358
11
1.839053
21
17.054175
0
LINE
8
Layer 1
10
1.839053
20
17.054175
11
1.974667
21
15.475603
0
LINE
8
Layer 1
10
1.974667
20
15.475603
11
2.308739
21
13.852375
0
LINE
8
Layer 1
10
2.308739
20
13.852375
11
2.714753
21
12.497894
0
LINE
8
Layer 1
10
2.714753
20
12.497894
11
3.195188
21
11.411335
0
LINE
8
Layer 1
10
3.195188
20
11.411335
11
4.276065
21
9.805268
0
LINE
8
Layer 1
10
4.276065
20
9.805268
11
5.734633
21
8.505571
0
LINE
8
Layer 1
10
5.734633
20
8.505571
11
7.514457
21
7.550696
0
LINE
8
Layer 1
10
7.514457
20
7.550696
11
9.559098
21
6.979095
0
LINE
8
Layer 1
10
9.559098
20
6.979095
11
10.253703
21
6.833559
0
LINE
8
Layer 1
10
10.253703
20
6.833559
11
8.163273
21
6.979095
0
LINE
8
Layer 1
10
8.163273
20
6.979095
11
6.826983
21
7.323090
0
LINE
8
Layer 1
10
6.826983
20
7.323090
11
6.019918
21
7.501703
0
LINE
8
Layer 1
10
6.019918
20
7.501703
11
5.828075
21
7.098170
0
LINE
8
Layer 1
10
5.828075
20
7.098170
11
5.695769
21
6.754175
0
LINE
8
Layer 1
10
5.695769
20
6.754175
11
6.039764
21
6.628484
0
LINE
8
Layer 1
10
6.039764
20
6.628484
11
8.447734
21
6.019877
0
LINE
8
Layer 1
10
8.447734
20
6.019877
11
11.160004
21
6.019877
0
LINE
8
Layer 1
10
11.160004
20
6.019877
11
13.078434
21
6.588792
0
LINE
8
Layer 1
10
13.078434
20
6.588792
11
13.422429
21
6.754174
0
LINE
8
Layer 1
10
13.422429
20
6.754174
11
13.673810
21
6.628483
0
LINE
8
Layer 1
10
13.673810
20
6.628483
11
15.506250
21
6.052953
0
LINE
8
Layer 1
10
15.506250
20
6.052953
11
17.015362
21
5.956204
0
LINE
8
Layer 1
10
17.015362
20
5.956204
11
18.588980
21
6.052953
0
LINE
8
Layer 1
10
18.588980
20
6.052953
11
20.230399
21
6.434159
0
LINE
8
Layer 1
10
20.230399
20
6.434159
11
21.102790
21
6.820327
0
LINE
8
Layer 1
10
21.102790
20
6.820327
11
20.963869
21
7.217244
0
LINE
8
Layer 1
10
20.963869
20
7.217244
11
20.712488
21
7.508317
0
LINE
8
Layer 1
10
20.712488
20
7.508317
11
18.734518
21
6.979094
0
LINE
8
Layer 1
10
18.734518
20
6.979094
11
17.393270
21
6.849269
0
LINE
8
Layer 1
10
17.393270
20
6.849269
11
16.844200
21
6.834901
0
LINE
8
Layer 1
10
16.844200
20
6.834901
11
16.736698
21
6.873249
0
LINE
8
Layer 1
10
16.736698
20
6.873249
11
17.113770
21
6.939402
0
LINE
8
Layer 1
10
17.113770
20
6.939402
11
19.945110
21
7.720006
0
LINE
8
Layer 1
10
19.945110
20
7.720006
11
21.921428
21
8.868585
0
LINE
8
Layer 1
10
21.921428
20
8.868585
11
23.451210
21
10.419046
0
LINE
8
Layer 1
10
23.451210
20
10.419046
11
24.180030
21
11.667165
0
LINE
8
Layer 1
10
24.180030
20
11.667165
11
24.781712
21
13.259487
0
LINE
8
Layer 1
10
24.781712
20
13.259487
11
25.215943
21
15.063911
0
LINE
8
Layer 1
10
25.215943
20
15.063911
11
25.442410
21
16.948336
0
LINE
8
Layer 1
10
25.442410
20
16.948336
11
25.461429
21
17.641288
0
LINE
8
Layer 1
10
25.461429
20
17.641288
11
25.316719
21
17.887707
0
LINE
8
Layer 1
10
25.316719
20
17.887707
11
25.032262
21
18.059705
0
LINE
8
Layer 1
10
25.032262
20
18.059705
11
22.465532
21
17.404791
0
LINE
8
Layer 1
10
22.465532
20
17.404791
11
19.485346
21
16.156154
0
LINE
8
Layer 1
10
19.485346
20
16.156154
11
17.021152
21
14.580061
0
LINE
8
Layer 1
10
17.021152
20
14.580061
11
16.485314
21
14.156682
0
LINE
8
Layer 1
10
16.485314
20
14.156682
11
16.439007
21
14.500677
0
LINE
8
Layer 1
10
16.439007
20
14.500677
11
15.966841
21
17.065756
0
LINE
8
Layer 1
10
15.966841
20
17.065756
11
15.241637
21
19.382757
0
LINE
8
Layer 1
10
15.241637
20
19.382757
11
13.839197
21
22.114867
0
LINE
8
Layer 1
10
13.839197
20
22.114867
11
13.495202
21
22.290999
0
LINE
8
Layer 1
10
13.495202
20
22.290999
11
13.151207
21
22.214096
0
LINE
8
Layer 1
10
13.151207
20
22.214096
11
13.151200
21
22.214100
0
LINE
8
Layer 1
10
14.308880
20
18.886610
11
15.016716
21
16.694469
0
LINE
8
Layer 1
10
15.016716
20
16.694469
11
15.407020
21
14.527130
0
LINE
8
Layer 1
10
15.407020
20
14.527130
11
15.461596
21
13.299994
0
LINE
8
Layer 1
10
15.461596
20
13.299994
11
15.049794
21
12.509470
0
LINE
8
Layer 1
10
15.049794
20
12.509470
11
13.647354
21
9.836890
0
LINE
8
Layer 1
10
13.647354
20
9.836890
11
13.429049
21
9.439973
0
LINE
8
Layer 1
10
13.429049
20
9.439973
11
13.058593
21
10.213962
0
LINE
8
Layer 1
10
13.058593
20
10.213962
11
11.642923
21
12.767462
0
LINE
8
Layer 1
10
11.642923
20
12.767462
11
11.358466
21
13.164379
0
LINE
8
Layer 1
10
11.358466
20
13.164379
11
11.404773
21
13.812677
0
LINE
8
Layer 1
10
11.404773
20
13.812677
11
11.583386
21
15.383292
0
LINE
8
Layer 1
10
11.583386
20
15.383292
11
11.905882
21
16.891268
0
LINE
8
Layer 1
10
11.905882
20
16.891268
11
13.012293
21
19.845817
0
LINE
8
Layer 1
10
13.012293
20
19.845817
11
13.442287
21
20.738881
0
LINE
8
Layer 1
10
13.442287
20
20.738881
11
13.739975
21
20.143505
0
LINE
8
Layer 1
10
13.739975
20
20.143505
11
14.308890
21
18.886595
0
LINE
8
Layer 1
10
14.308890
20
18.886595
11
14.308880
21
18.886610
0
LINE
8
Layer 1
10
23.345370
20
16.577870
11
23.021221
21
16.372796
0
LINE
8
Layer 1
10
23.021221
20
16.372796
11
20.540491
21
14.520516
0
LINE
8
Layer 1
10
20.540491
20
14.520516
11
18.389696
21
12.509470
0
LINE
8
Layer 1
10
18.389696
20
12.509470
11
16.472091
21
10.339656
0
LINE
8
Layer 1
10
16.472091
20
10.339656
11
16.075174
21
9.876586
0
LINE
8
Layer 1
10
16.075174
20
9.876586
11
16.273633
21
10.657190
0
LINE
8
Layer 1
10
16.273633
20
10.657190
11
16.518399
21
12.165480
0
LINE
8
Layer 1
10
16.518399
20
12.165480
11
16.637474
21
12.946911
0
LINE
8
Layer 1
10
16.637474
20
12.946911
11
17.332080
21
13.554690
0
LINE
8
Layer 1
10
17.332080
20
13.554690
11
19.713585
21
15.129955
0
LINE
8
Layer 1
10
19.713585
20
15.129955
11
22.392780
21
16.313270
0
LINE
8
Layer 1
10
22.392780
20
16.313270
11
23.211423
21
16.594420
0
LINE
8
Layer 1
10
23.211423
20
16.594420
11
23.345382
21
16.577882
0
LINE
8
Layer 1
10
23.345382
20
16.577882
11
23.345370
21
16.577870
0
LINE
8
Layer 1
10
4.743170
20
16.300028
11
7.376052
21
15.011702
0
LINE
8
Layer 1
10
7.376052
20
15.011702
11
9.870020
21
13.237148
0
LINE
8
Layer 1
10
9.870020
20
13.237148
11
10.319860
21
12.866692
0
LINE
8
Layer 1
10
10.319860
20
12.866692
11
10.319860
21
12.463159
0
LINE
8
Layer 1
10
10.319860
20
12.463159
11
10.677086
21
10.425649
0
LINE
8
Layer 1
10
10.677086
20
10.425649
11
10.816007
21
9.936118
0
LINE
8
Layer 1
10
10.816007
20
9.936118
11
9.989096
21
10.895335
0
LINE
8
Layer 1
10
9.989096
20
10.895335
11
7.533995
21
13.586930
0
LINE
8
Layer 1
10
7.533995
20
13.586930
11
4.994556
21
15.757575
0
LINE
8
Layer 1
10
4.994556
20
15.757575
11
3.909646
21
16.577871
0
LINE
8
Layer 1
10
3.909646
20
16.577871
11
4.743173
21
16.300029
0
LINE
8
Layer 1
10
4.743173
20
16.300029
11
4.743170
21
16.300028
0
LINE
8
Layer 1
10
24.304570
20
15.731113
11
23.876230
21
13.815160
0
LINE
8
Layer 1
10
23.876230
20
13.815160
11
23.358584
21
12.271313
0
LINE
8
Layer 1
10
23.358584
20
12.271313
11
22.316674
21
10.683647
0
LINE
8
Layer 1
10
22.316674
20
10.683647
11
20.937384
21
9.393663
0
LINE
8
Layer 1
10
20.937384
20
9.393663
11
19.943231
21
8.819993
0
LINE
8
Layer 1
10
19.943231
20
8.819993
11
18.828760
21
8.356717
0
LINE
8
Layer 1
10
18.828760
20
8.356717
11
16.372834
21
7.805993
0
LINE
8
Layer 1
10
16.372834
20
7.805993
11
15.512846
21
7.739840
0
LINE
8
Layer 1
10
15.512846
20
7.739840
11
15.248234
21
7.739840
0
LINE
8
Layer 1
10
15.248234
20
7.739840
11
15.512846
21
7.951529
0
LINE
8
Layer 1
10
15.512846
20
7.951529
11
17.550356
21
10.055189
0
LINE
8
Layer 1
10
17.550356
20
10.055189
11
20.039356
21
12.670709
0
LINE
8
Layer 1
10
20.039356
20
12.670709
11
22.538286
21
14.765279
0
LINE
8
Layer 1
10
22.538286
20
14.765279
11
24.291336
21
15.936189
0
LINE
8
Layer 1
10
24.291336
20
15.936189
11
24.304567
21
15.731115
0
LINE
8
Layer 1
10
24.304567
20
15.731115
11
24.304570
21
15.731113
0
LINE
8
Layer 1
10
3.697970
20
15.420194
11
6.503682
21
13.071765
0
LINE
8
Layer 1
10
6.503682
20
13.071765
11
9.135740
21
10.286724
0
LINE
8
Layer 1
10
9.135740
20
10.286724
11
11.226170
21
8.063984
0
LINE
8
Layer 1
10
11.226170
20
8.063984
11
11.517243
21
7.753065
0
LINE
8
Layer 1
10
11.517243
20
7.753065
11
10.756485
21
7.799372
0
LINE
8
Layer 1
10
10.756485
20
7.799372
11
9.124988
21
8.075870
0
LINE
8
Layer 1
10
9.124988
20
8.075870
11
7.691951
21
8.567572
0
LINE
8
Layer 1
10
7.691951
20
8.567572
11
6.425124
21
9.288741
0
LINE
8
Layer 1
10
6.425124
20
9.288741
11
5.292255
21
10.253642
0
LINE
8
Layer 1
10
5.292255
20
10.253642
11
4.397537
21
11.347647
0
LINE
8
Layer 1
10
4.397537
20
11.347647
11
3.770735
21
12.654992
0
LINE
8
Layer 1
10
3.770735
20
12.654992
11
3.169571
21
14.692503
0
LINE
8
Layer 1
10
3.169571
20
14.692503
11
3.009977
21
15.876642
0
LINE
8
Layer 1
10
3.009977
20
15.876642
11
3.697967
21
15.420187
0
LINE
8
Layer 1
10
3.697967
20
15.420187
11
3.697970
21
15.420194
0
LINE
8
Layer 1
10
11.775240
20
10.577804
11
12.575690
21
8.665984
0
LINE
8
Layer 1
10
12.575690
20
8.665984
11
11.576781
21
10.815954
0
LINE
8
Layer 1
10
11.576781
20
10.815954
11
11.775240
21
10.577804
0
LINE
8
Layer 1
10
11.775240
20
10.577804
11
11.775240
21
10.577804
0
LINE
8
Layer 1
10
15.208580
20
10.624111
11
14.739721
21
9.456514
0
LINE
8
Layer 1
10
14.739721
20
9.456514
11
14.355208
21
8.745371
0
LINE
8
Layer 1
10
14.355208
20
8.745371
11
15.248272
21
10.849031
0
LINE
8
Layer 1
10
15.248272
20
10.849031
11
15.208580
21
10.624111
0
LINE
8
Layer 1
10
15.208580
20
10.624111
11
15.208580
21
10.624111
 0 
ENDSEC
 0 
EOF