<?xml version="1.0" standalone="no"?>
<!DOCTYPE svg PUBLIC "-//W3C//DTD SVG 20010904//EN"
 "http://www.w3.org/TR/2001/REC-SVG-20010904/DTD/svg10.dtd">
<svg version="1.0" xmlns="http://www.w3.org/2000/svg"
 width="170.078740pt" height="170.078740pt" viewBox="0 0 170.078740 170.078740"
 preserveAspectRatio="xMidYMid meet">
<metadata>
Created by potrace 1.16, written by Peter Selinger 2001-2019
</metadata>
<g transform="translate(0.000000,170.078740) scale(0.018752,-0.018752)"
fill="#000000" stroke="none">
<path d="M4495 7218 c-84 -46 -318 -332 -420 -513 -15 -27 -34 -60 -42 -73
l-14 -22 -31 37 c-110 131 -401 408 -465 441 -52 28 -86 -2 -103 -91 -28 -150
-22 -680 11 -850 5 -28 8 -52 6 -53 -2 -2 -24 16 -50 40 -120 112 -374 264
-501 301 -52 15 -58 15 -86 -1 -16 -10 -30 -21 -30 -24 0 -3 -8 -15 -18 -27
l-17 -23 -71 35 c-141 67 -409 135 -533 135 -46 0 -62 -4 -77 -21 -18 -20 -18
-23 -1 -104 44 -213 257 -690 408 -915 253 -376 702 -652 1294 -795 285 -69
582 -86 723 -41 l22 7 0 -483 c0 -319 5 -558 15 -703 8 -121 15 -238 16 -260
l1 -40 8 40 c16 86 34 601 34 1013 1 380 3 431 16 426 92 -35 369 -30 581 10
418 79 797 242 1106 477 187 142 335 329 467 588 128 253 263 608 273 722 5
52 4 58 -20 73 -22 15 -36 15 -113 6 -173 -21 -403 -89 -516 -152 -39 -22 -40
-22 -51 -3 -6 11 -21 30 -35 43 -21 21 -30 24 -72 19 -102 -12 -394 -188 -548
-331 -33 -31 -33 -31 -28 -6 29 129 46 637 27 799 -16 130 -29 171 -62 190
-23 13 -31 13 -60 1 -38 -16 -320 -288 -419 -404 l-64 -75 -46 79 c-102 171
-231 340 -342 446 -98 95 -126 108 -173 82z m142 -174 c98 -102 186 -216 263
-343 112 -185 113 -186 145 -189 27 -2 45 13 188 167 149 161 306 311 326 311
34 0 35 -523 2 -796 l-24 -192 -54 -68 c-67 -83 -152 -226 -195 -326 -26 -60
-32 -88 -34 -162 -3 -86 -5 -91 -36 -124 -18 -18 -80 -70 -137 -115 -290 -227
-501 -399 -510 -415 -26 -45 -26 -45 -107 35 -43 43 -180 155 -304 248 -123
94 -250 194 -282 224 l-58 53 6 48 c15 115 -63 291 -231 520 l-62 85 -16 117
c-29 206 -40 403 -33 618 3 113 9 217 14 233 l7 27 90 -78 c85 -75 221 -211
348 -350 73 -79 97 -81 142 -9 211 335 396 567 453 567 8 0 53 -39 99 -86z
m-2394 -614 c103 -16 302 -76 390 -117 l78 -37 -7 -50 c-28 -200 15 -362 151
-566 122 -183 315 -366 561 -531 302 -202 492 -300 758 -393 47 -16 -3 -15
-155 5 -634 81 -1223 397 -1495 802 -59 89 -180 321 -242 467 -60 139 -138
353 -147 402 -8 40 -19 38 108 18z m4687 2 c0 -10 -20 -76 -44 -147 -118 -351
-299 -699 -460 -887 -132 -154 -357 -314 -616 -437 -268 -127 -660 -232 -862
-231 l-53 1 96 38 c53 20 171 77 264 125 525 273 880 583 1041 911 24 49 51
117 59 150 18 70 22 248 6 288 -11 28 -11 28 64 62 144 66 335 124 455 138 19
2 38 5 43 5 4 1 7 -6 7 -16z m-3964 -123 c115 -54 274 -162 384 -261 124 -111
125 -112 139 -187 16 -80 57 -197 83 -234 11 -16 18 -30 16 -33 -3 -2 -65 67
-139 153 -239 281 -408 436 -594 546 -46 27 -47 28 -29 48 21 23 28 21 140
-32z m3266 34 c28 -25 22 -35 -40 -71 -145 -83 -350 -269 -533 -482 -54 -63
-117 -135 -139 -160 l-42 -45 30 55 c35 63 66 162 77 237 6 49 11 56 73 111
161 141 299 239 452 321 52 28 97 51 99 51 3 0 13 -7 23 -17z m-3388 -145
c164 -103 326 -254 525 -491 67 -80 174 -201 239 -269 65 -68 161 -172 214
-233 156 -179 290 -299 410 -369 67 -39 69 -50 6 -25 -29 12 -91 34 -138 51
-216 76 -541 262 -805 462 -248 188 -447 448 -499 652 -16 61 -23 254 -9 254
3 0 29 -14 57 -32z m3445 -83 c1 -93 -19 -170 -74 -280 -153 -306 -552 -643
-1059 -894 -119 -59 -376 -159 -376 -147 0 2 46 35 103 72 118 79 226 179 375
349 59 66 151 167 207 225 55 58 145 159 199 225 155 188 382 409 506 491 121
81 117 82 119 -41z m-873 -471 c-36 -71 -65 -123 -65 -115 -1 16 120 253 126
247 2 -2 -25 -62 -61 -132z m-1725 -36 c65 -128 44 -112 -26 20 -36 67 -65
128 -65 135 0 14 37 -48 91 -155z"/>
<path d="M1740 3080 c-221 -15 -445 -41 -903 -106 -59 -8 -86 -39 -67 -75 14
-25 17 -25 248 10 359 54 497 66 772 65 371 -1 607 -35 1035 -148 94 -24 247
-64 340 -89 354 -93 674 -160 945 -199 65 -9 199 -13 420 -12 l325 0 240 42
c279 48 528 104 1130 255 495 124 678 151 1050 151 285 0 426 -12 818 -70 124
-18 172 -22 187 -14 27 14 26 56 -1 71 -28 15 -446 75 -653 94 -301 27 -567
38 -791 32 -330 -10 -492 -37 -1040 -173 -623 -156 -779 -183 -1125 -191 -339
-8 -576 17 -954 102 -83 18 -214 47 -291 64 -77 18 -177 41 -223 52 -193 46
-517 109 -642 124 -158 19 -630 28 -820 15z m1270 -189 c124 -28 286 -64 360
-81 313 -72 502 -112 605 -130 361 -63 728 -67 1118 -11 98 13 48 -5 -58 -22
-199 -32 -334 -40 -595 -34 -382 9 -635 51 -1252 211 -95 24 -227 59 -293 76
-135 34 -146 38 -125 39 9 1 117 -21 240 -48z m3239 35 c-2 -3 -96 -27 -209
-56 -113 -28 -258 -64 -324 -81 -65 -16 -125 -29 -134 -27 -17 3 613 163 657
167 8 0 12 -1 10 -3z"/>
</g>
</svg>
