999
"DXF R12 Output" (www.mydxf.blogspot.com)
 0 
SECTION
 2 
HEADER
 9 
$ACADVER
 1 
AC1009
 9 
$EXTMIN
 10 
 0 
 20 
 0 
 9 
$EXTMAX
 10 
 8.5 
 20 
 11 
 0 
ENDSEC
 0 
SECTION
 2 
ENTITIES
0
LINE
8
Layer 1
10
16.439000
20
50.342300
11
14.755409
21
50.033862
0
LINE
8
Layer 1
10
14.755409
20
50.033862
11
13.131360
21
49.383083
0
LINE
8
Layer 1
10
13.131360
20
49.383083
11
11.923642
21
48.656900
0
LINE
8
Layer 1
10
11.923642
20
48.656900
11
10.825000
21
47.759856
0
LINE
8
Layer 1
10
10.825000
20
47.759856
11
9.841556
21
46.701566
0
LINE
8
Layer 1
10
9.841556
20
46.701566
11
8.979436
21
45.491643
0
LINE
8
Layer 1
10
8.979436
20
45.491643
11
8.244764
21
44.139700
0
LINE
8
Layer 1
10
8.244764
20
44.139700
11
7.643665
21
42.655350
0
LINE
8
Layer 1
10
7.643665
20
42.655350
11
7.182262
21
41.048206
0
LINE
8
Layer 1
10
7.182262
20
41.048206
11
6.866680
21
39.327883
0
LINE
8
Layer 1
10
6.866680
20
39.327883
11
6.786470
21
37.355699
0
LINE
8
Layer 1
10
6.786470
20
37.355699
11
6.899757
21
35.358713
0
LINE
8
Layer 1
10
6.899757
20
35.358713
11
7.235380
21
33.577754
0
LINE
8
Layer 1
10
7.235380
20
33.577754
11
7.719227
21
31.867493
0
LINE
8
Layer 1
10
7.719227
20
31.867493
11
9.268027
21
28.247273
0
LINE
8
Layer 1
10
9.268027
20
28.247273
11
10.854868
21
25.399393
0
LINE
8
Layer 1
10
10.854868
20
25.399393
11
12.793977
21
22.591203
0
LINE
8
Layer 1
10
12.793977
20
22.591203
11
14.557880
21
20.354925
0
LINE
8
Layer 1
10
14.557880
20
20.354925
11
16.545670
21
18.087017
0
LINE
8
Layer 1
10
16.545670
20
18.087017
11
21.433547
21
13.190873
0
LINE
8
Layer 1
10
21.433547
20
13.190873
11
24.387273
21
10.568739
0
LINE
8
Layer 1
10
24.387273
20
10.568739
11
27.539457
21
7.991253
0
LINE
8
Layer 1
10
27.539457
20
7.991253
11
28.974977
21
6.873273
0
LINE
8
Layer 1
10
28.974977
20
6.873273
11
29.193282
21
7.018809
0
LINE
8
Layer 1
10
29.193282
20
7.018809
11
32.497622
21
9.609520
0
LINE
8
Layer 1
10
32.497622
20
9.609520
11
36.218722
21
12.800569
0
LINE
8
Layer 1
10
36.218722
20
12.800569
11
39.680169
21
16.179327
0
LINE
8
Layer 1
10
39.680169
20
16.179327
11
42.834012
21
19.548169
0
LINE
8
Layer 1
10
42.834012
20
19.548169
11
44.907080
21
22.163690
0
LINE
8
Layer 1
10
44.907080
20
22.163690
11
46.875951
21
24.952859
0
LINE
8
Layer 1
10
46.875951
20
24.952859
11
48.241852
21
27.224447
0
LINE
8
Layer 1
10
48.241852
20
27.224447
11
49.352548
21
29.454248
0
LINE
8
Layer 1
10
49.352548
20
29.454248
11
50.207729
21
31.641410
0
LINE
8
Layer 1
10
50.207729
20
31.641410
11
50.807084
21
33.785083
0
LINE
8
Layer 1
10
50.807084
20
33.785083
11
51.150304
21
35.884415
0
LINE
8
Layer 1
10
51.150304
20
35.884415
11
51.237079
21
37.938555
0
LINE
8
Layer 1
10
51.237079
20
37.938555
11
51.067098
21
39.946654
0
LINE
8
Layer 1
10
51.067098
20
39.946654
11
50.640051
21
41.907859
0
LINE
8
Layer 1
10
50.640051
20
41.907859
11
49.984621
21
43.763239
0
LINE
8
Layer 1
10
49.984621
20
43.763239
11
49.142516
21
45.413960
0
LINE
8
Layer 1
10
49.142516
20
45.413960
11
48.118076
21
46.851338
0
LINE
8
Layer 1
10
48.118076
20
46.851338
11
46.915641
21
48.066689
0
LINE
8
Layer 1
10
46.915641
20
48.066689
11
45.708596
21
48.963178
0
LINE
8
Layer 1
10
45.708596
20
48.963178
11
44.438525
21
49.638339
0
LINE
8
Layer 1
10
44.438525
20
49.638339
11
43.104422
21
50.092249
0
LINE
8
Layer 1
10
43.104422
20
50.092249
11
41.705278
21
50.324986
0
LINE
8
Layer 1
10
41.705278
20
50.324986
11
40.240085
21
50.336627
0
LINE
8
Layer 1
10
40.240085
20
50.336627
11
38.707837
21
50.127250
0
LINE
8
Layer 1
10
38.707837
20
50.127250
11
37.107525
21
49.696933
0
LINE
8
Layer 1
10
37.107525
20
49.696933
11
35.438142
21
49.045752
0
LINE
8
Layer 1
10
35.438142
20
49.045752
11
32.300840
21
47.285259
0
LINE
8
Layer 1
10
32.300840
20
47.285259
11
29.471152
21
45.103042
0
LINE
8
Layer 1
10
29.471152
20
45.103042
11
28.975005
21
44.639972
0
LINE
8
Layer 1
10
28.975005
20
44.639972
11
28.717009
21
44.864892
0
LINE
8
Layer 1
10
28.717009
20
44.864892
11
25.726072
21
47.258801
0
LINE
8
Layer 1
10
25.726072
20
47.258801
11
23.186629
21
48.754682
0
LINE
8
Layer 1
10
23.186629
20
48.754682
11
20.509916
21
49.847032
0
LINE
8
Layer 1
10
20.509916
20
49.847032
11
18.125929
21
50.309272
0
LINE
8
Layer 1
10
18.125929
20
50.309272
11
17.299018
21
50.368810
0
LINE
8
Layer 1
10
17.299018
20
50.368810
11
16.439030
21
50.342348
0
LINE
8
Layer 1
10
16.439030
20
50.342348
11
16.439000
21
50.342300
0
LINE
8
Layer 1
10
20.408170
20
48.853860
11
23.418130
21
48.060025
0
LINE
8
Layer 1
10
23.418130
20
48.060025
11
25.234027
21
47.257094
0
LINE
8
Layer 1
10
25.234027
20
47.257094
11
27.109460
21
45.923285
0
LINE
8
Layer 1
10
27.109460
20
45.923285
11
27.718067
21
45.407292
0
LINE
8
Layer 1
10
27.718067
20
45.407292
11
27.407148
21
45.572674
0
LINE
8
Layer 1
10
27.407148
20
45.572674
11
25.395273
21
46.509567
0
LINE
8
Layer 1
10
25.395273
20
46.509567
11
22.941828
21
47.332344
0
LINE
8
Layer 1
10
22.941828
20
47.332344
11
21.019257
21
47.742492
0
LINE
8
Layer 1
10
21.019257
20
47.742492
11
19.349728
21
47.815260
0
LINE
8
Layer 1
10
19.349728
20
47.815260
11
17.748828
21
47.668070
0
LINE
8
Layer 1
10
17.748828
20
47.668070
11
16.108238
21
47.252960
0
LINE
8
Layer 1
10
16.108238
20
47.252960
11
14.313636
21
46.501400
0
LINE
8
Layer 1
10
14.313636
20
46.501400
11
12.681521
21
45.452772
0
LINE
8
Layer 1
10
12.681521
20
45.452772
11
11.317324
21
44.189561
0
LINE
8
Layer 1
10
11.317324
20
44.189561
11
10.326478
21
42.794250
0
LINE
8
Layer 1
10
10.326478
20
42.794250
11
9.572335
21
40.735241
0
LINE
8
Layer 1
10
9.572335
20
40.735241
11
9.115878
21
38.249550
0
LINE
8
Layer 1
10
9.115878
20
38.249550
11
9.082802
21
36.093791
0
LINE
8
Layer 1
10
9.082802
20
36.093791
11
9.287876
21
34.042230
0
LINE
8
Layer 1
10
9.287876
20
34.042230
11
9.977521
21
31.520772
0
LINE
8
Layer 1
10
9.977521
20
31.520772
11
11.093852
21
28.898841
0
LINE
8
Layer 1
10
11.093852
20
28.898841
11
12.636867
21
26.177680
0
LINE
8
Layer 1
10
12.636867
20
26.177680
11
14.606566
21
23.358530
0
LINE
8
Layer 1
10
14.606566
20
23.358530
11
16.997166
21
20.454415
0
LINE
8
Layer 1
10
16.997166
20
20.454415
11
20.077406
21
17.133540
0
LINE
8
Layer 1
10
20.077406
20
17.133540
11
21.460006
21
15.711250
0
LINE
8
Layer 1
10
21.460006
20
15.711250
11
20.282486
21
16.868930
0
LINE
8
Layer 1
10
20.282486
20
16.868930
11
17.243794
21
20.053365
0
LINE
8
Layer 1
10
17.243794
20
20.053365
11
14.647914
21
23.173305
0
LINE
8
Layer 1
10
14.647914
20
23.173305
11
12.510969
21
26.208908
0
LINE
8
Layer 1
10
12.510969
20
26.208908
11
10.849086
21
29.140330
0
LINE
8
Layer 1
10
10.849086
20
29.140330
11
9.558279
21
32.112249
0
LINE
8
Layer 1
10
9.558279
20
32.112249
11
8.818196
21
34.796400
0
LINE
8
Layer 1
10
8.818196
20
34.796400
11
8.663563
21
35.834175
0
LINE
8
Layer 1
10
8.663563
20
35.834175
11
8.632968
21
37.541750
0
LINE
8
Layer 1
10
8.632968
20
37.541750
11
8.732197
21
39.850489
0
LINE
8
Layer 1
10
8.732197
20
39.850489
11
9.208498
21
41.742460
0
LINE
8
Layer 1
10
9.208498
20
41.742460
11
9.939384
21
43.575827
0
LINE
8
Layer 1
10
9.939384
20
43.575827
11
10.863148
21
45.141894
0
LINE
8
Layer 1
10
10.863148
20
45.141894
11
11.996534
21
46.463608
0
LINE
8
Layer 1
10
11.996534
20
46.463608
11
13.356288
21
47.563920
0
LINE
8
Layer 1
10
13.356288
20
47.563920
11
15.005975
21
48.380908
0
LINE
8
Layer 1
10
15.005975
20
48.380908
11
16.869008
21
48.880360
0
LINE
8
Layer 1
10
16.869008
20
48.880360
11
17.530537
21
48.979589
0
LINE
8
Layer 1
10
17.530537
20
48.979589
11
20.408187
21
48.853898
0
LINE
8
Layer 1
10
20.408187
20
48.853898
11
20.408170
21
48.853860
0
LINE
8
Layer 1
10
41.696170
20
48.820784
11
42.999384
21
48.449086
0
LINE
8
Layer 1
10
42.999384
20
48.449086
11
44.183520
21
47.896296
0
LINE
8
Layer 1
10
44.183520
20
47.896296
11
45.283311
21
47.142567
0
LINE
8
Layer 1
10
45.283311
20
47.142567
11
46.333490
21
46.168054
0
LINE
8
Layer 1
10
46.333490
20
46.168054
11
47.457571
21
44.749592
0
LINE
8
Layer 1
10
47.457571
20
44.749592
11
48.345362
21
43.110965
0
LINE
8
Layer 1
10
48.345362
20
43.110965
11
48.991283
21
41.262715
0
LINE
8
Layer 1
10
48.991283
20
41.262715
11
49.389750
21
39.215384
0
LINE
8
Layer 1
10
49.389750
20
39.215384
11
49.446497
21
36.726587
0
LINE
8
Layer 1
10
49.446497
20
36.726587
11
49.035005
21
34.045537
0
LINE
8
Layer 1
10
49.035005
20
34.045537
11
48.175741
21
31.265260
0
LINE
8
Layer 1
10
48.175741
20
31.265260
11
46.889170
21
28.478784
0
LINE
8
Layer 1
10
46.889170
20
28.478784
11
44.440684
21
24.571109
0
LINE
8
Layer 1
10
44.440684
20
24.571109
11
41.267829
21
20.531331
0
LINE
8
Layer 1
10
41.267829
20
20.531331
11
37.452469
21
16.453104
0
LINE
8
Layer 1
10
37.452469
20
16.453104
11
33.076470
21
12.430084
0
LINE
8
Layer 1
10
33.076470
20
12.430084
11
28.955140
21
9.062904
0
LINE
8
Layer 1
10
28.955140
20
9.062904
11
28.736835
21
9.274593
0
LINE
8
Layer 1
10
28.736835
20
9.274593
11
28.544992
21
9.486282
0
LINE
8
Layer 1
10
28.544992
20
9.486282
11
28.736835
21
9.340746
0
LINE
8
Layer 1
10
28.736835
20
9.340746
11
29.001447
21
9.241516
0
LINE
8
Layer 1
10
29.001447
20
9.241516
11
34.697207
21
14.083906
0
LINE
8
Layer 1
10
34.697207
20
14.083906
11
40.187897
21
19.587826
0
LINE
8
Layer 1
10
40.187897
20
19.587826
11
43.559211
21
23.752980
0
LINE
8
Layer 1
10
43.559211
20
23.752980
11
46.042427
21
27.486486
0
LINE
8
Layer 1
10
46.042427
20
27.486486
11
47.333340
21
29.946652
0
LINE
8
Layer 1
10
47.333340
20
29.946652
11
48.232917
21
32.189131
0
LINE
8
Layer 1
10
48.232917
20
32.189131
11
48.776506
21
34.321218
0
LINE
8
Layer 1
10
48.776506
20
34.321218
11
48.999457
21
36.450206
0
LINE
8
Layer 1
10
48.999457
20
36.450206
11
48.899401
21
38.859000
0
LINE
8
Layer 1
10
48.899401
20
38.859000
11
48.377620
21
41.213216
0
LINE
8
Layer 1
10
48.377620
20
41.213216
11
47.535824
21
43.161419
0
LINE
8
Layer 1
10
47.535824
20
43.161419
11
46.168110
21
44.831776
0
LINE
8
Layer 1
10
46.168110
20
44.831776
11
44.953378
21
45.881955
0
LINE
8
Layer 1
10
44.953378
20
45.881955
11
43.614610
21
46.664216
0
LINE
8
Layer 1
10
43.614610
20
46.664216
11
42.397394
21
47.195093
0
LINE
8
Layer 1
10
42.397394
20
47.195093
11
41.080950
21
47.577126
0
LINE
8
Layer 1
10
41.080950
20
47.577126
11
38.990520
21
47.808661
0
LINE
8
Layer 1
10
38.990520
20
47.808661
11
37.270545
21
47.759873
0
LINE
8
Layer 1
10
37.270545
20
47.759873
11
35.292570
21
47.338975
0
LINE
8
Layer 1
10
35.292570
20
47.338975
11
33.095466
21
46.646024
0
LINE
8
Layer 1
10
33.095466
20
46.646024
11
30.992630
21
45.744695
0
LINE
8
Layer 1
10
30.992630
20
45.744695
11
30.200447
21
45.405661
0
LINE
8
Layer 1
10
30.200447
20
45.405661
11
31.204319
21
46.207765
0
LINE
8
Layer 1
10
31.204319
20
46.207765
11
32.348765
21
47.018965
0
LINE
8
Layer 1
10
32.348765
20
47.018965
11
33.314599
21
47.537435
0
LINE
8
Layer 1
10
33.314599
20
47.537435
11
35.822623
21
48.380883
0
LINE
8
Layer 1
10
35.822623
20
48.380883
11
38.573759
21
48.946495
0
LINE
8
Layer 1
10
38.573759
20
48.946495
11
40.164737
21
48.980398
0
LINE
8
Layer 1
10
40.164737
20
48.980398
11
41.696179
21
48.820804
0
LINE
8
Layer 1
10
41.696179
20
48.820804
11
41.696170
21
48.820784
0
LINE
8
Layer 1
10
21.301270
20
47.464654
11
24.741220
21
46.525283
0
LINE
8
Layer 1
10
24.741220
20
46.525283
11
26.904417
21
45.537949
0
LINE
8
Layer 1
10
26.904417
20
45.537949
11
28.849320
21
44.441463
0
LINE
8
Layer 1
10
28.849320
20
44.441463
11
29.709308
21
44.798688
0
LINE
8
Layer 1
10
29.709308
20
44.798688
11
32.242968
21
46.075438
0
LINE
8
Layer 1
10
32.242968
20
46.075438
11
34.878333
21
46.987523
0
LINE
8
Layer 1
10
34.878333
20
46.987523
11
37.369818
21
47.537418
0
LINE
8
Layer 1
10
37.369818
20
47.537418
11
39.279775
21
47.597163
0
LINE
8
Layer 1
10
39.279775
20
47.597163
11
41.243069
21
47.290998
0
LINE
8
Layer 1
10
41.243069
20
47.290998
11
43.131943
21
46.649934
0
LINE
8
Layer 1
10
43.131943
20
46.649934
11
44.818638
21
45.704978
0
LINE
8
Layer 1
10
44.818638
20
45.704978
11
46.068927
21
44.622550
0
LINE
8
Layer 1
10
46.068927
20
44.622550
11
47.081068
21
43.495468
0
LINE
8
Layer 1
10
47.081068
20
43.495468
11
47.993978
21
41.676268
0
LINE
8
Layer 1
10
47.993978
20
41.676268
11
48.695199
21
38.798618
0
LINE
8
Layer 1
10
48.695199
20
38.798618
11
48.774583
21
37.007527
0
LINE
8
Layer 1
10
48.774583
20
37.007527
11
48.695199
21
35.226358
0
LINE
8
Layer 1
10
48.695199
20
35.226358
11
48.020439
21
32.249478
0
LINE
8
Layer 1
10
48.020439
20
32.249478
11
47.327980
21
30.496891
0
LINE
8
Layer 1
10
47.327980
20
30.496891
11
46.440006
21
28.682596
0
LINE
8
Layer 1
10
46.440006
20
28.682596
11
44.099223
21
24.899891
0
LINE
8
Layer 1
10
44.099223
20
24.899891
11
41.041497
21
20.963380
0
LINE
8
Layer 1
10
41.041497
20
20.963380
11
37.310239
21
16.935078
0
LINE
8
Layer 1
10
37.310239
20
16.935078
11
35.557189
21
15.215098
0
LINE
8
Layer 1
10
35.557189
20
15.215098
11
34.366439
21
14.116958
0
LINE
8
Layer 1
10
34.366439
20
14.116958
11
29.120519
21
9.618558
0
LINE
8
Layer 1
10
29.120519
20
9.618558
11
28.948521
21
9.473022
0
LINE
8
Layer 1
10
28.948521
20
9.473022
11
28.710371
21
9.645020
0
LINE
8
Layer 1
10
28.710371
20
9.645020
11
24.430281
21
13.243740
0
LINE
8
Layer 1
10
24.430281
20
13.243740
11
20.792695
21
16.725863
0
LINE
8
Layer 1
10
20.792695
20
16.725863
11
17.358531
21
20.341950
0
LINE
8
Layer 1
10
17.358531
20
20.341950
11
15.183755
21
22.961605
0
LINE
8
Layer 1
10
15.183755
20
22.961605
11
13.316591
21
25.501880
0
LINE
8
Layer 1
10
13.316591
20
25.501880
11
12.013277
21
27.630660
0
LINE
8
Layer 1
10
12.013277
20
27.630660
11
10.917723
21
29.791069
0
LINE
8
Layer 1
10
10.917723
20
29.791069
11
10.083887
21
31.865894
0
LINE
8
Layer 1
10
10.083887
20
31.865894
11
9.565721
21
33.737920
0
LINE
8
Layer 1
10
9.565721
20
33.737920
11
9.292737
21
36.061126
0
LINE
8
Layer 1
10
9.292737
20
36.061126
11
9.356512
21
38.401697
0
LINE
8
Layer 1
10
9.356512
20
38.401697
11
9.741543
21
40.603347
0
LINE
8
Layer 1
10
9.741543
20
40.603347
11
10.432324
21
42.509790
0
LINE
8
Layer 1
10
10.432324
20
42.509790
11
11.159799
21
43.642971
0
LINE
8
Layer 1
10
11.159799
20
43.642971
11
12.188682
21
44.733357
0
LINE
8
Layer 1
10
12.188682
20
44.733357
11
13.440831
21
45.710870
0
LINE
8
Layer 1
10
13.440831
20
45.710870
11
14.838104
21
46.505430
0
LINE
8
Layer 1
10
14.838104
20
46.505430
11
16.376160
21
47.081787
0
LINE
8
Layer 1
10
16.376160
20
47.081787
11
17.914214
21
47.464647
0
LINE
8
Layer 1
10
17.914214
20
47.464647
11
18.754356
21
47.590338
0
LINE
8
Layer 1
10
18.754356
20
47.590338
11
21.301246
21
47.464647
0
LINE
8
Layer 1
10
21.301246
20
47.464647
11
21.301270
21
47.464654
0
LINE
8
Layer 1
10
28.022400
20
9.903054
11
27.909940
21
9.962591
0
LINE
8
Layer 1
10
27.909940
20
9.962591
11
26.712570
21
10.974731
0
LINE
8
Layer 1
10
26.712570
20
10.974731
11
25.627660
21
11.914102
0
LINE
8
Layer 1
10
25.627660
20
11.914102
11
26.778720
21
10.987961
0
LINE
8
Layer 1
10
26.778720
20
10.987961
11
28.022390
21
9.903051
0
LINE
8
Layer 1
10
28.022390
20
9.903051
11
28.022400
21
9.903054
0
LINE
8
Layer 1
10
28.313473
20
9.691365
11
28.432548
21
9.525983
0
LINE
8
Layer 1
10
28.432548
20
9.525983
11
28.247320
21
9.691365
0
LINE
8
Layer 1
10
28.247320
20
9.691365
11
28.128245
21
9.856747
0
LINE
8
Layer 1
10
28.128245
20
9.856747
11
28.313473
21
9.691365
0
LINE
8
Layer 1
10
28.313473
20
9.691365
11
28.313473
21
9.691365
 0 
ENDSEC
 0 
EOF