<?xml version="1.0" standalone="no"?>
<!DOCTYPE svg PUBLIC "-//W3C//DTD SVG 20010904//EN"
 "http://www.w3.org/TR/2001/REC-SVG-20010904/DTD/svg10.dtd">
<svg version="1.0" xmlns="http://www.w3.org/2000/svg"
 width="113.385827pt" height="113.385827pt" viewBox="0 0 113.385827 113.385827"
 preserveAspectRatio="xMidYMid meet">
<metadata>
Created by potrace 1.16, written by Peter Selinger 2001-2019
</metadata>
<g transform="translate(0.000000,113.385827) scale(0.018741,-0.018741)"
fill="#000000" stroke="none">
<path d="M1209 5611 c-31 -24 -149 -189 -218 -303 -138 -230 -265 -606 -247
-735 6 -43 2 -50 -150 -305 -85 -144 -166 -282 -178 -307 -19 -36 -303 -733
-398 -976 -19 -47 -19 -60 -9 -245 6 -107 18 -334 26 -505 9 -170 20 -395 25
-500 17 -331 23 -515 18 -515 -3 0 -22 7 -41 15 l-36 15 0 -133 -1 -132 38 45
c20 24 46 55 57 68 l21 24 98 -73 98 -74 -156 -39 -156 -38 0 -29 c0 -16 3
-29 8 -29 30 0 356 90 367 101 15 15 37 223 76 709 13 151 24 277 25 279 5 6
86 -44 244 -149 80 -52 198 -129 262 -169 65 -41 116 -76 114 -79 -3 -2 -70
12 -151 32 -81 20 -154 36 -163 36 -17 0 -188 -116 -209 -141 -6 -8 -14 -57
-18 -110 -7 -92 -6 -98 15 -119 l23 -23 291 7 c160 3 345 8 411 11 138 6 138
6 -138 -60 -187 -44 -197 -48 -203 -72 -8 -30 43 -282 60 -299 15 -16 381 -30
390 -15 5 8 13 8 27 0 21 -11 99 27 308 147 93 54 112 74 95 101 -9 14 -280
195 -307 205 -4 2 25 58 65 125 40 67 74 120 76 119 1 -2 -5 -20 -13 -40 -15
-35 -14 -42 16 -144 17 -59 38 -115 47 -124 14 -16 42 -18 308 -18 l293 0 19
25 c12 15 23 21 27 15 4 -7 590 -10 1846 -10 l1839 0 0 30 0 30 -1810 0
c-1721 0 -1810 1 -1800 17 8 15 137 472 160 568 5 21 9 -8 14 -90 4 -66 9
-132 12 -147 8 -40 42 -78 88 -99 39 -17 80 -19 726 -18 522 0 712 3 800 14
127 15 350 61 363 74 15 15 3 46 -18 45 -11 -1 -76 -13 -145 -27 -241 -50
-270 -52 -990 -52 -732 0 -726 0 -755 54 -9 19 -15 97 -20 276 l-7 250 -116
185 c-191 305 -240 362 -334 385 -16 4 -26 11 -23 16 3 4 -33 88 -81 186 -48
98 -106 219 -129 268 -23 50 -79 151 -123 224 -45 74 -80 136 -78 138 1 2 101
-4 222 -13 120 -9 305 -16 410 -17 l192 -2 43 30 c47 33 75 81 155 265 36 81
44 110 38 128 -5 12 -131 147 -279 300 -149 152 -283 299 -299 325 l-28 48 16
92 c9 51 41 225 71 387 106 568 100 528 80 550 -25 28 -45 25 -128 -16 -294
-148 -489 -364 -527 -587 -10 -53 -9 -71 2 -94 13 -28 84 -82 286 -219 61 -42
112 -78 112 -80 0 -2 -24 -2 -52 1 -230 23 -342 36 -346 40 -2 2 5 35 17 74
27 88 26 93 -5 131 l-27 31 -213 -7 -214 -7 -1 34 c0 19 -4 184 -8 368 -8 306
-10 335 -27 348 -24 18 -37 16 -65 -6z m1013 -148 c-182 -217 -419 -477 -408
-448 4 11 16 43 27 71 49 129 158 253 316 359 54 36 99 65 101 65 2 0 -14 -21
-36 -47z m94 -139 c-19 -98 -53 -285 -76 -414 -24 -129 -46 -239 -50 -244 -5
-4 -30 7 -57 25 -110 75 -313 221 -313 226 0 3 33 40 73 82 39 43 158 175 262
293 105 119 191 215 193 214 1 -2 -13 -84 -32 -182z m-1077 4 c0 -73 4 -210 7
-304 l7 -172 -24 -7 c-47 -14 -245 -114 -305 -153 l-62 -40 83 171 c68 139
184 399 271 605 8 17 16 32 18 32 2 0 4 -60 5 -132z m-98 80 c-54 -142 -303
-691 -323 -713 -30 -33 82 297 147 432 46 96 169 303 181 303 2 0 0 -10 -5
-22z m455 -595 c-7 -8 -629 -173 -633 -169 -5 4 163 94 237 127 72 32 82 34
230 39 85 4 159 7 164 8 5 1 6 -1 2 -5z m113 -90 c-10 -31 -19 -64 -19 -74 0
-10 -19 -35 -41 -56 -60 -55 -137 -160 -150 -204 -10 -30 -8 -51 5 -105 21
-81 15 -126 -24 -187 -37 -59 -86 -95 -161 -118 -222 -69 -450 60 -490 276 -8
42 -6 77 6 149 12 69 13 100 6 115 -15 28 -15 28 27 35 31 6 655 172 792 211
71 21 71 21 49 -42z m354 -174 l128 -12 28 -56 c16 -31 61 -128 101 -216 39
-88 81 -176 93 -195 21 -35 20 -34 -38 15 -69 57 -368 319 -435 379 -25 23
-63 56 -85 75 l-40 33 60 -6 c33 -3 118 -11 188 -17z m-345 -28 c19 -62 15
-90 -18 -123 -28 -28 -35 -30 -81 -26 -27 3 -52 8 -55 11 -7 7 123 177 135
177 4 0 13 -17 19 -39z m415 -306 c151 -132 269 -241 263 -242 -6 -2 -130 -12
-276 -23 -146 -11 -303 -23 -349 -27 -79 -6 -84 -8 -101 -36 -41 -66 -51 -275
-18 -344 7 -16 23 -29 36 -31 12 -2 29 -16 36 -31 8 -15 49 -82 90 -149 42
-67 76 -130 76 -139 0 -18 -17 -49 -206 -383 -96 -171 -134 -247 -139 -280 -5
-41 -22 -230 -86 -981 l-22 -256 -206 -7 c-113 -3 -255 -9 -316 -11 -60 -3
-105 -3 -100 0 6 2 109 29 229 59 121 31 226 62 234 70 13 13 6 37 -68 205
l-82 190 120 318 c155 410 248 689 368 1107 58 204 61 220 40 269 -11 28 -25
37 -108 70 -110 44 -231 111 -378 211 -97 66 -230 179 -230 195 0 4 27 -6 59
-22 80 -39 189 -55 279 -39 214 36 338 204 286 388 -5 20 -2 21 49 16 102 -8
177 56 177 153 l0 47 35 -29 c19 -15 157 -136 308 -268z m-1353 214 c-19 -65
-12 -200 15 -294 30 -104 44 -133 98 -203 96 -126 428 -347 642 -427 84 -32
87 -46 40 -211 -108 -378 -246 -799 -365 -1114 -45 -118 -89 -234 -97 -258 -8
-24 -17 -42 -18 -40 -3 3 -148 399 -344 938 -61 168 -125 341 -142 385 -19 49
-51 184 -84 350 -78 397 -78 343 -3 471 137 236 262 443 265 441 1 -2 -2 -19
-7 -38z m1765 -298 c94 -96 161 -170 150 -166 -11 4 -59 20 -107 34 l-87 26
-66 137 c-36 76 -65 141 -65 144 0 4 1 5 3 3 1 -3 79 -83 172 -178z m100 -216
c71 -23 75 -25 32 -20 -26 2 -64 14 -85 24 -48 26 -43 25 53 -4z m-98 -124
c86 -124 99 -104 -111 -177 l-139 -48 -71 39 c-154 84 -442 247 -450 256 -6 5
13 9 50 10 32 0 185 11 339 23 197 16 284 19 294 12 7 -6 47 -58 88 -115z
m136 40 l58 -6 -33 -47 c-18 -26 -36 -48 -40 -48 -4 0 -26 28 -49 62 -38 56
-40 60 -18 53 13 -4 50 -10 82 -14z m-898 -49 c142 -77 400 -222 415 -232 11
-8 2 -9 -35 -6 -27 3 -142 10 -255 17 -113 6 -206 12 -207 13 -17 13 -12 246
5 246 4 0 39 -18 77 -38z m-1275 -672 c-15 -223 -88 -1131 -100 -1255 -5 -55
-17 -192 -25 -305 -9 -113 -22 -267 -30 -342 -8 -75 -15 -140 -15 -143 0 -3
-43 24 -97 59 -71 48 -97 71 -98 88 -2 13 -6 88 -9 168 -4 80 -16 314 -26 520
-11 206 -27 523 -35 704 l-16 329 166 411 c91 226 171 422 177 436 9 21 19
-12 65 -240 l55 -265 -12 -165z m2153 490 c-23 -39 -50 -57 -105 -69 -40 -9
-164 -4 -154 6 7 7 249 92 264 92 10 1 8 -7 -5 -29z m-1806 -1245 c102 -280
210 -566 240 -635 30 -69 57 -131 60 -138 3 -7 -37 14 -88 46 -95 60 -545 348
-572 367 -15 10 -3 195 69 1054 l7 83 49 -133 c27 -74 132 -363 235 -644z
m1187 527 l96 -193 -26 -9 c-14 -6 -29 -10 -33 -10 -17 0 -91 -73 -114 -112
-14 -24 -36 -77 -48 -118 -30 -95 -30 -231 0 -580 11 -135 22 -258 23 -275 l3
-29 -123 -25 c-67 -13 -125 -21 -128 -18 -4 3 21 158 55 344 65 362 162 953
182 1120 7 56 14 101 15 100 1 -1 46 -89 98 -195z m-190 -32 c-35 -239 -149
-924 -190 -1134 l-35 -181 -66 -110 -65 -110 6 65 c3 36 26 313 52 615 l46
550 92 160 c51 88 112 195 137 237 24 42 44 76 45 75 1 -1 -9 -76 -22 -167z
m372 -240 c46 -18 94 -75 209 -250 67 -102 133 -205 148 -230 l26 -45 -33
-115 c-18 -63 -63 -230 -101 -371 -37 -141 -71 -262 -75 -269 -6 -9 -53 16
-165 86 -86 55 -173 111 -194 125 l-37 26 -12 144 c-48 559 -50 625 -13 730
52 152 136 209 247 169z m-1207 -1127 c162 -39 190 -48 165 -55 -110 -30 -497
-119 -500 -115 -5 5 126 217 135 217 3 0 94 -21 200 -47z m-350 -70 c-28 -43
-52 -79 -54 -81 -2 -2 -1 16 2 40 4 35 13 50 46 80 23 21 45 38 49 38 4 0 -15
-35 -43 -77z m1181 52 c0 -3 -26 -46 -57 -96 l-57 -92 -17 62 c-20 72 -13 108
23 115 13 3 32 7 43 9 30 7 65 8 65 2z m322 -168 l96 -82 -114 -3 c-63 -1
-165 -1 -228 0 l-114 3 57 91 c32 51 67 108 79 129 l22 37 53 -47 c28 -25 95
-83 149 -128z m115 15 c75 -49 81 -56 71 -75 -9 -18 -12 -18 -22 -6 -6 8 -50
48 -98 88 -49 40 -88 75 -88 78 0 6 9 0 137 -85z m-644 -222 c65 -41 117 -77
117 -80 0 -6 -274 -160 -277 -156 -6 5 32 316 38 314 3 -2 58 -37 122 -78z
m-333 17 c-25 -23 -94 -84 -153 -135 -98 -85 -107 -90 -112 -70 -28 121 -35
161 -31 165 5 5 310 80 331 82 6 0 -10 -18 -35 -42z m50 -67 c-23 -46 -25 -85
-6 -157 l14 -53 -106 1 c-185 2 -183 -4 -30 131 73 64 136 117 141 117 4 1 -2
-17 -13 -39z m72 -65 l-16 -100 -9 52 c-8 44 -6 58 13 102 13 28 24 50 26 48
1 -1 -5 -47 -14 -102z"/>
</g>
</svg>
