<?xml version="1.0" standalone="no"?>
<!DOCTYPE svg PUBLIC "-//W3C//DTD SVG 20010904//EN"
 "http://www.w3.org/TR/2001/REC-SVG-20010904/DTD/svg10.dtd">
<svg version="1.0" xmlns="http://www.w3.org/2000/svg"
 width="170.078740pt" height="170.078740pt" viewBox="0 0 170.078740 170.078740"
 preserveAspectRatio="xMidYMid meet">
<metadata>
Created by potrace 1.16, written by Peter Selinger 2001-2019
</metadata>
<g transform="translate(0.000000,170.078740) scale(0.018752,-0.018752)"
fill="#000000" stroke="none">
<path d="M4480 7991 l0 -1078 -57 -7 c-32 -3 -426 -5 -876 -5 l-818 1 -47 57
c-26 32 -114 136 -197 232 -82 96 -184 215 -225 264 -116 140 -203 240 -212
243 -4 2 -8 -740 -8 -1648 l0 -1652 43 -47 c23 -26 119 -120 212 -208 333
-314 289 -261 420 -513 65 -124 210 -412 323 -640 l206 -415 145 -155 c79 -85
280 -297 446 -470 294 -308 535 -564 608 -646 l37 -41 0 -626 0 -626 -82 -4
c-67 -2 -60 -3 40 -5 l122 -2 0 638 1 637 162 170 c89 94 291 308 448 475 157
168 358 382 446 476 l161 170 170 330 c93 181 241 468 328 637 l157 309 284
276 283 276 -1 1660 0 1661 -37 -44 c-146 -173 -646 -757 -653 -761 -4 -3
-398 -5 -876 -5 l-868 0 -3 1083 -2 1082 -40 0 -40 0 0 -1079z m2442 -2023
l-4 -1543 -56 -61 c-32 -34 -61 -62 -67 -63 -7 -1 -9 436 -7 1298 l2 1299
-146 7 c-80 4 -165 5 -190 2 -24 -2 -44 -2 -44 0 0 3 46 57 103 121 57 64 141
162 186 217 110 132 223 265 225 265 1 0 1 -694 -2 -1542z m-4641 1345 c184
-212 339 -398 339 -407 0 -4 -83 -6 -185 -4 l-185 3 0 -1305 0 -1304 -65 64
-65 64 0 1533 c0 843 2 1533 4 1533 2 0 73 -80 157 -177z m3300 -673 l939 0 0
-1303 0 -1303 -547 -545 c-302 -299 -743 -739 -982 -976 -239 -238 -435 -433
-435 -433 -1 0 0 1026 2 2279 l2 2280 28 4 c15 2 33 2 40 0 8 -1 436 -3 953
-3z m-1101 -2272 l0 -2273 -302 301 c-167 165 -610 603 -985 973 l-683 673 0
1299 0 1299 985 0 985 0 0 -2272z m-1250 -1144 c217 -213 587 -579 823 -813
l427 -426 0 -301 0 -301 -98 101 c-53 56 -133 139 -177 186 -43 47 -120 128
-170 180 -50 52 -219 230 -376 394 -156 165 -298 315 -316 333 -20 20 -128
227 -289 550 -142 285 -260 522 -263 528 -2 5 7 -2 20 -16 13 -14 202 -201
419 -415z m2904 199 c-122 -239 -276 -538 -366 -709 -56 -107 -88 -143 -554
-639 -83 -88 -193 -206 -245 -262 -130 -140 -403 -427 -409 -431 -3 -1 -4 132
-2 295 l2 298 839 838 c462 460 842 837 845 837 3 0 -47 -102 -110 -227z"/>
<path d="M5127 5544 c-9 -9 -7 -441 1 -471 7 -21 9 -21 247 -20 l240 2 0 245
0 245 -241 3 c-132 1 -243 -1 -247 -4z"/>
<path d="M3440 5300 l0 -250 243 2 242 3 3 248 2 247 -245 0 -245 0 0 -250z"/>
<path d="M28 3 c18 -2 45 -2 60 0 15 2 0 4 -33 4 -33 0 -45 -2 -27 -4z"/>
<path d="M458 3 c166 -2 438 -2 605 0 166 1 30 2 -303 2 -333 0 -469 -1 -302
-2z"/>
<path d="M1453 3 c31 -2 83 -2 115 0 31 2 5 3 -58 3 -63 0 -89 -1 -57 -3z"/>
<path d="M1673 3 c15 -2 37 -2 50 0 12 2 0 4 -28 4 -27 0 -38 -2 -22 -4z"/>
<path d="M1818 3 c28 -2 76 -2 105 0 28 2 5 3 -53 3 -58 0 -81 -1 -52 -3z"/>
<path d="M2043 3 c15 -2 37 -2 50 0 12 2 0 4 -28 4 -27 0 -38 -2 -22 -4z"/>
<path d="M2208 3 c39 -2 105 -2 145 0 39 1 7 3 -73 3 -80 0 -112 -2 -72 -3z"/>
<path d="M2507 3 c18 -2 50 -2 70 0 21 2 7 4 -32 4 -38 0 -55 -2 -38 -4z"/>
<path d="M2663 3 c26 -2 68 -2 95 0 26 2 4 3 -48 3 -52 0 -74 -1 -47 -3z"/>
<path d="M2878 3 c28 -2 76 -2 105 0 28 2 5 3 -53 3 -58 0 -81 -1 -52 -3z"/>
<path d="M3178 3 c29 -2 74 -2 100 0 26 2 2 3 -53 3 -55 0 -76 -1 -47 -3z"/>
<path d="M3398 3 c6 -2 18 -2 25 0 6 3 1 5 -13 5 -14 0 -19 -2 -12 -5z"/>
<path d="M3483 3 c15 -2 39 -2 55 0 15 2 2 4 -28 4 -30 0 -43 -2 -27 -4z"/>
<path d="M3588 3 c12 -2 32 -2 45 0 12 2 2 4 -23 4 -25 0 -35 -2 -22 -4z"/>
<path d="M3838 3 c90 -2 234 -2 320 0 86 1 13 3 -163 3 -176 0 -247 -2 -157
-3z"/>
<path d="M4662 3 c48 -2 129 -2 180 0 51 1 12 3 -87 3 -99 0 -141 -2 -93 -3z"/>
<path d="M5028 3 c45 -2 119 -2 165 0 45 1 8 3 -83 3 -91 0 -128 -2 -82 -3z"/>
<path d="M5333 3 c15 -2 37 -2 50 0 12 2 0 4 -28 4 -27 0 -38 -2 -22 -4z"/>
<path d="M5473 3 c9 -2 25 -2 35 0 9 3 1 5 -18 5 -19 0 -27 -2 -17 -5z"/>
<path d="M5653 3 c42 -2 112 -2 155 0 42 1 7 3 -78 3 -85 0 -120 -2 -77 -3z"/>
<path d="M6122 3 c70 -2 187 -2 260 0 73 1 16 3 -127 3 -143 0 -203 -2 -133
-3z"/>
<path d="M6573 3 c31 -2 83 -2 115 0 31 2 5 3 -58 3 -63 0 -89 -1 -57 -3z"/>
<path d="M6788 3 c7 -3 16 -2 19 1 4 3 -2 6 -13 5 -11 0 -14 -3 -6 -6z"/>
<path d="M6988 3 c23 -2 61 -2 85 0 23 2 4 4 -43 4 -47 0 -66 -2 -42 -4z"/>
<path d="M7218 3 c45 -2 119 -2 165 0 45 1 8 3 -83 3 -91 0 -128 -2 -82 -3z"/>
<path d="M7833 3 c203 -2 531 -2 730 0 199 1 34 2 -368 2 -401 0 -564 -1 -362
-2z"/>
<path d="M8958 3 c17 -2 47 -2 65 0 17 2 3 4 -33 4 -36 0 -50 -2 -32 -4z"/>
</g>
</svg>
