<?xml version="1.0" standalone="no"?>
<!DOCTYPE svg PUBLIC "-//W3C//DTD SVG 20010904//EN"
 "http://www.w3.org/TR/2001/REC-SVG-20010904/DTD/svg10.dtd">
<svg version="1.0" xmlns="http://www.w3.org/2000/svg"
 width="170.078740pt" height="170.078740pt" viewBox="0 0 170.078740 170.078740"
 preserveAspectRatio="xMidYMid meet">
<metadata>
Created by potrace 1.16, written by Peter Selinger 2001-2019
</metadata>
<g transform="translate(0.000000,170.078740) scale(0.018752,-0.018752)"
fill="#000000" stroke="none">
<path d="M1115 7959 c-164 -18 -257 -70 -310 -174 l-30 -59 1 -180 c1 -195 18
-312 85 -563 98 -371 303 -870 397 -971 l41 -44 -34 -201 c-49 -292 -58 -420
-52 -695 12 -528 127 -1107 327 -1646 260 -702 666 -1230 1114 -1450 243 -120
522 -176 866 -176 130 1 146 5 168 47 18 33 14 62 -11 87 -22 22 -32 24 -213
29 -221 6 -354 25 -510 73 -183 55 -324 128 -469 243 -67 53 -243 231 -307
310 -291 360 -526 888 -672 1506 -108 459 -144 776 -133 1182 6 239 12 291 59
531 l33 163 105 78 c188 141 458 381 780 697 l175 172 98 -16 c95 -15 98 -15
125 4 15 12 33 33 40 47 16 33 6 55 -55 118 l-44 46 100 82 c269 220 554 362
886 441 175 42 270 53 455 54 181 0 283 -11 497 -55 226 -47 532 -153 734
-255 l72 -36 -54 -31 c-114 -66 -149 -105 -149 -166 0 -44 50 -96 113 -118 39
-14 80 -18 167 -17 122 0 191 14 304 59 l63 25 84 -56 c410 -276 672 -506 866
-762 l56 -73 -27 -87 c-60 -199 -26 -336 158 -630 90 -143 102 -168 132 -254
72 -213 54 -465 -56 -783 -118 -341 -328 -642 -520 -744 -110 -59 -218 -73
-375 -50 -71 11 -79 10 -103 -8 -40 -30 -42 -84 -4 -122 26 -26 36 -29 127
-36 201 -15 332 11 464 93 255 157 508 567 621 1006 41 161 53 270 47 421 -9
213 -49 328 -206 587 -44 73 -91 158 -105 189 -29 63 -49 154 -44 202 2 24 10
4 30 -77 15 -60 36 -122 46 -139 33 -57 111 -55 136 4 11 27 9 44 -19 153 -18
67 -44 160 -58 206 l-27 85 31 40 c197 261 373 680 464 1106 35 163 37 275 7
343 -34 74 -70 116 -121 139 -164 76 -865 -58 -1501 -286 -163 -58 -312 -117
-327 -129 -8 -7 -62 15 -172 70 -345 173 -669 274 -1066 334 -115 17 -453 17
-560 -1 -264 -42 -517 -123 -740 -236 l-160 -81 -75 27 c-41 15 -199 72 -350
127 -151 55 -331 116 -400 135 -384 112 -794 171 -1015 146z m415 -179 c230
-32 483 -96 750 -189 315 -110 494 -177 496 -186 3 -8 -65 -68 -191 -169 l-24
-19 -93 46 c-249 123 -580 200 -863 201 -177 1 -264 -14 -337 -58 -101 -61
-133 -187 -83 -326 76 -207 98 -280 120 -383 27 -128 48 -340 43 -442 l-3 -70
-37 65 c-86 152 -239 566 -307 833 -67 256 -92 568 -51 634 55 91 239 110 580
63z m5864 -70 c14 -5 35 -24 47 -42 18 -29 20 -44 15 -113 -16 -266 -195 -796
-354 -1050 -29 -46 -31 -48 -36 -25 -3 14 -17 84 -31 155 -41 204 -123 509
-170 637 -24 65 -63 147 -86 182 -39 60 -112 126 -138 126 -6 0 -11 4 -11 10
0 20 269 75 565 114 125 17 167 19 199 6z m-813 -288 c74 -48 144 -205 222
-503 43 -164 110 -460 104 -465 -2 -2 -36 34 -76 81 -157 182 -419 405 -689
585 -67 44 -122 83 -122 84 0 6 241 162 280 181 141 73 210 81 281 37z m-586
-30 c-49 -43 -139 -102 -144 -95 -3 6 -15 15 -26 21 -19 10 -19 11 5 21 131
55 188 73 165 53z m-329 -166 c20 -13 31 -26 27 -29 -13 -8 -224 -29 -231 -23
-2 3 6 10 19 15 13 5 49 21 79 35 68 31 64 31 106 2z m-4320 -30 c8 -8 33 -17
57 -20 23 -3 119 -15 212 -27 94 -11 231 -33 305 -50 163 -35 430 -109 430
-118 0 -10 -347 -350 -465 -457 -111 -100 -372 -324 -377 -324 -2 0 -3 66 -4
148 -2 242 -43 458 -135 709 -27 73 -49 137 -49 143 0 14 9 12 26 -4z"/>
<path d="M2788 5695 c-335 -55 -562 -226 -596 -448 -18 -116 22 -229 128 -360
117 -144 267 -241 449 -288 100 -26 294 -28 401 -4 174 39 345 154 430 288
l37 58 7 -43 c17 -107 36 -362 46 -616 6 -152 15 -306 21 -341 21 -134 86
-216 281 -353 149 -105 188 -145 218 -224 26 -71 22 -116 -20 -189 -60 -105
-126 -144 -286 -171 -117 -19 -251 -14 -392 15 -154 32 -244 94 -421 288 -50
56 -103 104 -116 107 -31 8 -71 -8 -84 -33 -32 -60 1 -115 173 -287 152 -151
272 -214 477 -250 127 -22 361 -15 472 15 155 41 225 92 306 223 l48 77 44
-46 c117 -122 268 -218 392 -250 79 -20 279 -23 324 -4 60 25 74 113 23 141
-9 5 -64 9 -121 8 -182 -2 -268 27 -406 136 -96 76 -168 161 -157 185 39 84
87 256 91 329 l6 84 31 -7 c135 -28 237 -11 293 48 81 85 95 158 102 545 l6
312 53 -43 c68 -56 175 -110 277 -138 114 -33 316 -33 428 -1 238 68 409 231
463 445 57 222 -92 474 -359 606 -106 53 -236 91 -372 112 -115 17 -325 14
-415 -5 -239 -52 -370 -208 -370 -442 0 -88 23 -159 91 -277 45 -78 51 -93 44
-125 -4 -20 -10 -210 -14 -422 -7 -417 -9 -432 -63 -457 -21 -11 -39 -10 -100
3 -40 9 -88 19 -106 23 -21 4 -37 15 -45 31 -15 30 -78 55 -174 68 -81 11
-210 1 -357 -29 -54 -11 -101 -17 -104 -14 -4 3 -8 36 -9 73 -18 460 -43 776
-78 977 -44 253 -160 438 -343 549 -187 112 -432 158 -654 121z m2408 -238
c-156 -100 -217 -163 -273 -286 -40 -84 -57 -84 -57 2 0 103 54 206 127 244
26 13 182 51 212 52 6 0 2 -6 -9 -12z m-2671 -165 c-8 -50 11 -165 36 -214 11
-22 18 -42 16 -45 -3 -2 -52 41 -109 96 -82 81 -100 103 -88 110 8 5 42 27 75
49 33 22 64 41 68 41 5 1 6 -16 2 -37z m794 -59 c36 -31 85 -75 108 -97 l43
-40 -83 -54 c-45 -30 -102 -64 -127 -77 -57 -29 -174 -65 -209 -65 -25 1 -25
2 9 20 53 28 116 93 145 150 19 38 28 73 32 136 3 46 8 84 11 84 3 0 35 -26
71 -57z m1830 -263 c13 -30 29 -66 37 -78 9 -13 14 -26 12 -28 -6 -5 -123 96
-148 128 l-21 28 43 82 43 83 6 -80 c4 -45 16 -104 28 -135z m810 73 l83 -78
-73 -51 c-87 -61 -217 -128 -278 -144 -53 -14 -64 -7 -21 15 102 53 160 147
168 272 6 98 0 98 121 -14z m-1832 -1211 c-21 -23 -22 -74 -2 -113 15 -27 9
-25 -67 29 -45 32 -84 64 -86 70 -2 7 8 12 25 13 15 0 53 6 83 13 30 6 57 10
59 9 2 -2 -3 -11 -12 -21z m263 -198 c0 -37 -21 -114 -31 -114 -5 0 -9 13 -9
29 0 16 -9 58 -20 93 -11 34 -20 67 -20 71 0 5 18 -6 40 -23 27 -22 40 -40 40
-56z"/>
<path d="M7632 3361 c-61 -21 -130 -83 -167 -148 -13 -24 -49 -111 -80 -194
-237 -632 -625 -1134 -1255 -1621 -381 -294 -743 -497 -1050 -589 -337 -100
-600 -85 -1605 92 -800 141 -1054 201 -1420 336 -259 96 -610 285 -910 491
-139 96 -449 313 -580 407 -183 131 -377 257 -471 307 l-94 50 0 -90 0 -89 83
-50 c87 -54 198 -130 688 -475 352 -247 508 -347 740 -476 349 -195 725 -333
1134 -417 72 -15 139 -31 150 -35 11 -5 -613 -9 -1387 -9 l-1408 -1 0 -75 0
-75 1883 -2 1882 -3 120 -22 c638 -116 960 -114 1320 8 527 178 1285 729 1721
1252 278 332 452 624 594 997 89 232 123 280 200 280 58 0 118 -24 380 -150
370 -179 586 -248 948 -304 21 -3 22 -1 22 79 l0 83 -72 12 c-127 19 -379 86
-508 134 -69 26 -215 91 -325 146 -303 150 -432 187 -533 151z"/>
</g>
</svg>
