999
"DXF R12 Output" (www.mydxf.blogspot.com)
 0 
SECTION
 2 
HEADER
 9 
$ACADVER
 1 
AC1009
 9 
$EXTMIN
 10 
 0 
 20 
 0 
 9 
$EXTMAX
 10 
 8.5 
 20 
 11 
 0 
ENDSEC
 0 
SECTION
 2 
ENTITIES
0
LINE
8
Layer 1
10
26.458300
20
7.540520
11
26.458300
21
-1.852180
0
LINE
8
Layer 1
10
26.458300
20
-1.852180
11
53.048900
21
-1.852180
0
LINE
8
Layer 1
10
53.048900
20
-1.852180
11
79.639500
21
-1.852180
0
LINE
8
Layer 1
10
79.639500
20
-1.852180
11
79.639500
21
7.540520
0
LINE
8
Layer 1
10
79.639500
20
7.540520
11
79.573354
21
15.689679
0
LINE
8
Layer 1
10
79.573354
20
15.689679
11
79.416258
21
16.760414
0
LINE
8
Layer 1
10
79.416258
20
16.760414
11
79.285000
21
16.907278
0
LINE
8
Layer 1
10
79.285000
20
16.907278
11
79.110334
21
16.933220
0
LINE
8
Layer 1
10
79.110334
20
16.933220
11
78.804410
21
16.770750
0
LINE
8
Layer 1
10
78.804410
20
16.770750
11
78.647314
21
15.772362
0
LINE
8
Layer 1
10
78.647314
20
15.772362
11
78.581168
21
8.201980
0
LINE
8
Layer 1
10
78.581168
20
8.201980
11
78.581168
21
-0.529260
0
LINE
8
Layer 1
10
78.581168
20
-0.529260
11
53.048868
21
-0.529260
0
LINE
8
Layer 1
10
53.048868
20
-0.529260
11
27.516568
21
-0.529260
0
LINE
8
Layer 1
10
27.516568
20
-0.529260
11
27.516568
21
8.201980
0
LINE
8
Layer 1
10
27.516568
20
8.201980
11
27.450422
21
15.772361
0
LINE
8
Layer 1
10
27.450422
20
15.772361
11
27.293326
21
16.770749
0
LINE
8
Layer 1
10
27.293326
20
16.770749
11
26.987402
21
16.933220
0
LINE
8
Layer 1
10
26.987402
20
16.933220
11
26.812736
21
16.907278
0
LINE
8
Layer 1
10
26.812736
20
16.907278
11
26.681478
21
16.760414
0
LINE
8
Layer 1
10
26.681478
20
16.760414
11
26.524382
21
15.689679
0
LINE
8
Layer 1
10
26.524382
20
15.689679
11
26.458236
21
7.540520
0
LINE
8
Layer 1
10
26.458236
20
7.540520
11
26.458300
21
7.540520
0
LINE
8
Layer 1
10
29.368700
20
-10.318800
11
29.533238
21
-10.624724
0
LINE
8
Layer 1
10
29.533238
20
-10.624724
11
30.546094
21
-10.781820
0
LINE
8
Layer 1
10
30.546094
20
-10.781820
11
38.232230
21
-10.847966
0
LINE
8
Layer 1
10
38.232230
20
-10.847966
11
47.095760
21
-10.847966
0
LINE
8
Layer 1
10
47.095760
20
-10.847966
11
47.095760
21
-21.828166
0
LINE
8
Layer 1
10
47.095760
20
-21.828166
11
47.095760
21
-32.808366
0
LINE
8
Layer 1
10
47.095760
20
-32.808366
11
49.873880
21
-32.808366
0
LINE
8
Layer 1
10
49.873880
20
-32.808366
11
52.652000
21
-32.808366
0
LINE
8
Layer 1
10
52.652000
20
-32.808366
11
52.652000
21
-35.189616
0
LINE
8
Layer 1
10
52.652000
20
-35.189616
11
52.652000
21
-37.570866
0
LINE
8
Layer 1
10
52.652000
20
-37.570866
11
34.131200
21
-37.570866
0
LINE
8
Layer 1
10
34.131200
20
-37.570866
11
17.994950
21
-37.637012
0
LINE
8
Layer 1
10
17.994950
20
-37.637012
11
15.925831
21
-37.794108
0
LINE
8
Layer 1
10
15.925831
20
-37.794108
11
15.654170
21
-37.925366
0
LINE
8
Layer 1
10
15.654170
20
-37.925366
11
15.610400
21
-38.100032
0
LINE
8
Layer 1
10
15.610400
20
-38.100032
11
15.654170
21
-38.274698
0
LINE
8
Layer 1
10
15.654170
20
-38.274698
11
15.925832
21
-38.405956
0
LINE
8
Layer 1
10
15.925832
20
-38.405956
11
17.994953
21
-38.563052
0
LINE
8
Layer 1
10
17.994953
20
-38.563052
11
34.131200
21
-38.629198
0
LINE
8
Layer 1
10
34.131200
20
-38.629198
11
52.652000
21
-38.629198
0
LINE
8
Layer 1
10
52.652000
20
-38.629198
11
52.652000
21
-40.216698
0
LINE
8
Layer 1
10
52.652000
20
-40.216698
11
52.652000
21
-41.804198
0
LINE
8
Layer 1
10
52.652000
20
-41.804198
11
44.317640
21
-41.804198
0
LINE
8
Layer 1
10
44.317640
20
-41.804198
11
35.983280
21
-41.804198
0
LINE
8
Layer 1
10
35.983280
20
-41.804198
11
35.983280
21
-42.465655
0
LINE
8
Layer 1
10
35.983280
20
-42.465655
11
35.983280
21
-43.153571
0
LINE
8
Layer 1
10
35.983280
20
-43.153571
11
44.264730
21
-43.127113
0
LINE
8
Layer 1
10
44.264730
20
-43.127113
11
52.519720
21
-43.074196
0
LINE
8
Layer 1
10
52.519720
20
-43.074196
11
52.599095
21
-46.275646
0
LINE
8
Layer 1
10
52.599095
20
-46.275646
11
52.678470
21
-49.477096
0
LINE
8
Layer 1
10
52.678470
20
-49.477096
11
49.212430
21
-49.477096
0
LINE
8
Layer 1
10
49.212430
20
-49.477096
11
46.272251
21
-49.553164
0
LINE
8
Layer 1
10
46.272251
20
-49.553164
11
45.852638
21
-49.711500
0
LINE
8
Layer 1
10
45.852638
20
-49.711500
11
45.772850
21
-50.006262
0
LINE
8
Layer 1
10
45.772850
20
-50.006262
11
45.916717
21
-50.312186
0
LINE
8
Layer 1
10
45.916717
20
-50.312186
11
46.784880
21
-50.469282
0
LINE
8
Layer 1
10
46.784880
20
-50.469282
11
53.313470
21
-50.535428
0
LINE
8
Layer 1
10
53.313470
20
-50.535428
11
59.842059
21
-50.469282
0
LINE
8
Layer 1
10
59.842059
20
-50.469282
11
60.710222
21
-50.312186
0
LINE
8
Layer 1
10
60.710222
20
-50.312186
11
60.854090
21
-50.006262
0
LINE
8
Layer 1
10
60.854090
20
-50.006262
11
60.772234
21
-49.711500
0
LINE
8
Layer 1
10
60.772234
20
-49.711500
11
60.338153
21
-49.553164
0
LINE
8
Layer 1
10
60.338153
20
-49.553164
11
57.282220
21
-49.477096
0
LINE
8
Layer 1
10
57.282220
20
-49.477096
11
53.683890
21
-49.477096
0
LINE
8
Layer 1
10
53.683890
20
-49.477096
11
53.763265
21
-46.275646
0
LINE
8
Layer 1
10
53.763265
20
-46.275646
11
53.842640
21
-43.074196
0
LINE
8
Layer 1
10
53.842640
20
-43.074196
11
61.991800
21
-43.127113
0
LINE
8
Layer 1
10
61.991800
20
-43.127113
11
70.114500
21
-43.153571
0
LINE
8
Layer 1
10
70.114500
20
-43.153571
11
70.114500
21
-42.465655
0
LINE
8
Layer 1
10
70.114500
20
-42.465655
11
70.114500
21
-41.804198
0
LINE
8
Layer 1
10
70.114500
20
-41.804198
11
61.912430
21
-41.804198
0
LINE
8
Layer 1
10
61.912430
20
-41.804198
11
53.710360
21
-41.804198
0
LINE
8
Layer 1
10
53.710360
20
-41.804198
11
53.710360
21
-40.216698
0
LINE
8
Layer 1
10
53.710360
20
-40.216698
11
53.710360
21
-38.629198
0
LINE
8
Layer 1
10
53.710360
20
-38.629198
11
71.834260
21
-38.629198
0
LINE
8
Layer 1
10
71.834260
20
-38.629198
11
87.623222
21
-38.563052
0
LINE
8
Layer 1
10
87.623222
20
-38.563052
11
89.648930
21
-38.405956
0
LINE
8
Layer 1
10
89.648930
20
-38.405956
11
89.915165
21
-38.274698
0
LINE
8
Layer 1
10
89.915165
20
-38.274698
11
89.958160
21
-38.100032
0
LINE
8
Layer 1
10
89.958160
20
-38.100032
11
89.915165
21
-37.925366
0
LINE
8
Layer 1
10
89.915165
20
-37.925366
11
89.648929
21
-37.794108
0
LINE
8
Layer 1
10
89.648929
20
-37.794108
11
87.623219
21
-37.637012
0
LINE
8
Layer 1
10
87.623219
20
-37.637012
11
71.834260
21
-37.570866
0
LINE
8
Layer 1
10
71.834260
20
-37.570866
11
53.710360
21
-37.570866
0
LINE
8
Layer 1
10
53.710360
20
-37.570866
11
53.710360
21
-35.189616
0
LINE
8
Layer 1
10
53.710360
20
-35.189616
11
53.710360
21
-32.834826
0
LINE
8
Layer 1
10
53.710360
20
-32.834826
11
56.567860
21
-32.755451
0
LINE
8
Layer 1
10
56.567860
20
-32.755451
11
59.398900
21
-32.676076
0
LINE
8
Layer 1
10
59.398900
20
-32.676076
11
59.478274
21
-21.748776
0
LINE
8
Layer 1
10
59.478274
20
-21.748776
11
59.531191
21
-10.847976
0
LINE
8
Layer 1
10
59.531191
20
-10.847976
11
68.130141
21
-10.847976
0
LINE
8
Layer 1
10
68.130141
20
-10.847976
11
75.584769
21
-10.781830
0
LINE
8
Layer 1
10
75.584769
20
-10.781830
11
76.568687
21
-10.624734
0
LINE
8
Layer 1
10
76.568687
20
-10.624734
11
76.729091
21
-10.318810
0
LINE
8
Layer 1
10
76.729091
20
-10.318810
11
76.703408
21
-10.144144
0
LINE
8
Layer 1
10
76.703408
20
-10.144144
11
76.558352
21
-10.012886
0
LINE
8
Layer 1
10
76.558352
20
-10.012886
11
75.502087
21
-9.855790
0
LINE
8
Layer 1
10
75.502087
20
-9.855790
11
67.468681
21
-9.789644
0
LINE
8
Layer 1
10
67.468681
20
-9.789644
11
58.208281
21
-9.789644
0
LINE
8
Layer 1
10
58.208281
20
-9.789644
11
58.208281
21
-20.690444
0
LINE
8
Layer 1
10
58.208281
20
-20.690444
11
58.208281
21
-31.617744
0
LINE
8
Layer 1
10
58.208281
20
-31.617744
11
53.763291
21
-31.617744
0
LINE
8
Layer 1
10
53.763291
20
-31.617744
11
48.762671
21
-31.538369
0
LINE
8
Layer 1
10
48.762671
20
-31.538369
11
48.154130
21
-31.485453
0
LINE
8
Layer 1
10
48.154130
20
-31.485453
11
48.154130
21
-20.637553
0
LINE
8
Layer 1
10
48.154130
20
-20.637553
11
48.154130
21
-9.789653
0
LINE
8
Layer 1
10
48.154130
20
-9.789653
11
38.761430
21
-9.789653
0
LINE
8
Layer 1
10
38.761430
20
-9.789653
11
30.612271
21
-9.855798
0
LINE
8
Layer 1
10
30.612271
20
-9.855798
11
29.541536
21
-10.012895
0
LINE
8
Layer 1
10
29.541536
20
-10.012895
11
29.394672
21
-10.144153
0
LINE
8
Layer 1
10
29.394672
20
-10.144153
11
29.368730
21
-10.318819
0
LINE
8
Layer 1
10
29.368730
20
-10.318819
11
29.368700
21
-10.318800
0
LINE
8
Layer 1
10
0.000000
20
-57.414600
11
0.110949
21
-57.589266
0
LINE
8
Layer 1
10
0.110949
20
-57.589266
11
0.852867
21
-57.720524
0
LINE
8
Layer 1
10
0.852867
20
-57.720524
11
6.684028
21
-57.877620
0
LINE
8
Layer 1
10
6.684028
20
-57.877620
11
52.916600
21
-57.943766
0
LINE
8
Layer 1
10
52.916600
20
-57.943766
11
99.149175
21
-57.877620
0
LINE
8
Layer 1
10
99.149175
20
-57.877620
11
104.980334
21
-57.720524
0
LINE
8
Layer 1
10
104.980334
20
-57.720524
11
105.722251
21
-57.589266
0
LINE
8
Layer 1
10
105.722251
20
-57.589266
11
105.833200
21
-57.414600
0
LINE
8
Layer 1
10
105.833200
20
-57.414600
11
105.722251
21
-57.239934
0
LINE
8
Layer 1
10
105.722251
20
-57.239934
11
104.980333
21
-57.108676
0
LINE
8
Layer 1
10
104.980333
20
-57.108676
11
99.149172
21
-56.951580
0
LINE
8
Layer 1
10
99.149172
20
-56.951580
11
52.916600
21
-56.885434
0
LINE
8
Layer 1
10
52.916600
20
-56.885434
11
6.684025
21
-56.951580
0
LINE
8
Layer 1
10
6.684025
20
-56.951580
11
0.852866
21
-57.108676
0
LINE
8
Layer 1
10
0.852866
20
-57.108676
11
0.110949
21
-57.239934
0
LINE
8
Layer 1
10
0.110949
20
-57.239934
11
0.000000
21
-57.414600
0
LINE
8
Layer 1
10
0.000000
20
-57.414600
11
0.000000
21
-57.414600
 0 
ENDSEC
 0 
EOF