<?xml version="1.0" standalone="no"?>
<!DOCTYPE svg PUBLIC "-//W3C//DTD SVG 20010904//EN"
 "http://www.w3.org/TR/2001/REC-SVG-20010904/DTD/svg10.dtd">
<svg version="1.0" xmlns="http://www.w3.org/2000/svg"
 width="170.078740pt" height="170.078740pt" viewBox="0 0 170.078740 170.078740"
 preserveAspectRatio="xMidYMid meet">
<metadata>
Created by potrace 1.16, written by Peter Selinger 2001-2019
</metadata>
<g transform="translate(0.000000,170.078740) scale(0.018752,-0.018752)"
fill="#000000" stroke="none">
<path d="M4425 7365 c-333 -136 -622 -331 -891 -603 -266 -267 -353 -447 -342
-707 4 -93 11 -127 43 -222 20 -62 57 -145 81 -184 25 -40 43 -73 42 -74 -2
-2 -36 -14 -76 -29 -319 -114 -719 -330 -924 -500 -48 -40 -82 -106 -73 -144
10 -47 60 -85 255 -193 379 -209 621 -314 1180 -509 270 -95 362 -143 440
-227 45 -50 67 -84 90 -144 46 -120 54 -113 -117 -105 -224 11 -439 33 -633
67 -443 77 -686 179 -888 373 -151 145 -374 463 -498 708 -18 36 -44 74 -56
82 -34 24 -81 20 -113 -10 -44 -41 -33 -85 60 -240 311 -517 540 -766 829
-900 88 -40 318 -116 421 -138 283 -62 543 -94 823 -102 l232 -7 0 -161 c0
-89 -5 -210 -10 -271 -20 -222 -93 -703 -111 -737 -9 -17 -87 -18 -1607 -18
-966 0 -1610 -4 -1630 -9 -84 -25 -155 -94 -171 -169 -15 -70 1 -117 55 -169
83 -80 -274 -73 3719 -71 l3570 3 58 28 c74 37 112 96 112 173 -1 62 -39 133
-89 163 -86 54 9 51 -1716 51 -1505 1 -1599 2 -1604 18 -7 22 -71 422 -85 532
-20 155 -31 323 -31 483 l0 157 113 0 c622 1 1223 133 1529 337 145 96 364
340 513 573 133 207 235 385 235 413 0 38 -48 87 -87 87 -44 0 -70 -25 -109
-102 -58 -115 -196 -334 -294 -468 -108 -146 -253 -293 -364 -369 -192 -132
-529 -230 -951 -276 -139 -16 -544 -36 -557 -29 -10 6 1 42 37 121 44 95 76
136 149 187 81 58 116 72 426 181 502 176 859 335 1210 540 133 77 148 89 165
130 27 63 -10 121 -137 216 -78 57 -253 168 -360 227 -87 48 -341 164 -453
207 -55 21 -101 39 -103 41 -2 1 22 53 52 115 161 331 138 610 -73 889 -127
168 -404 417 -631 566 -152 100 -398 220 -525 258 -12 3 -64 -12 -130 -39z
m295 -214 c201 -92 357 -197 587 -395 222 -191 368 -385 402 -536 17 -72 13
-190 -9 -274 -24 -94 -45 -144 -115 -267 -60 -105 -68 -143 -36 -195 16 -26
44 -40 192 -98 296 -116 662 -307 825 -431 l27 -21 -84 -48 c-135 -79 -433
-230 -574 -291 -165 -72 -442 -177 -660 -250 -374 -124 -508 -226 -611 -462
l-34 -78 -2 1647 -3 1646 -24 26 c-34 36 -88 36 -122 0 l-24 -26 -5 -1661 c-3
-914 -9 -1644 -13 -1622 -5 22 -28 82 -53 133 -94 194 -238 291 -609 412 -161
53 -530 194 -654 250 -207 94 -535 262 -613 315 -16 10 -8 18 60 67 93 67 196
129 357 213 145 77 244 121 435 191 215 79 230 108 139 269 -124 219 -163 391
-128 557 35 164 227 399 513 626 194 155 358 254 561 338 99 42 110 40 275
-35z m-44 -4531 c41 -281 58 -357 84 -385 l23 -25 1629 0 c1472 0 1631 -2
1668 -16 22 -9 40 -21 40 -26 0 -6 -604 -8 -1722 -6 l-1723 3 -37 25 c-26 18
-35 31 -32 45 4 19 22 447 25 590 l2 70 8 -50 c5 -27 20 -129 35 -225z m-208
-315 c8 -73 7 -82 -12 -106 l-21 -26 -350 -6 c-192 -4 -978 -7 -1745 -7 -1180
0 -1392 2 -1380 14 39 36 53 36 1710 36 1614 0 1626 0 1648 20 27 25 31 43 76
325 20 127 40 250 44 275 4 30 9 -39 14 -200 4 -135 12 -281 16 -325z m80 -77
c-3 -26 -6 -29 -12 -15 -5 9 -5 39 0 65 8 43 8 45 12 15 2 -18 2 -48 0 -65z
m67 -71 c17 -23 188 -28 1265 -36 684 -6 166 -8 -1930 -9 -1576 0 -2883 2
-2905 6 -22 5 653 6 1500 4 847 -2 1623 0 1724 5 165 8 185 11 199 28 20 26
128 27 147 2z"/>
</g>
</svg>
