<?xml version="1.0" standalone="no"?>
<!DOCTYPE svg PUBLIC "-//W3C//DTD SVG 20010904//EN"
 "http://www.w3.org/TR/2001/REC-SVG-20010904/DTD/svg10.dtd">
<svg version="1.0" xmlns="http://www.w3.org/2000/svg"
 width="170.078740pt" height="170.078740pt" viewBox="0 0 170.078740 170.078740"
 preserveAspectRatio="xMidYMid meet">
<metadata>
Created by potrace 1.16, written by Peter Selinger 2001-2019
</metadata>
<g transform="translate(0.000000,170.078740) scale(0.018752,-0.018752)"
fill="#000000" stroke="none">
<path d="M5078 7241 c-144 -37 -280 -166 -373 -351 -15 -30 -37 -64 -50 -75
-12 -11 -90 -103 -171 -205 -174 -216 -250 -309 -594 -725 -140 -169 -260
-313 -266 -321 -17 -21 -1448 -731 -1490 -738 -83 -16 -145 -48 -210 -108
-105 -98 -146 -209 -159 -423 -3 -60 -10 -164 -15 -230 -6 -66 -30 -422 -55
-791 -35 -527 -43 -683 -35 -725 34 -176 172 -319 345 -358 28 -6 147 -18 265
-26 118 -9 355 -29 525 -45 847 -79 800 -76 874 -57 127 34 189 102 198 221 8
93 -13 151 -152 421 -125 244 -271 532 -680 1340 -125 248 -252 487 -282 533
-55 83 -104 128 -187 172 -25 14 -46 27 -46 30 0 3 270 140 601 305 330 165
611 309 622 320 25 24 123 140 412 490 336 408 420 506 422 498 1 -4 7 -62 13
-128 5 -66 18 -151 29 -190 55 -212 208 -460 353 -573 79 -63 167 -112 201
-112 23 0 27 -4 27 -27 0 -32 25 -104 134 -388 43 -110 147 -391 232 -625 85
-234 163 -447 174 -475 10 -27 84 -230 164 -450 260 -722 266 -740 246 -799
-6 -19 -18 -40 -26 -46 -11 -10 -195 -12 -782 -11 -855 2 -808 -2 -844 71 -17
33 -18 100 -18 971 0 845 -2 937 -16 943 -30 12 -67 6 -125 -20 l-59 -27 2
-951 3 -951 34 -63 c36 -67 88 -118 150 -149 34 -17 88 -18 858 -21 l822 -3
48 25 c104 53 163 152 163 276 0 84 -14 129 -215 675 -58 160 -137 376 -175
480 -38 105 -90 246 -115 315 -26 69 -59 161 -75 205 -16 44 -49 136 -75 205
-50 134 -147 399 -200 545 -18 50 -43 112 -54 138 -12 27 -21 50 -21 52 0 4
88 10 340 25 563 33 509 27 578 61 46 22 73 44 101 82 21 29 120 203 220 388
193 358 199 374 165 442 -29 58 -66 87 -332 263 -160 106 -266 183 -272 197
-5 12 -16 48 -26 80 -38 128 -140 262 -257 338 -113 73 -188 86 -542 93 -228
5 -268 3 -327 -13z m442 -190 c83 -5 98 -8 70 -14 -96 -21 -189 -134 -217
-261 -29 -134 2 -263 95 -384 211 -280 629 -242 718 65 l15 53 52 -39 c51 -37
340 -231 373 -249 15 -8 11 -19 -33 -98 -28 -49 -103 -188 -168 -309 -64 -121
-130 -233 -146 -249 -28 -30 -30 -30 -176 -38 -696 -36 -776 -44 -836 -88 -16
-12 -30 -20 -33 -18 -2 2 1 21 7 41 16 59 -6 96 -101 165 -146 107 -241 242
-305 435 -56 169 -64 283 -33 481 33 213 158 424 290 490 49 24 61 26 187 25
75 -1 183 -4 241 -8z m340 -296 c150 -102 160 -112 159 -149 0 -41 -29 -109
-62 -151 -86 -107 -287 -43 -367 117 -60 122 -24 258 75 280 31 7 71 -13 195
-97z m-3468 -2149 c39 -14 94 -40 122 -59 62 -41 63 -43 369 -642 587 -1150
787 -1553 787 -1583 0 -44 -33 -72 -86 -72 -45 0 -166 10 -694 60 -173 16
-427 39 -565 50 -142 11 -272 27 -301 36 -58 18 -119 71 -140 121 -34 81 -35
110 -4 580 17 252 34 505 40 563 5 58 19 242 30 410 11 168 25 327 31 355 20
99 83 169 181 201 56 18 140 11 230 -20z"/>
</g>
</svg>
