999
"DXF R12 Output" (www.mydxf.blogspot.com)
 0 
SECTION
 2 
HEADER
 9 
$ACADVER
 1 
AC1009
 9 
$EXTMIN
 10 
 0 
 20 
 0 
 9 
$EXTMAX
 10 
 8.5 
 20 
 11 
 0 
ENDSEC
 0 
SECTION
 2 
ENTITIES
0
LINE
8
Layer 1
10
14.822800
20
34.875100
11
14.126123
21
34.503208
0
LINE
8
Layer 1
10
14.126123
20
34.503208
11
13.632750
21
33.883388
0
LINE
8
Layer 1
10
13.632750
20
33.883388
11
13.483993
21
33.496621
0
LINE
8
Layer 1
10
13.483993
20
33.496621
11
13.454242
21
32.891676
0
LINE
8
Layer 1
10
13.454242
20
32.891676
11
13.555892
21
32.053679
0
LINE
8
Layer 1
10
13.555892
20
32.053679
11
13.989766
21
31.404106
0
LINE
8
Layer 1
10
13.989766
20
31.404106
11
14.489547
21
31.016925
0
LINE
8
Layer 1
10
14.489547
20
31.016925
11
15.092219
21
30.805773
0
LINE
8
Layer 1
10
15.092219
20
30.805773
11
15.732079
21
30.783047
0
LINE
8
Layer 1
10
15.732079
20
30.783047
11
16.343426
21
30.961142
0
LINE
8
Layer 1
10
16.343426
20
30.961142
11
17.139276
21
31.643770
0
LINE
8
Layer 1
10
17.139276
20
31.643770
11
17.493816
21
32.653662
0
LINE
8
Layer 1
10
17.493816
20
32.653662
11
17.540096
21
33.056958
0
LINE
8
Layer 1
10
17.540096
20
33.056958
11
18.075620
21
33.056958
0
LINE
8
Layer 1
10
18.075620
20
33.056958
11
18.611144
21
33.056958
0
LINE
8
Layer 1
10
18.611144
20
33.056958
11
18.591310
21
31.701618
0
LINE
8
Layer 1
10
18.591310
20
31.701618
11
18.571476
21
30.346278
0
LINE
8
Layer 1
10
18.571476
20
30.346278
11
18.736761
21
30.180993
0
LINE
8
Layer 1
10
18.736761
20
30.180993
11
19.027663
21
30.036369
0
LINE
8
Layer 1
10
19.027663
20
30.036369
11
20.032601
21
30.015708
0
LINE
8
Layer 1
10
20.032601
20
30.015708
11
20.915326
21
30.026245
0
LINE
8
Layer 1
10
20.915326
20
30.026245
11
21.342486
21
30.184299
0
LINE
8
Layer 1
10
21.342486
20
30.184299
11
21.478330
21
30.679535
0
LINE
8
Layer 1
10
21.478330
20
30.679535
11
21.487111
21
31.701618
0
LINE
8
Layer 1
10
21.487111
20
31.701618
11
21.487111
21
33.056958
0
LINE
8
Layer 1
10
21.487111
20
33.056958
11
22.009411
21
33.056958
0
LINE
8
Layer 1
10
22.009411
20
33.056958
11
22.525101
21
33.056958
0
LINE
8
Layer 1
10
22.525101
20
33.056958
11
22.564770
21
32.660273
0
LINE
8
Layer 1
10
22.564770
20
32.660273
11
22.925092
21
31.656994
0
LINE
8
Layer 1
10
22.925092
20
31.656994
11
23.721770
21
30.961143
0
LINE
8
Layer 1
10
23.721770
20
30.961143
11
24.322995
21
30.784391
0
LINE
8
Layer 1
10
24.322995
20
30.784391
11
24.956449
21
30.801643
0
LINE
8
Layer 1
10
24.956449
20
30.801643
11
25.562632
21
31.001121
0
LINE
8
Layer 1
10
25.562632
20
31.001121
11
26.082040
21
31.371050
0
LINE
8
Layer 1
10
26.082040
20
31.371050
11
26.593598
21
32.227331
0
LINE
8
Layer 1
10
26.593598
20
32.227331
11
26.658885
21
33.193318
0
LINE
8
Layer 1
10
26.658885
20
33.193318
11
26.305175
21
34.096084
0
LINE
8
Layer 1
10
26.305175
20
34.096084
11
25.559739
21
34.762700
0
LINE
8
Layer 1
10
25.559739
20
34.762700
11
25.173798
21
34.911457
0
LINE
8
Layer 1
10
25.173798
20
34.911457
11
24.594473
21
34.941208
0
LINE
8
Layer 1
10
24.594473
20
34.941208
11
23.629207
21
34.762700
0
LINE
8
Layer 1
10
23.629207
20
34.762700
11
23.072196
21
34.322215
0
LINE
8
Layer 1
10
23.072196
20
34.322215
11
22.703610
21
33.737930
0
LINE
8
Layer 1
10
22.703610
20
33.737930
11
22.591216
21
33.453639
0
LINE
8
Layer 1
10
22.591216
20
33.453639
11
20.032596
21
33.453639
0
LINE
8
Layer 1
10
20.032596
20
33.453639
11
17.473976
21
33.453639
0
LINE
8
Layer 1
10
17.473976
20
33.453639
11
17.394639
21
33.731318
0
LINE
8
Layer 1
10
17.394639
20
33.731318
11
16.930187
21
34.385848
0
LINE
8
Layer 1
10
16.930187
20
34.385848
11
16.237639
21
34.861868
0
LINE
8
Layer 1
10
16.237639
20
34.861868
11
15.532697
21
34.965171
0
LINE
8
Layer 1
10
15.532697
20
34.965171
11
14.822799
21
34.875091
0
LINE
8
Layer 1
10
14.822799
20
34.875091
11
14.822800
21
34.875100
0
LINE
8
Layer 1
10
16.164920
20
34.418913
11
16.856639
21
33.831324
0
LINE
8
Layer 1
10
16.856639
20
33.831324
11
17.077295
21
32.891673
0
LINE
8
Layer 1
10
17.077295
20
32.891673
11
16.905398
21
32.091692
0
LINE
8
Layer 1
10
16.905398
20
32.091692
11
16.593113
21
31.659265
0
LINE
8
Layer 1
10
16.593113
20
31.659265
11
16.182277
21
31.349561
0
LINE
8
Layer 1
10
16.182277
20
31.349561
11
15.718136
21
31.186135
0
LINE
8
Layer 1
10
15.718136
20
31.186135
11
15.245938
21
31.192540
0
LINE
8
Layer 1
10
15.245938
20
31.192540
11
14.500503
21
31.543255
0
LINE
8
Layer 1
10
14.500503
20
31.543255
11
14.007954
21
32.158633
0
LINE
8
Layer 1
10
14.007954
20
32.158633
11
13.825315
21
32.919050
0
LINE
8
Layer 1
10
13.825315
20
32.919050
11
14.009608
21
33.704880
0
LINE
8
Layer 1
10
14.009608
20
33.704880
11
14.397512
21
34.179972
0
LINE
8
Layer 1
10
14.397512
20
34.179972
11
14.940992
21
34.475936
0
LINE
8
Layer 1
10
14.940992
20
34.475936
11
15.557609
21
34.564880
0
LINE
8
Layer 1
10
15.557609
20
34.564880
11
16.164928
21
34.418912
0
LINE
8
Layer 1
10
16.164928
20
34.418912
11
16.164920
21
34.418913
0
LINE
8
Layer 1
10
25.070490
20
34.511473
11
25.524921
21
34.286168
0
LINE
8
Layer 1
10
25.524921
20
34.286168
11
25.899395
21
33.913967
0
LINE
8
Layer 1
10
25.899395
20
33.913967
11
26.153624
21
33.448794
0
LINE
8
Layer 1
10
26.153624
20
33.448794
11
26.247320
21
32.944573
0
LINE
8
Layer 1
10
26.247320
20
32.944573
11
26.140711
21
32.249548
0
LINE
8
Layer 1
10
26.140711
20
32.249548
11
25.751464
21
31.688403
0
LINE
8
Layer 1
10
25.751464
20
31.688403
11
25.319139
21
31.346262
0
LINE
8
Layer 1
10
25.319139
20
31.346262
11
24.856442
21
31.182630
0
LINE
8
Layer 1
10
24.856442
20
31.182630
11
24.365234
21
31.197506
0
LINE
8
Layer 1
10
24.365234
20
31.197506
11
23.847374
21
31.390890
0
LINE
8
Layer 1
10
23.847374
20
31.390890
11
23.428996
21
31.713920
0
LINE
8
Layer 1
10
23.428996
20
31.713920
11
23.143259
21
32.150377
0
LINE
8
Layer 1
10
23.143259
20
32.150377
11
23.001320
21
32.674848
0
LINE
8
Layer 1
10
23.001320
20
32.674848
11
23.014336
21
33.261920
0
LINE
8
Layer 1
10
23.014336
20
33.261920
11
23.263091
21
33.887627
0
LINE
8
Layer 1
10
23.263091
20
33.887627
11
23.739940
21
34.335447
0
LINE
8
Layer 1
10
23.739940
20
34.335447
11
24.368025
21
34.558893
0
LINE
8
Layer 1
10
24.368025
20
34.558893
11
25.070486
21
34.511480
0
LINE
8
Layer 1
10
25.070486
20
34.511480
11
25.070490
21
34.511473
0
LINE
8
Layer 1
10
21.044140
20
31.794183
11
20.997860
21
30.498343
0
LINE
8
Layer 1
10
20.997860
20
30.498343
11
19.040880
21
30.511566
0
LINE
8
Layer 1
10
19.040880
20
30.511566
11
19.021046
21
31.780956
0
LINE
8
Layer 1
10
19.021046
20
31.780956
11
19.106994
21
33.017286
0
LINE
8
Layer 1
10
19.106994
20
33.017286
11
20.131764
21
33.050343
0
LINE
8
Layer 1
10
20.131764
20
33.050343
11
21.057361
21
33.056954
0
LINE
8
Layer 1
10
21.057361
20
33.056954
11
21.044138
21
31.794174
0
LINE
8
Layer 1
10
21.044138
20
31.794174
11
21.044140
21
31.794183
0
LINE
8
Layer 1
10
15.239300
20
33.949500
11
14.770510
21
33.630913
0
LINE
8
Layer 1
10
14.770510
20
33.630913
11
14.538491
21
33.156132
0
LINE
8
Layer 1
10
14.538491
20
33.156132
11
14.564316
21
32.621847
0
LINE
8
Layer 1
10
14.564316
20
32.621847
11
14.869061
21
32.124750
0
LINE
8
Layer 1
10
14.869061
20
32.124750
11
15.204965
21
31.890936
0
LINE
8
Layer 1
10
15.204965
20
31.890936
11
15.564189
21
31.806266
0
LINE
8
Layer 1
10
15.564189
20
31.806266
11
16.240104
21
32.006571
0
LINE
8
Layer 1
10
16.240104
20
32.006571
11
16.671810
21
32.570091
0
LINE
8
Layer 1
10
16.671810
20
32.570091
11
16.725773
21
32.939439
0
LINE
8
Layer 1
10
16.725773
20
32.939439
11
16.634311
21
33.341250
0
LINE
8
Layer 1
10
16.634311
20
33.341250
11
16.334318
21
33.731323
0
LINE
8
Layer 1
10
16.334318
20
33.731323
11
15.880610
21
33.982557
0
LINE
8
Layer 1
10
15.880610
20
33.982557
11
15.239303
21
33.949500
0
LINE
8
Layer 1
10
15.239303
20
33.949500
11
15.239300
21
33.949500
0
LINE
8
Layer 1
10
15.993001
20
33.480090
11
16.231012
21
33.158610
0
LINE
8
Layer 1
10
16.231012
20
33.158610
11
16.290514
21
32.812338
0
LINE
8
Layer 1
10
16.290514
20
32.812338
11
16.031016
21
32.384249
0
LINE
8
Layer 1
10
16.031016
20
32.384249
11
15.563259
21
32.263591
0
LINE
8
Layer 1
10
15.563259
20
32.263591
11
15.126079
21
32.455322
0
LINE
8
Layer 1
10
15.126079
20
32.455322
11
14.941786
21
32.904898
0
LINE
8
Layer 1
10
14.941786
20
32.904898
11
15.048395
21
33.262534
0
LINE
8
Layer 1
10
15.048395
20
33.262534
11
15.308719
21
33.504883
0
LINE
8
Layer 1
10
15.308719
20
33.504883
11
15.648379
21
33.591038
0
LINE
8
Layer 1
10
15.648379
20
33.591038
11
15.992996
21
33.480091
0
LINE
8
Layer 1
10
15.992996
20
33.480091
11
15.993001
21
33.480090
0
LINE
8
Layer 1
10
24.217600
20
33.989200
11
23.827527
21
33.809866
0
LINE
8
Layer 1
10
23.827527
20
33.809866
11
23.536625
21
33.486733
0
LINE
8
Layer 1
10
23.536625
20
33.486733
11
23.417620
21
32.858649
0
LINE
8
Layer 1
10
23.417620
20
32.858649
11
23.611830
21
32.255358
0
LINE
8
Layer 1
10
23.611830
20
32.255358
11
24.098595
21
31.899995
0
LINE
8
Layer 1
10
24.098595
20
31.899995
11
24.751679
21
31.850926
0
LINE
8
Layer 1
10
24.751679
20
31.850926
11
25.277080
21
32.152055
0
LINE
8
Layer 1
10
25.277080
20
32.152055
11
25.561991
21
32.687477
0
LINE
8
Layer 1
10
25.561991
20
32.687477
11
25.493605
21
33.341285
0
LINE
8
Layer 1
10
25.493605
20
33.341285
11
25.174605
21
33.756151
0
LINE
8
Layer 1
10
25.174605
20
33.756151
11
24.806018
21
33.982592
0
LINE
8
Layer 1
10
24.806018
20
33.982592
11
24.561396
21
34.009038
0
LINE
8
Layer 1
10
24.561396
20
34.009038
11
24.217603
21
33.989203
0
LINE
8
Layer 1
10
24.217603
20
33.989203
11
24.217600
21
33.989200
0
LINE
8
Layer 1
10
24.852295
20
33.480121
11
25.089479
21
33.163600
0
LINE
8
Layer 1
10
25.089479
20
33.163600
11
25.143197
21
32.772700
0
LINE
8
Layer 1
10
25.143197
20
32.772700
11
24.911798
21
32.428907
0
LINE
8
Layer 1
10
24.911798
20
32.428907
11
24.491973
21
32.272609
0
LINE
8
Layer 1
10
24.491973
20
32.272609
11
24.096941
21
32.408247
0
LINE
8
Layer 1
10
24.096941
20
32.408247
11
23.848188
21
32.745945
0
LINE
8
Layer 1
10
23.848188
20
32.745945
11
23.867198
21
33.195831
0
LINE
8
Layer 1
10
23.867198
20
33.195831
11
24.297766
21
33.553674
0
LINE
8
Layer 1
10
24.297766
20
33.553674
11
24.852298
21
33.480122
0
LINE
8
Layer 1
10
24.852298
20
33.480122
11
24.852295
21
33.480121
0
LINE
8
Layer 1
10
13.969900
20
29.791000
11
13.784781
21
29.632326
0
LINE
8
Layer 1
10
13.784781
20
29.632326
11
13.764947
21
28.614166
0
LINE
8
Layer 1
10
13.764947
20
28.614166
11
13.809574
21
27.429896
0
LINE
8
Layer 1
10
13.809574
20
27.429896
11
14.082295
21
26.994366
0
LINE
8
Layer 1
10
14.082295
20
26.994366
11
16.356625
21
26.908418
0
LINE
8
Layer 1
10
16.356625
20
26.908418
11
18.459055
21
26.908418
0
LINE
8
Layer 1
10
18.459055
20
26.908418
11
18.254101
21
26.716687
0
LINE
8
Layer 1
10
18.254101
20
26.716687
11
18.049147
21
26.524956
0
LINE
8
Layer 1
10
18.049147
20
26.524956
11
18.049147
21
24.283686
0
LINE
8
Layer 1
10
18.049147
20
24.283686
11
18.049147
21
22.049026
0
LINE
8
Layer 1
10
18.049147
20
22.049026
11
15.721927
21
22.068860
0
LINE
8
Layer 1
10
15.721927
20
22.068860
11
13.110417
21
22.049026
0
LINE
8
Layer 1
10
13.110417
20
22.049026
11
12.579851
21
21.789528
0
LINE
8
Layer 1
10
12.579851
20
21.789528
11
12.217877
21
21.004426
0
LINE
8
Layer 1
10
12.217877
20
21.004426
11
11.993089
21
20.310228
0
LINE
8
Layer 1
10
11.993089
20
20.310228
11
11.391451
21
20.455679
0
LINE
8
Layer 1
10
11.391451
20
20.455679
11
10.336104
21
20.602783
0
LINE
8
Layer 1
10
10.336104
20
20.602783
11
10.031257
21
20.466835
0
LINE
8
Layer 1
10
10.031257
20
20.466835
11
9.831161
21
20.184611
0
LINE
8
Layer 1
10
9.831161
20
20.184611
11
9.388197
21
18.849111
0
LINE
8
Layer 1
10
9.388197
20
18.849111
11
9.123741
21
17.546661
0
LINE
8
Layer 1
10
9.123741
20
17.546661
11
9.308860
21
17.235925
0
LINE
8
Layer 1
10
9.308860
20
17.235925
11
12.687290
21
16.197935
0
LINE
8
Layer 1
10
12.687290
20
16.197935
11
13.188930
21
16.369831
0
LINE
8
Layer 1
10
13.188930
20
16.369831
11
13.546773
21
16.997916
0
LINE
8
Layer 1
10
13.546773
20
16.997916
11
13.725281
21
17.665668
0
LINE
8
Layer 1
10
13.725281
20
17.665668
11
13.890566
21
17.784673
0
LINE
8
Layer 1
10
13.890566
20
17.784673
11
14.247582
21
17.949958
0
LINE
8
Layer 1
10
14.247582
20
17.949958
11
14.391380
21
18.240859
0
LINE
8
Layer 1
10
14.391380
20
18.240859
11
14.406256
21
19.285458
0
LINE
8
Layer 1
10
14.406256
20
19.285458
11
14.288903
21
21.048225
0
LINE
8
Layer 1
10
14.288903
20
21.048225
11
14.090148
21
21.393156
0
LINE
8
Layer 1
10
14.090148
20
21.393156
11
13.745115
21
21.566398
0
LINE
8
Layer 1
10
13.745115
20
21.566398
11
13.176534
21
21.480449
0
LINE
8
Layer 1
10
13.176534
20
21.480449
11
12.874888
21
21.263926
0
LINE
8
Layer 1
10
12.874888
20
21.263926
11
12.647621
21
20.759805
0
LINE
8
Layer 1
10
12.647621
20
20.759805
11
12.438535
21
20.293701
0
LINE
8
Layer 1
10
12.438535
20
20.293701
11
12.621175
21
20.938313
0
LINE
8
Layer 1
10
12.621175
20
20.938313
11
12.938523
21
21.606065
0
LINE
8
Layer 1
10
12.938523
20
21.606065
11
13.784783
21
21.672180
0
LINE
8
Layer 1
10
13.784783
20
21.672180
11
14.512038
21
21.652345
0
LINE
8
Layer 1
10
14.512038
20
21.652345
11
14.531872
21
19.979655
0
LINE
8
Layer 1
10
14.531872
20
19.979655
11
14.611209
21
18.346635
0
LINE
8
Layer 1
10
14.611209
20
18.346635
11
14.677323
21
16.759895
0
LINE
8
Layer 1
10
14.677323
20
16.759895
11
14.743438
21
15.014485
0
LINE
8
Layer 1
10
14.743438
20
15.014485
11
14.921946
21
14.835977
0
LINE
8
Layer 1
10
14.921946
20
14.835977
11
19.371426
21
14.743418
0
LINE
8
Layer 1
10
19.371426
20
14.743418
11
23.701896
21
14.710361
0
LINE
8
Layer 1
10
23.701896
20
14.710361
11
18.538386
21
14.690526
0
LINE
8
Layer 1
10
18.538386
20
14.690526
11
13.374876
21
14.677304
0
LINE
8
Layer 1
10
13.374876
20
14.677304
11
12.323666
21
14.042609
0
LINE
8
Layer 1
10
12.323666
20
14.042609
11
10.888986
21
13.169903
0
LINE
8
Layer 1
10
10.888986
20
13.169903
11
10.370817
21
12.752557
0
LINE
8
Layer 1
10
10.370817
20
12.752557
11
10.115451
21
12.231083
0
LINE
8
Layer 1
10
10.115451
20
12.231083
11
10.146855
21
11.412096
0
LINE
8
Layer 1
10
10.146855
20
11.412096
11
10.624530
21
10.717073
0
LINE
8
Layer 1
10
10.624530
20
10.717073
11
11.074106
21
10.472451
0
LINE
8
Layer 1
10
11.074106
20
10.472451
11
11.279060
21
10.432782
0
LINE
8
Layer 1
10
11.279060
20
10.432782
11
11.126998
21
10.108823
0
LINE
8
Layer 1
10
11.126998
20
10.108823
11
10.800559
21
8.676626
0
LINE
8
Layer 1
10
10.800559
20
8.676626
11
10.935267
21
7.199803
0
LINE
8
Layer 1
10
10.935267
20
7.199803
11
11.647337
21
5.812647
0
LINE
8
Layer 1
10
11.647337
20
5.812647
11
12.734398
21
4.794903
0
LINE
8
Layer 1
10
12.734398
20
4.794903
11
14.080544
21
4.220949
0
LINE
8
Layer 1
10
14.080544
20
4.220949
11
15.569867
21
4.165163
0
LINE
8
Layer 1
10
15.569867
20
4.165163
11
16.600934
21
4.438917
0
LINE
8
Layer 1
10
16.600934
20
4.438917
11
17.481388
21
4.922171
0
LINE
8
Layer 1
10
17.481388
20
4.922171
11
18.209368
21
5.613683
0
LINE
8
Layer 1
10
18.209368
20
5.613683
11
18.783017
21
6.512213
0
LINE
8
Layer 1
10
18.783017
20
6.512213
11
19.204494
21
7.929534
0
LINE
8
Layer 1
10
19.204494
20
7.929534
11
19.140033
21
9.421233
0
LINE
8
Layer 1
10
19.140033
20
9.421233
11
19.040861
21
9.897255
0
LINE
8
Layer 1
10
19.040861
20
9.897255
11
20.039184
21
9.917089
0
LINE
8
Layer 1
10
20.039184
20
9.917089
11
21.037507
21
9.917089
0
LINE
8
Layer 1
10
21.037507
20
9.917089
11
20.997839
21
9.765027
0
LINE
8
Layer 1
10
20.997839
20
9.765027
11
20.885445
21
8.958435
0
LINE
8
Layer 1
10
20.885445
20
8.958435
11
20.908585
21
7.691523
0
LINE
8
Layer 1
10
20.908585
20
7.691523
11
21.328409
21
6.479155
0
LINE
8
Layer 1
10
21.328409
20
6.479155
11
22.257105
21
5.237450
0
LINE
8
Layer 1
10
22.257105
20
5.237450
11
23.516784
21
4.434578
0
LINE
8
Layer 1
10
23.516784
20
4.434578
11
24.974806
21
4.125081
0
LINE
8
Layer 1
10
24.974806
20
4.125081
11
26.498529
21
4.363505
0
LINE
8
Layer 1
10
26.498529
20
4.363505
11
27.410800
21
4.835911
0
LINE
8
Layer 1
10
27.410800
20
4.835911
11
28.203446
21
5.534552
0
LINE
8
Layer 1
10
28.203446
20
5.534552
11
28.816344
21
6.393107
0
LINE
8
Layer 1
10
28.816344
20
6.393107
11
29.189369
21
7.345255
0
LINE
8
Layer 1
10
29.189369
20
7.345255
11
29.273664
21
8.808031
0
LINE
8
Layer 1
10
29.273664
20
8.808031
11
28.951358
21
10.141885
0
LINE
8
Layer 1
10
28.951358
20
10.141885
11
28.825741
21
10.419564
0
LINE
8
Layer 1
10
28.825741
20
10.419564
11
29.123254
21
10.538569
0
LINE
8
Layer 1
10
29.123254
20
10.538569
11
29.697104
21
10.972650
0
LINE
8
Layer 1
10
29.697104
20
10.972650
11
29.980260
21
11.621188
0
LINE
8
Layer 1
10
29.980260
20
11.621188
11
29.942348
21
12.321792
0
LINE
8
Layer 1
10
29.942348
20
12.321792
11
29.552996
21
12.912069
0
LINE
8
Layer 1
10
29.552996
20
12.912069
11
28.045596
21
13.870723
0
LINE
8
Layer 1
10
28.045596
20
13.870723
11
26.743146
21
14.644258
0
LINE
8
Layer 1
10
26.743146
20
14.644258
11
25.288636
21
14.677315
0
LINE
8
Layer 1
10
25.288636
20
14.677315
11
24.433286
21
14.708720
0
LINE
8
Layer 1
10
24.433286
20
14.708720
11
24.305913
21
14.721942
0
LINE
8
Layer 1
10
24.305913
20
14.721942
11
24.415930
21
14.730207
0
LINE
8
Layer 1
10
24.415930
20
14.730207
11
24.942363
21
14.770702
0
LINE
8
Layer 1
10
24.942363
20
14.770702
11
25.196076
21
14.935161
0
LINE
8
Layer 1
10
25.196076
20
14.935161
11
25.387807
21
15.126892
0
LINE
8
Layer 1
10
25.387807
20
15.126892
11
25.387807
21
16.627682
0
LINE
8
Layer 1
10
25.387807
20
16.627682
11
25.453921
21
18.082192
0
LINE
8
Layer 1
10
25.453921
20
18.082192
11
25.533258
21
19.715212
0
LINE
8
Layer 1
10
25.533258
20
19.715212
11
25.546481
21
21.520122
0
LINE
8
Layer 1
10
25.546481
20
21.520122
11
25.666312
21
21.633342
0
LINE
8
Layer 1
10
25.666312
20
21.633342
11
26.326627
21
21.652350
0
LINE
8
Layer 1
10
26.326627
20
21.652350
11
26.995205
21
21.630863
0
LINE
8
Layer 1
10
26.995205
20
21.630863
11
27.232390
21
21.520122
0
LINE
8
Layer 1
10
27.232390
20
21.520122
11
27.681966
21
20.138342
0
LINE
8
Layer 1
10
27.681966
20
20.138342
11
27.510069
21
20.594529
0
LINE
8
Layer 1
10
27.510069
20
20.594529
11
27.165449
21
21.319304
0
LINE
8
Layer 1
10
27.165449
20
21.319304
11
26.677031
21
21.592852
0
LINE
8
Layer 1
10
26.677031
20
21.592852
11
26.182001
21
21.501118
0
LINE
8
Layer 1
10
26.182001
20
21.501118
11
25.830771
21
21.136665
0
LINE
8
Layer 1
10
25.830771
20
21.136665
11
25.672097
21
19.609425
0
LINE
8
Layer 1
10
25.672097
20
19.609425
11
25.678708
21
18.154915
0
LINE
8
Layer 1
10
25.678708
20
18.154915
11
25.919198
21
17.862360
0
LINE
8
Layer 1
10
25.919198
20
17.862360
11
26.293569
21
17.718562
0
LINE
8
Layer 1
10
26.293569
20
17.718562
11
26.405963
21
17.619390
0
LINE
8
Layer 1
10
26.405963
20
17.619390
11
26.756368
21
16.488840
0
LINE
8
Layer 1
10
26.756368
20
16.488840
11
27.072063
21
16.256615
0
LINE
8
Layer 1
10
27.072063
20
16.256615
11
27.556349
21
16.217772
0
LINE
8
Layer 1
10
27.556349
20
16.217772
11
29.248869
21
16.687182
0
LINE
8
Layer 1
10
29.248869
20
16.687182
11
30.693463
21
17.213616
0
LINE
8
Layer 1
10
30.693463
20
17.213616
11
30.920525
21
17.430037
0
LINE
8
Layer 1
10
30.920525
20
17.430037
11
30.967839
21
17.705342
0
LINE
8
Layer 1
10
30.967839
20
17.705342
11
30.214138
21
20.230902
0
LINE
8
Layer 1
10
30.214138
20
20.230902
11
30.010011
21
20.502487
0
LINE
8
Layer 1
10
30.010011
20
20.502487
11
29.716630
21
20.628414
0
LINE
8
Layer 1
10
29.716630
20
20.628414
11
28.693518
21
20.475524
0
LINE
8
Layer 1
10
28.693518
20
20.475524
11
28.111714
21
20.323462
0
LINE
8
Layer 1
10
28.111714
20
20.323462
11
27.926595
21
20.964769
0
LINE
8
Layer 1
10
27.926595
20
20.964769
11
27.627429
21
21.711032
0
LINE
8
Layer 1
10
27.627429
20
21.711032
11
27.179506
21
22.015979
0
LINE
8
Layer 1
10
27.179506
20
22.015979
11
24.475436
21
22.082094
0
LINE
8
Layer 1
10
24.475436
20
22.082094
11
22.015996
21
22.082094
0
LINE
8
Layer 1
10
22.015996
20
22.082094
11
22.029219
21
22.267213
0
LINE
8
Layer 1
10
22.029219
20
22.267213
11
22.029219
21
24.482033
0
LINE
8
Layer 1
10
22.029219
20
24.482033
11
22.015996
21
26.524963
0
LINE
8
Layer 1
10
22.015996
20
26.524963
11
21.811042
21
26.716694
0
LINE
8
Layer 1
10
21.811042
20
26.716694
11
21.606088
21
26.908425
0
LINE
8
Layer 1
10
21.606088
20
26.908425
11
23.721738
21
26.908425
0
LINE
8
Layer 1
10
23.721738
20
26.908425
11
25.837388
21
26.908425
0
LINE
8
Layer 1
10
25.837388
20
26.908425
11
26.042342
21
27.080322
0
LINE
8
Layer 1
10
26.042342
20
27.080322
11
26.247296
21
27.252219
0
LINE
8
Layer 1
10
26.247296
20
27.252219
11
26.247296
21
28.395989
0
LINE
8
Layer 1
10
26.247296
20
28.395989
11
26.207628
21
29.652159
0
LINE
8
Layer 1
10
26.207628
20
29.652159
11
26.051640
21
29.824158
0
LINE
8
Layer 1
10
26.051640
20
29.824158
11
25.361367
21
29.912482
0
LINE
8
Layer 1
10
25.361367
20
29.912482
11
19.973068
21
29.949672
0
LINE
8
Layer 1
10
19.973068
20
29.949672
11
14.155028
21
29.949672
0
LINE
8
Layer 1
10
14.155028
20
29.949672
11
13.969909
21
29.790998
0
LINE
8
Layer 1
10
13.969909
20
29.790998
11
13.969900
21
29.791000
0
LINE
8
Layer 1
10
25.771300
20
29.473652
11
25.855595
21
28.422437
0
LINE
8
Layer 1
10
25.855595
20
28.422437
11
25.771300
21
27.391062
0
LINE
8
Layer 1
10
25.771300
20
27.391062
11
14.267400
21
27.364616
0
LINE
8
Layer 1
10
14.267400
20
27.364616
11
14.260789
21
29.506716
0
LINE
8
Layer 1
10
14.260789
20
29.506716
11
19.999489
21
29.552996
0
LINE
8
Layer 1
10
19.999489
20
29.552996
11
25.771249
21
29.473659
0
LINE
8
Layer 1
10
25.771249
20
29.473659
11
25.771300
21
29.473652
0
LINE
8
Layer 1
10
21.566440
20
26.353062
11
21.619331
21
26.154720
0
LINE
8
Layer 1
10
21.619331
20
26.154720
11
21.584621
21
26.080341
0
LINE
8
Layer 1
10
21.584621
20
26.080341
11
21.420989
21
26.214223
0
LINE
8
Layer 1
10
21.420989
20
26.214223
11
21.222647
21
26.452234
0
LINE
8
Layer 1
10
21.222647
20
26.452234
11
21.566440
21
26.353063
0
LINE
8
Layer 1
10
21.566440
20
26.353063
11
21.566440
21
26.353062
0
LINE
8
Layer 1
10
18.716920
20
26.333228
11
18.551635
21
26.081994
0
LINE
8
Layer 1
10
18.551635
20
26.081994
11
18.464034
21
25.984476
0
LINE
8
Layer 1
10
18.464034
20
25.984476
11
18.445852
21
26.095217
0
LINE
8
Layer 1
10
18.445852
20
26.095217
11
18.498743
21
26.354715
0
LINE
8
Layer 1
10
18.498743
20
26.354715
11
18.650806
21
26.445622
0
LINE
8
Layer 1
10
18.650806
20
26.445622
11
18.716920
21
26.333228
0
LINE
8
Layer 1
10
18.716920
20
26.333228
11
18.716920
21
26.333228
0
LINE
8
Layer 1
10
20.700340
20
26.247280
11
21.040104
21
25.968567
0
LINE
8
Layer 1
10
21.040104
20
25.968567
11
21.261483
21
25.579527
0
LINE
8
Layer 1
10
21.261483
20
25.579527
11
21.342783
21
25.140900
0
LINE
8
Layer 1
10
21.342783
20
25.140900
11
21.262310
21
24.713430
0
LINE
8
Layer 1
10
21.262310
20
24.713430
11
20.765627
21
24.109312
0
LINE
8
Layer 1
10
20.765627
20
24.109312
11
20.065640
21
23.867170
0
LINE
8
Layer 1
10
20.065640
20
23.867170
11
19.324336
21
24.125841
0
LINE
8
Layer 1
10
19.324336
20
24.125841
11
18.835920
21
24.706819
0
LINE
8
Layer 1
10
18.835920
20
24.706819
11
18.770632
21
25.238211
0
LINE
8
Layer 1
10
18.770632
20
25.238211
11
18.868977
21
25.705142
0
LINE
8
Layer 1
10
18.868977
20
25.705142
11
19.211118
21
26.105958
0
LINE
8
Layer 1
10
19.211118
20
26.105958
11
19.622678
21
26.353060
0
LINE
8
Layer 1
10
19.622678
20
26.353060
11
19.867300
21
26.419174
0
LINE
8
Layer 1
10
19.867300
20
26.419174
11
20.700338
21
26.247277
0
LINE
8
Layer 1
10
20.700338
20
26.247277
11
20.700340
21
26.247280
0
LINE
8
Layer 1
10
19.325170
20
23.609330
11
19.868958
21
23.467701
0
LINE
8
Layer 1
10
19.868958
20
23.467701
11
20.442496
21
23.517596
0
LINE
8
Layer 1
10
20.442496
20
23.517596
11
20.976367
21
23.742281
0
LINE
8
Layer 1
10
20.976367
20
23.742281
11
21.401150
21
24.125020
0
LINE
8
Layer 1
10
21.401150
20
24.125020
11
21.619327
21
24.409311
0
LINE
8
Layer 1
10
21.619327
20
24.409311
11
21.619327
21
23.371321
0
LINE
8
Layer 1
10
21.619327
20
23.371321
11
21.553213
21
22.207711
0
LINE
8
Layer 1
10
21.553213
20
22.207711
11
21.270575
21
22.100275
0
LINE
8
Layer 1
10
21.270575
20
22.100275
11
19.966473
21
22.082094
0
LINE
8
Layer 1
10
19.966473
20
22.082094
11
18.445853
21
22.082094
0
LINE
8
Layer 1
10
18.445853
20
22.082094
11
18.445853
21
23.245704
0
LINE
8
Layer 1
10
18.445853
20
23.245704
11
18.445853
21
24.409314
0
LINE
8
Layer 1
10
18.445853
20
24.409314
11
18.743366
21
24.078743
0
LINE
8
Layer 1
10
18.743366
20
24.078743
11
19.325170
21
23.609333
0
LINE
8
Layer 1
10
19.325170
20
23.609333
11
19.325170
21
23.609330
0
LINE
8
Layer 1
10
25.123380
20
21.533350
11
25.044043
21
21.473847
0
LINE
8
Layer 1
10
25.044043
20
21.473847
11
20.060691
21
21.559795
0
LINE
8
Layer 1
10
20.060691
20
21.559795
11
15.107093
21
21.487070
0
LINE
8
Layer 1
10
15.107093
20
21.487070
11
14.999658
21
21.425914
0
LINE
8
Layer 1
10
14.999658
20
21.425914
11
14.941808
21
21.553184
0
LINE
8
Layer 1
10
14.941808
20
21.553184
11
15.600470
21
21.665578
0
LINE
8
Layer 1
10
15.600470
20
21.665578
11
20.032598
21
21.678801
0
LINE
8
Layer 1
10
20.032598
20
21.678801
11
25.123388
21
21.672189
0
LINE
8
Layer 1
10
25.123388
20
21.672189
11
25.123388
21
21.533349
0
LINE
8
Layer 1
10
25.123388
20
21.533349
11
25.123380
21
21.533350
0
LINE
8
Layer 1
10
13.778180
20
21.070551
11
13.917846
21
20.765599
0
LINE
8
Layer 1
10
13.917846
20
20.765599
11
13.983134
21
19.761491
0
LINE
8
Layer 1
10
13.983134
20
19.761491
11
14.009580
21
18.412761
0
LINE
8
Layer 1
10
14.009580
20
18.412761
11
13.983134
21
18.214419
0
LINE
8
Layer 1
10
13.983134
20
18.214419
11
13.163319
21
18.194584
0
LINE
8
Layer 1
10
13.163319
20
18.194584
11
12.314578
21
18.230947
0
LINE
8
Layer 1
10
12.314578
20
18.230947
11
12.210344
21
18.317309
0
LINE
8
Layer 1
10
12.210344
20
18.317309
11
12.264167
21
18.465652
0
LINE
8
Layer 1
10
12.264167
20
18.465652
11
12.720354
21
19.682152
0
LINE
8
Layer 1
10
12.720354
20
19.682152
11
13.183153
21
20.951542
0
LINE
8
Layer 1
10
13.183153
20
20.951542
11
13.455874
21
21.214346
0
LINE
8
Layer 1
10
13.455874
20
21.214346
11
13.778180
21
21.070547
0
LINE
8
Layer 1
10
13.778180
20
21.070547
11
13.778180
21
21.070551
0
LINE
8
Layer 1
10
26.822480
20
21.090385
11
27.794357
21
18.240865
0
LINE
8
Layer 1
10
27.794357
20
18.240865
11
26.981154
21
18.181362
0
LINE
8
Layer 1
10
26.981154
20
18.181362
11
26.115059
21
18.280533
0
LINE
8
Layer 1
10
26.115059
20
18.280533
11
26.095225
21
19.682153
0
LINE
8
Layer 1
10
26.095225
20
19.682153
11
26.168777
21
20.808572
0
LINE
8
Layer 1
10
26.168777
20
20.808572
11
26.306790
21
21.096993
0
LINE
8
Layer 1
10
26.306790
20
21.096993
11
26.586948
21
21.217651
0
LINE
8
Layer 1
10
26.586948
20
21.217651
11
26.822480
21
21.090382
0
LINE
8
Layer 1
10
26.822480
20
21.090382
11
26.822480
21
21.090385
0
LINE
8
Layer 1
10
24.925010
20
20.984602
11
24.891953
21
15.226062
0
LINE
8
Layer 1
10
24.891953
20
15.226062
11
19.986283
21
15.193005
0
LINE
8
Layer 1
10
19.986283
20
15.193005
11
15.140123
21
15.206227
0
LINE
8
Layer 1
10
15.140123
20
15.206227
11
15.140123
21
18.135077
0
LINE
8
Layer 1
10
15.140123
20
18.135077
11
15.186403
21
21.110207
0
LINE
8
Layer 1
10
15.186403
20
21.110207
11
20.045793
21
21.156487
0
LINE
8
Layer 1
10
20.045793
20
21.156487
11
24.858903
21
21.156487
0
LINE
8
Layer 1
10
24.858903
20
21.156487
11
24.925017
21
20.984590
0
LINE
8
Layer 1
10
24.925017
20
20.984590
11
24.925010
21
20.984602
0
LINE
8
Layer 1
10
11.193110
20
20.065616
11
11.569960
21
19.887108
0
LINE
8
Layer 1
10
11.569960
20
19.887108
11
11.173275
21
18.597888
0
LINE
8
Layer 1
10
11.173275
20
18.597888
11
10.776590
21
17.275608
0
LINE
8
Layer 1
10
10.776590
20
17.275608
11
10.664196
21
17.216105
0
LINE
8
Layer 1
10
10.664196
20
17.216105
11
10.247677
21
17.321888
0
LINE
8
Layer 1
10
10.247677
20
17.321888
11
9.736945
21
17.483041
0
LINE
8
Layer 1
10
9.736945
20
17.483041
11
9.553479
21
17.659070
0
LINE
8
Layer 1
10
9.553479
20
17.659070
11
10.300568
21
20.118510
0
LINE
8
Layer 1
10
10.300568
20
20.118510
11
10.558413
21
20.213549
0
LINE
8
Layer 1
10
10.558413
20
20.213549
11
11.193108
21
20.065619
0
LINE
8
Layer 1
10
11.193108
20
20.065619
11
11.193110
21
20.065616
0
LINE
8
Layer 1
10
29.764610
20
20.118507
11
30.544756
21
17.731787
0
LINE
8
Layer 1
10
30.544756
20
17.731787
11
30.458808
21
17.533445
0
LINE
8
Layer 1
10
30.458808
20
17.533445
11
29.367928
21
17.222709
0
LINE
8
Layer 1
10
29.367928
20
17.222709
11
28.548113
21
19.973059
0
LINE
8
Layer 1
10
28.548113
20
19.973059
11
29.493545
21
20.224293
0
LINE
8
Layer 1
10
29.493545
20
20.224293
11
29.764613
21
20.118510
0
LINE
8
Layer 1
10
29.764613
20
20.118510
11
29.764610
21
20.118507
0
LINE
8
Layer 1
10
28.905127
20
17.044197
11
27.364667
21
16.594621
0
LINE
8
Layer 1
10
27.364667
20
16.594621
11
27.145664
21
16.707015
0
LINE
8
Layer 1
10
27.145664
20
16.707015
11
26.941537
21
17.156591
0
LINE
8
Layer 1
10
26.941537
20
17.156591
11
26.776252
21
17.659058
0
LINE
8
Layer 1
10
26.776252
20
17.659058
11
27.159714
21
17.718561
0
LINE
8
Layer 1
10
27.159714
20
17.718561
11
27.722924
21
17.769489
0
LINE
8
Layer 1
10
27.722924
20
17.769489
11
28.075395
21
17.942523
0
LINE
8
Layer 1
10
28.075395
20
17.942523
11
28.249358
21
18.268033
0
LINE
8
Layer 1
10
28.249358
20
18.268033
11
28.277044
21
18.776391
0
LINE
8
Layer 1
10
28.277044
20
18.776391
11
28.250598
21
19.272247
0
LINE
8
Layer 1
10
28.250598
20
19.272247
11
28.601003
21
18.181367
0
LINE
8
Layer 1
10
28.601003
20
18.181367
11
28.905128
21
17.044207
0
LINE
8
Layer 1
10
28.905128
20
17.044207
11
28.905127
21
17.044197
0
LINE
8
Layer 1
10
11.781527
20
18.657377
11
11.784833
21
18.248296
0
LINE
8
Layer 1
10
11.784833
20
18.248296
11
11.907144
21
18.022682
0
LINE
8
Layer 1
10
11.907144
20
18.022682
11
12.300523
21
17.796241
0
LINE
8
Layer 1
10
12.300523
20
17.796241
11
12.971584
21
17.718557
0
LINE
8
Layer 1
10
12.971584
20
17.718557
11
13.348434
21
17.718557
0
LINE
8
Layer 1
10
13.348434
20
17.718557
11
13.229429
21
17.374764
0
LINE
8
Layer 1
10
13.229429
20
17.374764
11
12.839356
21
16.627675
0
LINE
8
Layer 1
10
12.839356
20
16.627675
11
11.166666
21
17.044194
0
LINE
8
Layer 1
10
11.166666
20
17.044194
11
11.788139
21
19.106954
0
LINE
8
Layer 1
10
11.788139
20
19.106954
11
11.781528
21
18.657378
0
LINE
8
Layer 1
10
11.781528
20
18.657378
11
11.781527
21
18.657377
0
LINE
8
Layer 1
10
13.870737
20
13.414527
11
13.850903
21
12.548432
0
LINE
8
Layer 1
10
13.850903
20
12.548432
11
13.454218
21
12.402981
0
LINE
8
Layer 1
10
13.454218
20
12.402981
11
12.635230
21
11.969933
0
LINE
8
Layer 1
10
12.635230
20
11.969933
11
11.880698
21
11.298871
0
LINE
8
Layer 1
10
11.880698
20
11.298871
11
11.397239
21
10.874088
0
LINE
8
Layer 1
10
11.397239
20
10.874088
11
10.988158
21
10.974912
0
LINE
8
Layer 1
10
10.988158
20
10.974912
11
10.636100
21
11.342671
0
LINE
8
Layer 1
10
10.636100
20
11.342671
11
10.512136
21
11.854230
0
LINE
8
Layer 1
10
10.512136
20
11.854230
11
10.544883
21
12.216514
0
LINE
8
Layer 1
10
10.544883
20
12.216514
11
10.759237
21
12.526115
0
LINE
8
Layer 1
10
10.759237
20
12.526115
11
12.429446
21
13.619480
0
LINE
8
Layer 1
10
12.429446
20
13.619480
11
13.738506
21
14.274010
0
LINE
8
Layer 1
10
13.738506
20
14.274010
11
13.869081
21
14.171533
0
LINE
8
Layer 1
10
13.869081
20
14.171533
11
13.870734
21
13.414527
0
LINE
8
Layer 1
10
13.870734
20
13.414527
11
13.870737
21
13.414527
0
LINE
8
Layer 1
10
25.718337
20
13.487253
11
25.718337
21
12.693884
0
LINE
8
Layer 1
10
25.718337
20
12.693884
11
25.070419
21
12.693884
0
LINE
8
Layer 1
10
25.070419
20
12.693884
11
23.998545
21
12.571572
0
LINE
8
Layer 1
10
23.998545
20
12.571572
11
23.001049
21
12.191417
0
LINE
8
Layer 1
10
23.001049
20
12.191417
11
22.558085
21
11.960018
0
LINE
8
Layer 1
10
22.558085
20
11.960018
11
20.237485
21
11.966629
0
LINE
8
Layer 1
10
20.237485
20
11.966629
11
17.784655
21
11.900515
0
LINE
8
Layer 1
10
17.784655
20
11.900515
11
17.434250
21
11.993075
0
LINE
8
Layer 1
10
17.434250
20
11.993075
11
16.334275
21
12.517855
0
LINE
8
Layer 1
10
16.334275
20
12.517855
11
15.001250
21
12.680662
0
LINE
8
Layer 1
10
15.001250
20
12.680662
11
14.346720
21
12.660827
0
LINE
8
Layer 1
10
14.346720
20
12.660827
11
14.346720
21
13.474030
0
LINE
8
Layer 1
10
14.346720
20
13.474030
11
14.346720
21
14.280622
0
LINE
8
Layer 1
10
14.346720
20
14.280622
11
20.032530
21
14.280622
0
LINE
8
Layer 1
10
20.032530
20
14.280622
11
25.718340
21
14.280622
0
LINE
8
Layer 1
10
25.718340
20
14.280622
11
25.718340
21
13.487253
0
LINE
8
Layer 1
10
25.718340
20
13.487253
11
25.718337
21
13.487253
0
LINE
8
Layer 1
10
26.663769
20
14.174840
11
29.308329
21
12.574880
0
LINE
8
Layer 1
10
29.308329
20
12.574880
11
29.546546
21
12.176543
0
LINE
8
Layer 1
10
29.546546
20
12.176543
11
29.567827
21
11.708786
0
LINE
8
Layer 1
10
29.567827
20
11.708786
11
29.388286
21
11.265821
0
LINE
8
Layer 1
10
29.388286
20
11.265821
11
29.024038
21
10.941860
0
LINE
8
Layer 1
10
29.024038
20
10.941860
11
28.668675
21
10.865828
0
LINE
8
Layer 1
10
28.668675
20
10.865828
11
28.343063
21
11.166648
0
LINE
8
Layer 1
10
28.343063
20
11.166648
11
27.443084
21
11.964975
0
LINE
8
Layer 1
10
27.443084
20
11.964975
11
26.379473
21
12.495538
0
LINE
8
Layer 1
10
26.379473
20
12.495538
11
26.232369
21
12.641815
0
LINE
8
Layer 1
10
26.232369
20
12.641815
11
26.194354
21
13.407913
0
LINE
8
Layer 1
10
26.194354
20
13.407913
11
26.199313
21
14.161613
0
LINE
8
Layer 1
10
26.199313
20
14.161613
11
26.313359
21
14.280619
0
LINE
8
Layer 1
10
26.313359
20
14.280619
11
26.663764
21
14.174836
0
LINE
8
Layer 1
10
26.663764
20
14.174836
11
26.663769
21
14.174840
0
LINE
8
Layer 1
10
15.959869
20
12.164970
11
17.236698
21
11.600520
0
LINE
8
Layer 1
10
17.236698
20
11.600520
11
18.141639
21
10.624510
0
LINE
8
Layer 1
10
18.141639
20
10.624510
11
18.650718
21
9.558419
0
LINE
8
Layer 1
10
18.650718
20
9.558419
11
18.802780
21
8.462580
0
LINE
8
Layer 1
10
18.802780
20
8.462580
11
18.668072
21
7.336985
0
LINE
8
Layer 1
10
18.668072
20
7.336985
11
18.181307
21
6.320480
0
LINE
8
Layer 1
10
18.181307
20
6.320480
11
17.199514
21
5.260177
0
LINE
8
Layer 1
10
17.199514
20
5.260177
11
15.959877
21
4.661020
0
LINE
8
Layer 1
10
15.959877
20
4.661020
11
15.561540
21
4.599037
0
LINE
8
Layer 1
10
15.561540
20
4.599037
11
15.470633
21
4.760191
0
LINE
8
Layer 1
10
15.470633
20
4.760191
11
15.215268
21
5.135388
0
LINE
8
Layer 1
10
15.215268
20
5.135388
11
14.280583
21
5.560172
0
LINE
8
Layer 1
10
14.280583
20
5.560172
11
13.028550
21
6.124621
0
LINE
8
Layer 1
10
13.028550
20
6.124621
11
12.396333
21
6.743612
0
LINE
8
Layer 1
10
12.396333
20
6.743612
11
12.037664
21
7.870029
0
LINE
8
Layer 1
10
12.037664
20
7.870029
11
12.052333
21
8.462680
0
LINE
8
Layer 1
10
12.052333
20
8.462680
11
12.204602
21
8.991492
0
LINE
8
Layer 1
10
12.204602
20
8.991492
11
12.704590
21
9.769159
0
LINE
8
Layer 1
10
12.704590
20
9.769159
11
13.467382
21
10.492282
0
LINE
8
Layer 1
10
13.467382
20
10.492282
11
14.102077
21
11.047640
0
LINE
8
Layer 1
10
14.102077
20
11.047640
11
14.419425
21
11.107142
0
LINE
8
Layer 1
10
14.419425
20
11.107142
11
15.007840
21
11.041028
0
LINE
8
Layer 1
10
15.007840
20
11.041028
11
16.145004
21
10.807150
0
LINE
8
Layer 1
10
16.145004
20
10.807150
11
17.163160
21
10.082374
0
LINE
8
Layer 1
10
17.163160
20
10.082374
11
17.897027
21
9.003063
0
LINE
8
Layer 1
10
17.897027
20
9.003063
11
17.985041
21
8.494397
0
LINE
8
Layer 1
10
17.985041
20
8.494397
11
17.877192
21
8.032834
0
LINE
8
Layer 1
10
17.877192
20
8.032834
11
17.129275
21
7.225414
0
LINE
8
Layer 1
10
17.129275
20
7.225414
11
16.098722
21
6.710554
0
LINE
8
Layer 1
10
16.098722
20
6.710554
11
15.900380
21
6.664274
0
LINE
8
Layer 1
10
15.900380
20
6.664274
11
16.111945
21
6.809725
0
LINE
8
Layer 1
10
16.111945
20
6.809725
11
16.570611
21
7.324589
0
LINE
8
Layer 1
10
16.570611
20
7.324589
11
16.865646
21
7.993165
0
LINE
8
Layer 1
10
16.865646
20
7.993165
11
16.898909
21
8.658024
0
LINE
8
Layer 1
10
16.898909
20
8.658024
11
16.735070
21
9.280735
0
LINE
8
Layer 1
10
16.735070
20
9.280735
11
16.395203
21
9.811714
0
LINE
8
Layer 1
10
16.395203
20
9.811714
11
15.900380
21
10.201375
0
LINE
8
Layer 1
10
15.900380
20
10.201375
11
15.040897
21
10.346826
0
LINE
8
Layer 1
10
15.040897
20
10.346826
11
14.486365
21
10.315422
0
LINE
8
Layer 1
10
14.486365
20
10.315422
11
14.095465
21
10.155095
0
LINE
8
Layer 1
10
14.095465
20
10.155095
11
13.585560
21
9.769981
0
LINE
8
Layer 1
10
13.585560
20
9.769981
11
13.209536
21
9.236109
0
LINE
8
Layer 1
10
13.209536
20
9.236109
11
13.057474
21
8.330346
0
LINE
8
Layer 1
10
13.057474
20
8.330346
11
13.089705
21
7.744410
0
LINE
8
Layer 1
10
13.089705
20
7.744410
11
13.255816
21
7.351857
0
LINE
8
Layer 1
10
13.255816
20
7.351857
11
13.663761
21
6.804246
0
LINE
8
Layer 1
10
13.663761
20
6.804246
11
14.188852
21
6.422127
0
LINE
8
Layer 1
10
14.188852
20
6.422127
11
14.824270
21
6.207360
0
LINE
8
Layer 1
10
14.824270
20
6.207360
11
15.563196
21
6.161807
0
LINE
8
Layer 1
10
15.563196
20
6.161807
11
16.121034
21
6.235359
0
LINE
8
Layer 1
10
16.121034
20
6.235359
11
16.733416
21
6.492378
0
LINE
8
Layer 1
10
16.733416
20
6.492378
11
17.475546
21
6.932451
0
LINE
8
Layer 1
10
17.475546
20
6.932451
11
17.999501
21
7.414671
0
LINE
8
Layer 1
10
17.999501
20
7.414671
11
18.310238
21
7.946477
0
LINE
8
Layer 1
10
18.310238
20
7.946477
11
18.412716
21
8.535308
0
LINE
8
Layer 1
10
18.412716
20
8.535308
11
18.180490
21
9.447685
0
LINE
8
Layer 1
10
18.180490
20
9.447685
11
17.526787
21
10.360058
0
LINE
8
Layer 1
10
17.526787
20
10.360058
11
16.406153
21
11.161690
0
LINE
8
Layer 1
10
16.406153
20
11.161690
11
15.007837
21
11.477388
0
LINE
8
Layer 1
10
15.007837
20
11.477388
11
14.346696
21
11.523668
0
LINE
8
Layer 1
10
14.346696
20
11.523668
11
14.346696
21
11.913741
0
LINE
8
Layer 1
10
14.346696
20
11.913741
11
14.346696
21
12.297203
0
LINE
8
Layer 1
10
14.346696
20
12.297203
11
14.895443
21
12.297203
0
LINE
8
Layer 1
10
14.895443
20
12.297203
11
15.959883
21
12.164975
0
LINE
8
Layer 1
10
15.959883
20
12.164975
11
15.959869
21
12.164970
0
LINE
8
Layer 1
10
25.705089
20
11.887291
11
25.724923
21
11.503829
0
LINE
8
Layer 1
10
25.724923
20
11.503829
11
25.354684
21
11.503829
0
LINE
8
Layer 1
10
25.354684
20
11.503829
11
24.475366
21
11.398046
0
LINE
8
Layer 1
10
24.475366
20
11.398046
11
23.292749
21
10.952602
0
LINE
8
Layer 1
10
23.292749
20
10.952602
11
22.353106
21
10.095596
0
LINE
8
Layer 1
10
22.353106
20
10.095596
11
21.838243
21
9.279086
0
LINE
8
Layer 1
10
21.838243
20
9.279086
11
21.685354
21
8.522076
0
LINE
8
Layer 1
10
21.685354
20
8.522076
11
21.763658
21
7.986137
0
LINE
8
Layer 1
10
21.763658
20
7.986137
11
22.004354
21
7.502264
0
LINE
8
Layer 1
10
22.004354
20
7.502264
11
23.007634
21
6.651046
0
LINE
8
Layer 1
10
23.007634
20
6.651046
11
23.829929
21
6.270063
0
LINE
8
Layer 1
10
23.829929
20
6.270063
11
24.726604
21
6.181636
0
LINE
8
Layer 1
10
24.726604
20
6.181636
11
25.368738
21
6.214692
0
LINE
8
Layer 1
10
25.368738
20
6.214692
11
25.797654
21
6.366755
0
LINE
8
Layer 1
10
25.797654
20
6.366755
11
26.676970
21
7.094010
0
LINE
8
Layer 1
10
26.676970
20
7.094010
11
27.080264
21
8.138615
0
LINE
8
Layer 1
10
27.080264
20
8.138615
11
27.027786
21
8.843969
0
LINE
8
Layer 1
10
27.027786
20
8.843969
11
26.734818
21
9.492300
0
LINE
8
Layer 1
10
26.734818
20
9.492300
11
26.250946
21
10.009231
0
LINE
8
Layer 1
10
26.250946
20
10.009231
11
25.625754
21
10.320385
0
LINE
8
Layer 1
10
25.625754
20
10.320385
11
24.910895
21
10.358400
0
LINE
8
Layer 1
10
24.910895
20
10.358400
11
24.230744
21
10.207991
0
LINE
8
Layer 1
10
24.230744
20
10.207991
11
23.758648
21
9.872151
0
LINE
8
Layer 1
10
23.758648
20
9.872151
11
23.404316
21
9.390653
0
LINE
8
Layer 1
10
23.404316
20
9.390653
11
23.198741
21
8.823622
0
LINE
8
Layer 1
10
23.198741
20
8.823622
11
23.172914
21
8.231181
0
LINE
8
Layer 1
10
23.172914
20
8.231181
11
23.415884
21
7.478307
0
LINE
8
Layer 1
10
23.415884
20
7.478307
11
23.847278
21
6.869231
0
LINE
8
Layer 1
10
23.847278
20
6.869231
11
24.015869
21
6.708077
0
LINE
8
Layer 1
10
24.015869
20
6.708077
11
23.926615
21
6.710557
0
LINE
8
Layer 1
10
23.926615
20
6.710557
11
23.199360
21
7.065920
0
LINE
8
Layer 1
10
23.199360
20
7.065920
11
22.551445
21
7.570040
0
LINE
8
Layer 1
10
22.551445
20
7.570040
11
22.169636
21
8.145233
0
LINE
8
Layer 1
10
22.169636
20
8.145233
11
22.115092
21
8.720429
0
LINE
8
Layer 1
10
22.115092
20
8.720429
11
22.676236
21
9.788999
0
LINE
8
Layer 1
10
22.676236
20
9.788999
11
23.648942
21
10.664179
0
LINE
8
Layer 1
10
23.648942
20
10.664179
11
24.362973
21
10.936900
0
LINE
8
Layer 1
10
24.362973
20
10.936900
11
25.096842
21
11.041029
0
LINE
8
Layer 1
10
25.096842
20
11.041029
11
25.625755
21
11.107144
0
LINE
8
Layer 1
10
25.625755
20
11.107144
11
25.814180
21
11.130284
0
LINE
8
Layer 1
10
25.814180
20
11.130284
11
26.042274
21
10.955082
0
LINE
8
Layer 1
10
26.042274
20
10.955082
11
26.624078
21
10.485672
0
LINE
8
Layer 1
10
26.624078
20
10.485672
11
27.314145
21
9.846844
0
LINE
8
Layer 1
10
27.314145
20
9.846844
11
27.820748
21
9.064222
0
LINE
8
Layer 1
10
27.820748
20
9.064222
11
28.015785
21
8.573324
0
LINE
8
Layer 1
10
28.015785
20
8.573324
11
28.052147
21
8.072511
0
LINE
8
Layer 1
10
28.052147
20
8.072511
11
27.913308
21
7.218813
0
LINE
8
Layer 1
10
27.913308
20
7.218813
11
27.496789
21
6.518831
0
LINE
8
Layer 1
10
27.496789
20
6.518831
11
26.902588
21
6.033718
0
LINE
8
Layer 1
10
26.902588
20
6.033718
11
25.777819
21
5.553565
0
LINE
8
Layer 1
10
25.777819
20
5.553565
11
24.836521
21
5.124650
0
LINE
8
Layer 1
10
24.836521
20
5.124650
11
24.594379
21
4.720527
0
LINE
8
Layer 1
10
24.594379
20
4.720527
11
24.545620
21
4.572596
0
LINE
8
Layer 1
10
24.545620
20
4.572596
11
24.144803
21
4.667635
0
LINE
8
Layer 1
10
24.144803
20
4.667635
11
23.272096
21
5.029507
0
LINE
8
Layer 1
10
23.272096
20
5.029507
11
22.533271
21
5.574225
0
LINE
8
Layer 1
10
22.533271
20
5.574225
11
21.935764
21
6.293734
0
LINE
8
Layer 1
10
21.935764
20
6.293734
11
21.487013
21
7.179975
0
LINE
8
Layer 1
10
21.487013
20
7.179975
11
21.296109
21
8.298130
0
LINE
8
Layer 1
10
21.296109
20
8.298130
11
21.387842
21
9.421245
0
LINE
8
Layer 1
10
21.387842
20
9.421245
11
21.938449
21
10.626175
0
LINE
8
Layer 1
10
21.938449
20
10.626175
11
22.777892
21
11.533592
0
LINE
8
Layer 1
10
22.777892
20
11.533592
11
23.847908
21
12.098868
0
LINE
8
Layer 1
10
23.847908
20
12.098868
11
25.090232
21
12.277375
0
LINE
8
Layer 1
10
25.090232
20
12.277375
11
25.685259
21
12.264152
0
LINE
8
Layer 1
10
25.685259
20
12.264152
11
25.705093
21
11.887303
0
LINE
8
Layer 1
10
25.705093
20
11.887303
11
25.705089
21
11.887291
0
LINE
8
Layer 1
10
13.897089
20
11.768286
11
13.797091
21
11.331933
0
LINE
8
Layer 1
10
13.797091
20
11.331933
11
13.176445
21
10.816243
0
LINE
8
Layer 1
10
13.176445
20
10.816243
11
12.591129
21
10.295801
0
LINE
8
Layer 1
10
12.591129
20
10.295801
11
12.103744
21
9.662553
0
LINE
8
Layer 1
10
12.103744
20
9.662553
11
11.757677
21
8.984677
0
LINE
8
Layer 1
10
11.757677
20
8.984677
11
11.596315
21
8.330353
0
LINE
8
Layer 1
10
11.596315
20
8.330353
11
11.764080
21
7.077492
0
LINE
8
Layer 1
10
11.764080
20
7.077492
11
12.422741
21
6.062643
0
LINE
8
Layer 1
10
12.422741
20
6.062643
11
13.158260
21
5.562655
0
LINE
8
Layer 1
10
13.158260
20
5.562655
11
14.221041
21
5.117211
0
LINE
8
Layer 1
10
14.221041
20
5.117211
11
14.920198
21
4.846142
0
LINE
8
Layer 1
10
14.920198
20
4.846142
11
15.073913
21
4.654412
0
LINE
8
Layer 1
10
15.073913
20
4.654412
11
14.759044
21
4.564331
0
LINE
8
Layer 1
10
14.759044
20
4.564331
11
14.062363
21
4.667634
0
LINE
8
Layer 1
10
14.062363
20
4.667634
11
13.165275
21
5.045517
0
LINE
8
Layer 1
10
13.165275
20
5.045517
11
12.374799
21
5.657693
0
LINE
8
Layer 1
10
12.374799
20
5.657693
11
11.745478
21
6.450856
0
LINE
8
Layer 1
10
11.745478
20
6.450856
11
11.331853
21
7.371704
0
LINE
8
Layer 1
10
11.331853
20
7.371704
11
11.209542
21
8.484073
0
LINE
8
Layer 1
10
11.209542
20
8.484073
11
11.364910
21
9.586524
0
LINE
8
Layer 1
10
11.364910
20
9.586524
11
11.993820
21
10.776576
0
LINE
8
Layer 1
10
11.993820
20
10.776576
11
12.925200
21
11.669114
0
LINE
8
Layer 1
10
12.925200
20
11.669114
11
13.830963
21
12.092244
0
LINE
8
Layer 1
10
13.830963
20
12.092244
11
13.897077
21
11.768285
0
LINE
8
Layer 1
10
13.897077
20
11.768285
11
13.897089
21
11.768286
0
LINE
8
Layer 1
10
26.875289
20
11.814565
11
27.674442
21
11.198878
0
LINE
8
Layer 1
10
27.674442
20
11.198878
11
28.329799
21
10.419555
0
LINE
8
Layer 1
10
28.329799
20
10.419555
11
28.837227
21
8.996345
0
LINE
8
Layer 1
10
28.837227
20
8.996345
11
28.794253
21
7.552683
0
LINE
8
Layer 1
10
28.794253
20
7.552683
11
28.233109
21
6.236704
0
LINE
8
Layer 1
10
28.233109
20
6.236704
11
27.186029
21
5.196545
0
LINE
8
Layer 1
10
27.186029
20
5.196545
11
26.233986
21
4.733746
0
LINE
8
Layer 1
10
26.233986
20
4.733746
11
25.394334
21
4.561023
0
LINE
8
Layer 1
10
25.394334
20
4.561023
11
24.991036
21
4.661021
0
LINE
8
Layer 1
10
24.991036
20
4.661021
11
25.194337
21
4.873413
0
LINE
8
Layer 1
10
25.194337
20
4.873413
11
25.982748
21
5.189934
0
LINE
8
Layer 1
10
25.982748
20
5.189934
11
27.060410
21
5.640336
0
LINE
8
Layer 1
10
27.060410
20
5.640336
11
27.741388
21
6.175034
0
LINE
8
Layer 1
10
27.741388
20
6.175034
11
28.264516
21
6.916338
0
LINE
8
Layer 1
10
28.264516
20
6.916338
11
28.475255
21
7.860944
0
LINE
8
Layer 1
10
28.475255
20
7.860944
11
28.394575
21
8.739124
0
LINE
8
Layer 1
10
28.394575
20
8.739124
11
28.033116
21
9.590653
0
LINE
8
Layer 1
10
28.033116
20
9.590653
11
27.405135
21
10.388877
0
LINE
8
Layer 1
10
27.405135
20
10.388877
11
26.524885
21
11.107144
0
LINE
8
Layer 1
10
26.524885
20
11.107144
11
26.141423
21
11.483994
0
LINE
8
Layer 1
10
26.141423
20
11.483994
11
26.181091
21
11.841010
0
LINE
8
Layer 1
10
26.181091
20
11.841010
11
26.205058
21
12.060013
0
LINE
8
Layer 1
10
26.205058
20
12.060013
11
26.333153
21
12.065798
0
LINE
8
Layer 1
10
26.333153
20
12.065798
11
26.875289
21
11.814564
0
LINE
8
Layer 1
10
26.875289
20
11.814564
11
26.875289
21
11.814565
0
LINE
8
Layer 1
10
17.883769
20
11.424492
11
18.280454
21
11.007973
0
LINE
8
Layer 1
10
18.280454
20
11.007973
11
17.850712
21
11.404658
0
LINE
8
Layer 1
10
17.850712
20
11.404658
11
17.394525
21
11.821177
0
LINE
8
Layer 1
10
17.394525
20
11.821177
11
17.427582
21
11.834400
0
LINE
8
Layer 1
10
17.427582
20
11.834400
11
17.883769
21
11.424493
0
LINE
8
Layer 1
10
17.883769
20
11.424493
11
17.883769
21
11.424492
0
LINE
8
Layer 1
10
21.817559
20
11.510441
11
21.599382
21
11.212928
0
LINE
8
Layer 1
10
21.599382
20
11.212928
11
21.295257
21
10.789798
0
LINE
8
Layer 1
10
21.295257
20
10.789798
11
21.215920
21
10.637736
0
LINE
8
Layer 1
10
21.215920
20
10.637736
11
21.057246
21
10.803021
0
LINE
8
Layer 1
10
21.057246
20
10.803021
11
20.822541
21
10.950951
0
LINE
8
Layer 1
10
20.822541
20
10.950951
11
20.210986
21
10.974918
0
LINE
8
Layer 1
10
20.210986
20
10.974918
11
19.311834
21
10.902192
0
LINE
8
Layer 1
10
19.311834
20
10.902192
11
19.116798
21
10.774096
0
LINE
8
Layer 1
10
19.116798
20
10.774096
11
19.020932
21
10.412948
0
LINE
8
Layer 1
10
19.020932
20
10.412948
11
18.908538
21
10.558399
0
LINE
8
Layer 1
10
18.908538
20
10.558399
11
18.571356
21
11.166649
0
LINE
8
Layer 1
10
18.571356
20
11.166649
11
18.320122
21
11.497219
0
LINE
8
Layer 1
10
18.320122
20
11.497219
11
19.027543
21
11.517053
0
LINE
8
Layer 1
10
19.027543
20
11.517053
11
21.817563
21
11.510442
0
LINE
8
Layer 1
10
21.817563
20
11.510442
11
21.817559
21
11.510441
0
LINE
8
Layer 1
10
18.386239
20
10.862523
11
18.445742
21
10.777401
0
LINE
8
Layer 1
10
18.445742
20
10.777401
11
18.366405
21
10.836077
0
LINE
8
Layer 1
10
18.366405
20
10.836077
11
18.273845
21
10.974917
0
LINE
8
Layer 1
10
18.273845
20
10.974917
11
18.386239
21
10.862523
0
LINE
8
Layer 1
10
18.386239
20
10.862523
11
18.386239
21
10.862523
0
LINE
8
Layer 1
10
20.746509
20
10.432781
11
20.224208
21
10.326998
0
LINE
8
Layer 1
10
20.224208
20
10.326998
11
19.437450
21
10.446003
0
LINE
8
Layer 1
10
19.437450
20
10.446003
11
20.105202
21
10.512117
0
LINE
8
Layer 1
10
20.105202
20
10.512117
11
20.746509
21
10.432780
0
LINE
8
Layer 1
10
20.746509
20
10.432780
11
20.746509
21
10.432781
0
LINE
8
Layer 1
10
21.308479
20
9.950148
11
21.242365
21
9.877422
0
LINE
8
Layer 1
10
21.242365
20
9.877422
11
21.255588
21
9.976593
0
LINE
8
Layer 1
10
21.255588
20
9.976593
11
21.321702
21
10.045187
0
LINE
8
Layer 1
10
21.321702
20
10.045187
11
21.308479
21
9.950148
0
LINE
8
Layer 1
10
21.308479
20
9.950148
11
21.308479
21
9.950148
0
LINE
8
Layer 1
10
15.437549
20
9.910479
11
15.979685
21
9.612966
0
LINE
8
Layer 1
10
15.979685
20
9.612966
11
16.230919
21
9.381567
0
LINE
8
Layer 1
10
16.230919
20
9.381567
11
15.913571
21
9.599744
0
LINE
8
Layer 1
10
15.913571
20
9.599744
11
15.561513
21
9.783211
0
LINE
8
Layer 1
10
15.561513
20
9.783211
11
15.080533
21
9.817921
0
LINE
8
Layer 1
10
15.080533
20
9.817921
11
14.607817
21
9.787344
0
LINE
8
Layer 1
10
14.607817
20
9.787344
11
14.293775
21
9.632802
0
LINE
8
Layer 1
10
14.293775
20
9.632802
11
13.809489
21
9.138599
0
LINE
8
Layer 1
10
13.809489
20
9.138599
11
13.632634
21
8.455972
0
LINE
8
Layer 1
10
13.632634
20
8.455972
11
13.778085
21
7.636157
0
LINE
8
Layer 1
10
13.778085
20
7.636157
11
14.439226
21
6.894025
0
LINE
8
Layer 1
10
14.439226
20
6.894025
11
14.869586
21
6.721302
0
LINE
8
Layer 1
10
14.869586
20
6.721302
11
15.338375
21
6.697337
0
LINE
8
Layer 1
10
15.338375
20
6.697337
11
15.503660
21
6.677503
0
LINE
8
Layer 1
10
15.503660
20
6.677503
11
15.090447
21
6.621306
0
LINE
8
Layer 1
10
15.090447
20
6.621306
11
14.578063
21
6.723783
0
LINE
8
Layer 1
10
14.578063
20
6.723783
11
14.135098
21
6.966856
0
LINE
8
Layer 1
10
14.135098
20
6.966856
11
13.766511
21
7.349388
0
LINE
8
Layer 1
10
13.766511
20
7.349388
11
13.514450
21
7.812498
0
LINE
8
Layer 1
10
13.514450
20
7.812498
11
13.421063
21
8.297303
0
LINE
8
Layer 1
10
13.421063
20
8.297303
11
13.504119
21
8.803386
0
LINE
8
Layer 1
10
13.504119
20
8.803386
11
13.733452
21
9.261742
0
LINE
8
Layer 1
10
13.733452
20
9.261742
11
14.079310
21
9.629603
0
LINE
8
Layer 1
10
14.079310
20
9.629603
11
14.511943
21
9.864203
0
LINE
8
Layer 1
10
14.511943
20
9.864203
11
14.982180
21
9.971638
0
LINE
8
Layer 1
10
14.982180
20
9.971638
11
15.437540
21
9.910483
0
LINE
8
Layer 1
10
15.437540
20
9.910483
11
15.437549
21
9.910479
0
LINE
8
Layer 1
10
25.784449
20
9.784862
11
26.261297
21
9.387351
0
LINE
8
Layer 1
10
26.261297
20
9.387351
11
26.564595
21
8.865876
0
LINE
8
Layer 1
10
26.564595
20
8.865876
11
26.639800
21
8.217958
0
LINE
8
Layer 1
10
26.639800
20
8.217958
11
26.511704
21
7.629546
0
LINE
8
Layer 1
10
26.511704
20
7.629546
11
26.128758
21
7.126149
0
LINE
8
Layer 1
10
26.128758
20
7.126149
11
25.600154
21
6.775848
0
LINE
8
Layer 1
10
25.600154
20
6.775848
11
25.023205
21
6.622649
0
LINE
8
Layer 1
10
25.023205
20
6.622649
11
24.495224
21
6.710560
0
LINE
8
Layer 1
10
24.495224
20
6.710560
11
24.296882
21
6.803120
0
LINE
8
Layer 1
10
24.296882
20
6.803120
11
24.495224
21
6.756840
0
LINE
8
Layer 1
10
24.495224
20
6.756840
11
25.323303
21
6.777501
0
LINE
8
Layer 1
10
25.323303
20
6.777501
11
26.022464
21
7.219639
0
LINE
8
Layer 1
10
26.022464
20
7.219639
11
26.365327
21
7.726755
0
LINE
8
Layer 1
10
26.365327
20
7.726755
11
26.499312
21
8.276639
0
LINE
8
Layer 1
10
26.499312
20
8.276639
11
26.421318
21
8.825283
0
LINE
8
Layer 1
10
26.421318
20
8.825283
11
26.128247
21
9.328679
0
LINE
8
Layer 1
10
26.128247
20
9.328679
11
25.655841
21
9.703567
0
LINE
8
Layer 1
10
25.655841
20
9.703567
11
25.110916
21
9.853460
0
LINE
8
Layer 1
10
25.110916
20
9.853460
11
24.552354
21
9.774019
0
LINE
8
Layer 1
10
24.552354
20
9.774019
11
24.039037
21
9.460907
0
LINE
8
Layer 1
10
24.039037
20
9.460907
11
23.897718
21
9.345207
0
LINE
8
Layer 1
10
23.897718
20
9.345207
11
23.920032
21
9.427850
0
LINE
8
Layer 1
10
23.920032
20
9.427850
11
24.229942
21
9.734661
0
LINE
8
Layer 1
10
24.229942
20
9.734661
11
24.713403
21
9.908830
0
LINE
8
Layer 1
10
24.713403
20
9.908830
11
25.266283
21
9.931763
0
LINE
8
Layer 1
10
25.266283
20
9.931763
11
25.784452
21
9.784866
0
LINE
8
Layer 1
10
25.784452
20
9.784866
11
25.784449
21
9.784862
0
LINE
8
Layer 1
10
14.485549
20
9.222892
11
14.179771
21
8.755135
0
LINE
8
Layer 1
10
14.179771
20
8.755135
11
14.102087
21
8.198122
0
LINE
8
Layer 1
10
14.102087
20
8.198122
11
14.303735
21
7.717969
0
LINE
8
Layer 1
10
14.303735
20
7.717969
11
14.703725
21
7.332027
0
LINE
8
Layer 1
10
14.703725
20
7.332027
11
15.388831
21
7.224592
0
LINE
8
Layer 1
10
15.388831
20
7.224592
11
16.098735
21
7.523758
0
LINE
8
Layer 1
10
16.098735
20
7.523758
11
16.019398
21
7.431199
0
LINE
8
Layer 1
10
16.019398
20
7.431199
11
15.509493
21
7.143602
0
LINE
8
Layer 1
10
15.509493
20
7.143602
11
14.954958
21
7.133686
0
LINE
8
Layer 1
10
14.954958
20
7.133686
11
14.494225
21
7.378721
0
LINE
8
Layer 1
10
14.494225
20
7.378721
11
14.169852
21
7.779951
0
LINE
8
Layer 1
10
14.169852
20
7.779951
11
14.021509
21
8.267956
0
LINE
8
Layer 1
10
14.021509
20
8.267956
11
14.088863
21
8.773316
0
LINE
8
Layer 1
10
14.088863
20
8.773316
11
14.630999
21
9.388177
0
LINE
8
Layer 1
10
14.630999
20
9.388177
11
14.485548
21
9.222892
0
LINE
8
Layer 1
10
14.485548
20
9.222892
11
14.485549
21
9.222892
0
LINE
8
Layer 1
10
25.956349
20
8.879099
11
26.074218
21
8.378285
0
LINE
8
Layer 1
10
26.074218
20
8.378285
11
25.977010
21
7.892347
0
LINE
8
Layer 1
10
25.977010
20
7.892347
11
25.687657
21
7.473350
0
LINE
8
Layer 1
10
25.687657
20
7.473350
11
25.229094
21
7.173359
0
LINE
8
Layer 1
10
25.229094
20
7.173359
11
24.754725
21
7.105592
0
LINE
8
Layer 1
10
24.754725
20
7.105592
11
24.250605
21
7.246085
0
LINE
8
Layer 1
10
24.250605
20
7.246085
11
23.668801
21
7.900615
0
LINE
8
Layer 1
10
23.668801
20
7.900615
11
23.840698
21
7.722107
0
LINE
8
Layer 1
10
23.840698
20
7.722107
11
24.454320
21
7.268399
0
LINE
8
Layer 1
10
24.454320
20
7.268399
11
25.159676
21
7.256002
0
LINE
8
Layer 1
10
25.159676
20
7.256002
11
25.741068
21
7.625415
0
LINE
8
Layer 1
10
25.741068
20
7.625415
11
25.982798
21
8.317134
0
LINE
8
Layer 1
10
25.982798
20
8.317134
11
25.915857
21
8.777453
0
LINE
8
Layer 1
10
25.915857
20
8.777453
11
25.625782
21
9.183229
0
LINE
8
Layer 1
10
25.625782
20
9.183229
11
25.420828
21
9.408017
0
LINE
8
Layer 1
10
25.420828
20
9.408017
11
25.625782
21
9.269177
0
LINE
8
Layer 1
10
25.625782
20
9.269177
11
25.956353
21
8.879104
0
LINE
8
Layer 1
10
25.956353
20
8.879104
11
25.956349
21
8.879099
0
LINE
8
Layer 1
10
15.721849
20
9.097276
11
16.006759
21
8.802139
0
LINE
8
Layer 1
10
16.006759
20
8.802139
11
16.082171
21
8.397293
0
LINE
8
Layer 1
10
16.082171
20
8.397293
11
15.954281
21
7.993687
0
LINE
8
Layer 1
10
15.954281
20
7.993687
11
15.629289
21
7.702266
0
LINE
8
Layer 1
10
15.629289
20
7.702266
11
14.983024
21
7.689870
0
LINE
8
Layer 1
10
14.983024
20
7.689870
11
14.545019
21
8.158453
0
LINE
8
Layer 1
10
14.545019
20
8.158453
11
14.558758
21
8.611026
0
LINE
8
Layer 1
10
14.558758
20
8.611026
11
14.833442
21
8.977443
0
LINE
8
Layer 1
10
14.833442
20
8.977443
11
15.258121
21
9.169071
0
LINE
8
Layer 1
10
15.258121
20
9.169071
11
15.721849
21
9.097273
0
LINE
8
Layer 1
10
15.721849
20
9.097273
11
15.721849
21
9.097276
0
LINE
8
Layer 1
10
25.103439
20
9.064219
11
25.487934
21
8.716396
0
LINE
8
Layer 1
10
25.487934
20
8.716396
11
25.581113
21
8.260104
0
LINE
8
Layer 1
10
25.581113
20
8.260104
11
25.399093
21
7.847200
0
LINE
8
Layer 1
10
25.399093
20
7.847200
11
24.957988
21
7.629539
0
LINE
8
Layer 1
10
24.957988
20
7.629539
11
24.394676
21
7.770135
0
LINE
8
Layer 1
10
24.394676
20
7.770135
11
24.066275
21
8.213823
0
LINE
8
Layer 1
10
24.066275
20
8.213823
11
24.051503
21
8.740566
0
LINE
8
Layer 1
10
24.051503
20
8.740566
11
24.429075
21
9.130329
0
LINE
8
Layer 1
10
24.429075
20
9.130329
11
24.734026
21
9.176609
0
LINE
8
Layer 1
10
24.734026
20
9.176609
11
25.103439
21
9.064215
0
LINE
8
Layer 1
10
25.103439
20
9.064215
11
25.103439
21
9.064219
 0 
ENDSEC
 0 
EOF