<?xml version="1.0" standalone="no"?>
<!DOCTYPE svg PUBLIC "-//W3C//DTD SVG 20010904//EN"
 "http://www.w3.org/TR/2001/REC-SVG-20010904/DTD/svg10.dtd">
<svg version="1.0" xmlns="http://www.w3.org/2000/svg"
 width="283.464567pt" height="283.464567pt" viewBox="0 0 283.464567 283.464567"
 preserveAspectRatio="xMidYMid meet">
<metadata>
Created by potrace 1.16, written by Peter Selinger 2001-2019
</metadata>
<g transform="translate(0.000000,283.464567) scale(0.018748,-0.018748)"
fill="#000000" stroke="none">
<path d="M12395 15080 c-490 -129 -887 -331 -1210 -615 -38 -34 -81 -70 -93
-81 -44 -35 -249 -262 -337 -371 -323 -403 -539 -871 -661 -1433 -88 -403 -99
-952 -28 -1399 29 -189 138 -656 175 -756 23 -63 131 -217 250 -360 123 -147
404 -450 490 -528 94 -87 275 -223 406 -307 56 -36 102 -68 102 -72 1 -4 -32
-53 -72 -110 -107 -149 -187 -264 -320 -460 -65 -95 -160 -234 -212 -308 -52
-74 -148 -214 -214 -310 -66 -96 -141 -204 -166 -240 -25 -36 -96 -138 -157
-227 -61 -90 -114 -163 -118 -163 -9 0 -48 30 -125 95 -333 284 -597 464 -915
622 -226 113 -446 195 -855 319 -280 85 -271 83 -311 74 -58 -13 -73 -32 -228
-286 -30 -51 -103 -165 -160 -255 -144 -225 -250 -395 -444 -709 -36 -58 -86
-136 -112 -175 -26 -38 -84 -131 -130 -205 -161 -263 -182 -296 -242 -390 -33
-52 -95 -151 -136 -220 -41 -69 -106 -173 -143 -232 -37 -59 -75 -121 -84
-138 -13 -26 -21 -31 -38 -25 -51 15 -98 26 -192 45 -337 66 -642 66 -965 0
-355 -73 -738 -246 -985 -445 -33 -26 -66 -52 -72 -58 -9 -6 -16 -2 -24 15
-14 32 -59 58 -101 58 -23 0 -43 -10 -68 -33 -363 -339 -624 -574 -770 -692
-338 -275 -467 -373 -776 -593 -816 -581 -1615 -1093 -2236 -1432 l-118 -65 0
-107 c0 -60 3 -108 7 -108 10 0 328 167 453 238 411 234 1148 705 1682 1077
48 33 135 93 195 134 453 312 1025 765 1331 1055 34 33 64 57 67 55 2 -3 -6
-21 -19 -40 -39 -57 -109 -189 -144 -269 -127 -297 -155 -656 -77 -970 46
-182 92 -296 178 -443 140 -237 386 -492 622 -646 76 -49 261 -143 365 -185
87 -36 279 -91 400 -116 148 -30 276 -41 479 -39 l183 1 31 -39 c62 -77 275
-287 355 -350 45 -35 82 -68 82 -73 0 -10 -21 -17 -360 -126 -638 -205 -732
-235 -850 -270 -69 -20 -130 -43 -136 -50 -9 -12 -310 -14 -1884 -14 -1642 0
-1879 2 -1924 15 -28 8 -118 31 -201 50 -82 20 -220 54 -305 75 -152 39 -419
101 -493 114 l-37 7 0 -110 0 -109 53 -7 c133 -16 196 -28 191 -37 -4 -6 -51
-7 -125 -3 l-119 7 0 -104 0 -105 262 -7 c345 -9 687 -44 1162 -121 337 -54
982 -208 1389 -331 109 -33 157 -43 180 -38 18 3 133 36 257 71 525 152 966
262 1270 318 510 93 782 129 1340 176 213 18 688 15 900 -5 686 -65 1233 -159
1427 -246 79 -36 398 -218 578 -330 77 -48 219 -136 315 -195 96 -60 226 -142
289 -183 133 -87 174 -106 210 -97 33 8 158 79 391 223 102 63 284 174 405
247 121 73 280 169 353 214 139 85 545 312 669 375 348 174 892 259 1558 243
138 -4 297 -11 355 -17 472 -48 1239 -197 1671 -325 64 -19 121 -35 128 -35 7
0 11 32 11 103 l0 104 -37 12 c-87 28 -259 74 -423 111 -96 22 -202 47 -235
55 -33 8 -98 21 -145 30 -47 9 -116 23 -155 30 -555 108 -1203 157 -1653 125
-81 -6 -226 -20 -322 -30 -96 -11 -181 -20 -188 -20 -6 0 41 53 106 117 65 65
158 163 207 217 50 55 156 171 237 258 81 87 195 214 254 281 262 299 313 353
346 364 48 16 371 152 683 288 149 65 338 147 420 182 83 36 195 84 250 108
55 24 224 97 375 163 l275 119 3 111 3 111 -148 -65 c-81 -36 -200 -87 -263
-114 -63 -26 -221 -94 -350 -150 -129 -57 -280 -122 -335 -145 -55 -24 -215
-93 -355 -155 -277 -121 -540 -227 -635 -256 -59 -19 -105 -55 -175 -139 -98
-118 -383 -435 -390 -435 -6 0 -5 11 0 26 16 40 12 322 -6 432 -44 272 -147
500 -323 712 -112 135 -277 260 -454 344 -74 34 -89 45 -94 69 -3 15 -18 36
-33 47 -39 28 -474 166 -768 245 -246 65 -312 87 -312 102 0 3 11 29 24 58 67
140 165 497 201 730 9 55 18 176 22 268 3 92 9 169 12 171 3 2 40 -6 81 -19
1037 -322 1686 -512 2060 -605 118 -29 222 -55 230 -58 8 -2 -25 -15 -75 -27
-193 -48 -313 -112 -429 -230 -148 -149 -229 -341 -243 -575 -15 -248 65 -448
257 -641 95 -95 115 -110 210 -156 155 -76 212 -88 410 -87 150 1 173 3 255
28 332 101 547 328 615 650 54 254 -7 502 -178 717 -35 45 -62 83 -59 85 2 2
27 -7 55 -21 29 -14 55 -25 59 -25 3 0 112 -42 242 -94 130 -52 306 -121 391
-155 85 -33 231 -89 323 -125 93 -37 171 -66 173 -66 2 0 4 49 4 108 l0 109
-27 12 c-59 27 -332 135 -408 161 -69 24 -287 106 -560 212 -44 17 -87 37 -95
45 -17 16 -16 16 100 -11 79 -19 263 -36 385 -36 159 0 329 26 513 77 l92 26
0 107 0 108 -42 -13 c-146 -47 -183 -57 -278 -77 -86 -18 -137 -22 -285 -22
-178 0 -242 8 -430 50 -351 79 -670 268 -874 518 -149 183 -231 336 -294 546
-57 191 -62 230 -62 465 1 215 1 223 33 348 37 142 84 271 132 362 251 469
747 808 1289 881 237 31 480 4 725 -82 38 -13 73 -24 78 -24 4 0 8 49 8 110
l0 109 -32 10 c-238 71 -340 86 -578 86 -208 0 -308 -13 -484 -61 -740 -205
-1250 -765 -1367 -1504 -21 -126 -18 -421 4 -544 58 -314 185 -589 383 -827
114 -137 298 -297 424 -367 66 -37 64 -56 -3 -32 -54 20 -134 39 -327 81 -218
47 -307 69 -615 156 -196 55 -759 221 -905 267 -25 8 -72 22 -105 31 -33 9
-78 23 -100 30 -22 8 -107 35 -190 60 -82 26 -211 67 -285 91 -74 23 -151 44
-170 46 -39 3 -34 -13 -65 188 -55 358 -143 648 -299 988 -59 130 -64 146 -43
159 24 15 127 156 362 498 83 121 183 265 221 320 39 55 109 156 155 225 164
240 382 556 463 668 l81 113 60 -6 c69 -7 248 -28 484 -55 280 -33 518 -43
868 -37 330 5 418 13 703 62 395 67 777 178 1318 384 l42 16 0 107 0 107 -82
-30 c-46 -18 -105 -40 -133 -51 -179 -68 -518 -179 -665 -217 -41 -11 -127
-33 -190 -50 -194 -51 -389 -85 -645 -113 -157 -17 -739 -17 -945 0 -165 14
-487 55 -495 64 -3 3 34 8 82 12 302 24 673 87 973 167 220 59 557 178 955
339 220 88 487 195 593 237 l194 75 71 -32 c40 -18 110 -50 156 -72 46 -21 94
-41 107 -44 l24 -6 0 113 0 114 -52 21 c-29 12 -54 26 -55 31 -2 6 21 20 52
33 l55 22 0 109 c0 60 -2 109 -5 109 -3 0 -54 -18 -113 -39 -59 -22 -146 -53
-193 -70 l-87 -31 -98 16 c-147 24 -769 25 -944 1 -288 -40 -587 -119 -985
-262 -71 -25 -168 -59 -215 -75 -47 -16 -130 -45 -185 -64 -55 -20 -105 -36
-111 -36 -16 0 -89 183 -187 475 -30 88 -83 241 -117 340 -374 1086 -409 1260
-396 1960 8 396 23 887 32 1043 l7 114 76 76 c134 135 437 400 446 390 2 -2
-14 -31 -36 -63 -56 -83 -83 -138 -113 -231 -68 -217 -55 -408 41 -584 155
-286 459 -450 863 -467 300 -12 543 56 744 208 286 217 403 630 284 999 -57
178 -178 347 -316 442 -70 49 -192 105 -277 129 -106 31 -360 34 -472 7 -136
-33 -118 -16 62 60 151 63 232 86 287 80 68 -8 408 -145 643 -259 643 -311
1024 -755 1160 -1349 41 -181 49 -258 49 -470 1 -288 -33 -480 -134 -775 -150
-434 -306 -693 -576 -955 -197 -191 -357 -283 -629 -362 -372 -107 -668 -66
-855 121 -99 100 -190 243 -122 193 37 -28 163 -83 238 -104 65 -19 103 -23
214 -23 159 0 221 14 355 80 205 99 345 267 410 490 104 355 -41 727 -354 911
-137 80 -290 109 -492 92 -373 -30 -679 -341 -714 -726 -9 -92 10 -431 29
-517 40 -189 105 -327 224 -476 78 -97 150 -156 255 -210 245 -125 550 -128
927 -10 113 35 144 48 274 113 486 242 884 802 1076 1516 l30 112 0 528 c0
420 -3 538 -14 573 -7 24 -21 71 -31 104 -44 154 -143 368 -238 513 -130 200
-349 423 -562 573 -89 63 -273 170 -370 215 -52 24 -95 49 -95 55 0 7 7 8 18
4 9 -4 46 -16 82 -26 36 -11 128 -40 205 -65 77 -25 169 -54 205 -66 97 -31
393 -132 580 -198 91 -32 177 -62 193 -65 l27 -7 0 108 0 109 -68 23 c-177 62
-801 272 -907 306 -702 222 -614 206 -1165 205 l-445 -1 -140 -38z m285 -149
c0 -4 -49 -36 -109 -69 -120 -66 -453 -286 -596 -393 -119 -88 -316 -258 -440
-379 -55 -54 -123 -112 -152 -129 -28 -17 -54 -39 -58 -49 -4 -9 -9 -66 -11
-127 -2 -60 -9 -236 -14 -390 -34 -921 -33 -1140 5 -1430 18 -142 67 -387 100
-506 59 -213 335 -1032 480 -1424 39 -107 50 -145 42 -145 -5 0 -111 44 -182
74 -16 8 -93 39 -170 71 -482 197 -709 305 -967 459 -97 58 -181 106 -187 106
-29 0 -128 439 -178 790 -25 178 -25 647 0 845 54 420 155 753 344 1135 173
349 418 660 751 951 260 228 517 373 877 496 86 29 357 101 435 116 14 2 26 5
28 6 1 0 2 -3 2 -8z m492 -440 c123 -32 195 -75 301 -179 142 -138 215 -367
187 -579 -36 -276 -212 -485 -480 -572 -83 -26 -227 -51 -299 -51 -139 0 -363
51 -491 112 -189 90 -330 302 -330 496 0 233 193 521 444 661 96 54 266 111
371 124 91 12 226 6 297 -12z m63 -2276 c268 -57 455 -288 455 -561 -1 -203
-101 -386 -275 -503 -114 -76 -186 -95 -338 -88 -162 7 -233 33 -347 128 -81
67 -152 177 -187 288 -132 420 252 829 692 736z m-2546 -2010 c82 -55 558
-269 931 -420 262 -105 415 -155 480 -155 53 0 315 83 620 195 244 90 530 180
705 220 202 46 304 56 626 62 319 6 378 0 292 -27 -21 -7 -49 -19 -63 -26 -34
-19 -646 -261 -802 -318 -545 -197 -928 -280 -1540 -336 -222 -20 -275 -30
-289 -52 -21 -34 -303 148 -494 317 -148 132 -515 527 -515 556 0 14 7 11 49
-16z m-2396 -2029 c355 -106 562 -187 838 -327 258 -131 425 -241 684 -450
122 -99 268 -227 273 -239 2 -4 -44 -86 -101 -181 -57 -96 -157 -268 -222
-384 -65 -115 -135 -240 -156 -277 -22 -36 -39 -69 -39 -72 0 -3 -14 -29 -32
-58 -17 -29 -58 -105 -91 -168 -32 -63 -83 -144 -111 -180 -29 -36 -114 -153
-188 -260 -75 -107 -178 -255 -230 -327 -111 -158 -177 -253 -188 -272 -6 -11
-25 -8 -101 19 -52 18 -218 74 -369 125 -151 51 -347 119 -435 150 -88 31
-241 83 -340 117 -218 73 -501 174 -650 233 -147 58 -279 105 -293 105 -26 0
-17 19 83 175 28 44 79 125 112 180 115 189 219 355 448 720 315 501 486 773
551 880 30 50 111 178 180 285 68 107 132 210 142 228 20 41 22 41 235 -22z
m1960 -1313 c84 -184 132 -322 187 -543 84 -342 107 -634 75 -961 -24 -254
-54 -387 -153 -692 -52 -163 -70 -207 -82 -203 -46 16 -399 125 -615 191 -436
133 -505 156 -505 171 0 30 291 710 436 1018 101 215 177 356 317 591 50 83
111 188 137 235 68 125 154 269 161 270 3 0 22 -35 42 -77z m-4293 -1183 c116
-19 240 -47 249 -55 5 -5 -41 -83 -103 -175 -27 -41 -78 -122 -112 -180 -34
-58 -132 -222 -219 -365 -231 -383 -373 -687 -411 -878 -36 -185 -43 -226 -55
-302 -8 -46 -13 -166 -13 -285 0 -174 4 -221 23 -310 44 -209 141 -450 247
-616 20 -30 33 -58 30 -62 -12 -12 -235 0 -356 19 -505 78 -898 278 -1192 605
-256 287 -388 618 -388 978 0 160 15 258 61 411 99 320 360 652 689 872 300
202 672 333 1040 367 102 9 389 -4 510 -24z m547 -149 c43 -16 166 -64 273
-106 168 -67 519 -191 630 -223 49 -14 477 -163 580 -202 47 -17 146 -51 220
-75 178 -57 389 -131 397 -139 3 -3 -16 -29 -43 -58 -27 -29 -60 -66 -72 -82
l-23 -30 -67 65 c-192 186 -362 284 -687 393 -228 77 -392 101 -643 93 -399
-13 -701 -106 -1009 -310 -57 -38 -105 -72 -108 -77 -4 -6 -10 -10 -16 -10 -5
0 2 17 15 38 63 94 254 404 352 570 59 100 111 182 115 182 4 0 43 -13 86 -29z
m2468 -610 c-17 -53 -25 -60 -44 -37 -9 10 -4 22 21 53 18 22 35 39 37 37 1
-1 -5 -25 -14 -53z m-1667 39 c260 -28 584 -151 802 -305 41 -29 111 -87 155
-128 62 -59 78 -78 70 -90 -5 -8 -64 -81 -129 -163 -244 -304 -588 -742 -638
-811 -17 -24 -35 -38 -50 -39 -13 -1 -31 -2 -41 -3 -10 0 -91 -72 -180 -158
-177 -172 -387 -340 -565 -452 -191 -120 -303 -174 -522 -249 -116 -39 -369
-108 -374 -101 -21 29 -134 223 -161 278 -138 274 -203 590 -176 852 22 213
76 378 185 569 140 244 330 434 591 591 160 96 427 186 616 208 107 12 305 13
417 1z m6065 -224 c218 -42 383 -163 476 -349 52 -104 71 -181 72 -282 0 -186
-61 -330 -197 -468 -103 -104 -233 -165 -395 -187 -139 -19 -327 21 -455 95
-110 63 -232 222 -275 355 -30 91 -37 263 -15 350 61 239 258 435 488 485 84
18 209 18 301 1z m-4523 -41 c17 -9 30 -17 30 -19 0 -2 -14 -37 -32 -77 -17
-41 -50 -122 -72 -180 -23 -58 -45 -106 -49 -108 -8 -2 -107 133 -107 145 0
10 188 254 196 254 3 0 18 -7 34 -15z m420 -132 c80 -25 215 -66 300 -93 85
-27 196 -61 245 -75 129 -38 369 -117 378 -126 5 -4 -34 -69 -86 -145 -241
-356 -478 -766 -557 -964 -75 -188 -94 -291 -94 -505 -1 -191 20 -317 75 -467
109 -297 339 -548 617 -674 34 -15 62 -31 62 -34 0 -3 -88 -11 -195 -18 -416
-26 -1054 -114 -1499 -208 -112 -23 -118 -19 -46 30 151 103 338 289 435 436
97 146 187 338 238 510 78 265 105 572 72 822 -48 357 -125 591 -301 911 -43
79 -62 122 -56 130 5 7 55 128 112 269 101 256 102 258 129 252 14 -4 91 -27
171 -51z m-753 -320 c16 -21 49 -66 72 -100 l43 -61 -127 -294 c-188 -433
-256 -557 -426 -768 -155 -192 -397 -402 -719 -622 -156 -106 -509 -320 -522
-316 -5 2 3 19 17 38 322 435 417 567 702 979 129 186 228 315 601 785 144
182 274 346 288 364 13 17 29 32 34 32 4 0 21 -17 37 -37z m2078 -87 c282 -78
263 -72 235 -78 -14 -3 -56 -11 -95 -17 -113 -17 -259 -69 -422 -151 -84 -43
-153 -76 -153 -74 0 2 28 43 63 91 62 88 109 160 155 241 13 24 29 41 36 39 6
-2 88 -25 181 -51z m612 -272 c423 -62 761 -300 942 -662 49 -96 100 -259 116
-369 68 -452 -106 -826 -490 -1055 -280 -167 -556 -241 -895 -240 -350 1 -648
99 -873 287 -296 248 -432 750 -306 1131 75 227 331 514 631 708 162 105 323
165 523 196 151 23 221 24 352 4z m-2395 -176 c125 -254 186 -489 208 -792 23
-328 -37 -611 -196 -930 -160 -318 -477 -590 -818 -701 l-75 -25 -68 21 c-601
182 -1220 404 -1247 448 -3 4 34 26 82 50 211 104 603 332 787 459 261 178
406 293 558 441 277 270 413 481 627 974 40 92 76 167 80 167 4 0 32 -51 62
-112z m-1713 -907 c-8 -10 -90 -122 -183 -247 -165 -222 -255 -346 -383 -530
-35 -49 -73 -101 -85 -116 l-23 -28 -43 30 c-119 80 -402 337 -402 364 0 6 55
26 123 45 156 43 367 121 482 179 127 63 390 223 455 276 58 48 81 58 59 27z
m-686 -1192 c65 -40 336 -171 411 -200 32 -11 55 -23 53 -25 -2 -3 -69 1 -148
8 -254 21 -873 10 -1082 -18 -72 -10 -57 10 26 33 267 76 597 188 641 219 29
20 42 18 99 -17z m4660 -357 c-10 -7 -88 -53 -173 -101 -125 -70 -456 -267
-820 -486 -247 -149 -308 -186 -397 -242 -55 -34 -106 -63 -111 -63 -14 0 -79
38 -222 132 -168 109 -422 265 -665 410 -110 65 -201 122 -203 127 -2 5 14 12
35 15 21 4 88 18 148 31 312 69 818 142 1175 170 270 21 297 22 803 21 374 -1
445 -3 430 -14z m-7018 -119 c19 -7 24 -6 -385 -112 -151 -39 -360 -94 -465
-122 -104 -28 -203 -52 -220 -52 -16 0 -181 38 -365 85 -184 47 -380 96 -435
108 -89 20 -214 52 -300 76 -18 5 414 11 1040 14 589 3 1080 6 1092 8 12 1 29
-1 38 -5z"/>
<path d="M8345 11654 c-240 -36 -432 -109 -614 -234 -294 -202 -492 -507 -557
-861 -24 -133 -24 -376 0 -489 100 -466 451 -855 891 -988 186 -57 252 -66
460 -65 203 0 279 11 430 60 105 34 265 109 354 167 134 86 313 276 400 424
108 181 171 423 171 651 0 505 -280 972 -715 1189 -217 109 -354 142 -610 147
-99 2 -193 1 -210 -1z m330 -204 c144 -21 314 -79 430 -148 84 -50 231 -170
288 -236 258 -300 349 -710 236 -1059 -115 -352 -395 -632 -744 -740 -330
-102 -750 -45 -1028 141 -223 148 -399 394 -463 647 -78 310 -13 663 169 918
54 76 199 216 287 279 224 160 548 237 825 198z"/>
</g>
</svg>
