<?xml version="1.0" standalone="no"?>
<!DOCTYPE svg PUBLIC "-//W3C//DTD SVG 20010904//EN"
 "http://www.w3.org/TR/2001/REC-SVG-20010904/DTD/svg10.dtd">
<svg version="1.0" xmlns="http://www.w3.org/2000/svg"
 width="800.000000pt" height="457.000000pt" viewBox="0 0 800.000000 457.000000"
 preserveAspectRatio="xMidYMid meet">
<metadata>
Created by potrace 1.16, written by Peter Selinger 2001-2019
</metadata>
<g transform="translate(0.000000,457.000000) scale(0.100000,-0.100000)"
fill="#000000" stroke="none">
<path d="M4400 4418 c0 -75 -2 -84 -27 -110 -22 -23 -27 -36 -24 -68 2 -35 0
-40 -18 -40 -19 0 -21 -6 -21 -55 0 -33 -4 -55 -11 -55 -7 0 -10 -119 -7 -399
2 -220 1 -402 -2 -404 -3 -3 -53 -3 -112 0 l-108 6 0 228 0 229 -110 0 -110 0
0 -199 0 -200 33 -3 32 -3 6 -175 c3 -96 6 -176 7 -176 1 -1 31 -7 67 -13 66
-12 122 -29 95 -30 -8 0 -44 6 -80 14 -36 7 -66 12 -68 11 -1 -2 14 -31 34
-65 26 -44 41 -60 53 -57 76 24 198 46 251 46 154 0 463 -41 477 -63 4 -7 0
-8 -12 -4 -37 15 -185 36 -333 48 -146 11 -157 11 -261 -11 -136 -28 -137 -29
-122 -70 6 -18 11 -69 11 -114 0 -45 3 -117 6 -161 l7 -81 76 18 c42 10 90 22
106 26 l30 8 5 94 5 94 35 8 c66 13 454 31 560 25 58 -4 170 -16 250 -27 80
-12 223 -24 318 -27 l172 -6 0 87 c0 47 0 89 0 94 0 4 -129 9 -287 12 l-288 5
-5 40 -5 40 -140 7 c-77 4 -198 11 -270 17 -89 6 -188 5 -313 -2 -100 -7 -182
-9 -182 -6 0 3 89 11 198 18 108 7 251 21 317 31 66 10 180 27 253 37 l132 18
0 51 c0 28 -3 72 -6 98 l-7 47 -60 -3 c-63 -3 -71 -9 -82 -60 -10 -52 -85 -71
-219 -57 -49 5 -96 14 -103 21 -12 10 -13 81 -7 475 5 346 4 463 -5 463 -7 0
-11 20 -11 55 0 48 -2 55 -20 55 -17 0 -20 7 -20 38 0 31 -7 44 -34 69 l-35
30 5 82 c3 51 1 81 -6 81 -6 0 -10 -33 -10 -82z"/>
<path d="M5340 4101 c0 -14 6 -17 25 -14 18 4 33 -3 56 -27 l32 -32 -7 -213
c-5 -189 -4 -213 10 -219 8 -3 67 -6 130 -6 114 0 115 0 124 -26 6 -14 10 -51
11 -82 0 -31 4 -77 9 -102 7 -32 8 -6 5 85 -3 72 -5 248 -5 393 l0 262 -195 0
c-183 0 -195 -1 -195 -19z"/>
<path d="M4790 3615 l0 -476 30 16 c18 9 32 26 35 43 11 52 18 57 89 60 l66 3
-7 171 c-6 158 -5 172 12 184 16 12 18 36 22 244 l3 230 -125 0 -125 0 0 -475z"/>
<path d="M5347 4073 c-4 -3 -7 -111 -7 -240 l0 -233 43 0 44 0 6 190 c4 104 4
203 0 220 -8 44 -65 85 -86 63z"/>
<path d="M2528 3803 l-3 -198 -30 0 c-30 0 -30 1 -33 58 l-3 57 -47 0 c-26 0
-53 -4 -59 -8 -10 -6 -13 -86 -15 -323 -3 -271 -5 -314 -18 -314 -13 0 -15 32
-18 213 l-2 213 -53 -3 -52 -3 -6 -80 c-4 -44 -10 -227 -13 -407 l-7 -328 70
0 70 0 3 53 3 52 55 5 55 5 0 370 c0 204 4 382 9 398 l8 27 224 0 224 0 -1
-37 c0 -21 -4 -58 -8 -83 -8 -41 -9 -39 -10 33 l-1 77 -201 0 -201 0 6 -62 c3
-35 7 -148 10 -253 4 -151 3 -172 -5 -100 -4 50 -11 162 -15 249 -3 88 -10
153 -14 145 -9 -16 -13 -187 -11 -526 l1 -243 64 0 c35 0 77 3 93 6 l30 6 17
201 c29 331 36 385 30 232 -3 -71 -12 -192 -20 -269 -19 -189 -23 -172 36
-166 41 4 53 10 63 30 15 30 36 34 243 50 168 12 432 2 654 -27 116 -14 322
-14 337 0 4 4 -43 98 -62 125 -1 1 -51 12 -111 24 -106 20 -112 20 -249 4 -77
-9 -148 -16 -157 -16 -16 0 -18 14 -18 153 0 83 -3 169 -7 191 l-6 38 -136 -4
c-75 -3 -144 -8 -153 -13 -12 -4 -18 -19 -19 -39 0 -17 -3 -49 -8 -71 -4 -22
-5 98 -3 268 l5 307 -80 0 -80 0 -7 -61 c-3 -34 -6 -82 -6 -105 l0 -44 -50 0
-50 0 0 195 0 195 -130 0 -130 0 -2 -197z"/>
<path d="M1444 3977 c-3 -8 -4 -54 -2 -103 l3 -89 85 -5 85 -5 -3 -112 c-1
-62 1 -113 5 -113 71 -3 368 -41 375 -48 6 -6 9 -160 9 -416 l-2 -406 75 0 74
0 6 48 c9 82 17 655 9 712 l-8 55 -62 3 -62 3 -4 -63 c-2 -35 -4 30 -5 144
l-2 206 -64 7 c-52 6 -86 2 -176 -20 -62 -14 -114 -24 -117 -21 -7 7 2 10 120
36 l97 21 0 90 0 89 -215 0 c-170 0 -217 -3 -221 -13z"/>
<path d="M3210 3601 l0 -208 31 -7 c17 -3 50 -6 72 -6 l40 0 -7 77 c-3 42 -6
138 -6 215 l0 138 -65 0 -65 0 0 -209z"/>
<path d="M1440 3400 c0 -234 -4 -370 -10 -370 -6 0 -11 69 -12 173 l-3 172
-143 3 -142 3 2 -403 3 -403 24 -3 c23 -4 24 -2 18 50 -4 29 -9 200 -13 380
-6 259 -4 330 6 343 9 11 32 15 91 15 44 0 79 -4 79 -10 0 -6 -31 -7 -79 -3
l-80 6 -7 -28 c-7 -28 1 -415 13 -639 l6 -119 291 7 c160 3 340 9 399 13 l108
6 -3 36 -3 36 -60 5 -60 5 -7 40 c-4 22 -7 92 -7 155 l-1 115 -120 -3 -120 -3
-1 -112 c-1 -88 -3 -105 -10 -82 -6 17 -8 84 -5 155 3 69 6 283 7 475 l1 350
-81 3 -81 3 0 -371z"/>
<path d="M5751 3606 c-9 -10 -9 -42 -1 -122 5 -60 10 -117 10 -126 0 -16 12
-18 98 -19 53 0 117 -4 142 -7 40 -6 45 -10 45 -32 l0 -25 -141 -3 c-133 -2
-142 -4 -147 -23 -5 -20 -3 -20 136 -14 78 4 148 8 155 10 9 3 12 50 12 190
l0 185 -149 0 c-115 0 -151 -3 -160 -14z"/>
<path d="M5013 3498 c4 -62 7 -141 7 -175 l0 -63 114 0 114 0 6 83 c3 45 7
123 8 172 l3 90 -129 3 -129 3 6 -113z"/>
<path d="M4547 3449 c-9 -195 -9 -271 1 -286 4 -6 35 -15 70 -19 l62 -7 -2
229 -3 229 -61 3 -61 3 -6 -152z"/>
<path d="M4180 3445 l0 -145 48 0 49 0 6 99 c4 54 4 113 1 130 -8 37 -37 61
-76 61 l-28 0 0 -145z"/>
<path d="M5340 3430 l0 -160 113 0 c63 0 148 3 190 6 71 6 77 9 77 29 0 22 -4
23 -135 27 -88 3 -140 9 -148 17 -8 7 -13 54 -15 126 l-4 115 -39 0 -39 0 0
-160z"/>
<path d="M3384 3483 c4 -53 8 -98 9 -99 1 -1 34 -6 73 -11 l72 -9 -2 105 -1
106 -79 3 -79 3 7 -98z"/>
<path d="M5437 3550 c-10 -47 -8 -145 2 -173 9 -24 14 -25 135 -32 68 -4 128
-5 133 -2 9 6 -1 214 -10 224 -3 3 -62 7 -130 10 l-124 6 -6 -33z"/>
<path d="M3599 3533 c-24 -4 -27 -9 -33 -61 -4 -31 -9 -76 -13 -99 l-5 -43 71
0 71 0 0 105 0 105 -32 -1 c-18 -1 -45 -4 -59 -6z"/>
<path d="M1610 3259 l0 -271 128 3 127 4 5 -155 5 -155 58 -3 57 -3 0 411 c0
321 -3 410 -12 410 -7 0 -76 7 -153 15 -77 8 -157 15 -177 15 l-38 0 0 -271z"/>
<path d="M3402 3268 c3 -51 7 -133 7 -181 l1 -88 48 7 c26 3 48 7 49 8 1 0 8
73 17 160 12 118 13 163 5 173 -7 8 -34 13 -73 13 l-61 0 7 -92z"/>
<path d="M3700 3333 c0 -10 -20 -13 -75 -13 -41 0 -75 -4 -75 -9 0 -18 -20
-218 -26 -254 l-6 -38 109 6 c81 5 126 3 183 -9 41 -9 81 -16 88 -16 9 0 12
40 12 164 l0 165 -42 5 c-103 13 -168 12 -168 -1z"/>
<path d="M5732 3305 c0 -16 2 -22 5 -12 2 9 2 23 0 30 -3 6 -5 -1 -5 -18z"/>
<path d="M5760 3306 l0 -26 140 0 c115 0 140 3 140 14 0 8 -3 17 -7 19 -5 3
-68 8 -140 12 l-133 8 0 -27z"/>
<path d="M5558 3263 c-71 -2 -128 -8 -128 -13 0 -30 -159 -37 -347 -14 l-53 7
0 -92 0 -92 133 7 c72 3 204 1 292 -4 88 -6 162 -9 164 -7 1 2 6 31 10 63 8
68 23 92 57 92 20 0 24 5 24 30 0 18 -5 29 -12 28 -7 -1 -70 -4 -140 -5z"/>
<path d="M5732 3245 c0 -16 2 -22 5 -12 2 9 2 23 0 30 -3 6 -5 -1 -5 -18z"/>
<path d="M5340 3253 c0 -5 -37 -7 -82 -6 -67 2 -78 0 -58 -8 32 -14 186 -7
202 9 9 9 3 12 -25 12 -20 0 -37 -3 -37 -7z"/>
<path d="M5880 3223 c-25 -1 -63 -5 -85 -8 l-40 -5 3 -75 4 -75 46 1 c26 0 92
6 147 12 l100 12 3 73 3 72 -68 -2 c-37 -1 -88 -3 -113 -5z"/>
<path d="M5727 3203 c-10 -18 -8 -143 2 -143 7 0 11 28 11 75 0 70 -3 86 -13
68z"/>
<path d="M5661 3191 c-10 -6 -16 -33 -19 -76 l-4 -66 33 3 34 3 3 73 c3 64 1
72 -15 72 -10 0 -25 -4 -32 -9z"/>
<path d="M5945 3060 c-27 -5 -80 -9 -117 -9 l-68 -1 0 -94 0 -94 103 -7 c56
-4 122 -5 147 -3 l45 3 3 108 3 107 -33 -1 c-18 -1 -55 -5 -83 -9z"/>
<path d="M5120 3054 c-82 -8 -485 -65 -510 -73 -25 -8 22 -12 307 -27 l121 -7
6 -41 6 -41 283 0 282 0 3 86 3 86 -93 7 c-131 9 -355 15 -408 10z"/>
<path d="M5637 3033 c-2 -5 -5 -45 -6 -90 l-3 -83 36 0 c36 0 36 0 36 44 0 24
3 64 6 90 l7 46 -36 0 c-20 0 -38 -3 -40 -7z"/>
<path d="M5718 2960 c-3 -91 -2 -100 18 -100 11 0 14 17 14 74 0 41 -3 81 -6
90 -13 35 -23 12 -26 -64z"/>
<path d="M2925 2861 c-24 -7 -17 -9 38 -10 44 -1 69 -5 72 -13 2 -7 1 -118 -3
-246 l-7 -232 1518 0 1518 0 -3 127 -3 127 -30 8 c-16 4 -91 11 -166 14 l-135
7 -10 -59 -9 -59 -50 -8 c-86 -13 -699 -12 -825 2 -104 11 -133 11 -300 -8
-237 -27 -250 -30 -250 -44 0 -8 27 -13 88 -14 56 -1 119 -11 177 -27 109 -29
90 -34 -27 -6 -124 29 -184 29 -365 0 -120 -20 -114 -29 -123 192 -4 102 -12
193 -17 203 -10 16 -24 18 -144 16 -74 0 -188 6 -254 14 -135 18 -642 29 -690
16z"/>
<path d="M2820 2851 c-34 -5 -47 -12 -56 -30 -7 -13 -18 -28 -26 -32 -7 -5
-77 -9 -155 -9 l-142 0 -7 -60 -7 -60 -53 0 c-50 0 -53 -1 -57 -27 l-4 -28 -2
28 c-1 27 -1 27 -76 27 l-75 0 0 -39 0 -38 -102 -6 c-57 -4 -274 -10 -483 -13
-261 -5 -382 -10 -387 -18 -5 -8 -8 -7 -8 2 0 6 -11 12 -25 12 l-25 0 0 -100
0 -100 854 0 853 0 7 158 c8 180 23 311 38 329 11 14 13 14 -62 4z"/>
<path d="M5626 2798 c-3 -29 -6 -72 -6 -95 l0 -43 46 0 c38 0 45 3 40 16 -3 9
-6 51 -6 95 l0 79 -34 0 c-33 0 -33 -1 -40 -52z"/>
<path d="M5713 2790 c4 -35 7 -78 7 -96 0 -24 5 -34 15 -34 13 0 15 15 13 92
-3 82 -5 93 -22 96 -18 4 -19 -1 -13 -58z"/>
<path d="M2924 2823 c6 -21 22 -197 31 -355 7 -109 12 -119 45 -98 12 8 16 48
19 240 l3 230 -52 0 c-44 0 -51 -2 -46 -17z"/>
<path d="M5761 2778 c1 -35 4 -76 8 -93 l6 -30 111 -6 c62 -4 126 -10 143 -14
l31 -7 0 106 0 106 -150 0 -150 0 1 -62z"/>
<path d="M2876 2783 c-6 -46 -9 -95 -21 -320 -5 -98 -4 -103 15 -103 19 0 20
6 20 235 0 129 -2 235 -4 235 -2 0 -6 -21 -10 -47z"/>
<path d="M2901 2597 l-1 -238 22 3 c20 3 21 8 20 78 -3 115 -24 353 -33 375
-4 11 -8 -87 -8 -218z"/>
<path d="M2353 2773 c-32 -4 -33 -6 -33 -47 0 -41 2 -44 31 -50 66 -13 69 -11
69 49 0 60 4 57 -67 48z"/>
<path d="M4540 2699 c-80 -5 -170 -12 -200 -17 l-55 -7 -3 -49 -3 -48 188 8
c103 5 401 8 661 7 l472 -1 0 27 0 28 -177 6 c-106 3 -253 16 -363 31 -193 27
-271 29 -520 15z"/>
<path d="M2000 2630 l0 -40 75 0 75 0 0 38 0 37 -75 2 -75 3 0 -40z"/>
<path d="M5615 2613 l-6 -33 -457 3 c-251 1 -550 -2 -664 -7 l-208 -9 0 -36 0
-37 208 24 c189 22 219 23 352 13 153 -12 707 -14 800 -3 l55 7 3 51 3 52 -40
4 c-38 3 -40 2 -46 -29z"/>
<path d="M4158 2458 c-49 -12 -88 -25 -88 -29 0 -5 12 -6 28 -4 15 2 60 9 100
16 44 6 72 15 69 22 -5 17 -17 17 -109 -5z"/>
<path d="M4630 2218 l0 -94 -32 -9 c-31 -9 -33 -13 -36 -62 -3 -45 -6 -53 -23
-53 -18 0 -19 -10 -20 -347 0 -215 -4 -340 -9 -326 -10 25 -41 36 -91 31 l-34
-3 -2 -155 -1 -155 -49 0 -48 0 -6 235 c-3 129 -7 236 -7 238 -1 1 -63 2 -137
2 l-135 0 0 -204 0 -204 -65 -4 c-71 -3 -74 0 -75 72 0 19 -3 52 -6 73 -6 36
-8 37 -48 37 -65 0 -68 -6 -74 -119 l-5 -101 72 0 71 0 0 -124 c0 -144 -1
-145 -90 -153 l-60 -6 0 272 0 271 -75 0 -75 0 -1 -52 c-1 -29 -4 -78 -9 -108
-6 -46 -7 -36 -9 63 l-1 118 -82 -3 -83 -3 1 -30 c1 -16 3 -64 5 -105 2 -41 0
-75 -5 -75 -19 0 -28 65 -33 248 l-6 187 -63 0 -64 0 -2 -212 -3 -212 -67 -17
-68 -17 0 229 c0 125 -3 229 -7 231 -5 2 -45 2 -90 0 l-83 -4 0 -104 c0 -63
-4 -104 -10 -104 -5 0 -10 9 -10 20 0 11 -4 20 -10 20 -5 0 -10 -8 -10 -19 0
-18 -33 -35 -44 -23 -3 3 -6 35 -6 71 0 36 -3 123 -7 194 l-6 127 -133 0 -134
0 -2 -197 c-3 -179 -5 -198 -20 -201 -13 -3 -18 3 -18 21 0 13 -3 39 -6 56 -6
31 -7 31 -70 31 l-64 0 1 -312 c1 -172 4 -324 8 -338 6 -21 14 -26 47 -28 l41
-3 7 -91 c3 -49 3 -94 0 -99 -3 -5 -27 -9 -53 -9 -47 0 -49 1 -55 33 -3 17
-10 126 -16 242 -5 116 -12 252 -16 303 l-6 92 -54 0 -54 0 0 -66 c0 -41 -4
-63 -10 -59 -5 3 -10 24 -10 45 0 21 -4 50 -10 64 -9 24 -14 26 -74 26 l-65 0
-3 133 -3 132 -60 5 -60 5 -5 90 c-7 103 -13 121 -43 129 -35 9 -381 7 -396
-3 -16 -11 -18 -24 -20 -168 -1 -106 -2 -113 -21 -113 -19 0 -20 -7 -20 -194
l0 -194 -30 -4 c-20 -3 -34 0 -39 9 -8 15 -25 17 -129 15 l-72 -2 2 -505 3
-506 869 1 c478 0 873 3 878 6 5 4 8 102 7 237 -2 224 2 277 22 277 5 0 7 -97
3 -247 -3 -145 -2 -253 4 -261 7 -11 296 -13 1578 -12 l1569 0 3 113 c2 129
-6 156 -58 174 -19 7 -75 12 -125 12 l-90 1 -1 55 c-2 64 -15 60 140 44 82 -8
110 -8 122 1 11 10 14 39 14 126 l0 114 -139 0 c-130 0 -139 1 -144 20 -5 19
0 20 139 20 l144 0 0 100 c0 142 -1 143 -170 134 -116 -6 -130 -5 -130 9 0 14
19 17 148 19 l147 3 3 168 2 167 -150 0 -150 0 0 268 c0 148 -2 271 -4 273 -2
2 -91 2 -198 -1 -185 -5 -193 -6 -193 -25 -1 -11 -4 -26 -9 -33 -4 -6 -10
-118 -13 -247 -5 -194 -4 -235 7 -235 11 0 11 -3 2 -12 -8 -8 -12 -61 -12
-174 l0 -163 53 -4 c36 -2 25 -4 -35 -5 l-88 -2 0 28 c0 15 5 92 10 172 9 130
8 146 -7 158 -23 16 -214 17 -231 0 -8 -8 -12 -63 -12 -180 l0 -168 -39 0
c-22 0 -47 -3 -57 -7 -15 -6 -16 5 -12 153 7 194 13 214 67 214 75 0 71 -16
71 261 l0 249 -120 0 -120 0 0 -501 c0 -498 0 -500 -20 -497 -20 3 -21 9 -23
491 -1 366 -5 490 -14 495 -8 5 -9 13 -3 22 6 8 10 32 10 53 0 30 -5 40 -25
49 -21 9 -25 18 -25 54 0 39 -2 43 -27 46 l-28 3 -5 100 c-4 85 -8 100 -22
103 -16 3 -18 -6 -18 -90z m37 -165 c1 -23 -2 -45 -7 -48 -6 -4 -10 11 -10 34
0 37 -3 41 -32 50 -26 7 -28 9 -10 10 12 1 25 8 29 17 5 14 7 14 16 -2 6 -11
12 -38 14 -61z m51 -19 c-4 -39 -32 -39 -36 0 -4 29 16 52 31 37 5 -5 7 -21 5
-37z m-88 1 c0 -31 -3 -35 -25 -35 -22 0 -25 4 -25 35 0 31 3 35 25 35 22 0
25 -4 25 -35z m-74 -595 c0 -548 0 -551 -20 -554 -12 -3 -77 -12 -146 -21 -69
-10 -145 -24 -170 -31 -25 -8 -47 -14 -50 -14 -3 0 -4 63 -2 139 l3 139 -75 7
-76 7 0 199 0 200 118 -3 117 -3 6 -225 c4 -124 7 -231 8 -237 1 -10 33 -13
125 -13 l124 0 7 28 c4 15 9 231 12 480 3 248 8 452 11 452 4 0 7 -248 8 -550z
m74 508 c0 -21 1 -41 3 -45 1 -5 -10 -9 -25 -11 -27 -3 -28 -2 -28 45 0 45 2
48 25 48 22 0 25 -4 25 -37z m130 -3 c0 -44 0 -45 -34 -45 -36 0 -46 12 -46
55 0 23 6 26 68 34 8 1 12 -14 12 -44z m-90 -10 c0 -25 -4 -45 -10 -45 -5 0
-10 20 -10 45 0 25 5 45 10 45 6 0 10 -20 10 -45z m893 -45 c-103 -9 -113 -13
-113 -42 0 -21 -2 -20 -30 7 -16 15 -27 32 -24 37 3 4 62 7 132 7 l127 -2 -92
-7z m187 -415 c0 -388 -1 -425 -16 -425 -16 0 -16 24 -10 283 7 315 17 567 22
567 2 0 4 -191 4 -425z m-1109 165 c4 -129 7 -351 8 -492 l1 -258 -40 0 -40 0
0 496 0 495 33 -3 32 -3 6 -235z m44 230 c3 -5 24 -10 46 -10 l39 0 0 -485 0
-485 -49 0 -49 0 -6 273 c-14 632 -14 717 0 717 7 0 16 -4 19 -10z m1037 -61
c-1 -35 -7 -161 -12 -279 -6 -118 -10 -274 -10 -346 0 -111 -3 -133 -16 -138
-9 -3 -60 -6 -115 -6 l-99 0 0 133 c0 104 -3 137 -16 155 -8 12 -11 22 -5 22
21 0 26 54 26 280 l0 235 115 5 c63 3 120 5 125 5 6 -1 9 -29 7 -66z m-672
-173 l0 -235 -47 -3 c-73 -5 -82 -31 -89 -249 -7 -228 -12 -263 -41 -267 l-23
-3 0 495 0 496 100 0 100 0 0 -234z m384 169 c17 -34 20 -62 20 -233 1 -172
-1 -196 -16 -205 -12 -8 -24 -8 -42 1 l-26 12 0 223 c0 221 5 253 35 244 5 -2
19 -21 29 -42z m-3566 -87 c3 -17 -11 -18 -197 -18 -122 0 -202 4 -206 10 -16
26 13 30 203 28 178 -3 197 -5 200 -20z m777 -168 l0 -185 -47 -3 -48 -3 0
191 0 191 48 -3 47 -3 0 -185z m143 -8 l2 -193 -57 7 c-32 3 -60 8 -61 9 -3 3
-4 334 -2 373 0 2 26 2 58 0 l57 -3 3 -193z m-903 77 c4 -39 3 -74 -1 -79 -5
-4 -67 -19 -139 -33 l-130 -25 -28 24 c-20 17 -36 23 -51 18 -29 -9 -46 -24
-46 -40 0 -8 -7 -14 -15 -14 -12 0 -15 18 -15 105 l0 105 203 3 c111 1 205 3
208 5 4 1 10 -30 14 -69z m1175 -283 l0 -224 -27 -5 c-16 -3 -29 -4 -31 -3 -1
2 -5 40 -9 85 l-6 81 -40 0 -40 0 7 61 c3 34 6 100 6 145 l0 84 70 0 70 0 0
-224z m275 69 c1 -82 5 -176 10 -207 l8 -58 -57 0 -56 0 0 204 c0 204 0 205
23 209 12 3 33 4 46 3 l24 -1 2 -150z m-1325 98 c3 -3 5 -59 5 -126 l0 -122
-35 1 c-155 5 -351 18 -355 23 -2 4 -5 47 -6 96 l-2 90 134 26 c93 18 152 25
194 21 33 -3 62 -7 65 -9z m-430 -8 c11 -13 6 -15 -36 -15 -45 1 -48 2 -30 15
25 19 50 19 66 0z m-140 -225 c0 -120 -4 -190 -10 -190 -6 0 -10 68 -10 183 0
162 3 197 17 197 2 0 3 -85 3 -190z m40 16 c0 -96 3 -181 6 -190 4 -11 1 -16
-10 -16 -14 0 -16 22 -16 190 0 120 4 190 10 190 6 0 10 -65 10 -174z m100 76
c0 -55 -3 -140 -6 -190 l-7 -92 -33 0 -34 0 0 190 0 190 40 0 40 0 0 -98z
m856 78 l34 0 0 -65 c0 -37 -4 -65 -10 -65 -6 0 -10 -93 -10 -260 l0 -260 -29
0 c-16 0 -34 6 -40 14 -12 14 -24 629 -13 641 3 3 12 3 20 0 7 -3 29 -5 48 -5z
m2840 -172 c-3 -50 -6 -126 -6 -170 l0 -78 -79 0 c-43 0 -92 3 -109 6 l-30 6
-1 154 c-1 85 1 159 4 164 3 6 56 10 117 10 l111 0 -7 -92z m774 72 c0 -13
-19 -15 -124 -12 l-123 3 4 -108 c5 -138 7 -141 126 -145 78 -3 90 -1 103 16
13 19 14 18 14 -12 l0 -31 -132 -3 c-73 -2 -136 -2 -140 0 -8 3 -11 295 -4
303 2 2 65 4 140 4 114 0 136 -2 136 -15z m-3252 -47 c3 -42 4 -43 38 -43 32
0 34 -2 34 -35 l0 -35 -69 0 c-83 0 -127 -14 -135 -43 -3 -12 -6 -52 -6 -88 0
-36 -3 -100 -6 -142 l-7 -77 -52 0 -52 0 -6 48 c-4 26 -9 138 -13 248 -7 193
-6 202 12 207 10 3 73 4 139 3 l120 -1 3 -42z m1690 35 c5 -7 12 -74 14 -148
l3 -135 -52 -3 -53 -3 0 150 0 151 39 0 c21 0 43 -6 49 -12z m945 -6 c23 -25
31 -94 22 -196 l-7 -86 -39 0 -39 0 0 150 0 150 23 0 c13 0 31 -8 40 -18z
m-3831 -17 c3 -14 1 -25 -3 -25 -5 0 -9 11 -9 25 0 14 2 25 4 25 2 0 6 -11 8
-25z m1258 -5 c0 -25 -4 -30 -25 -30 -21 0 -25 5 -25 30 0 25 4 30 25 30 21 0
25 -5 25 -30z m40 6 c0 -14 -4 -28 -10 -31 -6 -4 -10 7 -10 24 0 17 5 31 10
31 6 0 10 -11 10 -24z m635 -81 l0 -100 -55 3 c-30 2 -58 7 -61 10 -4 4 -9 49
-13 100 l-7 93 68 -3 68 -3 0 -100z m-1026 -47 c1 -198 12 -352 25 -360 6 -4
35 -5 65 -1 l53 6 -7 -89 c-11 -149 -8 -144 -69 -144 l-53 0 -11 168 c-18 268
-26 562 -14 562 6 0 10 -54 11 -142z m3519 30 l-3 -113 -89 0 c-112 1 -116 5
-116 132 l0 93 105 0 106 0 -3 -112z m-2328 -158 l0 -260 -24 0 c-22 0 -23 5
-30 77 -3 42 -6 107 -6 145 0 78 -11 108 -40 108 -18 0 -20 7 -20 73 0 113 3
117 66 117 l54 0 0 -260z m-1205 -337 c7 -111 6 -123 -8 -123 -16 0 -17 31
-15 358 l2 357 6 -235 c4 -129 11 -290 15 -357z m1345 520 c0 -21 3 -62 6 -90
l7 -53 -56 0 -57 0 6 78 c8 103 7 102 54 102 40 0 40 0 40 -37z m-1945 8 l70
-6 3 -66 3 -67 -73 -6 c-40 -3 -118 -7 -173 -8 l-100 -3 -3 88 -3 88 103 -7
c57 -4 135 -10 173 -13z m1085 -66 l0 -75 -30 0 c-39 0 -54 35 -45 102 7 47 8
48 41 48 l34 0 0 -75z m-962 -8 c2 -52 0 -67 -11 -67 -9 0 -16 16 -21 46 -10
78 -8 96 12 92 14 -3 18 -16 20 -71z m136 65 c2 -4 8 -36 12 -70 l7 -62 -72 0
-71 0 0 70 0 70 59 0 c33 0 62 -4 65 -8z m140 -34 c3 -24 10 -146 16 -273 6
-126 13 -256 17 -287 l6 -58 -72 0 -71 0 2 138 c0 75 3 122 5 105 4 -29 8 -33
32 -33 16 0 33 6 39 13 14 16 27 203 18 250 -6 32 -11 37 -43 43 l-36 7 7 59
c7 73 10 78 46 78 26 0 29 -4 34 -42z m-684 -43 c0 -43 -4 -75 -10 -75 -6 0
-10 32 -10 75 0 43 4 75 10 75 6 0 10 -32 10 -75z m1280 -14 c0 -51 24 -64
102 -57 l68 6 0 -71 0 -71 118 7 c147 9 145 10 152 -126 3 -53 8 -100 12 -104
29 -29 197 -32 307 -6 157 38 249 46 372 32 63 -7 115 -16 117 -20 2 -5 23
-35 49 -67 l45 -59 -38 -3 c-42 -4 -401 13 -608 29 -70 5 -136 7 -146 4 -14
-5 -19 -21 -25 -85 -7 -85 -5 -81 -73 -95 l-33 -7 3 94 3 93 55 6 55 5 -52 8
-53 9 0 83 0 84 -265 0 -265 0 0 170 0 170 50 0 c49 0 50 -1 50 -29z m-122
-143 l-3 -163 -36 -3 -36 -3 5 119 c3 78 1 132 -7 153 -10 29 -9 36 6 46 9 7
30 13 45 13 l28 0 -2 -162z m662 116 c143 -9 129 14 132 -205 l3 -189 -25 -2
c-50 -3 -145 5 -167 13 -21 8 -23 15 -23 76 -1 85 -14 144 -36 160 -12 9 -46
11 -125 6 l-109 -6 0 65 0 65 68 16 c39 9 92 14 127 12 33 -3 103 -7 155 -11z
m194 -151 c4 -76 9 -151 13 -167 l5 -29 93 6 c104 7 141 20 149 51 3 11 6 76
6 144 0 118 1 122 19 112 11 -5 72 -10 136 -10 l116 0 -6 -97 c-12 -194 -16
-225 -30 -219 -8 3 -62 10 -120 17 -91 10 -120 9 -209 -5 -57 -9 -127 -23
-157 -31 -29 -8 -56 -12 -59 -9 -8 9 -12 263 -5 321 5 42 10 53 25 53 16 0 18
-14 24 -137z m-2461 -30 c-1 -87 1 -304 5 -483 l7 -325 65 -3 c36 -1 72 2 80
8 11 7 16 38 21 132 l5 123 2 -142 2 -143 -100 0 -100 0 0 495 c0 272 3 495 8
495 4 0 6 -71 5 -157z m697 12 l0 -135 -92 0 c-148 0 -138 -9 -138 136 l0 123
108 4 c59 1 110 4 115 5 4 1 7 -59 7 -133z m110 0 l0 -135 -45 0 -45 0 0 135
0 135 45 0 45 0 0 -135z m46 83 c-3 -29 -6 -90 -6 -135 0 -49 -4 -83 -10 -83
-6 0 -10 52 -10 135 0 118 2 135 16 135 14 0 16 -8 10 -52z m154 -88 l0 -140
-32 0 c-18 0 -50 3 -70 6 l-38 7 0 133 0 134 70 0 70 0 0 -140z m98 7 c3 -125
2 -128 -20 -136 -13 -5 -26 -7 -30 -4 -5 2 -8 65 -8 139 l0 135 28 -3 27 -3 3
-128z m-985 117 l37 -7 0 -453 c0 -438 -1 -454 -19 -464 -27 -14 -94 -13 -109
2 -9 9 -12 127 -12 470 l0 458 33 0 c17 0 49 -3 70 -6z m296 -170 c1 -78 -4
-86 -52 -77 l-27 5 0 119 0 118 33 3 c32 3 32 2 39 -47 3 -27 6 -82 7 -121z
m31 51 c0 -77 -4 -125 -10 -125 -6 0 -10 48 -10 125 0 77 4 125 10 125 6 0 10
-48 10 -125z m-263 -387 c-1 -95 -3 -20 -3 167 0 187 2 265 3 173 2 -92 2
-245 0 -340z m53 195 c0 -170 3 -318 6 -330 5 -19 2 -23 -15 -23 -21 0 -21 1
-21 330 0 287 2 330 15 330 13 0 15 -41 15 -307z m43 120 c4 -104 7 -252 7
-330 0 -121 -2 -143 -15 -143 -13 0 -15 43 -15 330 0 182 4 330 8 330 5 0 12
-84 15 -187z m37 83 c0 -137 7 -156 60 -156 l40 0 0 -108 c0 -105 10 -170 29
-181 5 -4 13 -30 17 -59 l7 -52 -87 0 -86 0 0 330 c0 213 4 330 10 330 6 0 10
-41 10 -104z m1201 -29 l-8 -72 -1 95 c-1 66 2 88 8 72 6 -13 6 -53 1 -95z
m3069 88 c0 -13 -22 -15 -140 -15 -82 0 -140 4 -140 10 0 9 58 14 208 18 58 2
72 -1 72 -13z m-716 -37 c0 -10 -1 -45 -2 -77 -1 -36 -8 -65 -16 -74 -8 -8
-43 -17 -77 -21 -35 -3 -95 -15 -134 -26 -64 -18 -235 -39 -441 -55 -134 -11
-244 31 -191 72 51 40 480 90 640 75 42 -5 81 -6 86 -2 5 3 12 26 16 52 7 49
17 62 50 71 39 10 70 3 69 -15z m682 -15 c8 -29 -2 -43 -30 -43 -41 0 -320
-58 -380 -79 -62 -22 -209 -30 -220 -12 -4 5 -9 43 -12 84 l-7 74 322 -1 322
-1 5 -22z m40 12 c4 -8 3 -23 0 -32 -6 -15 -8 -15 -16 -3 -13 20 -12 50 0 50
6 0 13 -7 16 -15z m278 9 c9 -3 16 -14 16 -23 0 -14 -18 -16 -140 -19 -130 -2
-140 -1 -140 16 0 10 3 22 7 25 8 9 236 9 257 1z m0 -60 c12 -5 16 -21 16 -70
l0 -64 -135 0 -135 0 0 64 c0 63 1 65 28 69 45 7 209 7 226 1z m-972 -56 c5
-38 2 -48 -9 -48 -12 0 -14 7 -9 31 3 17 6 41 6 52 0 35 7 14 12 -35z m663
-14 c4 -31 4 -58 1 -61 -3 -3 -112 -2 -243 2 l-238 8 55 19 c49 17 360 85 401
87 13 1 18 -12 24 -55z m45 -34 c0 -16 -4 -30 -10 -30 -5 0 -10 14 -10 30 0
17 5 30 10 30 6 0 10 -13 10 -30z m-3002 -102 l-3 -103 -27 -3 c-45 -5 -59 29
-51 126 l6 82 39 0 39 0 -3 -102z m539 89 c1 -2 -1 -35 -4 -75 l-6 -72 -96 -1
c-116 0 -356 -16 -393 -25 l-28 -6 0 58 c0 33 3 77 7 98 l6 39 256 -7 c140 -4
256 -8 258 -9z m1868 -7 c29 -7 29 -8 4 -9 -14 0 -54 -4 -88 -7 -41 -5 -61 -3
-61 4 0 18 93 25 145 12z m-3557 -210 c1 -42 -2 -60 -8 -50 -7 14 -16 229 -9
255 4 15 16 -132 17 -205z m205 204 l37 -7 0 -101 c0 -66 4 -106 12 -114 7 -7
31 -12 55 -12 36 0 43 -3 43 -20 0 -19 -7 -20 -152 -20 -84 0 -159 4 -165 8
-9 5 -15 53 -19 140 l-7 132 79 0 c43 0 96 -3 117 -6z m3191 -9 c-4 -8 -12
-15 -20 -15 -8 0 -14 -4 -14 -10 0 -5 6 -9 12 -7 9 1 12 -8 9 -28 -1 -16 -5
-32 -6 -34 -2 -2 -53 2 -112 7 -59 6 -202 9 -318 7 l-210 -4 200 23 c110 13
225 31 255 40 49 14 142 31 192 35 12 1 15 -4 12 -14z m-3044 -100 l0 -105
-45 0 -45 0 0 105 0 105 45 0 45 0 0 -105z m40 0 c0 -63 -4 -105 -10 -105 -6
0 -10 42 -10 105 0 63 4 105 10 105 6 0 10 -42 10 -105z m160 0 l0 -105 -70 0
-70 0 0 105 0 105 70 0 70 0 0 -105z m3453 88 c92 -5 107 -8 107 -23 0 -20
-37 -30 -104 -30 -22 0 -140 -9 -261 -21 -149 -15 -241 -20 -286 -15 l-66 7 6
32 c7 31 8 32 86 43 92 13 363 17 518 7z m147 -23 c0 -11 -4 -20 -10 -20 -5 0
-10 9 -10 20 0 11 5 20 10 20 6 0 10 -9 10 -20z m-3087 -137 c6 -9 1 -13 -14
-13 -20 0 -21 3 -15 46 3 26 7 61 8 78 0 17 4 2 7 -34 3 -36 10 -71 14 -77z
m1562 95 c65 -20 92 -22 370 -23 165 -1 317 -5 338 -9 36 -8 37 -9 37 -53 l0
-46 -32 6 c-18 3 -66 13 -107 22 -107 23 -319 55 -366 55 -22 0 -83 -14 -135
-30 -51 -17 -97 -27 -100 -22 -22 25 -78 99 -84 110 -10 16 -2 15 79 -10z
m1485 -35 c0 -21 -3 -62 -6 -91 l-7 -52 -211 5 c-116 3 -275 13 -353 22 l-143
16 0 50 0 50 78 -6 c45 -3 156 2 267 13 260 26 263 26 323 28 l52 2 0 -37z
m48 -118 c-1 -38 -1 -38 -8 10 -5 28 -8 73 -8 100 l1 50 7 -60 c4 -33 8 -78 8
-100z m272 49 l0 -106 -87 6 c-49 4 -107 9 -130 13 l-43 5 0 94 0 94 130 0
130 0 0 -106z m-1441 26 c124 -19 313 -54 354 -66 14 -4 17 -14 15 -40 l-3
-34 -227 -4 c-196 -3 -232 -6 -254 -21 l-27 -17 6 -114 c6 -101 4 -113 -11
-118 -53 -14 -124 -28 -127 -24 -2 2 -11 63 -20 135 -8 72 -24 159 -35 194
-10 35 -18 64 -17 64 4 2 202 63 207 64 3 0 65 -8 139 -19z m-1309 -199 c0
-114 3 -236 6 -270 l7 -61 -113 0 -113 0 6 243 c8 283 9 278 -74 288 -34 4 7
7 114 8 l167 1 0 -209z m-430 189 c-34 -11 -60 -11 -35 0 11 5 29 8 40 8 16 0
15 -2 -5 -8z m850 -15 c140 -8 316 -19 390 -23 l134 -7 18 -48 c20 -54 54
-307 44 -332 -4 -11 -15 -15 -33 -13 l-28 3 -5 190 -5 190 -68 -2 c-37 0 -99
-11 -137 -22 -88 -27 -189 -40 -310 -41 -88 0 -160 -8 -252 -25 l-38 -7 0 69
c0 38 3 73 7 76 8 9 -10 10 283 -8z m2027 -62 c-2 -16 -4 -3 -4 27 0 30 2 43
4 28 2 -16 2 -40 0 -55z m-2867 41 c-6 -14 -10 -129 -10 -255 l0 -230 -32 3
c-32 3 -33 4 -39 62 -4 33 -10 141 -14 241 l-7 182 53 10 c30 6 55 11 56 12 1
0 -2 -11 -7 -25z m89 -209 c6 -110 14 -217 17 -238 6 -38 5 -38 -22 -35 l-29
3 -3 160 c-4 183 6 361 18 330 4 -12 13 -111 19 -220z m105 219 c8 -20 8 -120
-1 -327 l-6 -167 -28 0 c-15 0 -30 4 -33 8 -2 4 -10 102 -16 217 -7 116 -15
227 -20 248 l-8 37 53 0 c39 0 54 -4 59 -16z m-301 -226 c3 -123 9 -233 13
-245 l6 -23 -221 0 -221 0 0 23 c0 12 3 32 6 45 6 21 11 22 115 22 98 0 110 2
135 23 26 22 27 27 35 173 4 82 8 159 8 171 1 19 7 22 54 26 28 2 55 4 58 5 3
1 9 -98 12 -220z m-147 56 c-4 -86 -11 -167 -16 -180 -12 -32 -57 -40 -192
-36 l-58 2 0 90 0 90 43 0 c23 0 59 3 80 6 l37 7 0 83 0 83 43 4 c23 2 48 4
56 5 12 2 13 -23 7 -154z m-166 128 c0 -29 -21 -42 -67 -42 -39 0 -43 2 -43
24 0 22 5 25 48 29 26 2 50 4 55 5 4 1 7 -6 7 -16z m45 -15 c4 -18 5 -53 3
-77 l-3 -45 -71 -3 -72 -3 -7 37 c-3 20 -3 40 2 45 4 4 30 9 58 11 46 3 50 5
59 36 11 41 23 41 31 -1z m-495 3 c0 -11 -4 -20 -10 -20 -5 0 -10 9 -10 20 0
11 5 20 10 20 6 0 10 -9 10 -20z m160 -4 c0 -22 -2 -23 -72 -20 -65 3 -73 5
-76 24 -3 19 2 20 72 20 73 0 76 -1 76 -24z m160 -1 c0 -24 -2 -25 -70 -25
-68 0 -70 1 -70 25 0 24 2 25 70 25 68 0 70 -1 70 -25z m1888 13 c8 -8 12 -66
12 -194 0 -174 1 -183 20 -189 11 -3 29 -4 39 0 11 3 22 1 26 -5 3 -5 41 -10
85 -10 80 0 95 -6 84 -34 -6 -14 -60 -16 -524 -16 l-517 0 -6 112 c-4 62 -7
141 -7 175 l0 61 53 12 c28 6 131 16 227 21 184 9 265 19 315 40 25 10 132 34
171 38 5 0 15 -4 22 -11z m950 -13 c62 -8 177 -15 256 -15 79 0 177 -3 219 -6
l77 -7 0 -55 0 -54 -207 4 c-168 4 -237 10 -358 32 -82 15 -152 29 -155 31 -3
2 -4 24 -2 49 4 43 5 45 30 41 15 -3 78 -12 140 -20z m-3202 -39 c1 0 4 -20 7
-42 5 -40 4 -42 -25 -48 -17 -3 -93 -6 -169 -6 l-139 0 0 55 0 56 163 -7 c89
-4 163 -7 163 -8z m3780 -104 c-12 -11 -13 4 -7 63 l6 60 3 -59 c2 -32 1 -61
-2 -64z m-3734 71 l3 -38 85 0 85 0 3 38 3 38 72 -3 72 -3 3 -42 3 -43 -175 0
-176 0 0 45 c0 54 18 60 22 8z m158 7 l0 -31 -72 3 c-71 3 -73 4 -76 31 l-3
27 75 0 76 0 0 -30z m3607 -52 c-2 -18 -4 -6 -4 27 0 33 2 48 4 33 2 -15 2
-42 0 -60z m-805 42 c3 -9 229 -56 298 -62 28 -2 -198 -13 -486 -23 -211 -8
-224 -5 -224 55 0 25 4 29 33 33 74 9 375 7 379 -3z m-428 -40 c11 -69 27 -74
239 -65 100 4 360 8 577 9 l395 1 0 -35 c0 -35 0 -35 -55 -42 -30 -3 -210 -7
-400 -7 -317 -1 -363 -4 -570 -30 -124 -16 -226 -28 -227 -27 -7 6 -22 171
-17 193 9 39 13 43 33 43 14 0 20 -10 25 -40z m-1130 -52 c3 -46 7 -125 9
-176 l4 -92 -48 0 c-47 0 -48 1 -53 32 -3 18 -7 93 -9 166 l-3 133 26 5 c14 3
30 7 35 9 29 10 33 2 39 -77z m-1436 -59 l3 -76 -58 -6 c-32 -4 -107 -9 -168
-13 l-110 -6 -2 85 -1 86 81 4 c45 2 120 3 167 3 l85 -1 3 -76z m362 -10 l0
-91 -127 6 c-71 4 -149 9 -175 12 l-48 6 0 79 0 79 175 0 175 0 0 -91z m-930
-14 l0 -95 110 0 110 0 0 -45 0 -45 -130 0 -130 0 0 140 c0 133 1 140 20 140
19 0 20 -7 20 -95z m40 10 c0 -69 -3 -85 -15 -85 -12 0 -15 16 -15 85 0 69 3
85 15 85 12 0 15 -16 15 -85z m180 1 l0 -83 -64 -7 c-84 -8 -96 -3 -96 44 0
20 -3 58 -6 84 l-7 46 87 0 86 0 0 -84z m4399 50 c19 -17 21 -30 21 -133 l0
-113 -620 0 -620 0 -107 25 c-60 13 -128 28 -153 32 -35 7 -45 13 -45 28 0 18
17 22 205 47 186 24 237 27 545 27 187 1 379 6 425 11 93 12 110 23 110 73 l0
29 109 -4 c90 -2 113 -6 130 -22z m-3756 -153 c72 -6 76 -12 61 -70 l-6 -23
-339 0 -339 0 0 44 0 44 98 7 c53 3 108 8 122 10 31 4 312 -4 403 -12z m2215
-10 c-2 -10 -9 -18 -16 -17 -6 1 -36 2 -64 3 l-53 3 45 12 c68 20 92 19 88 -1z
m139 -59 c37 -8 70 -17 72 -20 2 -2 -41 -4 -97 -4 -95 0 -102 1 -102 20 0 25
32 26 127 4z"/>
</g>
</svg>
