<?xml version="1.0" standalone="no"?>
<!DOCTYPE svg PUBLIC "-//W3C//DTD SVG 20010904//EN"
 "http://www.w3.org/TR/2001/REC-SVG-20010904/DTD/svg10.dtd">
<svg version="1.0" xmlns="http://www.w3.org/2000/svg"
 width="113.385827pt" height="113.385827pt" viewBox="0 0 113.385827 113.385827"
 preserveAspectRatio="xMidYMid meet">
<metadata>
Created by potrace 1.16, written by Peter Selinger 2001-2019
</metadata>
<g transform="translate(0.000000,113.385827) scale(0.018741,-0.018741)"
fill="#000000" stroke="none">
<path d="M1840 5125 c-257 -73 -576 -267 -611 -372 -21 -66 7 -230 77 -448 48
-147 92 -234 134 -262 41 -28 65 -29 108 -3 50 31 77 99 128 316 1 7 18 8 46
5 l43 -6 -3 -150 c-4 -171 6 -225 64 -342 33 -69 117 -169 173 -206 23 -15 24
-19 13 -54 -46 -153 -54 -461 -22 -816 11 -122 22 -232 24 -244 4 -29 3 -29
-32 7 -23 22 -40 30 -67 30 -89 0 -101 -32 -89 -243 5 -89 9 -261 8 -382 0
-237 -5 -270 -69 -455 -14 -41 -29 -104 -32 -140 -5 -58 -3 -67 16 -85 53 -47
172 -5 263 93 55 60 97 149 119 251 16 70 -2 -113 -21 -224 -31 -184 -34 -223
-16 -251 14 -20 25 -24 62 -24 115 0 251 133 305 298 12 37 35 98 51 136 54
124 71 199 119 529 l24 158 30 -7 c104 -22 360 -201 461 -321 87 -103 103
-152 62 -190 -13 -11 -68 -39 -123 -61 -128 -52 -182 -83 -244 -138 -108 -97
-84 -211 54 -260 124 -43 910 -17 1134 38 52 12 117 42 145 67 12 10 20 12 23
5 2 -6 23 -40 46 -75 34 -50 52 -67 83 -78 35 -12 44 -12 76 3 67 32 100 136
119 381 11 151 6 476 -10 563 -8 40 -7 44 23 64 150 105 248 242 276 384 22
111 -23 234 -100 271 -77 37 -213 7 -347 -77 l-61 -38 -43 61 c-125 180 -528
525 -871 747 l-115 75 -56 105 c-99 189 -157 376 -173 557 l-6 81 28 15 c58
31 135 126 219 272 63 110 71 127 91 199 33 121 -27 170 -251 206 -112 17
-405 25 -459 11 -39 -10 -57 -8 -123 10 -108 29 -316 37 -397 16 -52 -14 -63
-14 -87 -1 -35 17 -156 17 -219 -1z m565 -45 c50 -5 106 -14 127 -20 36 -10
36 -11 22 -40 -9 -17 -15 -58 -15 -99 0 -44 -6 -83 -16 -102 -14 -29 -14 -35
3 -78 15 -36 28 -51 63 -68 29 -15 55 -39 78 -75 68 -105 182 -198 241 -198
31 0 32 -10 2 -59 -42 -67 -76 -165 -111 -310 -16 -69 -40 -149 -53 -177 -22
-47 -30 -55 -97 -88 -91 -44 -154 -57 -289 -57 -217 -1 -420 69 -479 165 -57
92 -76 198 -66 377 l7 128 47 27 c25 15 87 68 137 118 122 122 166 208 172
334 3 70 0 99 -17 149 -12 34 -21 64 -21 67 0 14 153 18 265 6z m-580 -28
c-225 -98 -463 -250 -486 -310 -17 -43 -3 -91 47 -164 49 -72 109 -127 187
-173 l49 -28 -7 -46 c-11 -77 -57 -203 -86 -235 -26 -30 -27 -30 -54 -12 -61
40 -178 378 -200 576 -8 74 12 110 99 176 104 79 446 245 501 243 6 0 -17 -12
-50 -27z m1292 -16 c119 -22 157 -34 188 -58 24 -18 27 -26 22 -60 -10 -76
-104 -249 -202 -373 -41 -52 -47 -56 -40 -30 3 17 9 60 12 97 5 59 2 72 -23
120 -39 71 -143 173 -252 245 -49 32 -97 64 -108 71 -27 18 293 9 403 -12z
m-1220 -50 c-35 -35 -80 -89 -101 -120 -50 -75 -109 -219 -137 -333 -12 -51
-27 -93 -32 -93 -22 0 -109 65 -154 114 -25 28 -57 74 -70 103 -31 67 -27 73
107 162 127 84 393 221 448 230 2 1 -26 -28 -61 -63z m207 18 c20 -41 35 -184
20 -184 -5 0 -18 7 -28 15 -28 21 -79 19 -109 -5 -29 -23 -77 -113 -77 -145 0
-11 7 -31 16 -44 13 -19 24 -22 55 -19 22 2 39 1 39 -2 0 -11 -126 -127 -182
-168 -40 -29 -67 -42 -90 -42 -64 0 -66 6 -30 136 39 142 98 263 169 350 56
67 167 157 187 151 6 -2 20 -21 30 -43z m621 -28 c170 -102 305 -238 321 -323
5 -29 -25 -184 -42 -215 -7 -12 -111 18 -157 46 -43 25 -92 77 -130 138 -16
26 -16 27 11 30 75 9 7 145 -95 190 -43 19 -43 19 -43 72 0 59 16 116 33 116
6 0 52 -24 102 -54z m-25 -268 c0 -5 -6 -8 -13 -8 -12 0 -47 59 -47 77 0 9 59
-60 60 -69z m-633 40 c-3 -8 -6 -5 -6 6 -1 11 2 17 5 13 3 -3 4 -12 1 -19z
m-70 -32 c-7 -30 -14 -43 -23 -39 -11 4 -9 13 6 44 11 21 22 39 24 39 2 0 -1
-20 -7 -44z m1009 -511 c20 -127 78 -303 143 -433 l50 -100 -132 -75 c-173
-98 -213 -117 -330 -161 -144 -54 -258 -81 -477 -116 -107 -16 -206 -32 -219
-34 -23 -4 -23 -3 -17 63 9 86 35 234 45 249 6 10 20 9 67 -3 152 -40 327 -21
473 51 139 69 181 134 241 368 41 164 75 257 112 308 23 33 23 33 26 8 1 -14
9 -70 18 -125z m-866 -527 c55 -14 112 -20 212 -21 76 -1 138 -3 138 -3 0 -1
-30 -7 -67 -14 -103 -18 -223 -14 -289 9 -62 22 -140 68 -94 56 14 -4 59 -16
100 -27z m1240 -156 c357 -241 624 -469 801 -681 l79 -94 -65 -65 c-146 -144
-205 -278 -205 -467 0 -202 73 -545 156 -732 l23 -53 -29 -20 c-55 -39 -115
-58 -235 -74 -281 -39 -885 -55 -953 -27 -73 31 -69 119 8 185 52 43 127 59
254 54 128 -6 247 -35 500 -122 119 -41 163 -52 173 -44 7 6 13 14 13 19 0 39
-545 545 -774 718 -116 88 -222 156 -292 188 -45 21 -67 24 -115 21 -101 -7
-107 -18 -143 -258 -34 -216 -34 -216 -35 15 -2 358 -23 485 -92 557 -86 90
-187 16 -232 -172 -22 -89 -44 -261 -53 -402 -4 -65 -10 -118 -13 -118 -4 0
-12 59 -19 132 -7 72 -22 184 -32 247 -28 164 -68 547 -77 733 l-8 156 140 -5
c193 -7 344 13 523 72 223 74 446 191 531 279 19 20 40 36 46 36 6 0 63 -35
125 -78z m-250 44 c0 -10 -159 -101 -247 -143 -177 -83 -348 -131 -548 -156
-76 -10 -3 11 115 33 196 36 427 124 605 228 73 44 75 44 75 38z m1559 -731
c47 -24 74 -92 69 -174 -6 -105 -58 -203 -165 -308 -47 -46 -88 -83 -93 -83
-4 0 -11 19 -15 43 -12 70 -65 226 -110 324 l-43 92 31 20 c18 11 70 38 116
60 93 45 158 53 210 26z m-360 -227 c47 -101 100 -266 108 -332 8 -64 -7 -55
-35 21 -41 113 -101 184 -166 195 -41 8 -92 -9 -115 -38 -24 -31 -60 -122 -72
-184 -8 -42 -8 -41 -3 13 9 120 67 236 169 344 33 34 64 63 68 63 5 0 25 -37
46 -82z m-1896 -36 c10 -16 25 -65 34 -108 25 -115 24 -636 0 -818 -17 -123
-20 -132 -54 -175 -32 -41 -276 -282 -279 -278 -1 1 11 88 27 192 20 129 32
261 39 410 10 246 24 404 46 545 39 253 118 350 187 232z m-482 -63 c48 -48
87 -199 120 -458 19 -153 25 -346 13 -412 -5 -27 -37 -64 -145 -171 -76 -76
-143 -138 -149 -138 -18 0 -11 36 35 180 64 205 83 381 66 615 -23 292 -25
373 -11 390 17 21 46 19 71 -6z m2331 -107 c40 -46 82 -139 98 -217 26 -124
-4 -350 -67 -510 -34 -86 -92 -195 -103 -195 -10 0 -70 172 -96 275 -37 146
-44 354 -16 487 30 144 77 215 133 201 10 -3 33 -22 51 -41z m-1475 -142 c100
-45 305 -192 493 -353 125 -108 483 -438 478 -442 -2 -1 -70 20 -152 47 -171
56 -305 86 -424 95 l-84 6 75 39 c103 54 117 90 73 183 -60 127 -274 316 -460
406 -80 39 -78 56 1 19z m1666 -420 c2 -282 -23 -474 -70 -546 -26 -40 -67
-32 -104 19 -17 23 -38 56 -47 74 -15 31 -14 32 31 104 102 159 157 366 157
590 0 47 3 89 8 93 13 14 23 -116 25 -334z m-1603 -382 c-11 -18 -20 -51 -20
-73 0 -30 -3 -36 -10 -25 -17 27 -11 68 16 99 33 40 39 39 14 -1z m-870 -27
c-11 -21 -89 -91 -101 -91 -6 0 102 109 109 110 1 0 -2 -9 -8 -19z m310 -167
c-25 -25 -54 -50 -65 -55 -11 -6 6 15 38 45 70 67 89 75 27 10z"/>
<path d="M2226 4469 c-58 -14 -149 -66 -189 -107 -79 -82 -137 -221 -137 -329
0 -57 42 -137 90 -172 80 -57 191 -50 260 19 l37 37 17 -28 c27 -45 79 -71
157 -77 85 -6 145 14 188 63 123 140 14 481 -182 570 -60 27 -180 40 -241 24z
m221 -75 c156 -75 256 -354 168 -470 -34 -45 -74 -64 -130 -64 -57 0 -106 20
-127 52 -10 15 -19 59 -23 109 l-7 86 45 17 c63 24 92 58 91 106 -2 52 -25 85
-76 111 -52 27 -153 35 -188 17 -35 -19 -70 -75 -70 -113 0 -32 19 -56 53 -68
26 -10 35 -44 38 -152 3 -96 2 -98 -25 -121 -27 -24 -53 -29 -111 -25 -91 8
-145 104 -123 220 30 163 153 295 300 320 70 12 122 5 185 -25z m-131 -85 c24
-6 44 -12 44 -14 0 -1 -15 -18 -33 -37 l-33 -35 -16 26 c-8 16 -30 32 -49 38
l-34 10 25 11 c33 14 43 14 96 1z m94 -87 c0 -9 -36 -44 -59 -57 -19 -11 -4
36 17 53 18 14 42 16 42 4z"/>
<path d="M28 3 c12 -2 30 -2 40 0 9 3 -1 5 -23 4 -22 0 -30 -2 -17 -4z"/>
<path d="M198 3 c46 -2 118 -2 160 0 42 1 5 3 -83 3 -88 0 -123 -2 -77 -3z"/>
<path d="M662 3 c82 -2 214 -2 295 0 82 1 15 3 -147 3 -162 0 -229 -2 -148 -3z"/>
<path d="M1583 3 c263 -2 691 -2 950 0 260 1 45 2 -478 2 -522 0 -735 -1 -472
-2z"/>
<path d="M3138 3 c7 -3 16 -2 19 1 4 3 -2 6 -13 5 -11 0 -14 -3 -6 -6z"/>
<path d="M3453 3 c130 -2 344 -2 475 0 130 1 23 2 -238 2 -261 0 -368 -1 -237
-2z"/>
<path d="M4223 3 c31 -2 83 -2 115 0 31 2 5 3 -58 3 -63 0 -89 -1 -57 -3z"/>
<path d="M4548 3 c57 -2 147 -2 200 0 53 1 7 3 -103 3 -110 0 -154 -2 -97 -3z"/>
<path d="M5093 3 c75 -2 199 -2 275 0 75 1 13 3 -138 3 -151 0 -213 -2 -137
-3z"/>
<path d="M5668 3 c67 -2 177 -2 245 0 67 1 12 3 -123 3 -135 0 -190 -2 -122
-3z"/>
</g>
</svg>
