999
"DXF R12 Output" (www.mydxf.blogspot.com)
 0 
SECTION
 2 
HEADER
 9 
$ACADVER
 1 
AC1009
 9 
$EXTMIN
 10 
 0 
 20 
 0 
 9 
$EXTMAX
 10 
 8.5 
 20 
 11 
 0 
ENDSEC
 0 
SECTION
 2 
ENTITIES
0
LINE
8
Layer 1
10
29.868000
20
49.158100
11
29.030341
21
48.422976
0
LINE
8
Layer 1
10
29.030341
20
48.422976
11
27.850340
21
46.829520
0
LINE
8
Layer 1
10
27.850340
20
46.829520
11
25.821925
21
43.594642
0
LINE
8
Layer 1
10
25.821925
20
43.594642
11
24.245010
21
40.756680
0
LINE
8
Layer 1
10
24.245010
20
40.756680
11
23.914246
21
40.075305
0
LINE
8
Layer 1
10
23.914246
20
40.075305
11
23.616558
21
40.114997
0
LINE
8
Layer 1
10
23.616558
20
40.114997
11
19.349698
21
40.425916
0
LINE
8
Layer 1
10
19.349698
20
40.425916
11
15.817960
21
40.466434
0
LINE
8
Layer 1
10
15.817960
20
40.466434
11
12.965948
21
40.353147
0
LINE
8
Layer 1
10
12.965948
20
40.353147
11
12.044768
21
40.038094
0
LINE
8
Layer 1
10
12.044768
20
40.038094
11
11.823568
21
39.762423
0
LINE
8
Layer 1
10
11.823568
20
39.762423
11
11.728888
21
39.380699
0
LINE
8
Layer 1
10
11.728888
20
39.380699
11
11.841658
21
38.642061
0
LINE
8
Layer 1
10
11.841658
20
38.642061
11
12.268861
21
37.589609
0
LINE
8
Layer 1
10
12.268861
20
37.589609
11
13.945008
21
34.796299
0
LINE
8
Layer 1
10
13.945008
20
34.796299
11
18.072948
21
29.398219
0
LINE
8
Layer 1
10
18.072948
20
29.398219
11
18.264791
21
29.193145
0
LINE
8
Layer 1
10
18.264791
20
29.193145
11
17.054191
21
27.678245
0
LINE
8
Layer 1
10
17.054191
20
27.678245
11
13.799467
21
23.390710
0
LINE
8
Layer 1
10
13.799467
20
23.390710
11
12.132411
21
20.725575
0
LINE
8
Layer 1
10
12.132411
20
20.725575
11
11.989355
21
19.815973
0
LINE
8
Layer 1
10
11.989355
20
19.815973
11
12.118457
21
19.469704
0
LINE
8
Layer 1
10
12.118457
20
19.469704
11
12.377177
21
19.223905
0
LINE
8
Layer 1
10
12.377177
20
19.223905
11
13.319028
21
18.964255
0
LINE
8
Layer 1
10
13.319028
20
18.964255
11
15.585597
21
18.873295
0
LINE
8
Layer 1
10
15.585597
20
18.873295
11
18.958568
21
18.919603
0
LINE
8
Layer 1
10
18.958568
20
18.919603
11
22.425807
21
19.144522
0
LINE
8
Layer 1
10
22.425807
20
19.144522
11
23.431327
21
19.190829
0
LINE
8
Layer 1
10
23.431327
20
19.190829
11
23.854706
21
18.291150
0
LINE
8
Layer 1
10
23.854706
20
18.291150
11
25.687969
21
14.628760
0
LINE
8
Layer 1
10
25.687969
20
14.628760
11
27.526196
21
11.536940
0
LINE
8
Layer 1
10
27.526196
20
11.536940
11
28.587950
21
10.256055
0
LINE
8
Layer 1
10
28.587950
20
10.256055
11
29.020219
21
9.997336
0
LINE
8
Layer 1
10
29.020219
20
9.997336
11
29.471096
21
9.922810
0
LINE
8
Layer 1
10
29.471096
20
9.922810
11
30.051692
21
10.061835
0
LINE
8
Layer 1
10
30.051692
20
10.061835
11
30.687483
21
10.553744
0
LINE
8
Layer 1
10
30.687483
20
10.553744
11
32.573666
21
13.045230
0
LINE
8
Layer 1
10
32.573666
20
13.045230
11
35.517466
21
18.013310
0
LINE
8
Layer 1
10
35.517466
20
18.013310
11
36.066535
21
19.051910
0
LINE
8
Layer 1
10
36.066535
20
19.051910
11
36.423761
21
19.051910
0
LINE
8
Layer 1
10
36.423761
20
19.051910
11
38.454651
21
18.939450
0
LINE
8
Layer 1
10
38.454651
20
18.939450
11
43.034912
21
18.816241
0
LINE
8
Layer 1
10
43.034912
20
18.816241
11
46.578231
21
18.926220
0
LINE
8
Layer 1
10
46.578231
20
18.926220
11
47.351394
21
19.114756
0
LINE
8
Layer 1
10
47.351394
20
19.114756
11
47.722681
21
19.402521
0
LINE
8
Layer 1
10
47.722681
20
19.402521
11
47.856951
21
19.806984
0
LINE
8
Layer 1
10
47.856951
20
19.806984
11
47.754931
21
20.370835
0
LINE
8
Layer 1
10
47.754931
20
20.370835
11
46.789925
21
22.128021
0
LINE
8
Layer 1
10
46.789925
20
22.128021
11
42.450295
21
28.247161
0
LINE
8
Layer 1
10
42.450295
20
28.247161
11
41.874765
21
29.074072
0
LINE
8
Layer 1
10
41.874765
20
29.074072
11
42.026917
21
29.312222
0
LINE
8
Layer 1
10
42.026917
20
29.312222
11
45.587598
21
33.862713
0
LINE
8
Layer 1
10
45.587598
20
33.862713
11
46.897839
21
35.804612
0
LINE
8
Layer 1
10
46.897839
20
35.804612
11
47.788837
21
37.376262
0
LINE
8
Layer 1
10
47.788837
20
37.376262
11
48.192370
21
38.203173
0
LINE
8
Layer 1
10
48.192370
20
38.203173
11
48.192370
21
38.811780
0
LINE
8
Layer 1
10
48.192370
20
38.811780
11
48.053449
21
39.605615
0
LINE
8
Layer 1
10
48.053449
20
39.605615
11
47.711831
21
39.907024
0
LINE
8
Layer 1
10
47.711831
20
39.907024
11
47.126482
21
40.096800
0
LINE
8
Layer 1
10
47.126482
20
40.096800
11
44.587039
21
40.260529
0
LINE
8
Layer 1
10
44.587039
20
40.260529
11
40.783249
21
40.227452
0
LINE
8
Layer 1
10
40.783249
20
40.227452
11
37.574829
21
40.114992
0
LINE
8
Layer 1
10
37.574829
20
40.114992
11
36.284849
21
40.075301
0
LINE
8
Layer 1
10
36.284849
20
40.075301
11
36.093006
21
40.525141
0
LINE
8
Layer 1
10
36.093006
20
40.525141
11
33.618886
21
45.380761
0
LINE
8
Layer 1
10
33.618886
20
45.380761
11
31.528456
21
48.569331
0
LINE
8
Layer 1
10
31.528456
20
48.569331
11
30.695755
21
49.220937
0
LINE
8
Layer 1
10
30.695755
20
49.220937
11
30.288397
21
49.276340
0
LINE
8
Layer 1
10
30.288397
20
49.276340
11
29.868016
21
49.158092
0
LINE
8
Layer 1
10
29.868016
20
49.158092
11
29.868000
21
49.158100
0
LINE
8
Layer 1
10
30.767679
20
48.549493
11
31.602033
21
47.542936
0
LINE
8
Layer 1
10
31.602033
20
47.542936
11
32.823382
21
45.612305
0
LINE
8
Layer 1
10
32.823382
20
45.612305
11
35.345459
21
40.809603
0
LINE
8
Layer 1
10
35.345459
20
40.809603
11
35.868067
21
39.618853
0
LINE
8
Layer 1
10
35.868067
20
39.618853
11
36.364214
21
39.532854
0
LINE
8
Layer 1
10
36.364214
20
39.532854
11
38.831714
21
39.638699
0
LINE
8
Layer 1
10
38.831714
20
39.638699
11
43.377244
21
39.718083
0
LINE
8
Layer 1
10
43.377244
20
39.718083
11
46.518684
21
39.638699
0
LINE
8
Layer 1
10
46.518684
20
39.638699
11
47.236339
21
39.470733
0
LINE
8
Layer 1
10
47.236339
20
39.470733
11
47.611034
21
39.202916
0
LINE
8
Layer 1
10
47.611034
20
39.202916
11
47.684320
21
38.772611
0
LINE
8
Layer 1
10
47.684320
20
38.772611
11
47.497747
21
38.117179
0
LINE
8
Layer 1
10
47.497747
20
38.117179
11
46.334283
21
35.989535
0
LINE
8
Layer 1
10
46.334283
20
35.989535
11
44.302557
21
33.082939
0
LINE
8
Layer 1
10
44.302557
20
33.082939
11
41.451367
21
29.510679
0
LINE
8
Layer 1
10
41.451367
20
29.510679
11
41.147064
21
29.093916
0
LINE
8
Layer 1
10
41.147064
20
29.093916
11
42.324584
21
27.453326
0
LINE
8
Layer 1
10
42.324584
20
27.453326
11
45.654555
21
22.807737
0
LINE
8
Layer 1
10
45.654555
20
22.807737
11
47.233134
21
20.255886
0
LINE
8
Layer 1
10
47.233134
20
20.255886
11
47.324818
21
19.903725
0
LINE
8
Layer 1
10
47.324818
20
19.903725
11
47.242230
21
19.681183
0
LINE
8
Layer 1
10
47.242230
20
19.681183
11
46.373146
21
19.448821
0
LINE
8
Layer 1
10
46.373146
20
19.448821
11
43.144059
21
19.330573
0
LINE
8
Layer 1
10
43.144059
20
19.330573
11
38.104036
21
19.514974
0
LINE
8
Layer 1
10
38.104036
20
19.514974
11
36.364216
21
19.607588
0
LINE
8
Layer 1
10
36.364216
20
19.607588
11
35.722533
21
19.640665
0
LINE
8
Layer 1
10
35.722533
20
19.640665
11
35.484383
21
19.164364
0
LINE
8
Layer 1
10
35.484383
20
19.164364
11
33.486563
21
15.545804
0
LINE
8
Layer 1
10
33.486563
20
15.545804
11
31.514382
21
12.553211
0
LINE
8
Layer 1
10
31.514382
20
12.553211
11
29.993693
21
10.657104
0
LINE
8
Layer 1
10
29.993693
20
10.657104
11
29.595019
21
10.460299
0
LINE
8
Layer 1
10
29.595019
20
10.460299
11
29.190763
21
10.531413
0
LINE
8
Layer 1
10
29.190763
20
10.531413
11
28.733172
21
10.895254
0
LINE
8
Layer 1
10
28.733172
20
10.895254
11
28.174493
21
11.576629
0
LINE
8
Layer 1
10
28.174493
20
11.576629
11
26.243654
21
14.751970
0
LINE
8
Layer 1
10
26.243654
20
14.751970
11
24.198703
21
18.919599
0
LINE
8
Layer 1
10
24.198703
20
18.919599
11
23.821631
21
19.726664
0
LINE
8
Layer 1
10
23.821631
20
19.726664
11
22.988104
21
19.713433
0
LINE
8
Layer 1
10
22.988104
20
19.713433
11
16.620063
21
19.397553
0
LINE
8
Layer 1
10
16.620063
20
19.397553
11
14.313292
21
19.426908
0
LINE
8
Layer 1
10
14.313292
20
19.426908
11
12.946104
21
19.587742
0
LINE
8
Layer 1
10
12.946104
20
19.587742
11
12.599628
21
19.811835
0
LINE
8
Layer 1
10
12.599628
20
19.811835
11
12.535956
21
20.189733
0
LINE
8
Layer 1
10
12.535956
20
20.189733
11
13.308290
21
21.618637
0
LINE
8
Layer 1
10
13.308290
20
21.618637
11
15.241606
21
24.377213
0
LINE
8
Layer 1
10
15.241606
20
24.377213
11
18.674946
21
28.730073
0
LINE
8
Layer 1
10
18.674946
20
28.730073
11
18.966019
21
29.193143
0
LINE
8
Layer 1
10
18.966019
20
29.193143
11
18.542640
21
29.735597
0
LINE
8
Layer 1
10
18.542640
20
29.735597
11
16.333130
21
32.514017
0
LINE
8
Layer 1
10
16.333130
20
32.514017
11
13.626649
21
36.326077
0
LINE
8
Layer 1
10
13.626649
20
36.326077
11
12.789710
21
37.803562
0
LINE
8
Layer 1
10
12.789710
20
37.803562
11
12.344110
21
38.917617
0
LINE
8
Layer 1
10
12.344110
20
38.917617
11
12.295322
21
39.417899
0
LINE
8
Layer 1
10
12.295322
20
39.417899
11
12.489646
21
39.684991
0
LINE
8
Layer 1
10
12.489646
20
39.684991
11
13.627478
21
39.867738
0
LINE
8
Layer 1
10
13.627478
20
39.867738
11
16.372826
21
39.916526
0
LINE
8
Layer 1
10
16.372826
20
39.916526
11
19.878101
21
39.845412
0
LINE
8
Layer 1
10
19.878101
20
39.845412
11
22.981496
21
39.625453
0
LINE
8
Layer 1
10
22.981496
20
39.625453
11
24.225166
21
39.552685
0
LINE
8
Layer 1
10
24.225166
20
39.552685
11
24.794081
21
40.584675
0
LINE
8
Layer 1
10
24.794081
20
40.584675
11
26.891954
21
44.226392
0
LINE
8
Layer 1
10
26.891954
20
44.226392
11
28.994791
21
47.431505
0
LINE
8
Layer 1
10
28.994791
20
47.431505
11
30.042488
21
48.618121
0
LINE
8
Layer 1
10
30.042488
20
48.618121
11
30.404159
21
48.714352
0
LINE
8
Layer 1
10
30.404159
20
48.714352
11
30.767691
21
48.549485
0
LINE
8
Layer 1
10
30.767691
20
48.549485
11
30.767679
21
48.549493
0
LINE
8
Layer 1
10
29.848200
20
47.193400
11
29.411591
21
46.776637
0
LINE
8
Layer 1
10
29.411591
20
46.776637
11
27.247565
21
43.167168
0
LINE
8
Layer 1
10
27.247565
20
43.167168
11
25.019041
21
39.076437
0
LINE
8
Layer 1
10
25.019041
20
39.076437
11
24.790813
21
38.654712
0
LINE
8
Layer 1
10
24.790813
20
38.654712
11
24.622124
21
38.600136
0
LINE
8
Layer 1
10
24.622124
20
38.600136
11
20.838174
21
38.970592
0
LINE
8
Layer 1
10
20.838174
20
38.970592
11
16.802844
21
39.122744
0
LINE
8
Layer 1
10
16.802844
20
39.122744
11
14.520570
21
39.066514
0
LINE
8
Layer 1
10
14.520570
20
39.066514
11
14.079001
21
38.936689
0
LINE
8
Layer 1
10
14.079001
20
38.936689
11
13.786274
21
38.692750
0
LINE
8
Layer 1
10
13.786274
20
38.692750
11
13.623373
21
38.448811
0
LINE
8
Layer 1
10
13.623373
20
38.448811
11
13.594431
21
38.011375
0
LINE
8
Layer 1
10
13.594431
20
38.011375
11
13.631642
21
37.544997
0
LINE
8
Layer 1
10
13.631642
20
37.544997
11
13.812736
21
37.118311
0
LINE
8
Layer 1
10
13.812736
20
37.118311
11
15.565786
21
34.399431
0
LINE
8
Layer 1
10
15.565786
20
34.399431
11
18.886666
21
30.000261
0
LINE
8
Layer 1
10
18.886666
20
30.000261
11
19.409274
21
29.318886
0
LINE
8
Layer 1
10
19.409274
20
29.318886
11
19.164508
21
28.822739
0
LINE
8
Layer 1
10
19.164508
20
28.822739
11
14.467648
21
21.757609
0
LINE
8
Layer 1
10
14.467648
20
21.757609
11
14.289035
21
21.082849
0
LINE
8
Layer 1
10
14.289035
20
21.082849
11
14.323765
21
20.746296
0
LINE
8
Layer 1
10
14.323765
20
20.746296
11
14.487494
21
20.513934
0
LINE
8
Layer 1
10
14.487494
20
20.513934
11
14.778567
21
20.312374
0
LINE
8
Layer 1
10
14.778567
20
20.312374
11
15.292905
21
20.211285
0
LINE
8
Layer 1
10
15.292905
20
20.211285
11
17.993594
21
20.236092
0
LINE
8
Layer 1
10
17.993594
20
20.236092
11
22.260454
21
20.414705
0
LINE
8
Layer 1
10
22.260454
20
20.414705
11
24.033354
21
20.421320
0
LINE
8
Layer 1
10
24.033354
20
20.421320
11
24.754421
21
19.085030
0
LINE
8
Layer 1
10
24.754421
20
19.085030
11
27.890071
21
13.554650
0
LINE
8
Layer 1
10
27.890071
20
13.554650
11
28.860866
21
12.212570
0
LINE
8
Layer 1
10
28.860866
20
12.212570
11
29.211062
21
11.970389
0
LINE
8
Layer 1
10
29.211062
20
11.970389
11
29.583581
21
11.907440
0
LINE
8
Layer 1
10
29.583581
20
11.907440
11
29.957551
21
11.981449
0
LINE
8
Layer 1
10
29.957551
20
11.981449
11
30.327801
21
12.256396
0
LINE
8
Layer 1
10
30.327801
20
12.256396
11
31.369711
21
13.726640
0
LINE
8
Layer 1
10
31.369711
20
13.726640
11
34.406131
21
19.270250
0
LINE
8
Layer 1
10
34.406131
20
19.270250
11
34.961815
21
20.447770
0
LINE
8
Layer 1
10
34.961815
20
20.447770
11
35.160274
21
20.414694
0
LINE
8
Layer 1
10
35.160274
20
20.414694
11
42.172484
21
20.216235
0
LINE
8
Layer 1
10
42.172484
20
20.216235
11
44.964134
21
20.322080
0
LINE
8
Layer 1
10
44.964134
20
20.322080
11
45.275053
21
20.586692
0
LINE
8
Layer 1
10
45.275053
20
20.586692
11
45.377590
21
21.041493
0
LINE
8
Layer 1
10
45.377590
20
21.041493
11
45.241977
21
21.585601
0
LINE
8
Layer 1
10
45.241977
20
21.585601
11
43.032467
21
25.171091
0
LINE
8
Layer 1
10
43.032467
20
25.171091
11
41.987247
21
26.818301
0
LINE
8
Layer 1
10
41.987247
20
26.818301
11
41.180182
21
28.088441
0
LINE
8
Layer 1
10
41.180182
20
28.088441
11
40.617882
21
28.974890
0
LINE
8
Layer 1
10
40.617882
20
28.974890
11
40.676592
21
29.239502
0
LINE
8
Layer 1
10
40.676592
20
29.239502
11
41.266180
21
30.020110
0
LINE
8
Layer 1
10
41.266180
20
30.020110
11
44.251331
21
34.029804
0
LINE
8
Layer 1
10
44.251331
20
34.029804
11
46.174730
21
37.012470
0
LINE
8
Layer 1
10
46.174730
20
37.012470
11
46.403474
21
37.698599
0
LINE
8
Layer 1
10
46.403474
20
37.698599
11
46.327708
21
38.234644
0
LINE
8
Layer 1
10
46.327708
20
38.234644
11
45.950534
21
38.614401
0
LINE
8
Layer 1
10
45.950534
20
38.614401
11
45.275051
21
38.831670
0
LINE
8
Layer 1
10
45.275051
20
38.831670
11
40.684038
21
38.844073
0
LINE
8
Layer 1
10
40.684038
20
38.844073
11
35.517501
21
38.593520
0
LINE
8
Layer 1
10
35.517501
20
38.593520
11
35.213198
21
38.553828
0
LINE
8
Layer 1
10
35.213198
20
38.553828
11
33.221998
21
42.556078
0
LINE
8
Layer 1
10
33.221998
20
42.556078
11
30.913258
21
46.902328
0
LINE
8
Layer 1
10
30.913258
20
46.902328
11
30.383208
21
47.268650
0
LINE
8
Layer 1
10
30.383208
20
47.268650
11
29.848198
21
47.193401
0
LINE
8
Layer 1
10
29.848198
20
47.193401
11
29.848200
21
47.193400
0
LINE
8
Layer 1
10
30.483268
20
46.558332
11
33.288148
21
41.160252
0
LINE
8
Layer 1
10
33.288148
20
41.160252
11
34.981658
21
37.998142
0
LINE
8
Layer 1
10
34.981658
20
37.998142
11
38.465436
21
38.228023
0
LINE
8
Layer 1
10
38.465436
20
38.228023
11
43.402918
21
38.368598
0
LINE
8
Layer 1
10
43.402918
20
38.368598
11
45.335409
21
38.246215
0
LINE
8
Layer 1
10
45.335409
20
38.246215
11
45.729535
21
38.067189
0
LINE
8
Layer 1
10
45.729535
20
38.067189
11
45.843958
21
37.786452
0
LINE
8
Layer 1
10
45.843958
20
37.786452
11
45.361146
21
36.788061
0
LINE
8
Layer 1
10
45.361146
20
36.788061
11
44.095042
21
34.860014
0
LINE
8
Layer 1
10
44.095042
20
34.860014
11
40.306958
21
29.795182
0
LINE
8
Layer 1
10
40.306958
20
29.795182
11
39.824042
21
29.153499
0
LINE
8
Layer 1
10
39.824042
20
29.153499
11
40.439264
21
28.167821
0
LINE
8
Layer 1
10
40.439264
20
28.167821
11
43.045684
21
24.086191
0
LINE
8
Layer 1
10
43.045684
20
24.086191
11
44.703641
21
21.392113
0
LINE
8
Layer 1
10
44.703641
20
21.392113
11
44.840186
21
21.031166
0
LINE
8
Layer 1
10
44.840186
20
21.031166
11
44.759044
21
20.871161
0
LINE
8
Layer 1
10
44.759044
20
20.871161
11
44.407607
21
20.759528
0
LINE
8
Layer 1
10
44.407607
20
20.759528
11
42.721534
21
20.752086
0
LINE
8
Layer 1
10
42.721534
20
20.752086
11
34.915494
21
20.943929
0
LINE
8
Layer 1
10
34.915494
20
20.943929
11
34.604575
21
20.983621
0
LINE
8
Layer 1
10
34.604575
20
20.983621
11
33.751203
21
19.270261
0
LINE
8
Layer 1
10
33.751203
20
19.270261
11
31.740154
21
15.506159
0
LINE
8
Layer 1
10
31.740154
20
15.506159
11
30.145873
21
12.932811
0
LINE
8
Layer 1
10
30.145873
20
12.932811
11
29.779655
21
12.521526
0
LINE
8
Layer 1
10
29.779655
20
12.521526
11
29.468633
21
12.450721
0
LINE
8
Layer 1
10
29.468633
20
12.450721
11
29.114199
21
12.753267
0
LINE
8
Layer 1
10
29.114199
20
12.753267
11
28.617743
21
13.462034
0
LINE
8
Layer 1
10
28.617743
20
13.462034
11
26.753059
21
16.615046
0
LINE
8
Layer 1
10
26.753059
20
16.615046
11
24.873493
21
20.110404
0
LINE
8
Layer 1
10
24.873493
20
20.110404
11
24.397192
21
21.069621
0
LINE
8
Layer 1
10
24.397192
20
21.069621
11
23.788585
21
21.023314
0
LINE
8
Layer 1
10
23.788585
20
21.023314
11
16.438995
21
20.752087
0
LINE
8
Layer 1
10
16.438995
20
20.752087
11
14.996865
21
20.857932
0
LINE
8
Layer 1
10
14.996865
20
20.857932
11
14.830036
21
21.045330
0
LINE
8
Layer 1
10
14.830036
20
21.045330
11
15.086172
21
21.642670
0
LINE
8
Layer 1
10
15.086172
20
21.642670
11
18.192055
21
26.361852
0
LINE
8
Layer 1
10
18.192055
20
26.361852
11
19.925265
21
28.888892
0
LINE
8
Layer 1
10
19.925265
20
28.888892
11
20.176646
21
29.338732
0
LINE
8
Layer 1
10
20.176646
20
29.338732
11
18.383906
21
31.554852
0
LINE
8
Layer 1
10
18.383906
20
31.554852
11
15.466566
21
35.524022
0
LINE
8
Layer 1
10
15.466566
20
35.524022
11
14.143506
21
37.865832
0
LINE
8
Layer 1
10
14.143506
20
37.865832
11
14.097199
21
38.152770
0
LINE
8
Layer 1
10
14.097199
20
38.152770
11
14.229505
21
38.335518
0
LINE
8
Layer 1
10
14.229505
20
38.335518
11
14.943129
21
38.590206
0
LINE
8
Layer 1
10
14.943129
20
38.590206
11
16.902085
21
38.606745
0
LINE
8
Layer 1
10
16.902085
20
38.606745
11
21.083775
21
38.395055
0
LINE
8
Layer 1
10
21.083775
20
38.395055
11
24.694895
21
38.044445
0
LINE
8
Layer 1
10
24.694895
20
38.044445
11
25.078582
21
37.991522
0
LINE
8
Layer 1
10
25.078582
20
37.991522
11
25.515191
21
38.825049
0
LINE
8
Layer 1
10
25.515191
20
38.825049
11
28.181977
21
43.666612
0
LINE
8
Layer 1
10
28.181977
20
43.666612
11
29.940821
21
46.538479
0
LINE
8
Layer 1
10
29.940821
20
46.538479
11
30.214528
21
46.697246
0
LINE
8
Layer 1
10
30.214528
20
46.697246
11
30.483275
21
46.558325
0
LINE
8
Layer 1
10
30.483275
20
46.558325
11
30.483268
21
46.558332
 0 
ENDSEC
 0 
EOF