<?xml version="1.0" standalone="no"?>
<!DOCTYPE svg PUBLIC "-//W3C//DTD SVG 20010904//EN"
 "http://www.w3.org/TR/2001/REC-SVG-20010904/DTD/svg10.dtd">
<svg version="1.0" xmlns="http://www.w3.org/2000/svg"
 width="100" height="100" viewBox="0 0 100 100"
 preserveAspectRatio="xMidYMid meet">
<metadata>
Created by potrace 1.16, written by Peter Selinger 2001-2019
</metadata>
<g transform="translate(0.000000,400.000000) scale(0.100000,-0.100000)"
fill="#000000" stroke="none">
<path d="M997 3773 c552 -2 1454 -2 2006 0 551 1 100 2 -1003 2 -1103 0 -1554
-1 -1003 -2z"/>
<path d="M3270 3132 c0 -179 26 -189 33 -13 l2 65 92 -105 c148 -166 185 -255
182 -437 l-2 -103 94 -43 c109 -49 220 -118 285 -178 l46 -42 -4 29 c-4 41
-113 121 -265 196 l-123 60 0 92 c0 187 -40 278 -198 457 -156 178 -142 176
-142 22z"/>
<path d="M3080 3137 c0 -78 -2 -86 -21 -92 -32 -10 -98 -74 -119 -114 -10 -20
-39 -56 -63 -80 -42 -40 -44 -46 -32 -65 7 -12 16 -37 20 -56 16 -79 79 -133
188 -160 32 -9 47 -18 47 -29 0 -9 -31 -121 -70 -249 l-69 -232 71 -133 c69
-128 198 -399 212 -444 4 -13 1 -34 -8 -50 -14 -27 -17 -28 -93 -29 -114 -1
-163 -35 -163 -112 0 -55 66 -109 121 -98 36 7 89 -42 89 -83 0 -36 47 -80 93
-88 60 -9 105 5 152 48 l44 40 43 -13 c70 -20 340 -17 411 5 50 15 79 38 66
52 -2 2 -31 -6 -64 -18 -51 -18 -83 -21 -210 -21 -133 0 -161 3 -246 27 -76
21 -114 26 -182 24 -78 -2 -87 0 -111 22 -31 29 -34 71 -8 94 29 27 188 24
248 -4 42 -20 55 -21 167 -15 67 4 183 14 257 22 74 7 138 14 143 14 4 0 7 7
7 16 0 14 -8 16 -56 10 -102 -12 -247 -25 -356 -31 l-108 -7 0 173 0 172 60
73 c33 40 60 75 60 78 0 19 -26 -3 -84 -73 l-66 -79 0 -162 c0 -150 -1 -162
-17 -155 -10 3 -40 11 -67 16 -27 5 -52 11 -54 14 -3 2 1 18 8 35 13 33 9 82
-17 190 -14 55 -36 94 -151 260 -75 107 -140 207 -145 221 -8 20 3 70 57 255
37 126 71 239 76 250 8 20 4 23 -57 38 -130 33 -174 70 -194 164 -11 56 -11
56 17 80 16 14 43 48 60 76 45 76 76 93 242 136 31 8 42 16 40 27 -2 9 -40 45
-85 80 l-83 65 0 -85z m82 -19 c43 -34 41 -40 -19 -53 l-33 -7 0 46 c0 25 3
46 6 46 3 0 24 -14 46 -32z m46 -1425 c52 -81 63 -109 82 -207 14 -69 -1 -146
-29 -146 -33 0 -93 -22 -112 -41 -10 -10 -19 -30 -19 -43 0 -30 -35 -39 -79
-20 -55 23 -51 103 6 125 16 6 63 11 106 10 l78 0 19 45 c11 25 20 50 20 55 0
5 -29 75 -64 154 -35 80 -63 145 -61 145 1 0 25 -35 53 -77z m209 -564 l28
-10 -32 -29 c-44 -39 -110 -49 -155 -23 -18 10 -34 29 -36 40 -3 20 2 22 50
26 107 7 117 7 145 -4z"/>
<path d="M590 3197 c0 -3 -9 -52 -20 -109 -57 -297 -71 -436 -51 -505 9 -31 6
-35 -177 -228 l-187 -197 -78 -149 c-43 -82 -77 -157 -75 -166 2 -11 37 48 83
138 l79 156 193 204 c174 183 192 205 185 228 -4 14 -7 64 -7 111 0 97 17 142
75 200 48 48 103 73 173 78 84 6 140 -13 202 -69 95 -88 121 -201 76 -330
l-23 -65 40 -149 c74 -279 75 -217 -6 -485 -39 -129 -82 -278 -96 -330 -45
-167 -30 -284 40 -302 17 -4 39 -17 49 -28 18 -19 18 -21 -1 -56 l-19 -36 -59
6 c-32 3 -77 6 -98 6 -39 0 -39 0 -74 77 l-35 77 20 140 c11 78 23 165 26 194
l7 52 -86 0 c-85 0 -86 0 -86 -25 0 -54 52 -368 71 -430 11 -36 17 -70 14 -75
-3 -5 -35 -26 -70 -45 -70 -39 -80 -39 -124 9 -21 22 -23 32 -18 83 4 50 -1
79 -44 214 -40 128 -49 170 -49 230 0 143 -33 195 -142 222 -34 9 -64 14 -66
12 -11 -10 12 -23 62 -34 65 -14 101 -45 115 -97 6 -22 11 -131 11 -252 0
-198 -1 -213 -18 -208 -9 2 -104 8 -209 11 -138 5 -193 4 -193 -4 0 -6 6 -11
13 -11 6 0 104 -5 216 -10 190 -9 206 -11 228 -32 30 -28 30 -68 -2 -98 -24
-23 -32 -24 -133 -22 -90 3 -231 24 -306 48 -12 4 -17 2 -14 -7 10 -31 308
-79 401 -65 90 14 124 94 67 159 -29 34 -30 37 -30 138 l1 104 39 -120 c37
-111 39 -125 32 -183 l-9 -62 52 -44 51 -44 85 49 c47 28 82 55 80 62 -27 83
-45 170 -66 312 -14 94 -25 176 -25 183 0 8 20 12 65 12 l66 0 -5 -32 c-3 -18
-15 -99 -26 -181 l-21 -147 31 -74 c45 -108 40 -104 160 -112 l106 -6 24 44
23 45 -22 31 c-12 18 -36 35 -54 40 -42 11 -57 42 -57 123 0 71 25 170 129
513 34 110 61 205 61 212 0 6 -23 98 -50 204 l-51 191 26 74 c35 101 52 190
70 359 18 176 18 179 2 173 -7 -2 -57 -36 -113 -75 l-100 -71 -39 14 c-22 8
-54 14 -72 15 -27 0 -46 16 -137 112 -58 61 -106 109 -106 105z m103 -131 l76
-84 -42 -10 c-55 -14 -130 -65 -156 -105 -18 -28 -21 -29 -21 -11 0 20 16 116
41 242 6 28 14 52 18 52 4 0 41 -38 84 -84z m441 -140 c-7 -76 -17 -155 -20
-175 l-7 -36 -18 54 c-19 56 -56 111 -99 148 -14 12 -23 23 -20 26 12 11 175
126 176 124 1 -1 -4 -64 -12 -141z"/>
<path d="M1747 3164 c-5 -15 -80 -347 -103 -453 -9 -41 16 -129 52 -181 l34
-50 -19 -38 c-27 -54 -125 -313 -155 -412 -24 -77 -31 -88 -72 -118 -57 -42
-126 -135 -155 -210 -17 -42 -23 -79 -23 -142 -1 -78 2 -91 35 -160 70 -146
190 -240 306 -240 l53 0 0 -40 0 -40 118 0 119 0 11 38 11 37 55 -3 c31 -2 60
-10 67 -18 9 -11 41 -14 135 -14 l123 0 3 53 3 52 58 6 c119 13 192 90 238
252 28 99 33 270 10 327 -26 63 -63 110 -111 141 -46 30 -48 33 -89 156 -24
69 -69 184 -101 256 l-58 131 23 30 c33 45 45 71 54 120 10 56 3 104 -55 345
l-46 193 -87 -86 -86 -86 -85 0 -85 0 -86 86 c-72 72 -88 83 -92 68z m94 -104
l71 -70 96 0 97 0 72 72 c40 40 74 70 77 67 11 -11 88 -351 93 -411 8 -87 -12
-139 -74 -202 -141 -140 -374 -148 -517 -16 -59 55 -86 111 -86 181 0 30 20
141 45 247 25 105 45 194 45 197 0 12 12 2 81 -65z m469 -665 c86 -183 158
-384 145 -405 -3 -6 -1 -44 5 -86 15 -99 0 -215 -45 -351 -32 -97 -89 -223
-101 -223 -3 0 -19 7 -36 16 -23 12 -52 15 -115 12 l-84 -3 -7 30 c-7 26 -13
30 -49 33 l-41 3 -13 -50 -13 -51 -107 0 -108 0 -35 63 c-88 157 -136 323
-141 485 -4 109 -3 116 35 226 42 122 83 226 124 320 24 55 27 58 44 44 30
-27 95 -55 156 -68 103 -21 242 8 311 65 17 13 31 24 33 25 2 0 21 -38 42 -85z
m261 -502 c59 -62 74 -109 74 -225 0 -65 -4 -111 -11 -118 -8 -8 -13 1 -17 32
-8 53 -57 224 -86 296 -11 29 -21 55 -21 58 0 10 36 -15 61 -43z m-16 -158
c18 -60 39 -144 46 -185 11 -67 10 -81 -6 -129 -33 -100 -132 -177 -216 -169
-51 5 -54 37 -12 121 79 160 131 375 120 501 l-5 61 20 -45 c11 -25 34 -94 53
-155z m-1074 68 c-77 -227 -66 -341 42 -440 67 -62 93 -67 332 -68 116 -1 220
-5 232 -9 30 -10 38 -42 18 -72 -27 -42 -59 -48 -159 -28 -78 15 -100 15 -186
4 -54 -7 -117 -10 -140 -6 -126 20 -245 147 -285 304 -30 117 14 255 117 365
26 28 50 48 54 45 3 -3 -8 -46 -25 -95z m95 -158 c28 -101 83 -232 119 -287
l25 -38 -25 0 c-64 0 -120 24 -167 71 -91 91 -97 194 -26 407 l33 97 7 -80 c5
-44 20 -120 34 -170z m477 -280 l8 -30 99 0 c84 0 102 -3 127 -21 26 -19 28
-27 31 -93 l3 -71 -116 0 c-63 0 -115 3 -115 8 0 4 12 18 25 31 34 32 33 75
-2 107 -24 22 -35 25 -81 22 l-53 -3 6 35 c9 46 13 52 38 48 14 -2 24 -14 30
-33z m-119 -222 c-4 -16 -9 -31 -11 -35 -2 -5 -47 -8 -99 -8 l-94 0 0 29 c0
16 6 32 13 34 6 3 54 6 105 6 l92 1 -6 -27z"/>
<path d="M1819 2763 c-13 -17 -13 -17 6 -3 11 8 22 16 24 17 2 2 0 3 -6 3 -6
0 -17 -8 -24 -17z"/>
<path d="M2120 2770 c0 -5 5 -10 11 -10 5 0 7 5 4 10 -3 6 -8 10 -11 10 -2 0
-4 -4 -4 -10z"/>
<path d="M2080 2736 c0 -2 8 -10 18 -17 15 -13 16 -12 3 4 -13 16 -21 21 -21
13z"/>
<path d="M1810 2726 c0 -2 7 -9 15 -16 9 -7 15 -8 15 -2 0 5 -7 12 -15 16 -8
3 -15 4 -15 2z"/>
<path d="M120 500 c-69 -3 777 -6 1880 -6 1103 -1 1956 2 1895 7 -122 8 -3577
7 -3775 -1z"/>
</g>
</svg>
