<?xml version="1.0" standalone="no"?>
<!DOCTYPE svg PUBLIC "-//W3C//DTD SVG 20010904//EN"
 "http://www.w3.org/TR/2001/REC-SVG-20010904/DTD/svg10.dtd">
<svg version="1.0" xmlns="http://www.w3.org/2000/svg"
 width="170.078740pt" height="170.078740pt" viewBox="0 0 170.078740 170.078740"
 preserveAspectRatio="xMidYMid meet">
<metadata>
Created by potrace 1.16, written by Peter Selinger 2001-2019
</metadata>
<g transform="translate(0.000000,170.078740) scale(0.018752,-0.018752)"
fill="#000000" stroke="none">
<path d="M4129 8084 c-215 -143 -423 -351 -567 -564 -116 -172 -226 -410 -271
-582 -63 -243 -68 -557 -13 -770 17 -64 46 -156 66 -204 19 -49 34 -89 33 -90
-1 -1 -31 15 -65 36 -90 55 -198 97 -305 121 -118 26 -345 36 -458 20 -576
-82 -1121 -487 -1405 -1045 l-49 -95 19 -53 c10 -29 42 -108 71 -175 l53 -122
-48 -106 c-27 -58 -58 -135 -70 -171 l-22 -65 49 -85 c66 -116 182 -269 293
-386 247 -262 580 -459 930 -550 99 -25 139 -30 285 -35 259 -8 424 26 636
132 68 34 89 41 83 28 -4 -10 -29 -81 -55 -158 -63 -184 -83 -329 -76 -540 9
-223 46 -378 149 -610 163 -369 407 -667 731 -889 l97 -68 88 37 c48 20 122
53 164 72 l77 36 108 -48 c59 -26 132 -58 161 -71 l54 -24 74 51 c274 185 511
435 662 699 106 186 196 427 234 627 17 89 17 445 0 537 -12 66 -56 201 -100
313 l-21 51 114 -54 c68 -33 160 -67 232 -86 113 -30 127 -32 318 -32 187 -1
207 1 315 28 193 48 423 144 577 243 141 89 349 267 455 389 81 92 197 257
237 335 l33 64 -62 150 c-34 83 -64 159 -67 170 -2 11 16 67 40 125 25 58 55
134 68 170 l22 65 -48 95 c-95 189 -210 345 -380 516 -216 217 -459 371 -740
467 -173 59 -256 72 -465 71 -174 -1 -192 -3 -305 -32 -113 -30 -239 -83 -313
-132 l-33 -22 22 53 c75 183 110 348 116 545 7 196 -6 315 -53 479 -137 479
-456 908 -859 1155 l-69 42 -54 -17 c-29 -9 -103 -41 -164 -72 l-110 -55 -87
40 c-100 47 -230 102 -241 102 -4 0 -45 -25 -91 -56z m532 -166 c280 -169 574
-479 759 -800 77 -134 169 -356 204 -493 56 -221 75 -488 48 -691 l-14 -102
-127 -85 c-206 -139 -374 -298 -751 -712 -95 -104 -186 -203 -201 -219 l-28
-30 -114 120 c-62 65 -197 210 -300 320 -253 274 -364 373 -575 519 -72 49
-117 87 -124 104 -16 41 -23 404 -9 518 36 290 124 539 285 806 189 314 501
628 771 774 33 18 63 33 66 33 3 0 53 -28 110 -62z m-1459 -2068 c53 -11 125
-30 159 -43 60 -21 62 -23 82 -77 32 -89 126 -243 219 -363 90 -115 171 -206
506 -562 l194 -205 -89 -93 c-48 -52 -167 -177 -263 -278 -344 -362 -499 -568
-565 -751 l-22 -62 -64 -17 c-152 -42 -242 -53 -414 -53 -148 0 -184 4 -282
26 -453 107 -943 460 -1243 898 -66 97 -160 270 -160 296 0 31 103 232 174
339 355 530 838 879 1336 965 86 14 321 4 432 -20z m3193 6 c523 -111 1098
-592 1382 -1156 35 -68 63 -131 63 -138 0 -22 -77 -165 -138 -255 -309 -465
-851 -853 -1312 -943 -172 -33 -414 -22 -618 28 l-82 21 -41 86 c-47 102 -161
274 -254 386 -37 44 -169 187 -293 318 -125 131 -260 274 -300 318 l-74 78
129 133 c444 457 578 613 703 812 51 82 110 207 110 235 0 22 207 73 390 95
64 8 264 -3 335 -18z m-1627 -1680 c436 -467 540 -564 757 -711 l130 -88 12
-76 c15 -96 16 -346 2 -448 -15 -114 -62 -304 -102 -413 -117 -324 -289 -592
-542 -846 -140 -141 -239 -223 -380 -316 l-90 -60 -50 28 c-255 139 -518 390
-715 684 -133 197 -218 378 -290 612 -64 209 -74 282 -75 543 0 127 4 246 8
265 7 31 21 44 125 111 210 138 359 276 782 727 152 162 208 216 218 209 7 -6
101 -105 210 -221z"/>
</g>
</svg>
