<?xml version="1.0" standalone="no"?>
<!DOCTYPE svg PUBLIC "-//W3C//DTD SVG 20010904//EN"
 "http://www.w3.org/TR/2001/REC-SVG-20010904/DTD/svg10.dtd">
<svg version="1.0" xmlns="http://www.w3.org/2000/svg"
 width="170.078740pt" height="170.078740pt" viewBox="0 0 170.078740 170.078740"
 preserveAspectRatio="xMidYMid meet">
<metadata>
Created by potrace 1.16, written by Peter Selinger 2001-2019
</metadata>
<g transform="translate(0.000000,170.078740) scale(0.018752,-0.018752)"
fill="#000000" stroke="none">
<path d="M2840 7884 c-255 -32 -396 -123 -548 -357 -93 -145 -233 -489 -257
-633 l-6 -41 -127 -6 c-297 -15 -644 -87 -932 -194 -208 -77 -457 -217 -625
-351 -87 -69 -278 -254 -316 -306 -27 -37 -29 -45 -29 -139 l0 -100 49 69
c150 213 377 414 637 564 322 187 766 312 1222 345 l92 7 0 -29 c0 -17 -3 -57
-6 -90 l-7 -61 -67 -26 c-181 -71 -377 -251 -466 -429 -87 -172 -110 -399 -60
-591 31 -118 95 -254 165 -351 62 -86 198 -224 263 -268 26 -17 48 -34 48 -37
0 -3 -76 -20 -168 -38 -92 -18 -293 -62 -447 -98 -608 -142 -688 -155 -1003
-161 l-252 -6 0 -28 0 -29 1599 -2 1600 -3 -181 -200 c-218 -240 -565 -593
-701 -713 -139 -123 -255 -203 -382 -266 -165 -81 -392 -149 -530 -158 l-50
-3 -27 85 c-15 47 -36 112 -45 145 -15 49 -23 62 -46 70 -21 7 -35 6 -55 -6
-23 -12 -30 -28 -49 -109 -12 -52 -25 -111 -28 -132 l-6 -36 -65 24 c-152 55
-291 130 -399 216 -222 176 -444 438 -583 687 l-47 83 -3 -111 c-3 -131 0
-138 111 -287 268 -360 559 -592 870 -694 l97 -32 0 -101 c1 -573 161 -1084
458 -1467 242 -311 562 -545 862 -632 88 -25 258 -34 346 -18 306 56 660 347
1012 833 51 69 92 130 92 134 -1 9 -76 63 -88 63 -4 0 -32 -35 -62 -78 -185
-263 -449 -546 -628 -675 -179 -128 -313 -174 -486 -164 -134 8 -198 26 -341
97 -146 73 -276 165 -402 284 -421 398 -643 954 -643 1607 l0 99 34 0 c30 0
37 -6 61 -45 32 -56 56 -72 120 -80 132 -18 456 70 624 169 l57 33 18 -56 c40
-123 130 -258 237 -354 157 -142 395 -206 609 -163 46 10 91 21 100 26 13 7
25 -3 59 -51 125 -178 277 -293 461 -350 110 -35 282 -32 395 4 112 37 195 90
280 178 150 157 235 362 267 639 6 58 12 106 13 107 0 1 31 -9 67 -22 124 -45
226 -58 413 -52 138 4 188 9 266 30 178 47 308 114 405 212 71 71 110 134 140
229 91 290 -15 658 -271 934 l-67 72 1181 0 1181 0 0 30 0 30 -1215 0 -1214 0
-75 48 c-41 26 -75 50 -75 53 -1 3 41 30 92 59 131 75 213 138 311 240 99 105
132 150 186 258 162 325 101 656 -156 850 -235 177 -593 264 -893 218 -58 -9
-108 -16 -112 -16 -3 0 -1 28 7 63 70 335 -36 659 -267 810 -60 40 -158 75
-230 84 -44 5 -50 9 -86 62 -59 87 -267 291 -358 350 -161 105 -359 185 -549
222 -97 19 -305 32 -376 23z m381 -148 c192 -44 390 -134 529 -241 59 -45 270
-259 270 -274 0 -5 -19 -11 -42 -15 -67 -11 -180 -70 -238 -125 l-53 -50 -76
21 c-96 27 -247 29 -341 4 -207 -54 -373 -202 -467 -416 -18 -41 -33 -83 -33
-92 0 -23 -1 -23 -60 7 -99 50 -193 69 -340 69 -88 0 -157 -6 -197 -16 l-62
-15 5 61 c3 34 7 67 10 74 4 15 141 16 280 2 55 -6 108 -12 119 -13 17 -2 21
6 26 48 3 28 2 53 -4 56 -15 11 -177 29 -253 29 -38 0 -86 3 -106 6 -45 8 -46
-4 19 194 96 294 248 543 383 630 142 91 386 113 631 56z m906 -713 c19 -43
46 -121 60 -173 22 -86 24 -109 20 -245 -4 -117 -11 -171 -30 -246 -47 -181
-118 -296 -366 -594 -247 -296 -320 -429 -359 -646 l-18 -102 -29 74 c-15 41
-43 110 -61 154 -17 44 -85 242 -149 440 -169 517 -206 609 -290 720 l-36 46
16 51 c33 111 86 200 169 284 89 89 167 134 264 155 81 16 211 6 306 -25 43
-14 82 -26 86 -26 3 0 38 27 76 61 90 78 144 110 224 131 36 9 69 17 73 17 5
1 24 -34 44 -76z m191 42 c66 -31 170 -133 205 -200 83 -165 96 -343 41 -582
-14 -65 -19 -73 -47 -84 -55 -22 -159 -88 -231 -147 -183 -150 -327 -354 -661
-937 -31 -55 -59 -102 -62 -105 -9 -9 8 92 27 165 44 166 104 259 384 591 248
295 331 475 358 776 9 97 9 150 -1 224 -11 92 -61 268 -82 289 -13 13 -11 35
4 35 6 0 36 -11 65 -25z m-1800 -580 c34 -8 98 -31 141 -51 l78 -35 6 -117 c7
-137 34 -254 111 -486 65 -195 136 -373 210 -529 30 -64 51 -117 47 -117 -11
0 -168 92 -281 165 -434 281 -634 578 -706 1050 -7 49 -10 93 -5 98 33 33 291
47 399 22z m-553 -297 c1 -204 3 -245 23 -331 88 -393 304 -734 580 -920 31
-22 59 -41 62 -44 3 -2 -45 -1 -105 2 -63 4 -182 2 -278 -5 l-168 -12 -55 33
c-257 156 -439 381 -506 626 -28 103 -30 288 -4 382 50 183 204 368 384 464
37 20 67 37 67 37 0 0 0 -105 0 -232z m958 -103 c48 -125 229 -676 224 -681
-6 -6 -159 381 -191 483 -14 46 -37 127 -51 182 -37 147 -34 150 18 16z m2248
70 c117 -22 229 -60 334 -113 117 -60 226 -165 276 -267 31 -63 34 -79 37
-175 5 -127 -10 -197 -68 -319 -93 -195 -298 -385 -550 -511 l-85 -43 -60 12
c-235 45 -549 63 -920 51 -236 -8 -468 -25 -487 -37 -5 -2 -8 -1 -8 4 1 4 27
26 58 48 31 22 120 103 197 180 365 364 579 677 737 1079 25 66 24 64 148 91
90 18 290 18 391 0z m-708 -162 c-93 -226 -268 -489 -500 -755 -88 -100 -253
-261 -261 -253 -2 2 68 125 155 275 220 379 387 596 552 721 35 27 65 49 67
49 2 0 -4 -17 -13 -37z m-2348 -55 c42 -128 169 -321 296 -447 168 -168 465
-369 711 -481 76 -35 79 -37 133 -123 56 -89 62 -103 46 -93 -14 9 -296 66
-324 66 -35 0 -180 74 -291 148 -239 161 -393 359 -507 652 -34 88 -89 285
-89 320 0 23 9 7 25 -42z m-37 -1187 c133 -68 508 -155 717 -168 263 -15 35
-21 -825 -21 -531 0 -883 4 -865 9 161 47 794 182 928 198 4 1 25 -8 45 -18z
m2562 -90 l75 -7 -80 -9 c-102 -13 -650 -12 -690 0 -25 8 -13 11 70 15 140 8
535 9 625 1z m513 -75 c23 -18 12 -24 -38 -21 -22 1 -65 3 -95 5 l-55 2 54 9
c30 5 57 12 60 14 9 10 57 4 74 -9z m-1951 -17 c-50 -6 -97 -5 -115 0 -24 7
-2 9 83 9 l115 -1 -83 -8z m1454 -69 l620 0 84 -67 c151 -122 274 -303 335
-493 36 -111 46 -283 21 -378 -68 -265 -383 -435 -776 -419 -141 6 -236 24
-342 65 l-73 27 -6 50 c-16 124 -77 301 -165 480 -120 245 -261 447 -444 638
l-105 110 115 -6 c63 -4 394 -7 736 -7z m-895 -233 c126 -151 216 -276 324
-447 92 -148 250 -438 242 -446 -11 -11 -253 240 -325 336 -112 150 -244 368
-352 582 -55 108 -100 201 -100 205 1 12 88 -84 211 -230z m-271 51 c139 -284
309 -561 450 -736 140 -174 259 -285 439 -411 23 -16 24 -22 22 -101 -3 -120
-26 -237 -67 -349 -47 -126 -107 -221 -191 -302 -111 -108 -214 -149 -372
-149 -222 0 -401 113 -562 351 -32 48 -63 90 -68 93 -5 4 -45 -5 -88 -20 -105
-35 -269 -44 -375 -20 -135 30 -267 127 -357 261 -51 77 -87 159 -97 223 -5
36 -4 38 43 67 96 60 252 193 427 365 257 252 415 432 671 763 32 42 62 77 65
77 3 0 30 -51 60 -112z m-1071 -814 c-27 -29 -146 -126 -169 -139 -25 -13 0
10 96 89 96 80 111 90 73 50z m-369 -274 c-40 -31 -168 -95 -248 -124 -162
-58 -349 -94 -385 -74 -19 10 -12 13 68 25 174 25 450 114 540 173 39 26 58
26 25 0z m-820 -70 c0 -5 -2 -10 -4 -10 -3 0 -8 5 -11 10 -3 6 -1 10 4 10 6 0
11 -4 11 -10z"/>
</g>
</svg>
