999
"DXF R12 Output" (www.mydxf.blogspot.com)
 0 
SECTION
 2 
HEADER
 9 
$ACADVER
 1 
AC1009
 9 
$EXTMIN
 10 
 0 
 20 
 0 
 9 
$EXTMAX
 10 
 8.5 
 20 
 11 
 0 
ENDSEC
 0 
SECTION
 2 
ENTITIES
0
LINE
8
Layer 1
10
12.165000
20
33.883400
11
10.849537
21
33.393122
0
LINE
8
Layer 1
10
10.849537
20
33.393122
11
9.594816
21
32.733014
0
LINE
8
Layer 1
10
9.594816
20
32.733014
11
8.615295
21
32.033239
0
LINE
8
Layer 1
10
8.615295
20
32.033239
11
8.125430
21
31.423960
0
LINE
8
Layer 1
10
8.125430
20
31.423960
11
8.154355
21
30.319856
0
LINE
8
Layer 1
10
8.154355
20
30.319856
11
8.634509
21
28.462050
0
LINE
8
Layer 1
10
8.634509
20
28.462050
11
9.092349
21
27.300921
0
LINE
8
Layer 1
10
9.092349
20
27.300921
11
9.520438
21
26.729860
0
LINE
8
Layer 1
10
9.520438
20
26.729860
11
9.872496
21
26.586062
0
LINE
8
Layer 1
10
9.872496
20
26.586062
11
10.234470
21
26.710026
0
LINE
8
Layer 1
10
10.234470
20
26.710026
11
10.655121
21
27.293484
0
LINE
8
Layer 1
10
10.655121
20
27.293484
11
11.080730
21
28.799236
0
LINE
8
Layer 1
10
11.080730
20
28.799236
11
11.384855
21
28.832293
0
LINE
8
Layer 1
10
11.384855
20
28.832293
11
11.669146
21
28.792624
0
LINE
8
Layer 1
10
11.669146
20
28.792624
11
11.649312
21
27.800912
0
LINE
8
Layer 1
10
11.649312
20
27.800912
11
11.707162
21
26.536480
0
LINE
8
Layer 1
10
11.707162
20
26.536480
11
12.072442
21
25.539812
0
LINE
8
Layer 1
10
12.072442
20
25.539812
11
12.587305
21
24.779500
0
LINE
8
Layer 1
10
12.587305
20
24.779500
11
13.216212
21
24.177862
0
LINE
8
Layer 1
10
13.216212
20
24.177862
11
13.343481
21
24.048940
0
LINE
8
Layer 1
10
13.343481
20
24.048940
11
13.302160
21
23.820846
0
LINE
8
Layer 1
10
13.302160
20
23.820846
11
13.036051
21
21.624204
0
LINE
8
Layer 1
10
13.036051
20
21.624204
11
13.156709
21
18.425936
0
LINE
8
Layer 1
10
13.156709
20
18.425936
11
13.315383
21
16.812756
0
LINE
8
Layer 1
10
13.315383
20
16.812756
11
13.306292
21
16.674743
0
LINE
8
Layer 1
10
13.306292
20
16.674743
11
13.103818
21
16.859036
0
LINE
8
Layer 1
10
13.103818
20
16.859036
11
12.660854
21
17.057378
0
LINE
8
Layer 1
10
12.660854
20
17.057378
11
12.309520
21
17.002524
0
LINE
8
Layer 1
10
12.309520
20
17.002524
11
12.116240
21
16.777220
0
LINE
8
Layer 1
10
12.116240
20
16.777220
11
12.072439
21
15.450808
0
LINE
8
Layer 1
10
12.072439
20
15.450808
11
12.125330
21
12.925248
0
LINE
8
Layer 1
10
12.125330
20
12.925248
11
12.055911
21
11.292232
0
LINE
8
Layer 1
10
12.055911
20
11.292232
11
11.669143
21
9.917058
0
LINE
8
Layer 1
10
11.669143
20
9.917058
11
11.457578
21
8.991461
0
LINE
8
Layer 1
10
11.457578
20
8.991461
11
11.450967
21
8.611305
0
LINE
8
Layer 1
10
11.450967
20
8.611305
11
11.563361
21
8.429491
0
LINE
8
Layer 1
10
11.563361
20
8.429491
11
11.898270
21
8.303358
0
LINE
8
Layer 1
10
11.898270
20
8.303358
11
12.338548
21
8.377427
0
LINE
8
Layer 1
10
12.338548
20
8.377427
11
13.302161
21
9.044352
0
LINE
8
Layer 1
10
13.302161
20
9.044352
11
13.777357
21
9.769954
0
LINE
8
Layer 1
10
13.777357
20
9.769954
11
14.088919
21
10.703812
0
LINE
8
Layer 1
10
14.088919
20
10.703812
11
14.129518
21
10.770856
0
LINE
8
Layer 1
10
14.129518
20
10.770856
11
14.106274
21
10.412084
0
LINE
8
Layer 1
10
14.106274
20
10.412084
11
13.950079
21
9.222852
0
LINE
8
Layer 1
10
13.950079
20
9.222852
11
13.775703
21
8.006355
0
LINE
8
Layer 1
10
13.775703
20
8.006355
11
13.844296
21
7.563392
0
LINE
8
Layer 1
10
13.844296
20
7.563392
11
14.254203
21
7.404718
0
LINE
8
Layer 1
10
14.254203
20
7.404718
11
14.839829
21
7.559157
0
LINE
8
Layer 1
10
14.839829
20
7.559157
11
15.413678
21
7.980738
0
LINE
8
Layer 1
10
15.413678
20
7.980738
11
15.911909
21
8.606859
0
LINE
8
Layer 1
10
15.911909
20
8.606859
11
16.270683
21
9.374918
0
LINE
8
Layer 1
10
16.270683
20
9.374918
11
16.607865
21
10.274070
0
LINE
8
Layer 1
10
16.607865
20
10.274070
11
17.016120
21
11.512057
0
LINE
8
Layer 1
10
17.016120
20
11.512057
11
17.394623
21
13.771510
0
LINE
8
Layer 1
10
17.394623
20
13.771510
11
17.553297
21
14.816110
0
LINE
8
Layer 1
10
17.553297
20
14.816110
11
17.751639
21
14.769830
0
LINE
8
Layer 1
10
17.751639
20
14.769830
11
19.283008
21
13.951670
0
LINE
8
Layer 1
10
19.283008
20
13.951670
11
20.799499
21
12.647570
0
LINE
8
Layer 1
10
20.799499
20
12.647570
11
21.321801
21
11.858335
0
LINE
8
Layer 1
10
21.321801
20
11.858335
11
21.340602
21
11.597907
0
LINE
8
Layer 1
10
21.340602
20
11.597907
11
21.209406
21
11.391400
0
LINE
8
Layer 1
10
21.209406
20
11.391400
11
20.396203
21
10.988104
0
LINE
8
Layer 1
10
20.396203
20
10.988104
11
19.425978
21
10.539355
0
LINE
8
Layer 1
10
19.425978
20
10.539355
11
18.783023
21
10.075729
0
LINE
8
Layer 1
10
18.783023
20
10.075729
11
18.409272
21
9.582146
0
LINE
8
Layer 1
10
18.409272
20
9.582146
11
18.351629
21
9.097239
0
LINE
8
Layer 1
10
18.351629
20
9.097239
11
18.598937
21
8.671835
0
LINE
8
Layer 1
10
18.598937
20
8.671835
11
19.140039
21
8.356759
0
LINE
8
Layer 1
10
19.140039
20
8.356759
11
20.449098
21
8.224944
0
LINE
8
Layer 1
10
20.449098
20
8.224944
11
22.640780
21
8.239407
0
LINE
8
Layer 1
10
22.640780
20
8.239407
11
24.956427
21
8.375354
0
LINE
8
Layer 1
10
24.956427
20
8.375354
11
26.637379
21
8.607993
0
LINE
8
Layer 1
10
26.637379
20
8.607993
11
27.596033
21
9.050957
0
LINE
8
Layer 1
10
27.596033
20
9.050957
11
27.748095
21
9.084015
0
LINE
8
Layer 1
10
27.748095
20
9.084015
11
28.052220
21
8.588159
0
LINE
8
Layer 1
10
28.052220
20
8.588159
11
28.600967
21
8.072469
0
LINE
8
Layer 1
10
28.600967
20
8.072469
11
29.103434
21
8.092303
0
LINE
8
Layer 1
10
29.103434
20
8.092303
11
29.395576
21
8.347359
0
LINE
8
Layer 1
10
29.395576
20
8.347359
11
29.615819
21
8.823690
0
LINE
8
Layer 1
10
29.615819
20
8.823690
11
29.890192
21
10.611253
0
LINE
8
Layer 1
10
29.890192
20
10.611253
11
29.824078
21
14.333473
0
LINE
8
Layer 1
10
29.824078
20
14.333473
11
29.805897
21
14.594623
0
LINE
8
Layer 1
10
29.805897
20
14.594623
11
29.976140
21
14.756603
0
LINE
8
Layer 1
10
29.976140
20
14.756603
11
31.190987
21
15.934259
0
LINE
8
Layer 1
10
31.190987
20
15.934259
11
31.577135
21
16.600255
0
LINE
8
Layer 1
10
31.577135
20
16.600255
11
31.800890
21
17.295383
0
LINE
8
Layer 1
10
31.800890
20
17.295383
11
31.830538
21
17.850535
0
LINE
8
Layer 1
10
31.830538
20
17.850535
11
31.715769
21
18.374695
0
LINE
8
Layer 1
10
31.715769
20
18.374695
11
31.478274
21
18.807122
0
LINE
8
Layer 1
10
31.478274
20
18.807122
11
31.139749
21
19.087073
0
LINE
8
Layer 1
10
31.139749
20
19.087073
11
30.691103
21
19.188826
0
LINE
8
Layer 1
10
30.691103
20
19.188826
11
30.133988
21
19.132526
0
LINE
8
Layer 1
10
30.133988
20
19.132526
11
28.845589
21
18.577994
0
LINE
8
Layer 1
10
28.845589
20
18.577994
11
28.442293
21
18.326760
0
LINE
8
Layer 1
10
28.442293
20
18.326760
11
28.158002
21
18.730056
0
LINE
8
Layer 1
10
28.158002
20
18.730056
11
27.228480
21
19.797384
0
LINE
8
Layer 1
10
27.228480
20
19.797384
11
25.819218
21
21.095286
0
LINE
8
Layer 1
10
25.819218
20
21.095286
11
22.399462
21
23.668776
0
LINE
8
Layer 1
10
22.399462
20
23.668776
11
21.639150
21
24.164632
0
LINE
8
Layer 1
10
21.639150
20
24.164632
11
21.268911
21
24.858830
0
LINE
8
Layer 1
10
21.268911
20
24.858830
11
20.491245
21
26.719943
0
LINE
8
Layer 1
10
20.491245
20
26.719943
11
20.125141
21
28.541390
0
LINE
8
Layer 1
10
20.125141
20
28.541390
11
20.085473
21
29.076914
0
LINE
8
Layer 1
10
20.085473
20
29.076914
11
20.270592
21
29.176085
0
LINE
8
Layer 1
10
20.270592
20
29.176085
11
20.930080
21
29.790119
0
LINE
8
Layer 1
10
20.930080
20
29.790119
11
21.718492
21
30.974385
0
LINE
8
Layer 1
10
21.718492
20
30.974385
11
22.320130
21
32.290055
0
LINE
8
Layer 1
10
22.320130
20
32.290055
11
22.361141
21
32.806881
0
LINE
8
Layer 1
10
22.361141
20
32.806881
11
22.127573
21
33.181769
0
LINE
8
Layer 1
10
22.127573
20
33.181769
11
21.575418
21
33.451287
0
LINE
8
Layer 1
10
21.575418
20
33.451287
11
20.660670
21
33.652005
0
LINE
8
Layer 1
10
20.660670
20
33.652005
11
18.999553
21
33.765225
0
LINE
8
Layer 1
10
18.999553
20
33.765225
11
17.626030
21
33.724730
0
LINE
8
Layer 1
10
17.626030
20
33.724730
11
16.812827
21
33.790844
0
LINE
8
Layer 1
10
16.812827
20
33.790844
11
15.433520
21
33.967700
0
LINE
8
Layer 1
10
15.433520
20
33.967700
11
14.188097
21
33.896628
0
LINE
8
Layer 1
10
14.188097
20
33.896628
11
13.612904
21
33.890016
0
LINE
8
Layer 1
10
13.612904
20
33.890016
11
12.958374
21
33.973485
0
LINE
8
Layer 1
10
12.958374
20
33.973485
11
12.165004
21
33.883405
0
LINE
8
Layer 1
10
12.165004
20
33.883405
11
12.165000
21
33.883400
0
LINE
8
Layer 1
10
15.900450
20
33.585887
11
16.740099
21
33.453659
0
LINE
8
Layer 1
10
16.740099
20
33.453659
11
16.936789
21
33.368537
0
LINE
8
Layer 1
10
16.936789
20
33.368537
11
16.885550
21
33.189203
0
LINE
8
Layer 1
10
16.885550
20
33.189203
11
16.786379
21
32.534673
0
LINE
8
Layer 1
10
16.786379
20
32.534673
11
16.680596
21
31.860309
0
LINE
8
Layer 1
10
16.680596
20
31.860309
11
16.613655
21
31.637174
0
LINE
8
Layer 1
10
16.613655
20
31.637174
11
16.700430
21
31.344619
0
LINE
8
Layer 1
10
16.700430
20
31.344619
11
17.116949
21
30.895043
0
LINE
8
Layer 1
10
17.116949
20
30.895043
11
17.632639
21
30.399187
0
LINE
8
Layer 1
10
17.632639
20
30.399187
11
18.451629
21
29.484333
0
LINE
8
Layer 1
10
18.451629
20
29.484333
11
19.225989
21
29.090127
0
LINE
8
Layer 1
10
19.225989
20
29.090127
11
19.383836
21
29.016575
0
LINE
8
Layer 1
10
19.383836
20
29.016575
11
19.239212
21
28.700054
0
LINE
8
Layer 1
10
19.239212
20
28.700054
11
18.854924
21
27.868670
0
LINE
8
Layer 1
10
18.854924
20
27.868670
11
18.505345
21
26.650514
0
LINE
8
Layer 1
10
18.505345
20
26.650514
11
18.154940
21
25.480294
0
LINE
8
Layer 1
10
18.154940
20
25.480294
11
17.945854
21
25.154682
0
LINE
8
Layer 1
10
17.945854
20
25.154682
11
17.513633
21
24.898490
0
LINE
8
Layer 1
10
17.513633
20
24.898490
11
16.667371
21
24.600977
0
LINE
8
Layer 1
10
16.667371
20
24.600977
11
15.602933
21
24.521640
0
LINE
8
Layer 1
10
15.602933
20
24.521640
11
14.557709
21
24.600047
0
LINE
8
Layer 1
10
14.557709
20
24.600047
11
13.627773
21
24.826591
0
LINE
8
Layer 1
10
13.627773
20
24.826591
11
12.893699
21
25.173379
0
LINE
8
Layer 1
10
12.893699
20
25.173379
11
12.436063
21
25.612520
0
LINE
8
Layer 1
10
12.436063
20
25.612520
11
12.051775
21
26.643074
0
LINE
8
Layer 1
10
12.051775
20
26.643074
11
11.999710
21
28.105020
0
LINE
8
Layer 1
10
11.999710
20
28.105020
11
12.045990
21
28.951280
0
LINE
8
Layer 1
10
12.045990
20
28.951280
11
12.356726
21
29.129788
0
LINE
8
Layer 1
10
12.356726
20
29.129788
11
13.262489
21
29.909934
0
LINE
8
Layer 1
10
13.262489
20
29.909934
11
14.118664
21
31.004121
0
LINE
8
Layer 1
10
14.118664
20
31.004121
11
14.399649
21
32.118144
0
LINE
8
Layer 1
10
14.399649
20
32.118144
11
14.287255
21
33.103244
0
LINE
8
Layer 1
10
14.287255
20
33.103244
11
14.148415
21
33.546208
0
LINE
8
Layer 1
10
14.148415
20
33.546208
11
15.900435
21
33.585876
0
LINE
8
Layer 1
10
15.900435
20
33.585876
11
15.900450
21
33.585887
0
LINE
8
Layer 1
10
12.065830
20
33.400768
11
9.958442
21
32.281787
0
LINE
8
Layer 1
10
9.958442
20
32.281787
11
9.209700
21
31.747709
0
LINE
8
Layer 1
10
9.209700
20
31.747709
11
8.852680
21
31.351228
0
LINE
8
Layer 1
10
8.852680
20
31.351228
11
8.841936
21
30.883471
0
LINE
8
Layer 1
10
8.841936
20
30.883471
11
9.163416
21
30.266958
0
LINE
8
Layer 1
10
9.163416
20
30.266958
11
9.709683
21
29.630610
0
LINE
8
Layer 1
10
9.709683
20
29.630610
11
10.399746
21
29.123188
0
LINE
8
Layer 1
10
10.399746
20
29.123188
11
10.723705
21
28.938069
0
LINE
8
Layer 1
10
10.723705
20
28.938069
11
10.677425
21
28.633944
0
LINE
8
Layer 1
10
10.677425
20
28.633944
11
10.437762
21
27.745534
0
LINE
8
Layer 1
10
10.437762
20
27.745534
11
10.108844
21
27.080264
0
LINE
8
Layer 1
10
10.108844
20
27.080264
11
9.932815
21
26.921590
0
LINE
8
Layer 1
10
9.932815
20
26.921590
11
9.751828
21
27.000927
0
LINE
8
Layer 1
10
9.751828
20
27.000927
11
9.395535
21
27.523434
0
LINE
8
Layer 1
10
9.395535
20
27.523434
11
8.993996
21
28.513286
0
LINE
8
Layer 1
10
8.993996
20
28.513286
11
8.429548
21
30.809097
0
LINE
8
Layer 1
10
8.429548
20
30.809097
11
8.521281
21
31.410735
0
LINE
8
Layer 1
10
8.521281
20
31.410735
11
9.084078
21
31.972707
0
LINE
8
Layer 1
10
9.084078
20
31.972707
11
10.861722
21
32.976816
0
LINE
8
Layer 1
10
10.861722
20
32.976816
11
12.396398
21
33.579277
0
LINE
8
Layer 1
10
12.396398
20
33.579277
11
12.065827
21
33.400769
0
LINE
8
Layer 1
10
12.065827
20
33.400769
11
12.065830
21
33.400768
0
LINE
8
Layer 1
10
20.607770
20
33.294985
11
21.850720
21
32.911523
0
LINE
8
Layer 1
10
21.850720
20
32.911523
11
21.995345
21
32.752849
0
LINE
8
Layer 1
10
21.995345
20
32.752849
11
21.996171
21
32.514838
0
LINE
8
Layer 1
10
21.996171
20
32.514838
11
21.546596
21
31.400815
0
LINE
8
Layer 1
10
21.546596
20
31.400815
11
20.660671
21
30.048778
0
LINE
8
Layer 1
10
20.660671
20
30.048778
11
20.409438
21
29.756223
0
LINE
8
Layer 1
10
20.409438
20
29.756223
11
20.396215
21
29.850436
0
LINE
8
Layer 1
10
20.396215
20
29.850436
11
20.475552
21
30.491743
0
LINE
8
Layer 1
10
20.475552
20
30.491743
11
20.473899
21
30.915700
0
LINE
8
Layer 1
10
20.473899
20
30.915700
11
20.323490
21
31.285112
0
LINE
8
Layer 1
10
20.323490
20
31.285112
11
19.664001
21
32.092529
0
LINE
8
Layer 1
10
19.664001
20
32.092529
11
18.657410
21
32.904912
0
LINE
8
Layer 1
10
18.657410
20
32.904912
11
17.943378
21
33.374322
0
LINE
8
Layer 1
10
17.943378
20
33.374322
11
18.182111
21
33.431655
0
LINE
8
Layer 1
10
18.182111
20
33.431655
11
18.935915
21
33.431345
0
LINE
8
Layer 1
10
18.935915
20
33.431345
11
20.607778
21
33.294985
0
LINE
8
Layer 1
10
20.607778
20
33.294985
11
20.607770
21
33.294985
0
LINE
8
Layer 1
10
12.541850
20
32.964414
11
11.874098
21
32.171045
0
LINE
8
Layer 1
10
11.874098
20
32.171045
11
11.366672
21
31.166936
0
LINE
8
Layer 1
10
11.366672
20
31.166936
11
10.968335
21
29.969445
0
LINE
8
Layer 1
10
10.968335
20
29.969445
11
10.756770
21
29.354584
0
LINE
8
Layer 1
10
10.756770
20
29.354584
11
9.738610
21
30.108285
0
LINE
8
Layer 1
10
9.738610
20
30.108285
11
9.275811
21
30.789260
0
LINE
8
Layer 1
10
9.275811
20
30.789260
11
9.175297
21
31.060741
0
LINE
8
Layer 1
10
9.175297
20
31.060741
11
9.220440
21
31.270240
0
LINE
8
Layer 1
10
9.220440
20
31.270240
11
9.983232
21
31.860310
0
LINE
8
Layer 1
10
9.983232
20
31.860310
11
11.642694
21
32.806567
0
LINE
8
Layer 1
10
11.642694
20
32.806567
11
12.945142
21
33.380930
0
LINE
8
Layer 1
10
12.945142
20
33.380930
11
12.541846
21
32.964411
0
LINE
8
Layer 1
10
12.541846
20
32.964411
11
12.541850
21
32.964414
0
LINE
8
Layer 1
10
13.910410
20
33.083419
11
14.063299
21
32.373519
0
LINE
8
Layer 1
10
14.063299
20
32.373519
11
14.042638
21
31.866919
0
LINE
8
Layer 1
10
14.042638
20
31.866919
11
13.857519
21
31.966090
0
LINE
8
Layer 1
10
13.857519
20
31.966090
11
13.502156
21
32.061129
0
LINE
8
Layer 1
10
13.502156
20
32.061129
11
13.136875
21
31.933033
0
LINE
8
Layer 1
10
13.136875
20
31.933033
11
12.627796
21
30.974379
0
LINE
8
Layer 1
10
12.627796
20
30.974379
11
12.733579
21
30.683477
0
LINE
8
Layer 1
10
12.733579
20
30.683477
11
13.097207
21
30.557860
0
LINE
8
Layer 1
10
13.097207
20
30.557860
11
13.355052
21
30.544637
0
LINE
8
Layer 1
10
13.355052
20
30.544637
11
12.151772
21
29.433917
0
LINE
8
Layer 1
10
12.151772
20
29.433917
11
11.556745
21
29.156238
0
LINE
8
Layer 1
10
11.556745
20
29.156238
11
11.313776
21
29.175866
0
LINE
8
Layer 1
10
11.313776
20
29.175866
11
11.209646
21
29.283508
0
LINE
8
Layer 1
10
11.209646
20
29.283508
11
11.358403
21
30.055390
0
LINE
8
Layer 1
10
11.358403
20
30.055390
11
11.837730
21
31.348747
0
LINE
8
Layer 1
10
11.837730
20
31.348747
11
12.475733
21
32.369380
0
LINE
8
Layer 1
10
12.475733
20
32.369380
11
13.183155
21
33.049528
0
LINE
8
Layer 1
10
13.183155
20
33.049528
11
13.712063
21
33.367703
0
LINE
8
Layer 1
10
13.712063
20
33.367703
11
13.910405
21
33.083412
0
LINE
8
Layer 1
10
13.910405
20
33.083412
11
13.910410
21
33.083419
0
LINE
8
Layer 1
10
18.016100
20
32.898300
11
19.459040
21
31.788407
0
LINE
8
Layer 1
10
19.459040
20
31.788407
11
19.920185
21
31.238729
0
LINE
8
Layer 1
10
19.920185
20
31.238729
11
20.138360
21
30.762810
0
LINE
8
Layer 1
10
20.138360
20
30.762810
11
19.860681
21
29.341360
0
LINE
8
Layer 1
10
19.860681
20
29.341360
11
18.822691
21
29.645485
0
LINE
8
Layer 1
10
18.822691
20
29.645485
11
17.963208
21
30.557860
0
LINE
8
Layer 1
10
17.963208
20
30.557860
11
17.892961
21
30.714055
0
LINE
8
Layer 1
10
17.892961
20
30.714055
11
18.035933
21
30.756202
0
LINE
8
Layer 1
10
18.035933
20
30.756202
11
18.241817
21
30.935743
0
LINE
8
Layer 1
10
18.241817
20
30.935743
11
18.160724
21
31.295032
0
LINE
8
Layer 1
10
18.160724
20
31.295032
11
17.860215
21
31.698948
0
LINE
8
Layer 1
10
17.860215
20
31.698948
11
17.407849
21
32.012372
0
LINE
8
Layer 1
10
17.407849
20
32.012372
11
17.159095
21
32.166087
0
LINE
8
Layer 1
10
17.159095
20
32.166087
11
17.123558
21
32.488394
0
LINE
8
Layer 1
10
17.123558
20
32.488394
11
17.190499
21
33.018133
0
LINE
8
Layer 1
10
17.190499
20
33.018133
11
17.341735
21
33.255318
0
LINE
8
Layer 1
10
17.341735
20
33.255318
11
18.016099
21
32.898302
0
LINE
8
Layer 1
10
18.016099
20
32.898302
11
18.016100
21
32.898300
0
LINE
8
Layer 1
10
17.850815
20
31.126440
11
17.764867
21
31.073549
0
LINE
8
Layer 1
10
17.764867
20
31.073549
11
17.454131
21
31.582628
0
LINE
8
Layer 1
10
17.454131
20
31.582628
11
17.850816
21
31.126441
0
LINE
8
Layer 1
10
17.850816
20
31.126441
11
17.850815
21
31.126440
0
LINE
8
Layer 1
10
13.665795
20
31.390896
11
13.626126
21
31.430564
0
LINE
8
Layer 1
10
13.626126
20
31.430564
11
13.659184
21
31.516513
0
LINE
8
Layer 1
10
13.659184
20
31.516513
11
13.665795
21
31.390896
0
LINE
8
Layer 1
10
13.665795
20
31.390896
11
13.665795
21
31.390896
0
LINE
8
Layer 1
10
13.202996
20
31.179331
11
13.050934
21
30.921486
0
LINE
8
Layer 1
10
13.050934
20
30.921486
11
13.090602
21
31.212388
0
LINE
8
Layer 1
10
13.090602
20
31.212388
11
13.249276
21
31.470233
0
LINE
8
Layer 1
10
13.249276
20
31.470233
11
13.202997
21
31.179331
0
LINE
8
Layer 1
10
13.202997
20
31.179331
11
13.202996
21
31.179331
0
LINE
8
Layer 1
10
19.873906
20
27.800901
11
20.235054
21
26.376968
0
LINE
8
Layer 1
10
20.235054
20
26.376968
11
20.819338
21
24.938161
0
LINE
8
Layer 1
10
20.819338
20
24.938161
11
21.149908
21
24.277020
0
LINE
8
Layer 1
10
21.149908
20
24.277020
11
20.277202
21
23.781164
0
LINE
8
Layer 1
10
20.277202
20
23.781164
11
18.095432
21
22.716724
0
LINE
8
Layer 1
10
18.095432
20
22.716724
11
16.704558
21
22.286156
0
LINE
8
Layer 1
10
16.704558
20
22.286156
11
14.941792
21
21.949800
0
LINE
8
Layer 1
10
14.941792
20
21.949800
11
13.493892
21
21.725012
0
LINE
8
Layer 1
10
13.493892
20
21.725012
11
13.365796
21
21.759722
0
LINE
8
Layer 1
10
13.365796
20
21.759722
11
13.381498
21
22.141531
0
LINE
8
Layer 1
10
13.381498
20
22.141531
11
13.679011
21
23.787771
0
LINE
8
Layer 1
10
13.679011
20
23.787771
11
14.121975
21
23.767937
0
LINE
8
Layer 1
10
14.121975
20
23.767937
11
15.700447
21
23.658849
0
LINE
8
Layer 1
10
15.700447
20
23.658849
11
17.249175
21
24.105119
0
LINE
8
Layer 1
10
17.249175
20
24.105119
11
17.830050
21
24.460172
0
LINE
8
Layer 1
10
17.830050
20
24.460172
11
18.241715
21
24.912537
0
LINE
8
Layer 1
10
18.241715
20
24.912537
11
18.842525
21
26.538119
0
LINE
8
Layer 1
10
18.842525
20
26.538119
11
19.222681
21
27.836433
0
LINE
8
Layer 1
10
19.222681
20
27.836433
11
19.583003
21
28.574429
0
LINE
8
Layer 1
10
19.583003
20
28.574429
11
19.718537
21
28.744673
0
LINE
8
Layer 1
10
19.718537
20
28.744673
11
19.754900
21
28.627320
0
LINE
8
Layer 1
10
19.754900
20
28.627320
11
19.873905
21
27.800894
0
LINE
8
Layer 1
10
19.873905
20
27.800894
11
19.873906
21
27.800901
0
LINE
8
Layer 1
10
14.148426
20
24.316691
11
15.550046
21
24.177851
0
LINE
8
Layer 1
10
15.550046
20
24.177851
11
16.462421
21
24.158017
0
LINE
8
Layer 1
10
16.462421
20
24.158017
11
16.019457
21
24.065457
0
LINE
8
Layer 1
10
16.019457
20
24.065457
11
14.972376
21
23.993558
0
LINE
8
Layer 1
10
14.972376
20
23.993558
11
14.108757
21
24.124960
0
LINE
8
Layer 1
10
14.108757
20
24.124960
11
13.530259
21
24.394375
0
LINE
8
Layer 1
10
13.530259
20
24.394375
11
13.398444
21
24.491273
0
LINE
8
Layer 1
10
13.398444
20
24.491273
11
13.487284
21
24.495199
0
LINE
8
Layer 1
10
13.487284
20
24.495199
11
14.148425
21
24.316691
0
LINE
8
Layer 1
10
14.148425
20
24.316691
11
14.148426
21
24.316691
0
LINE
8
Layer 1
10
22.346576
20
23.285311
11
25.440715
21
20.962227
0
LINE
8
Layer 1
10
25.440715
20
20.962227
11
27.642316
21
18.782941
0
LINE
8
Layer 1
10
27.642316
20
18.782941
11
28.164617
21
18.161468
0
LINE
8
Layer 1
10
28.164617
20
18.161468
11
27.734875
21
17.731726
0
LINE
8
Layer 1
10
27.734875
20
17.731726
11
27.115882
21
17.023376
0
LINE
8
Layer 1
10
27.115882
20
17.023376
11
26.695230
21
16.299530
0
LINE
8
Layer 1
10
26.695230
20
16.299530
11
26.455566
21
15.519900
0
LINE
8
Layer 1
10
26.455566
20
15.519900
11
26.379535
21
14.644196
0
LINE
8
Layer 1
10
26.379535
20
14.644196
11
26.689445
21
12.187232
0
LINE
8
Layer 1
10
26.689445
20
12.187232
11
27.410915
21
9.804646
0
LINE
8
Layer 1
10
27.410915
20
9.804646
11
27.562977
21
9.454241
0
LINE
8
Layer 1
10
27.562977
20
9.454241
11
27.371246
21
9.322013
0
LINE
8
Layer 1
10
27.371246
20
9.322013
11
26.755558
21
9.020367
0
LINE
8
Layer 1
10
26.755558
20
9.020367
11
25.817566
21
8.832769
0
LINE
8
Layer 1
10
25.817566
20
8.832769
11
22.139141
21
8.577403
0
LINE
8
Layer 1
10
22.139141
20
8.577403
11
19.516896
21
8.654261
0
LINE
8
Layer 1
10
19.516896
20
8.654261
11
19.249960
21
8.870475
0
LINE
8
Layer 1
10
19.249960
20
8.870475
11
19.171450
21
9.179042
0
LINE
8
Layer 1
10
19.171450
20
9.179042
11
19.278885
21
9.530996
0
LINE
8
Layer 1
10
19.278885
20
9.530996
11
19.569787
21
9.877371
0
LINE
8
Layer 1
10
19.569787
20
9.877371
11
20.223491
21
10.174884
0
LINE
8
Layer 1
10
20.223491
20
10.174884
11
21.249087
21
10.234387
0
LINE
8
Layer 1
10
21.249087
20
10.234387
11
22.592031
21
10.031913
0
LINE
8
Layer 1
10
22.592031
20
10.031913
11
24.554797
21
9.427795
0
LINE
8
Layer 1
10
24.554797
20
9.427795
11
25.698567
21
9.136893
0
LINE
8
Layer 1
10
25.698567
20
9.136893
11
25.784516
21
9.262510
0
LINE
8
Layer 1
10
25.784516
20
9.262510
11
23.793654
21
11.303783
0
LINE
8
Layer 1
10
23.793654
20
11.303783
11
20.667286
21
14.009500
0
LINE
8
Layer 1
10
20.667286
20
14.009500
11
18.736756
21
15.252450
0
LINE
8
Layer 1
10
18.736756
20
15.252450
11
17.976444
21
15.391290
0
LINE
8
Layer 1
10
17.976444
20
15.391290
11
17.580482
21
15.328378
0
LINE
8
Layer 1
10
17.580482
20
15.328378
11
17.342575
21
15.116091
0
LINE
8
Layer 1
10
17.342575
20
15.116091
11
17.031012
21
13.685550
0
LINE
8
Layer 1
10
17.031012
20
13.685550
11
16.833496
21
12.626901
0
LINE
8
Layer 1
10
16.833496
20
12.626901
11
16.799613
21
13.784721
0
LINE
8
Layer 1
10
16.799613
20
13.784721
11
16.661600
21
16.335070
0
LINE
8
Layer 1
10
16.661600
20
16.335070
11
16.476997
21
17.023899
0
LINE
8
Layer 1
10
16.476997
20
17.023899
11
16.191363
21
17.467281
0
LINE
8
Layer 1
10
16.191363
20
17.467281
11
15.753667
21
17.715416
0
LINE
8
Layer 1
10
15.753667
20
17.715416
11
15.322790
21
17.587940
0
LINE
8
Layer 1
10
15.322790
20
17.587940
11
14.942736
21
17.115845
0
LINE
8
Layer 1
10
14.942736
20
17.115845
11
14.657513
21
16.330121
0
LINE
8
Layer 1
10
14.657513
20
16.330121
11
14.307108
21
13.672331
0
LINE
8
Layer 1
10
14.307108
20
13.672331
11
14.221159
21
12.892185
0
LINE
8
Layer 1
10
14.221159
20
12.892185
11
14.095542
21
13.764891
0
LINE
8
Layer 1
10
14.095542
20
13.764891
11
13.883977
21
15.397911
0
LINE
8
Layer 1
10
13.883977
20
15.397911
11
13.374898
21
20.244071
0
LINE
8
Layer 1
10
13.374898
20
20.244071
11
13.322007
21
21.275451
0
LINE
8
Layer 1
10
13.322007
20
21.275451
11
14.247604
21
21.242394
0
LINE
8
Layer 1
10
14.247604
20
21.242394
11
16.011199
21
21.316772
0
LINE
8
Layer 1
10
16.011199
20
21.316772
11
17.705374
21
21.718416
0
LINE
8
Layer 1
10
17.705374
20
21.718416
11
19.802843
21
22.605998
0
LINE
8
Layer 1
10
19.802843
20
22.605998
11
21.216034
21
23.562996
0
LINE
8
Layer 1
10
21.216034
20
23.562996
11
21.520159
21
23.801007
0
LINE
8
Layer 1
10
21.520159
20
23.801007
11
22.346585
21
23.285317
0
LINE
8
Layer 1
10
22.346585
20
23.285317
11
22.346576
21
23.285311
0
LINE
8
Layer 1
10
20.693726
20
23.576213
11
19.060706
21
22.630781
0
LINE
8
Layer 1
10
19.060706
20
22.630781
11
17.306204
21
21.971293
0
LINE
8
Layer 1
10
17.306204
20
21.971293
11
15.437656
21
21.599401
0
LINE
8
Layer 1
10
15.437656
20
21.599401
11
15.234768
21
21.585145
0
LINE
8
Layer 1
10
15.234768
20
21.585145
11
15.336832
21
21.629152
0
LINE
8
Layer 1
10
15.336832
20
21.629152
11
16.197968
21
21.817578
0
LINE
8
Layer 1
10
16.197968
20
21.817578
11
18.242547
21
22.402688
0
LINE
8
Layer 1
10
18.242547
20
22.402688
11
20.197868
21
23.324978
0
LINE
8
Layer 1
10
20.197868
20
23.324978
11
20.693724
21
23.576212
0
LINE
8
Layer 1
10
20.693724
20
23.576212
11
20.693726
21
23.576213
0
LINE
8
Layer 1
10
31.000926
20
18.743273
11
31.357942
21
18.311878
0
LINE
8
Layer 1
10
31.357942
20
18.311878
11
31.457113
21
17.592883
0
LINE
8
Layer 1
10
31.457113
20
17.592883
11
31.162079
21
16.574725
0
LINE
8
Layer 1
10
31.162079
20
16.574725
11
30.366233
21
15.556573
0
LINE
8
Layer 1
10
30.366233
20
15.556573
11
29.751372
21
15.007826
0
LINE
8
Layer 1
10
29.751372
20
15.007826
11
29.652201
21
15.292117
0
LINE
8
Layer 1
10
29.652201
20
15.292117
11
28.924946
21
17.434217
0
LINE
8
Layer 1
10
28.924946
20
17.434217
11
28.640655
21
18.042467
0
LINE
8
Layer 1
10
28.640655
20
18.042467
11
28.845609
21
18.174695
0
LINE
8
Layer 1
10
28.845609
20
18.174695
11
29.612533
21
18.571380
0
LINE
8
Layer 1
10
29.612533
20
18.571380
11
30.408381
21
18.835836
0
LINE
8
Layer 1
10
30.408381
20
18.835836
11
31.000933
21
18.743277
0
LINE
8
Layer 1
10
31.000933
20
18.743277
11
31.000926
21
18.743273
0
LINE
8
Layer 1
10
28.620816
20
17.242483
11
29.334848
21
15.047493
0
LINE
8
Layer 1
10
29.334848
20
15.047493
11
29.308402
21
14.769814
0
LINE
8
Layer 1
10
29.308402
20
14.769814
11
29.103449
21
15.186333
0
LINE
8
Layer 1
10
29.103449
20
15.186333
11
28.614205
21
16.083831
0
LINE
8
Layer 1
10
28.614205
20
16.083831
11
28.005959
21
16.475553
0
LINE
8
Layer 1
10
28.005959
20
16.475553
11
27.581176
21
16.441669
0
LINE
8
Layer 1
10
27.581176
20
16.441669
11
27.245647
21
16.224319
0
LINE
8
Layer 1
10
27.245647
20
16.224319
11
26.769625
21
15.007819
0
LINE
8
Layer 1
10
26.769625
20
15.007819
11
26.727477
21
14.812782
0
LINE
8
Layer 1
10
26.727477
20
14.812782
11
26.749791
21
15.093767
0
LINE
8
Layer 1
10
26.749791
20
15.093767
11
27.077882
21
16.260681
0
LINE
8
Layer 1
10
27.077882
20
16.260681
11
27.867121
21
17.368097
0
LINE
8
Layer 1
10
27.867121
20
17.368097
11
28.316697
21
17.784616
0
LINE
8
Layer 1
10
28.316697
20
17.784616
11
28.620822
21
17.242480
0
LINE
8
Layer 1
10
28.620822
20
17.242480
11
28.620816
21
17.242483
0
LINE
8
Layer 1
10
16.085616
20
17.004472
11
16.310404
21
16.290440
0
LINE
8
Layer 1
10
16.310404
20
16.290440
11
16.431889
21
13.752484
0
LINE
8
Layer 1
10
16.431889
20
13.752484
11
16.310404
21
10.882310
0
LINE
8
Layer 1
10
16.310404
20
10.882310
11
16.174044
21
10.105469
0
LINE
8
Layer 1
10
16.174044
20
10.105469
11
15.953388
21
9.725310
0
LINE
8
Layer 1
10
15.953388
20
9.725310
11
14.108808
21
7.887340
0
LINE
8
Layer 1
10
14.108808
20
7.887340
11
14.287316
21
9.156730
0
LINE
8
Layer 1
10
14.287316
20
9.156730
11
14.545161
21
11.867410
0
LINE
8
Layer 1
10
14.545161
20
11.867410
11
14.849286
21
15.470630
0
LINE
8
Layer 1
10
14.849286
20
15.470630
11
15.087090
21
16.525667
0
LINE
8
Layer 1
10
15.087090
20
16.525667
11
15.393074
21
17.157366
0
LINE
8
Layer 1
10
15.393074
20
17.157366
11
15.736246
21
17.329160
0
LINE
8
Layer 1
10
15.736246
20
17.329160
11
16.085616
21
17.004480
0
LINE
8
Layer 1
10
16.085616
20
17.004480
11
16.085616
21
17.004472
0
LINE
8
Layer 1
10
12.898916
20
16.587953
11
13.332790
21
15.597067
0
LINE
8
Layer 1
10
13.332790
20
15.597067
11
13.692285
21
13.559923
0
LINE
8
Layer 1
10
13.692285
20
13.559923
11
13.778233
21
10.836023
0
LINE
8
Layer 1
10
13.778233
20
10.836023
11
12.819579
21
9.705473
0
LINE
8
Layer 1
10
12.819579
20
9.705473
11
11.834479
21
8.793098
0
LINE
8
Layer 1
10
11.834479
20
8.793098
11
11.791505
21
9.031108
0
LINE
8
Layer 1
10
11.791505
20
9.031108
11
12.065878
21
9.983148
0
LINE
8
Layer 1
10
12.065878
20
9.983148
11
12.484876
21
11.944259
0
LINE
8
Layer 1
10
12.484876
20
11.944259
11
12.502231
21
14.049168
0
LINE
8
Layer 1
10
12.502231
20
14.049168
11
12.429506
21
16.627618
0
LINE
8
Layer 1
10
12.429506
20
16.627618
11
12.644377
21
16.721831
0
LINE
8
Layer 1
10
12.644377
20
16.721831
11
12.898916
21
16.587949
0
LINE
8
Layer 1
10
12.898916
20
16.587949
11
12.898916
21
16.587953
0
LINE
8
Layer 1
10
28.310116
20
15.880532
11
28.693578
21
15.242530
0
LINE
8
Layer 1
10
28.693578
20
15.242530
11
28.958034
21
14.445852
0
LINE
8
Layer 1
10
28.958034
20
14.445852
11
28.957208
21
12.849198
0
LINE
8
Layer 1
10
28.957208
20
12.849198
11
28.515070
21
11.074032
0
LINE
8
Layer 1
10
28.515070
20
11.074032
11
27.834095
21
9.784812
0
LINE
8
Layer 1
10
27.834095
20
9.784812
11
27.199400
21
11.602952
0
LINE
8
Layer 1
10
27.199400
20
11.602952
11
26.985356
21
13.245062
0
LINE
8
Layer 1
10
26.985356
20
13.245062
11
27.093617
21
14.822712
0
LINE
8
Layer 1
10
27.093617
20
14.822712
11
27.468815
21
15.878883
0
LINE
8
Layer 1
10
27.468815
20
15.878883
11
27.707239
21
16.116893
0
LINE
8
Layer 1
10
27.707239
20
16.116893
11
27.972935
21
16.151602
0
LINE
8
Layer 1
10
27.972935
20
16.151602
11
28.310117
21
15.880534
0
LINE
8
Layer 1
10
28.310117
20
15.880534
11
28.310116
21
15.880532
0
LINE
8
Layer 1
10
18.558286
20
14.941712
11
19.969823
21
14.062395
0
LINE
8
Layer 1
10
19.969823
20
14.062395
11
21.817716
21
12.607882
0
LINE
8
Layer 1
10
21.817716
20
12.607882
11
24.977966
21
9.685642
0
LINE
8
Layer 1
10
24.977966
20
9.685642
11
23.973036
21
9.996378
0
LINE
8
Layer 1
10
23.973036
20
9.996378
11
22.442495
21
10.426946
0
LINE
8
Layer 1
10
22.442495
20
10.426946
11
21.169796
21
10.624462
0
LINE
8
Layer 1
10
21.169796
20
10.624462
11
20.614438
21
10.664130
0
LINE
8
Layer 1
10
20.614438
20
10.664130
11
21.110294
21
10.921975
0
LINE
8
Layer 1
10
21.110294
20
10.921975
11
21.716064
21
11.430228
0
LINE
8
Layer 1
10
21.716064
20
11.430228
11
21.736002
21
11.733630
0
LINE
8
Layer 1
10
21.736002
20
11.733630
11
21.592927
21
12.131865
0
LINE
8
Layer 1
10
21.592927
20
12.131865
11
21.123310
21
12.821829
0
LINE
8
Layer 1
10
21.123310
20
12.821829
11
20.384690
21
13.565716
0
LINE
8
Layer 1
10
20.384690
20
13.565716
11
19.489877
21
14.263736
0
LINE
8
Layer 1
10
19.489877
20
14.263736
11
18.551677
21
14.816095
0
LINE
8
Layer 1
10
18.551677
20
14.816095
11
18.160777
21
15.067329
0
LINE
8
Layer 1
10
18.160777
20
15.067329
11
18.558288
21
14.941712
0
LINE
8
Layer 1
10
18.558288
20
14.941712
11
18.558286
21
14.941712
0
LINE
8
Layer 1
10
29.572886
20
12.164922
11
29.462971
21
9.839357
0
LINE
8
Layer 1
10
29.462971
20
9.839357
11
29.110087
21
8.555092
0
LINE
8
Layer 1
10
29.110087
20
8.555092
11
28.793566
21
8.392286
0
LINE
8
Layer 1
10
28.793566
20
8.392286
11
28.422500
21
8.680709
0
LINE
8
Layer 1
10
28.422500
20
8.680709
11
28.111764
21
9.169953
0
LINE
8
Layer 1
10
28.111764
20
9.169953
11
28.065484
21
9.412096
0
LINE
8
Layer 1
10
28.065484
20
9.412096
11
28.316718
21
9.857540
0
LINE
8
Layer 1
10
28.316718
20
9.857540
11
28.763401
21
10.702250
0
LINE
8
Layer 1
10
28.763401
20
10.702250
11
29.088600
21
11.646752
0
LINE
8
Layer 1
10
29.088600
20
11.646752
11
29.354708
21
13.758270
0
LINE
8
Layer 1
10
29.354708
20
13.758270
11
29.407599
21
14.373131
0
LINE
8
Layer 1
10
29.407599
20
14.373131
11
29.517514
21
13.844218
0
LINE
8
Layer 1
10
29.517514
20
13.844218
11
29.572884
21
12.164921
0
LINE
8
Layer 1
10
29.572884
20
12.164921
11
29.572886
21
12.164922
0
LINE
8
Layer 1
10
18.974786
20
9.639362
11
18.842558
21
9.156729
0
LINE
8
Layer 1
10
18.842558
20
9.156729
11
18.776444
21
8.991444
0
LINE
8
Layer 1
10
18.776444
20
8.991444
11
18.720247
21
9.308792
0
LINE
8
Layer 1
10
18.720247
20
9.308792
11
18.882227
21
9.645974
0
LINE
8
Layer 1
10
18.882227
20
9.645974
11
19.072305
21
9.841010
0
LINE
8
Layer 1
10
19.072305
20
9.841010
11
18.974787
21
9.639363
0
LINE
8
Layer 1
10
18.974787
20
9.639363
11
18.974786
21
9.639362
0
LINE
8
Layer 1
10
13.222856
20
9.460854
11
12.555104
21
8.859216
0
LINE
8
Layer 1
10
12.555104
20
8.859216
11
13.275748
21
9.586471
0
LINE
8
Layer 1
10
13.275748
20
9.586471
11
13.222857
21
9.460854
0
LINE
8
Layer 1
10
13.222857
20
9.460854
11
13.222856
21
9.460854
0
LINE
8
Layer 1
10
15.272396
20
8.356744
11
14.842654
21
7.993116
0
LINE
8
Layer 1
10
14.842654
20
7.993116
11
15.093888
21
8.290629
0
LINE
8
Layer 1
10
15.093888
20
8.290629
11
15.510407
21
8.650951
0
LINE
8
Layer 1
10
15.510407
20
8.650951
11
15.272396
21
8.356743
0
LINE
8
Layer 1
10
15.272396
20
8.356743
11
15.272396
21
8.356744
0
LINE
8
Layer 1
10
14.717000
20
29.546300
11
14.047594
21
29.259530
0
LINE
8
Layer 1
10
14.047594
20
29.259530
11
13.467440
21
28.838879
0
LINE
8
Layer 1
10
13.467440
20
28.838879
11
12.818696
21
27.815764
0
LINE
8
Layer 1
10
12.818696
20
27.815764
11
12.561677
21
26.663729
0
LINE
8
Layer 1
10
12.561677
20
26.663729
11
12.740185
21
26.040604
0
LINE
8
Layer 1
10
12.740185
20
26.040604
11
13.156704
21
25.526569
0
LINE
8
Layer 1
10
13.156704
20
25.526569
11
13.584277
21
25.323062
0
LINE
8
Layer 1
10
13.584277
20
25.323062
11
14.043460
21
25.276989
0
LINE
8
Layer 1
10
14.043460
20
25.276989
11
14.489008
21
25.387110
0
LINE
8
Layer 1
10
14.489008
20
25.387110
11
14.875674
21
25.652186
0
LINE
8
Layer 1
10
14.875674
20
25.652186
11
15.120296
21
25.896808
0
LINE
8
Layer 1
10
15.120296
20
25.896808
11
15.232690
21
25.711689
0
LINE
8
Layer 1
10
15.232690
20
25.711689
11
15.625242
21
25.360458
0
LINE
8
Layer 1
10
15.625242
20
25.360458
11
16.270680
21
25.202610
0
LINE
8
Layer 1
10
16.270680
20
25.202610
11
16.996283
21
25.274509
0
LINE
8
Layer 1
10
16.996283
20
25.274509
11
17.513630
21
25.619129
0
LINE
8
Layer 1
10
17.513630
20
25.619129
11
17.748554
21
26.022670
0
LINE
8
Layer 1
10
17.748554
20
26.022670
11
17.850915
21
26.515698
0
LINE
8
Layer 1
10
17.850915
20
26.515698
11
17.702881
21
27.629824
0
LINE
8
Layer 1
10
17.702881
20
27.629824
11
17.159402
21
28.680727
0
LINE
8
Layer 1
10
17.159402
20
28.680727
11
16.310350
21
29.387629
0
LINE
8
Layer 1
10
16.310350
20
29.387629
11
15.516156
21
29.573575
0
LINE
8
Layer 1
10
15.516156
20
29.573575
11
14.717000
21
29.546303
0
LINE
8
Layer 1
10
14.717000
20
29.546303
11
14.717000
21
29.546300
0
LINE
8
Layer 1
10
16.178120
20
29.050444
11
16.868599
21
28.463578
0
LINE
8
Layer 1
10
16.868599
20
28.463578
11
17.338423
21
27.598413
0
LINE
8
Layer 1
10
17.338423
20
27.598413
11
17.505775
21
26.682424
0
LINE
8
Layer 1
10
17.505775
20
26.682424
11
17.288840
21
25.943084
0
LINE
8
Layer 1
10
17.288840
20
25.943084
11
16.913643
21
25.619952
0
LINE
8
Layer 1
10
16.913643
20
25.619952
11
16.429357
21
25.519954
0
LINE
8
Layer 1
10
16.429357
20
25.519954
11
15.920279
21
25.612514
0
LINE
8
Layer 1
10
15.920279
20
25.612514
11
15.589708
21
25.863747
0
LINE
8
Layer 1
10
15.589708
20
25.863747
11
15.437646
21
26.584391
0
LINE
8
Layer 1
10
15.437646
20
26.584391
11
15.391366
21
27.152972
0
LINE
8
Layer 1
10
15.391366
20
27.152972
11
15.688879
21
27.265366
0
LINE
8
Layer 1
10
15.688879
20
27.265366
11
16.148372
21
27.556268
0
LINE
8
Layer 1
10
16.148372
20
27.556268
11
16.290517
21
27.966175
0
LINE
8
Layer 1
10
16.290517
20
27.966175
11
16.160768
21
28.397569
0
LINE
8
Layer 1
10
16.160768
20
28.397569
11
15.788050
21
28.700042
0
LINE
8
Layer 1
10
15.788050
20
28.700042
11
15.124428
21
28.867806
0
LINE
8
Layer 1
10
15.124428
20
28.867806
11
14.545100
21
28.812436
0
LINE
8
Layer 1
10
14.545100
20
28.812436
11
14.226926
21
28.485997
0
LINE
8
Layer 1
10
14.226926
20
28.485997
11
14.082301
21
28.065347
0
LINE
8
Layer 1
10
14.082301
20
28.065347
11
14.173208
21
27.790973
0
LINE
8
Layer 1
10
14.173208
20
27.790973
11
14.432706
21
27.615771
0
LINE
8
Layer 1
10
14.432706
20
27.615771
11
14.615346
21
27.356274
0
LINE
8
Layer 1
10
14.615346
20
27.356274
11
14.683940
21
26.610841
0
LINE
8
Layer 1
10
14.683940
20
26.610841
11
14.675676
21
26.029863
0
LINE
8
Layer 1
10
14.675676
20
26.029863
11
14.518655
21
25.810860
0
LINE
8
Layer 1
10
14.518655
20
25.810860
11
14.228579
21
25.658797
0
LINE
8
Layer 1
10
14.228579
20
25.658797
11
13.784788
21
25.645575
0
LINE
8
Layer 1
10
13.784788
20
25.645575
11
13.383455
21
25.787307
0
LINE
8
Layer 1
10
13.383455
20
25.787307
11
13.098028
21
26.105068
0
LINE
8
Layer 1
10
13.098028
20
26.105068
11
12.952681
21
26.556710
0
LINE
8
Layer 1
10
12.952681
20
26.556710
11
12.971585
21
27.100085
0
LINE
8
Layer 1
10
12.971585
20
27.100085
11
13.228501
21
27.862051
0
LINE
8
Layer 1
10
13.228501
20
27.862051
11
13.673222
21
28.500052
0
LINE
8
Layer 1
10
13.673222
20
28.500052
11
14.262980
21
28.966983
0
LINE
8
Layer 1
10
14.262980
20
28.966983
11
14.955005
21
29.215735
0
LINE
8
Layer 1
10
14.955005
20
29.215735
11
15.583915
21
29.237222
0
LINE
8
Layer 1
10
15.583915
20
29.237222
11
16.178115
21
29.050450
0
LINE
8
Layer 1
10
16.178115
20
29.050450
11
16.178120
21
29.050444
0
LINE
8
Layer 1
10
15.312025
20
28.488474
11
15.602927
21
28.395914
0
LINE
8
Layer 1
10
15.602927
20
28.395914
11
15.384750
21
28.151292
0
LINE
8
Layer 1
10
15.384750
20
28.151292
11
15.166573
21
27.919893
0
LINE
8
Layer 1
10
15.166573
20
27.919893
11
15.060790
21
28.091790
0
LINE
8
Layer 1
10
15.060790
20
28.091790
11
14.736831
21
28.343024
0
LINE
8
Layer 1
10
14.736831
20
28.343024
11
14.512043
21
28.409138
0
LINE
8
Layer 1
10
14.512043
20
28.409138
11
14.677328
21
28.481864
0
LINE
8
Layer 1
10
14.677328
20
28.481864
11
15.312023
21
28.488475
0
LINE
8
Layer 1
10
15.312023
20
28.488475
11
15.312025
21
28.488474
0
LINE
8
Layer 1
10
15.933498
20
27.913281
11
15.543425
21
27.536431
0
LINE
8
Layer 1
10
15.543425
20
27.536431
11
15.500451
21
27.642214
0
LINE
8
Layer 1
10
15.500451
20
27.642214
11
15.655819
21
27.886836
0
LINE
8
Layer 1
10
15.655819
20
27.886836
11
15.933498
21
27.913282
0
LINE
8
Layer 1
10
15.933498
20
27.913282
11
15.933498
21
27.913281
0
LINE
8
Layer 1
10
0.185119
20
0.019773
11
0.449575
21
0.019773
0
LINE
8
Layer 1
10
0.449575
20
0.019773
11
0.297513
21
0.046219
0
LINE
8
Layer 1
10
0.297513
20
0.046219
11
0.185119
21
0.019773
0
LINE
8
Layer 1
10
0.185119
20
0.019773
11
0.185119
21
0.019773
0
LINE
8
Layer 1
10
1.309060
20
0.019773
11
2.366890
21
0.019773
0
LINE
8
Layer 1
10
2.366890
20
0.019773
11
2.414823
21
0.032170
0
LINE
8
Layer 1
10
2.414823
20
0.032170
11
1.818143
21
0.039607
0
LINE
8
Layer 1
10
1.818143
20
0.039607
11
1.231380
21
0.032170
0
LINE
8
Layer 1
10
1.231380
20
0.032170
11
1.309064
21
0.019773
0
LINE
8
Layer 1
10
1.309064
20
0.019773
11
1.309060
21
0.019773
0
LINE
8
Layer 1
10
4.376750
20
0.019773
11
6.327120
21
0.019773
0
LINE
8
Layer 1
10
6.327120
20
0.019773
11
6.554594
21
0.025661
0
LINE
8
Layer 1
10
6.554594
20
0.025661
11
6.446126
21
0.032170
0
LINE
8
Layer 1
10
6.446126
20
0.032170
11
5.355243
21
0.039607
0
LINE
8
Layer 1
10
5.355243
20
0.039607
11
4.263534
21
0.032170
0
LINE
8
Layer 1
10
4.263534
20
0.032170
11
4.153104
21
0.025661
0
LINE
8
Layer 1
10
4.153104
20
0.025661
11
4.376754
21
0.019773
0
LINE
8
Layer 1
10
4.376754
20
0.019773
11
4.376750
21
0.019773
0
LINE
8
Layer 1
10
10.465900
20
0.019773
11
16.746740
21
0.019773
0
LINE
8
Layer 1
10
16.746740
20
0.019773
11
17.464389
21
0.024628
0
LINE
8
Layer 1
10
17.464389
20
0.024628
11
17.107890
21
0.028864
0
LINE
8
Layer 1
10
17.107890
20
0.028864
11
13.586490
21
0.032996
0
LINE
8
Layer 1
10
13.586490
20
0.032996
11
10.079960
21
0.028864
0
LINE
8
Layer 1
10
10.079960
20
0.028864
11
9.734617
21
0.024628
0
LINE
8
Layer 1
10
9.734617
20
0.024628
11
10.465900
21
0.019773
0
LINE
8
Layer 1
10
10.465900
20
0.019773
11
10.465900
21
0.019773
0
LINE
8
Layer 1
10
20.746600
20
0.019773
11
20.872217
21
0.026385
0
LINE
8
Layer 1
10
20.872217
20
0.026385
11
20.786269
21
0.059442
0
LINE
8
Layer 1
10
20.786269
20
0.059442
11
20.746600
21
0.019773
0
LINE
8
Layer 1
10
20.746600
20
0.019773
11
20.746600
21
0.019773
0
LINE
8
Layer 1
10
22.829200
20
0.019773
11
25.969620
21
0.019773
0
LINE
8
Layer 1
10
25.969620
20
0.019773
11
26.329012
21
0.024628
0
LINE
8
Layer 1
10
26.329012
20
0.024628
11
26.152259
21
0.028864
0
LINE
8
Layer 1
10
26.152259
20
0.028864
11
24.396100
21
0.032996
0
LINE
8
Layer 1
10
24.396100
20
0.032996
11
22.640770
21
0.028864
0
LINE
8
Layer 1
10
22.640770
20
0.028864
11
22.465982
21
0.024628
0
LINE
8
Layer 1
10
22.465982
20
0.024628
11
22.829200
21
0.019773
0
LINE
8
Layer 1
10
22.829200
20
0.019773
11
22.829200
21
0.019773
0
LINE
8
Layer 1
10
27.920000
20
0.019773
11
28.680312
21
0.019773
0
LINE
8
Layer 1
10
28.680312
20
0.019773
11
28.721633
21
0.034649
0
LINE
8
Layer 1
10
28.721633
20
0.034649
11
28.296850
21
0.039607
0
LINE
8
Layer 1
10
28.296850
20
0.039607
11
27.872893
21
0.034649
0
LINE
8
Layer 1
10
27.872893
20
0.034649
11
27.920000
21
0.019773
0
LINE
8
Layer 1
10
27.920000
20
0.019773
11
27.920000
21
0.019773
0
LINE
8
Layer 1
10
30.068700
20
0.019773
11
31.390980
21
0.019773
0
LINE
8
Layer 1
10
31.390980
20
0.019773
11
31.534675
21
0.025661
0
LINE
8
Layer 1
10
31.534675
20
0.025661
11
31.454615
21
0.032170
0
LINE
8
Layer 1
10
31.454615
20
0.032170
11
30.710005
21
0.039607
0
LINE
8
Layer 1
10
30.710005
20
0.039607
11
29.975311
21
0.032170
0
LINE
8
Layer 1
10
29.975311
20
0.032170
11
29.907647
21
0.025661
0
LINE
8
Layer 1
10
29.907647
20
0.025661
11
30.068698
21
0.019773
0
LINE
8
Layer 1
10
30.068698
20
0.019773
11
30.068700
21
0.019773
0
LINE
8
Layer 1
10
33.671900
20
0.019773
11
35.490040
21
0.019773
0
LINE
8
Layer 1
10
35.490040
20
0.019773
11
35.697060
21
0.025661
0
LINE
8
Layer 1
10
35.697060
20
0.025661
11
35.594170
21
0.032170
0
LINE
8
Layer 1
10
35.594170
20
0.032170
11
34.577665
21
0.039607
0
LINE
8
Layer 1
10
34.577665
20
0.039607
11
33.561987
21
0.032170
0
LINE
8
Layer 1
10
33.561987
20
0.032170
11
33.461060
21
0.025661
0
LINE
8
Layer 1
10
33.461060
20
0.025661
11
33.671902
21
0.019773
0
LINE
8
Layer 1
10
33.671902
20
0.019773
11
33.671900
21
0.019773
0
LINE
8
Layer 1
10
37.473500
20
0.019773
11
39.093300
21
0.019773
0
LINE
8
Layer 1
10
39.093300
20
0.019773
11
39.278626
21
0.025661
0
LINE
8
Layer 1
10
39.278626
20
0.025661
11
39.187512
21
0.032170
0
LINE
8
Layer 1
10
39.187512
20
0.032170
11
38.280097
21
0.039607
0
LINE
8
Layer 1
10
38.280097
20
0.039607
11
37.373507
21
0.032170
0
LINE
8
Layer 1
10
37.373507
20
0.032170
11
37.284356
21
0.025661
0
LINE
8
Layer 1
10
37.284356
20
0.025661
11
37.473505
21
0.019773
0
LINE
8
Layer 1
10
37.473505
20
0.019773
11
37.473500
21
0.019773
 0 
ENDSEC
 0 
EOF