<?xml version="1.0" standalone="no"?>
<!DOCTYPE svg PUBLIC "-//W3C//DTD SVG 20010904//EN"
 "http://www.w3.org/TR/2001/REC-SVG-20010904/DTD/svg10.dtd">
<svg version="1.0" xmlns="http://www.w3.org/2000/svg"
 width="800.000000pt" height="457.000000pt" viewBox="0 0 800.000000 457.000000"
 preserveAspectRatio="xMidYMid meet">
<metadata>
Created by potrace 1.16, written by Peter Selinger 2001-2019
</metadata>
<g transform="translate(0.000000,457.000000) scale(0.100000,-0.100000)"
fill="#000000" stroke="none">
<path d="M1597 4143 c-4 -3 -7 -21 -7 -39 l0 -33 -146 -3 c-146 -3 -146 -3
-170 -31 -24 -28 -24 -29 -17 -188 l6 -159 -187 0 c-281 0 -286 -3 -286 -212
0 -131 -1 -138 -20 -138 -16 0 -20 7 -20 30 0 23 -4 30 -20 30 -16 0 -20 -7
-20 -30 l0 -30 -109 0 -110 0 -3 27 c-5 41 -38 44 -38 4 0 -16 -4 -33 -10 -36
-6 -4 -10 43 -10 134 0 171 0 171 105 171 74 0 98 13 72 39 -14 14 -100 14
-149 1 -62 -18 -68 -35 -68 -197 l0 -143 -42 0 c-57 0 -88 -9 -88 -26 0 -11
16 -14 64 -14 l65 0 3 -37 c2 -26 8 -38 18 -38 10 0 16 12 18 38 2 20 7 37 12
37 5 0 11 -53 12 -117 l3 -118 145 0 145 0 5 115 c4 99 7 115 23 118 15 3 17
-7 17 -112 0 -175 18 -196 165 -196 l85 0 0 -319 0 -320 -52 -3 c-41 -2 -54
-7 -56 -20 -3 -15 5 -18 52 -18 l55 0 3 -77 3 -78 108 -3 107 -3 0 -849 0
-849 -32 -3 c-45 -4 -49 -28 -4 -28 34 0 35 -1 38 -42 4 -57 26 -62 30 -6 l3
43 322 3 322 2 3 -42 c4 -60 32 -60 36 0 l3 42 1839 0 1839 0 3 -42 c4 -60 32
-60 36 0 l3 42 377 -2 c363 -3 377 -4 374 -22 -5 -29 7 -68 21 -63 7 2 14 21
17 43 5 37 7 39 43 42 53 5 51 32 -3 32 l-40 0 0 1700 0 1700 21 0 c28 0 61
19 54 31 -4 5 -22 9 -41 9 -31 0 -34 2 -34 30 0 31 -29 45 -31 15 -1 -8 -2
-21 -3 -27 -1 -10 -85 -14 -378 -16 l-377 -2 -3 32 c-4 45 -32 45 -36 1 l-3
-33 -609 0 c-571 0 -609 1 -613 18 -3 9 -8 35 -12 57 -10 64 -15 75 -35 75
-13 0 -40 -28 -76 -75 l-56 -75 -1139 0 -1139 0 0 59 c0 33 -3 67 -6 76 -14
35 -58 45 -204 45 l-140 0 0 24 c0 44 -16 67 -33 49z m-7 -288 l0 -165 -130 0
-130 0 0 135 c0 128 -1 135 -20 135 -22 0 -25 12 -10 41 10 17 23 19 150 19
l140 0 0 -165z m348 98 l3 -62 -43 -3 c-43 -3 -58 -21 -22 -26 67 -10 64 -6
64 -92 l0 -80 -155 0 -155 0 0 165 0 166 153 -3 152 -3 3 -62z m2451 -50 c1
-8 -12 -13 -35 -13 l-35 0 28 36 c27 37 28 37 34 13 4 -13 7 -30 8 -36z
m-1951 -70 c6 -9 12 -45 12 -80 l0 -63 -235 0 -235 0 0 78 c0 43 2 81 5 84 3
3 104 4 223 2 189 -4 219 -6 230 -21z m1783 12 c1 -3 -21 -34 -48 -68 -77 -97
-178 -229 -198 -260 -26 -41 -8 -57 68 -57 l61 0 -69 -63 c-43 -40 -66 -67
-61 -75 13 -21 37 -13 78 24 22 19 42 33 44 31 3 -3 -15 -85 -40 -184 -26 -98
-46 -189 -46 -200 0 -24 20 -35 41 -22 31 20 34 10 25 -96 -5 -58 -13 -105
-17 -105 -4 0 -53 138 -109 308 -128 381 -141 412 -173 412 -14 0 -28 -7 -32
-17 -3 -10 -45 -124 -92 -253 -47 -129 -87 -237 -89 -239 -2 -2 -4 71 -4 163
l0 167 30 -18 c24 -14 32 -15 42 -5 14 14 16 10 -94 292 -53 135 -68 166 -86
168 -17 3 -22 -3 -27 -35 -14 -77 -75 -401 -92 -487 l-19 -89 -94 153 c-102
163 -127 188 -160 154 -10 -10 -55 -125 -98 -254 -59 -174 -82 -230 -88 -215
-4 11 -34 85 -66 164 -32 79 -58 147 -58 150 0 3 14 7 32 7 21 1 39 10 55 28
21 25 23 36 23 157 0 201 -8 209 -231 209 l-137 0 -4 80 -3 79 45 3 c97 6
1690 0 1691 -7z m193 -80 c10 -50 34 -153 52 -230 18 -77 31 -141 30 -143 -2
-1 -15 8 -31 20 -21 16 -31 19 -44 11 -21 -14 -20 -18 53 -251 35 -111 60
-202 57 -202 -3 0 -30 16 -58 35 -55 37 -68 41 -78 25 -3 -5 1 -99 9 -207 16
-201 49 -721 65 -1003 l9 -155 -142 -137 -141 -136 -47 186 c-26 103 -48 190
-48 195 0 4 42 7 94 7 52 0 97 4 100 8 4 6 11 1780 7 1820 -2 19 -39 14 -45
-5 -3 -10 -4 -382 -3 -828 1 -445 1 -840 -1 -877 l-4 -68 -78 0 -79 0 -15 54
c-27 92 -16 339 40 900 28 277 27 290 -21 268 -14 -6 -25 -10 -25 -9 0 2 25
101 55 222 31 120 54 224 51 232 -4 9 -25 13 -72 13 -37 0 -64 4 -62 9 9 28
244 324 262 331 12 5 37 8 56 7 l35 -3 19 -89z m1229 88 c16 -4 17 -94 17
-1704 l0 -1699 -1840 0 -1840 0 0 929 0 930 47 3 c35 2 48 7 48 18 0 11 -13
16 -47 18 l-48 3 0 89 0 89 38 3 c51 4 51 32 0 36 l-38 3 0 210 0 209 194 0
194 0 -59 -142 c-32 -79 -59 -149 -59 -156 0 -26 30 -23 74 8 l46 31 0 -68 c0
-37 -5 -294 -11 -571 -9 -397 -9 -505 1 -517 8 -9 30 -15 56 -15 24 0 44 -2
44 -5 0 -3 -23 -52 -52 -110 -60 -121 -58 -136 14 -118 24 6 51 14 60 18 12 5
-11 -52 -72 -181 -50 -104 -90 -194 -90 -201 0 -25 42 -33 167 -33 l128 0 -3
-108 c-3 -90 0 -111 13 -122 30 -25 39 2 36 120 l-3 110 130 0 c145 0 162 3
162 31 0 11 -22 108 -49 217 -140 560 -154 623 -135 637 16 11 17 33 5 351
-18 514 -41 736 -101 982 -16 68 -30 128 -30 133 0 6 12 9 27 7 25 -3 32 -15
89 -155 l62 -151 -33 19 c-57 34 -60 11 -14 -131 44 -140 45 -153 24 -203 -18
-42 -19 -83 -4 -92 5 -4 33 9 61 29 29 20 53 35 54 33 1 -1 -2 -177 -7 -390
-8 -299 -8 -391 1 -403 10 -11 43 -14 151 -14 77 0 139 -1 139 -2 0 -2 -23
-73 -50 -158 -43 -134 -47 -157 -35 -169 12 -12 19 -12 41 -2 24 10 26 10 19
-6 -24 -63 -225 -667 -225 -678 0 -21 20 -29 34 -14 14 16 13 12 161 448 114
333 116 347 54 324 -28 -11 -31 -10 -26 5 3 9 39 123 80 252 41 129 83 263 92
298 10 35 21 59 25 55 4 -4 61 -168 126 -363 65 -195 130 -388 146 -429 15
-41 26 -76 25 -76 -5 -4 -196 20 -200 25 -3 3 -13 118 -22 255 -17 250 -24
284 -54 265 -13 -7 -12 -44 3 -272 14 -207 53 -630 79 -841 l4 -27 -94 0 -93
0 0 33 c0 19 9 121 19 228 35 347 36 368 17 375 -10 4 -21 3 -26 -2 -10 -11
-63 -595 -58 -644 l3 -35 131 -3 c101 -2 134 1 142 11 9 10 4 81 -18 286 -17
150 -30 282 -30 293 0 20 3 21 93 13 159 -14 162 -14 160 15 -2 33 -328 999
-341 1012 -13 13 -31 2 -42 -26 -6 -14 -9 14 -9 83 l-1 103 28 -7 c15 -3 36
-9 48 -11 11 -3 26 1 32 9 10 12 0 37 -49 132 -66 126 -66 129 13 89 34 -18
67 -18 74 -1 2 7 -20 59 -51 116 l-55 103 36 135 c28 102 34 137 25 146 -9 9
-16 9 -31 -1 -11 -7 -20 -10 -20 -8 0 9 92 451 94 453 2 2 45 -101 94 -227 5
-13 3 -13 -12 -1 -39 32 -41 9 -36 -433 5 -392 6 -420 23 -430 16 -9 24 -5 54
29 l35 40 -8 -335 c-12 -480 -13 -444 13 -448 20 -3 21 2 27 90 3 51 8 215 12
363 8 391 12 473 24 495 26 48 91 241 84 251 -9 15 -61 6 -113 -19 -22 -11
-41 -18 -41 -15 0 3 31 92 69 197 38 105 72 202 76 215 4 12 11 19 15 15 5 -5
56 -151 115 -324 58 -173 108 -321 110 -327 6 -18 -10 -16 -25 2 -16 19 -39
19 -46 1 -5 -12 10 -137 52 -426 8 -58 17 -121 19 -140 l5 -35 -13 35 c-11 27
-20 35 -38 35 -23 0 -25 -6 -61 -195 -20 -107 -37 -196 -37 -197 -1 -2 -5 -3
-11 -3 -7 0 -10 215 -10 624 0 423 -3 627 -10 631 -6 4 -17 1 -25 -5 -13 -11
-15 -103 -15 -640 0 -346 3 -635 6 -644 3 -9 17 -16 30 -16 13 0 24 -3 24 -7
0 -5 -20 -100 -45 -213 -98 -442 -132 -606 -127 -618 3 -8 33 -12 104 -12
l100 0 -7 -118 c-6 -102 -5 -120 8 -125 9 -3 20 0 25 6 5 7 22 190 37 407 15
217 28 396 30 398 3 4 6 -24 41 -378 14 -146 27 -271 29 -277 5 -16 270 -19
280 -3 4 7 -36 179 -71 303 -5 15 4 17 100 17 94 0 106 -2 106 -17 0 -10 -9
-111 -20 -226 -10 -114 -17 -214 -13 -223 4 -12 23 -14 102 -12 l96 3 -4 154
-4 154 111 -6 c93 -5 113 -3 120 9 8 15 0 73 -58 395 -17 92 -30 170 -30 173
0 3 8 6 19 6 30 0 43 25 40 77 -4 53 -9 49 75 45 l33 -2 -43 -177 c-24 -98
-43 -188 -44 -199 0 -33 22 -46 55 -34 25 10 27 9 22 -12 -22 -94 -69 -379
-64 -392 5 -13 23 -16 103 -16 l97 0 -6 -59 c-8 -76 0 -83 95 -79 l73 3 0 35
c0 19 -4 65 -8 102 l-7 67 87 3 c79 3 88 5 91 23 1 11 -29 94 -68 185 -39 91
-74 171 -77 178 -4 9 8 7 35 -7 44 -22 77 -27 87 -12 3 6 -13 59 -35 119 -22
60 -40 112 -40 116 0 3 20 6 45 6 29 0 48 5 51 13 3 8 -22 144 -56 303 -33
160 -60 293 -60 296 0 4 13 1 29 -5 33 -12 61 -4 61 18 0 8 -27 82 -60 165
-33 83 -60 152 -60 155 0 2 16 -3 36 -11 33 -14 38 -14 53 0 14 15 9 30 -62
171 l-77 154 30 -6 c22 -4 31 -1 36 11 9 25 -6 53 -104 195 -85 122 -148 229
-139 237 2 2 21 -3 41 -11 29 -12 41 -13 52 -4 8 6 14 15 14 18 0 8 -212 361
-242 404 -13 19 -27 27 -41 25 -25 -3 -51 -61 -182 -395 -44 -112 -82 -199
-86 -195 -7 7 -79 242 -79 256 0 3 11 -1 25 -10 28 -18 55 -13 55 12 0 9 -22
112 -49 228 -28 116 -53 228 -56 248 l-7 37 58 3 c96 5 1117 6 1137 1z m815
-1701 l2 -1702 -380 0 -380 0 0 1699 c0 1587 1 1700 17 1703 9 2 179 3 377 3
l361 0 3 -1703z m-5198 1423 l0 -65 -65 0 c-74 0 -128 -18 -144 -48 -6 -12
-11 -43 -11 -71 0 -27 -3 -52 -7 -54 -5 -2 -50 -2 -100 1 l-93 4 0 137 c0 93
4 141 12 149 9 9 69 12 210 12 l198 0 0 -65z m680 0 l0 -65 -325 0 -325 0 0
65 0 65 325 0 325 0 0 -65z m510 -85 l0 -150 -130 0 -130 0 0 51 c0 28 -5 59
-11 71 -16 29 -70 48 -139 48 l-60 0 0 65 0 65 235 0 235 0 0 -150z m348 138
c8 -8 12 -55 12 -145 0 -121 -2 -133 -19 -143 -48 -25 -57 -16 -106 109 -67
170 -82 170 -141 1 -22 -61 -42 -110 -46 -110 -5 0 -8 68 -8 150 l0 150 148 0
c102 0 152 -4 160 -12z m2133 -183 c49 -81 89 -148 89 -150 0 -2 -19 -3 -42
-2 -40 2 -43 0 -42 -23 1 -14 38 -108 83 -209 44 -102 80 -186 78 -187 -1 -1
-40 16 -87 37 -95 42 -140 49 -140 21 0 -9 20 -190 44 -402 71 -621 70 -590
43 -695 -21 -86 -23 -90 -51 -93 -16 -2 -45 -1 -64 3 l-34 6 3 825 c3 752 2
826 -13 835 -10 6 -19 5 -25 -4 -6 -7 -9 -357 -9 -899 1 -489 -2 -888 -6 -888
-7 0 -13 24 -28 125 -17 108 -19 115 -37 115 -10 0 -44 -26 -76 -57 l-58 -58
6 55 c11 109 46 940 40 950 -12 19 -40 10 -79 -27 -21 -21 -37 -31 -34 -23 3
8 17 52 33 98 18 57 31 82 40 78 7 -2 20 1 28 7 13 10 14 21 5 62 -10 50 -10
51 100 325 122 305 134 332 139 326 2 -2 44 -70 94 -151z m-2309 -103 c-30 -2
-56 -1 -59 2 -5 4 31 108 44 130 4 5 21 -21 38 -60 l31 -69 -54 -3z m-1362 58
l0 -60 -90 0 -90 0 0 44 c0 65 16 76 106 76 l74 0 0 -60z m680 -2 l0 -63 -160
3 c-88 2 -159 6 -159 10 3 20 -3 32 -16 32 -8 0 -15 -9 -15 -20 0 -19 -7 -20
-140 -20 -77 0 -143 -1 -147 -2 -5 -2 -9 25 -11 60 l-3 62 326 0 325 0 0 -62z
m200 42 c12 -22 10 -100 -2 -100 -5 0 -42 0 -83 0 l-75 0 0 60 0 60 75 0 c65
0 76 -3 85 -20z m939 -942 l1 -618 -70 0 -70 0 0 68 c0 37 5 222 10 411 8 244
7 348 0 355 -8 8 -19 6 -40 -6 -28 -16 -29 -16 -37 9 -7 21 11 88 91 327 l101
301 6 -115 c4 -63 7 -393 8 -732z m116 734 c32 -53 65 -106 72 -118 12 -19 11
-20 -17 -16 -25 4 -30 1 -30 -17 0 -12 19 -58 41 -103 41 -81 41 -83 29 -135
-10 -45 -15 -53 -35 -53 -25 0 -41 -26 -26 -44 11 -14 131 -233 131 -240 0 -3
-16 2 -36 10 -26 11 -40 12 -48 4 -10 -10 -11 -285 0 -373 3 -26 -7 -75 -31
-153 l-36 -114 -40 0 -39 0 0 633 c0 349 -3 675 -6 725 -4 53 -3 92 2 92 5 -1
36 -44 69 -98z m-2485 -32 l0 -100 -110 0 -110 0 0 100 0 100 110 0 110 0 0
-100z m330 44 c0 -30 5 -64 11 -76 16 -30 70 -48 144 -48 l66 0 -3 -42 -3 -43
-80 -3 c-51 -2 -88 2 -104 10 -19 10 -25 10 -28 1 -6 -16 -160 -18 -183 -3
-11 7 -16 38 -20 130 -3 67 -3 124 -1 126 2 2 49 4 103 4 l98 0 0 -56z m218
-11 l3 -63 -80 0 c-93 0 -101 7 -101 85 l0 46 88 -3 87 -3 3 -62z m327 -143
l0 -205 -47 -3 c-81 -5 -88 4 -88 112 0 146 -19 176 -115 176 l-45 0 0 58 c0
32 3 62 7 66 4 3 70 5 147 4 l141 -3 0 -205z m355 145 l0 -65 -66 0 c-59 0
-68 -3 -95 -29 -28 -29 -29 -32 -29 -135 0 -119 -4 -126 -79 -126 l-41 0 0
210 0 210 155 0 155 0 0 -65z m210 12 c0 -29 -5 -58 -12 -65 -7 -7 -42 -12
-85 -12 l-73 0 0 65 0 65 85 0 85 0 0 -53z m297 8 c2 -28 -9 -67 -35 -130
l-38 -90 -197 -3 -197 -2 0 45 0 45 64 0 c73 0 122 14 136 40 6 10 10 43 10
73 0 29 3 57 7 61 4 3 61 5 127 4 l121 -3 2 -40z m156 -50 c9 -46 20 -92 24
-102 6 -16 5 -16 -10 -5 -9 8 -21 11 -27 7 -7 -4 -10 -206 -10 -654 l1 -647
-45 -97 -45 -97 -46 0 -46 0 8 463 c4 254 8 521 8 592 0 124 -1 130 -21 133
-11 2 -27 -4 -34 -13 -31 -37 -26 -8 15 91 38 93 64 133 87 134 17 0 31 49 34
115 2 38 11 91 21 117 14 40 21 48 43 48 24 0 26 -5 43 -85z m-1203 -203 c5
-109 6 -115 33 -138 23 -20 39 -24 93 -24 l64 0 0 -41 c0 -33 3 -40 18 -37 12
2 18 14 20 41 l3 37 57 0 c41 0 64 6 82 20 24 18 25 26 30 137 l5 118 68 3 67
3 0 -46 c0 -41 -2 -45 -25 -45 -51 0 -56 -25 -53 -271 l3 -224 38 -3 37 -3 0
-90 0 -89 -154 0 c-145 0 -154 1 -159 20 -3 11 -12 20 -21 20 -9 0 -16 -8 -16
-20 0 -19 -7 -20 -130 -20 l-130 0 0 328 c0 316 -1 330 -20 347 -13 12 -20 31
-20 57 l0 39 53 -3 52 -3 5 -113z m1041 55 c-10 -9 -11 -8 -5 6 3 10 9 15 12
12 3 -3 0 -11 -7 -18z m228 -172 c11 -66 25 -178 30 -250 15 -186 34 -705 27
-712 -3 -4 -6 3 -6 14 0 25 -25 48 -40 38 -7 -4 -20 -21 -31 -39 -19 -31 -19
-26 -18 554 1 344 5 571 10 550 4 -19 17 -89 28 -155z m671 121 c0 -6 -4 -17
-9 -25 -7 -11 -13 -7 -25 17 -21 41 -20 44 9 30 14 -6 25 -16 25 -22z m-2082
-338 l2 -318 -90 0 -90 0 0 320 0 321 88 -3 87 -3 3 -317z m682 112 c0 -180
-2 -210 -15 -210 -13 0 -15 30 -15 210 0 180 2 210 15 210 13 0 15 -30 15
-210z m1724 49 c-46 -123 -90 -219 -99 -219 -3 0 -5 65 -5 145 0 130 2 146 18
151 9 3 42 16 72 29 30 12 56 21 58 20 2 -2 -18 -58 -44 -126z m843 77 c-2 -6
-13 -38 -23 -70 -16 -50 -20 -55 -25 -35 -4 13 -7 55 -8 92 l-1 68 31 -21 c16
-12 28 -27 26 -34z m-1652 -31 c-3 -11 -5 -26 -5 -32 0 -24 -17 -13 -24 15 -3
15 -9 38 -12 51 l-7 24 26 -19 c19 -13 26 -25 22 -39z m2169 -23 l89 -38 69
-133 c38 -73 67 -136 64 -138 -3 -3 -19 0 -36 7 -26 11 -34 11 -45 -1 -13 -12
-5 -37 54 -179 37 -91 67 -166 66 -168 -1 -1 -16 3 -34 9 -23 8 -36 8 -43 1
-12 -12 -11 -18 66 -381 25 -118 46 -221 46 -228 0 -10 -10 -13 -32 -11 l-33
3 -67 200 c-37 110 -76 241 -89 290 -12 50 -28 100 -35 112 -11 17 -14 77 -14
272 0 137 -3 256 -6 265 -9 23 -30 20 -68 -9 l-32 -25 -10 95 c-5 52 -7 95 -4
95 3 0 45 -17 94 -38z m150 -2 c-6 -5 -24 21 -24 34 0 6 6 1 14 -10 8 -10 12
-21 10 -24z m-1804 -84 c22 -37 22 -39 4 -32 -10 5 -27 11 -37 14 -13 3 -17
11 -13 26 3 11 6 28 6 36 0 17 9 7 40 -44z m658 -109 c22 -23 22 -27 12 -137
-5 -62 -11 -114 -13 -116 -2 -2 -9 47 -16 109 -7 61 -15 124 -18 140 -7 33 6
35 35 4z m521 -182 c-22 -473 -28 -587 -33 -593 -3 -3 -6 24 -6 59 0 35 -9
199 -20 364 l-21 300 43 37 c24 20 44 36 45 35 0 -1 -3 -92 -8 -202z m451 8
c0 -102 -2 -184 -5 -181 -3 3 -14 79 -24 169 -17 148 -17 166 -3 182 8 9 19
17 24 17 4 0 8 -84 8 -187z m-3740 -227 c0 -30 -3 -57 -8 -60 -4 -2 -45 -2
-90 1 l-82 6 0 53 0 54 90 0 90 0 0 -54z m330 34 c0 -11 6 -20 14 -20 8 0 18
9 21 20 6 19 15 20 161 20 l154 0 0 -930 0 -930 -325 0 -325 0 0 850 c0 843 0
850 20 850 18 0 20 7 20 80 l0 80 130 0 c123 0 130 -1 130 -20z m2426 -380
c81 -339 242 -994 250 -1013 5 -15 -4 -17 -85 -17 -50 0 -91 2 -91 4 0 2 -7
64 -15 138 -25 228 -65 684 -65 740 0 61 -10 81 -36 76 -15 -2 -21 -16 -26
-62 -8 -65 -43 -509 -54 -683 l-6 -112 -75 -6 c-41 -4 -76 -5 -79 -2 -5 5 29
171 102 502 51 232 89 416 109 530 21 118 20 119 71 -95z m1207 -372 c35 -98
63 -178 61 -178 -2 0 -23 10 -48 21 -45 23 -76 20 -76 -5 0 -8 36 -98 80 -201
44 -103 80 -188 80 -190 0 -3 -37 -5 -82 -7 l-83 -3 2 -80 c2 -44 5 -90 8
-102 5 -21 2 -23 -31 -23 l-36 0 3 424 c3 331 1 428 -8 437 -34 34 -38 -3 -41
-366 l-4 -355 -73 0 -72 0 8 53 c5 28 23 123 40 210 35 176 34 188 -24 170
l-34 -10 34 146 c62 267 82 361 98 454 9 51 18 99 21 107 3 8 30 -61 59 -155
30 -93 83 -250 118 -347z m-2468 27 c41 -171 90 -370 108 -444 23 -91 30 -134
22 -137 -6 -3 -58 -3 -116 -2 l-104 3 -2 75 c-1 41 -2 81 -2 88 -1 8 -10 12
-23 10 -22 -3 -23 -8 -24 -88 l-2 -85 -116 -3 c-64 -1 -116 -1 -116 1 0 2 45
98 101 212 73 150 97 211 89 219 -10 10 -39 2 -128 -31 -6 -3 43 107 110 244
68 138 124 250 125 249 1 -1 36 -141 78 -311z m1946 49 c45 -256 99 -573 99
-579 0 -3 -40 -5 -89 -5 -84 0 -89 1 -95 23 -3 12 -6 92 -6 178 0 126 -3 159
-15 169 -8 7 -22 10 -30 6 -14 -5 -15 -23 -10 -128 17 -350 24 -542 21 -545
-2 -2 -25 -4 -52 -6 l-48 -2 3 55 c1 30 8 116 16 190 7 74 21 259 31 410 l18
275 61 66 c33 36 61 64 63 63 2 -1 16 -78 33 -170z m-222 -185 c-5 -90 -12
-179 -15 -196 l-5 -33 -108 0 -108 0 -17 58 c-9 32 -16 63 -16 70 0 6 24 33
53 59 28 26 90 85 137 130 46 45 86 81 87 79 2 -1 -2 -76 -8 -167z"/>
</g>
</svg>
