<?xml version="1.0" standalone="no"?>
<!DOCTYPE svg PUBLIC "-//W3C//DTD SVG 20010904//EN"
 "http://www.w3.org/TR/2001/REC-SVG-20010904/DTD/svg10.dtd">
<svg version="1.0" xmlns="http://www.w3.org/2000/svg"
 width="100" height="100" viewBox="0 0 100 100"
 preserveAspectRatio="xMidYMid meet">
<metadata>
Created by potrace 1.16, written by Peter Selinger 2001-2019
</metadata>
<g transform="translate(0.000000,400.000000) scale(0.100000,-0.100000)"
fill="#000000" stroke="none">
<path d="M34 3895 c-4 -9 -2 -21 4 -27 15 -15 44 -1 40 19 -4 23 -36 29 -44 8z"/>
<path d="M3894 3895 c-8 -20 4 -35 26 -35 23 0 32 13 24 34 -8 20 -43 21 -50
1z"/>
<path d="M1033 3004 c-233 -51 -438 -226 -524 -449 -80 -206 -59 -440 59 -634
60 -100 115 -160 327 -359 109 -103 290 -272 400 -377 572 -542 688 -650 695
-650 8 0 199 179 795 745 571 542 600 573 665 711 53 114 73 218 67 344 -8
162 -55 286 -156 411 -96 120 -266 225 -418 258 -275 61 -586 -46 -891 -305
-52 -44 -76 -58 -85 -51 -6 5 -48 38 -92 73 -94 76 -228 165 -305 204 -169 86
-372 116 -537 79z m297 -300 c30 -9 86 -34 124 -56 69 -41 300 -210 311 -228
4 -6 -3 -23 -14 -38 -42 -59 -56 -113 -56 -212 0 -138 28 -192 175 -334 61
-58 114 -106 120 -106 5 0 63 53 128 118 102 100 123 126 142 177 46 120 34
258 -31 361 -25 38 -28 48 -16 58 64 52 225 169 268 194 176 100 342 115 495
43 73 -34 161 -113 199 -177 59 -101 69 -240 25 -354 -42 -110 -66 -135 -730
-765 -157 -148 -329 -312 -382 -364 l-98 -94 -157 149 c-412 387 -915 868
-957 915 -163 182 -164 437 -2 603 116 118 281 158 456 110z m670 -534 c0 -16
-4 -30 -10 -30 -11 0 -14 43 -3 53 11 12 13 8 13 -23z"/>
<path d="M43 83 c-18 -6 -16 -42 2 -49 16 -6 45 12 45 27 0 12 -33 27 -47 22z"/>
<path d="M3901 76 c-13 -16 -4 -46 14 -46 7 0 18 7 25 15 10 12 10 18 0 30
-15 19 -24 19 -39 1z"/>
</g>
</svg>
