999
"DXF R12 Output" (www.mydxf.blogspot.com)
 0 
SECTION
 2 
HEADER
 9 
$ACADVER
 1 
AC1009
 9 
$EXTMIN
 10 
 0 
 20 
 0 
 9 
$EXTMAX
 10 
 8.5 
 20 
 11 
 0 
ENDSEC
 0 
SECTION
 2 
ENTITIES
0
LINE
8
Layer 1
10
0.000000
20
35.277800
11
0.000000
21
0.000000
0
LINE
8
Layer 1
10
0.000000
20
0.000000
11
35.277800
21
0.000000
0
LINE
8
Layer 1
10
35.277800
20
0.000000
11
70.555600
21
0.000000
0
LINE
8
Layer 1
10
70.555600
20
0.000000
11
70.555600
21
35.277800
0
LINE
8
Layer 1
10
70.555600
20
35.277800
11
70.555600
21
70.555600
0
LINE
8
Layer 1
10
70.555600
20
70.555600
11
35.277800
21
70.555600
0
LINE
8
Layer 1
10
35.277800
20
70.555600
11
0.000000
21
70.555600
0
LINE
8
Layer 1
10
0.000000
20
70.555600
11
0.000000
21
35.277800
0
LINE
8
Layer 1
10
0.000000
20
35.277800
11
0.000000
21
35.277800
0
LINE
8
Layer 1
10
39.017200
20
52.175900
11
40.701517
21
51.781918
0
LINE
8
Layer 1
10
40.701517
20
51.781918
11
42.310232
21
51.228358
0
LINE
8
Layer 1
10
42.310232
20
51.228358
11
43.836367
21
50.525142
0
LINE
8
Layer 1
10
43.836367
20
50.525142
11
45.272947
21
49.682193
0
LINE
8
Layer 1
10
45.272947
20
49.682193
11
46.612995
21
48.709433
0
LINE
8
Layer 1
10
46.612995
20
48.709433
11
47.849535
21
47.616783
0
LINE
8
Layer 1
10
47.849535
20
47.616783
11
48.975591
21
46.414166
0
LINE
8
Layer 1
10
48.975591
20
46.414166
11
49.984186
21
45.111503
0
LINE
8
Layer 1
10
49.984186
20
45.111503
11
50.868344
21
43.718716
0
LINE
8
Layer 1
10
50.868344
20
43.718716
11
51.621089
21
42.245728
0
LINE
8
Layer 1
10
51.621089
20
42.245728
11
52.235444
21
40.702460
0
LINE
8
Layer 1
10
52.235444
20
40.702460
11
52.704432
21
39.098835
0
LINE
8
Layer 1
10
52.704432
20
39.098835
11
53.021079
21
37.444775
0
LINE
8
Layer 1
10
53.021079
20
37.444775
11
53.178406
21
35.750201
0
LINE
8
Layer 1
10
53.178406
20
35.750201
11
53.169439
21
34.025035
0
LINE
8
Layer 1
10
53.169439
20
34.025035
11
52.987200
21
32.279200
0
LINE
8
Layer 1
10
52.987200
20
32.279200
11
52.492760
21
30.155365
0
LINE
8
Layer 1
10
52.492760
20
30.155365
11
51.730429
21
27.856245
0
LINE
8
Layer 1
10
51.730429
20
27.856245
11
50.908566
21
25.934158
0
LINE
8
Layer 1
10
50.908566
20
25.934158
11
50.235530
21
24.941420
0
LINE
8
Layer 1
10
50.235530
20
24.941420
11
50.198599
21
25.054971
0
LINE
8
Layer 1
10
50.198599
20
25.054971
11
50.336954
21
25.505865
0
LINE
8
Layer 1
10
50.336954
20
25.505865
11
51.046919
21
27.128640
0
LINE
8
Layer 1
10
51.046919
20
27.128640
11
51.739625
21
28.769462
0
LINE
8
Layer 1
10
51.739625
20
28.769462
11
52.259318
21
30.442478
0
LINE
8
Layer 1
10
52.259318
20
30.442478
11
52.609925
21
32.135234
0
LINE
8
Layer 1
10
52.609925
20
32.135234
11
52.795375
21
33.835276
0
LINE
8
Layer 1
10
52.795375
20
33.835276
11
52.819594
21
35.530150
0
LINE
8
Layer 1
10
52.819594
20
35.530150
11
52.686510
21
37.207403
0
LINE
8
Layer 1
10
52.686510
20
37.207403
11
52.400050
21
38.854579
0
LINE
8
Layer 1
10
52.400050
20
38.854579
11
51.964142
21
40.459225
0
LINE
8
Layer 1
10
51.964142
20
40.459225
11
51.382713
21
42.008887
0
LINE
8
Layer 1
10
51.382713
20
42.008887
11
50.659691
21
43.491112
0
LINE
8
Layer 1
10
50.659691
20
43.491112
11
49.799003
21
44.893444
0
LINE
8
Layer 1
10
49.799003
20
44.893444
11
48.804575
21
46.203431
0
LINE
8
Layer 1
10
48.804575
20
46.203431
11
47.680337
21
47.408618
0
LINE
8
Layer 1
10
47.680337
20
47.408618
11
46.430215
21
48.496551
0
LINE
8
Layer 1
10
46.430215
20
48.496551
11
45.058137
21
49.454777
0
LINE
8
Layer 1
10
45.058137
20
49.454777
11
43.568029
21
50.270840
0
LINE
8
Layer 1
10
43.568029
20
50.270840
11
41.627062
21
51.081128
0
LINE
8
Layer 1
10
41.627062
20
51.081128
11
39.648891
21
51.659906
0
LINE
8
Layer 1
10
39.648891
20
51.659906
11
37.645915
21
52.007172
0
LINE
8
Layer 1
10
37.645915
20
52.007172
11
35.630537
21
52.122928
0
LINE
8
Layer 1
10
35.630537
20
52.122928
11
33.615157
21
52.007172
0
LINE
8
Layer 1
10
33.615157
20
52.007172
11
31.612179
21
51.659906
0
LINE
8
Layer 1
10
31.612179
20
51.659906
11
29.634002
21
51.081128
0
LINE
8
Layer 1
10
29.634002
20
51.081128
11
27.693029
21
50.270840
0
LINE
8
Layer 1
10
27.693029
20
50.270840
11
26.202920
21
49.454774
0
LINE
8
Layer 1
10
26.202920
20
49.454774
11
24.830839
21
48.496546
0
LINE
8
Layer 1
10
24.830839
20
48.496546
11
23.580715
21
47.408609
0
LINE
8
Layer 1
10
23.580715
20
47.408609
11
22.456475
21
46.203419
0
LINE
8
Layer 1
10
22.456475
20
46.203419
11
21.462046
21
44.893428
0
LINE
8
Layer 1
10
21.462046
20
44.893428
11
20.601356
21
43.491092
0
LINE
8
Layer 1
10
20.601356
20
43.491092
11
19.878332
21
42.008864
0
LINE
8
Layer 1
10
19.878332
20
42.008864
11
19.296902
21
40.459199
0
LINE
8
Layer 1
10
19.296902
20
40.459199
11
18.860993
21
38.854551
0
LINE
8
Layer 1
10
18.860993
20
38.854551
11
18.574533
21
37.207373
0
LINE
8
Layer 1
10
18.574533
20
37.207373
11
18.441449
21
35.530122
0
LINE
8
Layer 1
10
18.441449
20
35.530122
11
18.465669
21
33.835250
0
LINE
8
Layer 1
10
18.465669
20
33.835250
11
18.651121
21
32.135211
0
LINE
8
Layer 1
10
18.651121
20
32.135211
11
19.001731
21
30.442460
0
LINE
8
Layer 1
10
19.001731
20
30.442460
11
19.521428
21
28.769452
0
LINE
8
Layer 1
10
19.521428
20
28.769452
11
20.214139
21
27.128640
0
LINE
8
Layer 1
10
20.214139
20
27.128640
11
20.924104
21
25.505860
0
LINE
8
Layer 1
10
20.924104
20
25.505860
11
21.062459
21
25.054967
0
LINE
8
Layer 1
10
21.062459
20
25.054967
11
21.025528
21
24.941420
0
LINE
8
Layer 1
10
21.025528
20
24.941420
11
20.352494
21
25.934160
0
LINE
8
Layer 1
10
20.352494
20
25.934160
11
19.530632
21
27.856249
0
LINE
8
Layer 1
10
19.530632
20
27.856249
11
18.768300
21
30.155369
0
LINE
8
Layer 1
10
18.768300
20
30.155369
11
18.273858
21
32.279200
0
LINE
8
Layer 1
10
18.273858
20
32.279200
11
18.064982
21
34.515317
0
LINE
8
Layer 1
10
18.064982
20
34.515317
11
18.129165
21
36.689268
0
LINE
8
Layer 1
10
18.129165
20
36.689268
11
18.450903
21
38.786015
0
LINE
8
Layer 1
10
18.450903
20
38.786015
11
19.014693
21
40.790520
0
LINE
8
Layer 1
10
19.014693
20
40.790520
11
19.805033
21
42.687746
0
LINE
8
Layer 1
10
19.805033
20
42.687746
11
20.806418
21
44.462653
0
LINE
8
Layer 1
10
20.806418
20
44.462653
11
22.003347
21
46.100205
0
LINE
8
Layer 1
10
22.003347
20
46.100205
11
23.380317
21
47.585363
0
LINE
8
Layer 1
10
23.380317
20
47.585363
11
24.921823
21
48.903089
0
LINE
8
Layer 1
10
24.921823
20
48.903089
11
26.612364
21
50.038346
0
LINE
8
Layer 1
10
26.612364
20
50.038346
11
28.436436
21
50.976095
0
LINE
8
Layer 1
10
28.436436
20
50.976095
11
30.378536
21
51.701298
0
LINE
8
Layer 1
10
30.378536
20
51.701298
11
32.423161
21
52.198919
0
LINE
8
Layer 1
10
32.423161
20
52.198919
11
34.554809
21
52.453918
0
LINE
8
Layer 1
10
34.554809
20
52.453918
11
36.757975
21
52.451257
0
LINE
8
Layer 1
10
36.757975
20
52.451257
11
39.017158
21
52.175900
0
LINE
8
Layer 1
10
39.017158
20
52.175900
11
39.017200
21
52.175900
0
LINE
8
Layer 1
10
19.685000
20
24.094800
11
18.344440
21
23.953689
0
LINE
8
Layer 1
10
18.344440
20
23.953689
11
18.344440
21
17.250909
0
LINE
8
Layer 1
10
18.344440
20
17.250909
11
18.344440
21
10.583409
0
LINE
8
Layer 1
10
18.344440
20
10.583409
11
35.630540
21
10.583409
0
LINE
8
Layer 1
10
35.630540
20
10.583409
11
52.916640
21
10.583409
0
LINE
8
Layer 1
10
52.916640
20
10.583409
11
52.916640
21
17.250909
0
LINE
8
Layer 1
10
52.916640
20
17.250909
11
52.916640
21
23.953689
0
LINE
8
Layer 1
10
52.916640
20
23.953689
11
51.611360
21
24.094800
0
LINE
8
Layer 1
10
51.611360
20
24.094800
11
50.270800
21
24.235911
0
LINE
8
Layer 1
10
50.270800
20
24.235911
11
51.787750
21
24.271189
0
LINE
8
Layer 1
10
51.787750
20
24.271189
11
53.269420
21
24.341744
0
LINE
8
Layer 1
10
53.269420
20
24.341744
11
53.269420
21
17.286184
0
LINE
8
Layer 1
10
53.269420
20
17.286184
11
53.269420
21
10.230624
0
LINE
8
Layer 1
10
53.269420
20
10.230624
11
35.630520
21
10.230624
0
LINE
8
Layer 1
10
35.630520
20
10.230624
11
17.991620
21
10.230624
0
LINE
8
Layer 1
10
17.991620
20
10.230624
11
17.991620
21
17.286184
0
LINE
8
Layer 1
10
17.991620
20
17.286184
11
17.991620
21
24.341744
0
LINE
8
Layer 1
10
17.991620
20
24.341744
11
19.508570
21
24.271189
0
LINE
8
Layer 1
10
19.508570
20
24.271189
11
20.990240
21
24.235911
0
LINE
8
Layer 1
10
20.990240
20
24.235911
11
19.684960
21
24.094800
0
LINE
8
Layer 1
10
19.684960
20
24.094800
11
19.685000
21
24.094800
 0 
ENDSEC
 0 
EOF